%TF.GenerationSoftware,KiCad,Pcbnew,9.0.6*%
%TF.CreationDate,2026-01-25T14:16:13+00:00*%
%TF.ProjectId,Custom-Mixer-ESP32,43757374-6f6d-42d4-9d69-7865722d4553,rev?*%
%TF.SameCoordinates,Original*%
%TF.FileFunction,Copper,L1,Top*%
%TF.FilePolarity,Positive*%
%FSLAX46Y46*%
G04 Gerber Fmt 4.6, Leading zero omitted, Abs format (unit mm)*
G04 Created by KiCad (PCBNEW 9.0.6) date 2026-01-25 14:16:13*
%MOMM*%
%LPD*%
G01*
G04 APERTURE LIST*
G04 Aperture macros list*
%AMRoundRect*
0 Rectangle with rounded corners*
0 $1 Rounding radius*
0 $2 $3 $4 $5 $6 $7 $8 $9 X,Y pos of 4 corners*
0 Add a 4 corners polygon primitive as box body*
4,1,4,$2,$3,$4,$5,$6,$7,$8,$9,$2,$3,0*
0 Add four circle primitives for the rounded corners*
1,1,$1+$1,$2,$3*
1,1,$1+$1,$4,$5*
1,1,$1+$1,$6,$7*
1,1,$1+$1,$8,$9*
0 Add four rect primitives between the rounded corners*
20,1,$1+$1,$2,$3,$4,$5,0*
20,1,$1+$1,$4,$5,$6,$7,0*
20,1,$1+$1,$6,$7,$8,$9,0*
20,1,$1+$1,$8,$9,$2,$3,0*%
G04 Aperture macros list end*
%TA.AperFunction,ComponentPad*%
%ADD10R,1.508000X1.508000*%
%TD*%
%TA.AperFunction,ComponentPad*%
%ADD11C,1.508000*%
%TD*%
%TA.AperFunction,ComponentPad*%
%ADD12C,3.516000*%
%TD*%
%TA.AperFunction,ComponentPad*%
%ADD13C,1.600000*%
%TD*%
%TA.AperFunction,ComponentPad*%
%ADD14R,1.750000X1.750000*%
%TD*%
%TA.AperFunction,ComponentPad*%
%ADD15C,1.750000*%
%TD*%
%TA.AperFunction,ComponentPad*%
%ADD16C,2.700000*%
%TD*%
%TA.AperFunction,ComponentPad*%
%ADD17R,1.700000X1.700000*%
%TD*%
%TA.AperFunction,ComponentPad*%
%ADD18O,1.700000X1.700000*%
%TD*%
%TA.AperFunction,ComponentPad*%
%ADD19R,2.000000X1.200000*%
%TD*%
%TA.AperFunction,ComponentPad*%
%ADD20O,2.000000X1.200000*%
%TD*%
%TA.AperFunction,ComponentPad*%
%ADD21R,2.000000X2.000000*%
%TD*%
%TA.AperFunction,ComponentPad*%
%ADD22C,2.000000*%
%TD*%
%TA.AperFunction,ComponentPad*%
%ADD23R,3.200000X2.000000*%
%TD*%
%TA.AperFunction,ComponentPad*%
%ADD24RoundRect,0.250000X-0.550000X-0.550000X0.550000X-0.550000X0.550000X0.550000X-0.550000X0.550000X0*%
%TD*%
%TA.AperFunction,ViaPad*%
%ADD25C,0.600000*%
%TD*%
%TA.AperFunction,Conductor*%
%ADD26C,0.200000*%
%TD*%
G04 APERTURE END LIST*
D10*
%TO.P,U2,1,VIN*%
%TO.N,+3V3*%
X87450000Y-55000000D03*
D11*
%TO.P,U2,2,GND*%
%TO.N,GND*%
X89990000Y-55000000D03*
%TO.P,U2,3,SDA*%
%TO.N,Net-(U1-GPIO21)*%
X92530000Y-55000000D03*
%TO.P,U2,4,SCL*%
%TO.N,Net-(U1-GPIO22)*%
X95070000Y-55000000D03*
%TO.P,U2,5,RST*%
%TO.N,+3V3*%
X97610000Y-55000000D03*
%TO.P,U2,6,A0*%
%TO.N,GND*%
X100150000Y-55000000D03*
%TO.P,U2,7,A1*%
X102690000Y-55000000D03*
%TO.P,U2,8,A2*%
X105230000Y-55000000D03*
%TO.P,U2,9,SDA0*%
%TO.N,Net-(J1-Pin_4)*%
X107770000Y-55000000D03*
%TO.P,U2,10,SCL0*%
%TO.N,Net-(J1-Pin_3)*%
X110310000Y-55000000D03*
%TO.P,U2,11,SDA1*%
%TO.N,Net-(J2-Pin_4)*%
X112850000Y-55000000D03*
%TO.P,U2,12,SCL1*%
%TO.N,Net-(J2-Pin_3)*%
X115390000Y-55000000D03*
%TO.P,U2,13,SDA2*%
%TO.N,Net-(J3-Pin_4)*%
X115390000Y-39760000D03*
%TO.P,U2,14,SCL2*%
%TO.N,Net-(J3-Pin_3)*%
X112850000Y-39760000D03*
%TO.P,U2,15,SDA3*%
%TO.N,Net-(J4-Pin_4)*%
X110310000Y-39760000D03*
%TO.P,U2,16,SCL3*%
%TO.N,Net-(J4-Pin_3)*%
X107770000Y-39760000D03*
%TO.P,U2,17,SDA4*%
%TO.N,Net-(J5-Pin_4)*%
X105230000Y-39760000D03*
%TO.P,U2,18,SCL4*%
%TO.N,Net-(J5-Pin_3)*%
X102690000Y-39760000D03*
%TO.P,U2,19,SDA5*%
%TO.N,unconnected-(U2-SDA5-Pad19)*%
X100150000Y-39760000D03*
%TO.P,U2,20,SCL5*%
%TO.N,unconnected-(U2-SCL5-Pad20)*%
X97610000Y-39760000D03*
%TO.P,U2,21,SDA6*%
%TO.N,unconnected-(U2-SDA6-Pad21)*%
X95070000Y-39760000D03*
%TO.P,U2,22,SCL6*%
%TO.N,unconnected-(U2-SCL6-Pad22)*%
X92530000Y-39760000D03*
%TO.P,U2,23,SDA7*%
%TO.N,unconnected-(U2-SDA7-Pad23)*%
X89990000Y-39760000D03*
%TO.P,U2,24,SCL7*%
%TO.N,unconnected-(U2-SCL7-Pad24)*%
X87450000Y-39760000D03*
D12*
%TO.P,U2,P1*%
%TO.N,N/C*%
X88720000Y-47380000D03*
%TO.P,U2,P2*%
X114120000Y-47380000D03*
%TD*%
D13*
%TO.P,C4,1*%
%TO.N,Net-(U1-VDET_1{slash}GPIO34{slash}ADC1_CH6)*%
X128636900Y-59515000D03*
%TO.P,C4,2*%
%TO.N,GND*%
X131136900Y-59515000D03*
%TD*%
D14*
%TO.P,RV2,1,1*%
%TO.N,GND*%
X101728400Y-65970000D03*
D15*
%TO.P,RV2,2,2*%
%TO.N,Net-(U1-SENSOR_VP{slash}GPIO36{slash}ADC1_CH0)*%
X98228400Y-65970000D03*
%TO.P,RV2,3,3*%
%TO.N,unconnected-(RV2-Pad3)*%
X101728400Y-139470000D03*
D16*
%TO.P,RV2,MP*%
%TO.N,N/C*%
X95778400Y-70120000D03*
X104178400Y-71320000D03*
X104178400Y-134120000D03*
X95778400Y-135320000D03*
%TD*%
D14*
%TO.P,RV3,1,1*%
%TO.N,GND*%
X128861900Y-65430000D03*
D15*
%TO.P,RV3,2,2*%
%TO.N,Net-(U1-VDET_1{slash}GPIO34{slash}ADC1_CH6)*%
X125361900Y-65430000D03*
%TO.P,RV3,3,3*%
%TO.N,unconnected-(RV3-Pad3)*%
X128861900Y-138930000D03*
D16*
%TO.P,RV3,MP*%
%TO.N,N/C*%
X122911900Y-69580000D03*
X131311900Y-70780000D03*
X131311900Y-133580000D03*
X122911900Y-134780000D03*
%TD*%
D17*
%TO.P,J5,1,Pin_1*%
%TO.N,GND*%
X191724900Y-65325000D03*
D18*
%TO.P,J5,2,Pin_2*%
%TO.N,+3V3*%
X194264900Y-65325000D03*
%TO.P,J5,3,Pin_3*%
%TO.N,Net-(J5-Pin_3)*%
X196804900Y-65325000D03*
%TO.P,J5,4,Pin_4*%
%TO.N,Net-(J5-Pin_4)*%
X199344900Y-65325000D03*
%TD*%
D17*
%TO.P,J4,1,Pin_1*%
%TO.N,GND*%
X164611300Y-65325000D03*
D18*
%TO.P,J4,2,Pin_2*%
%TO.N,+3V3*%
X167151300Y-65325000D03*
%TO.P,J4,3,Pin_3*%
%TO.N,Net-(J4-Pin_3)*%
X169691300Y-65325000D03*
%TO.P,J4,4,Pin_4*%
%TO.N,Net-(J4-Pin_4)*%
X172231300Y-65325000D03*
%TD*%
D14*
%TO.P,RV4,1,1*%
%TO.N,GND*%
X155975500Y-64835000D03*
D15*
%TO.P,RV4,2,2*%
%TO.N,Net-(U1-VDET_2{slash}GPIO35{slash}ADC1_CH7)*%
X152475500Y-64835000D03*
%TO.P,RV4,3,3*%
%TO.N,unconnected-(RV4-Pad3)*%
X155975500Y-138335000D03*
D16*
%TO.P,RV4,MP*%
%TO.N,N/C*%
X150025500Y-68985000D03*
X158425500Y-70185000D03*
X158425500Y-132985000D03*
X150025500Y-134185000D03*
%TD*%
D19*
%TO.P,U1,1,3V3*%
%TO.N,+3V3*%
X239390000Y-81363400D03*
D20*
%TO.P,U1,2,CHIP_PU*%
%TO.N,unconnected-(U1-CHIP_PU-Pad2)*%
X239390000Y-78823400D03*
%TO.P,U1,3,SENSOR_VP/GPIO36/ADC1_CH0*%
%TO.N,Net-(U1-SENSOR_VP{slash}GPIO36{slash}ADC1_CH0)*%
X239390000Y-76283400D03*
%TO.P,U1,4,SENSOR_VN/GPIO39/ADC1_CH3*%
%TO.N,Net-(U1-SENSOR_VN{slash}GPIO39{slash}ADC1_CH3)*%
X239390000Y-73743400D03*
%TO.P,U1,5,VDET_1/GPIO34/ADC1_CH6*%
%TO.N,Net-(U1-VDET_1{slash}GPIO34{slash}ADC1_CH6)*%
X239390000Y-71203400D03*
%TO.P,U1,6,VDET_2/GPIO35/ADC1_CH7*%
%TO.N,Net-(U1-VDET_2{slash}GPIO35{slash}ADC1_CH7)*%
X239390000Y-68663400D03*
%TO.P,U1,7,32K_XP/GPIO32/ADC1_CH4*%
%TO.N,Net-(U1-32K_XP{slash}GPIO32{slash}ADC1_CH4)*%
X239390000Y-66123400D03*
%TO.P,U1,8,32K_XN/GPIO33/ADC1_CH5*%
%TO.N,unconnected-(U1-32K_XN{slash}GPIO33{slash}ADC1_CH5-Pad8)*%
X239390000Y-63583400D03*
%TO.P,U1,9,DAC_1/ADC2_CH8/GPIO25*%
%TO.N,Net-(U1-DAC_1{slash}ADC2_CH8{slash}GPIO25)*%
X239390000Y-61043400D03*
%TO.P,U1,10,DAC_2/ADC2_CH9/GPIO26*%
%TO.N,Net-(U1-DAC_2{slash}ADC2_CH9{slash}GPIO26)*%
X239390000Y-58503400D03*
%TO.P,U1,11,ADC2_CH7/GPIO27*%
%TO.N,Net-(U1-ADC2_CH7{slash}GPIO27)*%
X239390000Y-55963400D03*
%TO.P,U1,12,MTMS/GPIO14/ADC2_CH6*%
%TO.N,unconnected-(U1-MTMS{slash}GPIO14{slash}ADC2_CH6-Pad12)*%
X239390000Y-53423400D03*
%TO.P,U1,13,MTDI/GPIO12/ADC2_CH5*%
%TO.N,unconnected-(U1-MTDI{slash}GPIO12{slash}ADC2_CH5-Pad13)*%
X239390000Y-50883400D03*
%TO.P,U1,14,GND*%
%TO.N,GND*%
X239390000Y-48343400D03*
%TO.P,U1,15,MTCK/GPIO13/ADC2_CH4*%
%TO.N,unconnected-(U1-MTCK{slash}GPIO13{slash}ADC2_CH4-Pad15)*%
X239390000Y-45803400D03*
%TO.P,U1,16,SD_DATA2/GPIO9*%
%TO.N,unconnected-(U1-SD_DATA2{slash}GPIO9-Pad16)*%
X239390000Y-43263400D03*
%TO.P,U1,17,SD_DATA3/GPIO10*%
%TO.N,unconnected-(U1-SD_DATA3{slash}GPIO10-Pad17)*%
X239390000Y-40723400D03*
%TO.P,U1,18,CMD*%
%TO.N,unconnected-(U1-CMD-Pad18)*%
X239390000Y-38183400D03*
%TO.P,U1,19,5V*%
%TO.N,unconnected-(U1-5V-Pad19)*%
X239390000Y-35643400D03*
%TO.P,U1,20,SD_CLK/GPIO6*%
%TO.N,unconnected-(U1-SD_CLK{slash}GPIO6-Pad20)*%
X213993680Y-35646120D03*
%TO.P,U1,21,SD_DATA0/GPIO7*%
%TO.N,unconnected-(U1-SD_DATA0{slash}GPIO7-Pad21)*%
X213993680Y-38186120D03*
%TO.P,U1,22,SD_DATA1/GPIO8*%
%TO.N,unconnected-(U1-SD_DATA1{slash}GPIO8-Pad22)*%
X213990000Y-40723400D03*
%TO.P,U1,23,MTDO/GPIO15/ADC2_CH3*%
%TO.N,unconnected-(U1-MTDO{slash}GPIO15{slash}ADC2_CH3-Pad23)*%
X213990000Y-43263400D03*
%TO.P,U1,24,ADC2_CH2/GPIO2*%
%TO.N,unconnected-(U1-ADC2_CH2{slash}GPIO2-Pad24)*%
X213990000Y-45803400D03*
%TO.P,U1,25,GPIO0/BOOT/ADC2_CH1*%
%TO.N,unconnected-(U1-GPIO0{slash}BOOT{slash}ADC2_CH1-Pad25)*%
X213990000Y-48343400D03*
%TO.P,U1,26,ADC2_CH0/GPIO4*%
%TO.N,unconnected-(U1-ADC2_CH0{slash}GPIO4-Pad26)*%
X213990000Y-50883400D03*
%TO.P,U1,27,GPIO16*%
%TO.N,unconnected-(U1-GPIO16-Pad27)*%
X213990000Y-53423400D03*
%TO.P,U1,28,GPIO17*%
%TO.N,unconnected-(U1-GPIO17-Pad28)*%
X213990000Y-55963400D03*
%TO.P,U1,29,GPIO5*%
%TO.N,unconnected-(U1-GPIO5-Pad29)*%
X213990000Y-58503400D03*
%TO.P,U1,30,GPIO18*%
%TO.N,Net-(U1-GPIO18)*%
X213990000Y-61043400D03*
%TO.P,U1,31,GPIO19*%
%TO.N,Net-(U1-GPIO19)*%
X213990000Y-63583400D03*
%TO.P,U1,32,GND*%
%TO.N,GND*%
X213990000Y-66123400D03*
%TO.P,U1,33,GPIO21*%
%TO.N,Net-(U1-GPIO21)*%
X213990000Y-68663400D03*
%TO.P,U1,34,U0RXD/GPIO3*%
%TO.N,unconnected-(U1-U0RXD{slash}GPIO3-Pad34)*%
X213990000Y-71203400D03*
%TO.P,U1,35,U0TXD/GPIO1*%
%TO.N,unconnected-(U1-U0TXD{slash}GPIO1-Pad35)*%
X213990000Y-73743400D03*
%TO.P,U1,36,GPIO22*%
%TO.N,Net-(U1-GPIO22)*%
X213990000Y-76283400D03*
%TO.P,U1,37,GPIO23*%
%TO.N,Net-(U1-GPIO23)*%
X213990000Y-78823400D03*
%TO.P,U1,38,GND*%
%TO.N,GND*%
X213990000Y-81363400D03*
%TD*%
D14*
%TO.P,RV1,1,1*%
%TO.N,GND*%
X74614900Y-65800000D03*
D15*
%TO.P,RV1,2,2*%
%TO.N,Net-(U1-SENSOR_VN{slash}GPIO39{slash}ADC1_CH3)*%
X71114900Y-65800000D03*
%TO.P,RV1,3,3*%
%TO.N,unconnected-(RV1-Pad3)*%
X74614900Y-139300000D03*
D16*
%TO.P,RV1,MP*%
%TO.N,N/C*%
X68664900Y-69950000D03*
X77064900Y-71150000D03*
X77064900Y-133950000D03*
X68664900Y-135150000D03*
%TD*%
D13*
%TO.P,C2,1*%
%TO.N,Net-(U1-SENSOR_VN{slash}GPIO39{slash}ADC1_CH3)*%
X74389900Y-59515000D03*
%TO.P,C2,2*%
%TO.N,GND*%
X76889900Y-59515000D03*
%TD*%
%TO.P,C5,1*%
%TO.N,Net-(U1-VDET_2{slash}GPIO35{slash}ADC1_CH7)*%
X155750500Y-58760000D03*
%TO.P,C5,2*%
%TO.N,GND*%
X158250500Y-58760000D03*
%TD*%
%TO.P,C3,1*%
%TO.N,Net-(U1-SENSOR_VP{slash}GPIO36{slash}ADC1_CH0)*%
X101503400Y-59515000D03*
%TO.P,C3,2*%
%TO.N,GND*%
X104003400Y-59515000D03*
%TD*%
D14*
%TO.P,RV5,1,1*%
%TO.N,GND*%
X183089000Y-65470000D03*
D15*
%TO.P,RV5,2,2*%
%TO.N,Net-(U1-32K_XP{slash}GPIO32{slash}ADC1_CH4)*%
X179589000Y-65470000D03*
%TO.P,RV5,3,3*%
%TO.N,unconnected-(RV5-Pad3)*%
X183089000Y-138970000D03*
D16*
%TO.P,RV5,MP*%
%TO.N,N/C*%
X177139000Y-69620000D03*
X185539000Y-70820000D03*
X185539000Y-133620000D03*
X177139000Y-134820000D03*
%TD*%
D21*
%TO.P,SW2,A,A*%
%TO.N,Net-(U1-ADC2_CH7{slash}GPIO27)*%
X125569900Y-42380000D03*
D22*
%TO.P,SW2,B,B*%
%TO.N,Net-(U1-GPIO23)*%
X125569900Y-47380000D03*
%TO.P,SW2,C,C*%
%TO.N,GND*%
X125569900Y-44880000D03*
D23*
%TO.P,SW2,MP*%
%TO.N,N/C*%
X133069900Y-39280000D03*
X133069900Y-50480000D03*
D22*
%TO.P,SW2,S1,S1*%
%TO.N,GND*%
X140069900Y-47380000D03*
%TO.P,SW2,S2,S2*%
%TO.N,Net-(U1-GPIO19)*%
X140069900Y-42380000D03*
%TD*%
D24*
%TO.P,C1,1*%
%TO.N,+3V3*%
X187164900Y-41030000D03*
D13*
%TO.P,C1,2*%
%TO.N,GND*%
X189664900Y-41030000D03*
%TD*%
D21*
%TO.P,SW1,A,A*%
%TO.N,Net-(U1-DAC_1{slash}ADC2_CH8{slash}GPIO25)*%
X149699900Y-42380000D03*
D22*
%TO.P,SW1,B,B*%
%TO.N,Net-(U1-DAC_2{slash}ADC2_CH9{slash}GPIO26)*%
X149699900Y-47380000D03*
%TO.P,SW1,C,C*%
%TO.N,GND*%
X149699900Y-44880000D03*
D23*
%TO.P,SW1,MP*%
%TO.N,N/C*%
X157199900Y-39280000D03*
X157199900Y-50480000D03*
D22*
%TO.P,SW1,S1,S1*%
%TO.N,GND*%
X164199900Y-47380000D03*
%TO.P,SW1,S2,S2*%
%TO.N,Net-(U1-GPIO18)*%
X164199900Y-42380000D03*
%TD*%
D17*
%TO.P,J1,1,Pin_1*%
%TO.N,GND*%
X83250800Y-65960000D03*
D18*
%TO.P,J1,2,Pin_2*%
%TO.N,+3V3*%
X85790800Y-65960000D03*
%TO.P,J1,3,Pin_3*%
%TO.N,Net-(J1-Pin_3)*%
X88330800Y-65960000D03*
%TO.P,J1,4,Pin_4*%
%TO.N,Net-(J1-Pin_4)*%
X90870800Y-65960000D03*
%TD*%
D13*
%TO.P,C6,1*%
%TO.N,Net-(U1-32K_XP{slash}GPIO32{slash}ADC1_CH4)*%
X182864000Y-59460000D03*
%TO.P,C6,2*%
%TO.N,GND*%
X185364000Y-59460000D03*
%TD*%
D17*
%TO.P,J2,1,Pin_1*%
%TO.N,GND*%
X110384300Y-65490000D03*
D18*
%TO.P,J2,2,Pin_2*%
%TO.N,+3V3*%
X112924300Y-65490000D03*
%TO.P,J2,3,Pin_3*%
%TO.N,Net-(J2-Pin_3)*%
X115464300Y-65490000D03*
%TO.P,J2,4,Pin_4*%
%TO.N,Net-(J2-Pin_4)*%
X118004300Y-65490000D03*
%TD*%
D17*
%TO.P,J3,1,Pin_1*%
%TO.N,GND*%
X137497800Y-65820000D03*
D18*
%TO.P,J3,2,Pin_2*%
%TO.N,+3V3*%
X140037800Y-65820000D03*
%TO.P,J3,3,Pin_3*%
%TO.N,Net-(J3-Pin_3)*%
X142577800Y-65820000D03*
%TO.P,J3,4,Pin_4*%
%TO.N,Net-(J3-Pin_4)*%
X145117800Y-65820000D03*
%TD*%
D25*
%TO.N,Net-(U1-VDET_1{slash}GPIO34{slash}ADC1_CH6)*%
X130003100Y-62945300D03*
%TO.N,+3V3*%
X198344000Y-80418400D03*
X165441900Y-68744400D03*
X194264900Y-56574000D03*
%TO.N,Net-(J3-Pin_4)*%
X137554600Y-41757200D03*
%TO.N,Net-(J3-Pin_3)*%
X135449100Y-41580100D03*
%TO.N,Net-(J4-Pin_4)*%
X168433000Y-41276400D03*
%TO.N,Net-(J4-Pin_3)*%
X167535200Y-41476400D03*
%TO.N,Net-(J5-Pin_4)*%
X195352900Y-38609500D03*
%TO.N,Net-(J5-Pin_3)*%
X196184800Y-37776800D03*
%TO.N,Net-(U1-DAC_1{slash}ADC2_CH8{slash}GPIO25)*%
X154088000Y-55963500D03*
%TO.N,Net-(U1-GPIO18)*%
X210308400Y-44597600D03*
%TO.N,Net-(U1-GPIO23)*%
X130391800Y-75381700D03*
%TO.N,Net-(U1-GPIO19)*%
X146696300Y-57374500D03*
%TO.N,Net-(U1-GPIO22)*%
X90664400Y-74538600D03*
%TD*%
D26*
%TO.N,GND*%
X183089000Y-61735000D02*
X185364000Y-59460000D01*
X100150000Y-55000000D02*
X102690000Y-55000000D01*
X126664300Y-59515000D02*
X127816200Y-58363100D01*
X155975000Y-61035000D02*
X158250000Y-58760000D01*
X188850700Y-63602500D02*
X190573200Y-65325000D01*
X191724900Y-65325000D02*
X190573200Y-65325000D01*
X155975500Y-62935500D02*
X155975500Y-64835000D01*
X128862000Y-61790000D02*
X131137000Y-59515000D01*
X135956100Y-65430000D02*
X136346100Y-65820000D01*
X101728400Y-65970000D02*
X101728000Y-65970000D01*
X239390000Y-48343400D02*
X238088300Y-48343400D01*
X193740300Y-66476700D02*
X192876600Y-65613000D01*
X83250800Y-61739200D02*
X89346400Y-55643600D01*
X181912300Y-65470000D02*
X180728100Y-66654200D01*
X164611300Y-65325000D02*
X165763000Y-65325000D01*
X165763000Y-65613000D02*
X165763000Y-65325000D01*
X183089000Y-65470000D02*
X181912300Y-65470000D01*
X238088300Y-48343400D02*
X234419800Y-44674900D01*
X155975000Y-64835000D02*
X155975000Y-62935000D01*
X100150000Y-55000000D02*
X98613300Y-56536700D01*
X147199900Y-47380000D02*
X140069900Y-47380000D01*
X155975500Y-64835000D02*
X157152200Y-64835000D01*
X213990000Y-66123400D02*
X212688300Y-66123400D01*
X128069900Y-47380000D02*
X125569900Y-44880000D01*
X83250800Y-65960000D02*
X83250800Y-61739200D01*
X166804200Y-66654200D02*
X165763000Y-65613000D01*
X137497800Y-65820000D02*
X136346100Y-65820000D01*
X103696300Y-59821700D02*
X104003000Y-59515000D01*
X149699900Y-44880000D02*
X152199900Y-47380000D01*
X104003400Y-59515000D02*
X126664300Y-59515000D01*
X101728000Y-63880000D02*
X107622600Y-63880000D01*
X74614900Y-65800000D02*
X74614900Y-61790000D01*
X149699900Y-44880000D02*
X147199900Y-47380000D01*
X127816200Y-58363100D02*
X129985000Y-58363100D01*
X98613300Y-56536700D02*
X90239500Y-56536700D01*
X158250500Y-58760000D02*
X158250000Y-58760000D01*
X131136900Y-59515000D02*
X131137000Y-59515000D01*
X209722400Y-41030000D02*
X189664900Y-41030000D01*
X183089000Y-63602500D02*
X188850700Y-63602500D01*
X101728000Y-61790000D02*
X103696300Y-59821700D01*
X74614900Y-61790000D02*
X76889900Y-59515000D01*
X157642200Y-65325000D02*
X157152200Y-64835000D01*
X183089000Y-65470000D02*
X183089000Y-63602500D01*
X155975000Y-62935000D02*
X155975000Y-61035000D01*
X105230000Y-55000000D02*
X102690000Y-55000000D01*
X101728000Y-63880000D02*
X101728000Y-61790000D01*
X110384300Y-65490000D02*
X109232600Y-65490000D01*
X180728100Y-66654200D02*
X166804200Y-66654200D01*
X90239500Y-56536700D02*
X89346400Y-55643600D01*
X212335000Y-66476700D02*
X193740300Y-66476700D01*
X128861900Y-65430000D02*
X128862000Y-65430000D01*
X107622600Y-63880000D02*
X109232600Y-65490000D01*
X213367300Y-44674900D02*
X209722400Y-41030000D01*
X89346400Y-55643600D02*
X89990000Y-55000000D01*
X212688300Y-66123400D02*
X212335000Y-66476700D01*
X76889900Y-59515000D02*
X83250800Y-65875900D01*
X183089000Y-63602500D02*
X183089000Y-61735000D01*
X101728000Y-65970000D02*
X101728000Y-63880000D01*
X155975000Y-62935000D02*
X155975500Y-62935500D01*
X103696300Y-59821700D02*
X103696700Y-59821700D01*
X192876600Y-65613000D02*
X192876600Y-65325000D01*
X128862000Y-65430000D02*
X128862000Y-61790000D01*
X191724900Y-65325000D02*
X192876600Y-65325000D01*
X129985000Y-58363100D02*
X131136900Y-59515000D01*
X164611300Y-65325000D02*
X157642200Y-65325000D01*
X103696700Y-59821700D02*
X104003400Y-59515000D01*
X140069900Y-47380000D02*
X128069900Y-47380000D01*
X128862000Y-65430000D02*
X135956100Y-65430000D01*
X83250800Y-65875900D02*
X83250800Y-65960000D01*
X152199900Y-47380000D02*
X164199900Y-47380000D01*
X234419800Y-44674900D02*
X213367300Y-44674900D01*
%TO.N,Net-(U1-SENSOR_VN{slash}GPIO39{slash}ADC1_CH3)*%
X71114900Y-62790000D02*
X74389900Y-59515000D01*
X71114900Y-65800000D02*
X73152100Y-67837200D01*
X71114900Y-65800000D02*
X71114900Y-62790000D01*
X129691000Y-72804600D02*
X237149500Y-72804600D01*
X239390000Y-73743400D02*
X238088300Y-73743400D01*
X124723600Y-67837200D02*
X129691000Y-72804600D01*
X237149500Y-72804600D02*
X238088300Y-73743400D01*
X73152100Y-67837200D02*
X124723600Y-67837200D01*
%TO.N,Net-(U1-SENSOR_VP{slash}GPIO36{slash}ADC1_CH0)*%
X240691700Y-73352600D02*
X239609100Y-72270000D01*
X179985300Y-69109600D02*
X177250600Y-71844300D01*
X98228400Y-65970000D02*
X98228400Y-62790000D01*
X130767600Y-67435500D02*
X99693900Y-67435500D01*
X239390000Y-76283400D02*
X240691700Y-76283400D01*
X135176400Y-71844300D02*
X130767600Y-67435500D01*
X98228400Y-62790000D02*
X101503000Y-59515000D01*
X189329700Y-72270000D02*
X186169300Y-69109600D01*
X101503400Y-59515000D02*
X101503000Y-59515000D01*
X239609100Y-72270000D02*
X189329700Y-72270000D01*
X186169300Y-69109600D02*
X179985300Y-69109600D01*
X99693900Y-67435500D02*
X98228400Y-65970000D01*
X177250600Y-71844300D02*
X135176400Y-71844300D01*
X240691700Y-76283400D02*
X240691700Y-73352600D01*
%TO.N,Net-(U1-VDET_1{slash}GPIO34{slash}ADC1_CH6)*%
X125361900Y-64110100D02*
X125361900Y-65430000D01*
X189470300Y-69964800D02*
X187470700Y-67965200D01*
X236849700Y-69964800D02*
X189470300Y-69964800D01*
X143871900Y-62945300D02*
X130003100Y-62945300D01*
X128636900Y-59515100D02*
X128636900Y-59515000D01*
X239390000Y-71203400D02*
X238088300Y-71203400D01*
X125362000Y-62790000D02*
X126999500Y-61152500D01*
X125362000Y-64110000D02*
X125361900Y-64110100D01*
X125362000Y-64110000D02*
X125362000Y-62790000D01*
X187470700Y-67965200D02*
X153363500Y-67965200D01*
X151622500Y-66224200D02*
X147150800Y-66224200D01*
X126999500Y-61152500D02*
X128636900Y-59515100D01*
X126999500Y-61152500D02*
X128637000Y-59515000D01*
X125362000Y-65430000D02*
X125362000Y-64110000D01*
X153363500Y-67965200D02*
X151622500Y-66224200D01*
X147150800Y-66224200D02*
X143871900Y-62945300D01*
X238088300Y-71203400D02*
X236849700Y-69964800D01*
%TO.N,Net-(U1-VDET_2{slash}GPIO35{slash}ADC1_CH7)*%
X152475500Y-64835000D02*
X154745600Y-67105100D01*
X152475000Y-63435000D02*
X152475500Y-63435500D01*
X239390000Y-68663400D02*
X238088300Y-68663400D01*
X211984200Y-67393400D02*
X236818300Y-67393400D01*
X152475500Y-63435500D02*
X152475500Y-64835000D01*
X211495100Y-66904300D02*
X211984200Y-67393400D01*
X152475000Y-62035000D02*
X155750000Y-58760000D01*
X181680800Y-67105100D02*
X181881600Y-66904300D01*
X152475000Y-64835000D02*
X152475000Y-63435000D01*
X155750500Y-58760000D02*
X155750000Y-58760000D01*
X152475000Y-63435000D02*
X152475000Y-62035000D01*
X181881600Y-66904300D02*
X211495100Y-66904300D01*
X236818300Y-67393400D02*
X238088300Y-68663400D01*
X154745600Y-67105100D02*
X181680800Y-67105100D01*
%TO.N,Net-(U1-32K_XP{slash}GPIO32{slash}ADC1_CH4)*%
X183981600Y-58342400D02*
X202871200Y-58342400D01*
X179589000Y-63890000D02*
X179589000Y-65470000D01*
X202871200Y-58342400D02*
X209104700Y-64575900D01*
X182864000Y-59460000D02*
X183981600Y-58342400D01*
X209104700Y-64575900D02*
X236540800Y-64575900D01*
X182864000Y-59460000D02*
X182864000Y-60615000D01*
X182864000Y-60615000D02*
X179589000Y-63890000D01*
X236540800Y-64575900D02*
X238088300Y-66123400D01*
X239390000Y-66123400D02*
X238088300Y-66123400D01*
%TO.N,+3V3*%
X167151300Y-65325000D02*
X168303000Y-65325000D01*
X92108500Y-56104100D02*
X91260000Y-55255600D01*
X237143300Y-80418400D02*
X198344000Y-80418400D01*
X96505900Y-56104100D02*
X92108500Y-56104100D01*
X138886100Y-66979200D02*
X150765100Y-66979200D01*
X97610000Y-55000000D02*
X96505900Y-56104100D01*
X138886100Y-66979200D02*
X138886100Y-65820000D01*
X168303000Y-65325000D02*
X168303000Y-65056500D01*
X88505700Y-54868000D02*
X88505700Y-55000000D01*
X176785500Y-56574000D02*
X194264900Y-56574000D01*
X152267600Y-68481700D02*
X165179200Y-68481700D01*
X115277300Y-66979200D02*
X138886100Y-66979200D01*
X165179200Y-68481700D02*
X165441900Y-68744400D01*
X168303000Y-65056500D02*
X176785500Y-56574000D01*
X114076000Y-65777900D02*
X115277300Y-66979200D01*
X91260000Y-54776400D02*
X90427300Y-53943700D01*
X90427300Y-53943700D02*
X89430000Y-53943700D01*
X114076000Y-65490000D02*
X114076000Y-65777900D01*
X91260000Y-55255600D02*
X91260000Y-54776400D01*
X89430000Y-53943700D02*
X88505700Y-54868000D01*
X87450000Y-55000000D02*
X88505700Y-55000000D01*
X140037800Y-65820000D02*
X138886100Y-65820000D01*
X238088300Y-81363400D02*
X237143300Y-80418400D01*
X239390000Y-81363400D02*
X238088300Y-81363400D01*
X150765100Y-66979200D02*
X152267600Y-68481700D01*
X112924300Y-65490000D02*
X114076000Y-65490000D01*
%TO.N,Net-(J1-Pin_3)*%
X96896700Y-58277300D02*
X89482500Y-65691500D01*
X88330800Y-65960000D02*
X89482500Y-65960000D01*
X89482500Y-65691500D02*
X89482500Y-65960000D01*
X110310000Y-55000000D02*
X107032700Y-58277300D01*
X107032700Y-58277300D02*
X96896700Y-58277300D01*
%TO.N,Net-(J3-Pin_4)*%
X116245200Y-40615200D02*
X115390000Y-39760000D01*
X137554600Y-41757200D02*
X136412600Y-40615200D01*
X136412600Y-40615200D02*
X116245200Y-40615200D01*
%TO.N,Net-(J3-Pin_3)*%
X135449100Y-41580100D02*
X134886000Y-41017000D01*
X114107000Y-41017000D02*
X112850000Y-39760000D01*
X134886000Y-41017000D02*
X114107000Y-41017000D01*
%TO.N,Net-(J4-Pin_4)*%
X164722000Y-37565400D02*
X168433000Y-41276400D01*
X112504600Y-37565400D02*
X164722000Y-37565400D01*
X110310000Y-39760000D02*
X112504600Y-37565400D01*
%TO.N,Net-(J4-Pin_3)*%
X113104300Y-37978300D02*
X164037100Y-37978300D01*
X108849600Y-40839600D02*
X110766000Y-40839600D01*
X164037100Y-37978300D02*
X167535200Y-41476400D01*
X107770000Y-39760000D02*
X108849600Y-40839600D01*
X111392600Y-40213000D02*
X111392600Y-39690000D01*
X111392600Y-39690000D02*
X113104300Y-37978300D01*
X110766000Y-40839600D02*
X111392600Y-40213000D01*
%TO.N,Net-(J5-Pin_4)*%
X195352900Y-38609500D02*
X193905600Y-37162200D01*
X107827800Y-37162200D02*
X105230000Y-39760000D01*
X193905600Y-37162200D02*
X107827800Y-37162200D01*
%TO.N,Net-(J5-Pin_3)*%
X105703500Y-36746500D02*
X102690000Y-39760000D01*
X195154500Y-36746500D02*
X105703500Y-36746500D01*
X196184800Y-37776800D02*
X195154500Y-36746500D01*
%TO.N,Net-(U1-DAC_2{slash}ADC2_CH9{slash}GPIO26)*%
X156686300Y-54366400D02*
X233951300Y-54366400D01*
X239390000Y-58503400D02*
X238088300Y-58503400D01*
X233951300Y-54366400D02*
X238088300Y-58503400D01*
X149699900Y-47380000D02*
X156686300Y-54366400D01*
%TO.N,Net-(U1-DAC_1{slash}ADC2_CH8{slash}GPIO25)*%
X175427400Y-55962000D02*
X154089500Y-55962000D01*
X175592200Y-55797200D02*
X175427400Y-55962000D01*
X154089500Y-55962000D02*
X154088000Y-55963500D01*
X239390000Y-61043400D02*
X238088300Y-61043400D01*
X238088300Y-61043400D02*
X234412100Y-57367200D01*
X175827600Y-55561800D02*
X175592200Y-55797200D01*
X234412100Y-57367200D02*
X198872400Y-57367200D01*
X198872400Y-57367200D02*
X197067000Y-55561800D01*
X175592200Y-55797200D02*
X175427400Y-55962000D01*
X197067000Y-55561800D02*
X175827600Y-55561800D01*
%TO.N,Net-(U1-GPIO18)*%
X164199900Y-42380000D02*
X164366200Y-42546300D01*
X191131600Y-42381500D02*
X193347700Y-44597600D01*
X193347700Y-44597600D02*
X210308400Y-44597600D01*
X190966800Y-42546300D02*
X191131600Y-42381500D01*
X164366200Y-42546300D02*
X190966800Y-42546300D01*
X190966800Y-42546300D02*
X191131600Y-42381500D01*
%TO.N,Net-(U1-ADC2_CH7{slash}GPIO27)*%
X234278300Y-52153400D02*
X238088300Y-55963400D01*
X125569900Y-42380000D02*
X138221600Y-42380000D01*
X239390000Y-55963400D02*
X238088300Y-55963400D01*
X138221600Y-42380000D02*
X139523300Y-41078300D01*
X139523300Y-41078300D02*
X159749000Y-41078300D01*
X170824100Y-52153400D02*
X234278300Y-52153400D01*
X159749000Y-41078300D02*
X170824100Y-52153400D01*
%TO.N,Net-(U1-GPIO23)*%
X215291700Y-78823400D02*
X215291700Y-75831400D01*
X214842000Y-75381700D02*
X130391800Y-75381700D01*
X129548700Y-75381700D02*
X130391800Y-75381700D01*
X215291700Y-75831400D02*
X214842000Y-75381700D01*
X213990000Y-78823400D02*
X215291700Y-78823400D01*
X130391800Y-75381700D02*
X129548700Y-75381700D01*
%TO.N,Net-(U1-GPIO19)*%
X207045600Y-57940700D02*
X196962300Y-57940700D01*
X196962300Y-57940700D02*
X194985100Y-55963500D01*
X212688300Y-63583400D02*
X207045600Y-57940700D01*
X213990000Y-63583400D02*
X212688300Y-63583400D01*
X194985100Y-55963500D02*
X176194100Y-55963500D01*
X174783100Y-57374500D02*
X146696300Y-57374500D01*
X176194100Y-55963500D02*
X174783100Y-57374500D01*
%TO.N,Net-(U1-GPIO21)*%
X202256900Y-67470900D02*
X202386400Y-67341400D01*
X202256900Y-67470900D02*
X202386400Y-67341400D01*
X212688300Y-68663400D02*
X203708400Y-68663400D01*
X181881700Y-67472300D02*
X182012600Y-67341400D01*
X153526800Y-67560500D02*
X181793500Y-67560500D01*
X92530000Y-55000000D02*
X93623700Y-53906300D01*
X139872600Y-53906300D02*
X153526800Y-67560500D01*
X203708400Y-68663400D02*
X202386400Y-67341400D01*
X202127400Y-67341400D02*
X202256900Y-67470900D01*
X181881700Y-67472300D02*
X182012600Y-67341400D01*
X213990000Y-68663400D02*
X212688300Y-68663400D01*
X93623700Y-53906300D02*
X139872600Y-53906300D01*
X182012600Y-67341400D02*
X202127400Y-67341400D01*
X181793500Y-67560500D02*
X181881700Y-67472300D01*
%TO.N,Net-(U1-GPIO22)*%
X92409200Y-76283400D02*
X90664400Y-74538600D01*
X213990000Y-76283400D02*
X92409200Y-76283400D01*
%TD*%
M02*
