%TF.GenerationSoftware,KiCad,Pcbnew,9.0.6*%
%TF.CreationDate,2026-01-24T23:53:54+00:00*%
%TF.ProjectId,Custom-Mixer-ESP32,43757374-6f6d-42d4-9d69-7865722d4553,rev?*%
%TF.SameCoordinates,Original*%
%TF.FileFunction,Drillmap*%
%TF.FilePolarity,Positive*%
%FSLAX45Y45*%
G04 Gerber Fmt 4.5, Leading zero omitted, Abs format (unit mm)*
G04 Created by KiCad (PCBNEW 9.0.6) date 2026-01-24 23:53:54*
%MOMM*%
%LPD*%
G01*
G04 APERTURE LIST*
%ADD10C,0.200000*%
%ADD11C,0.100000*%
%ADD12C,0.120000*%
%ADD13C,0.150000*%
%ADD14C,0.170000*%
%ADD15C,0.250000*%
G04 APERTURE END LIST*
D10*
X6534000Y-3422000D02*
X24161000Y-3422000D01*
X24161000Y-14480000D01*
X6534000Y-14480000D01*
X6534000Y-3422000D01*
D11*
X8922487Y-6247000D02*
X8952487Y-6277000D01*
X8952487Y-6247000D02*
X8922487Y-6277000D01*
X11083428Y-6247000D02*
X11113428Y-6277000D01*
X11113428Y-6247000D02*
X11083428Y-6277000D01*
X11589487Y-5675500D02*
X11619487Y-5705500D01*
X11619487Y-5675500D02*
X11589487Y-5705500D01*
X11779987Y-5612000D02*
X11809987Y-5642000D01*
X11809987Y-5612000D02*
X11779987Y-5642000D01*
X11970487Y-7199500D02*
X12000487Y-7229500D01*
X12000487Y-7199500D02*
X11970487Y-7229500D01*
X12033987Y-7453500D02*
X12063987Y-7483500D01*
X12063987Y-7453500D02*
X12033987Y-7483500D01*
X12364987Y-6239000D02*
X12394987Y-6269000D01*
X12394987Y-6239000D02*
X12364987Y-6269000D01*
X12380000Y-5802500D02*
X12410000Y-5832500D01*
X12410000Y-5802500D02*
X12380000Y-5832500D01*
X13049987Y-5739000D02*
X13079987Y-5769000D01*
X13079987Y-5739000D02*
X13049987Y-5769000D01*
X13817987Y-6195000D02*
X13847987Y-6225000D01*
X13847987Y-6195000D02*
X13817987Y-6225000D01*
X14120987Y-6189000D02*
X14150987Y-6219000D01*
X14150987Y-6189000D02*
X14120987Y-6219000D01*
X15272487Y-5548500D02*
X15302487Y-5578500D01*
X15302487Y-5548500D02*
X15272487Y-5578500D01*
X15667500Y-4742500D02*
X15697500Y-4772500D01*
X15697500Y-4742500D02*
X15667500Y-4772500D01*
X16527987Y-6160000D02*
X16557987Y-6190000D01*
X16557987Y-6160000D02*
X16527987Y-6190000D01*
X16777500Y-3822500D02*
X16807500Y-3852500D01*
X16807500Y-3822500D02*
X16777500Y-3852500D01*
X16782987Y-6134000D02*
X16812987Y-6164000D01*
X16812987Y-6134000D02*
X16782987Y-6164000D01*
X16923487Y-4088000D02*
X16953487Y-4118000D01*
X16953487Y-4088000D02*
X16923487Y-4118000D01*
X18457500Y-5637500D02*
X18487500Y-5667500D01*
X18487500Y-5637500D02*
X18457500Y-5667500D01*
X18815000Y-4550000D02*
X18845000Y-4580000D01*
X18845000Y-4550000D02*
X18815000Y-4580000D01*
X19233987Y-6158000D02*
X19263987Y-6188000D01*
X19263987Y-6158000D02*
X19233987Y-6188000D01*
X19575000Y-5152500D02*
X19605000Y-5182500D01*
X19605000Y-5152500D02*
X19575000Y-5182500D01*
X19601987Y-5797000D02*
X19631987Y-5827000D01*
X19631987Y-5797000D02*
X19601987Y-5827000D01*
X19907500Y-5347500D02*
X19937500Y-5377500D01*
X19937500Y-5347500D02*
X19907500Y-5377500D01*
X21327500Y-5867500D02*
X21357500Y-5897500D01*
X21357500Y-5867500D02*
X21327500Y-5897500D01*
X21495487Y-7326500D02*
X21525487Y-7356500D01*
X21525487Y-7326500D02*
X21495487Y-7356500D01*
X21682500Y-7542500D02*
X21712500Y-7572500D01*
X21712500Y-7542500D02*
X21682500Y-7572500D01*
X21749487Y-4024500D02*
X21779487Y-4054500D01*
X21779487Y-4024500D02*
X21749487Y-4054500D01*
X7478987Y-5951500D02*
G75*
G02*
X7398987Y-5951500I-40000J0D01*
G01*
X7398987Y-5951500D02*
G75*
G02*
X7478987Y-5951500I40000J0D01*
G01*
X7728987Y-5951500D02*
G75*
G02*
X7648987Y-5951500I-40000J0D01*
G01*
X7648987Y-5951500D02*
G75*
G02*
X7728987Y-5951500I40000J0D01*
G01*
X8090487Y-3976000D02*
G75*
G02*
X8010487Y-3976000I-40000J0D01*
G01*
X8010487Y-3976000D02*
G75*
G02*
X8090487Y-3976000I40000J0D01*
G01*
X8340487Y-3976000D02*
G75*
G02*
X8260487Y-3976000I-40000J0D01*
G01*
X8260487Y-3976000D02*
G75*
G02*
X8340487Y-3976000I40000J0D01*
G01*
X8348576Y-5951500D02*
G75*
G02*
X8268576Y-5951500I-40000J0D01*
G01*
X8268576Y-5951500D02*
G75*
G02*
X8348576Y-5951500I40000J0D01*
G01*
X8598576Y-5951500D02*
G75*
G02*
X8518576Y-5951500I-40000J0D01*
G01*
X8518576Y-5951500D02*
G75*
G02*
X8598576Y-5951500I40000J0D01*
G01*
X10190340Y-5951500D02*
G75*
G02*
X10110340Y-5951500I-40000J0D01*
G01*
X10110340Y-5951500D02*
G75*
G02*
X10190340Y-5951500I40000J0D01*
G01*
X10440340Y-5951500D02*
G75*
G02*
X10360340Y-5951500I-40000J0D01*
G01*
X10360340Y-5951500D02*
G75*
G02*
X10440340Y-5951500I40000J0D01*
G01*
X10984928Y-5926500D02*
G75*
G02*
X10904928Y-5926500I-40000J0D01*
G01*
X10904928Y-5926500D02*
G75*
G02*
X10984928Y-5926500I40000J0D01*
G01*
X11234928Y-5926500D02*
G75*
G02*
X11154928Y-5926500I-40000J0D01*
G01*
X11154928Y-5926500D02*
G75*
G02*
X11234928Y-5926500I40000J0D01*
G01*
X12903692Y-5951500D02*
G75*
G02*
X12823692Y-5951500I-40000J0D01*
G01*
X12823692Y-5951500D02*
G75*
G02*
X12903692Y-5951500I40000J0D01*
G01*
X13153692Y-5951500D02*
G75*
G02*
X13073692Y-5951500I-40000J0D01*
G01*
X13073692Y-5951500D02*
G75*
G02*
X13153692Y-5951500I40000J0D01*
G01*
X13698281Y-5951500D02*
G75*
G02*
X13618281Y-5951500I-40000J0D01*
G01*
X13618281Y-5951500D02*
G75*
G02*
X13698281Y-5951500I40000J0D01*
G01*
X13948281Y-5951500D02*
G75*
G02*
X13868281Y-5951500I-40000J0D01*
G01*
X13868281Y-5951500D02*
G75*
G02*
X13948281Y-5951500I40000J0D01*
G01*
X15615045Y-5876000D02*
G75*
G02*
X15535045Y-5876000I-40000J0D01*
G01*
X15535045Y-5876000D02*
G75*
G02*
X15615045Y-5876000I40000J0D01*
G01*
X15865045Y-5876000D02*
G75*
G02*
X15785045Y-5876000I-40000J0D01*
G01*
X15785045Y-5876000D02*
G75*
G02*
X15865045Y-5876000I40000J0D01*
G01*
X16409634Y-5910000D02*
G75*
G02*
X16329634Y-5910000I-40000J0D01*
G01*
X16329634Y-5910000D02*
G75*
G02*
X16409634Y-5910000I40000J0D01*
G01*
X16659634Y-5910000D02*
G75*
G02*
X16579634Y-5910000I-40000J0D01*
G01*
X16579634Y-5910000D02*
G75*
G02*
X16659634Y-5910000I40000J0D01*
G01*
X17105487Y-4674500D02*
G75*
G02*
X17025487Y-4674500I-40000J0D01*
G01*
X17025487Y-4674500D02*
G75*
G02*
X17105487Y-4674500I40000J0D01*
G01*
X17168987Y-3912500D02*
G75*
G02*
X17088987Y-3912500I-40000J0D01*
G01*
X17088987Y-3912500D02*
G75*
G02*
X17168987Y-3912500I40000J0D01*
G01*
X18121487Y-4674500D02*
G75*
G02*
X18041487Y-4674500I-40000J0D01*
G01*
X18041487Y-4674500D02*
G75*
G02*
X18121487Y-4674500I40000J0D01*
G01*
X18184987Y-3912500D02*
G75*
G02*
X18104987Y-3912500I-40000J0D01*
G01*
X18104987Y-3912500D02*
G75*
G02*
X18184987Y-3912500I40000J0D01*
G01*
X18326398Y-5946000D02*
G75*
G02*
X18246398Y-5946000I-40000J0D01*
G01*
X18246398Y-5946000D02*
G75*
G02*
X18326398Y-5946000I40000J0D01*
G01*
X18576398Y-5946000D02*
G75*
G02*
X18496398Y-5946000I-40000J0D01*
G01*
X18496398Y-5946000D02*
G75*
G02*
X18576398Y-5946000I40000J0D01*
G01*
X18756487Y-4103000D02*
G75*
G02*
X18676487Y-4103000I-40000J0D01*
G01*
X18676487Y-4103000D02*
G75*
G02*
X18756487Y-4103000I40000J0D01*
G01*
X19006487Y-4103000D02*
G75*
G02*
X18926487Y-4103000I-40000J0D01*
G01*
X18926487Y-4103000D02*
G75*
G02*
X19006487Y-4103000I40000J0D01*
G01*
X19120987Y-5910000D02*
G75*
G02*
X19040987Y-5910000I-40000J0D01*
G01*
X19040987Y-5910000D02*
G75*
G02*
X19120987Y-5910000I40000J0D01*
G01*
X19370987Y-5910000D02*
G75*
G02*
X19290987Y-5910000I-40000J0D01*
G01*
X19290987Y-5910000D02*
G75*
G02*
X19370987Y-5910000I40000J0D01*
G01*
X20597987Y-4462156D02*
G75*
G02*
X20517987Y-4462156I-40000J0D01*
G01*
X20517987Y-4462156D02*
G75*
G02*
X20597987Y-4462156I40000J0D01*
G01*
X20597987Y-4716156D02*
G75*
G02*
X20517987Y-4716156I-40000J0D01*
G01*
X20517987Y-4716156D02*
G75*
G02*
X20597987Y-4716156I40000J0D01*
G01*
X20597987Y-4970156D02*
G75*
G02*
X20517987Y-4970156I-40000J0D01*
G01*
X20517987Y-4970156D02*
G75*
G02*
X20597987Y-4970156I40000J0D01*
G01*
X20597987Y-5224156D02*
G75*
G02*
X20517987Y-5224156I-40000J0D01*
G01*
X20517987Y-5224156D02*
G75*
G02*
X20597987Y-5224156I40000J0D01*
G01*
X20597987Y-5478156D02*
G75*
G02*
X20517987Y-5478156I-40000J0D01*
G01*
X20517987Y-5478156D02*
G75*
G02*
X20597987Y-5478156I40000J0D01*
G01*
X20597987Y-5732156D02*
G75*
G02*
X20517987Y-5732156I-40000J0D01*
G01*
X20517987Y-5732156D02*
G75*
G02*
X20597987Y-5732156I40000J0D01*
G01*
X20597987Y-5986156D02*
G75*
G02*
X20517987Y-5986156I-40000J0D01*
G01*
X20517987Y-5986156D02*
G75*
G02*
X20597987Y-5986156I40000J0D01*
G01*
X20597987Y-6240156D02*
G75*
G02*
X20517987Y-6240156I-40000J0D01*
G01*
X20517987Y-6240156D02*
G75*
G02*
X20597987Y-6240156I40000J0D01*
G01*
X20597987Y-6494156D02*
G75*
G02*
X20517987Y-6494156I-40000J0D01*
G01*
X20517987Y-6494156D02*
G75*
G02*
X20597987Y-6494156I40000J0D01*
G01*
X20597987Y-6748156D02*
G75*
G02*
X20517987Y-6748156I-40000J0D01*
G01*
X20517987Y-6748156D02*
G75*
G02*
X20597987Y-6748156I40000J0D01*
G01*
X20597987Y-7002156D02*
G75*
G02*
X20517987Y-7002156I-40000J0D01*
G01*
X20517987Y-7002156D02*
G75*
G02*
X20597987Y-7002156I40000J0D01*
G01*
X20597987Y-7256156D02*
G75*
G02*
X20517987Y-7256156I-40000J0D01*
G01*
X20517987Y-7256156D02*
G75*
G02*
X20597987Y-7256156I40000J0D01*
G01*
X20597987Y-7510156D02*
G75*
G02*
X20517987Y-7510156I-40000J0D01*
G01*
X20517987Y-7510156D02*
G75*
G02*
X20597987Y-7510156I40000J0D01*
G01*
X20597987Y-7764156D02*
G75*
G02*
X20517987Y-7764156I-40000J0D01*
G01*
X20517987Y-7764156D02*
G75*
G02*
X20597987Y-7764156I40000J0D01*
G01*
X20597987Y-8018156D02*
G75*
G02*
X20517987Y-8018156I-40000J0D01*
G01*
X20517987Y-8018156D02*
G75*
G02*
X20597987Y-8018156I40000J0D01*
G01*
X20597987Y-8272156D02*
G75*
G02*
X20517987Y-8272156I-40000J0D01*
G01*
X20517987Y-8272156D02*
G75*
G02*
X20597987Y-8272156I40000J0D01*
G01*
X20597987Y-8526156D02*
G75*
G02*
X20517987Y-8526156I-40000J0D01*
G01*
X20517987Y-8526156D02*
G75*
G02*
X20597987Y-8526156I40000J0D01*
G01*
X20597987Y-8780156D02*
G75*
G02*
X20517987Y-8780156I-40000J0D01*
G01*
X20517987Y-8780156D02*
G75*
G02*
X20597987Y-8780156I40000J0D01*
G01*
X20597987Y-9034156D02*
G75*
G02*
X20517987Y-9034156I-40000J0D01*
G01*
X20517987Y-9034156D02*
G75*
G02*
X20597987Y-9034156I40000J0D01*
G01*
X23137619Y-8779884D02*
G75*
G02*
X23057619Y-8779884I-40000J0D01*
G01*
X23057619Y-8779884D02*
G75*
G02*
X23137619Y-8779884I40000J0D01*
G01*
X23137619Y-9033884D02*
G75*
G02*
X23057619Y-9033884I-40000J0D01*
G01*
X23057619Y-9033884D02*
G75*
G02*
X23137619Y-9033884I40000J0D01*
G01*
X23137987Y-4462156D02*
G75*
G02*
X23057987Y-4462156I-40000J0D01*
G01*
X23057987Y-4462156D02*
G75*
G02*
X23137987Y-4462156I40000J0D01*
G01*
X23137987Y-4716156D02*
G75*
G02*
X23057987Y-4716156I-40000J0D01*
G01*
X23057987Y-4716156D02*
G75*
G02*
X23137987Y-4716156I40000J0D01*
G01*
X23137987Y-4970156D02*
G75*
G02*
X23057987Y-4970156I-40000J0D01*
G01*
X23057987Y-4970156D02*
G75*
G02*
X23137987Y-4970156I40000J0D01*
G01*
X23137987Y-5224156D02*
G75*
G02*
X23057987Y-5224156I-40000J0D01*
G01*
X23057987Y-5224156D02*
G75*
G02*
X23137987Y-5224156I40000J0D01*
G01*
X23137987Y-5478156D02*
G75*
G02*
X23057987Y-5478156I-40000J0D01*
G01*
X23057987Y-5478156D02*
G75*
G02*
X23137987Y-5478156I40000J0D01*
G01*
X23137987Y-5732156D02*
G75*
G02*
X23057987Y-5732156I-40000J0D01*
G01*
X23057987Y-5732156D02*
G75*
G02*
X23137987Y-5732156I40000J0D01*
G01*
X23137987Y-5986156D02*
G75*
G02*
X23057987Y-5986156I-40000J0D01*
G01*
X23057987Y-5986156D02*
G75*
G02*
X23137987Y-5986156I40000J0D01*
G01*
X23137987Y-6240156D02*
G75*
G02*
X23057987Y-6240156I-40000J0D01*
G01*
X23057987Y-6240156D02*
G75*
G02*
X23137987Y-6240156I40000J0D01*
G01*
X23137987Y-6494156D02*
G75*
G02*
X23057987Y-6494156I-40000J0D01*
G01*
X23057987Y-6494156D02*
G75*
G02*
X23137987Y-6494156I40000J0D01*
G01*
X23137987Y-6748156D02*
G75*
G02*
X23057987Y-6748156I-40000J0D01*
G01*
X23057987Y-6748156D02*
G75*
G02*
X23137987Y-6748156I40000J0D01*
G01*
X23137987Y-7002156D02*
G75*
G02*
X23057987Y-7002156I-40000J0D01*
G01*
X23057987Y-7002156D02*
G75*
G02*
X23137987Y-7002156I40000J0D01*
G01*
X23137987Y-7256156D02*
G75*
G02*
X23057987Y-7256156I-40000J0D01*
G01*
X23057987Y-7256156D02*
G75*
G02*
X23137987Y-7256156I40000J0D01*
G01*
X23137987Y-7510156D02*
G75*
G02*
X23057987Y-7510156I-40000J0D01*
G01*
X23057987Y-7510156D02*
G75*
G02*
X23137987Y-7510156I40000J0D01*
G01*
X23137987Y-7764156D02*
G75*
G02*
X23057987Y-7764156I-40000J0D01*
G01*
X23057987Y-7764156D02*
G75*
G02*
X23137987Y-7764156I40000J0D01*
G01*
X23137987Y-8018156D02*
G75*
G02*
X23057987Y-8018156I-40000J0D01*
G01*
X23057987Y-8018156D02*
G75*
G02*
X23137987Y-8018156I40000J0D01*
G01*
X23137987Y-8272156D02*
G75*
G02*
X23057987Y-8272156I-40000J0D01*
G01*
X23057987Y-8272156D02*
G75*
G02*
X23137987Y-8272156I40000J0D01*
G01*
X23137987Y-8526156D02*
G75*
G02*
X23057987Y-8526156I-40000J0D01*
G01*
X23057987Y-8526156D02*
G75*
G02*
X23137987Y-8526156I40000J0D01*
G01*
X8325076Y-6546000D02*
X8325076Y-6646000D01*
X8275076Y-6596000D02*
X8375076Y-6596000D01*
X8579076Y-6546000D02*
X8579076Y-6646000D01*
X8529076Y-6596000D02*
X8629076Y-6596000D01*
X8746987Y-3926000D02*
X8746987Y-4026000D01*
X8696987Y-3976000D02*
X8796987Y-3976000D01*
X8746987Y-5450000D02*
X8746987Y-5550000D01*
X8696987Y-5500000D02*
X8796987Y-5500000D01*
X8833076Y-6546000D02*
X8833076Y-6646000D01*
X8783076Y-6596000D02*
X8883076Y-6596000D01*
X9000987Y-3926000D02*
X9000987Y-4026000D01*
X8950987Y-3976000D02*
X9050987Y-3976000D01*
X9000987Y-5450000D02*
X9000987Y-5550000D01*
X8950987Y-5500000D02*
X9050987Y-5500000D01*
X9087076Y-6546000D02*
X9087076Y-6646000D01*
X9037076Y-6596000D02*
X9137076Y-6596000D01*
X9254987Y-3926000D02*
X9254987Y-4026000D01*
X9204987Y-3976000D02*
X9304987Y-3976000D01*
X9254987Y-5450000D02*
X9254987Y-5550000D01*
X9204987Y-5500000D02*
X9304987Y-5500000D01*
X9508987Y-3926000D02*
X9508987Y-4026000D01*
X9458987Y-3976000D02*
X9558987Y-3976000D01*
X9508987Y-5450000D02*
X9508987Y-5550000D01*
X9458987Y-5500000D02*
X9558987Y-5500000D01*
X9762987Y-3926000D02*
X9762987Y-4026000D01*
X9712987Y-3976000D02*
X9812987Y-3976000D01*
X9762987Y-5450000D02*
X9762987Y-5550000D01*
X9712987Y-5500000D02*
X9812987Y-5500000D01*
X10016987Y-3926000D02*
X10016987Y-4026000D01*
X9966987Y-3976000D02*
X10066987Y-3976000D01*
X10016987Y-5450000D02*
X10016987Y-5550000D01*
X9966987Y-5500000D02*
X10066987Y-5500000D01*
X10270987Y-3926000D02*
X10270987Y-4026000D01*
X10220987Y-3976000D02*
X10320987Y-3976000D01*
X10270987Y-5450000D02*
X10270987Y-5550000D01*
X10220987Y-5500000D02*
X10320987Y-5500000D01*
X10524987Y-3926000D02*
X10524987Y-4026000D01*
X10474987Y-3976000D02*
X10574987Y-3976000D01*
X10524987Y-5450000D02*
X10524987Y-5550000D01*
X10474987Y-5500000D02*
X10574987Y-5500000D01*
X10778987Y-3926000D02*
X10778987Y-4026000D01*
X10728987Y-3976000D02*
X10828987Y-3976000D01*
X10778987Y-5450000D02*
X10778987Y-5550000D01*
X10728987Y-5500000D02*
X10828987Y-5500000D01*
X11032987Y-3926000D02*
X11032987Y-4026000D01*
X10982987Y-3976000D02*
X11082987Y-3976000D01*
X11032987Y-5450000D02*
X11032987Y-5550000D01*
X10982987Y-5500000D02*
X11082987Y-5500000D01*
X11038428Y-6499000D02*
X11038428Y-6599000D01*
X10988428Y-6549000D02*
X11088428Y-6549000D01*
X11286987Y-3926000D02*
X11286987Y-4026000D01*
X11236987Y-3976000D02*
X11336987Y-3976000D01*
X11286987Y-5450000D02*
X11286987Y-5550000D01*
X11236987Y-5500000D02*
X11336987Y-5500000D01*
X11292428Y-6499000D02*
X11292428Y-6599000D01*
X11242428Y-6549000D02*
X11342428Y-6549000D01*
X11540987Y-3926000D02*
X11540987Y-4026000D01*
X11490987Y-3976000D02*
X11590987Y-3976000D01*
X11540987Y-5450000D02*
X11540987Y-5550000D01*
X11490987Y-5500000D02*
X11590987Y-5500000D01*
X11546428Y-6499000D02*
X11546428Y-6599000D01*
X11496428Y-6549000D02*
X11596428Y-6549000D01*
X11800428Y-6499000D02*
X11800428Y-6599000D01*
X11750428Y-6549000D02*
X11850428Y-6549000D01*
X12556987Y-4188000D02*
X12556987Y-4288000D01*
X12506987Y-4238000D02*
X12606987Y-4238000D01*
X12556987Y-4438000D02*
X12556987Y-4538000D01*
X12506987Y-4488000D02*
X12606987Y-4488000D01*
X12556987Y-4688000D02*
X12556987Y-4788000D01*
X12506987Y-4738000D02*
X12606987Y-4738000D01*
X13749781Y-6532000D02*
X13749781Y-6632000D01*
X13699781Y-6582000D02*
X13799781Y-6582000D01*
X14003781Y-6532000D02*
X14003781Y-6632000D01*
X13953781Y-6582000D02*
X14053781Y-6582000D01*
X14006987Y-4188000D02*
X14006987Y-4288000D01*
X13956987Y-4238000D02*
X14056987Y-4238000D01*
X14006987Y-4688000D02*
X14006987Y-4788000D01*
X13956987Y-4738000D02*
X14056987Y-4738000D01*
X14257781Y-6532000D02*
X14257781Y-6632000D01*
X14207781Y-6582000D02*
X14307781Y-6582000D01*
X14511781Y-6532000D02*
X14511781Y-6632000D01*
X14461781Y-6582000D02*
X14561781Y-6582000D01*
X14969987Y-4188000D02*
X14969987Y-4288000D01*
X14919987Y-4238000D02*
X15019987Y-4238000D01*
X14969987Y-4438000D02*
X14969987Y-4538000D01*
X14919987Y-4488000D02*
X15019987Y-4488000D01*
X14969987Y-4688000D02*
X14969987Y-4788000D01*
X14919987Y-4738000D02*
X15019987Y-4738000D01*
X16419987Y-4188000D02*
X16419987Y-4288000D01*
X16369987Y-4238000D02*
X16469987Y-4238000D01*
X16419987Y-4688000D02*
X16419987Y-4788000D01*
X16369987Y-4738000D02*
X16469987Y-4738000D01*
X16461134Y-6482500D02*
X16461134Y-6582500D01*
X16411134Y-6532500D02*
X16511134Y-6532500D01*
X16715134Y-6482500D02*
X16715134Y-6582500D01*
X16665134Y-6532500D02*
X16765134Y-6532500D01*
X16969134Y-6482500D02*
X16969134Y-6582500D01*
X16919134Y-6532500D02*
X17019134Y-6532500D01*
X17223134Y-6482500D02*
X17223134Y-6582500D01*
X17173134Y-6532500D02*
X17273134Y-6532500D01*
X19172487Y-6482500D02*
X19172487Y-6582500D01*
X19122487Y-6532500D02*
X19222487Y-6532500D01*
X19426487Y-6482500D02*
X19426487Y-6582500D01*
X19376487Y-6532500D02*
X19476487Y-6532500D01*
X19680487Y-6482500D02*
X19680487Y-6582500D01*
X19630487Y-6532500D02*
X19730487Y-6532500D01*
X19934487Y-6482500D02*
X19934487Y-6582500D01*
X19884487Y-6532500D02*
X19984487Y-6532500D01*
D12*
X7153913Y-6622427D02*
X7153913Y-6537573D01*
X7069060Y-6537573D01*
X7069060Y-6622427D01*
X7153913Y-6622427D01*
X7503913Y-6622427D02*
X7503913Y-6537573D01*
X7419060Y-6537573D01*
X7419060Y-6622427D01*
X7503913Y-6622427D01*
X7503913Y-13972427D02*
X7503913Y-13887573D01*
X7419060Y-13887573D01*
X7419060Y-13972427D01*
X7503913Y-13972427D01*
X9865266Y-6639427D02*
X9865266Y-6554573D01*
X9780413Y-6554573D01*
X9780413Y-6639427D01*
X9865266Y-6639427D01*
X10215266Y-6639427D02*
X10215266Y-6554573D01*
X10130413Y-6554573D01*
X10130413Y-6639427D01*
X10215266Y-6639427D01*
X10215266Y-13989427D02*
X10215266Y-13904573D01*
X10130413Y-13904573D01*
X10130413Y-13989427D01*
X10215266Y-13989427D01*
X12578619Y-6585427D02*
X12578619Y-6500573D01*
X12493765Y-6500573D01*
X12493765Y-6585427D01*
X12578619Y-6585427D01*
X12928619Y-6585427D02*
X12928619Y-6500573D01*
X12843765Y-6500573D01*
X12843765Y-6585427D01*
X12928619Y-6585427D01*
X12928619Y-13935427D02*
X12928619Y-13850573D01*
X12843765Y-13850573D01*
X12843765Y-13935427D01*
X12928619Y-13935427D01*
X15289972Y-6525927D02*
X15289972Y-6441073D01*
X15205118Y-6441073D01*
X15205118Y-6525927D01*
X15289972Y-6525927D01*
X15639972Y-6525927D02*
X15639972Y-6441073D01*
X15555118Y-6441073D01*
X15555118Y-6525927D01*
X15639972Y-6525927D01*
X15639972Y-13875927D02*
X15639972Y-13791073D01*
X15555118Y-13791073D01*
X15555118Y-13875927D01*
X15639972Y-13875927D01*
X18001325Y-6589427D02*
X18001325Y-6504573D01*
X17916471Y-6504573D01*
X17916471Y-6589427D01*
X18001325Y-6589427D01*
X18351325Y-6589427D02*
X18351325Y-6504573D01*
X18266471Y-6504573D01*
X18266471Y-6589427D01*
X18351325Y-6589427D01*
X18351325Y-13939427D02*
X18351325Y-13854573D01*
X18266471Y-13854573D01*
X18266471Y-13939427D01*
X18351325Y-13939427D01*
D13*
X13306987Y-4003000D02*
X13381987Y-3928000D01*
X13306987Y-3853000D01*
X13231987Y-3928000D01*
X13306987Y-4003000D01*
D11*
X13241987Y-4003000D02*
X13371987Y-4003000D01*
X13371987Y-3853000D02*
G75*
G02*
X13371987Y-4003000I0J-75000D01*
G01*
X13371987Y-3853000D02*
X13241987Y-3853000D01*
X13241987Y-3853000D02*
G75*
G03*
X13241987Y-4003000I0J-75000D01*
G01*
D13*
X13306987Y-5123000D02*
X13381987Y-5048000D01*
X13306987Y-4973000D01*
X13231987Y-5048000D01*
X13306987Y-5123000D01*
D11*
X13241987Y-5123000D02*
X13371987Y-5123000D01*
X13371987Y-4973000D02*
G75*
G02*
X13371987Y-5123000I0J-75000D01*
G01*
X13371987Y-4973000D02*
X13241987Y-4973000D01*
X13241987Y-4973000D02*
G75*
G03*
X13241987Y-5123000I0J-75000D01*
G01*
D13*
X15719987Y-4003000D02*
X15794987Y-3928000D01*
X15719987Y-3853000D01*
X15644987Y-3928000D01*
X15719987Y-4003000D01*
D11*
X15654987Y-4003000D02*
X15784987Y-4003000D01*
X15784987Y-3853000D02*
G75*
G02*
X15784987Y-4003000I0J-75000D01*
G01*
X15784987Y-3853000D02*
X15654987Y-3853000D01*
X15654987Y-3853000D02*
G75*
G03*
X15654987Y-4003000I0J-75000D01*
G01*
D13*
X15719987Y-5123000D02*
X15794987Y-5048000D01*
X15719987Y-4973000D01*
X15644987Y-5048000D01*
X15719987Y-5123000D01*
D11*
X15654987Y-5123000D02*
X15784987Y-5123000D01*
X15784987Y-4973000D02*
G75*
G02*
X15784987Y-5123000I0J-75000D01*
G01*
X15784987Y-4973000D02*
X15654987Y-4973000D01*
X15654987Y-4973000D02*
G75*
G03*
X15654987Y-5123000I0J-75000D01*
G01*
D14*
X6781487Y-6910000D02*
X6951487Y-7080000D01*
X6951487Y-6910000D02*
X6781487Y-7080000D01*
X6951487Y-6995000D02*
G75*
G02*
X6781487Y-6995000I-85000J0D01*
G01*
X6781487Y-6995000D02*
G75*
G02*
X6951487Y-6995000I85000J0D01*
G01*
X6781487Y-13430000D02*
X6951487Y-13600000D01*
X6951487Y-13430000D02*
X6781487Y-13600000D01*
X6951487Y-13515000D02*
G75*
G02*
X6781487Y-13515000I-85000J0D01*
G01*
X6781487Y-13515000D02*
G75*
G02*
X6951487Y-13515000I85000J0D01*
G01*
X7621487Y-7030000D02*
X7791487Y-7200000D01*
X7791487Y-7030000D02*
X7621487Y-7200000D01*
X7791487Y-7115000D02*
G75*
G02*
X7621487Y-7115000I-85000J0D01*
G01*
X7621487Y-7115000D02*
G75*
G02*
X7791487Y-7115000I85000J0D01*
G01*
X7621487Y-13310000D02*
X7791487Y-13480000D01*
X7791487Y-13310000D02*
X7621487Y-13480000D01*
X7791487Y-13395000D02*
G75*
G02*
X7621487Y-13395000I-85000J0D01*
G01*
X7621487Y-13395000D02*
G75*
G02*
X7791487Y-13395000I85000J0D01*
G01*
X9492840Y-6927000D02*
X9662840Y-7097000D01*
X9662840Y-6927000D02*
X9492840Y-7097000D01*
X9662840Y-7012000D02*
G75*
G02*
X9492840Y-7012000I-85000J0D01*
G01*
X9492840Y-7012000D02*
G75*
G02*
X9662840Y-7012000I85000J0D01*
G01*
X9492840Y-13447000D02*
X9662840Y-13617000D01*
X9662840Y-13447000D02*
X9492840Y-13617000D01*
X9662840Y-13532000D02*
G75*
G02*
X9492840Y-13532000I-85000J0D01*
G01*
X9492840Y-13532000D02*
G75*
G02*
X9662840Y-13532000I85000J0D01*
G01*
X10332840Y-7047000D02*
X10502840Y-7217000D01*
X10502840Y-7047000D02*
X10332840Y-7217000D01*
X10502840Y-7132000D02*
G75*
G02*
X10332840Y-7132000I-85000J0D01*
G01*
X10332840Y-7132000D02*
G75*
G02*
X10502840Y-7132000I85000J0D01*
G01*
X10332840Y-13327000D02*
X10502840Y-13497000D01*
X10502840Y-13327000D02*
X10332840Y-13497000D01*
X10502840Y-13412000D02*
G75*
G02*
X10332840Y-13412000I-85000J0D01*
G01*
X10332840Y-13412000D02*
G75*
G02*
X10502840Y-13412000I85000J0D01*
G01*
X12206192Y-6873000D02*
X12376192Y-7043000D01*
X12376192Y-6873000D02*
X12206192Y-7043000D01*
X12376192Y-6958000D02*
G75*
G02*
X12206192Y-6958000I-85000J0D01*
G01*
X12206192Y-6958000D02*
G75*
G02*
X12376192Y-6958000I85000J0D01*
G01*
X12206192Y-13393000D02*
X12376192Y-13563000D01*
X12376192Y-13393000D02*
X12206192Y-13563000D01*
X12376192Y-13478000D02*
G75*
G02*
X12206192Y-13478000I-85000J0D01*
G01*
X12206192Y-13478000D02*
G75*
G02*
X12376192Y-13478000I85000J0D01*
G01*
X13046192Y-6993000D02*
X13216192Y-7163000D01*
X13216192Y-6993000D02*
X13046192Y-7163000D01*
X13216192Y-7078000D02*
G75*
G02*
X13046192Y-7078000I-85000J0D01*
G01*
X13046192Y-7078000D02*
G75*
G02*
X13216192Y-7078000I85000J0D01*
G01*
X13046192Y-13273000D02*
X13216192Y-13443000D01*
X13216192Y-13273000D02*
X13046192Y-13443000D01*
X13216192Y-13358000D02*
G75*
G02*
X13046192Y-13358000I-85000J0D01*
G01*
X13046192Y-13358000D02*
G75*
G02*
X13216192Y-13358000I85000J0D01*
G01*
X14917545Y-6813500D02*
X15087545Y-6983500D01*
X15087545Y-6813500D02*
X14917545Y-6983500D01*
X15087545Y-6898500D02*
G75*
G02*
X14917545Y-6898500I-85000J0D01*
G01*
X14917545Y-6898500D02*
G75*
G02*
X15087545Y-6898500I85000J0D01*
G01*
X14917545Y-13333500D02*
X15087545Y-13503500D01*
X15087545Y-13333500D02*
X14917545Y-13503500D01*
X15087545Y-13418500D02*
G75*
G02*
X14917545Y-13418500I-85000J0D01*
G01*
X14917545Y-13418500D02*
G75*
G02*
X15087545Y-13418500I85000J0D01*
G01*
X15757545Y-6933500D02*
X15927545Y-7103500D01*
X15927545Y-6933500D02*
X15757545Y-7103500D01*
X15927545Y-7018500D02*
G75*
G02*
X15757545Y-7018500I-85000J0D01*
G01*
X15757545Y-7018500D02*
G75*
G02*
X15927545Y-7018500I85000J0D01*
G01*
X15757545Y-13213500D02*
X15927545Y-13383500D01*
X15927545Y-13213500D02*
X15757545Y-13383500D01*
X15927545Y-13298500D02*
G75*
G02*
X15757545Y-13298500I-85000J0D01*
G01*
X15757545Y-13298500D02*
G75*
G02*
X15927545Y-13298500I85000J0D01*
G01*
X17628898Y-6877000D02*
X17798898Y-7047000D01*
X17798898Y-6877000D02*
X17628898Y-7047000D01*
X17798898Y-6962000D02*
G75*
G02*
X17628898Y-6962000I-85000J0D01*
G01*
X17628898Y-6962000D02*
G75*
G02*
X17798898Y-6962000I85000J0D01*
G01*
X17628898Y-13397000D02*
X17798898Y-13567000D01*
X17798898Y-13397000D02*
X17628898Y-13567000D01*
X17798898Y-13482000D02*
G75*
G02*
X17628898Y-13482000I-85000J0D01*
G01*
X17628898Y-13482000D02*
G75*
G02*
X17798898Y-13482000I85000J0D01*
G01*
X18468898Y-6997000D02*
X18638898Y-7167000D01*
X18638898Y-6997000D02*
X18468898Y-7167000D01*
X18638898Y-7082000D02*
G75*
G02*
X18468898Y-7082000I-85000J0D01*
G01*
X18468898Y-7082000D02*
G75*
G02*
X18638898Y-7082000I85000J0D01*
G01*
X18468898Y-13277000D02*
X18638898Y-13447000D01*
X18638898Y-13277000D02*
X18468898Y-13447000D01*
X18638898Y-13362000D02*
G75*
G02*
X18468898Y-13362000I-85000J0D01*
G01*
X18468898Y-13362000D02*
G75*
G02*
X18638898Y-13362000I85000J0D01*
G01*
D15*
X8748987Y-4613000D02*
X8998987Y-4863000D01*
X8998987Y-4613000D02*
X8748987Y-4863000D01*
X8873987Y-4613000D02*
X8873987Y-4863000D01*
X8748987Y-4738000D02*
X8998987Y-4738000D01*
X11288987Y-4613000D02*
X11538987Y-4863000D01*
X11538987Y-4613000D02*
X11288987Y-4863000D01*
X11413987Y-4613000D02*
X11413987Y-4863000D01*
X11288987Y-4738000D02*
X11538987Y-4738000D01*
D10*
X6784777Y-14801484D02*
X6784777Y-14601484D01*
X6784777Y-14601484D02*
X6832396Y-14601484D01*
X6832396Y-14601484D02*
X6860967Y-14611008D01*
X6860967Y-14611008D02*
X6880015Y-14630055D01*
X6880015Y-14630055D02*
X6889539Y-14649103D01*
X6889539Y-14649103D02*
X6899062Y-14687198D01*
X6899062Y-14687198D02*
X6899062Y-14715769D01*
X6899062Y-14715769D02*
X6889539Y-14753865D01*
X6889539Y-14753865D02*
X6880015Y-14772912D01*
X6880015Y-14772912D02*
X6860967Y-14791960D01*
X6860967Y-14791960D02*
X6832396Y-14801484D01*
X6832396Y-14801484D02*
X6784777Y-14801484D01*
X6984777Y-14801484D02*
X6984777Y-14668150D01*
X6984777Y-14706246D02*
X6994301Y-14687198D01*
X6994301Y-14687198D02*
X7003824Y-14677674D01*
X7003824Y-14677674D02*
X7022872Y-14668150D01*
X7022872Y-14668150D02*
X7041920Y-14668150D01*
X7108586Y-14801484D02*
X7108586Y-14668150D01*
X7108586Y-14601484D02*
X7099062Y-14611008D01*
X7099062Y-14611008D02*
X7108586Y-14620531D01*
X7108586Y-14620531D02*
X7118110Y-14611008D01*
X7118110Y-14611008D02*
X7108586Y-14601484D01*
X7108586Y-14601484D02*
X7108586Y-14620531D01*
X7232396Y-14801484D02*
X7213348Y-14791960D01*
X7213348Y-14791960D02*
X7203824Y-14772912D01*
X7203824Y-14772912D02*
X7203824Y-14601484D01*
X7337158Y-14801484D02*
X7318110Y-14791960D01*
X7318110Y-14791960D02*
X7308586Y-14772912D01*
X7308586Y-14772912D02*
X7308586Y-14601484D01*
X7565729Y-14801484D02*
X7565729Y-14601484D01*
X7565729Y-14601484D02*
X7632396Y-14744341D01*
X7632396Y-14744341D02*
X7699062Y-14601484D01*
X7699062Y-14601484D02*
X7699062Y-14801484D01*
X7880015Y-14801484D02*
X7880015Y-14696722D01*
X7880015Y-14696722D02*
X7870491Y-14677674D01*
X7870491Y-14677674D02*
X7851443Y-14668150D01*
X7851443Y-14668150D02*
X7813348Y-14668150D01*
X7813348Y-14668150D02*
X7794301Y-14677674D01*
X7880015Y-14791960D02*
X7860967Y-14801484D01*
X7860967Y-14801484D02*
X7813348Y-14801484D01*
X7813348Y-14801484D02*
X7794301Y-14791960D01*
X7794301Y-14791960D02*
X7784777Y-14772912D01*
X7784777Y-14772912D02*
X7784777Y-14753865D01*
X7784777Y-14753865D02*
X7794301Y-14734817D01*
X7794301Y-14734817D02*
X7813348Y-14725293D01*
X7813348Y-14725293D02*
X7860967Y-14725293D01*
X7860967Y-14725293D02*
X7880015Y-14715769D01*
X7975253Y-14668150D02*
X7975253Y-14868150D01*
X7975253Y-14677674D02*
X7994301Y-14668150D01*
X7994301Y-14668150D02*
X8032396Y-14668150D01*
X8032396Y-14668150D02*
X8051443Y-14677674D01*
X8051443Y-14677674D02*
X8060967Y-14687198D01*
X8060967Y-14687198D02*
X8070491Y-14706246D01*
X8070491Y-14706246D02*
X8070491Y-14763388D01*
X8070491Y-14763388D02*
X8060967Y-14782436D01*
X8060967Y-14782436D02*
X8051443Y-14791960D01*
X8051443Y-14791960D02*
X8032396Y-14801484D01*
X8032396Y-14801484D02*
X7994301Y-14801484D01*
X7994301Y-14801484D02*
X7975253Y-14791960D01*
X8156205Y-14782436D02*
X8165729Y-14791960D01*
X8165729Y-14791960D02*
X8156205Y-14801484D01*
X8156205Y-14801484D02*
X8146682Y-14791960D01*
X8146682Y-14791960D02*
X8156205Y-14782436D01*
X8156205Y-14782436D02*
X8156205Y-14801484D01*
X8156205Y-14677674D02*
X8165729Y-14687198D01*
X8165729Y-14687198D02*
X8156205Y-14696722D01*
X8156205Y-14696722D02*
X8146682Y-14687198D01*
X8146682Y-14687198D02*
X8156205Y-14677674D01*
X8156205Y-14677674D02*
X8156205Y-14696722D01*
D11*
X6494000Y-15115000D02*
X6524000Y-15145000D01*
X6524000Y-15115000D02*
X6494000Y-15145000D01*
D10*
X6822872Y-15021484D02*
X6841920Y-15021484D01*
X6841920Y-15021484D02*
X6860967Y-15031008D01*
X6860967Y-15031008D02*
X6870491Y-15040531D01*
X6870491Y-15040531D02*
X6880015Y-15059579D01*
X6880015Y-15059579D02*
X6889539Y-15097674D01*
X6889539Y-15097674D02*
X6889539Y-15145293D01*
X6889539Y-15145293D02*
X6880015Y-15183388D01*
X6880015Y-15183388D02*
X6870491Y-15202436D01*
X6870491Y-15202436D02*
X6860967Y-15211960D01*
X6860967Y-15211960D02*
X6841920Y-15221484D01*
X6841920Y-15221484D02*
X6822872Y-15221484D01*
X6822872Y-15221484D02*
X6803824Y-15211960D01*
X6803824Y-15211960D02*
X6794301Y-15202436D01*
X6794301Y-15202436D02*
X6784777Y-15183388D01*
X6784777Y-15183388D02*
X6775253Y-15145293D01*
X6775253Y-15145293D02*
X6775253Y-15097674D01*
X6775253Y-15097674D02*
X6784777Y-15059579D01*
X6784777Y-15059579D02*
X6794301Y-15040531D01*
X6794301Y-15040531D02*
X6803824Y-15031008D01*
X6803824Y-15031008D02*
X6822872Y-15021484D01*
X6975253Y-15202436D02*
X6984777Y-15211960D01*
X6984777Y-15211960D02*
X6975253Y-15221484D01*
X6975253Y-15221484D02*
X6965729Y-15211960D01*
X6965729Y-15211960D02*
X6975253Y-15202436D01*
X6975253Y-15202436D02*
X6975253Y-15221484D01*
X7051443Y-15021484D02*
X7175253Y-15021484D01*
X7175253Y-15021484D02*
X7108586Y-15097674D01*
X7108586Y-15097674D02*
X7137158Y-15097674D01*
X7137158Y-15097674D02*
X7156205Y-15107198D01*
X7156205Y-15107198D02*
X7165729Y-15116722D01*
X7165729Y-15116722D02*
X7175253Y-15135769D01*
X7175253Y-15135769D02*
X7175253Y-15183388D01*
X7175253Y-15183388D02*
X7165729Y-15202436D01*
X7165729Y-15202436D02*
X7156205Y-15211960D01*
X7156205Y-15211960D02*
X7137158Y-15221484D01*
X7137158Y-15221484D02*
X7080015Y-15221484D01*
X7080015Y-15221484D02*
X7060967Y-15211960D01*
X7060967Y-15211960D02*
X7051443Y-15202436D01*
X7299062Y-15021484D02*
X7318110Y-15021484D01*
X7318110Y-15021484D02*
X7337158Y-15031008D01*
X7337158Y-15031008D02*
X7346682Y-15040531D01*
X7346682Y-15040531D02*
X7356205Y-15059579D01*
X7356205Y-15059579D02*
X7365729Y-15097674D01*
X7365729Y-15097674D02*
X7365729Y-15145293D01*
X7365729Y-15145293D02*
X7356205Y-15183388D01*
X7356205Y-15183388D02*
X7346682Y-15202436D01*
X7346682Y-15202436D02*
X7337158Y-15211960D01*
X7337158Y-15211960D02*
X7318110Y-15221484D01*
X7318110Y-15221484D02*
X7299062Y-15221484D01*
X7299062Y-15221484D02*
X7280015Y-15211960D01*
X7280015Y-15211960D02*
X7270491Y-15202436D01*
X7270491Y-15202436D02*
X7260967Y-15183388D01*
X7260967Y-15183388D02*
X7251443Y-15145293D01*
X7251443Y-15145293D02*
X7251443Y-15097674D01*
X7251443Y-15097674D02*
X7260967Y-15059579D01*
X7260967Y-15059579D02*
X7270491Y-15040531D01*
X7270491Y-15040531D02*
X7280015Y-15031008D01*
X7280015Y-15031008D02*
X7299062Y-15021484D01*
X7489539Y-15021484D02*
X7508586Y-15021484D01*
X7508586Y-15021484D02*
X7527634Y-15031008D01*
X7527634Y-15031008D02*
X7537158Y-15040531D01*
X7537158Y-15040531D02*
X7546682Y-15059579D01*
X7546682Y-15059579D02*
X7556205Y-15097674D01*
X7556205Y-15097674D02*
X7556205Y-15145293D01*
X7556205Y-15145293D02*
X7546682Y-15183388D01*
X7546682Y-15183388D02*
X7537158Y-15202436D01*
X7537158Y-15202436D02*
X7527634Y-15211960D01*
X7527634Y-15211960D02*
X7508586Y-15221484D01*
X7508586Y-15221484D02*
X7489539Y-15221484D01*
X7489539Y-15221484D02*
X7470491Y-15211960D01*
X7470491Y-15211960D02*
X7460967Y-15202436D01*
X7460967Y-15202436D02*
X7451443Y-15183388D01*
X7451443Y-15183388D02*
X7441920Y-15145293D01*
X7441920Y-15145293D02*
X7441920Y-15097674D01*
X7441920Y-15097674D02*
X7451443Y-15059579D01*
X7451443Y-15059579D02*
X7460967Y-15040531D01*
X7460967Y-15040531D02*
X7470491Y-15031008D01*
X7470491Y-15031008D02*
X7489539Y-15021484D01*
X7641920Y-15221484D02*
X7641920Y-15088150D01*
X7641920Y-15107198D02*
X7651443Y-15097674D01*
X7651443Y-15097674D02*
X7670491Y-15088150D01*
X7670491Y-15088150D02*
X7699063Y-15088150D01*
X7699063Y-15088150D02*
X7718110Y-15097674D01*
X7718110Y-15097674D02*
X7727634Y-15116722D01*
X7727634Y-15116722D02*
X7727634Y-15221484D01*
X7727634Y-15116722D02*
X7737158Y-15097674D01*
X7737158Y-15097674D02*
X7756205Y-15088150D01*
X7756205Y-15088150D02*
X7784777Y-15088150D01*
X7784777Y-15088150D02*
X7803824Y-15097674D01*
X7803824Y-15097674D02*
X7813348Y-15116722D01*
X7813348Y-15116722D02*
X7813348Y-15221484D01*
X7908586Y-15221484D02*
X7908586Y-15088150D01*
X7908586Y-15107198D02*
X7918110Y-15097674D01*
X7918110Y-15097674D02*
X7937158Y-15088150D01*
X7937158Y-15088150D02*
X7965729Y-15088150D01*
X7965729Y-15088150D02*
X7984777Y-15097674D01*
X7984777Y-15097674D02*
X7994301Y-15116722D01*
X7994301Y-15116722D02*
X7994301Y-15221484D01*
X7994301Y-15116722D02*
X8003824Y-15097674D01*
X8003824Y-15097674D02*
X8022872Y-15088150D01*
X8022872Y-15088150D02*
X8051443Y-15088150D01*
X8051443Y-15088150D02*
X8070491Y-15097674D01*
X8070491Y-15097674D02*
X8080015Y-15116722D01*
X8080015Y-15116722D02*
X8080015Y-15221484D01*
X8470491Y-15011960D02*
X8299063Y-15269103D01*
X8727634Y-15021484D02*
X8746682Y-15021484D01*
X8746682Y-15021484D02*
X8765729Y-15031008D01*
X8765729Y-15031008D02*
X8775253Y-15040531D01*
X8775253Y-15040531D02*
X8784777Y-15059579D01*
X8784777Y-15059579D02*
X8794301Y-15097674D01*
X8794301Y-15097674D02*
X8794301Y-15145293D01*
X8794301Y-15145293D02*
X8784777Y-15183388D01*
X8784777Y-15183388D02*
X8775253Y-15202436D01*
X8775253Y-15202436D02*
X8765729Y-15211960D01*
X8765729Y-15211960D02*
X8746682Y-15221484D01*
X8746682Y-15221484D02*
X8727634Y-15221484D01*
X8727634Y-15221484D02*
X8708587Y-15211960D01*
X8708587Y-15211960D02*
X8699063Y-15202436D01*
X8699063Y-15202436D02*
X8689539Y-15183388D01*
X8689539Y-15183388D02*
X8680015Y-15145293D01*
X8680015Y-15145293D02*
X8680015Y-15097674D01*
X8680015Y-15097674D02*
X8689539Y-15059579D01*
X8689539Y-15059579D02*
X8699063Y-15040531D01*
X8699063Y-15040531D02*
X8708587Y-15031008D01*
X8708587Y-15031008D02*
X8727634Y-15021484D01*
X8880015Y-15202436D02*
X8889539Y-15211960D01*
X8889539Y-15211960D02*
X8880015Y-15221484D01*
X8880015Y-15221484D02*
X8870491Y-15211960D01*
X8870491Y-15211960D02*
X8880015Y-15202436D01*
X8880015Y-15202436D02*
X8880015Y-15221484D01*
X9013348Y-15021484D02*
X9032396Y-15021484D01*
X9032396Y-15021484D02*
X9051444Y-15031008D01*
X9051444Y-15031008D02*
X9060968Y-15040531D01*
X9060968Y-15040531D02*
X9070491Y-15059579D01*
X9070491Y-15059579D02*
X9080015Y-15097674D01*
X9080015Y-15097674D02*
X9080015Y-15145293D01*
X9080015Y-15145293D02*
X9070491Y-15183388D01*
X9070491Y-15183388D02*
X9060968Y-15202436D01*
X9060968Y-15202436D02*
X9051444Y-15211960D01*
X9051444Y-15211960D02*
X9032396Y-15221484D01*
X9032396Y-15221484D02*
X9013348Y-15221484D01*
X9013348Y-15221484D02*
X8994301Y-15211960D01*
X8994301Y-15211960D02*
X8984777Y-15202436D01*
X8984777Y-15202436D02*
X8975253Y-15183388D01*
X8975253Y-15183388D02*
X8965729Y-15145293D01*
X8965729Y-15145293D02*
X8965729Y-15097674D01*
X8965729Y-15097674D02*
X8975253Y-15059579D01*
X8975253Y-15059579D02*
X8984777Y-15040531D01*
X8984777Y-15040531D02*
X8994301Y-15031008D01*
X8994301Y-15031008D02*
X9013348Y-15021484D01*
X9270491Y-15221484D02*
X9156206Y-15221484D01*
X9213348Y-15221484D02*
X9213348Y-15021484D01*
X9213348Y-15021484D02*
X9194301Y-15050055D01*
X9194301Y-15050055D02*
X9175253Y-15069103D01*
X9175253Y-15069103D02*
X9156206Y-15078627D01*
X9460968Y-15221484D02*
X9346682Y-15221484D01*
X9403825Y-15221484D02*
X9403825Y-15021484D01*
X9403825Y-15021484D02*
X9384777Y-15050055D01*
X9384777Y-15050055D02*
X9365729Y-15069103D01*
X9365729Y-15069103D02*
X9346682Y-15078627D01*
X9575253Y-15107198D02*
X9556206Y-15097674D01*
X9556206Y-15097674D02*
X9546682Y-15088150D01*
X9546682Y-15088150D02*
X9537158Y-15069103D01*
X9537158Y-15069103D02*
X9537158Y-15059579D01*
X9537158Y-15059579D02*
X9546682Y-15040531D01*
X9546682Y-15040531D02*
X9556206Y-15031008D01*
X9556206Y-15031008D02*
X9575253Y-15021484D01*
X9575253Y-15021484D02*
X9613349Y-15021484D01*
X9613349Y-15021484D02*
X9632396Y-15031008D01*
X9632396Y-15031008D02*
X9641920Y-15040531D01*
X9641920Y-15040531D02*
X9651444Y-15059579D01*
X9651444Y-15059579D02*
X9651444Y-15069103D01*
X9651444Y-15069103D02*
X9641920Y-15088150D01*
X9641920Y-15088150D02*
X9632396Y-15097674D01*
X9632396Y-15097674D02*
X9613349Y-15107198D01*
X9613349Y-15107198D02*
X9575253Y-15107198D01*
X9575253Y-15107198D02*
X9556206Y-15116722D01*
X9556206Y-15116722D02*
X9546682Y-15126246D01*
X9546682Y-15126246D02*
X9537158Y-15145293D01*
X9537158Y-15145293D02*
X9537158Y-15183388D01*
X9537158Y-15183388D02*
X9546682Y-15202436D01*
X9546682Y-15202436D02*
X9556206Y-15211960D01*
X9556206Y-15211960D02*
X9575253Y-15221484D01*
X9575253Y-15221484D02*
X9613349Y-15221484D01*
X9613349Y-15221484D02*
X9632396Y-15211960D01*
X9632396Y-15211960D02*
X9641920Y-15202436D01*
X9641920Y-15202436D02*
X9651444Y-15183388D01*
X9651444Y-15183388D02*
X9651444Y-15145293D01*
X9651444Y-15145293D02*
X9641920Y-15126246D01*
X9641920Y-15126246D02*
X9632396Y-15116722D01*
X9632396Y-15116722D02*
X9613349Y-15107198D01*
X9727634Y-15021484D02*
X9727634Y-15059579D01*
X9803825Y-15021484D02*
X9803825Y-15059579D01*
X10099063Y-15297674D02*
X10089539Y-15288150D01*
X10089539Y-15288150D02*
X10070491Y-15259579D01*
X10070491Y-15259579D02*
X10060968Y-15240531D01*
X10060968Y-15240531D02*
X10051444Y-15211960D01*
X10051444Y-15211960D02*
X10041920Y-15164341D01*
X10041920Y-15164341D02*
X10041920Y-15126246D01*
X10041920Y-15126246D02*
X10051444Y-15078627D01*
X10051444Y-15078627D02*
X10060968Y-15050055D01*
X10060968Y-15050055D02*
X10070491Y-15031008D01*
X10070491Y-15031008D02*
X10089539Y-15002436D01*
X10089539Y-15002436D02*
X10099063Y-14992912D01*
X10165730Y-15040531D02*
X10175253Y-15031008D01*
X10175253Y-15031008D02*
X10194301Y-15021484D01*
X10194301Y-15021484D02*
X10241920Y-15021484D01*
X10241920Y-15021484D02*
X10260968Y-15031008D01*
X10260968Y-15031008D02*
X10270491Y-15040531D01*
X10270491Y-15040531D02*
X10280015Y-15059579D01*
X10280015Y-15059579D02*
X10280015Y-15078627D01*
X10280015Y-15078627D02*
X10270491Y-15107198D01*
X10270491Y-15107198D02*
X10156206Y-15221484D01*
X10156206Y-15221484D02*
X10280015Y-15221484D01*
X10346682Y-15021484D02*
X10480015Y-15021484D01*
X10480015Y-15021484D02*
X10394301Y-15221484D01*
X10708587Y-15221484D02*
X10708587Y-15021484D01*
X10794301Y-15221484D02*
X10794301Y-15116722D01*
X10794301Y-15116722D02*
X10784777Y-15097674D01*
X10784777Y-15097674D02*
X10765730Y-15088150D01*
X10765730Y-15088150D02*
X10737158Y-15088150D01*
X10737158Y-15088150D02*
X10718111Y-15097674D01*
X10718111Y-15097674D02*
X10708587Y-15107198D01*
X10918111Y-15221484D02*
X10899063Y-15211960D01*
X10899063Y-15211960D02*
X10889539Y-15202436D01*
X10889539Y-15202436D02*
X10880015Y-15183388D01*
X10880015Y-15183388D02*
X10880015Y-15126246D01*
X10880015Y-15126246D02*
X10889539Y-15107198D01*
X10889539Y-15107198D02*
X10899063Y-15097674D01*
X10899063Y-15097674D02*
X10918111Y-15088150D01*
X10918111Y-15088150D02*
X10946682Y-15088150D01*
X10946682Y-15088150D02*
X10965730Y-15097674D01*
X10965730Y-15097674D02*
X10975253Y-15107198D01*
X10975253Y-15107198D02*
X10984777Y-15126246D01*
X10984777Y-15126246D02*
X10984777Y-15183388D01*
X10984777Y-15183388D02*
X10975253Y-15202436D01*
X10975253Y-15202436D02*
X10965730Y-15211960D01*
X10965730Y-15211960D02*
X10946682Y-15221484D01*
X10946682Y-15221484D02*
X10918111Y-15221484D01*
X11099063Y-15221484D02*
X11080015Y-15211960D01*
X11080015Y-15211960D02*
X11070492Y-15192912D01*
X11070492Y-15192912D02*
X11070492Y-15021484D01*
X11251444Y-15211960D02*
X11232396Y-15221484D01*
X11232396Y-15221484D02*
X11194301Y-15221484D01*
X11194301Y-15221484D02*
X11175253Y-15211960D01*
X11175253Y-15211960D02*
X11165730Y-15192912D01*
X11165730Y-15192912D02*
X11165730Y-15116722D01*
X11165730Y-15116722D02*
X11175253Y-15097674D01*
X11175253Y-15097674D02*
X11194301Y-15088150D01*
X11194301Y-15088150D02*
X11232396Y-15088150D01*
X11232396Y-15088150D02*
X11251444Y-15097674D01*
X11251444Y-15097674D02*
X11260968Y-15116722D01*
X11260968Y-15116722D02*
X11260968Y-15135769D01*
X11260968Y-15135769D02*
X11165730Y-15154817D01*
X11337158Y-15211960D02*
X11356206Y-15221484D01*
X11356206Y-15221484D02*
X11394301Y-15221484D01*
X11394301Y-15221484D02*
X11413349Y-15211960D01*
X11413349Y-15211960D02*
X11422872Y-15192912D01*
X11422872Y-15192912D02*
X11422872Y-15183388D01*
X11422872Y-15183388D02*
X11413349Y-15164341D01*
X11413349Y-15164341D02*
X11394301Y-15154817D01*
X11394301Y-15154817D02*
X11365730Y-15154817D01*
X11365730Y-15154817D02*
X11346682Y-15145293D01*
X11346682Y-15145293D02*
X11337158Y-15126246D01*
X11337158Y-15126246D02*
X11337158Y-15116722D01*
X11337158Y-15116722D02*
X11346682Y-15097674D01*
X11346682Y-15097674D02*
X11365730Y-15088150D01*
X11365730Y-15088150D02*
X11394301Y-15088150D01*
X11394301Y-15088150D02*
X11413349Y-15097674D01*
X11489539Y-15297674D02*
X11499063Y-15288150D01*
X11499063Y-15288150D02*
X11518111Y-15259579D01*
X11518111Y-15259579D02*
X11527634Y-15240531D01*
X11527634Y-15240531D02*
X11537158Y-15211960D01*
X11537158Y-15211960D02*
X11546682Y-15164341D01*
X11546682Y-15164341D02*
X11546682Y-15126246D01*
X11546682Y-15126246D02*
X11537158Y-15078627D01*
X11537158Y-15078627D02*
X11527634Y-15050055D01*
X11527634Y-15050055D02*
X11518111Y-15031008D01*
X11518111Y-15031008D02*
X11499063Y-15002436D01*
X11499063Y-15002436D02*
X11489539Y-14992912D01*
D11*
X6524000Y-15394000D02*
G75*
G02*
X6444000Y-15394000I-40000J0D01*
G01*
X6444000Y-15394000D02*
G75*
G02*
X6524000Y-15394000I40000J0D01*
G01*
D10*
X6822872Y-15285484D02*
X6841920Y-15285484D01*
X6841920Y-15285484D02*
X6860967Y-15295008D01*
X6860967Y-15295008D02*
X6870491Y-15304531D01*
X6870491Y-15304531D02*
X6880015Y-15323579D01*
X6880015Y-15323579D02*
X6889539Y-15361674D01*
X6889539Y-15361674D02*
X6889539Y-15409293D01*
X6889539Y-15409293D02*
X6880015Y-15447388D01*
X6880015Y-15447388D02*
X6870491Y-15466436D01*
X6870491Y-15466436D02*
X6860967Y-15475960D01*
X6860967Y-15475960D02*
X6841920Y-15485484D01*
X6841920Y-15485484D02*
X6822872Y-15485484D01*
X6822872Y-15485484D02*
X6803824Y-15475960D01*
X6803824Y-15475960D02*
X6794301Y-15466436D01*
X6794301Y-15466436D02*
X6784777Y-15447388D01*
X6784777Y-15447388D02*
X6775253Y-15409293D01*
X6775253Y-15409293D02*
X6775253Y-15361674D01*
X6775253Y-15361674D02*
X6784777Y-15323579D01*
X6784777Y-15323579D02*
X6794301Y-15304531D01*
X6794301Y-15304531D02*
X6803824Y-15295008D01*
X6803824Y-15295008D02*
X6822872Y-15285484D01*
X6975253Y-15466436D02*
X6984777Y-15475960D01*
X6984777Y-15475960D02*
X6975253Y-15485484D01*
X6975253Y-15485484D02*
X6965729Y-15475960D01*
X6965729Y-15475960D02*
X6975253Y-15466436D01*
X6975253Y-15466436D02*
X6975253Y-15485484D01*
X7099062Y-15371198D02*
X7080015Y-15361674D01*
X7080015Y-15361674D02*
X7070491Y-15352150D01*
X7070491Y-15352150D02*
X7060967Y-15333103D01*
X7060967Y-15333103D02*
X7060967Y-15323579D01*
X7060967Y-15323579D02*
X7070491Y-15304531D01*
X7070491Y-15304531D02*
X7080015Y-15295008D01*
X7080015Y-15295008D02*
X7099062Y-15285484D01*
X7099062Y-15285484D02*
X7137158Y-15285484D01*
X7137158Y-15285484D02*
X7156205Y-15295008D01*
X7156205Y-15295008D02*
X7165729Y-15304531D01*
X7165729Y-15304531D02*
X7175253Y-15323579D01*
X7175253Y-15323579D02*
X7175253Y-15333103D01*
X7175253Y-15333103D02*
X7165729Y-15352150D01*
X7165729Y-15352150D02*
X7156205Y-15361674D01*
X7156205Y-15361674D02*
X7137158Y-15371198D01*
X7137158Y-15371198D02*
X7099062Y-15371198D01*
X7099062Y-15371198D02*
X7080015Y-15380722D01*
X7080015Y-15380722D02*
X7070491Y-15390246D01*
X7070491Y-15390246D02*
X7060967Y-15409293D01*
X7060967Y-15409293D02*
X7060967Y-15447388D01*
X7060967Y-15447388D02*
X7070491Y-15466436D01*
X7070491Y-15466436D02*
X7080015Y-15475960D01*
X7080015Y-15475960D02*
X7099062Y-15485484D01*
X7099062Y-15485484D02*
X7137158Y-15485484D01*
X7137158Y-15485484D02*
X7156205Y-15475960D01*
X7156205Y-15475960D02*
X7165729Y-15466436D01*
X7165729Y-15466436D02*
X7175253Y-15447388D01*
X7175253Y-15447388D02*
X7175253Y-15409293D01*
X7175253Y-15409293D02*
X7165729Y-15390246D01*
X7165729Y-15390246D02*
X7156205Y-15380722D01*
X7156205Y-15380722D02*
X7137158Y-15371198D01*
X7299062Y-15285484D02*
X7318110Y-15285484D01*
X7318110Y-15285484D02*
X7337158Y-15295008D01*
X7337158Y-15295008D02*
X7346682Y-15304531D01*
X7346682Y-15304531D02*
X7356205Y-15323579D01*
X7356205Y-15323579D02*
X7365729Y-15361674D01*
X7365729Y-15361674D02*
X7365729Y-15409293D01*
X7365729Y-15409293D02*
X7356205Y-15447388D01*
X7356205Y-15447388D02*
X7346682Y-15466436D01*
X7346682Y-15466436D02*
X7337158Y-15475960D01*
X7337158Y-15475960D02*
X7318110Y-15485484D01*
X7318110Y-15485484D02*
X7299062Y-15485484D01*
X7299062Y-15485484D02*
X7280015Y-15475960D01*
X7280015Y-15475960D02*
X7270491Y-15466436D01*
X7270491Y-15466436D02*
X7260967Y-15447388D01*
X7260967Y-15447388D02*
X7251443Y-15409293D01*
X7251443Y-15409293D02*
X7251443Y-15361674D01*
X7251443Y-15361674D02*
X7260967Y-15323579D01*
X7260967Y-15323579D02*
X7270491Y-15304531D01*
X7270491Y-15304531D02*
X7280015Y-15295008D01*
X7280015Y-15295008D02*
X7299062Y-15285484D01*
X7489539Y-15285484D02*
X7508586Y-15285484D01*
X7508586Y-15285484D02*
X7527634Y-15295008D01*
X7527634Y-15295008D02*
X7537158Y-15304531D01*
X7537158Y-15304531D02*
X7546682Y-15323579D01*
X7546682Y-15323579D02*
X7556205Y-15361674D01*
X7556205Y-15361674D02*
X7556205Y-15409293D01*
X7556205Y-15409293D02*
X7546682Y-15447388D01*
X7546682Y-15447388D02*
X7537158Y-15466436D01*
X7537158Y-15466436D02*
X7527634Y-15475960D01*
X7527634Y-15475960D02*
X7508586Y-15485484D01*
X7508586Y-15485484D02*
X7489539Y-15485484D01*
X7489539Y-15485484D02*
X7470491Y-15475960D01*
X7470491Y-15475960D02*
X7460967Y-15466436D01*
X7460967Y-15466436D02*
X7451443Y-15447388D01*
X7451443Y-15447388D02*
X7441920Y-15409293D01*
X7441920Y-15409293D02*
X7441920Y-15361674D01*
X7441920Y-15361674D02*
X7451443Y-15323579D01*
X7451443Y-15323579D02*
X7460967Y-15304531D01*
X7460967Y-15304531D02*
X7470491Y-15295008D01*
X7470491Y-15295008D02*
X7489539Y-15285484D01*
X7641920Y-15485484D02*
X7641920Y-15352150D01*
X7641920Y-15371198D02*
X7651443Y-15361674D01*
X7651443Y-15361674D02*
X7670491Y-15352150D01*
X7670491Y-15352150D02*
X7699063Y-15352150D01*
X7699063Y-15352150D02*
X7718110Y-15361674D01*
X7718110Y-15361674D02*
X7727634Y-15380722D01*
X7727634Y-15380722D02*
X7727634Y-15485484D01*
X7727634Y-15380722D02*
X7737158Y-15361674D01*
X7737158Y-15361674D02*
X7756205Y-15352150D01*
X7756205Y-15352150D02*
X7784777Y-15352150D01*
X7784777Y-15352150D02*
X7803824Y-15361674D01*
X7803824Y-15361674D02*
X7813348Y-15380722D01*
X7813348Y-15380722D02*
X7813348Y-15485484D01*
X7908586Y-15485484D02*
X7908586Y-15352150D01*
X7908586Y-15371198D02*
X7918110Y-15361674D01*
X7918110Y-15361674D02*
X7937158Y-15352150D01*
X7937158Y-15352150D02*
X7965729Y-15352150D01*
X7965729Y-15352150D02*
X7984777Y-15361674D01*
X7984777Y-15361674D02*
X7994301Y-15380722D01*
X7994301Y-15380722D02*
X7994301Y-15485484D01*
X7994301Y-15380722D02*
X8003824Y-15361674D01*
X8003824Y-15361674D02*
X8022872Y-15352150D01*
X8022872Y-15352150D02*
X8051443Y-15352150D01*
X8051443Y-15352150D02*
X8070491Y-15361674D01*
X8070491Y-15361674D02*
X8080015Y-15380722D01*
X8080015Y-15380722D02*
X8080015Y-15485484D01*
X8470491Y-15275960D02*
X8299063Y-15533103D01*
X8727634Y-15285484D02*
X8746682Y-15285484D01*
X8746682Y-15285484D02*
X8765729Y-15295008D01*
X8765729Y-15295008D02*
X8775253Y-15304531D01*
X8775253Y-15304531D02*
X8784777Y-15323579D01*
X8784777Y-15323579D02*
X8794301Y-15361674D01*
X8794301Y-15361674D02*
X8794301Y-15409293D01*
X8794301Y-15409293D02*
X8784777Y-15447388D01*
X8784777Y-15447388D02*
X8775253Y-15466436D01*
X8775253Y-15466436D02*
X8765729Y-15475960D01*
X8765729Y-15475960D02*
X8746682Y-15485484D01*
X8746682Y-15485484D02*
X8727634Y-15485484D01*
X8727634Y-15485484D02*
X8708587Y-15475960D01*
X8708587Y-15475960D02*
X8699063Y-15466436D01*
X8699063Y-15466436D02*
X8689539Y-15447388D01*
X8689539Y-15447388D02*
X8680015Y-15409293D01*
X8680015Y-15409293D02*
X8680015Y-15361674D01*
X8680015Y-15361674D02*
X8689539Y-15323579D01*
X8689539Y-15323579D02*
X8699063Y-15304531D01*
X8699063Y-15304531D02*
X8708587Y-15295008D01*
X8708587Y-15295008D02*
X8727634Y-15285484D01*
X8880015Y-15466436D02*
X8889539Y-15475960D01*
X8889539Y-15475960D02*
X8880015Y-15485484D01*
X8880015Y-15485484D02*
X8870491Y-15475960D01*
X8870491Y-15475960D02*
X8880015Y-15466436D01*
X8880015Y-15466436D02*
X8880015Y-15485484D01*
X9013348Y-15285484D02*
X9032396Y-15285484D01*
X9032396Y-15285484D02*
X9051444Y-15295008D01*
X9051444Y-15295008D02*
X9060968Y-15304531D01*
X9060968Y-15304531D02*
X9070491Y-15323579D01*
X9070491Y-15323579D02*
X9080015Y-15361674D01*
X9080015Y-15361674D02*
X9080015Y-15409293D01*
X9080015Y-15409293D02*
X9070491Y-15447388D01*
X9070491Y-15447388D02*
X9060968Y-15466436D01*
X9060968Y-15466436D02*
X9051444Y-15475960D01*
X9051444Y-15475960D02*
X9032396Y-15485484D01*
X9032396Y-15485484D02*
X9013348Y-15485484D01*
X9013348Y-15485484D02*
X8994301Y-15475960D01*
X8994301Y-15475960D02*
X8984777Y-15466436D01*
X8984777Y-15466436D02*
X8975253Y-15447388D01*
X8975253Y-15447388D02*
X8965729Y-15409293D01*
X8965729Y-15409293D02*
X8965729Y-15361674D01*
X8965729Y-15361674D02*
X8975253Y-15323579D01*
X8975253Y-15323579D02*
X8984777Y-15304531D01*
X8984777Y-15304531D02*
X8994301Y-15295008D01*
X8994301Y-15295008D02*
X9013348Y-15285484D01*
X9146682Y-15285484D02*
X9270491Y-15285484D01*
X9270491Y-15285484D02*
X9203825Y-15361674D01*
X9203825Y-15361674D02*
X9232396Y-15361674D01*
X9232396Y-15361674D02*
X9251444Y-15371198D01*
X9251444Y-15371198D02*
X9260968Y-15380722D01*
X9260968Y-15380722D02*
X9270491Y-15399769D01*
X9270491Y-15399769D02*
X9270491Y-15447388D01*
X9270491Y-15447388D02*
X9260968Y-15466436D01*
X9260968Y-15466436D02*
X9251444Y-15475960D01*
X9251444Y-15475960D02*
X9232396Y-15485484D01*
X9232396Y-15485484D02*
X9175253Y-15485484D01*
X9175253Y-15485484D02*
X9156206Y-15475960D01*
X9156206Y-15475960D02*
X9146682Y-15466436D01*
X9460968Y-15485484D02*
X9346682Y-15485484D01*
X9403825Y-15485484D02*
X9403825Y-15285484D01*
X9403825Y-15285484D02*
X9384777Y-15314055D01*
X9384777Y-15314055D02*
X9365729Y-15333103D01*
X9365729Y-15333103D02*
X9346682Y-15342627D01*
X9641920Y-15285484D02*
X9546682Y-15285484D01*
X9546682Y-15285484D02*
X9537158Y-15380722D01*
X9537158Y-15380722D02*
X9546682Y-15371198D01*
X9546682Y-15371198D02*
X9565729Y-15361674D01*
X9565729Y-15361674D02*
X9613349Y-15361674D01*
X9613349Y-15361674D02*
X9632396Y-15371198D01*
X9632396Y-15371198D02*
X9641920Y-15380722D01*
X9641920Y-15380722D02*
X9651444Y-15399769D01*
X9651444Y-15399769D02*
X9651444Y-15447388D01*
X9651444Y-15447388D02*
X9641920Y-15466436D01*
X9641920Y-15466436D02*
X9632396Y-15475960D01*
X9632396Y-15475960D02*
X9613349Y-15485484D01*
X9613349Y-15485484D02*
X9565729Y-15485484D01*
X9565729Y-15485484D02*
X9546682Y-15475960D01*
X9546682Y-15475960D02*
X9537158Y-15466436D01*
X9727634Y-15285484D02*
X9727634Y-15323579D01*
X9803825Y-15285484D02*
X9803825Y-15323579D01*
X10099063Y-15561674D02*
X10089539Y-15552150D01*
X10089539Y-15552150D02*
X10070491Y-15523579D01*
X10070491Y-15523579D02*
X10060968Y-15504531D01*
X10060968Y-15504531D02*
X10051444Y-15475960D01*
X10051444Y-15475960D02*
X10041920Y-15428341D01*
X10041920Y-15428341D02*
X10041920Y-15390246D01*
X10041920Y-15390246D02*
X10051444Y-15342627D01*
X10051444Y-15342627D02*
X10060968Y-15314055D01*
X10060968Y-15314055D02*
X10070491Y-15295008D01*
X10070491Y-15295008D02*
X10089539Y-15266436D01*
X10089539Y-15266436D02*
X10099063Y-15256912D01*
X10260968Y-15285484D02*
X10222872Y-15285484D01*
X10222872Y-15285484D02*
X10203825Y-15295008D01*
X10203825Y-15295008D02*
X10194301Y-15304531D01*
X10194301Y-15304531D02*
X10175253Y-15333103D01*
X10175253Y-15333103D02*
X10165730Y-15371198D01*
X10165730Y-15371198D02*
X10165730Y-15447388D01*
X10165730Y-15447388D02*
X10175253Y-15466436D01*
X10175253Y-15466436D02*
X10184777Y-15475960D01*
X10184777Y-15475960D02*
X10203825Y-15485484D01*
X10203825Y-15485484D02*
X10241920Y-15485484D01*
X10241920Y-15485484D02*
X10260968Y-15475960D01*
X10260968Y-15475960D02*
X10270491Y-15466436D01*
X10270491Y-15466436D02*
X10280015Y-15447388D01*
X10280015Y-15447388D02*
X10280015Y-15399769D01*
X10280015Y-15399769D02*
X10270491Y-15380722D01*
X10270491Y-15380722D02*
X10260968Y-15371198D01*
X10260968Y-15371198D02*
X10241920Y-15361674D01*
X10241920Y-15361674D02*
X10203825Y-15361674D01*
X10203825Y-15361674D02*
X10184777Y-15371198D01*
X10184777Y-15371198D02*
X10175253Y-15380722D01*
X10175253Y-15380722D02*
X10165730Y-15399769D01*
X10451444Y-15285484D02*
X10413349Y-15285484D01*
X10413349Y-15285484D02*
X10394301Y-15295008D01*
X10394301Y-15295008D02*
X10384777Y-15304531D01*
X10384777Y-15304531D02*
X10365730Y-15333103D01*
X10365730Y-15333103D02*
X10356206Y-15371198D01*
X10356206Y-15371198D02*
X10356206Y-15447388D01*
X10356206Y-15447388D02*
X10365730Y-15466436D01*
X10365730Y-15466436D02*
X10375253Y-15475960D01*
X10375253Y-15475960D02*
X10394301Y-15485484D01*
X10394301Y-15485484D02*
X10432396Y-15485484D01*
X10432396Y-15485484D02*
X10451444Y-15475960D01*
X10451444Y-15475960D02*
X10460968Y-15466436D01*
X10460968Y-15466436D02*
X10470491Y-15447388D01*
X10470491Y-15447388D02*
X10470491Y-15399769D01*
X10470491Y-15399769D02*
X10460968Y-15380722D01*
X10460968Y-15380722D02*
X10451444Y-15371198D01*
X10451444Y-15371198D02*
X10432396Y-15361674D01*
X10432396Y-15361674D02*
X10394301Y-15361674D01*
X10394301Y-15361674D02*
X10375253Y-15371198D01*
X10375253Y-15371198D02*
X10365730Y-15380722D01*
X10365730Y-15380722D02*
X10356206Y-15399769D01*
X10708587Y-15485484D02*
X10708587Y-15285484D01*
X10794301Y-15485484D02*
X10794301Y-15380722D01*
X10794301Y-15380722D02*
X10784777Y-15361674D01*
X10784777Y-15361674D02*
X10765730Y-15352150D01*
X10765730Y-15352150D02*
X10737158Y-15352150D01*
X10737158Y-15352150D02*
X10718111Y-15361674D01*
X10718111Y-15361674D02*
X10708587Y-15371198D01*
X10918111Y-15485484D02*
X10899063Y-15475960D01*
X10899063Y-15475960D02*
X10889539Y-15466436D01*
X10889539Y-15466436D02*
X10880015Y-15447388D01*
X10880015Y-15447388D02*
X10880015Y-15390246D01*
X10880015Y-15390246D02*
X10889539Y-15371198D01*
X10889539Y-15371198D02*
X10899063Y-15361674D01*
X10899063Y-15361674D02*
X10918111Y-15352150D01*
X10918111Y-15352150D02*
X10946682Y-15352150D01*
X10946682Y-15352150D02*
X10965730Y-15361674D01*
X10965730Y-15361674D02*
X10975253Y-15371198D01*
X10975253Y-15371198D02*
X10984777Y-15390246D01*
X10984777Y-15390246D02*
X10984777Y-15447388D01*
X10984777Y-15447388D02*
X10975253Y-15466436D01*
X10975253Y-15466436D02*
X10965730Y-15475960D01*
X10965730Y-15475960D02*
X10946682Y-15485484D01*
X10946682Y-15485484D02*
X10918111Y-15485484D01*
X11099063Y-15485484D02*
X11080015Y-15475960D01*
X11080015Y-15475960D02*
X11070492Y-15456912D01*
X11070492Y-15456912D02*
X11070492Y-15285484D01*
X11251444Y-15475960D02*
X11232396Y-15485484D01*
X11232396Y-15485484D02*
X11194301Y-15485484D01*
X11194301Y-15485484D02*
X11175253Y-15475960D01*
X11175253Y-15475960D02*
X11165730Y-15456912D01*
X11165730Y-15456912D02*
X11165730Y-15380722D01*
X11165730Y-15380722D02*
X11175253Y-15361674D01*
X11175253Y-15361674D02*
X11194301Y-15352150D01*
X11194301Y-15352150D02*
X11232396Y-15352150D01*
X11232396Y-15352150D02*
X11251444Y-15361674D01*
X11251444Y-15361674D02*
X11260968Y-15380722D01*
X11260968Y-15380722D02*
X11260968Y-15399769D01*
X11260968Y-15399769D02*
X11165730Y-15418817D01*
X11337158Y-15475960D02*
X11356206Y-15485484D01*
X11356206Y-15485484D02*
X11394301Y-15485484D01*
X11394301Y-15485484D02*
X11413349Y-15475960D01*
X11413349Y-15475960D02*
X11422872Y-15456912D01*
X11422872Y-15456912D02*
X11422872Y-15447388D01*
X11422872Y-15447388D02*
X11413349Y-15428341D01*
X11413349Y-15428341D02*
X11394301Y-15418817D01*
X11394301Y-15418817D02*
X11365730Y-15418817D01*
X11365730Y-15418817D02*
X11346682Y-15409293D01*
X11346682Y-15409293D02*
X11337158Y-15390246D01*
X11337158Y-15390246D02*
X11337158Y-15380722D01*
X11337158Y-15380722D02*
X11346682Y-15361674D01*
X11346682Y-15361674D02*
X11365730Y-15352150D01*
X11365730Y-15352150D02*
X11394301Y-15352150D01*
X11394301Y-15352150D02*
X11413349Y-15361674D01*
X11489539Y-15561674D02*
X11499063Y-15552150D01*
X11499063Y-15552150D02*
X11518111Y-15523579D01*
X11518111Y-15523579D02*
X11527634Y-15504531D01*
X11527634Y-15504531D02*
X11537158Y-15475960D01*
X11537158Y-15475960D02*
X11546682Y-15428341D01*
X11546682Y-15428341D02*
X11546682Y-15390246D01*
X11546682Y-15390246D02*
X11537158Y-15342627D01*
X11537158Y-15342627D02*
X11527634Y-15314055D01*
X11527634Y-15314055D02*
X11518111Y-15295008D01*
X11518111Y-15295008D02*
X11499063Y-15266436D01*
X11499063Y-15266436D02*
X11489539Y-15256912D01*
D11*
X6474000Y-15608000D02*
X6474000Y-15708000D01*
X6424000Y-15658000D02*
X6524000Y-15658000D01*
D10*
X6889539Y-15749484D02*
X6775253Y-15749484D01*
X6832396Y-15749484D02*
X6832396Y-15549484D01*
X6832396Y-15549484D02*
X6813348Y-15578055D01*
X6813348Y-15578055D02*
X6794301Y-15597103D01*
X6794301Y-15597103D02*
X6775253Y-15606627D01*
X6975253Y-15730436D02*
X6984777Y-15739960D01*
X6984777Y-15739960D02*
X6975253Y-15749484D01*
X6975253Y-15749484D02*
X6965729Y-15739960D01*
X6965729Y-15739960D02*
X6975253Y-15730436D01*
X6975253Y-15730436D02*
X6975253Y-15749484D01*
X7108586Y-15549484D02*
X7127634Y-15549484D01*
X7127634Y-15549484D02*
X7146682Y-15559008D01*
X7146682Y-15559008D02*
X7156205Y-15568531D01*
X7156205Y-15568531D02*
X7165729Y-15587579D01*
X7165729Y-15587579D02*
X7175253Y-15625674D01*
X7175253Y-15625674D02*
X7175253Y-15673293D01*
X7175253Y-15673293D02*
X7165729Y-15711388D01*
X7165729Y-15711388D02*
X7156205Y-15730436D01*
X7156205Y-15730436D02*
X7146682Y-15739960D01*
X7146682Y-15739960D02*
X7127634Y-15749484D01*
X7127634Y-15749484D02*
X7108586Y-15749484D01*
X7108586Y-15749484D02*
X7089539Y-15739960D01*
X7089539Y-15739960D02*
X7080015Y-15730436D01*
X7080015Y-15730436D02*
X7070491Y-15711388D01*
X7070491Y-15711388D02*
X7060967Y-15673293D01*
X7060967Y-15673293D02*
X7060967Y-15625674D01*
X7060967Y-15625674D02*
X7070491Y-15587579D01*
X7070491Y-15587579D02*
X7080015Y-15568531D01*
X7080015Y-15568531D02*
X7089539Y-15559008D01*
X7089539Y-15559008D02*
X7108586Y-15549484D01*
X7299062Y-15549484D02*
X7318110Y-15549484D01*
X7318110Y-15549484D02*
X7337158Y-15559008D01*
X7337158Y-15559008D02*
X7346682Y-15568531D01*
X7346682Y-15568531D02*
X7356205Y-15587579D01*
X7356205Y-15587579D02*
X7365729Y-15625674D01*
X7365729Y-15625674D02*
X7365729Y-15673293D01*
X7365729Y-15673293D02*
X7356205Y-15711388D01*
X7356205Y-15711388D02*
X7346682Y-15730436D01*
X7346682Y-15730436D02*
X7337158Y-15739960D01*
X7337158Y-15739960D02*
X7318110Y-15749484D01*
X7318110Y-15749484D02*
X7299062Y-15749484D01*
X7299062Y-15749484D02*
X7280015Y-15739960D01*
X7280015Y-15739960D02*
X7270491Y-15730436D01*
X7270491Y-15730436D02*
X7260967Y-15711388D01*
X7260967Y-15711388D02*
X7251443Y-15673293D01*
X7251443Y-15673293D02*
X7251443Y-15625674D01*
X7251443Y-15625674D02*
X7260967Y-15587579D01*
X7260967Y-15587579D02*
X7270491Y-15568531D01*
X7270491Y-15568531D02*
X7280015Y-15559008D01*
X7280015Y-15559008D02*
X7299062Y-15549484D01*
X7489539Y-15549484D02*
X7508586Y-15549484D01*
X7508586Y-15549484D02*
X7527634Y-15559008D01*
X7527634Y-15559008D02*
X7537158Y-15568531D01*
X7537158Y-15568531D02*
X7546682Y-15587579D01*
X7546682Y-15587579D02*
X7556205Y-15625674D01*
X7556205Y-15625674D02*
X7556205Y-15673293D01*
X7556205Y-15673293D02*
X7546682Y-15711388D01*
X7546682Y-15711388D02*
X7537158Y-15730436D01*
X7537158Y-15730436D02*
X7527634Y-15739960D01*
X7527634Y-15739960D02*
X7508586Y-15749484D01*
X7508586Y-15749484D02*
X7489539Y-15749484D01*
X7489539Y-15749484D02*
X7470491Y-15739960D01*
X7470491Y-15739960D02*
X7460967Y-15730436D01*
X7460967Y-15730436D02*
X7451443Y-15711388D01*
X7451443Y-15711388D02*
X7441920Y-15673293D01*
X7441920Y-15673293D02*
X7441920Y-15625674D01*
X7441920Y-15625674D02*
X7451443Y-15587579D01*
X7451443Y-15587579D02*
X7460967Y-15568531D01*
X7460967Y-15568531D02*
X7470491Y-15559008D01*
X7470491Y-15559008D02*
X7489539Y-15549484D01*
X7641920Y-15749484D02*
X7641920Y-15616150D01*
X7641920Y-15635198D02*
X7651443Y-15625674D01*
X7651443Y-15625674D02*
X7670491Y-15616150D01*
X7670491Y-15616150D02*
X7699063Y-15616150D01*
X7699063Y-15616150D02*
X7718110Y-15625674D01*
X7718110Y-15625674D02*
X7727634Y-15644722D01*
X7727634Y-15644722D02*
X7727634Y-15749484D01*
X7727634Y-15644722D02*
X7737158Y-15625674D01*
X7737158Y-15625674D02*
X7756205Y-15616150D01*
X7756205Y-15616150D02*
X7784777Y-15616150D01*
X7784777Y-15616150D02*
X7803824Y-15625674D01*
X7803824Y-15625674D02*
X7813348Y-15644722D01*
X7813348Y-15644722D02*
X7813348Y-15749484D01*
X7908586Y-15749484D02*
X7908586Y-15616150D01*
X7908586Y-15635198D02*
X7918110Y-15625674D01*
X7918110Y-15625674D02*
X7937158Y-15616150D01*
X7937158Y-15616150D02*
X7965729Y-15616150D01*
X7965729Y-15616150D02*
X7984777Y-15625674D01*
X7984777Y-15625674D02*
X7994301Y-15644722D01*
X7994301Y-15644722D02*
X7994301Y-15749484D01*
X7994301Y-15644722D02*
X8003824Y-15625674D01*
X8003824Y-15625674D02*
X8022872Y-15616150D01*
X8022872Y-15616150D02*
X8051443Y-15616150D01*
X8051443Y-15616150D02*
X8070491Y-15625674D01*
X8070491Y-15625674D02*
X8080015Y-15644722D01*
X8080015Y-15644722D02*
X8080015Y-15749484D01*
X8470491Y-15539960D02*
X8299063Y-15797103D01*
X8727634Y-15549484D02*
X8746682Y-15549484D01*
X8746682Y-15549484D02*
X8765729Y-15559008D01*
X8765729Y-15559008D02*
X8775253Y-15568531D01*
X8775253Y-15568531D02*
X8784777Y-15587579D01*
X8784777Y-15587579D02*
X8794301Y-15625674D01*
X8794301Y-15625674D02*
X8794301Y-15673293D01*
X8794301Y-15673293D02*
X8784777Y-15711388D01*
X8784777Y-15711388D02*
X8775253Y-15730436D01*
X8775253Y-15730436D02*
X8765729Y-15739960D01*
X8765729Y-15739960D02*
X8746682Y-15749484D01*
X8746682Y-15749484D02*
X8727634Y-15749484D01*
X8727634Y-15749484D02*
X8708587Y-15739960D01*
X8708587Y-15739960D02*
X8699063Y-15730436D01*
X8699063Y-15730436D02*
X8689539Y-15711388D01*
X8689539Y-15711388D02*
X8680015Y-15673293D01*
X8680015Y-15673293D02*
X8680015Y-15625674D01*
X8680015Y-15625674D02*
X8689539Y-15587579D01*
X8689539Y-15587579D02*
X8699063Y-15568531D01*
X8699063Y-15568531D02*
X8708587Y-15559008D01*
X8708587Y-15559008D02*
X8727634Y-15549484D01*
X8880015Y-15730436D02*
X8889539Y-15739960D01*
X8889539Y-15739960D02*
X8880015Y-15749484D01*
X8880015Y-15749484D02*
X8870491Y-15739960D01*
X8870491Y-15739960D02*
X8880015Y-15730436D01*
X8880015Y-15730436D02*
X8880015Y-15749484D01*
X9013348Y-15549484D02*
X9032396Y-15549484D01*
X9032396Y-15549484D02*
X9051444Y-15559008D01*
X9051444Y-15559008D02*
X9060968Y-15568531D01*
X9060968Y-15568531D02*
X9070491Y-15587579D01*
X9070491Y-15587579D02*
X9080015Y-15625674D01*
X9080015Y-15625674D02*
X9080015Y-15673293D01*
X9080015Y-15673293D02*
X9070491Y-15711388D01*
X9070491Y-15711388D02*
X9060968Y-15730436D01*
X9060968Y-15730436D02*
X9051444Y-15739960D01*
X9051444Y-15739960D02*
X9032396Y-15749484D01*
X9032396Y-15749484D02*
X9013348Y-15749484D01*
X9013348Y-15749484D02*
X8994301Y-15739960D01*
X8994301Y-15739960D02*
X8984777Y-15730436D01*
X8984777Y-15730436D02*
X8975253Y-15711388D01*
X8975253Y-15711388D02*
X8965729Y-15673293D01*
X8965729Y-15673293D02*
X8965729Y-15625674D01*
X8965729Y-15625674D02*
X8975253Y-15587579D01*
X8975253Y-15587579D02*
X8984777Y-15568531D01*
X8984777Y-15568531D02*
X8994301Y-15559008D01*
X8994301Y-15559008D02*
X9013348Y-15549484D01*
X9146682Y-15549484D02*
X9270491Y-15549484D01*
X9270491Y-15549484D02*
X9203825Y-15625674D01*
X9203825Y-15625674D02*
X9232396Y-15625674D01*
X9232396Y-15625674D02*
X9251444Y-15635198D01*
X9251444Y-15635198D02*
X9260968Y-15644722D01*
X9260968Y-15644722D02*
X9270491Y-15663769D01*
X9270491Y-15663769D02*
X9270491Y-15711388D01*
X9270491Y-15711388D02*
X9260968Y-15730436D01*
X9260968Y-15730436D02*
X9251444Y-15739960D01*
X9251444Y-15739960D02*
X9232396Y-15749484D01*
X9232396Y-15749484D02*
X9175253Y-15749484D01*
X9175253Y-15749484D02*
X9156206Y-15739960D01*
X9156206Y-15739960D02*
X9146682Y-15730436D01*
X9365729Y-15749484D02*
X9403825Y-15749484D01*
X9403825Y-15749484D02*
X9422872Y-15739960D01*
X9422872Y-15739960D02*
X9432396Y-15730436D01*
X9432396Y-15730436D02*
X9451444Y-15701865D01*
X9451444Y-15701865D02*
X9460968Y-15663769D01*
X9460968Y-15663769D02*
X9460968Y-15587579D01*
X9460968Y-15587579D02*
X9451444Y-15568531D01*
X9451444Y-15568531D02*
X9441920Y-15559008D01*
X9441920Y-15559008D02*
X9422872Y-15549484D01*
X9422872Y-15549484D02*
X9384777Y-15549484D01*
X9384777Y-15549484D02*
X9365729Y-15559008D01*
X9365729Y-15559008D02*
X9356206Y-15568531D01*
X9356206Y-15568531D02*
X9346682Y-15587579D01*
X9346682Y-15587579D02*
X9346682Y-15635198D01*
X9346682Y-15635198D02*
X9356206Y-15654246D01*
X9356206Y-15654246D02*
X9365729Y-15663769D01*
X9365729Y-15663769D02*
X9384777Y-15673293D01*
X9384777Y-15673293D02*
X9422872Y-15673293D01*
X9422872Y-15673293D02*
X9441920Y-15663769D01*
X9441920Y-15663769D02*
X9451444Y-15654246D01*
X9451444Y-15654246D02*
X9460968Y-15635198D01*
X9632396Y-15616150D02*
X9632396Y-15749484D01*
X9584777Y-15539960D02*
X9537158Y-15682817D01*
X9537158Y-15682817D02*
X9660968Y-15682817D01*
X9727634Y-15549484D02*
X9727634Y-15587579D01*
X9803825Y-15549484D02*
X9803825Y-15587579D01*
X10099063Y-15825674D02*
X10089539Y-15816150D01*
X10089539Y-15816150D02*
X10070491Y-15787579D01*
X10070491Y-15787579D02*
X10060968Y-15768531D01*
X10060968Y-15768531D02*
X10051444Y-15739960D01*
X10051444Y-15739960D02*
X10041920Y-15692341D01*
X10041920Y-15692341D02*
X10041920Y-15654246D01*
X10041920Y-15654246D02*
X10051444Y-15606627D01*
X10051444Y-15606627D02*
X10060968Y-15578055D01*
X10060968Y-15578055D02*
X10070491Y-15559008D01*
X10070491Y-15559008D02*
X10089539Y-15530436D01*
X10089539Y-15530436D02*
X10099063Y-15520912D01*
X10270491Y-15549484D02*
X10175253Y-15549484D01*
X10175253Y-15549484D02*
X10165730Y-15644722D01*
X10165730Y-15644722D02*
X10175253Y-15635198D01*
X10175253Y-15635198D02*
X10194301Y-15625674D01*
X10194301Y-15625674D02*
X10241920Y-15625674D01*
X10241920Y-15625674D02*
X10260968Y-15635198D01*
X10260968Y-15635198D02*
X10270491Y-15644722D01*
X10270491Y-15644722D02*
X10280015Y-15663769D01*
X10280015Y-15663769D02*
X10280015Y-15711388D01*
X10280015Y-15711388D02*
X10270491Y-15730436D01*
X10270491Y-15730436D02*
X10260968Y-15739960D01*
X10260968Y-15739960D02*
X10241920Y-15749484D01*
X10241920Y-15749484D02*
X10194301Y-15749484D01*
X10194301Y-15749484D02*
X10175253Y-15739960D01*
X10175253Y-15739960D02*
X10165730Y-15730436D01*
X10451444Y-15616150D02*
X10451444Y-15749484D01*
X10403825Y-15539960D02*
X10356206Y-15682817D01*
X10356206Y-15682817D02*
X10480015Y-15682817D01*
X10708587Y-15749484D02*
X10708587Y-15549484D01*
X10794301Y-15749484D02*
X10794301Y-15644722D01*
X10794301Y-15644722D02*
X10784777Y-15625674D01*
X10784777Y-15625674D02*
X10765730Y-15616150D01*
X10765730Y-15616150D02*
X10737158Y-15616150D01*
X10737158Y-15616150D02*
X10718111Y-15625674D01*
X10718111Y-15625674D02*
X10708587Y-15635198D01*
X10918111Y-15749484D02*
X10899063Y-15739960D01*
X10899063Y-15739960D02*
X10889539Y-15730436D01*
X10889539Y-15730436D02*
X10880015Y-15711388D01*
X10880015Y-15711388D02*
X10880015Y-15654246D01*
X10880015Y-15654246D02*
X10889539Y-15635198D01*
X10889539Y-15635198D02*
X10899063Y-15625674D01*
X10899063Y-15625674D02*
X10918111Y-15616150D01*
X10918111Y-15616150D02*
X10946682Y-15616150D01*
X10946682Y-15616150D02*
X10965730Y-15625674D01*
X10965730Y-15625674D02*
X10975253Y-15635198D01*
X10975253Y-15635198D02*
X10984777Y-15654246D01*
X10984777Y-15654246D02*
X10984777Y-15711388D01*
X10984777Y-15711388D02*
X10975253Y-15730436D01*
X10975253Y-15730436D02*
X10965730Y-15739960D01*
X10965730Y-15739960D02*
X10946682Y-15749484D01*
X10946682Y-15749484D02*
X10918111Y-15749484D01*
X11099063Y-15749484D02*
X11080015Y-15739960D01*
X11080015Y-15739960D02*
X11070492Y-15720912D01*
X11070492Y-15720912D02*
X11070492Y-15549484D01*
X11251444Y-15739960D02*
X11232396Y-15749484D01*
X11232396Y-15749484D02*
X11194301Y-15749484D01*
X11194301Y-15749484D02*
X11175253Y-15739960D01*
X11175253Y-15739960D02*
X11165730Y-15720912D01*
X11165730Y-15720912D02*
X11165730Y-15644722D01*
X11165730Y-15644722D02*
X11175253Y-15625674D01*
X11175253Y-15625674D02*
X11194301Y-15616150D01*
X11194301Y-15616150D02*
X11232396Y-15616150D01*
X11232396Y-15616150D02*
X11251444Y-15625674D01*
X11251444Y-15625674D02*
X11260968Y-15644722D01*
X11260968Y-15644722D02*
X11260968Y-15663769D01*
X11260968Y-15663769D02*
X11165730Y-15682817D01*
X11337158Y-15739960D02*
X11356206Y-15749484D01*
X11356206Y-15749484D02*
X11394301Y-15749484D01*
X11394301Y-15749484D02*
X11413349Y-15739960D01*
X11413349Y-15739960D02*
X11422872Y-15720912D01*
X11422872Y-15720912D02*
X11422872Y-15711388D01*
X11422872Y-15711388D02*
X11413349Y-15692341D01*
X11413349Y-15692341D02*
X11394301Y-15682817D01*
X11394301Y-15682817D02*
X11365730Y-15682817D01*
X11365730Y-15682817D02*
X11346682Y-15673293D01*
X11346682Y-15673293D02*
X11337158Y-15654246D01*
X11337158Y-15654246D02*
X11337158Y-15644722D01*
X11337158Y-15644722D02*
X11346682Y-15625674D01*
X11346682Y-15625674D02*
X11365730Y-15616150D01*
X11365730Y-15616150D02*
X11394301Y-15616150D01*
X11394301Y-15616150D02*
X11413349Y-15625674D01*
X11489539Y-15825674D02*
X11499063Y-15816150D01*
X11499063Y-15816150D02*
X11518111Y-15787579D01*
X11518111Y-15787579D02*
X11527634Y-15768531D01*
X11527634Y-15768531D02*
X11537158Y-15739960D01*
X11537158Y-15739960D02*
X11546682Y-15692341D01*
X11546682Y-15692341D02*
X11546682Y-15654246D01*
X11546682Y-15654246D02*
X11537158Y-15606627D01*
X11537158Y-15606627D02*
X11527634Y-15578055D01*
X11527634Y-15578055D02*
X11518111Y-15559008D01*
X11518111Y-15559008D02*
X11499063Y-15530436D01*
X11499063Y-15530436D02*
X11489539Y-15520912D01*
D12*
X6506427Y-15964427D02*
X6506427Y-15879573D01*
X6421573Y-15879573D01*
X6421573Y-15964427D01*
X6506427Y-15964427D01*
D10*
X6889539Y-16013484D02*
X6775253Y-16013484D01*
X6832396Y-16013484D02*
X6832396Y-15813484D01*
X6832396Y-15813484D02*
X6813348Y-15842055D01*
X6813348Y-15842055D02*
X6794301Y-15861103D01*
X6794301Y-15861103D02*
X6775253Y-15870627D01*
X6975253Y-15994436D02*
X6984777Y-16003960D01*
X6984777Y-16003960D02*
X6975253Y-16013484D01*
X6975253Y-16013484D02*
X6965729Y-16003960D01*
X6965729Y-16003960D02*
X6975253Y-15994436D01*
X6975253Y-15994436D02*
X6975253Y-16013484D01*
X7060967Y-15832531D02*
X7070491Y-15823008D01*
X7070491Y-15823008D02*
X7089539Y-15813484D01*
X7089539Y-15813484D02*
X7137158Y-15813484D01*
X7137158Y-15813484D02*
X7156205Y-15823008D01*
X7156205Y-15823008D02*
X7165729Y-15832531D01*
X7165729Y-15832531D02*
X7175253Y-15851579D01*
X7175253Y-15851579D02*
X7175253Y-15870627D01*
X7175253Y-15870627D02*
X7165729Y-15899198D01*
X7165729Y-15899198D02*
X7051443Y-16013484D01*
X7051443Y-16013484D02*
X7175253Y-16013484D01*
X7299062Y-15813484D02*
X7318110Y-15813484D01*
X7318110Y-15813484D02*
X7337158Y-15823008D01*
X7337158Y-15823008D02*
X7346682Y-15832531D01*
X7346682Y-15832531D02*
X7356205Y-15851579D01*
X7356205Y-15851579D02*
X7365729Y-15889674D01*
X7365729Y-15889674D02*
X7365729Y-15937293D01*
X7365729Y-15937293D02*
X7356205Y-15975388D01*
X7356205Y-15975388D02*
X7346682Y-15994436D01*
X7346682Y-15994436D02*
X7337158Y-16003960D01*
X7337158Y-16003960D02*
X7318110Y-16013484D01*
X7318110Y-16013484D02*
X7299062Y-16013484D01*
X7299062Y-16013484D02*
X7280015Y-16003960D01*
X7280015Y-16003960D02*
X7270491Y-15994436D01*
X7270491Y-15994436D02*
X7260967Y-15975388D01*
X7260967Y-15975388D02*
X7251443Y-15937293D01*
X7251443Y-15937293D02*
X7251443Y-15889674D01*
X7251443Y-15889674D02*
X7260967Y-15851579D01*
X7260967Y-15851579D02*
X7270491Y-15832531D01*
X7270491Y-15832531D02*
X7280015Y-15823008D01*
X7280015Y-15823008D02*
X7299062Y-15813484D01*
X7489539Y-15813484D02*
X7508586Y-15813484D01*
X7508586Y-15813484D02*
X7527634Y-15823008D01*
X7527634Y-15823008D02*
X7537158Y-15832531D01*
X7537158Y-15832531D02*
X7546682Y-15851579D01*
X7546682Y-15851579D02*
X7556205Y-15889674D01*
X7556205Y-15889674D02*
X7556205Y-15937293D01*
X7556205Y-15937293D02*
X7546682Y-15975388D01*
X7546682Y-15975388D02*
X7537158Y-15994436D01*
X7537158Y-15994436D02*
X7527634Y-16003960D01*
X7527634Y-16003960D02*
X7508586Y-16013484D01*
X7508586Y-16013484D02*
X7489539Y-16013484D01*
X7489539Y-16013484D02*
X7470491Y-16003960D01*
X7470491Y-16003960D02*
X7460967Y-15994436D01*
X7460967Y-15994436D02*
X7451443Y-15975388D01*
X7451443Y-15975388D02*
X7441920Y-15937293D01*
X7441920Y-15937293D02*
X7441920Y-15889674D01*
X7441920Y-15889674D02*
X7451443Y-15851579D01*
X7451443Y-15851579D02*
X7460967Y-15832531D01*
X7460967Y-15832531D02*
X7470491Y-15823008D01*
X7470491Y-15823008D02*
X7489539Y-15813484D01*
X7641920Y-16013484D02*
X7641920Y-15880150D01*
X7641920Y-15899198D02*
X7651443Y-15889674D01*
X7651443Y-15889674D02*
X7670491Y-15880150D01*
X7670491Y-15880150D02*
X7699063Y-15880150D01*
X7699063Y-15880150D02*
X7718110Y-15889674D01*
X7718110Y-15889674D02*
X7727634Y-15908722D01*
X7727634Y-15908722D02*
X7727634Y-16013484D01*
X7727634Y-15908722D02*
X7737158Y-15889674D01*
X7737158Y-15889674D02*
X7756205Y-15880150D01*
X7756205Y-15880150D02*
X7784777Y-15880150D01*
X7784777Y-15880150D02*
X7803824Y-15889674D01*
X7803824Y-15889674D02*
X7813348Y-15908722D01*
X7813348Y-15908722D02*
X7813348Y-16013484D01*
X7908586Y-16013484D02*
X7908586Y-15880150D01*
X7908586Y-15899198D02*
X7918110Y-15889674D01*
X7918110Y-15889674D02*
X7937158Y-15880150D01*
X7937158Y-15880150D02*
X7965729Y-15880150D01*
X7965729Y-15880150D02*
X7984777Y-15889674D01*
X7984777Y-15889674D02*
X7994301Y-15908722D01*
X7994301Y-15908722D02*
X7994301Y-16013484D01*
X7994301Y-15908722D02*
X8003824Y-15889674D01*
X8003824Y-15889674D02*
X8022872Y-15880150D01*
X8022872Y-15880150D02*
X8051443Y-15880150D01*
X8051443Y-15880150D02*
X8070491Y-15889674D01*
X8070491Y-15889674D02*
X8080015Y-15908722D01*
X8080015Y-15908722D02*
X8080015Y-16013484D01*
X8470491Y-15803960D02*
X8299063Y-16061103D01*
X8727634Y-15813484D02*
X8746682Y-15813484D01*
X8746682Y-15813484D02*
X8765729Y-15823008D01*
X8765729Y-15823008D02*
X8775253Y-15832531D01*
X8775253Y-15832531D02*
X8784777Y-15851579D01*
X8784777Y-15851579D02*
X8794301Y-15889674D01*
X8794301Y-15889674D02*
X8794301Y-15937293D01*
X8794301Y-15937293D02*
X8784777Y-15975388D01*
X8784777Y-15975388D02*
X8775253Y-15994436D01*
X8775253Y-15994436D02*
X8765729Y-16003960D01*
X8765729Y-16003960D02*
X8746682Y-16013484D01*
X8746682Y-16013484D02*
X8727634Y-16013484D01*
X8727634Y-16013484D02*
X8708587Y-16003960D01*
X8708587Y-16003960D02*
X8699063Y-15994436D01*
X8699063Y-15994436D02*
X8689539Y-15975388D01*
X8689539Y-15975388D02*
X8680015Y-15937293D01*
X8680015Y-15937293D02*
X8680015Y-15889674D01*
X8680015Y-15889674D02*
X8689539Y-15851579D01*
X8689539Y-15851579D02*
X8699063Y-15832531D01*
X8699063Y-15832531D02*
X8708587Y-15823008D01*
X8708587Y-15823008D02*
X8727634Y-15813484D01*
X8880015Y-15994436D02*
X8889539Y-16003960D01*
X8889539Y-16003960D02*
X8880015Y-16013484D01*
X8880015Y-16013484D02*
X8870491Y-16003960D01*
X8870491Y-16003960D02*
X8880015Y-15994436D01*
X8880015Y-15994436D02*
X8880015Y-16013484D01*
X9013348Y-15813484D02*
X9032396Y-15813484D01*
X9032396Y-15813484D02*
X9051444Y-15823008D01*
X9051444Y-15823008D02*
X9060968Y-15832531D01*
X9060968Y-15832531D02*
X9070491Y-15851579D01*
X9070491Y-15851579D02*
X9080015Y-15889674D01*
X9080015Y-15889674D02*
X9080015Y-15937293D01*
X9080015Y-15937293D02*
X9070491Y-15975388D01*
X9070491Y-15975388D02*
X9060968Y-15994436D01*
X9060968Y-15994436D02*
X9051444Y-16003960D01*
X9051444Y-16003960D02*
X9032396Y-16013484D01*
X9032396Y-16013484D02*
X9013348Y-16013484D01*
X9013348Y-16013484D02*
X8994301Y-16003960D01*
X8994301Y-16003960D02*
X8984777Y-15994436D01*
X8984777Y-15994436D02*
X8975253Y-15975388D01*
X8975253Y-15975388D02*
X8965729Y-15937293D01*
X8965729Y-15937293D02*
X8965729Y-15889674D01*
X8965729Y-15889674D02*
X8975253Y-15851579D01*
X8975253Y-15851579D02*
X8984777Y-15832531D01*
X8984777Y-15832531D02*
X8994301Y-15823008D01*
X8994301Y-15823008D02*
X9013348Y-15813484D01*
X9251444Y-15880150D02*
X9251444Y-16013484D01*
X9203825Y-15803960D02*
X9156206Y-15946817D01*
X9156206Y-15946817D02*
X9280015Y-15946817D01*
X9337158Y-15813484D02*
X9470491Y-15813484D01*
X9470491Y-15813484D02*
X9384777Y-16013484D01*
X9537158Y-15832531D02*
X9546682Y-15823008D01*
X9546682Y-15823008D02*
X9565729Y-15813484D01*
X9565729Y-15813484D02*
X9613349Y-15813484D01*
X9613349Y-15813484D02*
X9632396Y-15823008D01*
X9632396Y-15823008D02*
X9641920Y-15832531D01*
X9641920Y-15832531D02*
X9651444Y-15851579D01*
X9651444Y-15851579D02*
X9651444Y-15870627D01*
X9651444Y-15870627D02*
X9641920Y-15899198D01*
X9641920Y-15899198D02*
X9527634Y-16013484D01*
X9527634Y-16013484D02*
X9651444Y-16013484D01*
X9727634Y-15813484D02*
X9727634Y-15851579D01*
X9803825Y-15813484D02*
X9803825Y-15851579D01*
X10099063Y-16089674D02*
X10089539Y-16080150D01*
X10089539Y-16080150D02*
X10070491Y-16051579D01*
X10070491Y-16051579D02*
X10060968Y-16032531D01*
X10060968Y-16032531D02*
X10051444Y-16003960D01*
X10051444Y-16003960D02*
X10041920Y-15956341D01*
X10041920Y-15956341D02*
X10041920Y-15918246D01*
X10041920Y-15918246D02*
X10051444Y-15870627D01*
X10051444Y-15870627D02*
X10060968Y-15842055D01*
X10060968Y-15842055D02*
X10070491Y-15823008D01*
X10070491Y-15823008D02*
X10089539Y-15794436D01*
X10089539Y-15794436D02*
X10099063Y-15784912D01*
X10280015Y-16013484D02*
X10165730Y-16013484D01*
X10222872Y-16013484D02*
X10222872Y-15813484D01*
X10222872Y-15813484D02*
X10203825Y-15842055D01*
X10203825Y-15842055D02*
X10184777Y-15861103D01*
X10184777Y-15861103D02*
X10165730Y-15870627D01*
X10460968Y-15813484D02*
X10365730Y-15813484D01*
X10365730Y-15813484D02*
X10356206Y-15908722D01*
X10356206Y-15908722D02*
X10365730Y-15899198D01*
X10365730Y-15899198D02*
X10384777Y-15889674D01*
X10384777Y-15889674D02*
X10432396Y-15889674D01*
X10432396Y-15889674D02*
X10451444Y-15899198D01*
X10451444Y-15899198D02*
X10460968Y-15908722D01*
X10460968Y-15908722D02*
X10470491Y-15927769D01*
X10470491Y-15927769D02*
X10470491Y-15975388D01*
X10470491Y-15975388D02*
X10460968Y-15994436D01*
X10460968Y-15994436D02*
X10451444Y-16003960D01*
X10451444Y-16003960D02*
X10432396Y-16013484D01*
X10432396Y-16013484D02*
X10384777Y-16013484D01*
X10384777Y-16013484D02*
X10365730Y-16003960D01*
X10365730Y-16003960D02*
X10356206Y-15994436D01*
X10708587Y-16013484D02*
X10708587Y-15813484D01*
X10794301Y-16013484D02*
X10794301Y-15908722D01*
X10794301Y-15908722D02*
X10784777Y-15889674D01*
X10784777Y-15889674D02*
X10765730Y-15880150D01*
X10765730Y-15880150D02*
X10737158Y-15880150D01*
X10737158Y-15880150D02*
X10718111Y-15889674D01*
X10718111Y-15889674D02*
X10708587Y-15899198D01*
X10918111Y-16013484D02*
X10899063Y-16003960D01*
X10899063Y-16003960D02*
X10889539Y-15994436D01*
X10889539Y-15994436D02*
X10880015Y-15975388D01*
X10880015Y-15975388D02*
X10880015Y-15918246D01*
X10880015Y-15918246D02*
X10889539Y-15899198D01*
X10889539Y-15899198D02*
X10899063Y-15889674D01*
X10899063Y-15889674D02*
X10918111Y-15880150D01*
X10918111Y-15880150D02*
X10946682Y-15880150D01*
X10946682Y-15880150D02*
X10965730Y-15889674D01*
X10965730Y-15889674D02*
X10975253Y-15899198D01*
X10975253Y-15899198D02*
X10984777Y-15918246D01*
X10984777Y-15918246D02*
X10984777Y-15975388D01*
X10984777Y-15975388D02*
X10975253Y-15994436D01*
X10975253Y-15994436D02*
X10965730Y-16003960D01*
X10965730Y-16003960D02*
X10946682Y-16013484D01*
X10946682Y-16013484D02*
X10918111Y-16013484D01*
X11099063Y-16013484D02*
X11080015Y-16003960D01*
X11080015Y-16003960D02*
X11070492Y-15984912D01*
X11070492Y-15984912D02*
X11070492Y-15813484D01*
X11251444Y-16003960D02*
X11232396Y-16013484D01*
X11232396Y-16013484D02*
X11194301Y-16013484D01*
X11194301Y-16013484D02*
X11175253Y-16003960D01*
X11175253Y-16003960D02*
X11165730Y-15984912D01*
X11165730Y-15984912D02*
X11165730Y-15908722D01*
X11165730Y-15908722D02*
X11175253Y-15889674D01*
X11175253Y-15889674D02*
X11194301Y-15880150D01*
X11194301Y-15880150D02*
X11232396Y-15880150D01*
X11232396Y-15880150D02*
X11251444Y-15889674D01*
X11251444Y-15889674D02*
X11260968Y-15908722D01*
X11260968Y-15908722D02*
X11260968Y-15927769D01*
X11260968Y-15927769D02*
X11165730Y-15946817D01*
X11337158Y-16003960D02*
X11356206Y-16013484D01*
X11356206Y-16013484D02*
X11394301Y-16013484D01*
X11394301Y-16013484D02*
X11413349Y-16003960D01*
X11413349Y-16003960D02*
X11422872Y-15984912D01*
X11422872Y-15984912D02*
X11422872Y-15975388D01*
X11422872Y-15975388D02*
X11413349Y-15956341D01*
X11413349Y-15956341D02*
X11394301Y-15946817D01*
X11394301Y-15946817D02*
X11365730Y-15946817D01*
X11365730Y-15946817D02*
X11346682Y-15937293D01*
X11346682Y-15937293D02*
X11337158Y-15918246D01*
X11337158Y-15918246D02*
X11337158Y-15908722D01*
X11337158Y-15908722D02*
X11346682Y-15889674D01*
X11346682Y-15889674D02*
X11365730Y-15880150D01*
X11365730Y-15880150D02*
X11394301Y-15880150D01*
X11394301Y-15880150D02*
X11413349Y-15889674D01*
X11489539Y-16089674D02*
X11499063Y-16080150D01*
X11499063Y-16080150D02*
X11518111Y-16051579D01*
X11518111Y-16051579D02*
X11527634Y-16032531D01*
X11527634Y-16032531D02*
X11537158Y-16003960D01*
X11537158Y-16003960D02*
X11546682Y-15956341D01*
X11546682Y-15956341D02*
X11546682Y-15918246D01*
X11546682Y-15918246D02*
X11537158Y-15870627D01*
X11537158Y-15870627D02*
X11527634Y-15842055D01*
X11527634Y-15842055D02*
X11518111Y-15823008D01*
X11518111Y-15823008D02*
X11499063Y-15794436D01*
X11499063Y-15794436D02*
X11489539Y-15784912D01*
D13*
X6449000Y-16261000D02*
X6524000Y-16186000D01*
X6449000Y-16111000D01*
X6374000Y-16186000D01*
X6449000Y-16261000D01*
D10*
X6889539Y-16277484D02*
X6775253Y-16277484D01*
X6832396Y-16277484D02*
X6832396Y-16077484D01*
X6832396Y-16077484D02*
X6813348Y-16106055D01*
X6813348Y-16106055D02*
X6794301Y-16125103D01*
X6794301Y-16125103D02*
X6775253Y-16134627D01*
X6975253Y-16258436D02*
X6984777Y-16267960D01*
X6984777Y-16267960D02*
X6975253Y-16277484D01*
X6975253Y-16277484D02*
X6965729Y-16267960D01*
X6965729Y-16267960D02*
X6975253Y-16258436D01*
X6975253Y-16258436D02*
X6975253Y-16277484D01*
X7165729Y-16077484D02*
X7070491Y-16077484D01*
X7070491Y-16077484D02*
X7060967Y-16172722D01*
X7060967Y-16172722D02*
X7070491Y-16163198D01*
X7070491Y-16163198D02*
X7089539Y-16153674D01*
X7089539Y-16153674D02*
X7137158Y-16153674D01*
X7137158Y-16153674D02*
X7156205Y-16163198D01*
X7156205Y-16163198D02*
X7165729Y-16172722D01*
X7165729Y-16172722D02*
X7175253Y-16191769D01*
X7175253Y-16191769D02*
X7175253Y-16239388D01*
X7175253Y-16239388D02*
X7165729Y-16258436D01*
X7165729Y-16258436D02*
X7156205Y-16267960D01*
X7156205Y-16267960D02*
X7137158Y-16277484D01*
X7137158Y-16277484D02*
X7089539Y-16277484D01*
X7089539Y-16277484D02*
X7070491Y-16267960D01*
X7070491Y-16267960D02*
X7060967Y-16258436D01*
X7299062Y-16077484D02*
X7318110Y-16077484D01*
X7318110Y-16077484D02*
X7337158Y-16087008D01*
X7337158Y-16087008D02*
X7346682Y-16096531D01*
X7346682Y-16096531D02*
X7356205Y-16115579D01*
X7356205Y-16115579D02*
X7365729Y-16153674D01*
X7365729Y-16153674D02*
X7365729Y-16201293D01*
X7365729Y-16201293D02*
X7356205Y-16239388D01*
X7356205Y-16239388D02*
X7346682Y-16258436D01*
X7346682Y-16258436D02*
X7337158Y-16267960D01*
X7337158Y-16267960D02*
X7318110Y-16277484D01*
X7318110Y-16277484D02*
X7299062Y-16277484D01*
X7299062Y-16277484D02*
X7280015Y-16267960D01*
X7280015Y-16267960D02*
X7270491Y-16258436D01*
X7270491Y-16258436D02*
X7260967Y-16239388D01*
X7260967Y-16239388D02*
X7251443Y-16201293D01*
X7251443Y-16201293D02*
X7251443Y-16153674D01*
X7251443Y-16153674D02*
X7260967Y-16115579D01*
X7260967Y-16115579D02*
X7270491Y-16096531D01*
X7270491Y-16096531D02*
X7280015Y-16087008D01*
X7280015Y-16087008D02*
X7299062Y-16077484D01*
X7489539Y-16077484D02*
X7508586Y-16077484D01*
X7508586Y-16077484D02*
X7527634Y-16087008D01*
X7527634Y-16087008D02*
X7537158Y-16096531D01*
X7537158Y-16096531D02*
X7546682Y-16115579D01*
X7546682Y-16115579D02*
X7556205Y-16153674D01*
X7556205Y-16153674D02*
X7556205Y-16201293D01*
X7556205Y-16201293D02*
X7546682Y-16239388D01*
X7546682Y-16239388D02*
X7537158Y-16258436D01*
X7537158Y-16258436D02*
X7527634Y-16267960D01*
X7527634Y-16267960D02*
X7508586Y-16277484D01*
X7508586Y-16277484D02*
X7489539Y-16277484D01*
X7489539Y-16277484D02*
X7470491Y-16267960D01*
X7470491Y-16267960D02*
X7460967Y-16258436D01*
X7460967Y-16258436D02*
X7451443Y-16239388D01*
X7451443Y-16239388D02*
X7441920Y-16201293D01*
X7441920Y-16201293D02*
X7441920Y-16153674D01*
X7441920Y-16153674D02*
X7451443Y-16115579D01*
X7451443Y-16115579D02*
X7460967Y-16096531D01*
X7460967Y-16096531D02*
X7470491Y-16087008D01*
X7470491Y-16087008D02*
X7489539Y-16077484D01*
X7641920Y-16277484D02*
X7641920Y-16144150D01*
X7641920Y-16163198D02*
X7651443Y-16153674D01*
X7651443Y-16153674D02*
X7670491Y-16144150D01*
X7670491Y-16144150D02*
X7699063Y-16144150D01*
X7699063Y-16144150D02*
X7718110Y-16153674D01*
X7718110Y-16153674D02*
X7727634Y-16172722D01*
X7727634Y-16172722D02*
X7727634Y-16277484D01*
X7727634Y-16172722D02*
X7737158Y-16153674D01*
X7737158Y-16153674D02*
X7756205Y-16144150D01*
X7756205Y-16144150D02*
X7784777Y-16144150D01*
X7784777Y-16144150D02*
X7803824Y-16153674D01*
X7803824Y-16153674D02*
X7813348Y-16172722D01*
X7813348Y-16172722D02*
X7813348Y-16277484D01*
X7908586Y-16277484D02*
X7908586Y-16144150D01*
X7908586Y-16163198D02*
X7918110Y-16153674D01*
X7918110Y-16153674D02*
X7937158Y-16144150D01*
X7937158Y-16144150D02*
X7965729Y-16144150D01*
X7965729Y-16144150D02*
X7984777Y-16153674D01*
X7984777Y-16153674D02*
X7994301Y-16172722D01*
X7994301Y-16172722D02*
X7994301Y-16277484D01*
X7994301Y-16172722D02*
X8003824Y-16153674D01*
X8003824Y-16153674D02*
X8022872Y-16144150D01*
X8022872Y-16144150D02*
X8051443Y-16144150D01*
X8051443Y-16144150D02*
X8070491Y-16153674D01*
X8070491Y-16153674D02*
X8080015Y-16172722D01*
X8080015Y-16172722D02*
X8080015Y-16277484D01*
X8470491Y-16067960D02*
X8299063Y-16325103D01*
X8727634Y-16077484D02*
X8746682Y-16077484D01*
X8746682Y-16077484D02*
X8765729Y-16087008D01*
X8765729Y-16087008D02*
X8775253Y-16096531D01*
X8775253Y-16096531D02*
X8784777Y-16115579D01*
X8784777Y-16115579D02*
X8794301Y-16153674D01*
X8794301Y-16153674D02*
X8794301Y-16201293D01*
X8794301Y-16201293D02*
X8784777Y-16239388D01*
X8784777Y-16239388D02*
X8775253Y-16258436D01*
X8775253Y-16258436D02*
X8765729Y-16267960D01*
X8765729Y-16267960D02*
X8746682Y-16277484D01*
X8746682Y-16277484D02*
X8727634Y-16277484D01*
X8727634Y-16277484D02*
X8708587Y-16267960D01*
X8708587Y-16267960D02*
X8699063Y-16258436D01*
X8699063Y-16258436D02*
X8689539Y-16239388D01*
X8689539Y-16239388D02*
X8680015Y-16201293D01*
X8680015Y-16201293D02*
X8680015Y-16153674D01*
X8680015Y-16153674D02*
X8689539Y-16115579D01*
X8689539Y-16115579D02*
X8699063Y-16096531D01*
X8699063Y-16096531D02*
X8708587Y-16087008D01*
X8708587Y-16087008D02*
X8727634Y-16077484D01*
X8880015Y-16258436D02*
X8889539Y-16267960D01*
X8889539Y-16267960D02*
X8880015Y-16277484D01*
X8880015Y-16277484D02*
X8870491Y-16267960D01*
X8870491Y-16267960D02*
X8880015Y-16258436D01*
X8880015Y-16258436D02*
X8880015Y-16277484D01*
X9013348Y-16077484D02*
X9032396Y-16077484D01*
X9032396Y-16077484D02*
X9051444Y-16087008D01*
X9051444Y-16087008D02*
X9060968Y-16096531D01*
X9060968Y-16096531D02*
X9070491Y-16115579D01*
X9070491Y-16115579D02*
X9080015Y-16153674D01*
X9080015Y-16153674D02*
X9080015Y-16201293D01*
X9080015Y-16201293D02*
X9070491Y-16239388D01*
X9070491Y-16239388D02*
X9060968Y-16258436D01*
X9060968Y-16258436D02*
X9051444Y-16267960D01*
X9051444Y-16267960D02*
X9032396Y-16277484D01*
X9032396Y-16277484D02*
X9013348Y-16277484D01*
X9013348Y-16277484D02*
X8994301Y-16267960D01*
X8994301Y-16267960D02*
X8984777Y-16258436D01*
X8984777Y-16258436D02*
X8975253Y-16239388D01*
X8975253Y-16239388D02*
X8965729Y-16201293D01*
X8965729Y-16201293D02*
X8965729Y-16153674D01*
X8965729Y-16153674D02*
X8975253Y-16115579D01*
X8975253Y-16115579D02*
X8984777Y-16096531D01*
X8984777Y-16096531D02*
X8994301Y-16087008D01*
X8994301Y-16087008D02*
X9013348Y-16077484D01*
X9260968Y-16077484D02*
X9165729Y-16077484D01*
X9165729Y-16077484D02*
X9156206Y-16172722D01*
X9156206Y-16172722D02*
X9165729Y-16163198D01*
X9165729Y-16163198D02*
X9184777Y-16153674D01*
X9184777Y-16153674D02*
X9232396Y-16153674D01*
X9232396Y-16153674D02*
X9251444Y-16163198D01*
X9251444Y-16163198D02*
X9260968Y-16172722D01*
X9260968Y-16172722D02*
X9270491Y-16191769D01*
X9270491Y-16191769D02*
X9270491Y-16239388D01*
X9270491Y-16239388D02*
X9260968Y-16258436D01*
X9260968Y-16258436D02*
X9251444Y-16267960D01*
X9251444Y-16267960D02*
X9232396Y-16277484D01*
X9232396Y-16277484D02*
X9184777Y-16277484D01*
X9184777Y-16277484D02*
X9165729Y-16267960D01*
X9165729Y-16267960D02*
X9156206Y-16258436D01*
X9365729Y-16277484D02*
X9403825Y-16277484D01*
X9403825Y-16277484D02*
X9422872Y-16267960D01*
X9422872Y-16267960D02*
X9432396Y-16258436D01*
X9432396Y-16258436D02*
X9451444Y-16229865D01*
X9451444Y-16229865D02*
X9460968Y-16191769D01*
X9460968Y-16191769D02*
X9460968Y-16115579D01*
X9460968Y-16115579D02*
X9451444Y-16096531D01*
X9451444Y-16096531D02*
X9441920Y-16087008D01*
X9441920Y-16087008D02*
X9422872Y-16077484D01*
X9422872Y-16077484D02*
X9384777Y-16077484D01*
X9384777Y-16077484D02*
X9365729Y-16087008D01*
X9365729Y-16087008D02*
X9356206Y-16096531D01*
X9356206Y-16096531D02*
X9346682Y-16115579D01*
X9346682Y-16115579D02*
X9346682Y-16163198D01*
X9346682Y-16163198D02*
X9356206Y-16182246D01*
X9356206Y-16182246D02*
X9365729Y-16191769D01*
X9365729Y-16191769D02*
X9384777Y-16201293D01*
X9384777Y-16201293D02*
X9422872Y-16201293D01*
X9422872Y-16201293D02*
X9441920Y-16191769D01*
X9441920Y-16191769D02*
X9451444Y-16182246D01*
X9451444Y-16182246D02*
X9460968Y-16163198D01*
X9651444Y-16277484D02*
X9537158Y-16277484D01*
X9594301Y-16277484D02*
X9594301Y-16077484D01*
X9594301Y-16077484D02*
X9575253Y-16106055D01*
X9575253Y-16106055D02*
X9556206Y-16125103D01*
X9556206Y-16125103D02*
X9537158Y-16134627D01*
X9727634Y-16077484D02*
X9727634Y-16115579D01*
X9803825Y-16077484D02*
X9803825Y-16115579D01*
X10099063Y-16353674D02*
X10089539Y-16344150D01*
X10089539Y-16344150D02*
X10070491Y-16315579D01*
X10070491Y-16315579D02*
X10060968Y-16296531D01*
X10060968Y-16296531D02*
X10051444Y-16267960D01*
X10051444Y-16267960D02*
X10041920Y-16220341D01*
X10041920Y-16220341D02*
X10041920Y-16182246D01*
X10041920Y-16182246D02*
X10051444Y-16134627D01*
X10051444Y-16134627D02*
X10060968Y-16106055D01*
X10060968Y-16106055D02*
X10070491Y-16087008D01*
X10070491Y-16087008D02*
X10089539Y-16058436D01*
X10089539Y-16058436D02*
X10099063Y-16048912D01*
X10213349Y-16077484D02*
X10232396Y-16077484D01*
X10232396Y-16077484D02*
X10251444Y-16087008D01*
X10251444Y-16087008D02*
X10260968Y-16096531D01*
X10260968Y-16096531D02*
X10270491Y-16115579D01*
X10270491Y-16115579D02*
X10280015Y-16153674D01*
X10280015Y-16153674D02*
X10280015Y-16201293D01*
X10280015Y-16201293D02*
X10270491Y-16239388D01*
X10270491Y-16239388D02*
X10260968Y-16258436D01*
X10260968Y-16258436D02*
X10251444Y-16267960D01*
X10251444Y-16267960D02*
X10232396Y-16277484D01*
X10232396Y-16277484D02*
X10213349Y-16277484D01*
X10213349Y-16277484D02*
X10194301Y-16267960D01*
X10194301Y-16267960D02*
X10184777Y-16258436D01*
X10184777Y-16258436D02*
X10175253Y-16239388D01*
X10175253Y-16239388D02*
X10165730Y-16201293D01*
X10165730Y-16201293D02*
X10165730Y-16153674D01*
X10165730Y-16153674D02*
X10175253Y-16115579D01*
X10175253Y-16115579D02*
X10184777Y-16096531D01*
X10184777Y-16096531D02*
X10194301Y-16087008D01*
X10194301Y-16087008D02*
X10213349Y-16077484D01*
X10518111Y-16277484D02*
X10518111Y-16077484D01*
X10603825Y-16277484D02*
X10603825Y-16172722D01*
X10603825Y-16172722D02*
X10594301Y-16153674D01*
X10594301Y-16153674D02*
X10575253Y-16144150D01*
X10575253Y-16144150D02*
X10546682Y-16144150D01*
X10546682Y-16144150D02*
X10527634Y-16153674D01*
X10527634Y-16153674D02*
X10518111Y-16163198D01*
X10727634Y-16277484D02*
X10708587Y-16267960D01*
X10708587Y-16267960D02*
X10699063Y-16258436D01*
X10699063Y-16258436D02*
X10689539Y-16239388D01*
X10689539Y-16239388D02*
X10689539Y-16182246D01*
X10689539Y-16182246D02*
X10699063Y-16163198D01*
X10699063Y-16163198D02*
X10708587Y-16153674D01*
X10708587Y-16153674D02*
X10727634Y-16144150D01*
X10727634Y-16144150D02*
X10756206Y-16144150D01*
X10756206Y-16144150D02*
X10775253Y-16153674D01*
X10775253Y-16153674D02*
X10784777Y-16163198D01*
X10784777Y-16163198D02*
X10794301Y-16182246D01*
X10794301Y-16182246D02*
X10794301Y-16239388D01*
X10794301Y-16239388D02*
X10784777Y-16258436D01*
X10784777Y-16258436D02*
X10775253Y-16267960D01*
X10775253Y-16267960D02*
X10756206Y-16277484D01*
X10756206Y-16277484D02*
X10727634Y-16277484D01*
X10908587Y-16277484D02*
X10889539Y-16267960D01*
X10889539Y-16267960D02*
X10880015Y-16248912D01*
X10880015Y-16248912D02*
X10880015Y-16077484D01*
X11060968Y-16267960D02*
X11041920Y-16277484D01*
X11041920Y-16277484D02*
X11003825Y-16277484D01*
X11003825Y-16277484D02*
X10984777Y-16267960D01*
X10984777Y-16267960D02*
X10975253Y-16248912D01*
X10975253Y-16248912D02*
X10975253Y-16172722D01*
X10975253Y-16172722D02*
X10984777Y-16153674D01*
X10984777Y-16153674D02*
X11003825Y-16144150D01*
X11003825Y-16144150D02*
X11041920Y-16144150D01*
X11041920Y-16144150D02*
X11060968Y-16153674D01*
X11060968Y-16153674D02*
X11070492Y-16172722D01*
X11070492Y-16172722D02*
X11070492Y-16191769D01*
X11070492Y-16191769D02*
X10975253Y-16210817D01*
X11146682Y-16267960D02*
X11165730Y-16277484D01*
X11165730Y-16277484D02*
X11203825Y-16277484D01*
X11203825Y-16277484D02*
X11222872Y-16267960D01*
X11222872Y-16267960D02*
X11232396Y-16248912D01*
X11232396Y-16248912D02*
X11232396Y-16239388D01*
X11232396Y-16239388D02*
X11222872Y-16220341D01*
X11222872Y-16220341D02*
X11203825Y-16210817D01*
X11203825Y-16210817D02*
X11175253Y-16210817D01*
X11175253Y-16210817D02*
X11156206Y-16201293D01*
X11156206Y-16201293D02*
X11146682Y-16182246D01*
X11146682Y-16182246D02*
X11146682Y-16172722D01*
X11146682Y-16172722D02*
X11156206Y-16153674D01*
X11156206Y-16153674D02*
X11175253Y-16144150D01*
X11175253Y-16144150D02*
X11203825Y-16144150D01*
X11203825Y-16144150D02*
X11222872Y-16153674D01*
X11470492Y-16201293D02*
X11622873Y-16201293D01*
X11546682Y-16277484D02*
X11546682Y-16125103D01*
X11956206Y-16144150D02*
X11956206Y-16277484D01*
X11908587Y-16067960D02*
X11860968Y-16210817D01*
X11860968Y-16210817D02*
X11984777Y-16210817D01*
X12203825Y-16267960D02*
X12222873Y-16277484D01*
X12222873Y-16277484D02*
X12260968Y-16277484D01*
X12260968Y-16277484D02*
X12280015Y-16267960D01*
X12280015Y-16267960D02*
X12289539Y-16248912D01*
X12289539Y-16248912D02*
X12289539Y-16239388D01*
X12289539Y-16239388D02*
X12280015Y-16220341D01*
X12280015Y-16220341D02*
X12260968Y-16210817D01*
X12260968Y-16210817D02*
X12232396Y-16210817D01*
X12232396Y-16210817D02*
X12213349Y-16201293D01*
X12213349Y-16201293D02*
X12203825Y-16182246D01*
X12203825Y-16182246D02*
X12203825Y-16172722D01*
X12203825Y-16172722D02*
X12213349Y-16153674D01*
X12213349Y-16153674D02*
X12232396Y-16144150D01*
X12232396Y-16144150D02*
X12260968Y-16144150D01*
X12260968Y-16144150D02*
X12280015Y-16153674D01*
X12403825Y-16277484D02*
X12384777Y-16267960D01*
X12384777Y-16267960D02*
X12375254Y-16248912D01*
X12375254Y-16248912D02*
X12375254Y-16077484D01*
X12508587Y-16277484D02*
X12489539Y-16267960D01*
X12489539Y-16267960D02*
X12480015Y-16258436D01*
X12480015Y-16258436D02*
X12470492Y-16239388D01*
X12470492Y-16239388D02*
X12470492Y-16182246D01*
X12470492Y-16182246D02*
X12480015Y-16163198D01*
X12480015Y-16163198D02*
X12489539Y-16153674D01*
X12489539Y-16153674D02*
X12508587Y-16144150D01*
X12508587Y-16144150D02*
X12537158Y-16144150D01*
X12537158Y-16144150D02*
X12556206Y-16153674D01*
X12556206Y-16153674D02*
X12565730Y-16163198D01*
X12565730Y-16163198D02*
X12575254Y-16182246D01*
X12575254Y-16182246D02*
X12575254Y-16239388D01*
X12575254Y-16239388D02*
X12565730Y-16258436D01*
X12565730Y-16258436D02*
X12556206Y-16267960D01*
X12556206Y-16267960D02*
X12537158Y-16277484D01*
X12537158Y-16277484D02*
X12508587Y-16277484D01*
X12632396Y-16144150D02*
X12708587Y-16144150D01*
X12660968Y-16077484D02*
X12660968Y-16248912D01*
X12660968Y-16248912D02*
X12670492Y-16267960D01*
X12670492Y-16267960D02*
X12689539Y-16277484D01*
X12689539Y-16277484D02*
X12708587Y-16277484D01*
X12765730Y-16267960D02*
X12784777Y-16277484D01*
X12784777Y-16277484D02*
X12822873Y-16277484D01*
X12822873Y-16277484D02*
X12841920Y-16267960D01*
X12841920Y-16267960D02*
X12851444Y-16248912D01*
X12851444Y-16248912D02*
X12851444Y-16239388D01*
X12851444Y-16239388D02*
X12841920Y-16220341D01*
X12841920Y-16220341D02*
X12822873Y-16210817D01*
X12822873Y-16210817D02*
X12794301Y-16210817D01*
X12794301Y-16210817D02*
X12775254Y-16201293D01*
X12775254Y-16201293D02*
X12765730Y-16182246D01*
X12765730Y-16182246D02*
X12765730Y-16172722D01*
X12765730Y-16172722D02*
X12775254Y-16153674D01*
X12775254Y-16153674D02*
X12794301Y-16144150D01*
X12794301Y-16144150D02*
X12822873Y-16144150D01*
X12822873Y-16144150D02*
X12841920Y-16153674D01*
X12918111Y-16353674D02*
X12927635Y-16344150D01*
X12927635Y-16344150D02*
X12946682Y-16315579D01*
X12946682Y-16315579D02*
X12956206Y-16296531D01*
X12956206Y-16296531D02*
X12965730Y-16267960D01*
X12965730Y-16267960D02*
X12975254Y-16220341D01*
X12975254Y-16220341D02*
X12975254Y-16182246D01*
X12975254Y-16182246D02*
X12965730Y-16134627D01*
X12965730Y-16134627D02*
X12956206Y-16106055D01*
X12956206Y-16106055D02*
X12946682Y-16087008D01*
X12946682Y-16087008D02*
X12927635Y-16058436D01*
X12927635Y-16058436D02*
X12918111Y-16048912D01*
D14*
X6354000Y-16371000D02*
X6524000Y-16541000D01*
X6524000Y-16371000D02*
X6354000Y-16541000D01*
X6524000Y-16456000D02*
G75*
G02*
X6354000Y-16456000I-85000J0D01*
G01*
X6354000Y-16456000D02*
G75*
G02*
X6524000Y-16456000I85000J0D01*
G01*
D10*
X6889539Y-16547484D02*
X6775253Y-16547484D01*
X6832396Y-16547484D02*
X6832396Y-16347484D01*
X6832396Y-16347484D02*
X6813348Y-16376055D01*
X6813348Y-16376055D02*
X6794301Y-16395103D01*
X6794301Y-16395103D02*
X6775253Y-16404627D01*
X6975253Y-16528436D02*
X6984777Y-16537960D01*
X6984777Y-16537960D02*
X6975253Y-16547484D01*
X6975253Y-16547484D02*
X6965729Y-16537960D01*
X6965729Y-16537960D02*
X6975253Y-16528436D01*
X6975253Y-16528436D02*
X6975253Y-16547484D01*
X7051443Y-16347484D02*
X7184777Y-16347484D01*
X7184777Y-16347484D02*
X7099062Y-16547484D01*
X7299062Y-16347484D02*
X7318110Y-16347484D01*
X7318110Y-16347484D02*
X7337158Y-16357008D01*
X7337158Y-16357008D02*
X7346682Y-16366531D01*
X7346682Y-16366531D02*
X7356205Y-16385579D01*
X7356205Y-16385579D02*
X7365729Y-16423674D01*
X7365729Y-16423674D02*
X7365729Y-16471293D01*
X7365729Y-16471293D02*
X7356205Y-16509388D01*
X7356205Y-16509388D02*
X7346682Y-16528436D01*
X7346682Y-16528436D02*
X7337158Y-16537960D01*
X7337158Y-16537960D02*
X7318110Y-16547484D01*
X7318110Y-16547484D02*
X7299062Y-16547484D01*
X7299062Y-16547484D02*
X7280015Y-16537960D01*
X7280015Y-16537960D02*
X7270491Y-16528436D01*
X7270491Y-16528436D02*
X7260967Y-16509388D01*
X7260967Y-16509388D02*
X7251443Y-16471293D01*
X7251443Y-16471293D02*
X7251443Y-16423674D01*
X7251443Y-16423674D02*
X7260967Y-16385579D01*
X7260967Y-16385579D02*
X7270491Y-16366531D01*
X7270491Y-16366531D02*
X7280015Y-16357008D01*
X7280015Y-16357008D02*
X7299062Y-16347484D01*
X7489539Y-16347484D02*
X7508586Y-16347484D01*
X7508586Y-16347484D02*
X7527634Y-16357008D01*
X7527634Y-16357008D02*
X7537158Y-16366531D01*
X7537158Y-16366531D02*
X7546682Y-16385579D01*
X7546682Y-16385579D02*
X7556205Y-16423674D01*
X7556205Y-16423674D02*
X7556205Y-16471293D01*
X7556205Y-16471293D02*
X7546682Y-16509388D01*
X7546682Y-16509388D02*
X7537158Y-16528436D01*
X7537158Y-16528436D02*
X7527634Y-16537960D01*
X7527634Y-16537960D02*
X7508586Y-16547484D01*
X7508586Y-16547484D02*
X7489539Y-16547484D01*
X7489539Y-16547484D02*
X7470491Y-16537960D01*
X7470491Y-16537960D02*
X7460967Y-16528436D01*
X7460967Y-16528436D02*
X7451443Y-16509388D01*
X7451443Y-16509388D02*
X7441920Y-16471293D01*
X7441920Y-16471293D02*
X7441920Y-16423674D01*
X7441920Y-16423674D02*
X7451443Y-16385579D01*
X7451443Y-16385579D02*
X7460967Y-16366531D01*
X7460967Y-16366531D02*
X7470491Y-16357008D01*
X7470491Y-16357008D02*
X7489539Y-16347484D01*
X7641920Y-16547484D02*
X7641920Y-16414150D01*
X7641920Y-16433198D02*
X7651443Y-16423674D01*
X7651443Y-16423674D02*
X7670491Y-16414150D01*
X7670491Y-16414150D02*
X7699063Y-16414150D01*
X7699063Y-16414150D02*
X7718110Y-16423674D01*
X7718110Y-16423674D02*
X7727634Y-16442722D01*
X7727634Y-16442722D02*
X7727634Y-16547484D01*
X7727634Y-16442722D02*
X7737158Y-16423674D01*
X7737158Y-16423674D02*
X7756205Y-16414150D01*
X7756205Y-16414150D02*
X7784777Y-16414150D01*
X7784777Y-16414150D02*
X7803824Y-16423674D01*
X7803824Y-16423674D02*
X7813348Y-16442722D01*
X7813348Y-16442722D02*
X7813348Y-16547484D01*
X7908586Y-16547484D02*
X7908586Y-16414150D01*
X7908586Y-16433198D02*
X7918110Y-16423674D01*
X7918110Y-16423674D02*
X7937158Y-16414150D01*
X7937158Y-16414150D02*
X7965729Y-16414150D01*
X7965729Y-16414150D02*
X7984777Y-16423674D01*
X7984777Y-16423674D02*
X7994301Y-16442722D01*
X7994301Y-16442722D02*
X7994301Y-16547484D01*
X7994301Y-16442722D02*
X8003824Y-16423674D01*
X8003824Y-16423674D02*
X8022872Y-16414150D01*
X8022872Y-16414150D02*
X8051443Y-16414150D01*
X8051443Y-16414150D02*
X8070491Y-16423674D01*
X8070491Y-16423674D02*
X8080015Y-16442722D01*
X8080015Y-16442722D02*
X8080015Y-16547484D01*
X8470491Y-16337960D02*
X8299063Y-16595103D01*
X8727634Y-16347484D02*
X8746682Y-16347484D01*
X8746682Y-16347484D02*
X8765729Y-16357008D01*
X8765729Y-16357008D02*
X8775253Y-16366531D01*
X8775253Y-16366531D02*
X8784777Y-16385579D01*
X8784777Y-16385579D02*
X8794301Y-16423674D01*
X8794301Y-16423674D02*
X8794301Y-16471293D01*
X8794301Y-16471293D02*
X8784777Y-16509388D01*
X8784777Y-16509388D02*
X8775253Y-16528436D01*
X8775253Y-16528436D02*
X8765729Y-16537960D01*
X8765729Y-16537960D02*
X8746682Y-16547484D01*
X8746682Y-16547484D02*
X8727634Y-16547484D01*
X8727634Y-16547484D02*
X8708587Y-16537960D01*
X8708587Y-16537960D02*
X8699063Y-16528436D01*
X8699063Y-16528436D02*
X8689539Y-16509388D01*
X8689539Y-16509388D02*
X8680015Y-16471293D01*
X8680015Y-16471293D02*
X8680015Y-16423674D01*
X8680015Y-16423674D02*
X8689539Y-16385579D01*
X8689539Y-16385579D02*
X8699063Y-16366531D01*
X8699063Y-16366531D02*
X8708587Y-16357008D01*
X8708587Y-16357008D02*
X8727634Y-16347484D01*
X8880015Y-16528436D02*
X8889539Y-16537960D01*
X8889539Y-16537960D02*
X8880015Y-16547484D01*
X8880015Y-16547484D02*
X8870491Y-16537960D01*
X8870491Y-16537960D02*
X8880015Y-16528436D01*
X8880015Y-16528436D02*
X8880015Y-16547484D01*
X9013348Y-16347484D02*
X9032396Y-16347484D01*
X9032396Y-16347484D02*
X9051444Y-16357008D01*
X9051444Y-16357008D02*
X9060968Y-16366531D01*
X9060968Y-16366531D02*
X9070491Y-16385579D01*
X9070491Y-16385579D02*
X9080015Y-16423674D01*
X9080015Y-16423674D02*
X9080015Y-16471293D01*
X9080015Y-16471293D02*
X9070491Y-16509388D01*
X9070491Y-16509388D02*
X9060968Y-16528436D01*
X9060968Y-16528436D02*
X9051444Y-16537960D01*
X9051444Y-16537960D02*
X9032396Y-16547484D01*
X9032396Y-16547484D02*
X9013348Y-16547484D01*
X9013348Y-16547484D02*
X8994301Y-16537960D01*
X8994301Y-16537960D02*
X8984777Y-16528436D01*
X8984777Y-16528436D02*
X8975253Y-16509388D01*
X8975253Y-16509388D02*
X8965729Y-16471293D01*
X8965729Y-16471293D02*
X8965729Y-16423674D01*
X8965729Y-16423674D02*
X8975253Y-16385579D01*
X8975253Y-16385579D02*
X8984777Y-16366531D01*
X8984777Y-16366531D02*
X8994301Y-16357008D01*
X8994301Y-16357008D02*
X9013348Y-16347484D01*
X9251444Y-16347484D02*
X9213348Y-16347484D01*
X9213348Y-16347484D02*
X9194301Y-16357008D01*
X9194301Y-16357008D02*
X9184777Y-16366531D01*
X9184777Y-16366531D02*
X9165729Y-16395103D01*
X9165729Y-16395103D02*
X9156206Y-16433198D01*
X9156206Y-16433198D02*
X9156206Y-16509388D01*
X9156206Y-16509388D02*
X9165729Y-16528436D01*
X9165729Y-16528436D02*
X9175253Y-16537960D01*
X9175253Y-16537960D02*
X9194301Y-16547484D01*
X9194301Y-16547484D02*
X9232396Y-16547484D01*
X9232396Y-16547484D02*
X9251444Y-16537960D01*
X9251444Y-16537960D02*
X9260968Y-16528436D01*
X9260968Y-16528436D02*
X9270491Y-16509388D01*
X9270491Y-16509388D02*
X9270491Y-16461769D01*
X9270491Y-16461769D02*
X9260968Y-16442722D01*
X9260968Y-16442722D02*
X9251444Y-16433198D01*
X9251444Y-16433198D02*
X9232396Y-16423674D01*
X9232396Y-16423674D02*
X9194301Y-16423674D01*
X9194301Y-16423674D02*
X9175253Y-16433198D01*
X9175253Y-16433198D02*
X9165729Y-16442722D01*
X9165729Y-16442722D02*
X9156206Y-16461769D01*
X9441920Y-16347484D02*
X9403825Y-16347484D01*
X9403825Y-16347484D02*
X9384777Y-16357008D01*
X9384777Y-16357008D02*
X9375253Y-16366531D01*
X9375253Y-16366531D02*
X9356206Y-16395103D01*
X9356206Y-16395103D02*
X9346682Y-16433198D01*
X9346682Y-16433198D02*
X9346682Y-16509388D01*
X9346682Y-16509388D02*
X9356206Y-16528436D01*
X9356206Y-16528436D02*
X9365729Y-16537960D01*
X9365729Y-16537960D02*
X9384777Y-16547484D01*
X9384777Y-16547484D02*
X9422872Y-16547484D01*
X9422872Y-16547484D02*
X9441920Y-16537960D01*
X9441920Y-16537960D02*
X9451444Y-16528436D01*
X9451444Y-16528436D02*
X9460968Y-16509388D01*
X9460968Y-16509388D02*
X9460968Y-16461769D01*
X9460968Y-16461769D02*
X9451444Y-16442722D01*
X9451444Y-16442722D02*
X9441920Y-16433198D01*
X9441920Y-16433198D02*
X9422872Y-16423674D01*
X9422872Y-16423674D02*
X9384777Y-16423674D01*
X9384777Y-16423674D02*
X9365729Y-16433198D01*
X9365729Y-16433198D02*
X9356206Y-16442722D01*
X9356206Y-16442722D02*
X9346682Y-16461769D01*
X9556206Y-16547484D02*
X9594301Y-16547484D01*
X9594301Y-16547484D02*
X9613349Y-16537960D01*
X9613349Y-16537960D02*
X9622872Y-16528436D01*
X9622872Y-16528436D02*
X9641920Y-16499865D01*
X9641920Y-16499865D02*
X9651444Y-16461769D01*
X9651444Y-16461769D02*
X9651444Y-16385579D01*
X9651444Y-16385579D02*
X9641920Y-16366531D01*
X9641920Y-16366531D02*
X9632396Y-16357008D01*
X9632396Y-16357008D02*
X9613349Y-16347484D01*
X9613349Y-16347484D02*
X9575253Y-16347484D01*
X9575253Y-16347484D02*
X9556206Y-16357008D01*
X9556206Y-16357008D02*
X9546682Y-16366531D01*
X9546682Y-16366531D02*
X9537158Y-16385579D01*
X9537158Y-16385579D02*
X9537158Y-16433198D01*
X9537158Y-16433198D02*
X9546682Y-16452246D01*
X9546682Y-16452246D02*
X9556206Y-16461769D01*
X9556206Y-16461769D02*
X9575253Y-16471293D01*
X9575253Y-16471293D02*
X9613349Y-16471293D01*
X9613349Y-16471293D02*
X9632396Y-16461769D01*
X9632396Y-16461769D02*
X9641920Y-16452246D01*
X9641920Y-16452246D02*
X9651444Y-16433198D01*
X9727634Y-16347484D02*
X9727634Y-16385579D01*
X9803825Y-16347484D02*
X9803825Y-16385579D01*
X10099063Y-16623674D02*
X10089539Y-16614150D01*
X10089539Y-16614150D02*
X10070491Y-16585579D01*
X10070491Y-16585579D02*
X10060968Y-16566531D01*
X10060968Y-16566531D02*
X10051444Y-16537960D01*
X10051444Y-16537960D02*
X10041920Y-16490341D01*
X10041920Y-16490341D02*
X10041920Y-16452246D01*
X10041920Y-16452246D02*
X10051444Y-16404627D01*
X10051444Y-16404627D02*
X10060968Y-16376055D01*
X10060968Y-16376055D02*
X10070491Y-16357008D01*
X10070491Y-16357008D02*
X10089539Y-16328436D01*
X10089539Y-16328436D02*
X10099063Y-16318912D01*
X10165730Y-16366531D02*
X10175253Y-16357008D01*
X10175253Y-16357008D02*
X10194301Y-16347484D01*
X10194301Y-16347484D02*
X10241920Y-16347484D01*
X10241920Y-16347484D02*
X10260968Y-16357008D01*
X10260968Y-16357008D02*
X10270491Y-16366531D01*
X10270491Y-16366531D02*
X10280015Y-16385579D01*
X10280015Y-16385579D02*
X10280015Y-16404627D01*
X10280015Y-16404627D02*
X10270491Y-16433198D01*
X10270491Y-16433198D02*
X10156206Y-16547484D01*
X10156206Y-16547484D02*
X10280015Y-16547484D01*
X10403825Y-16347484D02*
X10422872Y-16347484D01*
X10422872Y-16347484D02*
X10441920Y-16357008D01*
X10441920Y-16357008D02*
X10451444Y-16366531D01*
X10451444Y-16366531D02*
X10460968Y-16385579D01*
X10460968Y-16385579D02*
X10470491Y-16423674D01*
X10470491Y-16423674D02*
X10470491Y-16471293D01*
X10470491Y-16471293D02*
X10460968Y-16509388D01*
X10460968Y-16509388D02*
X10451444Y-16528436D01*
X10451444Y-16528436D02*
X10441920Y-16537960D01*
X10441920Y-16537960D02*
X10422872Y-16547484D01*
X10422872Y-16547484D02*
X10403825Y-16547484D01*
X10403825Y-16547484D02*
X10384777Y-16537960D01*
X10384777Y-16537960D02*
X10375253Y-16528436D01*
X10375253Y-16528436D02*
X10365730Y-16509388D01*
X10365730Y-16509388D02*
X10356206Y-16471293D01*
X10356206Y-16471293D02*
X10356206Y-16423674D01*
X10356206Y-16423674D02*
X10365730Y-16385579D01*
X10365730Y-16385579D02*
X10375253Y-16366531D01*
X10375253Y-16366531D02*
X10384777Y-16357008D01*
X10384777Y-16357008D02*
X10403825Y-16347484D01*
X10708587Y-16547484D02*
X10708587Y-16347484D01*
X10794301Y-16547484D02*
X10794301Y-16442722D01*
X10794301Y-16442722D02*
X10784777Y-16423674D01*
X10784777Y-16423674D02*
X10765730Y-16414150D01*
X10765730Y-16414150D02*
X10737158Y-16414150D01*
X10737158Y-16414150D02*
X10718111Y-16423674D01*
X10718111Y-16423674D02*
X10708587Y-16433198D01*
X10918111Y-16547484D02*
X10899063Y-16537960D01*
X10899063Y-16537960D02*
X10889539Y-16528436D01*
X10889539Y-16528436D02*
X10880015Y-16509388D01*
X10880015Y-16509388D02*
X10880015Y-16452246D01*
X10880015Y-16452246D02*
X10889539Y-16433198D01*
X10889539Y-16433198D02*
X10899063Y-16423674D01*
X10899063Y-16423674D02*
X10918111Y-16414150D01*
X10918111Y-16414150D02*
X10946682Y-16414150D01*
X10946682Y-16414150D02*
X10965730Y-16423674D01*
X10965730Y-16423674D02*
X10975253Y-16433198D01*
X10975253Y-16433198D02*
X10984777Y-16452246D01*
X10984777Y-16452246D02*
X10984777Y-16509388D01*
X10984777Y-16509388D02*
X10975253Y-16528436D01*
X10975253Y-16528436D02*
X10965730Y-16537960D01*
X10965730Y-16537960D02*
X10946682Y-16547484D01*
X10946682Y-16547484D02*
X10918111Y-16547484D01*
X11099063Y-16547484D02*
X11080015Y-16537960D01*
X11080015Y-16537960D02*
X11070492Y-16518912D01*
X11070492Y-16518912D02*
X11070492Y-16347484D01*
X11251444Y-16537960D02*
X11232396Y-16547484D01*
X11232396Y-16547484D02*
X11194301Y-16547484D01*
X11194301Y-16547484D02*
X11175253Y-16537960D01*
X11175253Y-16537960D02*
X11165730Y-16518912D01*
X11165730Y-16518912D02*
X11165730Y-16442722D01*
X11165730Y-16442722D02*
X11175253Y-16423674D01*
X11175253Y-16423674D02*
X11194301Y-16414150D01*
X11194301Y-16414150D02*
X11232396Y-16414150D01*
X11232396Y-16414150D02*
X11251444Y-16423674D01*
X11251444Y-16423674D02*
X11260968Y-16442722D01*
X11260968Y-16442722D02*
X11260968Y-16461769D01*
X11260968Y-16461769D02*
X11165730Y-16480817D01*
X11337158Y-16537960D02*
X11356206Y-16547484D01*
X11356206Y-16547484D02*
X11394301Y-16547484D01*
X11394301Y-16547484D02*
X11413349Y-16537960D01*
X11413349Y-16537960D02*
X11422872Y-16518912D01*
X11422872Y-16518912D02*
X11422872Y-16509388D01*
X11422872Y-16509388D02*
X11413349Y-16490341D01*
X11413349Y-16490341D02*
X11394301Y-16480817D01*
X11394301Y-16480817D02*
X11365730Y-16480817D01*
X11365730Y-16480817D02*
X11346682Y-16471293D01*
X11346682Y-16471293D02*
X11337158Y-16452246D01*
X11337158Y-16452246D02*
X11337158Y-16442722D01*
X11337158Y-16442722D02*
X11346682Y-16423674D01*
X11346682Y-16423674D02*
X11365730Y-16414150D01*
X11365730Y-16414150D02*
X11394301Y-16414150D01*
X11394301Y-16414150D02*
X11413349Y-16423674D01*
X11489539Y-16623674D02*
X11499063Y-16614150D01*
X11499063Y-16614150D02*
X11518111Y-16585579D01*
X11518111Y-16585579D02*
X11527634Y-16566531D01*
X11527634Y-16566531D02*
X11537158Y-16537960D01*
X11537158Y-16537960D02*
X11546682Y-16490341D01*
X11546682Y-16490341D02*
X11546682Y-16452246D01*
X11546682Y-16452246D02*
X11537158Y-16404627D01*
X11537158Y-16404627D02*
X11527634Y-16376055D01*
X11527634Y-16376055D02*
X11518111Y-16357008D01*
X11518111Y-16357008D02*
X11499063Y-16328436D01*
X11499063Y-16328436D02*
X11489539Y-16318912D01*
X6324000Y-16646000D02*
X6524000Y-16846000D01*
X6524000Y-16646000D02*
X6324000Y-16846000D01*
X6424000Y-16646000D02*
X6424000Y-16846000D01*
X6324000Y-16746000D02*
X6524000Y-16746000D01*
X6775253Y-16656531D02*
X6784777Y-16647008D01*
X6784777Y-16647008D02*
X6803824Y-16637484D01*
X6803824Y-16637484D02*
X6851443Y-16637484D01*
X6851443Y-16637484D02*
X6870491Y-16647008D01*
X6870491Y-16647008D02*
X6880015Y-16656531D01*
X6880015Y-16656531D02*
X6889539Y-16675579D01*
X6889539Y-16675579D02*
X6889539Y-16694627D01*
X6889539Y-16694627D02*
X6880015Y-16723198D01*
X6880015Y-16723198D02*
X6765729Y-16837484D01*
X6765729Y-16837484D02*
X6889539Y-16837484D01*
X6975253Y-16818436D02*
X6984777Y-16827960D01*
X6984777Y-16827960D02*
X6975253Y-16837484D01*
X6975253Y-16837484D02*
X6965729Y-16827960D01*
X6965729Y-16827960D02*
X6975253Y-16818436D01*
X6975253Y-16818436D02*
X6975253Y-16837484D01*
X7165729Y-16637484D02*
X7070491Y-16637484D01*
X7070491Y-16637484D02*
X7060967Y-16732722D01*
X7060967Y-16732722D02*
X7070491Y-16723198D01*
X7070491Y-16723198D02*
X7089539Y-16713674D01*
X7089539Y-16713674D02*
X7137158Y-16713674D01*
X7137158Y-16713674D02*
X7156205Y-16723198D01*
X7156205Y-16723198D02*
X7165729Y-16732722D01*
X7165729Y-16732722D02*
X7175253Y-16751769D01*
X7175253Y-16751769D02*
X7175253Y-16799389D01*
X7175253Y-16799389D02*
X7165729Y-16818436D01*
X7165729Y-16818436D02*
X7156205Y-16827960D01*
X7156205Y-16827960D02*
X7137158Y-16837484D01*
X7137158Y-16837484D02*
X7089539Y-16837484D01*
X7089539Y-16837484D02*
X7070491Y-16827960D01*
X7070491Y-16827960D02*
X7060967Y-16818436D01*
X7299062Y-16637484D02*
X7318110Y-16637484D01*
X7318110Y-16637484D02*
X7337158Y-16647008D01*
X7337158Y-16647008D02*
X7346682Y-16656531D01*
X7346682Y-16656531D02*
X7356205Y-16675579D01*
X7356205Y-16675579D02*
X7365729Y-16713674D01*
X7365729Y-16713674D02*
X7365729Y-16761293D01*
X7365729Y-16761293D02*
X7356205Y-16799389D01*
X7356205Y-16799389D02*
X7346682Y-16818436D01*
X7346682Y-16818436D02*
X7337158Y-16827960D01*
X7337158Y-16827960D02*
X7318110Y-16837484D01*
X7318110Y-16837484D02*
X7299062Y-16837484D01*
X7299062Y-16837484D02*
X7280015Y-16827960D01*
X7280015Y-16827960D02*
X7270491Y-16818436D01*
X7270491Y-16818436D02*
X7260967Y-16799389D01*
X7260967Y-16799389D02*
X7251443Y-16761293D01*
X7251443Y-16761293D02*
X7251443Y-16713674D01*
X7251443Y-16713674D02*
X7260967Y-16675579D01*
X7260967Y-16675579D02*
X7270491Y-16656531D01*
X7270491Y-16656531D02*
X7280015Y-16647008D01*
X7280015Y-16647008D02*
X7299062Y-16637484D01*
X7489539Y-16637484D02*
X7508586Y-16637484D01*
X7508586Y-16637484D02*
X7527634Y-16647008D01*
X7527634Y-16647008D02*
X7537158Y-16656531D01*
X7537158Y-16656531D02*
X7546682Y-16675579D01*
X7546682Y-16675579D02*
X7556205Y-16713674D01*
X7556205Y-16713674D02*
X7556205Y-16761293D01*
X7556205Y-16761293D02*
X7546682Y-16799389D01*
X7546682Y-16799389D02*
X7537158Y-16818436D01*
X7537158Y-16818436D02*
X7527634Y-16827960D01*
X7527634Y-16827960D02*
X7508586Y-16837484D01*
X7508586Y-16837484D02*
X7489539Y-16837484D01*
X7489539Y-16837484D02*
X7470491Y-16827960D01*
X7470491Y-16827960D02*
X7460967Y-16818436D01*
X7460967Y-16818436D02*
X7451443Y-16799389D01*
X7451443Y-16799389D02*
X7441920Y-16761293D01*
X7441920Y-16761293D02*
X7441920Y-16713674D01*
X7441920Y-16713674D02*
X7451443Y-16675579D01*
X7451443Y-16675579D02*
X7460967Y-16656531D01*
X7460967Y-16656531D02*
X7470491Y-16647008D01*
X7470491Y-16647008D02*
X7489539Y-16637484D01*
X7641920Y-16837484D02*
X7641920Y-16704150D01*
X7641920Y-16723198D02*
X7651443Y-16713674D01*
X7651443Y-16713674D02*
X7670491Y-16704150D01*
X7670491Y-16704150D02*
X7699063Y-16704150D01*
X7699063Y-16704150D02*
X7718110Y-16713674D01*
X7718110Y-16713674D02*
X7727634Y-16732722D01*
X7727634Y-16732722D02*
X7727634Y-16837484D01*
X7727634Y-16732722D02*
X7737158Y-16713674D01*
X7737158Y-16713674D02*
X7756205Y-16704150D01*
X7756205Y-16704150D02*
X7784777Y-16704150D01*
X7784777Y-16704150D02*
X7803824Y-16713674D01*
X7803824Y-16713674D02*
X7813348Y-16732722D01*
X7813348Y-16732722D02*
X7813348Y-16837484D01*
X7908586Y-16837484D02*
X7908586Y-16704150D01*
X7908586Y-16723198D02*
X7918110Y-16713674D01*
X7918110Y-16713674D02*
X7937158Y-16704150D01*
X7937158Y-16704150D02*
X7965729Y-16704150D01*
X7965729Y-16704150D02*
X7984777Y-16713674D01*
X7984777Y-16713674D02*
X7994301Y-16732722D01*
X7994301Y-16732722D02*
X7994301Y-16837484D01*
X7994301Y-16732722D02*
X8003824Y-16713674D01*
X8003824Y-16713674D02*
X8022872Y-16704150D01*
X8022872Y-16704150D02*
X8051443Y-16704150D01*
X8051443Y-16704150D02*
X8070491Y-16713674D01*
X8070491Y-16713674D02*
X8080015Y-16732722D01*
X8080015Y-16732722D02*
X8080015Y-16837484D01*
X8470491Y-16627960D02*
X8299063Y-16885103D01*
X8727634Y-16637484D02*
X8746682Y-16637484D01*
X8746682Y-16637484D02*
X8765729Y-16647008D01*
X8765729Y-16647008D02*
X8775253Y-16656531D01*
X8775253Y-16656531D02*
X8784777Y-16675579D01*
X8784777Y-16675579D02*
X8794301Y-16713674D01*
X8794301Y-16713674D02*
X8794301Y-16761293D01*
X8794301Y-16761293D02*
X8784777Y-16799389D01*
X8784777Y-16799389D02*
X8775253Y-16818436D01*
X8775253Y-16818436D02*
X8765729Y-16827960D01*
X8765729Y-16827960D02*
X8746682Y-16837484D01*
X8746682Y-16837484D02*
X8727634Y-16837484D01*
X8727634Y-16837484D02*
X8708587Y-16827960D01*
X8708587Y-16827960D02*
X8699063Y-16818436D01*
X8699063Y-16818436D02*
X8689539Y-16799389D01*
X8689539Y-16799389D02*
X8680015Y-16761293D01*
X8680015Y-16761293D02*
X8680015Y-16713674D01*
X8680015Y-16713674D02*
X8689539Y-16675579D01*
X8689539Y-16675579D02*
X8699063Y-16656531D01*
X8699063Y-16656531D02*
X8708587Y-16647008D01*
X8708587Y-16647008D02*
X8727634Y-16637484D01*
X8880015Y-16818436D02*
X8889539Y-16827960D01*
X8889539Y-16827960D02*
X8880015Y-16837484D01*
X8880015Y-16837484D02*
X8870491Y-16827960D01*
X8870491Y-16827960D02*
X8880015Y-16818436D01*
X8880015Y-16818436D02*
X8880015Y-16837484D01*
X9013348Y-16637484D02*
X9032396Y-16637484D01*
X9032396Y-16637484D02*
X9051444Y-16647008D01*
X9051444Y-16647008D02*
X9060968Y-16656531D01*
X9060968Y-16656531D02*
X9070491Y-16675579D01*
X9070491Y-16675579D02*
X9080015Y-16713674D01*
X9080015Y-16713674D02*
X9080015Y-16761293D01*
X9080015Y-16761293D02*
X9070491Y-16799389D01*
X9070491Y-16799389D02*
X9060968Y-16818436D01*
X9060968Y-16818436D02*
X9051444Y-16827960D01*
X9051444Y-16827960D02*
X9032396Y-16837484D01*
X9032396Y-16837484D02*
X9013348Y-16837484D01*
X9013348Y-16837484D02*
X8994301Y-16827960D01*
X8994301Y-16827960D02*
X8984777Y-16818436D01*
X8984777Y-16818436D02*
X8975253Y-16799389D01*
X8975253Y-16799389D02*
X8965729Y-16761293D01*
X8965729Y-16761293D02*
X8965729Y-16713674D01*
X8965729Y-16713674D02*
X8975253Y-16675579D01*
X8975253Y-16675579D02*
X8984777Y-16656531D01*
X8984777Y-16656531D02*
X8994301Y-16647008D01*
X8994301Y-16647008D02*
X9013348Y-16637484D01*
X9175253Y-16837484D02*
X9213348Y-16837484D01*
X9213348Y-16837484D02*
X9232396Y-16827960D01*
X9232396Y-16827960D02*
X9241920Y-16818436D01*
X9241920Y-16818436D02*
X9260968Y-16789865D01*
X9260968Y-16789865D02*
X9270491Y-16751769D01*
X9270491Y-16751769D02*
X9270491Y-16675579D01*
X9270491Y-16675579D02*
X9260968Y-16656531D01*
X9260968Y-16656531D02*
X9251444Y-16647008D01*
X9251444Y-16647008D02*
X9232396Y-16637484D01*
X9232396Y-16637484D02*
X9194301Y-16637484D01*
X9194301Y-16637484D02*
X9175253Y-16647008D01*
X9175253Y-16647008D02*
X9165729Y-16656531D01*
X9165729Y-16656531D02*
X9156206Y-16675579D01*
X9156206Y-16675579D02*
X9156206Y-16723198D01*
X9156206Y-16723198D02*
X9165729Y-16742246D01*
X9165729Y-16742246D02*
X9175253Y-16751769D01*
X9175253Y-16751769D02*
X9194301Y-16761293D01*
X9194301Y-16761293D02*
X9232396Y-16761293D01*
X9232396Y-16761293D02*
X9251444Y-16751769D01*
X9251444Y-16751769D02*
X9260968Y-16742246D01*
X9260968Y-16742246D02*
X9270491Y-16723198D01*
X9384777Y-16723198D02*
X9365729Y-16713674D01*
X9365729Y-16713674D02*
X9356206Y-16704150D01*
X9356206Y-16704150D02*
X9346682Y-16685103D01*
X9346682Y-16685103D02*
X9346682Y-16675579D01*
X9346682Y-16675579D02*
X9356206Y-16656531D01*
X9356206Y-16656531D02*
X9365729Y-16647008D01*
X9365729Y-16647008D02*
X9384777Y-16637484D01*
X9384777Y-16637484D02*
X9422872Y-16637484D01*
X9422872Y-16637484D02*
X9441920Y-16647008D01*
X9441920Y-16647008D02*
X9451444Y-16656531D01*
X9451444Y-16656531D02*
X9460968Y-16675579D01*
X9460968Y-16675579D02*
X9460968Y-16685103D01*
X9460968Y-16685103D02*
X9451444Y-16704150D01*
X9451444Y-16704150D02*
X9441920Y-16713674D01*
X9441920Y-16713674D02*
X9422872Y-16723198D01*
X9422872Y-16723198D02*
X9384777Y-16723198D01*
X9384777Y-16723198D02*
X9365729Y-16732722D01*
X9365729Y-16732722D02*
X9356206Y-16742246D01*
X9356206Y-16742246D02*
X9346682Y-16761293D01*
X9346682Y-16761293D02*
X9346682Y-16799389D01*
X9346682Y-16799389D02*
X9356206Y-16818436D01*
X9356206Y-16818436D02*
X9365729Y-16827960D01*
X9365729Y-16827960D02*
X9384777Y-16837484D01*
X9384777Y-16837484D02*
X9422872Y-16837484D01*
X9422872Y-16837484D02*
X9441920Y-16827960D01*
X9441920Y-16827960D02*
X9451444Y-16818436D01*
X9451444Y-16818436D02*
X9460968Y-16799389D01*
X9460968Y-16799389D02*
X9460968Y-16761293D01*
X9460968Y-16761293D02*
X9451444Y-16742246D01*
X9451444Y-16742246D02*
X9441920Y-16732722D01*
X9441920Y-16732722D02*
X9422872Y-16723198D01*
X9632396Y-16704150D02*
X9632396Y-16837484D01*
X9584777Y-16627960D02*
X9537158Y-16770817D01*
X9537158Y-16770817D02*
X9660968Y-16770817D01*
X9727634Y-16637484D02*
X9727634Y-16675579D01*
X9803825Y-16637484D02*
X9803825Y-16675579D01*
X10099063Y-16913674D02*
X10089539Y-16904150D01*
X10089539Y-16904150D02*
X10070491Y-16875579D01*
X10070491Y-16875579D02*
X10060968Y-16856531D01*
X10060968Y-16856531D02*
X10051444Y-16827960D01*
X10051444Y-16827960D02*
X10041920Y-16780341D01*
X10041920Y-16780341D02*
X10041920Y-16742246D01*
X10041920Y-16742246D02*
X10051444Y-16694627D01*
X10051444Y-16694627D02*
X10060968Y-16666055D01*
X10060968Y-16666055D02*
X10070491Y-16647008D01*
X10070491Y-16647008D02*
X10089539Y-16618436D01*
X10089539Y-16618436D02*
X10099063Y-16608912D01*
X10165730Y-16656531D02*
X10175253Y-16647008D01*
X10175253Y-16647008D02*
X10194301Y-16637484D01*
X10194301Y-16637484D02*
X10241920Y-16637484D01*
X10241920Y-16637484D02*
X10260968Y-16647008D01*
X10260968Y-16647008D02*
X10270491Y-16656531D01*
X10270491Y-16656531D02*
X10280015Y-16675579D01*
X10280015Y-16675579D02*
X10280015Y-16694627D01*
X10280015Y-16694627D02*
X10270491Y-16723198D01*
X10270491Y-16723198D02*
X10156206Y-16837484D01*
X10156206Y-16837484D02*
X10280015Y-16837484D01*
X10518111Y-16837484D02*
X10518111Y-16637484D01*
X10603825Y-16837484D02*
X10603825Y-16732722D01*
X10603825Y-16732722D02*
X10594301Y-16713674D01*
X10594301Y-16713674D02*
X10575253Y-16704150D01*
X10575253Y-16704150D02*
X10546682Y-16704150D01*
X10546682Y-16704150D02*
X10527634Y-16713674D01*
X10527634Y-16713674D02*
X10518111Y-16723198D01*
X10727634Y-16837484D02*
X10708587Y-16827960D01*
X10708587Y-16827960D02*
X10699063Y-16818436D01*
X10699063Y-16818436D02*
X10689539Y-16799389D01*
X10689539Y-16799389D02*
X10689539Y-16742246D01*
X10689539Y-16742246D02*
X10699063Y-16723198D01*
X10699063Y-16723198D02*
X10708587Y-16713674D01*
X10708587Y-16713674D02*
X10727634Y-16704150D01*
X10727634Y-16704150D02*
X10756206Y-16704150D01*
X10756206Y-16704150D02*
X10775253Y-16713674D01*
X10775253Y-16713674D02*
X10784777Y-16723198D01*
X10784777Y-16723198D02*
X10794301Y-16742246D01*
X10794301Y-16742246D02*
X10794301Y-16799389D01*
X10794301Y-16799389D02*
X10784777Y-16818436D01*
X10784777Y-16818436D02*
X10775253Y-16827960D01*
X10775253Y-16827960D02*
X10756206Y-16837484D01*
X10756206Y-16837484D02*
X10727634Y-16837484D01*
X10908587Y-16837484D02*
X10889539Y-16827960D01*
X10889539Y-16827960D02*
X10880015Y-16808912D01*
X10880015Y-16808912D02*
X10880015Y-16637484D01*
X11060968Y-16827960D02*
X11041920Y-16837484D01*
X11041920Y-16837484D02*
X11003825Y-16837484D01*
X11003825Y-16837484D02*
X10984777Y-16827960D01*
X10984777Y-16827960D02*
X10975253Y-16808912D01*
X10975253Y-16808912D02*
X10975253Y-16732722D01*
X10975253Y-16732722D02*
X10984777Y-16713674D01*
X10984777Y-16713674D02*
X11003825Y-16704150D01*
X11003825Y-16704150D02*
X11041920Y-16704150D01*
X11041920Y-16704150D02*
X11060968Y-16713674D01*
X11060968Y-16713674D02*
X11070492Y-16732722D01*
X11070492Y-16732722D02*
X11070492Y-16751769D01*
X11070492Y-16751769D02*
X10975253Y-16770817D01*
X11146682Y-16827960D02*
X11165730Y-16837484D01*
X11165730Y-16837484D02*
X11203825Y-16837484D01*
X11203825Y-16837484D02*
X11222872Y-16827960D01*
X11222872Y-16827960D02*
X11232396Y-16808912D01*
X11232396Y-16808912D02*
X11232396Y-16799389D01*
X11232396Y-16799389D02*
X11222872Y-16780341D01*
X11222872Y-16780341D02*
X11203825Y-16770817D01*
X11203825Y-16770817D02*
X11175253Y-16770817D01*
X11175253Y-16770817D02*
X11156206Y-16761293D01*
X11156206Y-16761293D02*
X11146682Y-16742246D01*
X11146682Y-16742246D02*
X11146682Y-16732722D01*
X11146682Y-16732722D02*
X11156206Y-16713674D01*
X11156206Y-16713674D02*
X11175253Y-16704150D01*
X11175253Y-16704150D02*
X11203825Y-16704150D01*
X11203825Y-16704150D02*
X11222872Y-16713674D01*
X11299063Y-16913674D02*
X11308587Y-16904150D01*
X11308587Y-16904150D02*
X11327634Y-16875579D01*
X11327634Y-16875579D02*
X11337158Y-16856531D01*
X11337158Y-16856531D02*
X11346682Y-16827960D01*
X11346682Y-16827960D02*
X11356206Y-16780341D01*
X11356206Y-16780341D02*
X11356206Y-16742246D01*
X11356206Y-16742246D02*
X11346682Y-16694627D01*
X11346682Y-16694627D02*
X11337158Y-16666055D01*
X11337158Y-16666055D02*
X11327634Y-16647008D01*
X11327634Y-16647008D02*
X11308587Y-16618436D01*
X11308587Y-16618436D02*
X11299063Y-16608912D01*
M02*
