M48
; DRILL file {KiCad 9.0.6} date 2026-01-24T23:53:54+0000
; FORMAT={-:-/ absolute / metric / decimal}
; #@! TF.CreationDate,2026-01-24T23:53:54+00:00
; #@! TF.GenerationSoftware,Kicad,Pcbnew,9.0.6
; #@! TF.FileFunction,MixedPlating,1,2
FMAT,2
METRIC
; #@! TA.AperFunction,Plated,PTH,ViaDrill
T1C0.300
; #@! TA.AperFunction,Plated,PTH,ComponentDrill
T2C0.800
; #@! TA.AperFunction,Plated,PTH,ComponentDrill
T3C1.000
; #@! TA.AperFunction,Plated,PTH,ComponentDrill
T4C1.200
; #@! TA.AperFunction,Plated,PTH,ComponentDrill
T5C1.500
; #@! TA.AperFunction,Plated,PTH,ComponentDrill
T6C1.700
; #@! TA.AperFunction,Plated,PTH,ComponentDrill
T7C2.500
%
G90
G05
T1
X89.375Y-62.62
X110.984Y-62.62
X116.045Y-56.905
X117.95Y-56.27
X119.855Y-72.145
X120.49Y-74.685
X123.8Y-62.54
X123.95Y-58.175
X130.65Y-57.54
X138.33Y-62.1
X141.36Y-62.04
X152.875Y-55.635
X156.825Y-47.575
X165.43Y-61.75
X167.925Y-38.375
X167.98Y-61.49
X169.385Y-41.03
X184.725Y-56.525
X188.3Y-45.65
X192.49Y-61.73
X195.9Y-51.675
X196.17Y-58.12
X199.225Y-53.625
X213.425Y-58.825
X215.105Y-73.415
X216.975Y-75.575
X217.645Y-40.395
T2
X74.39Y-59.515
X76.89Y-59.515
X80.505Y-39.76
X83.005Y-39.76
X83.086Y-59.515
X85.586Y-59.515
X101.503Y-59.515
X104.003Y-59.515
X109.449Y-59.265
X111.949Y-59.265
X128.637Y-59.515
X131.137Y-59.515
X136.583Y-59.515
X139.083Y-59.515
X155.75Y-58.76
X158.25Y-58.76
X163.696Y-59.1
X166.196Y-59.1
X170.655Y-46.745
X171.29Y-39.125
X180.815Y-46.745
X181.45Y-39.125
X182.864Y-59.46
X185.364Y-59.46
X187.165Y-41.03
X189.665Y-41.03
X190.81Y-59.1
X193.31Y-59.1
X205.58Y-44.622
X205.58Y-47.162
X205.58Y-49.702
X205.58Y-52.242
X205.58Y-54.782
X205.58Y-57.322
X205.58Y-59.862
X205.58Y-62.402
X205.58Y-64.942
X205.58Y-67.482
X205.58Y-70.022
X205.58Y-72.562
X205.58Y-75.102
X205.58Y-77.642
X205.58Y-80.182
X205.58Y-82.722
X205.58Y-85.262
X205.58Y-87.802
X205.58Y-90.342
X230.976Y-87.799
X230.976Y-90.339
X230.98Y-44.622
X230.98Y-47.162
X230.98Y-49.702
X230.98Y-52.242
X230.98Y-54.782
X230.98Y-57.322
X230.98Y-59.862
X230.98Y-62.402
X230.98Y-64.942
X230.98Y-67.482
X230.98Y-70.022
X230.98Y-72.562
X230.98Y-75.102
X230.98Y-77.642
X230.98Y-80.182
X230.98Y-82.722
X230.98Y-85.262
T3
X83.251Y-65.96
X85.791Y-65.96
X87.47Y-39.76
X87.47Y-55.0
X88.331Y-65.96
X90.01Y-39.76
X90.01Y-55.0
X90.871Y-65.96
X92.55Y-39.76
X92.55Y-55.0
X95.09Y-39.76
X95.09Y-55.0
X97.63Y-39.76
X97.63Y-55.0
X100.17Y-39.76
X100.17Y-55.0
X102.71Y-39.76
X102.71Y-55.0
X105.25Y-39.76
X105.25Y-55.0
X107.79Y-39.76
X107.79Y-55.0
X110.33Y-39.76
X110.33Y-55.0
X110.384Y-65.49
X112.87Y-39.76
X112.87Y-55.0
X112.924Y-65.49
X115.41Y-39.76
X115.41Y-55.0
X115.464Y-65.49
X118.004Y-65.49
X125.57Y-42.38
X125.57Y-44.88
X125.57Y-47.38
X137.498Y-65.82
X140.038Y-65.82
X140.07Y-42.38
X140.07Y-47.38
X142.578Y-65.82
X145.118Y-65.82
X149.7Y-42.38
X149.7Y-44.88
X149.7Y-47.38
X164.2Y-42.38
X164.2Y-47.38
X164.611Y-65.325
X167.151Y-65.325
X169.691Y-65.325
X172.231Y-65.325
X191.725Y-65.325
X194.265Y-65.325
X196.805Y-65.325
X199.345Y-65.325
T4
X71.115Y-65.8
X74.615Y-65.8
X74.615Y-139.3
X98.228Y-65.97
X101.728Y-65.97
X101.728Y-139.47
X125.362Y-65.43
X128.862Y-65.43
X128.862Y-138.93
X152.475Y-64.835
X155.975Y-64.835
X155.975Y-138.335
X179.589Y-65.47
X183.089Y-65.47
X183.089Y-138.97
T6
X68.665Y-69.95
X68.665Y-135.15
X77.065Y-71.15
X77.065Y-133.95
X95.778Y-70.12
X95.778Y-135.32
X104.178Y-71.32
X104.178Y-134.12
X122.912Y-69.58
X122.912Y-134.78
X131.312Y-70.78
X131.312Y-133.58
X150.025Y-68.985
X150.025Y-134.185
X158.425Y-70.185
X158.425Y-132.985
X177.139Y-69.62
X177.139Y-134.82
X185.539Y-70.82
X185.539Y-133.62
T7
X88.74Y-47.38
X114.14Y-47.38
T5
G00X132.42Y-39.28
M15
G01X133.72Y-39.28
M16
G05
G00X132.42Y-50.48
M15
G01X133.72Y-50.48
M16
G05
G00X156.55Y-39.28
M15
G01X157.85Y-39.28
M16
G05
G00X156.55Y-50.48
M15
G01X157.85Y-50.48
M16
G05
M30
