M48
; DRILL file {KiCad 9.0.6} date 2026-02-14T22:39:15+0000
; FORMAT={-:-/ absolute / metric / decimal}
; #@! TF.CreationDate,2026-02-14T22:39:15+00:00
; #@! TF.GenerationSoftware,Kicad,Pcbnew,9.0.6
; #@! TF.FileFunction,MixedPlating,1,2
FMAT,2
METRIC
; #@! TA.AperFunction,Plated,PTH,ViaDrill
T1C0.300
; #@! TA.AperFunction,Plated,PTH,ComponentDrill
T2C0.800
; #@! TA.AperFunction,Plated,PTH,ComponentDrill
T3C1.000
; #@! TA.AperFunction,Plated,PTH,ComponentDrill
T4C1.200
; #@! TA.AperFunction,Plated,PTH,ComponentDrill
T5C1.500
; #@! TA.AperFunction,Plated,PTH,ComponentDrill
T6C1.700
; #@! TA.AperFunction,NonPlated,NPTH,ComponentDrill
T7C1.700
; #@! TA.AperFunction,NonPlated,NPTH,ComponentDrill
T8C4.000
%
G90
G05
T1
X117.334Y-87.39
X123.252Y-57.259
X123.252Y-72.385
X123.252Y-149.37
X138.048Y-87.39
X140.183Y-138.371
X141.007Y-137.567
X143.966Y-134.565
X144.727Y-135.827
X149.884Y-137.526
X152.843Y-148.58
X153.633Y-138.016
X154.601Y-143.448
X169.951Y-163.765
X179.96Y-141.08
X188.353Y-133.775
X189.55Y-61.44
X190.136Y-132.751
X191.312Y-131.603
X191.312Y-167.136
X192.57Y-144.53
X196.311Y-162.443
X197.23Y-159.474
X198.52Y-144.93
X198.584Y-146.506
X199.244Y-147.213
X202.455Y-150.141
X206.107Y-160.579
X207.71Y-151.11
X209.066Y-65.768
X212.025Y-66.526
X214.25Y-153.73
X229.78Y-155.292
X229.78Y-158.11
X231.751Y-158.911
X232.791Y-159.114
X233.822Y-132.968
X245.282Y-161.214
X245.295Y-131.802
X253.053Y-164.372
X258.381Y-158.571
X264.885Y-150.179
X268.584Y-149.37
X273.501Y-158.629
T2
X106.79Y-169.92
X107.99Y-85.11
X107.993Y-59.706
X109.29Y-169.92
X110.53Y-85.11
X110.533Y-59.706
X113.07Y-85.11
X113.073Y-59.706
X115.61Y-59.71
X115.61Y-85.11
X118.15Y-59.71
X118.15Y-85.11
X120.69Y-59.71
X120.69Y-85.11
X122.143Y-169.92
X123.23Y-59.71
X123.23Y-85.11
X124.643Y-169.92
X125.77Y-59.71
X125.77Y-85.11
X128.31Y-59.71
X128.31Y-85.11
X130.85Y-59.71
X130.85Y-85.11
X133.39Y-59.71
X133.39Y-85.11
X135.93Y-59.71
X135.93Y-85.11
X137.497Y-169.92
X138.47Y-59.71
X138.47Y-85.11
X139.997Y-169.92
X141.01Y-59.71
X141.01Y-85.11
X143.55Y-59.71
X143.55Y-85.11
X146.09Y-59.71
X146.09Y-85.11
X148.63Y-59.71
X148.63Y-85.11
X151.17Y-59.71
X151.17Y-85.11
X152.85Y-169.92
X153.71Y-59.71
X153.71Y-85.11
X155.35Y-169.92
X156.25Y-59.71
X156.25Y-85.11
X158.79Y-59.71
X158.79Y-85.11
X161.33Y-59.71
X161.33Y-85.11
X168.203Y-169.92
X170.703Y-169.92
X172.318Y-84.0
X173.0Y-75.5
X173.47Y-61.53
X173.47Y-69.15
X174.818Y-84.0
X175.5Y-75.5
X178.97Y-61.53
X178.97Y-69.15
X186.73Y-156.445
X186.73Y-164.065
X189.27Y-156.445
X189.27Y-164.065
X191.81Y-156.445
X191.81Y-164.065
X194.35Y-156.445
X194.35Y-164.065
X196.89Y-156.445
X196.89Y-164.065
X199.43Y-156.445
X199.43Y-164.065
X201.97Y-156.445
X201.97Y-164.065
X204.51Y-156.445
X204.51Y-164.065
X207.05Y-156.445
X207.05Y-164.065
X207.3Y-167.725
X209.59Y-156.445
X209.59Y-164.065
X209.8Y-167.725
X212.13Y-156.445
X212.13Y-164.065
X214.67Y-156.445
X214.67Y-164.065
X217.21Y-156.445
X217.21Y-164.065
X219.75Y-156.445
X219.75Y-164.065
X225.04Y-156.505
X225.04Y-164.125
T3
X186.5Y-139.91
X186.5Y-142.41
X186.5Y-144.91
X196.43Y-63.39
X198.97Y-63.39
X201.0Y-139.91
X201.0Y-144.91
X201.51Y-63.39
X204.05Y-63.39
X206.59Y-63.39
X209.13Y-63.39
X211.39Y-139.91
X211.39Y-142.41
X211.39Y-144.91
X211.67Y-63.39
X214.21Y-63.39
X216.75Y-63.39
X225.89Y-139.91
X225.89Y-144.91
T4
X105.97Y-91.97
X105.97Y-165.47
X109.47Y-165.47
X121.323Y-92.08
X121.323Y-165.58
X124.823Y-165.58
X136.677Y-92.14
X136.677Y-165.64
X140.177Y-165.64
X152.03Y-92.14
X152.03Y-165.64
X155.53Y-165.64
X167.383Y-92.21
X167.383Y-165.71
X170.883Y-165.71
T5
X237.04Y-125.25
X237.06Y-68.01
X237.06Y-87.1
X237.06Y-106.19
X237.06Y-144.31
X237.06Y-163.37
X243.39Y-122.71
X243.41Y-65.47
X243.41Y-84.56
X243.41Y-103.65
X243.41Y-141.77
X243.41Y-160.83
X256.02Y-144.29
X256.02Y-163.36
X256.06Y-106.18
X256.06Y-125.22
X256.07Y-68.05
X256.07Y-87.11
X262.37Y-141.75
X262.37Y-160.82
X262.41Y-103.64
X262.41Y-122.68
X262.42Y-65.51
X262.42Y-84.57
X275.1Y-68.05
X275.1Y-163.35
X275.11Y-144.3
X275.13Y-87.15
X275.13Y-106.2
X275.14Y-125.24
X281.45Y-65.51
X281.45Y-160.81
X281.46Y-141.76
X281.48Y-84.61
X281.48Y-103.66
X281.49Y-122.7
T6
X103.52Y-97.32
X103.52Y-160.12
X111.92Y-96.12
X111.92Y-161.32
X118.873Y-97.43
X118.873Y-160.23
X127.273Y-96.23
X127.273Y-161.43
X134.227Y-97.49
X134.227Y-160.29
X142.627Y-96.29
X142.627Y-161.49
X149.58Y-97.49
X149.58Y-160.29
X157.98Y-96.29
X157.98Y-161.49
X164.933Y-97.56
X164.933Y-160.36
X173.333Y-96.36
X173.333Y-161.56
T7
X235.77Y-127.79
X235.79Y-70.55
X235.79Y-89.64
X235.79Y-108.73
X235.79Y-146.85
X235.79Y-165.91
X245.93Y-127.79
X245.95Y-70.55
X245.95Y-89.64
X245.95Y-108.73
X245.95Y-146.85
X245.95Y-165.91
X254.75Y-146.83
X254.75Y-165.9
X254.79Y-108.72
X254.79Y-127.76
X254.8Y-70.59
X254.8Y-89.65
X264.91Y-146.83
X264.91Y-165.9
X264.95Y-108.72
X264.95Y-127.76
X264.96Y-70.59
X264.96Y-89.65
X273.83Y-70.59
X273.83Y-165.89
X273.84Y-146.84
X273.86Y-89.69
X273.86Y-108.74
X273.87Y-127.78
X283.99Y-70.59
X283.99Y-165.89
X284.0Y-146.84
X284.02Y-89.69
X284.02Y-108.74
X284.03Y-127.78
T8
X240.85Y-127.79
X240.87Y-70.55
X240.87Y-89.64
X240.87Y-108.73
X240.87Y-146.85
X240.87Y-165.91
X259.83Y-146.83
X259.83Y-165.9
X259.87Y-108.72
X259.87Y-127.76
X259.88Y-70.59
X259.88Y-89.65
X278.91Y-70.59
X278.91Y-165.89
X278.92Y-146.84
X278.94Y-89.69
X278.94Y-108.74
X278.95Y-127.78
T5
G00X193.35Y-136.81
M15
G01X194.65Y-136.81
M16
G05
G00X193.35Y-148.01
M15
G01X194.65Y-148.01
M16
G05
G00X218.24Y-136.81
M15
G01X219.54Y-136.81
M16
G05
G00X218.24Y-148.01
M15
G01X219.54Y-148.01
M16
G05
M30
