%TF.GenerationSoftware,KiCad,Pcbnew,9.0.6*%
%TF.CreationDate,2026-02-14T22:39:15+00:00*%
%TF.ProjectId,Custom-Mixer-ESP32,43757374-6f6d-42d4-9d69-7865722d4553,rev?*%
%TF.SameCoordinates,Original*%
%TF.FileFunction,Drillmap*%
%TF.FilePolarity,Positive*%
%FSLAX45Y45*%
G04 Gerber Fmt 4.5, Leading zero omitted, Abs format (unit mm)*
G04 Created by KiCad (PCBNEW 9.0.6) date 2026-02-14 22:39:15*
%MOMM*%
%LPD*%
G01*
G04 APERTURE LIST*
%ADD10C,0.050000*%
%ADD11C,0.200000*%
%ADD12C,0.100000*%
%ADD13C,0.120000*%
%ADD14C,0.150000*%
%ADD15C,0.170000*%
%ADD16C,0.400000*%
G04 APERTURE END LIST*
D10*
X9803000Y-5620000D02*
X29034000Y-5620000D01*
X29034000Y-17740000D01*
X9803000Y-17740000D01*
X9803000Y-5620000D01*
D11*
D12*
X11718420Y-8724000D02*
X11748420Y-8754000D01*
X11748420Y-8724000D02*
X11718420Y-8754000D01*
X12310240Y-5710910D02*
X12340240Y-5740910D01*
X12340240Y-5710910D02*
X12310240Y-5740910D01*
X12310240Y-7223450D02*
X12340240Y-7253450D01*
X12340240Y-7223450D02*
X12310240Y-7253450D01*
X12310240Y-14922050D02*
X12340240Y-14952050D01*
X12340240Y-14922050D02*
X12310240Y-14952050D01*
X13789790Y-8724000D02*
X13819790Y-8754000D01*
X13819790Y-8724000D02*
X13789790Y-8754000D01*
X14003310Y-13822110D02*
X14033310Y-13852110D01*
X14033310Y-13822110D02*
X14003310Y-13852110D01*
X14085700Y-13741700D02*
X14115700Y-13771700D01*
X14115700Y-13741700D02*
X14085700Y-13771700D01*
X14381610Y-13441550D02*
X14411610Y-13471550D01*
X14411610Y-13441550D02*
X14381610Y-13471550D01*
X14457660Y-13567710D02*
X14487660Y-13597710D01*
X14487660Y-13567710D02*
X14457660Y-13597710D01*
X14973430Y-13737650D02*
X15003430Y-13767650D01*
X15003430Y-13737650D02*
X14973430Y-13767650D01*
X15269340Y-14843020D02*
X15299340Y-14873020D01*
X15299340Y-14843020D02*
X15269340Y-14873020D01*
X15348320Y-13786560D02*
X15378320Y-13816560D01*
X15378320Y-13786560D02*
X15348320Y-13816560D01*
X15445150Y-14329850D02*
X15475150Y-14359850D01*
X15475150Y-14329850D02*
X15445150Y-14359850D01*
X16980090Y-16361500D02*
X17010090Y-16391500D01*
X17010090Y-16361500D02*
X16980090Y-16391500D01*
X17981000Y-14093000D02*
X18011000Y-14123000D01*
X18011000Y-14093000D02*
X17981000Y-14123000D01*
X18820260Y-13362520D02*
X18850260Y-13392520D01*
X18850260Y-13362520D02*
X18820260Y-13392520D01*
X18940000Y-6129000D02*
X18970000Y-6159000D01*
X18970000Y-6129000D02*
X18940000Y-6159000D01*
X18998610Y-13260130D02*
X19028610Y-13290130D01*
X19028610Y-13260130D02*
X18998610Y-13290130D01*
X19116170Y-13145290D02*
X19146170Y-13175290D01*
X19146170Y-13145290D02*
X19116170Y-13175290D01*
X19116170Y-16698650D02*
X19146170Y-16728650D01*
X19146170Y-16698650D02*
X19116170Y-16728650D01*
X19242000Y-14438000D02*
X19272000Y-14468000D01*
X19272000Y-14438000D02*
X19242000Y-14468000D01*
X19616120Y-16229270D02*
X19646120Y-16259270D01*
X19646120Y-16229270D02*
X19616120Y-16259270D01*
X19707990Y-15932390D02*
X19737990Y-15962390D01*
X19737990Y-15932390D02*
X19707990Y-15962390D01*
X19837000Y-14478000D02*
X19867000Y-14508000D01*
X19867000Y-14478000D02*
X19837000Y-14508000D01*
X19843450Y-14635570D02*
X19873450Y-14665570D01*
X19873450Y-14635570D02*
X19843450Y-14665570D01*
X19909450Y-14706310D02*
X19939450Y-14736310D01*
X19939450Y-14706310D02*
X19909450Y-14736310D01*
X20230480Y-14999070D02*
X20260480Y-15029070D01*
X20260480Y-14999070D02*
X20230480Y-15029070D01*
X20595720Y-16042870D02*
X20625720Y-16072870D01*
X20625720Y-16042870D02*
X20595720Y-16072870D01*
X20756000Y-15096000D02*
X20786000Y-15126000D01*
X20786000Y-15096000D02*
X20756000Y-15126000D01*
X20891630Y-6561770D02*
X20921630Y-6591770D01*
X20921630Y-6561770D02*
X20891630Y-6591770D01*
X21187540Y-6637610D02*
X21217540Y-6667610D01*
X21217540Y-6637610D02*
X21187540Y-6667610D01*
X21410000Y-15358000D02*
X21440000Y-15388000D01*
X21440000Y-15358000D02*
X21410000Y-15388000D01*
X22963000Y-15514250D02*
X22993000Y-15544250D01*
X22993000Y-15514250D02*
X22963000Y-15544250D01*
X22963000Y-15796030D02*
X22993000Y-15826030D01*
X22993000Y-15796030D02*
X22963000Y-15826030D01*
X23160090Y-15876130D02*
X23190090Y-15906130D01*
X23190090Y-15876130D02*
X23160090Y-15906130D01*
X23264140Y-15896380D02*
X23294140Y-15926380D01*
X23294140Y-15896380D02*
X23264140Y-15926380D01*
X23367240Y-13281810D02*
X23397240Y-13311810D01*
X23397240Y-13281810D02*
X23367240Y-13311810D01*
X24513250Y-16106450D02*
X24543250Y-16136450D01*
X24543250Y-16106450D02*
X24513250Y-16136450D01*
X24514470Y-13165210D02*
X24544470Y-13195210D01*
X24544470Y-13165210D02*
X24514470Y-13195210D01*
X25290330Y-16422160D02*
X25320330Y-16452160D01*
X25320330Y-16422160D02*
X25290330Y-16452160D01*
X25823100Y-15842130D02*
X25853100Y-15872130D01*
X25853100Y-15842130D02*
X25823100Y-15872130D01*
X26473480Y-15002920D02*
X26503480Y-15032920D01*
X26503480Y-15002920D02*
X26473480Y-15032920D01*
X26843420Y-14922050D02*
X26873420Y-14952050D01*
X26873420Y-14922050D02*
X26843420Y-14952050D01*
X27335130Y-15847910D02*
X27365130Y-15877910D01*
X27365130Y-15847910D02*
X27335130Y-15877910D01*
X10719000Y-16992000D02*
G75*
G02*
X10639000Y-16992000I-40000J0D01*
G01*
X10639000Y-16992000D02*
G75*
G02*
X10719000Y-16992000I40000J0D01*
G01*
X10839000Y-8511000D02*
G75*
G02*
X10759000Y-8511000I-40000J0D01*
G01*
X10759000Y-8511000D02*
G75*
G02*
X10839000Y-8511000I40000J0D01*
G01*
X10839272Y-5970632D02*
G75*
G02*
X10759272Y-5970632I-40000J0D01*
G01*
X10759272Y-5970632D02*
G75*
G02*
X10839272Y-5970632I40000J0D01*
G01*
X10969000Y-16992000D02*
G75*
G02*
X10889000Y-16992000I-40000J0D01*
G01*
X10889000Y-16992000D02*
G75*
G02*
X10969000Y-16992000I40000J0D01*
G01*
X11093000Y-8511000D02*
G75*
G02*
X11013000Y-8511000I-40000J0D01*
G01*
X11013000Y-8511000D02*
G75*
G02*
X11093000Y-8511000I40000J0D01*
G01*
X11093272Y-5970632D02*
G75*
G02*
X11013272Y-5970632I-40000J0D01*
G01*
X11013272Y-5970632D02*
G75*
G02*
X11093272Y-5970632I40000J0D01*
G01*
X11347000Y-8511000D02*
G75*
G02*
X11267000Y-8511000I-40000J0D01*
G01*
X11267000Y-8511000D02*
G75*
G02*
X11347000Y-8511000I40000J0D01*
G01*
X11347272Y-5970632D02*
G75*
G02*
X11267272Y-5970632I-40000J0D01*
G01*
X11267272Y-5970632D02*
G75*
G02*
X11347272Y-5970632I40000J0D01*
G01*
X11601000Y-5971000D02*
G75*
G02*
X11521000Y-5971000I-40000J0D01*
G01*
X11521000Y-5971000D02*
G75*
G02*
X11601000Y-5971000I40000J0D01*
G01*
X11601000Y-8511000D02*
G75*
G02*
X11521000Y-8511000I-40000J0D01*
G01*
X11521000Y-8511000D02*
G75*
G02*
X11601000Y-8511000I40000J0D01*
G01*
X11855000Y-5971000D02*
G75*
G02*
X11775000Y-5971000I-40000J0D01*
G01*
X11775000Y-5971000D02*
G75*
G02*
X11855000Y-5971000I40000J0D01*
G01*
X11855000Y-8511000D02*
G75*
G02*
X11775000Y-8511000I-40000J0D01*
G01*
X11775000Y-8511000D02*
G75*
G02*
X11855000Y-8511000I40000J0D01*
G01*
X12109000Y-5971000D02*
G75*
G02*
X12029000Y-5971000I-40000J0D01*
G01*
X12029000Y-5971000D02*
G75*
G02*
X12109000Y-5971000I40000J0D01*
G01*
X12109000Y-8511000D02*
G75*
G02*
X12029000Y-8511000I-40000J0D01*
G01*
X12029000Y-8511000D02*
G75*
G02*
X12109000Y-8511000I40000J0D01*
G01*
X12254330Y-16992000D02*
G75*
G02*
X12174330Y-16992000I-40000J0D01*
G01*
X12174330Y-16992000D02*
G75*
G02*
X12254330Y-16992000I40000J0D01*
G01*
X12363000Y-5971000D02*
G75*
G02*
X12283000Y-5971000I-40000J0D01*
G01*
X12283000Y-5971000D02*
G75*
G02*
X12363000Y-5971000I40000J0D01*
G01*
X12363000Y-8511000D02*
G75*
G02*
X12283000Y-8511000I-40000J0D01*
G01*
X12283000Y-8511000D02*
G75*
G02*
X12363000Y-8511000I40000J0D01*
G01*
X12504330Y-16992000D02*
G75*
G02*
X12424330Y-16992000I-40000J0D01*
G01*
X12424330Y-16992000D02*
G75*
G02*
X12504330Y-16992000I40000J0D01*
G01*
X12617000Y-5971000D02*
G75*
G02*
X12537000Y-5971000I-40000J0D01*
G01*
X12537000Y-5971000D02*
G75*
G02*
X12617000Y-5971000I40000J0D01*
G01*
X12617000Y-8511000D02*
G75*
G02*
X12537000Y-8511000I-40000J0D01*
G01*
X12537000Y-8511000D02*
G75*
G02*
X12617000Y-8511000I40000J0D01*
G01*
X12871000Y-5971000D02*
G75*
G02*
X12791000Y-5971000I-40000J0D01*
G01*
X12791000Y-5971000D02*
G75*
G02*
X12871000Y-5971000I40000J0D01*
G01*
X12871000Y-8511000D02*
G75*
G02*
X12791000Y-8511000I-40000J0D01*
G01*
X12791000Y-8511000D02*
G75*
G02*
X12871000Y-8511000I40000J0D01*
G01*
X13125000Y-5971000D02*
G75*
G02*
X13045000Y-5971000I-40000J0D01*
G01*
X13045000Y-5971000D02*
G75*
G02*
X13125000Y-5971000I40000J0D01*
G01*
X13125000Y-8511000D02*
G75*
G02*
X13045000Y-8511000I-40000J0D01*
G01*
X13045000Y-8511000D02*
G75*
G02*
X13125000Y-8511000I40000J0D01*
G01*
X13379000Y-5971000D02*
G75*
G02*
X13299000Y-5971000I-40000J0D01*
G01*
X13299000Y-5971000D02*
G75*
G02*
X13379000Y-5971000I40000J0D01*
G01*
X13379000Y-8511000D02*
G75*
G02*
X13299000Y-8511000I-40000J0D01*
G01*
X13299000Y-8511000D02*
G75*
G02*
X13379000Y-8511000I40000J0D01*
G01*
X13633000Y-5971000D02*
G75*
G02*
X13553000Y-5971000I-40000J0D01*
G01*
X13553000Y-5971000D02*
G75*
G02*
X13633000Y-5971000I40000J0D01*
G01*
X13633000Y-8511000D02*
G75*
G02*
X13553000Y-8511000I-40000J0D01*
G01*
X13553000Y-8511000D02*
G75*
G02*
X13633000Y-8511000I40000J0D01*
G01*
X13789670Y-16992000D02*
G75*
G02*
X13709670Y-16992000I-40000J0D01*
G01*
X13709670Y-16992000D02*
G75*
G02*
X13789670Y-16992000I40000J0D01*
G01*
X13887000Y-5971000D02*
G75*
G02*
X13807000Y-5971000I-40000J0D01*
G01*
X13807000Y-5971000D02*
G75*
G02*
X13887000Y-5971000I40000J0D01*
G01*
X13887000Y-8511000D02*
G75*
G02*
X13807000Y-8511000I-40000J0D01*
G01*
X13807000Y-8511000D02*
G75*
G02*
X13887000Y-8511000I40000J0D01*
G01*
X14039670Y-16992000D02*
G75*
G02*
X13959670Y-16992000I-40000J0D01*
G01*
X13959670Y-16992000D02*
G75*
G02*
X14039670Y-16992000I40000J0D01*
G01*
X14141000Y-5971000D02*
G75*
G02*
X14061000Y-5971000I-40000J0D01*
G01*
X14061000Y-5971000D02*
G75*
G02*
X14141000Y-5971000I40000J0D01*
G01*
X14141000Y-8511000D02*
G75*
G02*
X14061000Y-8511000I-40000J0D01*
G01*
X14061000Y-8511000D02*
G75*
G02*
X14141000Y-8511000I40000J0D01*
G01*
X14395000Y-5971000D02*
G75*
G02*
X14315000Y-5971000I-40000J0D01*
G01*
X14315000Y-5971000D02*
G75*
G02*
X14395000Y-5971000I40000J0D01*
G01*
X14395000Y-8511000D02*
G75*
G02*
X14315000Y-8511000I-40000J0D01*
G01*
X14315000Y-8511000D02*
G75*
G02*
X14395000Y-8511000I40000J0D01*
G01*
X14649000Y-5971000D02*
G75*
G02*
X14569000Y-5971000I-40000J0D01*
G01*
X14569000Y-5971000D02*
G75*
G02*
X14649000Y-5971000I40000J0D01*
G01*
X14649000Y-8511000D02*
G75*
G02*
X14569000Y-8511000I-40000J0D01*
G01*
X14569000Y-8511000D02*
G75*
G02*
X14649000Y-8511000I40000J0D01*
G01*
X14903000Y-5971000D02*
G75*
G02*
X14823000Y-5971000I-40000J0D01*
G01*
X14823000Y-5971000D02*
G75*
G02*
X14903000Y-5971000I40000J0D01*
G01*
X14903000Y-8511000D02*
G75*
G02*
X14823000Y-8511000I-40000J0D01*
G01*
X14823000Y-8511000D02*
G75*
G02*
X14903000Y-8511000I40000J0D01*
G01*
X15157000Y-5971000D02*
G75*
G02*
X15077000Y-5971000I-40000J0D01*
G01*
X15077000Y-5971000D02*
G75*
G02*
X15157000Y-5971000I40000J0D01*
G01*
X15157000Y-8511000D02*
G75*
G02*
X15077000Y-8511000I-40000J0D01*
G01*
X15077000Y-8511000D02*
G75*
G02*
X15157000Y-8511000I40000J0D01*
G01*
X15325000Y-16992000D02*
G75*
G02*
X15245000Y-16992000I-40000J0D01*
G01*
X15245000Y-16992000D02*
G75*
G02*
X15325000Y-16992000I40000J0D01*
G01*
X15411000Y-5971000D02*
G75*
G02*
X15331000Y-5971000I-40000J0D01*
G01*
X15331000Y-5971000D02*
G75*
G02*
X15411000Y-5971000I40000J0D01*
G01*
X15411000Y-8511000D02*
G75*
G02*
X15331000Y-8511000I-40000J0D01*
G01*
X15331000Y-8511000D02*
G75*
G02*
X15411000Y-8511000I40000J0D01*
G01*
X15575000Y-16992000D02*
G75*
G02*
X15495000Y-16992000I-40000J0D01*
G01*
X15495000Y-16992000D02*
G75*
G02*
X15575000Y-16992000I40000J0D01*
G01*
X15665000Y-5971000D02*
G75*
G02*
X15585000Y-5971000I-40000J0D01*
G01*
X15585000Y-5971000D02*
G75*
G02*
X15665000Y-5971000I40000J0D01*
G01*
X15665000Y-8511000D02*
G75*
G02*
X15585000Y-8511000I-40000J0D01*
G01*
X15585000Y-8511000D02*
G75*
G02*
X15665000Y-8511000I40000J0D01*
G01*
X15919000Y-5971000D02*
G75*
G02*
X15839000Y-5971000I-40000J0D01*
G01*
X15839000Y-5971000D02*
G75*
G02*
X15919000Y-5971000I40000J0D01*
G01*
X15919000Y-8511000D02*
G75*
G02*
X15839000Y-8511000I-40000J0D01*
G01*
X15839000Y-8511000D02*
G75*
G02*
X15919000Y-8511000I40000J0D01*
G01*
X16173000Y-5971000D02*
G75*
G02*
X16093000Y-5971000I-40000J0D01*
G01*
X16093000Y-5971000D02*
G75*
G02*
X16173000Y-5971000I40000J0D01*
G01*
X16173000Y-8511000D02*
G75*
G02*
X16093000Y-8511000I-40000J0D01*
G01*
X16093000Y-8511000D02*
G75*
G02*
X16173000Y-8511000I40000J0D01*
G01*
X16860330Y-16992000D02*
G75*
G02*
X16780330Y-16992000I-40000J0D01*
G01*
X16780330Y-16992000D02*
G75*
G02*
X16860330Y-16992000I40000J0D01*
G01*
X17110330Y-16992000D02*
G75*
G02*
X17030330Y-16992000I-40000J0D01*
G01*
X17030330Y-16992000D02*
G75*
G02*
X17110330Y-16992000I40000J0D01*
G01*
X17271760Y-8400000D02*
G75*
G02*
X17191760Y-8400000I-40000J0D01*
G01*
X17191760Y-8400000D02*
G75*
G02*
X17271760Y-8400000I40000J0D01*
G01*
X17340000Y-7550000D02*
G75*
G02*
X17260000Y-7550000I-40000J0D01*
G01*
X17260000Y-7550000D02*
G75*
G02*
X17340000Y-7550000I40000J0D01*
G01*
X17387000Y-6153000D02*
G75*
G02*
X17307000Y-6153000I-40000J0D01*
G01*
X17307000Y-6153000D02*
G75*
G02*
X17387000Y-6153000I40000J0D01*
G01*
X17387000Y-6915000D02*
G75*
G02*
X17307000Y-6915000I-40000J0D01*
G01*
X17307000Y-6915000D02*
G75*
G02*
X17387000Y-6915000I40000J0D01*
G01*
X17521760Y-8400000D02*
G75*
G02*
X17441760Y-8400000I-40000J0D01*
G01*
X17441760Y-8400000D02*
G75*
G02*
X17521760Y-8400000I40000J0D01*
G01*
X17590000Y-7550000D02*
G75*
G02*
X17510000Y-7550000I-40000J0D01*
G01*
X17510000Y-7550000D02*
G75*
G02*
X17590000Y-7550000I40000J0D01*
G01*
X17937000Y-6153000D02*
G75*
G02*
X17857000Y-6153000I-40000J0D01*
G01*
X17857000Y-6153000D02*
G75*
G02*
X17937000Y-6153000I40000J0D01*
G01*
X17937000Y-6915000D02*
G75*
G02*
X17857000Y-6915000I-40000J0D01*
G01*
X17857000Y-6915000D02*
G75*
G02*
X17937000Y-6915000I40000J0D01*
G01*
X18713000Y-15644500D02*
G75*
G02*
X18633000Y-15644500I-40000J0D01*
G01*
X18633000Y-15644500D02*
G75*
G02*
X18713000Y-15644500I40000J0D01*
G01*
X18713000Y-16406500D02*
G75*
G02*
X18633000Y-16406500I-40000J0D01*
G01*
X18633000Y-16406500D02*
G75*
G02*
X18713000Y-16406500I40000J0D01*
G01*
X18967000Y-15644500D02*
G75*
G02*
X18887000Y-15644500I-40000J0D01*
G01*
X18887000Y-15644500D02*
G75*
G02*
X18967000Y-15644500I40000J0D01*
G01*
X18967000Y-16406500D02*
G75*
G02*
X18887000Y-16406500I-40000J0D01*
G01*
X18887000Y-16406500D02*
G75*
G02*
X18967000Y-16406500I40000J0D01*
G01*
X19221000Y-15644500D02*
G75*
G02*
X19141000Y-15644500I-40000J0D01*
G01*
X19141000Y-15644500D02*
G75*
G02*
X19221000Y-15644500I40000J0D01*
G01*
X19221000Y-16406500D02*
G75*
G02*
X19141000Y-16406500I-40000J0D01*
G01*
X19141000Y-16406500D02*
G75*
G02*
X19221000Y-16406500I40000J0D01*
G01*
X19475000Y-15644500D02*
G75*
G02*
X19395000Y-15644500I-40000J0D01*
G01*
X19395000Y-15644500D02*
G75*
G02*
X19475000Y-15644500I40000J0D01*
G01*
X19475000Y-16406500D02*
G75*
G02*
X19395000Y-16406500I-40000J0D01*
G01*
X19395000Y-16406500D02*
G75*
G02*
X19475000Y-16406500I40000J0D01*
G01*
X19729000Y-15644500D02*
G75*
G02*
X19649000Y-15644500I-40000J0D01*
G01*
X19649000Y-15644500D02*
G75*
G02*
X19729000Y-15644500I40000J0D01*
G01*
X19729000Y-16406500D02*
G75*
G02*
X19649000Y-16406500I-40000J0D01*
G01*
X19649000Y-16406500D02*
G75*
G02*
X19729000Y-16406500I40000J0D01*
G01*
X19983000Y-15644500D02*
G75*
G02*
X19903000Y-15644500I-40000J0D01*
G01*
X19903000Y-15644500D02*
G75*
G02*
X19983000Y-15644500I40000J0D01*
G01*
X19983000Y-16406500D02*
G75*
G02*
X19903000Y-16406500I-40000J0D01*
G01*
X19903000Y-16406500D02*
G75*
G02*
X19983000Y-16406500I40000J0D01*
G01*
X20237000Y-15644500D02*
G75*
G02*
X20157000Y-15644500I-40000J0D01*
G01*
X20157000Y-15644500D02*
G75*
G02*
X20237000Y-15644500I40000J0D01*
G01*
X20237000Y-16406500D02*
G75*
G02*
X20157000Y-16406500I-40000J0D01*
G01*
X20157000Y-16406500D02*
G75*
G02*
X20237000Y-16406500I40000J0D01*
G01*
X20491000Y-15644500D02*
G75*
G02*
X20411000Y-15644500I-40000J0D01*
G01*
X20411000Y-15644500D02*
G75*
G02*
X20491000Y-15644500I40000J0D01*
G01*
X20491000Y-16406500D02*
G75*
G02*
X20411000Y-16406500I-40000J0D01*
G01*
X20411000Y-16406500D02*
G75*
G02*
X20491000Y-16406500I40000J0D01*
G01*
X20745000Y-15644500D02*
G75*
G02*
X20665000Y-15644500I-40000J0D01*
G01*
X20665000Y-15644500D02*
G75*
G02*
X20745000Y-15644500I40000J0D01*
G01*
X20745000Y-16406500D02*
G75*
G02*
X20665000Y-16406500I-40000J0D01*
G01*
X20665000Y-16406500D02*
G75*
G02*
X20745000Y-16406500I40000J0D01*
G01*
X20770000Y-16772500D02*
G75*
G02*
X20690000Y-16772500I-40000J0D01*
G01*
X20690000Y-16772500D02*
G75*
G02*
X20770000Y-16772500I40000J0D01*
G01*
X20999000Y-15644500D02*
G75*
G02*
X20919000Y-15644500I-40000J0D01*
G01*
X20919000Y-15644500D02*
G75*
G02*
X20999000Y-15644500I40000J0D01*
G01*
X20999000Y-16406500D02*
G75*
G02*
X20919000Y-16406500I-40000J0D01*
G01*
X20919000Y-16406500D02*
G75*
G02*
X20999000Y-16406500I40000J0D01*
G01*
X21020000Y-16772500D02*
G75*
G02*
X20940000Y-16772500I-40000J0D01*
G01*
X20940000Y-16772500D02*
G75*
G02*
X21020000Y-16772500I40000J0D01*
G01*
X21253000Y-15644500D02*
G75*
G02*
X21173000Y-15644500I-40000J0D01*
G01*
X21173000Y-15644500D02*
G75*
G02*
X21253000Y-15644500I40000J0D01*
G01*
X21253000Y-16406500D02*
G75*
G02*
X21173000Y-16406500I-40000J0D01*
G01*
X21173000Y-16406500D02*
G75*
G02*
X21253000Y-16406500I40000J0D01*
G01*
X21507000Y-15644500D02*
G75*
G02*
X21427000Y-15644500I-40000J0D01*
G01*
X21427000Y-15644500D02*
G75*
G02*
X21507000Y-15644500I40000J0D01*
G01*
X21507000Y-16406500D02*
G75*
G02*
X21427000Y-16406500I-40000J0D01*
G01*
X21427000Y-16406500D02*
G75*
G02*
X21507000Y-16406500I40000J0D01*
G01*
X21761000Y-15644500D02*
G75*
G02*
X21681000Y-15644500I-40000J0D01*
G01*
X21681000Y-15644500D02*
G75*
G02*
X21761000Y-15644500I40000J0D01*
G01*
X21761000Y-16406500D02*
G75*
G02*
X21681000Y-16406500I-40000J0D01*
G01*
X21681000Y-16406500D02*
G75*
G02*
X21761000Y-16406500I40000J0D01*
G01*
X22015000Y-15644500D02*
G75*
G02*
X21935000Y-15644500I-40000J0D01*
G01*
X21935000Y-15644500D02*
G75*
G02*
X22015000Y-15644500I40000J0D01*
G01*
X22015000Y-16406500D02*
G75*
G02*
X21935000Y-16406500I-40000J0D01*
G01*
X21935000Y-16406500D02*
G75*
G02*
X22015000Y-16406500I40000J0D01*
G01*
X22544000Y-15650500D02*
G75*
G02*
X22464000Y-15650500I-40000J0D01*
G01*
X22464000Y-15650500D02*
G75*
G02*
X22544000Y-15650500I40000J0D01*
G01*
X22544000Y-16412500D02*
G75*
G02*
X22464000Y-16412500I-40000J0D01*
G01*
X22464000Y-16412500D02*
G75*
G02*
X22544000Y-16412500I40000J0D01*
G01*
X18650000Y-13941000D02*
X18650000Y-14041000D01*
X18600000Y-13991000D02*
X18700000Y-13991000D01*
X18650000Y-14191000D02*
X18650000Y-14291000D01*
X18600000Y-14241000D02*
X18700000Y-14241000D01*
X18650000Y-14441000D02*
X18650000Y-14541000D01*
X18600000Y-14491000D02*
X18700000Y-14491000D01*
X19643000Y-6289000D02*
X19643000Y-6389000D01*
X19593000Y-6339000D02*
X19693000Y-6339000D01*
X19897000Y-6289000D02*
X19897000Y-6389000D01*
X19847000Y-6339000D02*
X19947000Y-6339000D01*
X20100000Y-13941000D02*
X20100000Y-14041000D01*
X20050000Y-13991000D02*
X20150000Y-13991000D01*
X20100000Y-14441000D02*
X20100000Y-14541000D01*
X20050000Y-14491000D02*
X20150000Y-14491000D01*
X20151000Y-6289000D02*
X20151000Y-6389000D01*
X20101000Y-6339000D02*
X20201000Y-6339000D01*
X20405000Y-6289000D02*
X20405000Y-6389000D01*
X20355000Y-6339000D02*
X20455000Y-6339000D01*
X20659000Y-6289000D02*
X20659000Y-6389000D01*
X20609000Y-6339000D02*
X20709000Y-6339000D01*
X20913000Y-6289000D02*
X20913000Y-6389000D01*
X20863000Y-6339000D02*
X20963000Y-6339000D01*
X21139000Y-13941000D02*
X21139000Y-14041000D01*
X21089000Y-13991000D02*
X21189000Y-13991000D01*
X21139000Y-14191000D02*
X21139000Y-14291000D01*
X21089000Y-14241000D02*
X21189000Y-14241000D01*
X21139000Y-14441000D02*
X21139000Y-14541000D01*
X21089000Y-14491000D02*
X21189000Y-14491000D01*
X21167000Y-6289000D02*
X21167000Y-6389000D01*
X21117000Y-6339000D02*
X21217000Y-6339000D01*
X21421000Y-6289000D02*
X21421000Y-6389000D01*
X21371000Y-6339000D02*
X21471000Y-6339000D01*
X21675000Y-6289000D02*
X21675000Y-6389000D01*
X21625000Y-6339000D02*
X21725000Y-6339000D01*
X22589000Y-13941000D02*
X22589000Y-14041000D01*
X22539000Y-13991000D02*
X22639000Y-13991000D01*
X22589000Y-14441000D02*
X22589000Y-14541000D01*
X22539000Y-14491000D02*
X22639000Y-14491000D01*
D13*
X10639427Y-9239427D02*
X10639427Y-9154573D01*
X10554573Y-9154573D01*
X10554573Y-9239427D01*
X10639427Y-9239427D01*
X10639427Y-16589427D02*
X10639427Y-16504573D01*
X10554573Y-16504573D01*
X10554573Y-16589427D01*
X10639427Y-16589427D01*
X10989427Y-16589427D02*
X10989427Y-16504573D01*
X10904573Y-16504573D01*
X10904573Y-16589427D01*
X10989427Y-16589427D01*
X12174757Y-9250427D02*
X12174757Y-9165573D01*
X12089903Y-9165573D01*
X12089903Y-9250427D01*
X12174757Y-9250427D01*
X12174757Y-16600427D02*
X12174757Y-16515573D01*
X12089903Y-16515573D01*
X12089903Y-16600427D01*
X12174757Y-16600427D01*
X12524757Y-16600427D02*
X12524757Y-16515573D01*
X12439903Y-16515573D01*
X12439903Y-16600427D01*
X12524757Y-16600427D01*
X13710097Y-9256427D02*
X13710097Y-9171573D01*
X13625243Y-9171573D01*
X13625243Y-9256427D01*
X13710097Y-9256427D01*
X13710097Y-16606427D02*
X13710097Y-16521573D01*
X13625243Y-16521573D01*
X13625243Y-16606427D01*
X13710097Y-16606427D01*
X14060097Y-16606427D02*
X14060097Y-16521573D01*
X13975243Y-16521573D01*
X13975243Y-16606427D01*
X14060097Y-16606427D01*
X15245427Y-9256427D02*
X15245427Y-9171573D01*
X15160573Y-9171573D01*
X15160573Y-9256427D01*
X15245427Y-9256427D01*
X15245427Y-16606427D02*
X15245427Y-16521573D01*
X15160573Y-16521573D01*
X15160573Y-16606427D01*
X15245427Y-16606427D01*
X15595427Y-16606427D02*
X15595427Y-16521573D01*
X15510573Y-16521573D01*
X15510573Y-16606427D01*
X15595427Y-16606427D01*
X16780757Y-9263427D02*
X16780757Y-9178573D01*
X16695903Y-9178573D01*
X16695903Y-9263427D01*
X16780757Y-9263427D01*
X16780757Y-16613427D02*
X16780757Y-16528573D01*
X16695903Y-16528573D01*
X16695903Y-16613427D01*
X16780757Y-16613427D01*
X17130757Y-16613427D02*
X17130757Y-16528573D01*
X17045903Y-16528573D01*
X17045903Y-16613427D01*
X17130757Y-16613427D01*
D14*
X19400000Y-13756000D02*
X19475000Y-13681000D01*
X19400000Y-13606000D01*
X19325000Y-13681000D01*
X19400000Y-13756000D01*
D12*
X19335000Y-13756000D02*
X19465000Y-13756000D01*
X19465000Y-13606000D02*
G75*
G02*
X19465000Y-13756000I0J-75000D01*
G01*
X19465000Y-13606000D02*
X19335000Y-13606000D01*
X19335000Y-13606000D02*
G75*
G03*
X19335000Y-13756000I0J-75000D01*
G01*
D14*
X19400000Y-14876000D02*
X19475000Y-14801000D01*
X19400000Y-14726000D01*
X19325000Y-14801000D01*
X19400000Y-14876000D01*
D12*
X19335000Y-14876000D02*
X19465000Y-14876000D01*
X19465000Y-14726000D02*
G75*
G02*
X19465000Y-14876000I0J-75000D01*
G01*
X19465000Y-14726000D02*
X19335000Y-14726000D01*
X19335000Y-14726000D02*
G75*
G03*
X19335000Y-14876000I0J-75000D01*
G01*
D14*
X21889000Y-13756000D02*
X21964000Y-13681000D01*
X21889000Y-13606000D01*
X21814000Y-13681000D01*
X21889000Y-13756000D01*
D12*
X21824000Y-13756000D02*
X21954000Y-13756000D01*
X21954000Y-13606000D02*
G75*
G02*
X21954000Y-13756000I0J-75000D01*
G01*
X21954000Y-13606000D02*
X21824000Y-13606000D01*
X21824000Y-13606000D02*
G75*
G03*
X21824000Y-13756000I0J-75000D01*
G01*
D14*
X21889000Y-14876000D02*
X21964000Y-14801000D01*
X21889000Y-14726000D01*
X21814000Y-14801000D01*
X21889000Y-14876000D01*
D12*
X21824000Y-14876000D02*
X21954000Y-14876000D01*
X21954000Y-14726000D02*
G75*
G02*
X21954000Y-14876000I0J-75000D01*
G01*
X21954000Y-14726000D02*
X21824000Y-14726000D01*
X21824000Y-14726000D02*
G75*
G03*
X21824000Y-14876000I0J-75000D01*
G01*
D14*
X23704000Y-12600000D02*
X23779000Y-12525000D01*
X23704000Y-12450000D01*
X23629000Y-12525000D01*
X23704000Y-12600000D01*
X23706000Y-6876000D02*
X23781000Y-6801000D01*
X23706000Y-6726000D01*
X23631000Y-6801000D01*
X23706000Y-6876000D01*
X23706000Y-8785000D02*
X23781000Y-8710000D01*
X23706000Y-8635000D01*
X23631000Y-8710000D01*
X23706000Y-8785000D01*
X23706000Y-10694000D02*
X23781000Y-10619000D01*
X23706000Y-10544000D01*
X23631000Y-10619000D01*
X23706000Y-10694000D01*
X23706000Y-14506000D02*
X23781000Y-14431000D01*
X23706000Y-14356000D01*
X23631000Y-14431000D01*
X23706000Y-14506000D01*
X23706000Y-16412000D02*
X23781000Y-16337000D01*
X23706000Y-16262000D01*
X23631000Y-16337000D01*
X23706000Y-16412000D01*
X24339000Y-12346000D02*
X24414000Y-12271000D01*
X24339000Y-12196000D01*
X24264000Y-12271000D01*
X24339000Y-12346000D01*
X24341000Y-6622000D02*
X24416000Y-6547000D01*
X24341000Y-6472000D01*
X24266000Y-6547000D01*
X24341000Y-6622000D01*
X24341000Y-8531000D02*
X24416000Y-8456000D01*
X24341000Y-8381000D01*
X24266000Y-8456000D01*
X24341000Y-8531000D01*
X24341000Y-10440000D02*
X24416000Y-10365000D01*
X24341000Y-10290000D01*
X24266000Y-10365000D01*
X24341000Y-10440000D01*
X24341000Y-14252000D02*
X24416000Y-14177000D01*
X24341000Y-14102000D01*
X24266000Y-14177000D01*
X24341000Y-14252000D01*
X24341000Y-16158000D02*
X24416000Y-16083000D01*
X24341000Y-16008000D01*
X24266000Y-16083000D01*
X24341000Y-16158000D01*
X25602000Y-14504000D02*
X25677000Y-14429000D01*
X25602000Y-14354000D01*
X25527000Y-14429000D01*
X25602000Y-14504000D01*
X25602000Y-16411000D02*
X25677000Y-16336000D01*
X25602000Y-16261000D01*
X25527000Y-16336000D01*
X25602000Y-16411000D01*
X25606000Y-10693000D02*
X25681000Y-10618000D01*
X25606000Y-10543000D01*
X25531000Y-10618000D01*
X25606000Y-10693000D01*
X25606000Y-12597000D02*
X25681000Y-12522000D01*
X25606000Y-12447000D01*
X25531000Y-12522000D01*
X25606000Y-12597000D01*
X25607000Y-6880000D02*
X25682000Y-6805000D01*
X25607000Y-6730000D01*
X25532000Y-6805000D01*
X25607000Y-6880000D01*
X25607000Y-8786000D02*
X25682000Y-8711000D01*
X25607000Y-8636000D01*
X25532000Y-8711000D01*
X25607000Y-8786000D01*
X26237000Y-14250000D02*
X26312000Y-14175000D01*
X26237000Y-14100000D01*
X26162000Y-14175000D01*
X26237000Y-14250000D01*
X26237000Y-16157000D02*
X26312000Y-16082000D01*
X26237000Y-16007000D01*
X26162000Y-16082000D01*
X26237000Y-16157000D01*
X26241000Y-10439000D02*
X26316000Y-10364000D01*
X26241000Y-10289000D01*
X26166000Y-10364000D01*
X26241000Y-10439000D01*
X26241000Y-12343000D02*
X26316000Y-12268000D01*
X26241000Y-12193000D01*
X26166000Y-12268000D01*
X26241000Y-12343000D01*
X26242000Y-6626000D02*
X26317000Y-6551000D01*
X26242000Y-6476000D01*
X26167000Y-6551000D01*
X26242000Y-6626000D01*
X26242000Y-8532000D02*
X26317000Y-8457000D01*
X26242000Y-8382000D01*
X26167000Y-8457000D01*
X26242000Y-8532000D01*
X27510000Y-6880000D02*
X27585000Y-6805000D01*
X27510000Y-6730000D01*
X27435000Y-6805000D01*
X27510000Y-6880000D01*
X27510000Y-16410000D02*
X27585000Y-16335000D01*
X27510000Y-16260000D01*
X27435000Y-16335000D01*
X27510000Y-16410000D01*
X27511000Y-14505000D02*
X27586000Y-14430000D01*
X27511000Y-14355000D01*
X27436000Y-14430000D01*
X27511000Y-14505000D01*
X27513000Y-8790000D02*
X27588000Y-8715000D01*
X27513000Y-8640000D01*
X27438000Y-8715000D01*
X27513000Y-8790000D01*
X27513000Y-10695000D02*
X27588000Y-10620000D01*
X27513000Y-10545000D01*
X27438000Y-10620000D01*
X27513000Y-10695000D01*
X27514000Y-12599000D02*
X27589000Y-12524000D01*
X27514000Y-12449000D01*
X27439000Y-12524000D01*
X27514000Y-12599000D01*
X28145000Y-6626000D02*
X28220000Y-6551000D01*
X28145000Y-6476000D01*
X28070000Y-6551000D01*
X28145000Y-6626000D01*
X28145000Y-16156000D02*
X28220000Y-16081000D01*
X28145000Y-16006000D01*
X28070000Y-16081000D01*
X28145000Y-16156000D01*
X28146000Y-14251000D02*
X28221000Y-14176000D01*
X28146000Y-14101000D01*
X28071000Y-14176000D01*
X28146000Y-14251000D01*
X28148000Y-8536000D02*
X28223000Y-8461000D01*
X28148000Y-8386000D01*
X28073000Y-8461000D01*
X28148000Y-8536000D01*
X28148000Y-10441000D02*
X28223000Y-10366000D01*
X28148000Y-10291000D01*
X28073000Y-10366000D01*
X28148000Y-10441000D01*
X28149000Y-12345000D02*
X28224000Y-12270000D01*
X28149000Y-12195000D01*
X28074000Y-12270000D01*
X28149000Y-12345000D01*
D15*
X10267000Y-9647000D02*
X10437000Y-9817000D01*
X10437000Y-9647000D02*
X10267000Y-9817000D01*
X10437000Y-9732000D02*
G75*
G02*
X10267000Y-9732000I-85000J0D01*
G01*
X10267000Y-9732000D02*
G75*
G02*
X10437000Y-9732000I85000J0D01*
G01*
X10267000Y-15927000D02*
X10437000Y-16097000D01*
X10437000Y-15927000D02*
X10267000Y-16097000D01*
X10437000Y-16012000D02*
G75*
G02*
X10267000Y-16012000I-85000J0D01*
G01*
X10267000Y-16012000D02*
G75*
G02*
X10437000Y-16012000I85000J0D01*
G01*
X11107000Y-9527000D02*
X11277000Y-9697000D01*
X11277000Y-9527000D02*
X11107000Y-9697000D01*
X11277000Y-9612000D02*
G75*
G02*
X11107000Y-9612000I-85000J0D01*
G01*
X11107000Y-9612000D02*
G75*
G02*
X11277000Y-9612000I85000J0D01*
G01*
X11107000Y-16047000D02*
X11277000Y-16217000D01*
X11277000Y-16047000D02*
X11107000Y-16217000D01*
X11277000Y-16132000D02*
G75*
G02*
X11107000Y-16132000I-85000J0D01*
G01*
X11107000Y-16132000D02*
G75*
G02*
X11277000Y-16132000I85000J0D01*
G01*
X11802330Y-9658000D02*
X11972330Y-9828000D01*
X11972330Y-9658000D02*
X11802330Y-9828000D01*
X11972330Y-9743000D02*
G75*
G02*
X11802330Y-9743000I-85000J0D01*
G01*
X11802330Y-9743000D02*
G75*
G02*
X11972330Y-9743000I85000J0D01*
G01*
X11802330Y-15938000D02*
X11972330Y-16108000D01*
X11972330Y-15938000D02*
X11802330Y-16108000D01*
X11972330Y-16023000D02*
G75*
G02*
X11802330Y-16023000I-85000J0D01*
G01*
X11802330Y-16023000D02*
G75*
G02*
X11972330Y-16023000I85000J0D01*
G01*
X12642330Y-9538000D02*
X12812330Y-9708000D01*
X12812330Y-9538000D02*
X12642330Y-9708000D01*
X12812330Y-9623000D02*
G75*
G02*
X12642330Y-9623000I-85000J0D01*
G01*
X12642330Y-9623000D02*
G75*
G02*
X12812330Y-9623000I85000J0D01*
G01*
X12642330Y-16058000D02*
X12812330Y-16228000D01*
X12812330Y-16058000D02*
X12642330Y-16228000D01*
X12812330Y-16143000D02*
G75*
G02*
X12642330Y-16143000I-85000J0D01*
G01*
X12642330Y-16143000D02*
G75*
G02*
X12812330Y-16143000I85000J0D01*
G01*
X13337670Y-9664000D02*
X13507670Y-9834000D01*
X13507670Y-9664000D02*
X13337670Y-9834000D01*
X13507670Y-9749000D02*
G75*
G02*
X13337670Y-9749000I-85000J0D01*
G01*
X13337670Y-9749000D02*
G75*
G02*
X13507670Y-9749000I85000J0D01*
G01*
X13337670Y-15944000D02*
X13507670Y-16114000D01*
X13507670Y-15944000D02*
X13337670Y-16114000D01*
X13507670Y-16029000D02*
G75*
G02*
X13337670Y-16029000I-85000J0D01*
G01*
X13337670Y-16029000D02*
G75*
G02*
X13507670Y-16029000I85000J0D01*
G01*
X14177670Y-9544000D02*
X14347670Y-9714000D01*
X14347670Y-9544000D02*
X14177670Y-9714000D01*
X14347670Y-9629000D02*
G75*
G02*
X14177670Y-9629000I-85000J0D01*
G01*
X14177670Y-9629000D02*
G75*
G02*
X14347670Y-9629000I85000J0D01*
G01*
X14177670Y-16064000D02*
X14347670Y-16234000D01*
X14347670Y-16064000D02*
X14177670Y-16234000D01*
X14347670Y-16149000D02*
G75*
G02*
X14177670Y-16149000I-85000J0D01*
G01*
X14177670Y-16149000D02*
G75*
G02*
X14347670Y-16149000I85000J0D01*
G01*
X14873000Y-9664000D02*
X15043000Y-9834000D01*
X15043000Y-9664000D02*
X14873000Y-9834000D01*
X15043000Y-9749000D02*
G75*
G02*
X14873000Y-9749000I-85000J0D01*
G01*
X14873000Y-9749000D02*
G75*
G02*
X15043000Y-9749000I85000J0D01*
G01*
X14873000Y-15944000D02*
X15043000Y-16114000D01*
X15043000Y-15944000D02*
X14873000Y-16114000D01*
X15043000Y-16029000D02*
G75*
G02*
X14873000Y-16029000I-85000J0D01*
G01*
X14873000Y-16029000D02*
G75*
G02*
X15043000Y-16029000I85000J0D01*
G01*
X15713000Y-9544000D02*
X15883000Y-9714000D01*
X15883000Y-9544000D02*
X15713000Y-9714000D01*
X15883000Y-9629000D02*
G75*
G02*
X15713000Y-9629000I-85000J0D01*
G01*
X15713000Y-9629000D02*
G75*
G02*
X15883000Y-9629000I85000J0D01*
G01*
X15713000Y-16064000D02*
X15883000Y-16234000D01*
X15883000Y-16064000D02*
X15713000Y-16234000D01*
X15883000Y-16149000D02*
G75*
G02*
X15713000Y-16149000I-85000J0D01*
G01*
X15713000Y-16149000D02*
G75*
G02*
X15883000Y-16149000I85000J0D01*
G01*
X16408330Y-9671000D02*
X16578330Y-9841000D01*
X16578330Y-9671000D02*
X16408330Y-9841000D01*
X16578330Y-9756000D02*
G75*
G02*
X16408330Y-9756000I-85000J0D01*
G01*
X16408330Y-9756000D02*
G75*
G02*
X16578330Y-9756000I85000J0D01*
G01*
X16408330Y-15951000D02*
X16578330Y-16121000D01*
X16578330Y-15951000D02*
X16408330Y-16121000D01*
X16578330Y-16036000D02*
G75*
G02*
X16408330Y-16036000I-85000J0D01*
G01*
X16408330Y-16036000D02*
G75*
G02*
X16578330Y-16036000I85000J0D01*
G01*
X17248330Y-9551000D02*
X17418330Y-9721000D01*
X17418330Y-9551000D02*
X17248330Y-9721000D01*
X17418330Y-9636000D02*
G75*
G02*
X17248330Y-9636000I-85000J0D01*
G01*
X17248330Y-9636000D02*
G75*
G02*
X17418330Y-9636000I85000J0D01*
G01*
X17248330Y-16071000D02*
X17418330Y-16241000D01*
X17418330Y-16071000D02*
X17248330Y-16241000D01*
X17418330Y-16156000D02*
G75*
G02*
X17248330Y-16156000I-85000J0D01*
G01*
X17248330Y-16156000D02*
G75*
G02*
X17418330Y-16156000I85000J0D01*
G01*
X23492000Y-12694000D02*
X23662000Y-12864000D01*
X23662000Y-12694000D02*
X23492000Y-12864000D01*
X23577000Y-12694000D02*
X23577000Y-12864000D01*
X23492000Y-12779000D02*
X23662000Y-12779000D01*
X23494000Y-6970000D02*
X23664000Y-7140000D01*
X23664000Y-6970000D02*
X23494000Y-7140000D01*
X23579000Y-6970000D02*
X23579000Y-7140000D01*
X23494000Y-7055000D02*
X23664000Y-7055000D01*
X23494000Y-8879000D02*
X23664000Y-9049000D01*
X23664000Y-8879000D02*
X23494000Y-9049000D01*
X23579000Y-8879000D02*
X23579000Y-9049000D01*
X23494000Y-8964000D02*
X23664000Y-8964000D01*
X23494000Y-10788000D02*
X23664000Y-10958000D01*
X23664000Y-10788000D02*
X23494000Y-10958000D01*
X23579000Y-10788000D02*
X23579000Y-10958000D01*
X23494000Y-10873000D02*
X23664000Y-10873000D01*
X23494000Y-14600000D02*
X23664000Y-14770000D01*
X23664000Y-14600000D02*
X23494000Y-14770000D01*
X23579000Y-14600000D02*
X23579000Y-14770000D01*
X23494000Y-14685000D02*
X23664000Y-14685000D01*
X23494000Y-16506000D02*
X23664000Y-16676000D01*
X23664000Y-16506000D02*
X23494000Y-16676000D01*
X23579000Y-16506000D02*
X23579000Y-16676000D01*
X23494000Y-16591000D02*
X23664000Y-16591000D01*
X24508000Y-12694000D02*
X24678000Y-12864000D01*
X24678000Y-12694000D02*
X24508000Y-12864000D01*
X24593000Y-12694000D02*
X24593000Y-12864000D01*
X24508000Y-12779000D02*
X24678000Y-12779000D01*
X24510000Y-6970000D02*
X24680000Y-7140000D01*
X24680000Y-6970000D02*
X24510000Y-7140000D01*
X24595000Y-6970000D02*
X24595000Y-7140000D01*
X24510000Y-7055000D02*
X24680000Y-7055000D01*
X24510000Y-8879000D02*
X24680000Y-9049000D01*
X24680000Y-8879000D02*
X24510000Y-9049000D01*
X24595000Y-8879000D02*
X24595000Y-9049000D01*
X24510000Y-8964000D02*
X24680000Y-8964000D01*
X24510000Y-10788000D02*
X24680000Y-10958000D01*
X24680000Y-10788000D02*
X24510000Y-10958000D01*
X24595000Y-10788000D02*
X24595000Y-10958000D01*
X24510000Y-10873000D02*
X24680000Y-10873000D01*
X24510000Y-14600000D02*
X24680000Y-14770000D01*
X24680000Y-14600000D02*
X24510000Y-14770000D01*
X24595000Y-14600000D02*
X24595000Y-14770000D01*
X24510000Y-14685000D02*
X24680000Y-14685000D01*
X24510000Y-16506000D02*
X24680000Y-16676000D01*
X24680000Y-16506000D02*
X24510000Y-16676000D01*
X24595000Y-16506000D02*
X24595000Y-16676000D01*
X24510000Y-16591000D02*
X24680000Y-16591000D01*
X25390000Y-14598000D02*
X25560000Y-14768000D01*
X25560000Y-14598000D02*
X25390000Y-14768000D01*
X25475000Y-14598000D02*
X25475000Y-14768000D01*
X25390000Y-14683000D02*
X25560000Y-14683000D01*
X25390000Y-16505000D02*
X25560000Y-16675000D01*
X25560000Y-16505000D02*
X25390000Y-16675000D01*
X25475000Y-16505000D02*
X25475000Y-16675000D01*
X25390000Y-16590000D02*
X25560000Y-16590000D01*
X25394000Y-10787000D02*
X25564000Y-10957000D01*
X25564000Y-10787000D02*
X25394000Y-10957000D01*
X25479000Y-10787000D02*
X25479000Y-10957000D01*
X25394000Y-10872000D02*
X25564000Y-10872000D01*
X25394000Y-12691000D02*
X25564000Y-12861000D01*
X25564000Y-12691000D02*
X25394000Y-12861000D01*
X25479000Y-12691000D02*
X25479000Y-12861000D01*
X25394000Y-12776000D02*
X25564000Y-12776000D01*
X25395000Y-6974000D02*
X25565000Y-7144000D01*
X25565000Y-6974000D02*
X25395000Y-7144000D01*
X25480000Y-6974000D02*
X25480000Y-7144000D01*
X25395000Y-7059000D02*
X25565000Y-7059000D01*
X25395000Y-8880000D02*
X25565000Y-9050000D01*
X25565000Y-8880000D02*
X25395000Y-9050000D01*
X25480000Y-8880000D02*
X25480000Y-9050000D01*
X25395000Y-8965000D02*
X25565000Y-8965000D01*
X26406000Y-14598000D02*
X26576000Y-14768000D01*
X26576000Y-14598000D02*
X26406000Y-14768000D01*
X26491000Y-14598000D02*
X26491000Y-14768000D01*
X26406000Y-14683000D02*
X26576000Y-14683000D01*
X26406000Y-16505000D02*
X26576000Y-16675000D01*
X26576000Y-16505000D02*
X26406000Y-16675000D01*
X26491000Y-16505000D02*
X26491000Y-16675000D01*
X26406000Y-16590000D02*
X26576000Y-16590000D01*
X26410000Y-10787000D02*
X26580000Y-10957000D01*
X26580000Y-10787000D02*
X26410000Y-10957000D01*
X26495000Y-10787000D02*
X26495000Y-10957000D01*
X26410000Y-10872000D02*
X26580000Y-10872000D01*
X26410000Y-12691000D02*
X26580000Y-12861000D01*
X26580000Y-12691000D02*
X26410000Y-12861000D01*
X26495000Y-12691000D02*
X26495000Y-12861000D01*
X26410000Y-12776000D02*
X26580000Y-12776000D01*
X26411000Y-6974000D02*
X26581000Y-7144000D01*
X26581000Y-6974000D02*
X26411000Y-7144000D01*
X26496000Y-6974000D02*
X26496000Y-7144000D01*
X26411000Y-7059000D02*
X26581000Y-7059000D01*
X26411000Y-8880000D02*
X26581000Y-9050000D01*
X26581000Y-8880000D02*
X26411000Y-9050000D01*
X26496000Y-8880000D02*
X26496000Y-9050000D01*
X26411000Y-8965000D02*
X26581000Y-8965000D01*
X27298000Y-6974000D02*
X27468000Y-7144000D01*
X27468000Y-6974000D02*
X27298000Y-7144000D01*
X27383000Y-6974000D02*
X27383000Y-7144000D01*
X27298000Y-7059000D02*
X27468000Y-7059000D01*
X27298000Y-16504000D02*
X27468000Y-16674000D01*
X27468000Y-16504000D02*
X27298000Y-16674000D01*
X27383000Y-16504000D02*
X27383000Y-16674000D01*
X27298000Y-16589000D02*
X27468000Y-16589000D01*
X27299000Y-14599000D02*
X27469000Y-14769000D01*
X27469000Y-14599000D02*
X27299000Y-14769000D01*
X27384000Y-14599000D02*
X27384000Y-14769000D01*
X27299000Y-14684000D02*
X27469000Y-14684000D01*
X27301000Y-8884000D02*
X27471000Y-9054000D01*
X27471000Y-8884000D02*
X27301000Y-9054000D01*
X27386000Y-8884000D02*
X27386000Y-9054000D01*
X27301000Y-8969000D02*
X27471000Y-8969000D01*
X27301000Y-10789000D02*
X27471000Y-10959000D01*
X27471000Y-10789000D02*
X27301000Y-10959000D01*
X27386000Y-10789000D02*
X27386000Y-10959000D01*
X27301000Y-10874000D02*
X27471000Y-10874000D01*
X27302000Y-12693000D02*
X27472000Y-12863000D01*
X27472000Y-12693000D02*
X27302000Y-12863000D01*
X27387000Y-12693000D02*
X27387000Y-12863000D01*
X27302000Y-12778000D02*
X27472000Y-12778000D01*
X28314000Y-6974000D02*
X28484000Y-7144000D01*
X28484000Y-6974000D02*
X28314000Y-7144000D01*
X28399000Y-6974000D02*
X28399000Y-7144000D01*
X28314000Y-7059000D02*
X28484000Y-7059000D01*
X28314000Y-16504000D02*
X28484000Y-16674000D01*
X28484000Y-16504000D02*
X28314000Y-16674000D01*
X28399000Y-16504000D02*
X28399000Y-16674000D01*
X28314000Y-16589000D02*
X28484000Y-16589000D01*
X28315000Y-14599000D02*
X28485000Y-14769000D01*
X28485000Y-14599000D02*
X28315000Y-14769000D01*
X28400000Y-14599000D02*
X28400000Y-14769000D01*
X28315000Y-14684000D02*
X28485000Y-14684000D01*
X28317000Y-8884000D02*
X28487000Y-9054000D01*
X28487000Y-8884000D02*
X28317000Y-9054000D01*
X28402000Y-8884000D02*
X28402000Y-9054000D01*
X28317000Y-8969000D02*
X28487000Y-8969000D01*
X28317000Y-10789000D02*
X28487000Y-10959000D01*
X28487000Y-10789000D02*
X28317000Y-10959000D01*
X28402000Y-10789000D02*
X28402000Y-10959000D01*
X28317000Y-10874000D02*
X28487000Y-10874000D01*
X28318000Y-12693000D02*
X28488000Y-12863000D01*
X28488000Y-12693000D02*
X28318000Y-12863000D01*
X28403000Y-12693000D02*
X28403000Y-12863000D01*
X28318000Y-12778000D02*
X28488000Y-12778000D01*
D16*
X23885000Y-12579000D02*
X24285000Y-12979000D01*
X24285000Y-12579000D02*
X23885000Y-12979000D01*
X24226423Y-12920423D02*
X24226423Y-12637577D01*
X23943577Y-12637577D01*
X23943577Y-12920423D01*
X24226423Y-12920423D01*
X23887000Y-6855000D02*
X24287000Y-7255000D01*
X24287000Y-6855000D02*
X23887000Y-7255000D01*
X24228423Y-7196423D02*
X24228423Y-6913577D01*
X23945577Y-6913577D01*
X23945577Y-7196423D01*
X24228423Y-7196423D01*
X23887000Y-8764000D02*
X24287000Y-9164000D01*
X24287000Y-8764000D02*
X23887000Y-9164000D01*
X24228423Y-9105423D02*
X24228423Y-8822577D01*
X23945577Y-8822577D01*
X23945577Y-9105423D01*
X24228423Y-9105423D01*
X23887000Y-10673000D02*
X24287000Y-11073000D01*
X24287000Y-10673000D02*
X23887000Y-11073000D01*
X24228423Y-11014423D02*
X24228423Y-10731577D01*
X23945577Y-10731577D01*
X23945577Y-11014423D01*
X24228423Y-11014423D01*
X23887000Y-14485000D02*
X24287000Y-14885000D01*
X24287000Y-14485000D02*
X23887000Y-14885000D01*
X24228423Y-14826423D02*
X24228423Y-14543577D01*
X23945577Y-14543577D01*
X23945577Y-14826423D01*
X24228423Y-14826423D01*
X23887000Y-16391000D02*
X24287000Y-16791000D01*
X24287000Y-16391000D02*
X23887000Y-16791000D01*
X24228423Y-16732423D02*
X24228423Y-16449577D01*
X23945577Y-16449577D01*
X23945577Y-16732423D01*
X24228423Y-16732423D01*
X25783000Y-14483000D02*
X26183000Y-14883000D01*
X26183000Y-14483000D02*
X25783000Y-14883000D01*
X26124423Y-14824423D02*
X26124423Y-14541577D01*
X25841577Y-14541577D01*
X25841577Y-14824423D01*
X26124423Y-14824423D01*
X25783000Y-16390000D02*
X26183000Y-16790000D01*
X26183000Y-16390000D02*
X25783000Y-16790000D01*
X26124423Y-16731423D02*
X26124423Y-16448577D01*
X25841577Y-16448577D01*
X25841577Y-16731423D01*
X26124423Y-16731423D01*
X25787000Y-10672000D02*
X26187000Y-11072000D01*
X26187000Y-10672000D02*
X25787000Y-11072000D01*
X26128423Y-11013423D02*
X26128423Y-10730577D01*
X25845577Y-10730577D01*
X25845577Y-11013423D01*
X26128423Y-11013423D01*
X25787000Y-12576000D02*
X26187000Y-12976000D01*
X26187000Y-12576000D02*
X25787000Y-12976000D01*
X26128423Y-12917423D02*
X26128423Y-12634577D01*
X25845577Y-12634577D01*
X25845577Y-12917423D01*
X26128423Y-12917423D01*
X25788000Y-6859000D02*
X26188000Y-7259000D01*
X26188000Y-6859000D02*
X25788000Y-7259000D01*
X26129423Y-7200423D02*
X26129423Y-6917577D01*
X25846577Y-6917577D01*
X25846577Y-7200423D01*
X26129423Y-7200423D01*
X25788000Y-8765000D02*
X26188000Y-9165000D01*
X26188000Y-8765000D02*
X25788000Y-9165000D01*
X26129423Y-9106423D02*
X26129423Y-8823577D01*
X25846577Y-8823577D01*
X25846577Y-9106423D01*
X26129423Y-9106423D01*
X27691000Y-6859000D02*
X28091000Y-7259000D01*
X28091000Y-6859000D02*
X27691000Y-7259000D01*
X28032423Y-7200423D02*
X28032423Y-6917577D01*
X27749577Y-6917577D01*
X27749577Y-7200423D01*
X28032423Y-7200423D01*
X27691000Y-16389000D02*
X28091000Y-16789000D01*
X28091000Y-16389000D02*
X27691000Y-16789000D01*
X28032423Y-16730423D02*
X28032423Y-16447577D01*
X27749577Y-16447577D01*
X27749577Y-16730423D01*
X28032423Y-16730423D01*
X27692000Y-14484000D02*
X28092000Y-14884000D01*
X28092000Y-14484000D02*
X27692000Y-14884000D01*
X28033423Y-14825423D02*
X28033423Y-14542577D01*
X27750577Y-14542577D01*
X27750577Y-14825423D01*
X28033423Y-14825423D01*
X27694000Y-8769000D02*
X28094000Y-9169000D01*
X28094000Y-8769000D02*
X27694000Y-9169000D01*
X28035423Y-9110423D02*
X28035423Y-8827577D01*
X27752577Y-8827577D01*
X27752577Y-9110423D01*
X28035423Y-9110423D01*
X27694000Y-10674000D02*
X28094000Y-11074000D01*
X28094000Y-10674000D02*
X27694000Y-11074000D01*
X28035423Y-11015423D02*
X28035423Y-10732577D01*
X27752577Y-10732577D01*
X27752577Y-11015423D01*
X28035423Y-11015423D01*
X27695000Y-12578000D02*
X28095000Y-12978000D01*
X28095000Y-12578000D02*
X27695000Y-12978000D01*
X28036423Y-12919423D02*
X28036423Y-12636577D01*
X27753577Y-12636577D01*
X27753577Y-12919423D01*
X28036423Y-12919423D01*
D11*
X10061277Y-18053984D02*
X10061277Y-17853984D01*
X10061277Y-17853984D02*
X10108896Y-17853984D01*
X10108896Y-17853984D02*
X10137467Y-17863508D01*
X10137467Y-17863508D02*
X10156515Y-17882555D01*
X10156515Y-17882555D02*
X10166039Y-17901603D01*
X10166039Y-17901603D02*
X10175563Y-17939698D01*
X10175563Y-17939698D02*
X10175563Y-17968270D01*
X10175563Y-17968270D02*
X10166039Y-18006365D01*
X10166039Y-18006365D02*
X10156515Y-18025412D01*
X10156515Y-18025412D02*
X10137467Y-18044460D01*
X10137467Y-18044460D02*
X10108896Y-18053984D01*
X10108896Y-18053984D02*
X10061277Y-18053984D01*
X10261277Y-18053984D02*
X10261277Y-17920650D01*
X10261277Y-17958746D02*
X10270801Y-17939698D01*
X10270801Y-17939698D02*
X10280324Y-17930174D01*
X10280324Y-17930174D02*
X10299372Y-17920650D01*
X10299372Y-17920650D02*
X10318420Y-17920650D01*
X10385086Y-18053984D02*
X10385086Y-17920650D01*
X10385086Y-17853984D02*
X10375563Y-17863508D01*
X10375563Y-17863508D02*
X10385086Y-17873031D01*
X10385086Y-17873031D02*
X10394610Y-17863508D01*
X10394610Y-17863508D02*
X10385086Y-17853984D01*
X10385086Y-17853984D02*
X10385086Y-17873031D01*
X10508896Y-18053984D02*
X10489848Y-18044460D01*
X10489848Y-18044460D02*
X10480324Y-18025412D01*
X10480324Y-18025412D02*
X10480324Y-17853984D01*
X10613658Y-18053984D02*
X10594610Y-18044460D01*
X10594610Y-18044460D02*
X10585086Y-18025412D01*
X10585086Y-18025412D02*
X10585086Y-17853984D01*
X10842229Y-18053984D02*
X10842229Y-17853984D01*
X10842229Y-17853984D02*
X10908896Y-17996841D01*
X10908896Y-17996841D02*
X10975563Y-17853984D01*
X10975563Y-17853984D02*
X10975563Y-18053984D01*
X11156515Y-18053984D02*
X11156515Y-17949222D01*
X11156515Y-17949222D02*
X11146991Y-17930174D01*
X11146991Y-17930174D02*
X11127944Y-17920650D01*
X11127944Y-17920650D02*
X11089848Y-17920650D01*
X11089848Y-17920650D02*
X11070801Y-17930174D01*
X11156515Y-18044460D02*
X11137467Y-18053984D01*
X11137467Y-18053984D02*
X11089848Y-18053984D01*
X11089848Y-18053984D02*
X11070801Y-18044460D01*
X11070801Y-18044460D02*
X11061277Y-18025412D01*
X11061277Y-18025412D02*
X11061277Y-18006365D01*
X11061277Y-18006365D02*
X11070801Y-17987317D01*
X11070801Y-17987317D02*
X11089848Y-17977793D01*
X11089848Y-17977793D02*
X11137467Y-17977793D01*
X11137467Y-17977793D02*
X11156515Y-17968270D01*
X11251753Y-17920650D02*
X11251753Y-18120650D01*
X11251753Y-17930174D02*
X11270801Y-17920650D01*
X11270801Y-17920650D02*
X11308896Y-17920650D01*
X11308896Y-17920650D02*
X11327943Y-17930174D01*
X11327943Y-17930174D02*
X11337467Y-17939698D01*
X11337467Y-17939698D02*
X11346991Y-17958746D01*
X11346991Y-17958746D02*
X11346991Y-18015889D01*
X11346991Y-18015889D02*
X11337467Y-18034936D01*
X11337467Y-18034936D02*
X11327943Y-18044460D01*
X11327943Y-18044460D02*
X11308896Y-18053984D01*
X11308896Y-18053984D02*
X11270801Y-18053984D01*
X11270801Y-18053984D02*
X11251753Y-18044460D01*
X11432705Y-18034936D02*
X11442229Y-18044460D01*
X11442229Y-18044460D02*
X11432705Y-18053984D01*
X11432705Y-18053984D02*
X11423182Y-18044460D01*
X11423182Y-18044460D02*
X11432705Y-18034936D01*
X11432705Y-18034936D02*
X11432705Y-18053984D01*
X11432705Y-17930174D02*
X11442229Y-17939698D01*
X11442229Y-17939698D02*
X11432705Y-17949222D01*
X11432705Y-17949222D02*
X11423182Y-17939698D01*
X11423182Y-17939698D02*
X11432705Y-17930174D01*
X11432705Y-17930174D02*
X11432705Y-17949222D01*
D12*
X9770500Y-18367500D02*
X9800500Y-18397500D01*
X9800500Y-18367500D02*
X9770500Y-18397500D01*
D11*
X10099372Y-18273984D02*
X10118420Y-18273984D01*
X10118420Y-18273984D02*
X10137467Y-18283508D01*
X10137467Y-18283508D02*
X10146991Y-18293031D01*
X10146991Y-18293031D02*
X10156515Y-18312079D01*
X10156515Y-18312079D02*
X10166039Y-18350174D01*
X10166039Y-18350174D02*
X10166039Y-18397793D01*
X10166039Y-18397793D02*
X10156515Y-18435889D01*
X10156515Y-18435889D02*
X10146991Y-18454936D01*
X10146991Y-18454936D02*
X10137467Y-18464460D01*
X10137467Y-18464460D02*
X10118420Y-18473984D01*
X10118420Y-18473984D02*
X10099372Y-18473984D01*
X10099372Y-18473984D02*
X10080324Y-18464460D01*
X10080324Y-18464460D02*
X10070801Y-18454936D01*
X10070801Y-18454936D02*
X10061277Y-18435889D01*
X10061277Y-18435889D02*
X10051753Y-18397793D01*
X10051753Y-18397793D02*
X10051753Y-18350174D01*
X10051753Y-18350174D02*
X10061277Y-18312079D01*
X10061277Y-18312079D02*
X10070801Y-18293031D01*
X10070801Y-18293031D02*
X10080324Y-18283508D01*
X10080324Y-18283508D02*
X10099372Y-18273984D01*
X10251753Y-18454936D02*
X10261277Y-18464460D01*
X10261277Y-18464460D02*
X10251753Y-18473984D01*
X10251753Y-18473984D02*
X10242229Y-18464460D01*
X10242229Y-18464460D02*
X10251753Y-18454936D01*
X10251753Y-18454936D02*
X10251753Y-18473984D01*
X10327944Y-18273984D02*
X10451753Y-18273984D01*
X10451753Y-18273984D02*
X10385086Y-18350174D01*
X10385086Y-18350174D02*
X10413658Y-18350174D01*
X10413658Y-18350174D02*
X10432705Y-18359698D01*
X10432705Y-18359698D02*
X10442229Y-18369222D01*
X10442229Y-18369222D02*
X10451753Y-18388270D01*
X10451753Y-18388270D02*
X10451753Y-18435889D01*
X10451753Y-18435889D02*
X10442229Y-18454936D01*
X10442229Y-18454936D02*
X10432705Y-18464460D01*
X10432705Y-18464460D02*
X10413658Y-18473984D01*
X10413658Y-18473984D02*
X10356515Y-18473984D01*
X10356515Y-18473984D02*
X10337467Y-18464460D01*
X10337467Y-18464460D02*
X10327944Y-18454936D01*
X10575563Y-18273984D02*
X10594610Y-18273984D01*
X10594610Y-18273984D02*
X10613658Y-18283508D01*
X10613658Y-18283508D02*
X10623182Y-18293031D01*
X10623182Y-18293031D02*
X10632705Y-18312079D01*
X10632705Y-18312079D02*
X10642229Y-18350174D01*
X10642229Y-18350174D02*
X10642229Y-18397793D01*
X10642229Y-18397793D02*
X10632705Y-18435889D01*
X10632705Y-18435889D02*
X10623182Y-18454936D01*
X10623182Y-18454936D02*
X10613658Y-18464460D01*
X10613658Y-18464460D02*
X10594610Y-18473984D01*
X10594610Y-18473984D02*
X10575563Y-18473984D01*
X10575563Y-18473984D02*
X10556515Y-18464460D01*
X10556515Y-18464460D02*
X10546991Y-18454936D01*
X10546991Y-18454936D02*
X10537467Y-18435889D01*
X10537467Y-18435889D02*
X10527944Y-18397793D01*
X10527944Y-18397793D02*
X10527944Y-18350174D01*
X10527944Y-18350174D02*
X10537467Y-18312079D01*
X10537467Y-18312079D02*
X10546991Y-18293031D01*
X10546991Y-18293031D02*
X10556515Y-18283508D01*
X10556515Y-18283508D02*
X10575563Y-18273984D01*
X10766039Y-18273984D02*
X10785086Y-18273984D01*
X10785086Y-18273984D02*
X10804134Y-18283508D01*
X10804134Y-18283508D02*
X10813658Y-18293031D01*
X10813658Y-18293031D02*
X10823182Y-18312079D01*
X10823182Y-18312079D02*
X10832705Y-18350174D01*
X10832705Y-18350174D02*
X10832705Y-18397793D01*
X10832705Y-18397793D02*
X10823182Y-18435889D01*
X10823182Y-18435889D02*
X10813658Y-18454936D01*
X10813658Y-18454936D02*
X10804134Y-18464460D01*
X10804134Y-18464460D02*
X10785086Y-18473984D01*
X10785086Y-18473984D02*
X10766039Y-18473984D01*
X10766039Y-18473984D02*
X10746991Y-18464460D01*
X10746991Y-18464460D02*
X10737467Y-18454936D01*
X10737467Y-18454936D02*
X10727944Y-18435889D01*
X10727944Y-18435889D02*
X10718420Y-18397793D01*
X10718420Y-18397793D02*
X10718420Y-18350174D01*
X10718420Y-18350174D02*
X10727944Y-18312079D01*
X10727944Y-18312079D02*
X10737467Y-18293031D01*
X10737467Y-18293031D02*
X10746991Y-18283508D01*
X10746991Y-18283508D02*
X10766039Y-18273984D01*
X10918420Y-18473984D02*
X10918420Y-18340650D01*
X10918420Y-18359698D02*
X10927944Y-18350174D01*
X10927944Y-18350174D02*
X10946991Y-18340650D01*
X10946991Y-18340650D02*
X10975563Y-18340650D01*
X10975563Y-18340650D02*
X10994610Y-18350174D01*
X10994610Y-18350174D02*
X11004134Y-18369222D01*
X11004134Y-18369222D02*
X11004134Y-18473984D01*
X11004134Y-18369222D02*
X11013658Y-18350174D01*
X11013658Y-18350174D02*
X11032705Y-18340650D01*
X11032705Y-18340650D02*
X11061277Y-18340650D01*
X11061277Y-18340650D02*
X11080325Y-18350174D01*
X11080325Y-18350174D02*
X11089848Y-18369222D01*
X11089848Y-18369222D02*
X11089848Y-18473984D01*
X11185086Y-18473984D02*
X11185086Y-18340650D01*
X11185086Y-18359698D02*
X11194610Y-18350174D01*
X11194610Y-18350174D02*
X11213658Y-18340650D01*
X11213658Y-18340650D02*
X11242229Y-18340650D01*
X11242229Y-18340650D02*
X11261277Y-18350174D01*
X11261277Y-18350174D02*
X11270801Y-18369222D01*
X11270801Y-18369222D02*
X11270801Y-18473984D01*
X11270801Y-18369222D02*
X11280324Y-18350174D01*
X11280324Y-18350174D02*
X11299372Y-18340650D01*
X11299372Y-18340650D02*
X11327943Y-18340650D01*
X11327943Y-18340650D02*
X11346991Y-18350174D01*
X11346991Y-18350174D02*
X11356515Y-18369222D01*
X11356515Y-18369222D02*
X11356515Y-18473984D01*
X11746991Y-18264460D02*
X11575563Y-18521603D01*
X12004134Y-18273984D02*
X12023182Y-18273984D01*
X12023182Y-18273984D02*
X12042229Y-18283508D01*
X12042229Y-18283508D02*
X12051753Y-18293031D01*
X12051753Y-18293031D02*
X12061277Y-18312079D01*
X12061277Y-18312079D02*
X12070801Y-18350174D01*
X12070801Y-18350174D02*
X12070801Y-18397793D01*
X12070801Y-18397793D02*
X12061277Y-18435889D01*
X12061277Y-18435889D02*
X12051753Y-18454936D01*
X12051753Y-18454936D02*
X12042229Y-18464460D01*
X12042229Y-18464460D02*
X12023182Y-18473984D01*
X12023182Y-18473984D02*
X12004134Y-18473984D01*
X12004134Y-18473984D02*
X11985086Y-18464460D01*
X11985086Y-18464460D02*
X11975563Y-18454936D01*
X11975563Y-18454936D02*
X11966039Y-18435889D01*
X11966039Y-18435889D02*
X11956515Y-18397793D01*
X11956515Y-18397793D02*
X11956515Y-18350174D01*
X11956515Y-18350174D02*
X11966039Y-18312079D01*
X11966039Y-18312079D02*
X11975563Y-18293031D01*
X11975563Y-18293031D02*
X11985086Y-18283508D01*
X11985086Y-18283508D02*
X12004134Y-18273984D01*
X12156515Y-18454936D02*
X12166039Y-18464460D01*
X12166039Y-18464460D02*
X12156515Y-18473984D01*
X12156515Y-18473984D02*
X12146991Y-18464460D01*
X12146991Y-18464460D02*
X12156515Y-18454936D01*
X12156515Y-18454936D02*
X12156515Y-18473984D01*
X12289848Y-18273984D02*
X12308896Y-18273984D01*
X12308896Y-18273984D02*
X12327944Y-18283508D01*
X12327944Y-18283508D02*
X12337467Y-18293031D01*
X12337467Y-18293031D02*
X12346991Y-18312079D01*
X12346991Y-18312079D02*
X12356515Y-18350174D01*
X12356515Y-18350174D02*
X12356515Y-18397793D01*
X12356515Y-18397793D02*
X12346991Y-18435889D01*
X12346991Y-18435889D02*
X12337467Y-18454936D01*
X12337467Y-18454936D02*
X12327944Y-18464460D01*
X12327944Y-18464460D02*
X12308896Y-18473984D01*
X12308896Y-18473984D02*
X12289848Y-18473984D01*
X12289848Y-18473984D02*
X12270801Y-18464460D01*
X12270801Y-18464460D02*
X12261277Y-18454936D01*
X12261277Y-18454936D02*
X12251753Y-18435889D01*
X12251753Y-18435889D02*
X12242229Y-18397793D01*
X12242229Y-18397793D02*
X12242229Y-18350174D01*
X12242229Y-18350174D02*
X12251753Y-18312079D01*
X12251753Y-18312079D02*
X12261277Y-18293031D01*
X12261277Y-18293031D02*
X12270801Y-18283508D01*
X12270801Y-18283508D02*
X12289848Y-18273984D01*
X12546991Y-18473984D02*
X12432706Y-18473984D01*
X12489848Y-18473984D02*
X12489848Y-18273984D01*
X12489848Y-18273984D02*
X12470801Y-18302555D01*
X12470801Y-18302555D02*
X12451753Y-18321603D01*
X12451753Y-18321603D02*
X12432706Y-18331127D01*
X12737467Y-18473984D02*
X12623182Y-18473984D01*
X12680325Y-18473984D02*
X12680325Y-18273984D01*
X12680325Y-18273984D02*
X12661277Y-18302555D01*
X12661277Y-18302555D02*
X12642229Y-18321603D01*
X12642229Y-18321603D02*
X12623182Y-18331127D01*
X12851753Y-18359698D02*
X12832706Y-18350174D01*
X12832706Y-18350174D02*
X12823182Y-18340650D01*
X12823182Y-18340650D02*
X12813658Y-18321603D01*
X12813658Y-18321603D02*
X12813658Y-18312079D01*
X12813658Y-18312079D02*
X12823182Y-18293031D01*
X12823182Y-18293031D02*
X12832706Y-18283508D01*
X12832706Y-18283508D02*
X12851753Y-18273984D01*
X12851753Y-18273984D02*
X12889848Y-18273984D01*
X12889848Y-18273984D02*
X12908896Y-18283508D01*
X12908896Y-18283508D02*
X12918420Y-18293031D01*
X12918420Y-18293031D02*
X12927944Y-18312079D01*
X12927944Y-18312079D02*
X12927944Y-18321603D01*
X12927944Y-18321603D02*
X12918420Y-18340650D01*
X12918420Y-18340650D02*
X12908896Y-18350174D01*
X12908896Y-18350174D02*
X12889848Y-18359698D01*
X12889848Y-18359698D02*
X12851753Y-18359698D01*
X12851753Y-18359698D02*
X12832706Y-18369222D01*
X12832706Y-18369222D02*
X12823182Y-18378746D01*
X12823182Y-18378746D02*
X12813658Y-18397793D01*
X12813658Y-18397793D02*
X12813658Y-18435889D01*
X12813658Y-18435889D02*
X12823182Y-18454936D01*
X12823182Y-18454936D02*
X12832706Y-18464460D01*
X12832706Y-18464460D02*
X12851753Y-18473984D01*
X12851753Y-18473984D02*
X12889848Y-18473984D01*
X12889848Y-18473984D02*
X12908896Y-18464460D01*
X12908896Y-18464460D02*
X12918420Y-18454936D01*
X12918420Y-18454936D02*
X12927944Y-18435889D01*
X12927944Y-18435889D02*
X12927944Y-18397793D01*
X12927944Y-18397793D02*
X12918420Y-18378746D01*
X12918420Y-18378746D02*
X12908896Y-18369222D01*
X12908896Y-18369222D02*
X12889848Y-18359698D01*
X13004134Y-18273984D02*
X13004134Y-18312079D01*
X13080325Y-18273984D02*
X13080325Y-18312079D01*
X13375563Y-18550174D02*
X13366039Y-18540650D01*
X13366039Y-18540650D02*
X13346991Y-18512079D01*
X13346991Y-18512079D02*
X13337468Y-18493031D01*
X13337468Y-18493031D02*
X13327944Y-18464460D01*
X13327944Y-18464460D02*
X13318420Y-18416841D01*
X13318420Y-18416841D02*
X13318420Y-18378746D01*
X13318420Y-18378746D02*
X13327944Y-18331127D01*
X13327944Y-18331127D02*
X13337468Y-18302555D01*
X13337468Y-18302555D02*
X13346991Y-18283508D01*
X13346991Y-18283508D02*
X13366039Y-18254936D01*
X13366039Y-18254936D02*
X13375563Y-18245412D01*
X13537468Y-18340650D02*
X13537468Y-18473984D01*
X13489848Y-18264460D02*
X13442229Y-18407317D01*
X13442229Y-18407317D02*
X13566039Y-18407317D01*
X13727944Y-18340650D02*
X13727944Y-18473984D01*
X13680325Y-18264460D02*
X13632706Y-18407317D01*
X13632706Y-18407317D02*
X13756515Y-18407317D01*
X13985087Y-18473984D02*
X13985087Y-18273984D01*
X14070801Y-18473984D02*
X14070801Y-18369222D01*
X14070801Y-18369222D02*
X14061277Y-18350174D01*
X14061277Y-18350174D02*
X14042230Y-18340650D01*
X14042230Y-18340650D02*
X14013658Y-18340650D01*
X14013658Y-18340650D02*
X13994610Y-18350174D01*
X13994610Y-18350174D02*
X13985087Y-18359698D01*
X14194610Y-18473984D02*
X14175563Y-18464460D01*
X14175563Y-18464460D02*
X14166039Y-18454936D01*
X14166039Y-18454936D02*
X14156515Y-18435889D01*
X14156515Y-18435889D02*
X14156515Y-18378746D01*
X14156515Y-18378746D02*
X14166039Y-18359698D01*
X14166039Y-18359698D02*
X14175563Y-18350174D01*
X14175563Y-18350174D02*
X14194610Y-18340650D01*
X14194610Y-18340650D02*
X14223182Y-18340650D01*
X14223182Y-18340650D02*
X14242230Y-18350174D01*
X14242230Y-18350174D02*
X14251753Y-18359698D01*
X14251753Y-18359698D02*
X14261277Y-18378746D01*
X14261277Y-18378746D02*
X14261277Y-18435889D01*
X14261277Y-18435889D02*
X14251753Y-18454936D01*
X14251753Y-18454936D02*
X14242230Y-18464460D01*
X14242230Y-18464460D02*
X14223182Y-18473984D01*
X14223182Y-18473984D02*
X14194610Y-18473984D01*
X14375563Y-18473984D02*
X14356515Y-18464460D01*
X14356515Y-18464460D02*
X14346991Y-18445412D01*
X14346991Y-18445412D02*
X14346991Y-18273984D01*
X14527944Y-18464460D02*
X14508896Y-18473984D01*
X14508896Y-18473984D02*
X14470801Y-18473984D01*
X14470801Y-18473984D02*
X14451753Y-18464460D01*
X14451753Y-18464460D02*
X14442230Y-18445412D01*
X14442230Y-18445412D02*
X14442230Y-18369222D01*
X14442230Y-18369222D02*
X14451753Y-18350174D01*
X14451753Y-18350174D02*
X14470801Y-18340650D01*
X14470801Y-18340650D02*
X14508896Y-18340650D01*
X14508896Y-18340650D02*
X14527944Y-18350174D01*
X14527944Y-18350174D02*
X14537468Y-18369222D01*
X14537468Y-18369222D02*
X14537468Y-18388270D01*
X14537468Y-18388270D02*
X14442230Y-18407317D01*
X14613658Y-18464460D02*
X14632706Y-18473984D01*
X14632706Y-18473984D02*
X14670801Y-18473984D01*
X14670801Y-18473984D02*
X14689849Y-18464460D01*
X14689849Y-18464460D02*
X14699372Y-18445412D01*
X14699372Y-18445412D02*
X14699372Y-18435889D01*
X14699372Y-18435889D02*
X14689849Y-18416841D01*
X14689849Y-18416841D02*
X14670801Y-18407317D01*
X14670801Y-18407317D02*
X14642230Y-18407317D01*
X14642230Y-18407317D02*
X14623182Y-18397793D01*
X14623182Y-18397793D02*
X14613658Y-18378746D01*
X14613658Y-18378746D02*
X14613658Y-18369222D01*
X14613658Y-18369222D02*
X14623182Y-18350174D01*
X14623182Y-18350174D02*
X14642230Y-18340650D01*
X14642230Y-18340650D02*
X14670801Y-18340650D01*
X14670801Y-18340650D02*
X14689849Y-18350174D01*
X14766039Y-18550174D02*
X14775563Y-18540650D01*
X14775563Y-18540650D02*
X14794611Y-18512079D01*
X14794611Y-18512079D02*
X14804134Y-18493031D01*
X14804134Y-18493031D02*
X14813658Y-18464460D01*
X14813658Y-18464460D02*
X14823182Y-18416841D01*
X14823182Y-18416841D02*
X14823182Y-18378746D01*
X14823182Y-18378746D02*
X14813658Y-18331127D01*
X14813658Y-18331127D02*
X14804134Y-18302555D01*
X14804134Y-18302555D02*
X14794611Y-18283508D01*
X14794611Y-18283508D02*
X14775563Y-18254936D01*
X14775563Y-18254936D02*
X14766039Y-18245412D01*
D12*
X9800500Y-18646500D02*
G75*
G02*
X9720500Y-18646500I-40000J0D01*
G01*
X9720500Y-18646500D02*
G75*
G02*
X9800500Y-18646500I40000J0D01*
G01*
D11*
X10099372Y-18537984D02*
X10118420Y-18537984D01*
X10118420Y-18537984D02*
X10137467Y-18547508D01*
X10137467Y-18547508D02*
X10146991Y-18557031D01*
X10146991Y-18557031D02*
X10156515Y-18576079D01*
X10156515Y-18576079D02*
X10166039Y-18614174D01*
X10166039Y-18614174D02*
X10166039Y-18661793D01*
X10166039Y-18661793D02*
X10156515Y-18699889D01*
X10156515Y-18699889D02*
X10146991Y-18718936D01*
X10146991Y-18718936D02*
X10137467Y-18728460D01*
X10137467Y-18728460D02*
X10118420Y-18737984D01*
X10118420Y-18737984D02*
X10099372Y-18737984D01*
X10099372Y-18737984D02*
X10080324Y-18728460D01*
X10080324Y-18728460D02*
X10070801Y-18718936D01*
X10070801Y-18718936D02*
X10061277Y-18699889D01*
X10061277Y-18699889D02*
X10051753Y-18661793D01*
X10051753Y-18661793D02*
X10051753Y-18614174D01*
X10051753Y-18614174D02*
X10061277Y-18576079D01*
X10061277Y-18576079D02*
X10070801Y-18557031D01*
X10070801Y-18557031D02*
X10080324Y-18547508D01*
X10080324Y-18547508D02*
X10099372Y-18537984D01*
X10251753Y-18718936D02*
X10261277Y-18728460D01*
X10261277Y-18728460D02*
X10251753Y-18737984D01*
X10251753Y-18737984D02*
X10242229Y-18728460D01*
X10242229Y-18728460D02*
X10251753Y-18718936D01*
X10251753Y-18718936D02*
X10251753Y-18737984D01*
X10375563Y-18623698D02*
X10356515Y-18614174D01*
X10356515Y-18614174D02*
X10346991Y-18604650D01*
X10346991Y-18604650D02*
X10337467Y-18585603D01*
X10337467Y-18585603D02*
X10337467Y-18576079D01*
X10337467Y-18576079D02*
X10346991Y-18557031D01*
X10346991Y-18557031D02*
X10356515Y-18547508D01*
X10356515Y-18547508D02*
X10375563Y-18537984D01*
X10375563Y-18537984D02*
X10413658Y-18537984D01*
X10413658Y-18537984D02*
X10432705Y-18547508D01*
X10432705Y-18547508D02*
X10442229Y-18557031D01*
X10442229Y-18557031D02*
X10451753Y-18576079D01*
X10451753Y-18576079D02*
X10451753Y-18585603D01*
X10451753Y-18585603D02*
X10442229Y-18604650D01*
X10442229Y-18604650D02*
X10432705Y-18614174D01*
X10432705Y-18614174D02*
X10413658Y-18623698D01*
X10413658Y-18623698D02*
X10375563Y-18623698D01*
X10375563Y-18623698D02*
X10356515Y-18633222D01*
X10356515Y-18633222D02*
X10346991Y-18642746D01*
X10346991Y-18642746D02*
X10337467Y-18661793D01*
X10337467Y-18661793D02*
X10337467Y-18699889D01*
X10337467Y-18699889D02*
X10346991Y-18718936D01*
X10346991Y-18718936D02*
X10356515Y-18728460D01*
X10356515Y-18728460D02*
X10375563Y-18737984D01*
X10375563Y-18737984D02*
X10413658Y-18737984D01*
X10413658Y-18737984D02*
X10432705Y-18728460D01*
X10432705Y-18728460D02*
X10442229Y-18718936D01*
X10442229Y-18718936D02*
X10451753Y-18699889D01*
X10451753Y-18699889D02*
X10451753Y-18661793D01*
X10451753Y-18661793D02*
X10442229Y-18642746D01*
X10442229Y-18642746D02*
X10432705Y-18633222D01*
X10432705Y-18633222D02*
X10413658Y-18623698D01*
X10575563Y-18537984D02*
X10594610Y-18537984D01*
X10594610Y-18537984D02*
X10613658Y-18547508D01*
X10613658Y-18547508D02*
X10623182Y-18557031D01*
X10623182Y-18557031D02*
X10632705Y-18576079D01*
X10632705Y-18576079D02*
X10642229Y-18614174D01*
X10642229Y-18614174D02*
X10642229Y-18661793D01*
X10642229Y-18661793D02*
X10632705Y-18699889D01*
X10632705Y-18699889D02*
X10623182Y-18718936D01*
X10623182Y-18718936D02*
X10613658Y-18728460D01*
X10613658Y-18728460D02*
X10594610Y-18737984D01*
X10594610Y-18737984D02*
X10575563Y-18737984D01*
X10575563Y-18737984D02*
X10556515Y-18728460D01*
X10556515Y-18728460D02*
X10546991Y-18718936D01*
X10546991Y-18718936D02*
X10537467Y-18699889D01*
X10537467Y-18699889D02*
X10527944Y-18661793D01*
X10527944Y-18661793D02*
X10527944Y-18614174D01*
X10527944Y-18614174D02*
X10537467Y-18576079D01*
X10537467Y-18576079D02*
X10546991Y-18557031D01*
X10546991Y-18557031D02*
X10556515Y-18547508D01*
X10556515Y-18547508D02*
X10575563Y-18537984D01*
X10766039Y-18537984D02*
X10785086Y-18537984D01*
X10785086Y-18537984D02*
X10804134Y-18547508D01*
X10804134Y-18547508D02*
X10813658Y-18557031D01*
X10813658Y-18557031D02*
X10823182Y-18576079D01*
X10823182Y-18576079D02*
X10832705Y-18614174D01*
X10832705Y-18614174D02*
X10832705Y-18661793D01*
X10832705Y-18661793D02*
X10823182Y-18699889D01*
X10823182Y-18699889D02*
X10813658Y-18718936D01*
X10813658Y-18718936D02*
X10804134Y-18728460D01*
X10804134Y-18728460D02*
X10785086Y-18737984D01*
X10785086Y-18737984D02*
X10766039Y-18737984D01*
X10766039Y-18737984D02*
X10746991Y-18728460D01*
X10746991Y-18728460D02*
X10737467Y-18718936D01*
X10737467Y-18718936D02*
X10727944Y-18699889D01*
X10727944Y-18699889D02*
X10718420Y-18661793D01*
X10718420Y-18661793D02*
X10718420Y-18614174D01*
X10718420Y-18614174D02*
X10727944Y-18576079D01*
X10727944Y-18576079D02*
X10737467Y-18557031D01*
X10737467Y-18557031D02*
X10746991Y-18547508D01*
X10746991Y-18547508D02*
X10766039Y-18537984D01*
X10918420Y-18737984D02*
X10918420Y-18604650D01*
X10918420Y-18623698D02*
X10927944Y-18614174D01*
X10927944Y-18614174D02*
X10946991Y-18604650D01*
X10946991Y-18604650D02*
X10975563Y-18604650D01*
X10975563Y-18604650D02*
X10994610Y-18614174D01*
X10994610Y-18614174D02*
X11004134Y-18633222D01*
X11004134Y-18633222D02*
X11004134Y-18737984D01*
X11004134Y-18633222D02*
X11013658Y-18614174D01*
X11013658Y-18614174D02*
X11032705Y-18604650D01*
X11032705Y-18604650D02*
X11061277Y-18604650D01*
X11061277Y-18604650D02*
X11080325Y-18614174D01*
X11080325Y-18614174D02*
X11089848Y-18633222D01*
X11089848Y-18633222D02*
X11089848Y-18737984D01*
X11185086Y-18737984D02*
X11185086Y-18604650D01*
X11185086Y-18623698D02*
X11194610Y-18614174D01*
X11194610Y-18614174D02*
X11213658Y-18604650D01*
X11213658Y-18604650D02*
X11242229Y-18604650D01*
X11242229Y-18604650D02*
X11261277Y-18614174D01*
X11261277Y-18614174D02*
X11270801Y-18633222D01*
X11270801Y-18633222D02*
X11270801Y-18737984D01*
X11270801Y-18633222D02*
X11280324Y-18614174D01*
X11280324Y-18614174D02*
X11299372Y-18604650D01*
X11299372Y-18604650D02*
X11327943Y-18604650D01*
X11327943Y-18604650D02*
X11346991Y-18614174D01*
X11346991Y-18614174D02*
X11356515Y-18633222D01*
X11356515Y-18633222D02*
X11356515Y-18737984D01*
X11746991Y-18528460D02*
X11575563Y-18785603D01*
X12004134Y-18537984D02*
X12023182Y-18537984D01*
X12023182Y-18537984D02*
X12042229Y-18547508D01*
X12042229Y-18547508D02*
X12051753Y-18557031D01*
X12051753Y-18557031D02*
X12061277Y-18576079D01*
X12061277Y-18576079D02*
X12070801Y-18614174D01*
X12070801Y-18614174D02*
X12070801Y-18661793D01*
X12070801Y-18661793D02*
X12061277Y-18699889D01*
X12061277Y-18699889D02*
X12051753Y-18718936D01*
X12051753Y-18718936D02*
X12042229Y-18728460D01*
X12042229Y-18728460D02*
X12023182Y-18737984D01*
X12023182Y-18737984D02*
X12004134Y-18737984D01*
X12004134Y-18737984D02*
X11985086Y-18728460D01*
X11985086Y-18728460D02*
X11975563Y-18718936D01*
X11975563Y-18718936D02*
X11966039Y-18699889D01*
X11966039Y-18699889D02*
X11956515Y-18661793D01*
X11956515Y-18661793D02*
X11956515Y-18614174D01*
X11956515Y-18614174D02*
X11966039Y-18576079D01*
X11966039Y-18576079D02*
X11975563Y-18557031D01*
X11975563Y-18557031D02*
X11985086Y-18547508D01*
X11985086Y-18547508D02*
X12004134Y-18537984D01*
X12156515Y-18718936D02*
X12166039Y-18728460D01*
X12166039Y-18728460D02*
X12156515Y-18737984D01*
X12156515Y-18737984D02*
X12146991Y-18728460D01*
X12146991Y-18728460D02*
X12156515Y-18718936D01*
X12156515Y-18718936D02*
X12156515Y-18737984D01*
X12289848Y-18537984D02*
X12308896Y-18537984D01*
X12308896Y-18537984D02*
X12327944Y-18547508D01*
X12327944Y-18547508D02*
X12337467Y-18557031D01*
X12337467Y-18557031D02*
X12346991Y-18576079D01*
X12346991Y-18576079D02*
X12356515Y-18614174D01*
X12356515Y-18614174D02*
X12356515Y-18661793D01*
X12356515Y-18661793D02*
X12346991Y-18699889D01*
X12346991Y-18699889D02*
X12337467Y-18718936D01*
X12337467Y-18718936D02*
X12327944Y-18728460D01*
X12327944Y-18728460D02*
X12308896Y-18737984D01*
X12308896Y-18737984D02*
X12289848Y-18737984D01*
X12289848Y-18737984D02*
X12270801Y-18728460D01*
X12270801Y-18728460D02*
X12261277Y-18718936D01*
X12261277Y-18718936D02*
X12251753Y-18699889D01*
X12251753Y-18699889D02*
X12242229Y-18661793D01*
X12242229Y-18661793D02*
X12242229Y-18614174D01*
X12242229Y-18614174D02*
X12251753Y-18576079D01*
X12251753Y-18576079D02*
X12261277Y-18557031D01*
X12261277Y-18557031D02*
X12270801Y-18547508D01*
X12270801Y-18547508D02*
X12289848Y-18537984D01*
X12423182Y-18537984D02*
X12546991Y-18537984D01*
X12546991Y-18537984D02*
X12480325Y-18614174D01*
X12480325Y-18614174D02*
X12508896Y-18614174D01*
X12508896Y-18614174D02*
X12527944Y-18623698D01*
X12527944Y-18623698D02*
X12537467Y-18633222D01*
X12537467Y-18633222D02*
X12546991Y-18652270D01*
X12546991Y-18652270D02*
X12546991Y-18699889D01*
X12546991Y-18699889D02*
X12537467Y-18718936D01*
X12537467Y-18718936D02*
X12527944Y-18728460D01*
X12527944Y-18728460D02*
X12508896Y-18737984D01*
X12508896Y-18737984D02*
X12451753Y-18737984D01*
X12451753Y-18737984D02*
X12432706Y-18728460D01*
X12432706Y-18728460D02*
X12423182Y-18718936D01*
X12737467Y-18737984D02*
X12623182Y-18737984D01*
X12680325Y-18737984D02*
X12680325Y-18537984D01*
X12680325Y-18537984D02*
X12661277Y-18566555D01*
X12661277Y-18566555D02*
X12642229Y-18585603D01*
X12642229Y-18585603D02*
X12623182Y-18595127D01*
X12918420Y-18537984D02*
X12823182Y-18537984D01*
X12823182Y-18537984D02*
X12813658Y-18633222D01*
X12813658Y-18633222D02*
X12823182Y-18623698D01*
X12823182Y-18623698D02*
X12842229Y-18614174D01*
X12842229Y-18614174D02*
X12889848Y-18614174D01*
X12889848Y-18614174D02*
X12908896Y-18623698D01*
X12908896Y-18623698D02*
X12918420Y-18633222D01*
X12918420Y-18633222D02*
X12927944Y-18652270D01*
X12927944Y-18652270D02*
X12927944Y-18699889D01*
X12927944Y-18699889D02*
X12918420Y-18718936D01*
X12918420Y-18718936D02*
X12908896Y-18728460D01*
X12908896Y-18728460D02*
X12889848Y-18737984D01*
X12889848Y-18737984D02*
X12842229Y-18737984D01*
X12842229Y-18737984D02*
X12823182Y-18728460D01*
X12823182Y-18728460D02*
X12813658Y-18718936D01*
X13004134Y-18537984D02*
X13004134Y-18576079D01*
X13080325Y-18537984D02*
X13080325Y-18576079D01*
X13375563Y-18814174D02*
X13366039Y-18804650D01*
X13366039Y-18804650D02*
X13346991Y-18776079D01*
X13346991Y-18776079D02*
X13337468Y-18757031D01*
X13337468Y-18757031D02*
X13327944Y-18728460D01*
X13327944Y-18728460D02*
X13318420Y-18680841D01*
X13318420Y-18680841D02*
X13318420Y-18642746D01*
X13318420Y-18642746D02*
X13327944Y-18595127D01*
X13327944Y-18595127D02*
X13337468Y-18566555D01*
X13337468Y-18566555D02*
X13346991Y-18547508D01*
X13346991Y-18547508D02*
X13366039Y-18518936D01*
X13366039Y-18518936D02*
X13375563Y-18509412D01*
X13461277Y-18737984D02*
X13499372Y-18737984D01*
X13499372Y-18737984D02*
X13518420Y-18728460D01*
X13518420Y-18728460D02*
X13527944Y-18718936D01*
X13527944Y-18718936D02*
X13546991Y-18690365D01*
X13546991Y-18690365D02*
X13556515Y-18652270D01*
X13556515Y-18652270D02*
X13556515Y-18576079D01*
X13556515Y-18576079D02*
X13546991Y-18557031D01*
X13546991Y-18557031D02*
X13537468Y-18547508D01*
X13537468Y-18547508D02*
X13518420Y-18537984D01*
X13518420Y-18537984D02*
X13480325Y-18537984D01*
X13480325Y-18537984D02*
X13461277Y-18547508D01*
X13461277Y-18547508D02*
X13451753Y-18557031D01*
X13451753Y-18557031D02*
X13442229Y-18576079D01*
X13442229Y-18576079D02*
X13442229Y-18623698D01*
X13442229Y-18623698D02*
X13451753Y-18642746D01*
X13451753Y-18642746D02*
X13461277Y-18652270D01*
X13461277Y-18652270D02*
X13480325Y-18661793D01*
X13480325Y-18661793D02*
X13518420Y-18661793D01*
X13518420Y-18661793D02*
X13537468Y-18652270D01*
X13537468Y-18652270D02*
X13546991Y-18642746D01*
X13546991Y-18642746D02*
X13556515Y-18623698D01*
X13727944Y-18604650D02*
X13727944Y-18737984D01*
X13680325Y-18528460D02*
X13632706Y-18671317D01*
X13632706Y-18671317D02*
X13756515Y-18671317D01*
X13985087Y-18737984D02*
X13985087Y-18537984D01*
X14070801Y-18737984D02*
X14070801Y-18633222D01*
X14070801Y-18633222D02*
X14061277Y-18614174D01*
X14061277Y-18614174D02*
X14042230Y-18604650D01*
X14042230Y-18604650D02*
X14013658Y-18604650D01*
X14013658Y-18604650D02*
X13994610Y-18614174D01*
X13994610Y-18614174D02*
X13985087Y-18623698D01*
X14194610Y-18737984D02*
X14175563Y-18728460D01*
X14175563Y-18728460D02*
X14166039Y-18718936D01*
X14166039Y-18718936D02*
X14156515Y-18699889D01*
X14156515Y-18699889D02*
X14156515Y-18642746D01*
X14156515Y-18642746D02*
X14166039Y-18623698D01*
X14166039Y-18623698D02*
X14175563Y-18614174D01*
X14175563Y-18614174D02*
X14194610Y-18604650D01*
X14194610Y-18604650D02*
X14223182Y-18604650D01*
X14223182Y-18604650D02*
X14242230Y-18614174D01*
X14242230Y-18614174D02*
X14251753Y-18623698D01*
X14251753Y-18623698D02*
X14261277Y-18642746D01*
X14261277Y-18642746D02*
X14261277Y-18699889D01*
X14261277Y-18699889D02*
X14251753Y-18718936D01*
X14251753Y-18718936D02*
X14242230Y-18728460D01*
X14242230Y-18728460D02*
X14223182Y-18737984D01*
X14223182Y-18737984D02*
X14194610Y-18737984D01*
X14375563Y-18737984D02*
X14356515Y-18728460D01*
X14356515Y-18728460D02*
X14346991Y-18709412D01*
X14346991Y-18709412D02*
X14346991Y-18537984D01*
X14527944Y-18728460D02*
X14508896Y-18737984D01*
X14508896Y-18737984D02*
X14470801Y-18737984D01*
X14470801Y-18737984D02*
X14451753Y-18728460D01*
X14451753Y-18728460D02*
X14442230Y-18709412D01*
X14442230Y-18709412D02*
X14442230Y-18633222D01*
X14442230Y-18633222D02*
X14451753Y-18614174D01*
X14451753Y-18614174D02*
X14470801Y-18604650D01*
X14470801Y-18604650D02*
X14508896Y-18604650D01*
X14508896Y-18604650D02*
X14527944Y-18614174D01*
X14527944Y-18614174D02*
X14537468Y-18633222D01*
X14537468Y-18633222D02*
X14537468Y-18652270D01*
X14537468Y-18652270D02*
X14442230Y-18671317D01*
X14613658Y-18728460D02*
X14632706Y-18737984D01*
X14632706Y-18737984D02*
X14670801Y-18737984D01*
X14670801Y-18737984D02*
X14689849Y-18728460D01*
X14689849Y-18728460D02*
X14699372Y-18709412D01*
X14699372Y-18709412D02*
X14699372Y-18699889D01*
X14699372Y-18699889D02*
X14689849Y-18680841D01*
X14689849Y-18680841D02*
X14670801Y-18671317D01*
X14670801Y-18671317D02*
X14642230Y-18671317D01*
X14642230Y-18671317D02*
X14623182Y-18661793D01*
X14623182Y-18661793D02*
X14613658Y-18642746D01*
X14613658Y-18642746D02*
X14613658Y-18633222D01*
X14613658Y-18633222D02*
X14623182Y-18614174D01*
X14623182Y-18614174D02*
X14642230Y-18604650D01*
X14642230Y-18604650D02*
X14670801Y-18604650D01*
X14670801Y-18604650D02*
X14689849Y-18614174D01*
X14766039Y-18814174D02*
X14775563Y-18804650D01*
X14775563Y-18804650D02*
X14794611Y-18776079D01*
X14794611Y-18776079D02*
X14804134Y-18757031D01*
X14804134Y-18757031D02*
X14813658Y-18728460D01*
X14813658Y-18728460D02*
X14823182Y-18680841D01*
X14823182Y-18680841D02*
X14823182Y-18642746D01*
X14823182Y-18642746D02*
X14813658Y-18595127D01*
X14813658Y-18595127D02*
X14804134Y-18566555D01*
X14804134Y-18566555D02*
X14794611Y-18547508D01*
X14794611Y-18547508D02*
X14775563Y-18518936D01*
X14775563Y-18518936D02*
X14766039Y-18509412D01*
D12*
X9750500Y-18860500D02*
X9750500Y-18960500D01*
X9700500Y-18910500D02*
X9800500Y-18910500D01*
D11*
X10166039Y-19001984D02*
X10051753Y-19001984D01*
X10108896Y-19001984D02*
X10108896Y-18801984D01*
X10108896Y-18801984D02*
X10089848Y-18830555D01*
X10089848Y-18830555D02*
X10070801Y-18849603D01*
X10070801Y-18849603D02*
X10051753Y-18859127D01*
X10251753Y-18982936D02*
X10261277Y-18992460D01*
X10261277Y-18992460D02*
X10251753Y-19001984D01*
X10251753Y-19001984D02*
X10242229Y-18992460D01*
X10242229Y-18992460D02*
X10251753Y-18982936D01*
X10251753Y-18982936D02*
X10251753Y-19001984D01*
X10385086Y-18801984D02*
X10404134Y-18801984D01*
X10404134Y-18801984D02*
X10423182Y-18811508D01*
X10423182Y-18811508D02*
X10432705Y-18821031D01*
X10432705Y-18821031D02*
X10442229Y-18840079D01*
X10442229Y-18840079D02*
X10451753Y-18878174D01*
X10451753Y-18878174D02*
X10451753Y-18925793D01*
X10451753Y-18925793D02*
X10442229Y-18963889D01*
X10442229Y-18963889D02*
X10432705Y-18982936D01*
X10432705Y-18982936D02*
X10423182Y-18992460D01*
X10423182Y-18992460D02*
X10404134Y-19001984D01*
X10404134Y-19001984D02*
X10385086Y-19001984D01*
X10385086Y-19001984D02*
X10366039Y-18992460D01*
X10366039Y-18992460D02*
X10356515Y-18982936D01*
X10356515Y-18982936D02*
X10346991Y-18963889D01*
X10346991Y-18963889D02*
X10337467Y-18925793D01*
X10337467Y-18925793D02*
X10337467Y-18878174D01*
X10337467Y-18878174D02*
X10346991Y-18840079D01*
X10346991Y-18840079D02*
X10356515Y-18821031D01*
X10356515Y-18821031D02*
X10366039Y-18811508D01*
X10366039Y-18811508D02*
X10385086Y-18801984D01*
X10575563Y-18801984D02*
X10594610Y-18801984D01*
X10594610Y-18801984D02*
X10613658Y-18811508D01*
X10613658Y-18811508D02*
X10623182Y-18821031D01*
X10623182Y-18821031D02*
X10632705Y-18840079D01*
X10632705Y-18840079D02*
X10642229Y-18878174D01*
X10642229Y-18878174D02*
X10642229Y-18925793D01*
X10642229Y-18925793D02*
X10632705Y-18963889D01*
X10632705Y-18963889D02*
X10623182Y-18982936D01*
X10623182Y-18982936D02*
X10613658Y-18992460D01*
X10613658Y-18992460D02*
X10594610Y-19001984D01*
X10594610Y-19001984D02*
X10575563Y-19001984D01*
X10575563Y-19001984D02*
X10556515Y-18992460D01*
X10556515Y-18992460D02*
X10546991Y-18982936D01*
X10546991Y-18982936D02*
X10537467Y-18963889D01*
X10537467Y-18963889D02*
X10527944Y-18925793D01*
X10527944Y-18925793D02*
X10527944Y-18878174D01*
X10527944Y-18878174D02*
X10537467Y-18840079D01*
X10537467Y-18840079D02*
X10546991Y-18821031D01*
X10546991Y-18821031D02*
X10556515Y-18811508D01*
X10556515Y-18811508D02*
X10575563Y-18801984D01*
X10766039Y-18801984D02*
X10785086Y-18801984D01*
X10785086Y-18801984D02*
X10804134Y-18811508D01*
X10804134Y-18811508D02*
X10813658Y-18821031D01*
X10813658Y-18821031D02*
X10823182Y-18840079D01*
X10823182Y-18840079D02*
X10832705Y-18878174D01*
X10832705Y-18878174D02*
X10832705Y-18925793D01*
X10832705Y-18925793D02*
X10823182Y-18963889D01*
X10823182Y-18963889D02*
X10813658Y-18982936D01*
X10813658Y-18982936D02*
X10804134Y-18992460D01*
X10804134Y-18992460D02*
X10785086Y-19001984D01*
X10785086Y-19001984D02*
X10766039Y-19001984D01*
X10766039Y-19001984D02*
X10746991Y-18992460D01*
X10746991Y-18992460D02*
X10737467Y-18982936D01*
X10737467Y-18982936D02*
X10727944Y-18963889D01*
X10727944Y-18963889D02*
X10718420Y-18925793D01*
X10718420Y-18925793D02*
X10718420Y-18878174D01*
X10718420Y-18878174D02*
X10727944Y-18840079D01*
X10727944Y-18840079D02*
X10737467Y-18821031D01*
X10737467Y-18821031D02*
X10746991Y-18811508D01*
X10746991Y-18811508D02*
X10766039Y-18801984D01*
X10918420Y-19001984D02*
X10918420Y-18868650D01*
X10918420Y-18887698D02*
X10927944Y-18878174D01*
X10927944Y-18878174D02*
X10946991Y-18868650D01*
X10946991Y-18868650D02*
X10975563Y-18868650D01*
X10975563Y-18868650D02*
X10994610Y-18878174D01*
X10994610Y-18878174D02*
X11004134Y-18897222D01*
X11004134Y-18897222D02*
X11004134Y-19001984D01*
X11004134Y-18897222D02*
X11013658Y-18878174D01*
X11013658Y-18878174D02*
X11032705Y-18868650D01*
X11032705Y-18868650D02*
X11061277Y-18868650D01*
X11061277Y-18868650D02*
X11080325Y-18878174D01*
X11080325Y-18878174D02*
X11089848Y-18897222D01*
X11089848Y-18897222D02*
X11089848Y-19001984D01*
X11185086Y-19001984D02*
X11185086Y-18868650D01*
X11185086Y-18887698D02*
X11194610Y-18878174D01*
X11194610Y-18878174D02*
X11213658Y-18868650D01*
X11213658Y-18868650D02*
X11242229Y-18868650D01*
X11242229Y-18868650D02*
X11261277Y-18878174D01*
X11261277Y-18878174D02*
X11270801Y-18897222D01*
X11270801Y-18897222D02*
X11270801Y-19001984D01*
X11270801Y-18897222D02*
X11280324Y-18878174D01*
X11280324Y-18878174D02*
X11299372Y-18868650D01*
X11299372Y-18868650D02*
X11327943Y-18868650D01*
X11327943Y-18868650D02*
X11346991Y-18878174D01*
X11346991Y-18878174D02*
X11356515Y-18897222D01*
X11356515Y-18897222D02*
X11356515Y-19001984D01*
X11746991Y-18792460D02*
X11575563Y-19049603D01*
X12004134Y-18801984D02*
X12023182Y-18801984D01*
X12023182Y-18801984D02*
X12042229Y-18811508D01*
X12042229Y-18811508D02*
X12051753Y-18821031D01*
X12051753Y-18821031D02*
X12061277Y-18840079D01*
X12061277Y-18840079D02*
X12070801Y-18878174D01*
X12070801Y-18878174D02*
X12070801Y-18925793D01*
X12070801Y-18925793D02*
X12061277Y-18963889D01*
X12061277Y-18963889D02*
X12051753Y-18982936D01*
X12051753Y-18982936D02*
X12042229Y-18992460D01*
X12042229Y-18992460D02*
X12023182Y-19001984D01*
X12023182Y-19001984D02*
X12004134Y-19001984D01*
X12004134Y-19001984D02*
X11985086Y-18992460D01*
X11985086Y-18992460D02*
X11975563Y-18982936D01*
X11975563Y-18982936D02*
X11966039Y-18963889D01*
X11966039Y-18963889D02*
X11956515Y-18925793D01*
X11956515Y-18925793D02*
X11956515Y-18878174D01*
X11956515Y-18878174D02*
X11966039Y-18840079D01*
X11966039Y-18840079D02*
X11975563Y-18821031D01*
X11975563Y-18821031D02*
X11985086Y-18811508D01*
X11985086Y-18811508D02*
X12004134Y-18801984D01*
X12156515Y-18982936D02*
X12166039Y-18992460D01*
X12166039Y-18992460D02*
X12156515Y-19001984D01*
X12156515Y-19001984D02*
X12146991Y-18992460D01*
X12146991Y-18992460D02*
X12156515Y-18982936D01*
X12156515Y-18982936D02*
X12156515Y-19001984D01*
X12289848Y-18801984D02*
X12308896Y-18801984D01*
X12308896Y-18801984D02*
X12327944Y-18811508D01*
X12327944Y-18811508D02*
X12337467Y-18821031D01*
X12337467Y-18821031D02*
X12346991Y-18840079D01*
X12346991Y-18840079D02*
X12356515Y-18878174D01*
X12356515Y-18878174D02*
X12356515Y-18925793D01*
X12356515Y-18925793D02*
X12346991Y-18963889D01*
X12346991Y-18963889D02*
X12337467Y-18982936D01*
X12337467Y-18982936D02*
X12327944Y-18992460D01*
X12327944Y-18992460D02*
X12308896Y-19001984D01*
X12308896Y-19001984D02*
X12289848Y-19001984D01*
X12289848Y-19001984D02*
X12270801Y-18992460D01*
X12270801Y-18992460D02*
X12261277Y-18982936D01*
X12261277Y-18982936D02*
X12251753Y-18963889D01*
X12251753Y-18963889D02*
X12242229Y-18925793D01*
X12242229Y-18925793D02*
X12242229Y-18878174D01*
X12242229Y-18878174D02*
X12251753Y-18840079D01*
X12251753Y-18840079D02*
X12261277Y-18821031D01*
X12261277Y-18821031D02*
X12270801Y-18811508D01*
X12270801Y-18811508D02*
X12289848Y-18801984D01*
X12423182Y-18801984D02*
X12546991Y-18801984D01*
X12546991Y-18801984D02*
X12480325Y-18878174D01*
X12480325Y-18878174D02*
X12508896Y-18878174D01*
X12508896Y-18878174D02*
X12527944Y-18887698D01*
X12527944Y-18887698D02*
X12537467Y-18897222D01*
X12537467Y-18897222D02*
X12546991Y-18916270D01*
X12546991Y-18916270D02*
X12546991Y-18963889D01*
X12546991Y-18963889D02*
X12537467Y-18982936D01*
X12537467Y-18982936D02*
X12527944Y-18992460D01*
X12527944Y-18992460D02*
X12508896Y-19001984D01*
X12508896Y-19001984D02*
X12451753Y-19001984D01*
X12451753Y-19001984D02*
X12432706Y-18992460D01*
X12432706Y-18992460D02*
X12423182Y-18982936D01*
X12642229Y-19001984D02*
X12680325Y-19001984D01*
X12680325Y-19001984D02*
X12699372Y-18992460D01*
X12699372Y-18992460D02*
X12708896Y-18982936D01*
X12708896Y-18982936D02*
X12727944Y-18954365D01*
X12727944Y-18954365D02*
X12737467Y-18916270D01*
X12737467Y-18916270D02*
X12737467Y-18840079D01*
X12737467Y-18840079D02*
X12727944Y-18821031D01*
X12727944Y-18821031D02*
X12718420Y-18811508D01*
X12718420Y-18811508D02*
X12699372Y-18801984D01*
X12699372Y-18801984D02*
X12661277Y-18801984D01*
X12661277Y-18801984D02*
X12642229Y-18811508D01*
X12642229Y-18811508D02*
X12632706Y-18821031D01*
X12632706Y-18821031D02*
X12623182Y-18840079D01*
X12623182Y-18840079D02*
X12623182Y-18887698D01*
X12623182Y-18887698D02*
X12632706Y-18906746D01*
X12632706Y-18906746D02*
X12642229Y-18916270D01*
X12642229Y-18916270D02*
X12661277Y-18925793D01*
X12661277Y-18925793D02*
X12699372Y-18925793D01*
X12699372Y-18925793D02*
X12718420Y-18916270D01*
X12718420Y-18916270D02*
X12727944Y-18906746D01*
X12727944Y-18906746D02*
X12737467Y-18887698D01*
X12908896Y-18868650D02*
X12908896Y-19001984D01*
X12861277Y-18792460D02*
X12813658Y-18935317D01*
X12813658Y-18935317D02*
X12937467Y-18935317D01*
X13004134Y-18801984D02*
X13004134Y-18840079D01*
X13080325Y-18801984D02*
X13080325Y-18840079D01*
X13375563Y-19078174D02*
X13366039Y-19068650D01*
X13366039Y-19068650D02*
X13346991Y-19040079D01*
X13346991Y-19040079D02*
X13337468Y-19021031D01*
X13337468Y-19021031D02*
X13327944Y-18992460D01*
X13327944Y-18992460D02*
X13318420Y-18944841D01*
X13318420Y-18944841D02*
X13318420Y-18906746D01*
X13318420Y-18906746D02*
X13327944Y-18859127D01*
X13327944Y-18859127D02*
X13337468Y-18830555D01*
X13337468Y-18830555D02*
X13346991Y-18811508D01*
X13346991Y-18811508D02*
X13366039Y-18782936D01*
X13366039Y-18782936D02*
X13375563Y-18773412D01*
X13556515Y-19001984D02*
X13442229Y-19001984D01*
X13499372Y-19001984D02*
X13499372Y-18801984D01*
X13499372Y-18801984D02*
X13480325Y-18830555D01*
X13480325Y-18830555D02*
X13461277Y-18849603D01*
X13461277Y-18849603D02*
X13442229Y-18859127D01*
X13651753Y-19001984D02*
X13689848Y-19001984D01*
X13689848Y-19001984D02*
X13708896Y-18992460D01*
X13708896Y-18992460D02*
X13718420Y-18982936D01*
X13718420Y-18982936D02*
X13737468Y-18954365D01*
X13737468Y-18954365D02*
X13746991Y-18916270D01*
X13746991Y-18916270D02*
X13746991Y-18840079D01*
X13746991Y-18840079D02*
X13737468Y-18821031D01*
X13737468Y-18821031D02*
X13727944Y-18811508D01*
X13727944Y-18811508D02*
X13708896Y-18801984D01*
X13708896Y-18801984D02*
X13670801Y-18801984D01*
X13670801Y-18801984D02*
X13651753Y-18811508D01*
X13651753Y-18811508D02*
X13642229Y-18821031D01*
X13642229Y-18821031D02*
X13632706Y-18840079D01*
X13632706Y-18840079D02*
X13632706Y-18887698D01*
X13632706Y-18887698D02*
X13642229Y-18906746D01*
X13642229Y-18906746D02*
X13651753Y-18916270D01*
X13651753Y-18916270D02*
X13670801Y-18925793D01*
X13670801Y-18925793D02*
X13708896Y-18925793D01*
X13708896Y-18925793D02*
X13727944Y-18916270D01*
X13727944Y-18916270D02*
X13737468Y-18906746D01*
X13737468Y-18906746D02*
X13746991Y-18887698D01*
X13985087Y-19001984D02*
X13985087Y-18801984D01*
X14070801Y-19001984D02*
X14070801Y-18897222D01*
X14070801Y-18897222D02*
X14061277Y-18878174D01*
X14061277Y-18878174D02*
X14042230Y-18868650D01*
X14042230Y-18868650D02*
X14013658Y-18868650D01*
X14013658Y-18868650D02*
X13994610Y-18878174D01*
X13994610Y-18878174D02*
X13985087Y-18887698D01*
X14194610Y-19001984D02*
X14175563Y-18992460D01*
X14175563Y-18992460D02*
X14166039Y-18982936D01*
X14166039Y-18982936D02*
X14156515Y-18963889D01*
X14156515Y-18963889D02*
X14156515Y-18906746D01*
X14156515Y-18906746D02*
X14166039Y-18887698D01*
X14166039Y-18887698D02*
X14175563Y-18878174D01*
X14175563Y-18878174D02*
X14194610Y-18868650D01*
X14194610Y-18868650D02*
X14223182Y-18868650D01*
X14223182Y-18868650D02*
X14242230Y-18878174D01*
X14242230Y-18878174D02*
X14251753Y-18887698D01*
X14251753Y-18887698D02*
X14261277Y-18906746D01*
X14261277Y-18906746D02*
X14261277Y-18963889D01*
X14261277Y-18963889D02*
X14251753Y-18982936D01*
X14251753Y-18982936D02*
X14242230Y-18992460D01*
X14242230Y-18992460D02*
X14223182Y-19001984D01*
X14223182Y-19001984D02*
X14194610Y-19001984D01*
X14375563Y-19001984D02*
X14356515Y-18992460D01*
X14356515Y-18992460D02*
X14346991Y-18973412D01*
X14346991Y-18973412D02*
X14346991Y-18801984D01*
X14527944Y-18992460D02*
X14508896Y-19001984D01*
X14508896Y-19001984D02*
X14470801Y-19001984D01*
X14470801Y-19001984D02*
X14451753Y-18992460D01*
X14451753Y-18992460D02*
X14442230Y-18973412D01*
X14442230Y-18973412D02*
X14442230Y-18897222D01*
X14442230Y-18897222D02*
X14451753Y-18878174D01*
X14451753Y-18878174D02*
X14470801Y-18868650D01*
X14470801Y-18868650D02*
X14508896Y-18868650D01*
X14508896Y-18868650D02*
X14527944Y-18878174D01*
X14527944Y-18878174D02*
X14537468Y-18897222D01*
X14537468Y-18897222D02*
X14537468Y-18916270D01*
X14537468Y-18916270D02*
X14442230Y-18935317D01*
X14613658Y-18992460D02*
X14632706Y-19001984D01*
X14632706Y-19001984D02*
X14670801Y-19001984D01*
X14670801Y-19001984D02*
X14689849Y-18992460D01*
X14689849Y-18992460D02*
X14699372Y-18973412D01*
X14699372Y-18973412D02*
X14699372Y-18963889D01*
X14699372Y-18963889D02*
X14689849Y-18944841D01*
X14689849Y-18944841D02*
X14670801Y-18935317D01*
X14670801Y-18935317D02*
X14642230Y-18935317D01*
X14642230Y-18935317D02*
X14623182Y-18925793D01*
X14623182Y-18925793D02*
X14613658Y-18906746D01*
X14613658Y-18906746D02*
X14613658Y-18897222D01*
X14613658Y-18897222D02*
X14623182Y-18878174D01*
X14623182Y-18878174D02*
X14642230Y-18868650D01*
X14642230Y-18868650D02*
X14670801Y-18868650D01*
X14670801Y-18868650D02*
X14689849Y-18878174D01*
X14766039Y-19078174D02*
X14775563Y-19068650D01*
X14775563Y-19068650D02*
X14794611Y-19040079D01*
X14794611Y-19040079D02*
X14804134Y-19021031D01*
X14804134Y-19021031D02*
X14813658Y-18992460D01*
X14813658Y-18992460D02*
X14823182Y-18944841D01*
X14823182Y-18944841D02*
X14823182Y-18906746D01*
X14823182Y-18906746D02*
X14813658Y-18859127D01*
X14813658Y-18859127D02*
X14804134Y-18830555D01*
X14804134Y-18830555D02*
X14794611Y-18811508D01*
X14794611Y-18811508D02*
X14775563Y-18782936D01*
X14775563Y-18782936D02*
X14766039Y-18773412D01*
D13*
X9782927Y-19216927D02*
X9782927Y-19132073D01*
X9698073Y-19132073D01*
X9698073Y-19216927D01*
X9782927Y-19216927D01*
D11*
X10166039Y-19265984D02*
X10051753Y-19265984D01*
X10108896Y-19265984D02*
X10108896Y-19065984D01*
X10108896Y-19065984D02*
X10089848Y-19094555D01*
X10089848Y-19094555D02*
X10070801Y-19113603D01*
X10070801Y-19113603D02*
X10051753Y-19123127D01*
X10251753Y-19246936D02*
X10261277Y-19256460D01*
X10261277Y-19256460D02*
X10251753Y-19265984D01*
X10251753Y-19265984D02*
X10242229Y-19256460D01*
X10242229Y-19256460D02*
X10251753Y-19246936D01*
X10251753Y-19246936D02*
X10251753Y-19265984D01*
X10337467Y-19085031D02*
X10346991Y-19075508D01*
X10346991Y-19075508D02*
X10366039Y-19065984D01*
X10366039Y-19065984D02*
X10413658Y-19065984D01*
X10413658Y-19065984D02*
X10432705Y-19075508D01*
X10432705Y-19075508D02*
X10442229Y-19085031D01*
X10442229Y-19085031D02*
X10451753Y-19104079D01*
X10451753Y-19104079D02*
X10451753Y-19123127D01*
X10451753Y-19123127D02*
X10442229Y-19151698D01*
X10442229Y-19151698D02*
X10327944Y-19265984D01*
X10327944Y-19265984D02*
X10451753Y-19265984D01*
X10575563Y-19065984D02*
X10594610Y-19065984D01*
X10594610Y-19065984D02*
X10613658Y-19075508D01*
X10613658Y-19075508D02*
X10623182Y-19085031D01*
X10623182Y-19085031D02*
X10632705Y-19104079D01*
X10632705Y-19104079D02*
X10642229Y-19142174D01*
X10642229Y-19142174D02*
X10642229Y-19189793D01*
X10642229Y-19189793D02*
X10632705Y-19227889D01*
X10632705Y-19227889D02*
X10623182Y-19246936D01*
X10623182Y-19246936D02*
X10613658Y-19256460D01*
X10613658Y-19256460D02*
X10594610Y-19265984D01*
X10594610Y-19265984D02*
X10575563Y-19265984D01*
X10575563Y-19265984D02*
X10556515Y-19256460D01*
X10556515Y-19256460D02*
X10546991Y-19246936D01*
X10546991Y-19246936D02*
X10537467Y-19227889D01*
X10537467Y-19227889D02*
X10527944Y-19189793D01*
X10527944Y-19189793D02*
X10527944Y-19142174D01*
X10527944Y-19142174D02*
X10537467Y-19104079D01*
X10537467Y-19104079D02*
X10546991Y-19085031D01*
X10546991Y-19085031D02*
X10556515Y-19075508D01*
X10556515Y-19075508D02*
X10575563Y-19065984D01*
X10766039Y-19065984D02*
X10785086Y-19065984D01*
X10785086Y-19065984D02*
X10804134Y-19075508D01*
X10804134Y-19075508D02*
X10813658Y-19085031D01*
X10813658Y-19085031D02*
X10823182Y-19104079D01*
X10823182Y-19104079D02*
X10832705Y-19142174D01*
X10832705Y-19142174D02*
X10832705Y-19189793D01*
X10832705Y-19189793D02*
X10823182Y-19227889D01*
X10823182Y-19227889D02*
X10813658Y-19246936D01*
X10813658Y-19246936D02*
X10804134Y-19256460D01*
X10804134Y-19256460D02*
X10785086Y-19265984D01*
X10785086Y-19265984D02*
X10766039Y-19265984D01*
X10766039Y-19265984D02*
X10746991Y-19256460D01*
X10746991Y-19256460D02*
X10737467Y-19246936D01*
X10737467Y-19246936D02*
X10727944Y-19227889D01*
X10727944Y-19227889D02*
X10718420Y-19189793D01*
X10718420Y-19189793D02*
X10718420Y-19142174D01*
X10718420Y-19142174D02*
X10727944Y-19104079D01*
X10727944Y-19104079D02*
X10737467Y-19085031D01*
X10737467Y-19085031D02*
X10746991Y-19075508D01*
X10746991Y-19075508D02*
X10766039Y-19065984D01*
X10918420Y-19265984D02*
X10918420Y-19132650D01*
X10918420Y-19151698D02*
X10927944Y-19142174D01*
X10927944Y-19142174D02*
X10946991Y-19132650D01*
X10946991Y-19132650D02*
X10975563Y-19132650D01*
X10975563Y-19132650D02*
X10994610Y-19142174D01*
X10994610Y-19142174D02*
X11004134Y-19161222D01*
X11004134Y-19161222D02*
X11004134Y-19265984D01*
X11004134Y-19161222D02*
X11013658Y-19142174D01*
X11013658Y-19142174D02*
X11032705Y-19132650D01*
X11032705Y-19132650D02*
X11061277Y-19132650D01*
X11061277Y-19132650D02*
X11080325Y-19142174D01*
X11080325Y-19142174D02*
X11089848Y-19161222D01*
X11089848Y-19161222D02*
X11089848Y-19265984D01*
X11185086Y-19265984D02*
X11185086Y-19132650D01*
X11185086Y-19151698D02*
X11194610Y-19142174D01*
X11194610Y-19142174D02*
X11213658Y-19132650D01*
X11213658Y-19132650D02*
X11242229Y-19132650D01*
X11242229Y-19132650D02*
X11261277Y-19142174D01*
X11261277Y-19142174D02*
X11270801Y-19161222D01*
X11270801Y-19161222D02*
X11270801Y-19265984D01*
X11270801Y-19161222D02*
X11280324Y-19142174D01*
X11280324Y-19142174D02*
X11299372Y-19132650D01*
X11299372Y-19132650D02*
X11327943Y-19132650D01*
X11327943Y-19132650D02*
X11346991Y-19142174D01*
X11346991Y-19142174D02*
X11356515Y-19161222D01*
X11356515Y-19161222D02*
X11356515Y-19265984D01*
X11746991Y-19056460D02*
X11575563Y-19313603D01*
X12004134Y-19065984D02*
X12023182Y-19065984D01*
X12023182Y-19065984D02*
X12042229Y-19075508D01*
X12042229Y-19075508D02*
X12051753Y-19085031D01*
X12051753Y-19085031D02*
X12061277Y-19104079D01*
X12061277Y-19104079D02*
X12070801Y-19142174D01*
X12070801Y-19142174D02*
X12070801Y-19189793D01*
X12070801Y-19189793D02*
X12061277Y-19227889D01*
X12061277Y-19227889D02*
X12051753Y-19246936D01*
X12051753Y-19246936D02*
X12042229Y-19256460D01*
X12042229Y-19256460D02*
X12023182Y-19265984D01*
X12023182Y-19265984D02*
X12004134Y-19265984D01*
X12004134Y-19265984D02*
X11985086Y-19256460D01*
X11985086Y-19256460D02*
X11975563Y-19246936D01*
X11975563Y-19246936D02*
X11966039Y-19227889D01*
X11966039Y-19227889D02*
X11956515Y-19189793D01*
X11956515Y-19189793D02*
X11956515Y-19142174D01*
X11956515Y-19142174D02*
X11966039Y-19104079D01*
X11966039Y-19104079D02*
X11975563Y-19085031D01*
X11975563Y-19085031D02*
X11985086Y-19075508D01*
X11985086Y-19075508D02*
X12004134Y-19065984D01*
X12156515Y-19246936D02*
X12166039Y-19256460D01*
X12166039Y-19256460D02*
X12156515Y-19265984D01*
X12156515Y-19265984D02*
X12146991Y-19256460D01*
X12146991Y-19256460D02*
X12156515Y-19246936D01*
X12156515Y-19246936D02*
X12156515Y-19265984D01*
X12289848Y-19065984D02*
X12308896Y-19065984D01*
X12308896Y-19065984D02*
X12327944Y-19075508D01*
X12327944Y-19075508D02*
X12337467Y-19085031D01*
X12337467Y-19085031D02*
X12346991Y-19104079D01*
X12346991Y-19104079D02*
X12356515Y-19142174D01*
X12356515Y-19142174D02*
X12356515Y-19189793D01*
X12356515Y-19189793D02*
X12346991Y-19227889D01*
X12346991Y-19227889D02*
X12337467Y-19246936D01*
X12337467Y-19246936D02*
X12327944Y-19256460D01*
X12327944Y-19256460D02*
X12308896Y-19265984D01*
X12308896Y-19265984D02*
X12289848Y-19265984D01*
X12289848Y-19265984D02*
X12270801Y-19256460D01*
X12270801Y-19256460D02*
X12261277Y-19246936D01*
X12261277Y-19246936D02*
X12251753Y-19227889D01*
X12251753Y-19227889D02*
X12242229Y-19189793D01*
X12242229Y-19189793D02*
X12242229Y-19142174D01*
X12242229Y-19142174D02*
X12251753Y-19104079D01*
X12251753Y-19104079D02*
X12261277Y-19085031D01*
X12261277Y-19085031D02*
X12270801Y-19075508D01*
X12270801Y-19075508D02*
X12289848Y-19065984D01*
X12527944Y-19132650D02*
X12527944Y-19265984D01*
X12480325Y-19056460D02*
X12432706Y-19199317D01*
X12432706Y-19199317D02*
X12556515Y-19199317D01*
X12613658Y-19065984D02*
X12746991Y-19065984D01*
X12746991Y-19065984D02*
X12661277Y-19265984D01*
X12813658Y-19085031D02*
X12823182Y-19075508D01*
X12823182Y-19075508D02*
X12842229Y-19065984D01*
X12842229Y-19065984D02*
X12889848Y-19065984D01*
X12889848Y-19065984D02*
X12908896Y-19075508D01*
X12908896Y-19075508D02*
X12918420Y-19085031D01*
X12918420Y-19085031D02*
X12927944Y-19104079D01*
X12927944Y-19104079D02*
X12927944Y-19123127D01*
X12927944Y-19123127D02*
X12918420Y-19151698D01*
X12918420Y-19151698D02*
X12804134Y-19265984D01*
X12804134Y-19265984D02*
X12927944Y-19265984D01*
X13004134Y-19065984D02*
X13004134Y-19104079D01*
X13080325Y-19065984D02*
X13080325Y-19104079D01*
X13375563Y-19342174D02*
X13366039Y-19332650D01*
X13366039Y-19332650D02*
X13346991Y-19304079D01*
X13346991Y-19304079D02*
X13337468Y-19285031D01*
X13337468Y-19285031D02*
X13327944Y-19256460D01*
X13327944Y-19256460D02*
X13318420Y-19208841D01*
X13318420Y-19208841D02*
X13318420Y-19170746D01*
X13318420Y-19170746D02*
X13327944Y-19123127D01*
X13327944Y-19123127D02*
X13337468Y-19094555D01*
X13337468Y-19094555D02*
X13346991Y-19075508D01*
X13346991Y-19075508D02*
X13366039Y-19046936D01*
X13366039Y-19046936D02*
X13375563Y-19037412D01*
X13556515Y-19265984D02*
X13442229Y-19265984D01*
X13499372Y-19265984D02*
X13499372Y-19065984D01*
X13499372Y-19065984D02*
X13480325Y-19094555D01*
X13480325Y-19094555D02*
X13461277Y-19113603D01*
X13461277Y-19113603D02*
X13442229Y-19123127D01*
X13737468Y-19065984D02*
X13642229Y-19065984D01*
X13642229Y-19065984D02*
X13632706Y-19161222D01*
X13632706Y-19161222D02*
X13642229Y-19151698D01*
X13642229Y-19151698D02*
X13661277Y-19142174D01*
X13661277Y-19142174D02*
X13708896Y-19142174D01*
X13708896Y-19142174D02*
X13727944Y-19151698D01*
X13727944Y-19151698D02*
X13737468Y-19161222D01*
X13737468Y-19161222D02*
X13746991Y-19180270D01*
X13746991Y-19180270D02*
X13746991Y-19227889D01*
X13746991Y-19227889D02*
X13737468Y-19246936D01*
X13737468Y-19246936D02*
X13727944Y-19256460D01*
X13727944Y-19256460D02*
X13708896Y-19265984D01*
X13708896Y-19265984D02*
X13661277Y-19265984D01*
X13661277Y-19265984D02*
X13642229Y-19256460D01*
X13642229Y-19256460D02*
X13632706Y-19246936D01*
X13985087Y-19265984D02*
X13985087Y-19065984D01*
X14070801Y-19265984D02*
X14070801Y-19161222D01*
X14070801Y-19161222D02*
X14061277Y-19142174D01*
X14061277Y-19142174D02*
X14042230Y-19132650D01*
X14042230Y-19132650D02*
X14013658Y-19132650D01*
X14013658Y-19132650D02*
X13994610Y-19142174D01*
X13994610Y-19142174D02*
X13985087Y-19151698D01*
X14194610Y-19265984D02*
X14175563Y-19256460D01*
X14175563Y-19256460D02*
X14166039Y-19246936D01*
X14166039Y-19246936D02*
X14156515Y-19227889D01*
X14156515Y-19227889D02*
X14156515Y-19170746D01*
X14156515Y-19170746D02*
X14166039Y-19151698D01*
X14166039Y-19151698D02*
X14175563Y-19142174D01*
X14175563Y-19142174D02*
X14194610Y-19132650D01*
X14194610Y-19132650D02*
X14223182Y-19132650D01*
X14223182Y-19132650D02*
X14242230Y-19142174D01*
X14242230Y-19142174D02*
X14251753Y-19151698D01*
X14251753Y-19151698D02*
X14261277Y-19170746D01*
X14261277Y-19170746D02*
X14261277Y-19227889D01*
X14261277Y-19227889D02*
X14251753Y-19246936D01*
X14251753Y-19246936D02*
X14242230Y-19256460D01*
X14242230Y-19256460D02*
X14223182Y-19265984D01*
X14223182Y-19265984D02*
X14194610Y-19265984D01*
X14375563Y-19265984D02*
X14356515Y-19256460D01*
X14356515Y-19256460D02*
X14346991Y-19237412D01*
X14346991Y-19237412D02*
X14346991Y-19065984D01*
X14527944Y-19256460D02*
X14508896Y-19265984D01*
X14508896Y-19265984D02*
X14470801Y-19265984D01*
X14470801Y-19265984D02*
X14451753Y-19256460D01*
X14451753Y-19256460D02*
X14442230Y-19237412D01*
X14442230Y-19237412D02*
X14442230Y-19161222D01*
X14442230Y-19161222D02*
X14451753Y-19142174D01*
X14451753Y-19142174D02*
X14470801Y-19132650D01*
X14470801Y-19132650D02*
X14508896Y-19132650D01*
X14508896Y-19132650D02*
X14527944Y-19142174D01*
X14527944Y-19142174D02*
X14537468Y-19161222D01*
X14537468Y-19161222D02*
X14537468Y-19180270D01*
X14537468Y-19180270D02*
X14442230Y-19199317D01*
X14613658Y-19256460D02*
X14632706Y-19265984D01*
X14632706Y-19265984D02*
X14670801Y-19265984D01*
X14670801Y-19265984D02*
X14689849Y-19256460D01*
X14689849Y-19256460D02*
X14699372Y-19237412D01*
X14699372Y-19237412D02*
X14699372Y-19227889D01*
X14699372Y-19227889D02*
X14689849Y-19208841D01*
X14689849Y-19208841D02*
X14670801Y-19199317D01*
X14670801Y-19199317D02*
X14642230Y-19199317D01*
X14642230Y-19199317D02*
X14623182Y-19189793D01*
X14623182Y-19189793D02*
X14613658Y-19170746D01*
X14613658Y-19170746D02*
X14613658Y-19161222D01*
X14613658Y-19161222D02*
X14623182Y-19142174D01*
X14623182Y-19142174D02*
X14642230Y-19132650D01*
X14642230Y-19132650D02*
X14670801Y-19132650D01*
X14670801Y-19132650D02*
X14689849Y-19142174D01*
X14766039Y-19342174D02*
X14775563Y-19332650D01*
X14775563Y-19332650D02*
X14794611Y-19304079D01*
X14794611Y-19304079D02*
X14804134Y-19285031D01*
X14804134Y-19285031D02*
X14813658Y-19256460D01*
X14813658Y-19256460D02*
X14823182Y-19208841D01*
X14823182Y-19208841D02*
X14823182Y-19170746D01*
X14823182Y-19170746D02*
X14813658Y-19123127D01*
X14813658Y-19123127D02*
X14804134Y-19094555D01*
X14804134Y-19094555D02*
X14794611Y-19075508D01*
X14794611Y-19075508D02*
X14775563Y-19046936D01*
X14775563Y-19046936D02*
X14766039Y-19037412D01*
D14*
X9725500Y-19513500D02*
X9800500Y-19438500D01*
X9725500Y-19363500D01*
X9650500Y-19438500D01*
X9725500Y-19513500D01*
D11*
X10166039Y-19529984D02*
X10051753Y-19529984D01*
X10108896Y-19529984D02*
X10108896Y-19329984D01*
X10108896Y-19329984D02*
X10089848Y-19358555D01*
X10089848Y-19358555D02*
X10070801Y-19377603D01*
X10070801Y-19377603D02*
X10051753Y-19387127D01*
X10251753Y-19510936D02*
X10261277Y-19520460D01*
X10261277Y-19520460D02*
X10251753Y-19529984D01*
X10251753Y-19529984D02*
X10242229Y-19520460D01*
X10242229Y-19520460D02*
X10251753Y-19510936D01*
X10251753Y-19510936D02*
X10251753Y-19529984D01*
X10442229Y-19329984D02*
X10346991Y-19329984D01*
X10346991Y-19329984D02*
X10337467Y-19425222D01*
X10337467Y-19425222D02*
X10346991Y-19415698D01*
X10346991Y-19415698D02*
X10366039Y-19406174D01*
X10366039Y-19406174D02*
X10413658Y-19406174D01*
X10413658Y-19406174D02*
X10432705Y-19415698D01*
X10432705Y-19415698D02*
X10442229Y-19425222D01*
X10442229Y-19425222D02*
X10451753Y-19444270D01*
X10451753Y-19444270D02*
X10451753Y-19491889D01*
X10451753Y-19491889D02*
X10442229Y-19510936D01*
X10442229Y-19510936D02*
X10432705Y-19520460D01*
X10432705Y-19520460D02*
X10413658Y-19529984D01*
X10413658Y-19529984D02*
X10366039Y-19529984D01*
X10366039Y-19529984D02*
X10346991Y-19520460D01*
X10346991Y-19520460D02*
X10337467Y-19510936D01*
X10575563Y-19329984D02*
X10594610Y-19329984D01*
X10594610Y-19329984D02*
X10613658Y-19339508D01*
X10613658Y-19339508D02*
X10623182Y-19349031D01*
X10623182Y-19349031D02*
X10632705Y-19368079D01*
X10632705Y-19368079D02*
X10642229Y-19406174D01*
X10642229Y-19406174D02*
X10642229Y-19453793D01*
X10642229Y-19453793D02*
X10632705Y-19491889D01*
X10632705Y-19491889D02*
X10623182Y-19510936D01*
X10623182Y-19510936D02*
X10613658Y-19520460D01*
X10613658Y-19520460D02*
X10594610Y-19529984D01*
X10594610Y-19529984D02*
X10575563Y-19529984D01*
X10575563Y-19529984D02*
X10556515Y-19520460D01*
X10556515Y-19520460D02*
X10546991Y-19510936D01*
X10546991Y-19510936D02*
X10537467Y-19491889D01*
X10537467Y-19491889D02*
X10527944Y-19453793D01*
X10527944Y-19453793D02*
X10527944Y-19406174D01*
X10527944Y-19406174D02*
X10537467Y-19368079D01*
X10537467Y-19368079D02*
X10546991Y-19349031D01*
X10546991Y-19349031D02*
X10556515Y-19339508D01*
X10556515Y-19339508D02*
X10575563Y-19329984D01*
X10766039Y-19329984D02*
X10785086Y-19329984D01*
X10785086Y-19329984D02*
X10804134Y-19339508D01*
X10804134Y-19339508D02*
X10813658Y-19349031D01*
X10813658Y-19349031D02*
X10823182Y-19368079D01*
X10823182Y-19368079D02*
X10832705Y-19406174D01*
X10832705Y-19406174D02*
X10832705Y-19453793D01*
X10832705Y-19453793D02*
X10823182Y-19491889D01*
X10823182Y-19491889D02*
X10813658Y-19510936D01*
X10813658Y-19510936D02*
X10804134Y-19520460D01*
X10804134Y-19520460D02*
X10785086Y-19529984D01*
X10785086Y-19529984D02*
X10766039Y-19529984D01*
X10766039Y-19529984D02*
X10746991Y-19520460D01*
X10746991Y-19520460D02*
X10737467Y-19510936D01*
X10737467Y-19510936D02*
X10727944Y-19491889D01*
X10727944Y-19491889D02*
X10718420Y-19453793D01*
X10718420Y-19453793D02*
X10718420Y-19406174D01*
X10718420Y-19406174D02*
X10727944Y-19368079D01*
X10727944Y-19368079D02*
X10737467Y-19349031D01*
X10737467Y-19349031D02*
X10746991Y-19339508D01*
X10746991Y-19339508D02*
X10766039Y-19329984D01*
X10918420Y-19529984D02*
X10918420Y-19396650D01*
X10918420Y-19415698D02*
X10927944Y-19406174D01*
X10927944Y-19406174D02*
X10946991Y-19396650D01*
X10946991Y-19396650D02*
X10975563Y-19396650D01*
X10975563Y-19396650D02*
X10994610Y-19406174D01*
X10994610Y-19406174D02*
X11004134Y-19425222D01*
X11004134Y-19425222D02*
X11004134Y-19529984D01*
X11004134Y-19425222D02*
X11013658Y-19406174D01*
X11013658Y-19406174D02*
X11032705Y-19396650D01*
X11032705Y-19396650D02*
X11061277Y-19396650D01*
X11061277Y-19396650D02*
X11080325Y-19406174D01*
X11080325Y-19406174D02*
X11089848Y-19425222D01*
X11089848Y-19425222D02*
X11089848Y-19529984D01*
X11185086Y-19529984D02*
X11185086Y-19396650D01*
X11185086Y-19415698D02*
X11194610Y-19406174D01*
X11194610Y-19406174D02*
X11213658Y-19396650D01*
X11213658Y-19396650D02*
X11242229Y-19396650D01*
X11242229Y-19396650D02*
X11261277Y-19406174D01*
X11261277Y-19406174D02*
X11270801Y-19425222D01*
X11270801Y-19425222D02*
X11270801Y-19529984D01*
X11270801Y-19425222D02*
X11280324Y-19406174D01*
X11280324Y-19406174D02*
X11299372Y-19396650D01*
X11299372Y-19396650D02*
X11327943Y-19396650D01*
X11327943Y-19396650D02*
X11346991Y-19406174D01*
X11346991Y-19406174D02*
X11356515Y-19425222D01*
X11356515Y-19425222D02*
X11356515Y-19529984D01*
X11746991Y-19320460D02*
X11575563Y-19577603D01*
X12004134Y-19329984D02*
X12023182Y-19329984D01*
X12023182Y-19329984D02*
X12042229Y-19339508D01*
X12042229Y-19339508D02*
X12051753Y-19349031D01*
X12051753Y-19349031D02*
X12061277Y-19368079D01*
X12061277Y-19368079D02*
X12070801Y-19406174D01*
X12070801Y-19406174D02*
X12070801Y-19453793D01*
X12070801Y-19453793D02*
X12061277Y-19491889D01*
X12061277Y-19491889D02*
X12051753Y-19510936D01*
X12051753Y-19510936D02*
X12042229Y-19520460D01*
X12042229Y-19520460D02*
X12023182Y-19529984D01*
X12023182Y-19529984D02*
X12004134Y-19529984D01*
X12004134Y-19529984D02*
X11985086Y-19520460D01*
X11985086Y-19520460D02*
X11975563Y-19510936D01*
X11975563Y-19510936D02*
X11966039Y-19491889D01*
X11966039Y-19491889D02*
X11956515Y-19453793D01*
X11956515Y-19453793D02*
X11956515Y-19406174D01*
X11956515Y-19406174D02*
X11966039Y-19368079D01*
X11966039Y-19368079D02*
X11975563Y-19349031D01*
X11975563Y-19349031D02*
X11985086Y-19339508D01*
X11985086Y-19339508D02*
X12004134Y-19329984D01*
X12156515Y-19510936D02*
X12166039Y-19520460D01*
X12166039Y-19520460D02*
X12156515Y-19529984D01*
X12156515Y-19529984D02*
X12146991Y-19520460D01*
X12146991Y-19520460D02*
X12156515Y-19510936D01*
X12156515Y-19510936D02*
X12156515Y-19529984D01*
X12289848Y-19329984D02*
X12308896Y-19329984D01*
X12308896Y-19329984D02*
X12327944Y-19339508D01*
X12327944Y-19339508D02*
X12337467Y-19349031D01*
X12337467Y-19349031D02*
X12346991Y-19368079D01*
X12346991Y-19368079D02*
X12356515Y-19406174D01*
X12356515Y-19406174D02*
X12356515Y-19453793D01*
X12356515Y-19453793D02*
X12346991Y-19491889D01*
X12346991Y-19491889D02*
X12337467Y-19510936D01*
X12337467Y-19510936D02*
X12327944Y-19520460D01*
X12327944Y-19520460D02*
X12308896Y-19529984D01*
X12308896Y-19529984D02*
X12289848Y-19529984D01*
X12289848Y-19529984D02*
X12270801Y-19520460D01*
X12270801Y-19520460D02*
X12261277Y-19510936D01*
X12261277Y-19510936D02*
X12251753Y-19491889D01*
X12251753Y-19491889D02*
X12242229Y-19453793D01*
X12242229Y-19453793D02*
X12242229Y-19406174D01*
X12242229Y-19406174D02*
X12251753Y-19368079D01*
X12251753Y-19368079D02*
X12261277Y-19349031D01*
X12261277Y-19349031D02*
X12270801Y-19339508D01*
X12270801Y-19339508D02*
X12289848Y-19329984D01*
X12537467Y-19329984D02*
X12442229Y-19329984D01*
X12442229Y-19329984D02*
X12432706Y-19425222D01*
X12432706Y-19425222D02*
X12442229Y-19415698D01*
X12442229Y-19415698D02*
X12461277Y-19406174D01*
X12461277Y-19406174D02*
X12508896Y-19406174D01*
X12508896Y-19406174D02*
X12527944Y-19415698D01*
X12527944Y-19415698D02*
X12537467Y-19425222D01*
X12537467Y-19425222D02*
X12546991Y-19444270D01*
X12546991Y-19444270D02*
X12546991Y-19491889D01*
X12546991Y-19491889D02*
X12537467Y-19510936D01*
X12537467Y-19510936D02*
X12527944Y-19520460D01*
X12527944Y-19520460D02*
X12508896Y-19529984D01*
X12508896Y-19529984D02*
X12461277Y-19529984D01*
X12461277Y-19529984D02*
X12442229Y-19520460D01*
X12442229Y-19520460D02*
X12432706Y-19510936D01*
X12642229Y-19529984D02*
X12680325Y-19529984D01*
X12680325Y-19529984D02*
X12699372Y-19520460D01*
X12699372Y-19520460D02*
X12708896Y-19510936D01*
X12708896Y-19510936D02*
X12727944Y-19482365D01*
X12727944Y-19482365D02*
X12737467Y-19444270D01*
X12737467Y-19444270D02*
X12737467Y-19368079D01*
X12737467Y-19368079D02*
X12727944Y-19349031D01*
X12727944Y-19349031D02*
X12718420Y-19339508D01*
X12718420Y-19339508D02*
X12699372Y-19329984D01*
X12699372Y-19329984D02*
X12661277Y-19329984D01*
X12661277Y-19329984D02*
X12642229Y-19339508D01*
X12642229Y-19339508D02*
X12632706Y-19349031D01*
X12632706Y-19349031D02*
X12623182Y-19368079D01*
X12623182Y-19368079D02*
X12623182Y-19415698D01*
X12623182Y-19415698D02*
X12632706Y-19434746D01*
X12632706Y-19434746D02*
X12642229Y-19444270D01*
X12642229Y-19444270D02*
X12661277Y-19453793D01*
X12661277Y-19453793D02*
X12699372Y-19453793D01*
X12699372Y-19453793D02*
X12718420Y-19444270D01*
X12718420Y-19444270D02*
X12727944Y-19434746D01*
X12727944Y-19434746D02*
X12737467Y-19415698D01*
X12927944Y-19529984D02*
X12813658Y-19529984D01*
X12870801Y-19529984D02*
X12870801Y-19329984D01*
X12870801Y-19329984D02*
X12851753Y-19358555D01*
X12851753Y-19358555D02*
X12832706Y-19377603D01*
X12832706Y-19377603D02*
X12813658Y-19387127D01*
X13004134Y-19329984D02*
X13004134Y-19368079D01*
X13080325Y-19329984D02*
X13080325Y-19368079D01*
X13375563Y-19606174D02*
X13366039Y-19596650D01*
X13366039Y-19596650D02*
X13346991Y-19568079D01*
X13346991Y-19568079D02*
X13337468Y-19549031D01*
X13337468Y-19549031D02*
X13327944Y-19520460D01*
X13327944Y-19520460D02*
X13318420Y-19472841D01*
X13318420Y-19472841D02*
X13318420Y-19434746D01*
X13318420Y-19434746D02*
X13327944Y-19387127D01*
X13327944Y-19387127D02*
X13337468Y-19358555D01*
X13337468Y-19358555D02*
X13346991Y-19339508D01*
X13346991Y-19339508D02*
X13366039Y-19310936D01*
X13366039Y-19310936D02*
X13375563Y-19301412D01*
X13432706Y-19329984D02*
X13556515Y-19329984D01*
X13556515Y-19329984D02*
X13489848Y-19406174D01*
X13489848Y-19406174D02*
X13518420Y-19406174D01*
X13518420Y-19406174D02*
X13537468Y-19415698D01*
X13537468Y-19415698D02*
X13546991Y-19425222D01*
X13546991Y-19425222D02*
X13556515Y-19444270D01*
X13556515Y-19444270D02*
X13556515Y-19491889D01*
X13556515Y-19491889D02*
X13546991Y-19510936D01*
X13546991Y-19510936D02*
X13537468Y-19520460D01*
X13537468Y-19520460D02*
X13518420Y-19529984D01*
X13518420Y-19529984D02*
X13461277Y-19529984D01*
X13461277Y-19529984D02*
X13442229Y-19520460D01*
X13442229Y-19520460D02*
X13432706Y-19510936D01*
X13727944Y-19329984D02*
X13689848Y-19329984D01*
X13689848Y-19329984D02*
X13670801Y-19339508D01*
X13670801Y-19339508D02*
X13661277Y-19349031D01*
X13661277Y-19349031D02*
X13642229Y-19377603D01*
X13642229Y-19377603D02*
X13632706Y-19415698D01*
X13632706Y-19415698D02*
X13632706Y-19491889D01*
X13632706Y-19491889D02*
X13642229Y-19510936D01*
X13642229Y-19510936D02*
X13651753Y-19520460D01*
X13651753Y-19520460D02*
X13670801Y-19529984D01*
X13670801Y-19529984D02*
X13708896Y-19529984D01*
X13708896Y-19529984D02*
X13727944Y-19520460D01*
X13727944Y-19520460D02*
X13737468Y-19510936D01*
X13737468Y-19510936D02*
X13746991Y-19491889D01*
X13746991Y-19491889D02*
X13746991Y-19444270D01*
X13746991Y-19444270D02*
X13737468Y-19425222D01*
X13737468Y-19425222D02*
X13727944Y-19415698D01*
X13727944Y-19415698D02*
X13708896Y-19406174D01*
X13708896Y-19406174D02*
X13670801Y-19406174D01*
X13670801Y-19406174D02*
X13651753Y-19415698D01*
X13651753Y-19415698D02*
X13642229Y-19425222D01*
X13642229Y-19425222D02*
X13632706Y-19444270D01*
X13985087Y-19529984D02*
X13985087Y-19329984D01*
X14070801Y-19529984D02*
X14070801Y-19425222D01*
X14070801Y-19425222D02*
X14061277Y-19406174D01*
X14061277Y-19406174D02*
X14042230Y-19396650D01*
X14042230Y-19396650D02*
X14013658Y-19396650D01*
X14013658Y-19396650D02*
X13994610Y-19406174D01*
X13994610Y-19406174D02*
X13985087Y-19415698D01*
X14194610Y-19529984D02*
X14175563Y-19520460D01*
X14175563Y-19520460D02*
X14166039Y-19510936D01*
X14166039Y-19510936D02*
X14156515Y-19491889D01*
X14156515Y-19491889D02*
X14156515Y-19434746D01*
X14156515Y-19434746D02*
X14166039Y-19415698D01*
X14166039Y-19415698D02*
X14175563Y-19406174D01*
X14175563Y-19406174D02*
X14194610Y-19396650D01*
X14194610Y-19396650D02*
X14223182Y-19396650D01*
X14223182Y-19396650D02*
X14242230Y-19406174D01*
X14242230Y-19406174D02*
X14251753Y-19415698D01*
X14251753Y-19415698D02*
X14261277Y-19434746D01*
X14261277Y-19434746D02*
X14261277Y-19491889D01*
X14261277Y-19491889D02*
X14251753Y-19510936D01*
X14251753Y-19510936D02*
X14242230Y-19520460D01*
X14242230Y-19520460D02*
X14223182Y-19529984D01*
X14223182Y-19529984D02*
X14194610Y-19529984D01*
X14375563Y-19529984D02*
X14356515Y-19520460D01*
X14356515Y-19520460D02*
X14346991Y-19501412D01*
X14346991Y-19501412D02*
X14346991Y-19329984D01*
X14527944Y-19520460D02*
X14508896Y-19529984D01*
X14508896Y-19529984D02*
X14470801Y-19529984D01*
X14470801Y-19529984D02*
X14451753Y-19520460D01*
X14451753Y-19520460D02*
X14442230Y-19501412D01*
X14442230Y-19501412D02*
X14442230Y-19425222D01*
X14442230Y-19425222D02*
X14451753Y-19406174D01*
X14451753Y-19406174D02*
X14470801Y-19396650D01*
X14470801Y-19396650D02*
X14508896Y-19396650D01*
X14508896Y-19396650D02*
X14527944Y-19406174D01*
X14527944Y-19406174D02*
X14537468Y-19425222D01*
X14537468Y-19425222D02*
X14537468Y-19444270D01*
X14537468Y-19444270D02*
X14442230Y-19463317D01*
X14613658Y-19520460D02*
X14632706Y-19529984D01*
X14632706Y-19529984D02*
X14670801Y-19529984D01*
X14670801Y-19529984D02*
X14689849Y-19520460D01*
X14689849Y-19520460D02*
X14699372Y-19501412D01*
X14699372Y-19501412D02*
X14699372Y-19491889D01*
X14699372Y-19491889D02*
X14689849Y-19472841D01*
X14689849Y-19472841D02*
X14670801Y-19463317D01*
X14670801Y-19463317D02*
X14642230Y-19463317D01*
X14642230Y-19463317D02*
X14623182Y-19453793D01*
X14623182Y-19453793D02*
X14613658Y-19434746D01*
X14613658Y-19434746D02*
X14613658Y-19425222D01*
X14613658Y-19425222D02*
X14623182Y-19406174D01*
X14623182Y-19406174D02*
X14642230Y-19396650D01*
X14642230Y-19396650D02*
X14670801Y-19396650D01*
X14670801Y-19396650D02*
X14689849Y-19406174D01*
X14937468Y-19453793D02*
X15089849Y-19453793D01*
X15013658Y-19529984D02*
X15013658Y-19377603D01*
X15423182Y-19396650D02*
X15423182Y-19529984D01*
X15375563Y-19320460D02*
X15327944Y-19463317D01*
X15327944Y-19463317D02*
X15451753Y-19463317D01*
X15670801Y-19520460D02*
X15689849Y-19529984D01*
X15689849Y-19529984D02*
X15727944Y-19529984D01*
X15727944Y-19529984D02*
X15746992Y-19520460D01*
X15746992Y-19520460D02*
X15756515Y-19501412D01*
X15756515Y-19501412D02*
X15756515Y-19491889D01*
X15756515Y-19491889D02*
X15746992Y-19472841D01*
X15746992Y-19472841D02*
X15727944Y-19463317D01*
X15727944Y-19463317D02*
X15699373Y-19463317D01*
X15699373Y-19463317D02*
X15680325Y-19453793D01*
X15680325Y-19453793D02*
X15670801Y-19434746D01*
X15670801Y-19434746D02*
X15670801Y-19425222D01*
X15670801Y-19425222D02*
X15680325Y-19406174D01*
X15680325Y-19406174D02*
X15699373Y-19396650D01*
X15699373Y-19396650D02*
X15727944Y-19396650D01*
X15727944Y-19396650D02*
X15746992Y-19406174D01*
X15870801Y-19529984D02*
X15851754Y-19520460D01*
X15851754Y-19520460D02*
X15842230Y-19501412D01*
X15842230Y-19501412D02*
X15842230Y-19329984D01*
X15975563Y-19529984D02*
X15956515Y-19520460D01*
X15956515Y-19520460D02*
X15946992Y-19510936D01*
X15946992Y-19510936D02*
X15937468Y-19491889D01*
X15937468Y-19491889D02*
X15937468Y-19434746D01*
X15937468Y-19434746D02*
X15946992Y-19415698D01*
X15946992Y-19415698D02*
X15956515Y-19406174D01*
X15956515Y-19406174D02*
X15975563Y-19396650D01*
X15975563Y-19396650D02*
X16004135Y-19396650D01*
X16004135Y-19396650D02*
X16023182Y-19406174D01*
X16023182Y-19406174D02*
X16032706Y-19415698D01*
X16032706Y-19415698D02*
X16042230Y-19434746D01*
X16042230Y-19434746D02*
X16042230Y-19491889D01*
X16042230Y-19491889D02*
X16032706Y-19510936D01*
X16032706Y-19510936D02*
X16023182Y-19520460D01*
X16023182Y-19520460D02*
X16004135Y-19529984D01*
X16004135Y-19529984D02*
X15975563Y-19529984D01*
X16099373Y-19396650D02*
X16175563Y-19396650D01*
X16127944Y-19329984D02*
X16127944Y-19501412D01*
X16127944Y-19501412D02*
X16137468Y-19520460D01*
X16137468Y-19520460D02*
X16156515Y-19529984D01*
X16156515Y-19529984D02*
X16175563Y-19529984D01*
X16232706Y-19520460D02*
X16251754Y-19529984D01*
X16251754Y-19529984D02*
X16289849Y-19529984D01*
X16289849Y-19529984D02*
X16308896Y-19520460D01*
X16308896Y-19520460D02*
X16318420Y-19501412D01*
X16318420Y-19501412D02*
X16318420Y-19491889D01*
X16318420Y-19491889D02*
X16308896Y-19472841D01*
X16308896Y-19472841D02*
X16289849Y-19463317D01*
X16289849Y-19463317D02*
X16261277Y-19463317D01*
X16261277Y-19463317D02*
X16242230Y-19453793D01*
X16242230Y-19453793D02*
X16232706Y-19434746D01*
X16232706Y-19434746D02*
X16232706Y-19425222D01*
X16232706Y-19425222D02*
X16242230Y-19406174D01*
X16242230Y-19406174D02*
X16261277Y-19396650D01*
X16261277Y-19396650D02*
X16289849Y-19396650D01*
X16289849Y-19396650D02*
X16308896Y-19406174D01*
X16385087Y-19606174D02*
X16394611Y-19596650D01*
X16394611Y-19596650D02*
X16413658Y-19568079D01*
X16413658Y-19568079D02*
X16423182Y-19549031D01*
X16423182Y-19549031D02*
X16432706Y-19520460D01*
X16432706Y-19520460D02*
X16442230Y-19472841D01*
X16442230Y-19472841D02*
X16442230Y-19434746D01*
X16442230Y-19434746D02*
X16432706Y-19387127D01*
X16432706Y-19387127D02*
X16423182Y-19358555D01*
X16423182Y-19358555D02*
X16413658Y-19339508D01*
X16413658Y-19339508D02*
X16394611Y-19310936D01*
X16394611Y-19310936D02*
X16385087Y-19301412D01*
D15*
X9630500Y-19623500D02*
X9800500Y-19793500D01*
X9800500Y-19623500D02*
X9630500Y-19793500D01*
X9800500Y-19708500D02*
G75*
G02*
X9630500Y-19708500I-85000J0D01*
G01*
X9630500Y-19708500D02*
G75*
G02*
X9800500Y-19708500I85000J0D01*
G01*
D11*
X10166039Y-19799984D02*
X10051753Y-19799984D01*
X10108896Y-19799984D02*
X10108896Y-19599984D01*
X10108896Y-19599984D02*
X10089848Y-19628555D01*
X10089848Y-19628555D02*
X10070801Y-19647603D01*
X10070801Y-19647603D02*
X10051753Y-19657127D01*
X10251753Y-19780936D02*
X10261277Y-19790460D01*
X10261277Y-19790460D02*
X10251753Y-19799984D01*
X10251753Y-19799984D02*
X10242229Y-19790460D01*
X10242229Y-19790460D02*
X10251753Y-19780936D01*
X10251753Y-19780936D02*
X10251753Y-19799984D01*
X10327944Y-19599984D02*
X10461277Y-19599984D01*
X10461277Y-19599984D02*
X10375563Y-19799984D01*
X10575563Y-19599984D02*
X10594610Y-19599984D01*
X10594610Y-19599984D02*
X10613658Y-19609508D01*
X10613658Y-19609508D02*
X10623182Y-19619031D01*
X10623182Y-19619031D02*
X10632705Y-19638079D01*
X10632705Y-19638079D02*
X10642229Y-19676174D01*
X10642229Y-19676174D02*
X10642229Y-19723793D01*
X10642229Y-19723793D02*
X10632705Y-19761889D01*
X10632705Y-19761889D02*
X10623182Y-19780936D01*
X10623182Y-19780936D02*
X10613658Y-19790460D01*
X10613658Y-19790460D02*
X10594610Y-19799984D01*
X10594610Y-19799984D02*
X10575563Y-19799984D01*
X10575563Y-19799984D02*
X10556515Y-19790460D01*
X10556515Y-19790460D02*
X10546991Y-19780936D01*
X10546991Y-19780936D02*
X10537467Y-19761889D01*
X10537467Y-19761889D02*
X10527944Y-19723793D01*
X10527944Y-19723793D02*
X10527944Y-19676174D01*
X10527944Y-19676174D02*
X10537467Y-19638079D01*
X10537467Y-19638079D02*
X10546991Y-19619031D01*
X10546991Y-19619031D02*
X10556515Y-19609508D01*
X10556515Y-19609508D02*
X10575563Y-19599984D01*
X10766039Y-19599984D02*
X10785086Y-19599984D01*
X10785086Y-19599984D02*
X10804134Y-19609508D01*
X10804134Y-19609508D02*
X10813658Y-19619031D01*
X10813658Y-19619031D02*
X10823182Y-19638079D01*
X10823182Y-19638079D02*
X10832705Y-19676174D01*
X10832705Y-19676174D02*
X10832705Y-19723793D01*
X10832705Y-19723793D02*
X10823182Y-19761889D01*
X10823182Y-19761889D02*
X10813658Y-19780936D01*
X10813658Y-19780936D02*
X10804134Y-19790460D01*
X10804134Y-19790460D02*
X10785086Y-19799984D01*
X10785086Y-19799984D02*
X10766039Y-19799984D01*
X10766039Y-19799984D02*
X10746991Y-19790460D01*
X10746991Y-19790460D02*
X10737467Y-19780936D01*
X10737467Y-19780936D02*
X10727944Y-19761889D01*
X10727944Y-19761889D02*
X10718420Y-19723793D01*
X10718420Y-19723793D02*
X10718420Y-19676174D01*
X10718420Y-19676174D02*
X10727944Y-19638079D01*
X10727944Y-19638079D02*
X10737467Y-19619031D01*
X10737467Y-19619031D02*
X10746991Y-19609508D01*
X10746991Y-19609508D02*
X10766039Y-19599984D01*
X10918420Y-19799984D02*
X10918420Y-19666650D01*
X10918420Y-19685698D02*
X10927944Y-19676174D01*
X10927944Y-19676174D02*
X10946991Y-19666650D01*
X10946991Y-19666650D02*
X10975563Y-19666650D01*
X10975563Y-19666650D02*
X10994610Y-19676174D01*
X10994610Y-19676174D02*
X11004134Y-19695222D01*
X11004134Y-19695222D02*
X11004134Y-19799984D01*
X11004134Y-19695222D02*
X11013658Y-19676174D01*
X11013658Y-19676174D02*
X11032705Y-19666650D01*
X11032705Y-19666650D02*
X11061277Y-19666650D01*
X11061277Y-19666650D02*
X11080325Y-19676174D01*
X11080325Y-19676174D02*
X11089848Y-19695222D01*
X11089848Y-19695222D02*
X11089848Y-19799984D01*
X11185086Y-19799984D02*
X11185086Y-19666650D01*
X11185086Y-19685698D02*
X11194610Y-19676174D01*
X11194610Y-19676174D02*
X11213658Y-19666650D01*
X11213658Y-19666650D02*
X11242229Y-19666650D01*
X11242229Y-19666650D02*
X11261277Y-19676174D01*
X11261277Y-19676174D02*
X11270801Y-19695222D01*
X11270801Y-19695222D02*
X11270801Y-19799984D01*
X11270801Y-19695222D02*
X11280324Y-19676174D01*
X11280324Y-19676174D02*
X11299372Y-19666650D01*
X11299372Y-19666650D02*
X11327943Y-19666650D01*
X11327943Y-19666650D02*
X11346991Y-19676174D01*
X11346991Y-19676174D02*
X11356515Y-19695222D01*
X11356515Y-19695222D02*
X11356515Y-19799984D01*
X11746991Y-19590460D02*
X11575563Y-19847603D01*
X12004134Y-19599984D02*
X12023182Y-19599984D01*
X12023182Y-19599984D02*
X12042229Y-19609508D01*
X12042229Y-19609508D02*
X12051753Y-19619031D01*
X12051753Y-19619031D02*
X12061277Y-19638079D01*
X12061277Y-19638079D02*
X12070801Y-19676174D01*
X12070801Y-19676174D02*
X12070801Y-19723793D01*
X12070801Y-19723793D02*
X12061277Y-19761889D01*
X12061277Y-19761889D02*
X12051753Y-19780936D01*
X12051753Y-19780936D02*
X12042229Y-19790460D01*
X12042229Y-19790460D02*
X12023182Y-19799984D01*
X12023182Y-19799984D02*
X12004134Y-19799984D01*
X12004134Y-19799984D02*
X11985086Y-19790460D01*
X11985086Y-19790460D02*
X11975563Y-19780936D01*
X11975563Y-19780936D02*
X11966039Y-19761889D01*
X11966039Y-19761889D02*
X11956515Y-19723793D01*
X11956515Y-19723793D02*
X11956515Y-19676174D01*
X11956515Y-19676174D02*
X11966039Y-19638079D01*
X11966039Y-19638079D02*
X11975563Y-19619031D01*
X11975563Y-19619031D02*
X11985086Y-19609508D01*
X11985086Y-19609508D02*
X12004134Y-19599984D01*
X12156515Y-19780936D02*
X12166039Y-19790460D01*
X12166039Y-19790460D02*
X12156515Y-19799984D01*
X12156515Y-19799984D02*
X12146991Y-19790460D01*
X12146991Y-19790460D02*
X12156515Y-19780936D01*
X12156515Y-19780936D02*
X12156515Y-19799984D01*
X12289848Y-19599984D02*
X12308896Y-19599984D01*
X12308896Y-19599984D02*
X12327944Y-19609508D01*
X12327944Y-19609508D02*
X12337467Y-19619031D01*
X12337467Y-19619031D02*
X12346991Y-19638079D01*
X12346991Y-19638079D02*
X12356515Y-19676174D01*
X12356515Y-19676174D02*
X12356515Y-19723793D01*
X12356515Y-19723793D02*
X12346991Y-19761889D01*
X12346991Y-19761889D02*
X12337467Y-19780936D01*
X12337467Y-19780936D02*
X12327944Y-19790460D01*
X12327944Y-19790460D02*
X12308896Y-19799984D01*
X12308896Y-19799984D02*
X12289848Y-19799984D01*
X12289848Y-19799984D02*
X12270801Y-19790460D01*
X12270801Y-19790460D02*
X12261277Y-19780936D01*
X12261277Y-19780936D02*
X12251753Y-19761889D01*
X12251753Y-19761889D02*
X12242229Y-19723793D01*
X12242229Y-19723793D02*
X12242229Y-19676174D01*
X12242229Y-19676174D02*
X12251753Y-19638079D01*
X12251753Y-19638079D02*
X12261277Y-19619031D01*
X12261277Y-19619031D02*
X12270801Y-19609508D01*
X12270801Y-19609508D02*
X12289848Y-19599984D01*
X12527944Y-19599984D02*
X12489848Y-19599984D01*
X12489848Y-19599984D02*
X12470801Y-19609508D01*
X12470801Y-19609508D02*
X12461277Y-19619031D01*
X12461277Y-19619031D02*
X12442229Y-19647603D01*
X12442229Y-19647603D02*
X12432706Y-19685698D01*
X12432706Y-19685698D02*
X12432706Y-19761889D01*
X12432706Y-19761889D02*
X12442229Y-19780936D01*
X12442229Y-19780936D02*
X12451753Y-19790460D01*
X12451753Y-19790460D02*
X12470801Y-19799984D01*
X12470801Y-19799984D02*
X12508896Y-19799984D01*
X12508896Y-19799984D02*
X12527944Y-19790460D01*
X12527944Y-19790460D02*
X12537467Y-19780936D01*
X12537467Y-19780936D02*
X12546991Y-19761889D01*
X12546991Y-19761889D02*
X12546991Y-19714270D01*
X12546991Y-19714270D02*
X12537467Y-19695222D01*
X12537467Y-19695222D02*
X12527944Y-19685698D01*
X12527944Y-19685698D02*
X12508896Y-19676174D01*
X12508896Y-19676174D02*
X12470801Y-19676174D01*
X12470801Y-19676174D02*
X12451753Y-19685698D01*
X12451753Y-19685698D02*
X12442229Y-19695222D01*
X12442229Y-19695222D02*
X12432706Y-19714270D01*
X12718420Y-19599984D02*
X12680325Y-19599984D01*
X12680325Y-19599984D02*
X12661277Y-19609508D01*
X12661277Y-19609508D02*
X12651753Y-19619031D01*
X12651753Y-19619031D02*
X12632706Y-19647603D01*
X12632706Y-19647603D02*
X12623182Y-19685698D01*
X12623182Y-19685698D02*
X12623182Y-19761889D01*
X12623182Y-19761889D02*
X12632706Y-19780936D01*
X12632706Y-19780936D02*
X12642229Y-19790460D01*
X12642229Y-19790460D02*
X12661277Y-19799984D01*
X12661277Y-19799984D02*
X12699372Y-19799984D01*
X12699372Y-19799984D02*
X12718420Y-19790460D01*
X12718420Y-19790460D02*
X12727944Y-19780936D01*
X12727944Y-19780936D02*
X12737467Y-19761889D01*
X12737467Y-19761889D02*
X12737467Y-19714270D01*
X12737467Y-19714270D02*
X12727944Y-19695222D01*
X12727944Y-19695222D02*
X12718420Y-19685698D01*
X12718420Y-19685698D02*
X12699372Y-19676174D01*
X12699372Y-19676174D02*
X12661277Y-19676174D01*
X12661277Y-19676174D02*
X12642229Y-19685698D01*
X12642229Y-19685698D02*
X12632706Y-19695222D01*
X12632706Y-19695222D02*
X12623182Y-19714270D01*
X12832706Y-19799984D02*
X12870801Y-19799984D01*
X12870801Y-19799984D02*
X12889848Y-19790460D01*
X12889848Y-19790460D02*
X12899372Y-19780936D01*
X12899372Y-19780936D02*
X12918420Y-19752365D01*
X12918420Y-19752365D02*
X12927944Y-19714270D01*
X12927944Y-19714270D02*
X12927944Y-19638079D01*
X12927944Y-19638079D02*
X12918420Y-19619031D01*
X12918420Y-19619031D02*
X12908896Y-19609508D01*
X12908896Y-19609508D02*
X12889848Y-19599984D01*
X12889848Y-19599984D02*
X12851753Y-19599984D01*
X12851753Y-19599984D02*
X12832706Y-19609508D01*
X12832706Y-19609508D02*
X12823182Y-19619031D01*
X12823182Y-19619031D02*
X12813658Y-19638079D01*
X12813658Y-19638079D02*
X12813658Y-19685698D01*
X12813658Y-19685698D02*
X12823182Y-19704746D01*
X12823182Y-19704746D02*
X12832706Y-19714270D01*
X12832706Y-19714270D02*
X12851753Y-19723793D01*
X12851753Y-19723793D02*
X12889848Y-19723793D01*
X12889848Y-19723793D02*
X12908896Y-19714270D01*
X12908896Y-19714270D02*
X12918420Y-19704746D01*
X12918420Y-19704746D02*
X12927944Y-19685698D01*
X13004134Y-19599984D02*
X13004134Y-19638079D01*
X13080325Y-19599984D02*
X13080325Y-19638079D01*
X13375563Y-19876174D02*
X13366039Y-19866650D01*
X13366039Y-19866650D02*
X13346991Y-19838079D01*
X13346991Y-19838079D02*
X13337468Y-19819031D01*
X13337468Y-19819031D02*
X13327944Y-19790460D01*
X13327944Y-19790460D02*
X13318420Y-19742841D01*
X13318420Y-19742841D02*
X13318420Y-19704746D01*
X13318420Y-19704746D02*
X13327944Y-19657127D01*
X13327944Y-19657127D02*
X13337468Y-19628555D01*
X13337468Y-19628555D02*
X13346991Y-19609508D01*
X13346991Y-19609508D02*
X13366039Y-19580936D01*
X13366039Y-19580936D02*
X13375563Y-19571412D01*
X13442229Y-19619031D02*
X13451753Y-19609508D01*
X13451753Y-19609508D02*
X13470801Y-19599984D01*
X13470801Y-19599984D02*
X13518420Y-19599984D01*
X13518420Y-19599984D02*
X13537468Y-19609508D01*
X13537468Y-19609508D02*
X13546991Y-19619031D01*
X13546991Y-19619031D02*
X13556515Y-19638079D01*
X13556515Y-19638079D02*
X13556515Y-19657127D01*
X13556515Y-19657127D02*
X13546991Y-19685698D01*
X13546991Y-19685698D02*
X13432706Y-19799984D01*
X13432706Y-19799984D02*
X13556515Y-19799984D01*
X13680325Y-19599984D02*
X13699372Y-19599984D01*
X13699372Y-19599984D02*
X13718420Y-19609508D01*
X13718420Y-19609508D02*
X13727944Y-19619031D01*
X13727944Y-19619031D02*
X13737468Y-19638079D01*
X13737468Y-19638079D02*
X13746991Y-19676174D01*
X13746991Y-19676174D02*
X13746991Y-19723793D01*
X13746991Y-19723793D02*
X13737468Y-19761889D01*
X13737468Y-19761889D02*
X13727944Y-19780936D01*
X13727944Y-19780936D02*
X13718420Y-19790460D01*
X13718420Y-19790460D02*
X13699372Y-19799984D01*
X13699372Y-19799984D02*
X13680325Y-19799984D01*
X13680325Y-19799984D02*
X13661277Y-19790460D01*
X13661277Y-19790460D02*
X13651753Y-19780936D01*
X13651753Y-19780936D02*
X13642229Y-19761889D01*
X13642229Y-19761889D02*
X13632706Y-19723793D01*
X13632706Y-19723793D02*
X13632706Y-19676174D01*
X13632706Y-19676174D02*
X13642229Y-19638079D01*
X13642229Y-19638079D02*
X13651753Y-19619031D01*
X13651753Y-19619031D02*
X13661277Y-19609508D01*
X13661277Y-19609508D02*
X13680325Y-19599984D01*
X13985087Y-19799984D02*
X13985087Y-19599984D01*
X14070801Y-19799984D02*
X14070801Y-19695222D01*
X14070801Y-19695222D02*
X14061277Y-19676174D01*
X14061277Y-19676174D02*
X14042230Y-19666650D01*
X14042230Y-19666650D02*
X14013658Y-19666650D01*
X14013658Y-19666650D02*
X13994610Y-19676174D01*
X13994610Y-19676174D02*
X13985087Y-19685698D01*
X14194610Y-19799984D02*
X14175563Y-19790460D01*
X14175563Y-19790460D02*
X14166039Y-19780936D01*
X14166039Y-19780936D02*
X14156515Y-19761889D01*
X14156515Y-19761889D02*
X14156515Y-19704746D01*
X14156515Y-19704746D02*
X14166039Y-19685698D01*
X14166039Y-19685698D02*
X14175563Y-19676174D01*
X14175563Y-19676174D02*
X14194610Y-19666650D01*
X14194610Y-19666650D02*
X14223182Y-19666650D01*
X14223182Y-19666650D02*
X14242230Y-19676174D01*
X14242230Y-19676174D02*
X14251753Y-19685698D01*
X14251753Y-19685698D02*
X14261277Y-19704746D01*
X14261277Y-19704746D02*
X14261277Y-19761889D01*
X14261277Y-19761889D02*
X14251753Y-19780936D01*
X14251753Y-19780936D02*
X14242230Y-19790460D01*
X14242230Y-19790460D02*
X14223182Y-19799984D01*
X14223182Y-19799984D02*
X14194610Y-19799984D01*
X14375563Y-19799984D02*
X14356515Y-19790460D01*
X14356515Y-19790460D02*
X14346991Y-19771412D01*
X14346991Y-19771412D02*
X14346991Y-19599984D01*
X14527944Y-19790460D02*
X14508896Y-19799984D01*
X14508896Y-19799984D02*
X14470801Y-19799984D01*
X14470801Y-19799984D02*
X14451753Y-19790460D01*
X14451753Y-19790460D02*
X14442230Y-19771412D01*
X14442230Y-19771412D02*
X14442230Y-19695222D01*
X14442230Y-19695222D02*
X14451753Y-19676174D01*
X14451753Y-19676174D02*
X14470801Y-19666650D01*
X14470801Y-19666650D02*
X14508896Y-19666650D01*
X14508896Y-19666650D02*
X14527944Y-19676174D01*
X14527944Y-19676174D02*
X14537468Y-19695222D01*
X14537468Y-19695222D02*
X14537468Y-19714270D01*
X14537468Y-19714270D02*
X14442230Y-19733317D01*
X14613658Y-19790460D02*
X14632706Y-19799984D01*
X14632706Y-19799984D02*
X14670801Y-19799984D01*
X14670801Y-19799984D02*
X14689849Y-19790460D01*
X14689849Y-19790460D02*
X14699372Y-19771412D01*
X14699372Y-19771412D02*
X14699372Y-19761889D01*
X14699372Y-19761889D02*
X14689849Y-19742841D01*
X14689849Y-19742841D02*
X14670801Y-19733317D01*
X14670801Y-19733317D02*
X14642230Y-19733317D01*
X14642230Y-19733317D02*
X14623182Y-19723793D01*
X14623182Y-19723793D02*
X14613658Y-19704746D01*
X14613658Y-19704746D02*
X14613658Y-19695222D01*
X14613658Y-19695222D02*
X14623182Y-19676174D01*
X14623182Y-19676174D02*
X14642230Y-19666650D01*
X14642230Y-19666650D02*
X14670801Y-19666650D01*
X14670801Y-19666650D02*
X14689849Y-19676174D01*
X14766039Y-19876174D02*
X14775563Y-19866650D01*
X14775563Y-19866650D02*
X14794611Y-19838079D01*
X14794611Y-19838079D02*
X14804134Y-19819031D01*
X14804134Y-19819031D02*
X14813658Y-19790460D01*
X14813658Y-19790460D02*
X14823182Y-19742841D01*
X14823182Y-19742841D02*
X14823182Y-19704746D01*
X14823182Y-19704746D02*
X14813658Y-19657127D01*
X14813658Y-19657127D02*
X14804134Y-19628555D01*
X14804134Y-19628555D02*
X14794611Y-19609508D01*
X14794611Y-19609508D02*
X14775563Y-19580936D01*
X14775563Y-19580936D02*
X14766039Y-19571412D01*
D15*
X9630500Y-19913500D02*
X9800500Y-20083500D01*
X9800500Y-19913500D02*
X9630500Y-20083500D01*
X9715500Y-19913500D02*
X9715500Y-20083500D01*
X9630500Y-19998500D02*
X9800500Y-19998500D01*
D11*
X10166039Y-20089984D02*
X10051753Y-20089984D01*
X10108896Y-20089984D02*
X10108896Y-19889984D01*
X10108896Y-19889984D02*
X10089848Y-19918555D01*
X10089848Y-19918555D02*
X10070801Y-19937603D01*
X10070801Y-19937603D02*
X10051753Y-19947127D01*
X10251753Y-20070936D02*
X10261277Y-20080460D01*
X10261277Y-20080460D02*
X10251753Y-20089984D01*
X10251753Y-20089984D02*
X10242229Y-20080460D01*
X10242229Y-20080460D02*
X10251753Y-20070936D01*
X10251753Y-20070936D02*
X10251753Y-20089984D01*
X10327944Y-19889984D02*
X10461277Y-19889984D01*
X10461277Y-19889984D02*
X10375563Y-20089984D01*
X10575563Y-19889984D02*
X10594610Y-19889984D01*
X10594610Y-19889984D02*
X10613658Y-19899508D01*
X10613658Y-19899508D02*
X10623182Y-19909031D01*
X10623182Y-19909031D02*
X10632705Y-19928079D01*
X10632705Y-19928079D02*
X10642229Y-19966174D01*
X10642229Y-19966174D02*
X10642229Y-20013793D01*
X10642229Y-20013793D02*
X10632705Y-20051889D01*
X10632705Y-20051889D02*
X10623182Y-20070936D01*
X10623182Y-20070936D02*
X10613658Y-20080460D01*
X10613658Y-20080460D02*
X10594610Y-20089984D01*
X10594610Y-20089984D02*
X10575563Y-20089984D01*
X10575563Y-20089984D02*
X10556515Y-20080460D01*
X10556515Y-20080460D02*
X10546991Y-20070936D01*
X10546991Y-20070936D02*
X10537467Y-20051889D01*
X10537467Y-20051889D02*
X10527944Y-20013793D01*
X10527944Y-20013793D02*
X10527944Y-19966174D01*
X10527944Y-19966174D02*
X10537467Y-19928079D01*
X10537467Y-19928079D02*
X10546991Y-19909031D01*
X10546991Y-19909031D02*
X10556515Y-19899508D01*
X10556515Y-19899508D02*
X10575563Y-19889984D01*
X10766039Y-19889984D02*
X10785086Y-19889984D01*
X10785086Y-19889984D02*
X10804134Y-19899508D01*
X10804134Y-19899508D02*
X10813658Y-19909031D01*
X10813658Y-19909031D02*
X10823182Y-19928079D01*
X10823182Y-19928079D02*
X10832705Y-19966174D01*
X10832705Y-19966174D02*
X10832705Y-20013793D01*
X10832705Y-20013793D02*
X10823182Y-20051889D01*
X10823182Y-20051889D02*
X10813658Y-20070936D01*
X10813658Y-20070936D02*
X10804134Y-20080460D01*
X10804134Y-20080460D02*
X10785086Y-20089984D01*
X10785086Y-20089984D02*
X10766039Y-20089984D01*
X10766039Y-20089984D02*
X10746991Y-20080460D01*
X10746991Y-20080460D02*
X10737467Y-20070936D01*
X10737467Y-20070936D02*
X10727944Y-20051889D01*
X10727944Y-20051889D02*
X10718420Y-20013793D01*
X10718420Y-20013793D02*
X10718420Y-19966174D01*
X10718420Y-19966174D02*
X10727944Y-19928079D01*
X10727944Y-19928079D02*
X10737467Y-19909031D01*
X10737467Y-19909031D02*
X10746991Y-19899508D01*
X10746991Y-19899508D02*
X10766039Y-19889984D01*
X10918420Y-20089984D02*
X10918420Y-19956650D01*
X10918420Y-19975698D02*
X10927944Y-19966174D01*
X10927944Y-19966174D02*
X10946991Y-19956650D01*
X10946991Y-19956650D02*
X10975563Y-19956650D01*
X10975563Y-19956650D02*
X10994610Y-19966174D01*
X10994610Y-19966174D02*
X11004134Y-19985222D01*
X11004134Y-19985222D02*
X11004134Y-20089984D01*
X11004134Y-19985222D02*
X11013658Y-19966174D01*
X11013658Y-19966174D02*
X11032705Y-19956650D01*
X11032705Y-19956650D02*
X11061277Y-19956650D01*
X11061277Y-19956650D02*
X11080325Y-19966174D01*
X11080325Y-19966174D02*
X11089848Y-19985222D01*
X11089848Y-19985222D02*
X11089848Y-20089984D01*
X11185086Y-20089984D02*
X11185086Y-19956650D01*
X11185086Y-19975698D02*
X11194610Y-19966174D01*
X11194610Y-19966174D02*
X11213658Y-19956650D01*
X11213658Y-19956650D02*
X11242229Y-19956650D01*
X11242229Y-19956650D02*
X11261277Y-19966174D01*
X11261277Y-19966174D02*
X11270801Y-19985222D01*
X11270801Y-19985222D02*
X11270801Y-20089984D01*
X11270801Y-19985222D02*
X11280324Y-19966174D01*
X11280324Y-19966174D02*
X11299372Y-19956650D01*
X11299372Y-19956650D02*
X11327943Y-19956650D01*
X11327943Y-19956650D02*
X11346991Y-19966174D01*
X11346991Y-19966174D02*
X11356515Y-19985222D01*
X11356515Y-19985222D02*
X11356515Y-20089984D01*
X11746991Y-19880460D02*
X11575563Y-20137603D01*
X12004134Y-19889984D02*
X12023182Y-19889984D01*
X12023182Y-19889984D02*
X12042229Y-19899508D01*
X12042229Y-19899508D02*
X12051753Y-19909031D01*
X12051753Y-19909031D02*
X12061277Y-19928079D01*
X12061277Y-19928079D02*
X12070801Y-19966174D01*
X12070801Y-19966174D02*
X12070801Y-20013793D01*
X12070801Y-20013793D02*
X12061277Y-20051889D01*
X12061277Y-20051889D02*
X12051753Y-20070936D01*
X12051753Y-20070936D02*
X12042229Y-20080460D01*
X12042229Y-20080460D02*
X12023182Y-20089984D01*
X12023182Y-20089984D02*
X12004134Y-20089984D01*
X12004134Y-20089984D02*
X11985086Y-20080460D01*
X11985086Y-20080460D02*
X11975563Y-20070936D01*
X11975563Y-20070936D02*
X11966039Y-20051889D01*
X11966039Y-20051889D02*
X11956515Y-20013793D01*
X11956515Y-20013793D02*
X11956515Y-19966174D01*
X11956515Y-19966174D02*
X11966039Y-19928079D01*
X11966039Y-19928079D02*
X11975563Y-19909031D01*
X11975563Y-19909031D02*
X11985086Y-19899508D01*
X11985086Y-19899508D02*
X12004134Y-19889984D01*
X12156515Y-20070936D02*
X12166039Y-20080460D01*
X12166039Y-20080460D02*
X12156515Y-20089984D01*
X12156515Y-20089984D02*
X12146991Y-20080460D01*
X12146991Y-20080460D02*
X12156515Y-20070936D01*
X12156515Y-20070936D02*
X12156515Y-20089984D01*
X12289848Y-19889984D02*
X12308896Y-19889984D01*
X12308896Y-19889984D02*
X12327944Y-19899508D01*
X12327944Y-19899508D02*
X12337467Y-19909031D01*
X12337467Y-19909031D02*
X12346991Y-19928079D01*
X12346991Y-19928079D02*
X12356515Y-19966174D01*
X12356515Y-19966174D02*
X12356515Y-20013793D01*
X12356515Y-20013793D02*
X12346991Y-20051889D01*
X12346991Y-20051889D02*
X12337467Y-20070936D01*
X12337467Y-20070936D02*
X12327944Y-20080460D01*
X12327944Y-20080460D02*
X12308896Y-20089984D01*
X12308896Y-20089984D02*
X12289848Y-20089984D01*
X12289848Y-20089984D02*
X12270801Y-20080460D01*
X12270801Y-20080460D02*
X12261277Y-20070936D01*
X12261277Y-20070936D02*
X12251753Y-20051889D01*
X12251753Y-20051889D02*
X12242229Y-20013793D01*
X12242229Y-20013793D02*
X12242229Y-19966174D01*
X12242229Y-19966174D02*
X12251753Y-19928079D01*
X12251753Y-19928079D02*
X12261277Y-19909031D01*
X12261277Y-19909031D02*
X12270801Y-19899508D01*
X12270801Y-19899508D02*
X12289848Y-19889984D01*
X12527944Y-19889984D02*
X12489848Y-19889984D01*
X12489848Y-19889984D02*
X12470801Y-19899508D01*
X12470801Y-19899508D02*
X12461277Y-19909031D01*
X12461277Y-19909031D02*
X12442229Y-19937603D01*
X12442229Y-19937603D02*
X12432706Y-19975698D01*
X12432706Y-19975698D02*
X12432706Y-20051889D01*
X12432706Y-20051889D02*
X12442229Y-20070936D01*
X12442229Y-20070936D02*
X12451753Y-20080460D01*
X12451753Y-20080460D02*
X12470801Y-20089984D01*
X12470801Y-20089984D02*
X12508896Y-20089984D01*
X12508896Y-20089984D02*
X12527944Y-20080460D01*
X12527944Y-20080460D02*
X12537467Y-20070936D01*
X12537467Y-20070936D02*
X12546991Y-20051889D01*
X12546991Y-20051889D02*
X12546991Y-20004270D01*
X12546991Y-20004270D02*
X12537467Y-19985222D01*
X12537467Y-19985222D02*
X12527944Y-19975698D01*
X12527944Y-19975698D02*
X12508896Y-19966174D01*
X12508896Y-19966174D02*
X12470801Y-19966174D01*
X12470801Y-19966174D02*
X12451753Y-19975698D01*
X12451753Y-19975698D02*
X12442229Y-19985222D01*
X12442229Y-19985222D02*
X12432706Y-20004270D01*
X12718420Y-19889984D02*
X12680325Y-19889984D01*
X12680325Y-19889984D02*
X12661277Y-19899508D01*
X12661277Y-19899508D02*
X12651753Y-19909031D01*
X12651753Y-19909031D02*
X12632706Y-19937603D01*
X12632706Y-19937603D02*
X12623182Y-19975698D01*
X12623182Y-19975698D02*
X12623182Y-20051889D01*
X12623182Y-20051889D02*
X12632706Y-20070936D01*
X12632706Y-20070936D02*
X12642229Y-20080460D01*
X12642229Y-20080460D02*
X12661277Y-20089984D01*
X12661277Y-20089984D02*
X12699372Y-20089984D01*
X12699372Y-20089984D02*
X12718420Y-20080460D01*
X12718420Y-20080460D02*
X12727944Y-20070936D01*
X12727944Y-20070936D02*
X12737467Y-20051889D01*
X12737467Y-20051889D02*
X12737467Y-20004270D01*
X12737467Y-20004270D02*
X12727944Y-19985222D01*
X12727944Y-19985222D02*
X12718420Y-19975698D01*
X12718420Y-19975698D02*
X12699372Y-19966174D01*
X12699372Y-19966174D02*
X12661277Y-19966174D01*
X12661277Y-19966174D02*
X12642229Y-19975698D01*
X12642229Y-19975698D02*
X12632706Y-19985222D01*
X12632706Y-19985222D02*
X12623182Y-20004270D01*
X12832706Y-20089984D02*
X12870801Y-20089984D01*
X12870801Y-20089984D02*
X12889848Y-20080460D01*
X12889848Y-20080460D02*
X12899372Y-20070936D01*
X12899372Y-20070936D02*
X12918420Y-20042365D01*
X12918420Y-20042365D02*
X12927944Y-20004270D01*
X12927944Y-20004270D02*
X12927944Y-19928079D01*
X12927944Y-19928079D02*
X12918420Y-19909031D01*
X12918420Y-19909031D02*
X12908896Y-19899508D01*
X12908896Y-19899508D02*
X12889848Y-19889984D01*
X12889848Y-19889984D02*
X12851753Y-19889984D01*
X12851753Y-19889984D02*
X12832706Y-19899508D01*
X12832706Y-19899508D02*
X12823182Y-19909031D01*
X12823182Y-19909031D02*
X12813658Y-19928079D01*
X12813658Y-19928079D02*
X12813658Y-19975698D01*
X12813658Y-19975698D02*
X12823182Y-19994746D01*
X12823182Y-19994746D02*
X12832706Y-20004270D01*
X12832706Y-20004270D02*
X12851753Y-20013793D01*
X12851753Y-20013793D02*
X12889848Y-20013793D01*
X12889848Y-20013793D02*
X12908896Y-20004270D01*
X12908896Y-20004270D02*
X12918420Y-19994746D01*
X12918420Y-19994746D02*
X12927944Y-19975698D01*
X13004134Y-19889984D02*
X13004134Y-19928079D01*
X13080325Y-19889984D02*
X13080325Y-19928079D01*
X13375563Y-20166174D02*
X13366039Y-20156650D01*
X13366039Y-20156650D02*
X13346991Y-20128079D01*
X13346991Y-20128079D02*
X13337468Y-20109031D01*
X13337468Y-20109031D02*
X13327944Y-20080460D01*
X13327944Y-20080460D02*
X13318420Y-20032841D01*
X13318420Y-20032841D02*
X13318420Y-19994746D01*
X13318420Y-19994746D02*
X13327944Y-19947127D01*
X13327944Y-19947127D02*
X13337468Y-19918555D01*
X13337468Y-19918555D02*
X13346991Y-19899508D01*
X13346991Y-19899508D02*
X13366039Y-19870936D01*
X13366039Y-19870936D02*
X13375563Y-19861412D01*
X13432706Y-19889984D02*
X13556515Y-19889984D01*
X13556515Y-19889984D02*
X13489848Y-19966174D01*
X13489848Y-19966174D02*
X13518420Y-19966174D01*
X13518420Y-19966174D02*
X13537468Y-19975698D01*
X13537468Y-19975698D02*
X13546991Y-19985222D01*
X13546991Y-19985222D02*
X13556515Y-20004270D01*
X13556515Y-20004270D02*
X13556515Y-20051889D01*
X13556515Y-20051889D02*
X13546991Y-20070936D01*
X13546991Y-20070936D02*
X13537468Y-20080460D01*
X13537468Y-20080460D02*
X13518420Y-20089984D01*
X13518420Y-20089984D02*
X13461277Y-20089984D01*
X13461277Y-20089984D02*
X13442229Y-20080460D01*
X13442229Y-20080460D02*
X13432706Y-20070936D01*
X13727944Y-19889984D02*
X13689848Y-19889984D01*
X13689848Y-19889984D02*
X13670801Y-19899508D01*
X13670801Y-19899508D02*
X13661277Y-19909031D01*
X13661277Y-19909031D02*
X13642229Y-19937603D01*
X13642229Y-19937603D02*
X13632706Y-19975698D01*
X13632706Y-19975698D02*
X13632706Y-20051889D01*
X13632706Y-20051889D02*
X13642229Y-20070936D01*
X13642229Y-20070936D02*
X13651753Y-20080460D01*
X13651753Y-20080460D02*
X13670801Y-20089984D01*
X13670801Y-20089984D02*
X13708896Y-20089984D01*
X13708896Y-20089984D02*
X13727944Y-20080460D01*
X13727944Y-20080460D02*
X13737468Y-20070936D01*
X13737468Y-20070936D02*
X13746991Y-20051889D01*
X13746991Y-20051889D02*
X13746991Y-20004270D01*
X13746991Y-20004270D02*
X13737468Y-19985222D01*
X13737468Y-19985222D02*
X13727944Y-19975698D01*
X13727944Y-19975698D02*
X13708896Y-19966174D01*
X13708896Y-19966174D02*
X13670801Y-19966174D01*
X13670801Y-19966174D02*
X13651753Y-19975698D01*
X13651753Y-19975698D02*
X13642229Y-19985222D01*
X13642229Y-19985222D02*
X13632706Y-20004270D01*
X13985087Y-20089984D02*
X13985087Y-19889984D01*
X14070801Y-20089984D02*
X14070801Y-19985222D01*
X14070801Y-19985222D02*
X14061277Y-19966174D01*
X14061277Y-19966174D02*
X14042230Y-19956650D01*
X14042230Y-19956650D02*
X14013658Y-19956650D01*
X14013658Y-19956650D02*
X13994610Y-19966174D01*
X13994610Y-19966174D02*
X13985087Y-19975698D01*
X14194610Y-20089984D02*
X14175563Y-20080460D01*
X14175563Y-20080460D02*
X14166039Y-20070936D01*
X14166039Y-20070936D02*
X14156515Y-20051889D01*
X14156515Y-20051889D02*
X14156515Y-19994746D01*
X14156515Y-19994746D02*
X14166039Y-19975698D01*
X14166039Y-19975698D02*
X14175563Y-19966174D01*
X14175563Y-19966174D02*
X14194610Y-19956650D01*
X14194610Y-19956650D02*
X14223182Y-19956650D01*
X14223182Y-19956650D02*
X14242230Y-19966174D01*
X14242230Y-19966174D02*
X14251753Y-19975698D01*
X14251753Y-19975698D02*
X14261277Y-19994746D01*
X14261277Y-19994746D02*
X14261277Y-20051889D01*
X14261277Y-20051889D02*
X14251753Y-20070936D01*
X14251753Y-20070936D02*
X14242230Y-20080460D01*
X14242230Y-20080460D02*
X14223182Y-20089984D01*
X14223182Y-20089984D02*
X14194610Y-20089984D01*
X14375563Y-20089984D02*
X14356515Y-20080460D01*
X14356515Y-20080460D02*
X14346991Y-20061412D01*
X14346991Y-20061412D02*
X14346991Y-19889984D01*
X14527944Y-20080460D02*
X14508896Y-20089984D01*
X14508896Y-20089984D02*
X14470801Y-20089984D01*
X14470801Y-20089984D02*
X14451753Y-20080460D01*
X14451753Y-20080460D02*
X14442230Y-20061412D01*
X14442230Y-20061412D02*
X14442230Y-19985222D01*
X14442230Y-19985222D02*
X14451753Y-19966174D01*
X14451753Y-19966174D02*
X14470801Y-19956650D01*
X14470801Y-19956650D02*
X14508896Y-19956650D01*
X14508896Y-19956650D02*
X14527944Y-19966174D01*
X14527944Y-19966174D02*
X14537468Y-19985222D01*
X14537468Y-19985222D02*
X14537468Y-20004270D01*
X14537468Y-20004270D02*
X14442230Y-20023317D01*
X14613658Y-20080460D02*
X14632706Y-20089984D01*
X14632706Y-20089984D02*
X14670801Y-20089984D01*
X14670801Y-20089984D02*
X14689849Y-20080460D01*
X14689849Y-20080460D02*
X14699372Y-20061412D01*
X14699372Y-20061412D02*
X14699372Y-20051889D01*
X14699372Y-20051889D02*
X14689849Y-20032841D01*
X14689849Y-20032841D02*
X14670801Y-20023317D01*
X14670801Y-20023317D02*
X14642230Y-20023317D01*
X14642230Y-20023317D02*
X14623182Y-20013793D01*
X14623182Y-20013793D02*
X14613658Y-19994746D01*
X14613658Y-19994746D02*
X14613658Y-19985222D01*
X14613658Y-19985222D02*
X14623182Y-19966174D01*
X14623182Y-19966174D02*
X14642230Y-19956650D01*
X14642230Y-19956650D02*
X14670801Y-19956650D01*
X14670801Y-19956650D02*
X14689849Y-19966174D01*
X14766039Y-20166174D02*
X14775563Y-20156650D01*
X14775563Y-20156650D02*
X14794611Y-20128079D01*
X14794611Y-20128079D02*
X14804134Y-20109031D01*
X14804134Y-20109031D02*
X14813658Y-20080460D01*
X14813658Y-20080460D02*
X14823182Y-20032841D01*
X14823182Y-20032841D02*
X14823182Y-19994746D01*
X14823182Y-19994746D02*
X14813658Y-19947127D01*
X14813658Y-19947127D02*
X14804134Y-19918555D01*
X14804134Y-19918555D02*
X14794611Y-19899508D01*
X14794611Y-19899508D02*
X14775563Y-19870936D01*
X14775563Y-19870936D02*
X14766039Y-19861412D01*
X15127944Y-20166174D02*
X15118420Y-20156650D01*
X15118420Y-20156650D02*
X15099372Y-20128079D01*
X15099372Y-20128079D02*
X15089849Y-20109031D01*
X15089849Y-20109031D02*
X15080325Y-20080460D01*
X15080325Y-20080460D02*
X15070801Y-20032841D01*
X15070801Y-20032841D02*
X15070801Y-19994746D01*
X15070801Y-19994746D02*
X15080325Y-19947127D01*
X15080325Y-19947127D02*
X15089849Y-19918555D01*
X15089849Y-19918555D02*
X15099372Y-19899508D01*
X15099372Y-19899508D02*
X15118420Y-19870936D01*
X15118420Y-19870936D02*
X15127944Y-19861412D01*
X15204134Y-19956650D02*
X15204134Y-20089984D01*
X15204134Y-19975698D02*
X15213658Y-19966174D01*
X15213658Y-19966174D02*
X15232706Y-19956650D01*
X15232706Y-19956650D02*
X15261277Y-19956650D01*
X15261277Y-19956650D02*
X15280325Y-19966174D01*
X15280325Y-19966174D02*
X15289849Y-19985222D01*
X15289849Y-19985222D02*
X15289849Y-20089984D01*
X15413658Y-20089984D02*
X15394611Y-20080460D01*
X15394611Y-20080460D02*
X15385087Y-20070936D01*
X15385087Y-20070936D02*
X15375563Y-20051889D01*
X15375563Y-20051889D02*
X15375563Y-19994746D01*
X15375563Y-19994746D02*
X15385087Y-19975698D01*
X15385087Y-19975698D02*
X15394611Y-19966174D01*
X15394611Y-19966174D02*
X15413658Y-19956650D01*
X15413658Y-19956650D02*
X15442230Y-19956650D01*
X15442230Y-19956650D02*
X15461277Y-19966174D01*
X15461277Y-19966174D02*
X15470801Y-19975698D01*
X15470801Y-19975698D02*
X15480325Y-19994746D01*
X15480325Y-19994746D02*
X15480325Y-20051889D01*
X15480325Y-20051889D02*
X15470801Y-20070936D01*
X15470801Y-20070936D02*
X15461277Y-20080460D01*
X15461277Y-20080460D02*
X15442230Y-20089984D01*
X15442230Y-20089984D02*
X15413658Y-20089984D01*
X15537468Y-19956650D02*
X15613658Y-19956650D01*
X15566039Y-19889984D02*
X15566039Y-20061412D01*
X15566039Y-20061412D02*
X15575563Y-20080460D01*
X15575563Y-20080460D02*
X15594611Y-20089984D01*
X15594611Y-20089984D02*
X15613658Y-20089984D01*
X15832706Y-19956650D02*
X15832706Y-20156650D01*
X15832706Y-19966174D02*
X15851753Y-19956650D01*
X15851753Y-19956650D02*
X15889849Y-19956650D01*
X15889849Y-19956650D02*
X15908896Y-19966174D01*
X15908896Y-19966174D02*
X15918420Y-19975698D01*
X15918420Y-19975698D02*
X15927944Y-19994746D01*
X15927944Y-19994746D02*
X15927944Y-20051889D01*
X15927944Y-20051889D02*
X15918420Y-20070936D01*
X15918420Y-20070936D02*
X15908896Y-20080460D01*
X15908896Y-20080460D02*
X15889849Y-20089984D01*
X15889849Y-20089984D02*
X15851753Y-20089984D01*
X15851753Y-20089984D02*
X15832706Y-20080460D01*
X16042230Y-20089984D02*
X16023182Y-20080460D01*
X16023182Y-20080460D02*
X16013658Y-20061412D01*
X16013658Y-20061412D02*
X16013658Y-19889984D01*
X16204134Y-20089984D02*
X16204134Y-19985222D01*
X16204134Y-19985222D02*
X16194611Y-19966174D01*
X16194611Y-19966174D02*
X16175563Y-19956650D01*
X16175563Y-19956650D02*
X16137468Y-19956650D01*
X16137468Y-19956650D02*
X16118420Y-19966174D01*
X16204134Y-20080460D02*
X16185087Y-20089984D01*
X16185087Y-20089984D02*
X16137468Y-20089984D01*
X16137468Y-20089984D02*
X16118420Y-20080460D01*
X16118420Y-20080460D02*
X16108896Y-20061412D01*
X16108896Y-20061412D02*
X16108896Y-20042365D01*
X16108896Y-20042365D02*
X16118420Y-20023317D01*
X16118420Y-20023317D02*
X16137468Y-20013793D01*
X16137468Y-20013793D02*
X16185087Y-20013793D01*
X16185087Y-20013793D02*
X16204134Y-20004270D01*
X16270801Y-19956650D02*
X16346992Y-19956650D01*
X16299373Y-19889984D02*
X16299373Y-20061412D01*
X16299373Y-20061412D02*
X16308896Y-20080460D01*
X16308896Y-20080460D02*
X16327944Y-20089984D01*
X16327944Y-20089984D02*
X16346992Y-20089984D01*
X16489849Y-20080460D02*
X16470801Y-20089984D01*
X16470801Y-20089984D02*
X16432706Y-20089984D01*
X16432706Y-20089984D02*
X16413658Y-20080460D01*
X16413658Y-20080460D02*
X16404134Y-20061412D01*
X16404134Y-20061412D02*
X16404134Y-19985222D01*
X16404134Y-19985222D02*
X16413658Y-19966174D01*
X16413658Y-19966174D02*
X16432706Y-19956650D01*
X16432706Y-19956650D02*
X16470801Y-19956650D01*
X16470801Y-19956650D02*
X16489849Y-19966174D01*
X16489849Y-19966174D02*
X16499373Y-19985222D01*
X16499373Y-19985222D02*
X16499373Y-20004270D01*
X16499373Y-20004270D02*
X16404134Y-20023317D01*
X16670801Y-20089984D02*
X16670801Y-19889984D01*
X16670801Y-20080460D02*
X16651754Y-20089984D01*
X16651754Y-20089984D02*
X16613658Y-20089984D01*
X16613658Y-20089984D02*
X16594611Y-20080460D01*
X16594611Y-20080460D02*
X16585087Y-20070936D01*
X16585087Y-20070936D02*
X16575563Y-20051889D01*
X16575563Y-20051889D02*
X16575563Y-19994746D01*
X16575563Y-19994746D02*
X16585087Y-19975698D01*
X16585087Y-19975698D02*
X16594611Y-19966174D01*
X16594611Y-19966174D02*
X16613658Y-19956650D01*
X16613658Y-19956650D02*
X16651754Y-19956650D01*
X16651754Y-19956650D02*
X16670801Y-19966174D01*
X16746992Y-20166174D02*
X16756515Y-20156650D01*
X16756515Y-20156650D02*
X16775563Y-20128079D01*
X16775563Y-20128079D02*
X16785087Y-20109031D01*
X16785087Y-20109031D02*
X16794611Y-20080460D01*
X16794611Y-20080460D02*
X16804135Y-20032841D01*
X16804135Y-20032841D02*
X16804135Y-19994746D01*
X16804135Y-19994746D02*
X16794611Y-19947127D01*
X16794611Y-19947127D02*
X16785087Y-19918555D01*
X16785087Y-19918555D02*
X16775563Y-19899508D01*
X16775563Y-19899508D02*
X16756515Y-19870936D01*
X16756515Y-19870936D02*
X16746992Y-19861412D01*
X9600500Y-20188500D02*
X9800500Y-20388500D01*
X9800500Y-20188500D02*
X9600500Y-20388500D01*
X9771211Y-20359211D02*
X9771211Y-20217789D01*
X9629789Y-20217789D01*
X9629789Y-20359211D01*
X9771211Y-20359211D01*
X10146991Y-20246650D02*
X10146991Y-20379984D01*
X10099372Y-20170460D02*
X10051753Y-20313317D01*
X10051753Y-20313317D02*
X10175563Y-20313317D01*
X10251753Y-20360936D02*
X10261277Y-20370460D01*
X10261277Y-20370460D02*
X10251753Y-20379984D01*
X10251753Y-20379984D02*
X10242229Y-20370460D01*
X10242229Y-20370460D02*
X10251753Y-20360936D01*
X10251753Y-20360936D02*
X10251753Y-20379984D01*
X10385086Y-20179984D02*
X10404134Y-20179984D01*
X10404134Y-20179984D02*
X10423182Y-20189508D01*
X10423182Y-20189508D02*
X10432705Y-20199031D01*
X10432705Y-20199031D02*
X10442229Y-20218079D01*
X10442229Y-20218079D02*
X10451753Y-20256174D01*
X10451753Y-20256174D02*
X10451753Y-20303793D01*
X10451753Y-20303793D02*
X10442229Y-20341889D01*
X10442229Y-20341889D02*
X10432705Y-20360936D01*
X10432705Y-20360936D02*
X10423182Y-20370460D01*
X10423182Y-20370460D02*
X10404134Y-20379984D01*
X10404134Y-20379984D02*
X10385086Y-20379984D01*
X10385086Y-20379984D02*
X10366039Y-20370460D01*
X10366039Y-20370460D02*
X10356515Y-20360936D01*
X10356515Y-20360936D02*
X10346991Y-20341889D01*
X10346991Y-20341889D02*
X10337467Y-20303793D01*
X10337467Y-20303793D02*
X10337467Y-20256174D01*
X10337467Y-20256174D02*
X10346991Y-20218079D01*
X10346991Y-20218079D02*
X10356515Y-20199031D01*
X10356515Y-20199031D02*
X10366039Y-20189508D01*
X10366039Y-20189508D02*
X10385086Y-20179984D01*
X10575563Y-20179984D02*
X10594610Y-20179984D01*
X10594610Y-20179984D02*
X10613658Y-20189508D01*
X10613658Y-20189508D02*
X10623182Y-20199031D01*
X10623182Y-20199031D02*
X10632705Y-20218079D01*
X10632705Y-20218079D02*
X10642229Y-20256174D01*
X10642229Y-20256174D02*
X10642229Y-20303793D01*
X10642229Y-20303793D02*
X10632705Y-20341889D01*
X10632705Y-20341889D02*
X10623182Y-20360936D01*
X10623182Y-20360936D02*
X10613658Y-20370460D01*
X10613658Y-20370460D02*
X10594610Y-20379984D01*
X10594610Y-20379984D02*
X10575563Y-20379984D01*
X10575563Y-20379984D02*
X10556515Y-20370460D01*
X10556515Y-20370460D02*
X10546991Y-20360936D01*
X10546991Y-20360936D02*
X10537467Y-20341889D01*
X10537467Y-20341889D02*
X10527944Y-20303793D01*
X10527944Y-20303793D02*
X10527944Y-20256174D01*
X10527944Y-20256174D02*
X10537467Y-20218079D01*
X10537467Y-20218079D02*
X10546991Y-20199031D01*
X10546991Y-20199031D02*
X10556515Y-20189508D01*
X10556515Y-20189508D02*
X10575563Y-20179984D01*
X10766039Y-20179984D02*
X10785086Y-20179984D01*
X10785086Y-20179984D02*
X10804134Y-20189508D01*
X10804134Y-20189508D02*
X10813658Y-20199031D01*
X10813658Y-20199031D02*
X10823182Y-20218079D01*
X10823182Y-20218079D02*
X10832705Y-20256174D01*
X10832705Y-20256174D02*
X10832705Y-20303793D01*
X10832705Y-20303793D02*
X10823182Y-20341889D01*
X10823182Y-20341889D02*
X10813658Y-20360936D01*
X10813658Y-20360936D02*
X10804134Y-20370460D01*
X10804134Y-20370460D02*
X10785086Y-20379984D01*
X10785086Y-20379984D02*
X10766039Y-20379984D01*
X10766039Y-20379984D02*
X10746991Y-20370460D01*
X10746991Y-20370460D02*
X10737467Y-20360936D01*
X10737467Y-20360936D02*
X10727944Y-20341889D01*
X10727944Y-20341889D02*
X10718420Y-20303793D01*
X10718420Y-20303793D02*
X10718420Y-20256174D01*
X10718420Y-20256174D02*
X10727944Y-20218079D01*
X10727944Y-20218079D02*
X10737467Y-20199031D01*
X10737467Y-20199031D02*
X10746991Y-20189508D01*
X10746991Y-20189508D02*
X10766039Y-20179984D01*
X10918420Y-20379984D02*
X10918420Y-20246650D01*
X10918420Y-20265698D02*
X10927944Y-20256174D01*
X10927944Y-20256174D02*
X10946991Y-20246650D01*
X10946991Y-20246650D02*
X10975563Y-20246650D01*
X10975563Y-20246650D02*
X10994610Y-20256174D01*
X10994610Y-20256174D02*
X11004134Y-20275222D01*
X11004134Y-20275222D02*
X11004134Y-20379984D01*
X11004134Y-20275222D02*
X11013658Y-20256174D01*
X11013658Y-20256174D02*
X11032705Y-20246650D01*
X11032705Y-20246650D02*
X11061277Y-20246650D01*
X11061277Y-20246650D02*
X11080325Y-20256174D01*
X11080325Y-20256174D02*
X11089848Y-20275222D01*
X11089848Y-20275222D02*
X11089848Y-20379984D01*
X11185086Y-20379984D02*
X11185086Y-20246650D01*
X11185086Y-20265698D02*
X11194610Y-20256174D01*
X11194610Y-20256174D02*
X11213658Y-20246650D01*
X11213658Y-20246650D02*
X11242229Y-20246650D01*
X11242229Y-20246650D02*
X11261277Y-20256174D01*
X11261277Y-20256174D02*
X11270801Y-20275222D01*
X11270801Y-20275222D02*
X11270801Y-20379984D01*
X11270801Y-20275222D02*
X11280324Y-20256174D01*
X11280324Y-20256174D02*
X11299372Y-20246650D01*
X11299372Y-20246650D02*
X11327943Y-20246650D01*
X11327943Y-20246650D02*
X11346991Y-20256174D01*
X11346991Y-20256174D02*
X11356515Y-20275222D01*
X11356515Y-20275222D02*
X11356515Y-20379984D01*
X11746991Y-20170460D02*
X11575563Y-20427603D01*
X12004134Y-20179984D02*
X12023182Y-20179984D01*
X12023182Y-20179984D02*
X12042229Y-20189508D01*
X12042229Y-20189508D02*
X12051753Y-20199031D01*
X12051753Y-20199031D02*
X12061277Y-20218079D01*
X12061277Y-20218079D02*
X12070801Y-20256174D01*
X12070801Y-20256174D02*
X12070801Y-20303793D01*
X12070801Y-20303793D02*
X12061277Y-20341889D01*
X12061277Y-20341889D02*
X12051753Y-20360936D01*
X12051753Y-20360936D02*
X12042229Y-20370460D01*
X12042229Y-20370460D02*
X12023182Y-20379984D01*
X12023182Y-20379984D02*
X12004134Y-20379984D01*
X12004134Y-20379984D02*
X11985086Y-20370460D01*
X11985086Y-20370460D02*
X11975563Y-20360936D01*
X11975563Y-20360936D02*
X11966039Y-20341889D01*
X11966039Y-20341889D02*
X11956515Y-20303793D01*
X11956515Y-20303793D02*
X11956515Y-20256174D01*
X11956515Y-20256174D02*
X11966039Y-20218079D01*
X11966039Y-20218079D02*
X11975563Y-20199031D01*
X11975563Y-20199031D02*
X11985086Y-20189508D01*
X11985086Y-20189508D02*
X12004134Y-20179984D01*
X12156515Y-20360936D02*
X12166039Y-20370460D01*
X12166039Y-20370460D02*
X12156515Y-20379984D01*
X12156515Y-20379984D02*
X12146991Y-20370460D01*
X12146991Y-20370460D02*
X12156515Y-20360936D01*
X12156515Y-20360936D02*
X12156515Y-20379984D01*
X12356515Y-20379984D02*
X12242229Y-20379984D01*
X12299372Y-20379984D02*
X12299372Y-20179984D01*
X12299372Y-20179984D02*
X12280325Y-20208555D01*
X12280325Y-20208555D02*
X12261277Y-20227603D01*
X12261277Y-20227603D02*
X12242229Y-20237127D01*
X12537467Y-20179984D02*
X12442229Y-20179984D01*
X12442229Y-20179984D02*
X12432706Y-20275222D01*
X12432706Y-20275222D02*
X12442229Y-20265698D01*
X12442229Y-20265698D02*
X12461277Y-20256174D01*
X12461277Y-20256174D02*
X12508896Y-20256174D01*
X12508896Y-20256174D02*
X12527944Y-20265698D01*
X12527944Y-20265698D02*
X12537467Y-20275222D01*
X12537467Y-20275222D02*
X12546991Y-20294270D01*
X12546991Y-20294270D02*
X12546991Y-20341889D01*
X12546991Y-20341889D02*
X12537467Y-20360936D01*
X12537467Y-20360936D02*
X12527944Y-20370460D01*
X12527944Y-20370460D02*
X12508896Y-20379984D01*
X12508896Y-20379984D02*
X12461277Y-20379984D01*
X12461277Y-20379984D02*
X12442229Y-20370460D01*
X12442229Y-20370460D02*
X12432706Y-20360936D01*
X12613658Y-20179984D02*
X12746991Y-20179984D01*
X12746991Y-20179984D02*
X12661277Y-20379984D01*
X12918420Y-20179984D02*
X12823182Y-20179984D01*
X12823182Y-20179984D02*
X12813658Y-20275222D01*
X12813658Y-20275222D02*
X12823182Y-20265698D01*
X12823182Y-20265698D02*
X12842229Y-20256174D01*
X12842229Y-20256174D02*
X12889848Y-20256174D01*
X12889848Y-20256174D02*
X12908896Y-20265698D01*
X12908896Y-20265698D02*
X12918420Y-20275222D01*
X12918420Y-20275222D02*
X12927944Y-20294270D01*
X12927944Y-20294270D02*
X12927944Y-20341889D01*
X12927944Y-20341889D02*
X12918420Y-20360936D01*
X12918420Y-20360936D02*
X12908896Y-20370460D01*
X12908896Y-20370460D02*
X12889848Y-20379984D01*
X12889848Y-20379984D02*
X12842229Y-20379984D01*
X12842229Y-20379984D02*
X12823182Y-20370460D01*
X12823182Y-20370460D02*
X12813658Y-20360936D01*
X13004134Y-20179984D02*
X13004134Y-20218079D01*
X13080325Y-20179984D02*
X13080325Y-20218079D01*
X13375563Y-20456174D02*
X13366039Y-20446650D01*
X13366039Y-20446650D02*
X13346991Y-20418079D01*
X13346991Y-20418079D02*
X13337468Y-20399031D01*
X13337468Y-20399031D02*
X13327944Y-20370460D01*
X13327944Y-20370460D02*
X13318420Y-20322841D01*
X13318420Y-20322841D02*
X13318420Y-20284746D01*
X13318420Y-20284746D02*
X13327944Y-20237127D01*
X13327944Y-20237127D02*
X13337468Y-20208555D01*
X13337468Y-20208555D02*
X13346991Y-20189508D01*
X13346991Y-20189508D02*
X13366039Y-20160936D01*
X13366039Y-20160936D02*
X13375563Y-20151412D01*
X13556515Y-20379984D02*
X13442229Y-20379984D01*
X13499372Y-20379984D02*
X13499372Y-20179984D01*
X13499372Y-20179984D02*
X13480325Y-20208555D01*
X13480325Y-20208555D02*
X13461277Y-20227603D01*
X13461277Y-20227603D02*
X13442229Y-20237127D01*
X13670801Y-20265698D02*
X13651753Y-20256174D01*
X13651753Y-20256174D02*
X13642229Y-20246650D01*
X13642229Y-20246650D02*
X13632706Y-20227603D01*
X13632706Y-20227603D02*
X13632706Y-20218079D01*
X13632706Y-20218079D02*
X13642229Y-20199031D01*
X13642229Y-20199031D02*
X13651753Y-20189508D01*
X13651753Y-20189508D02*
X13670801Y-20179984D01*
X13670801Y-20179984D02*
X13708896Y-20179984D01*
X13708896Y-20179984D02*
X13727944Y-20189508D01*
X13727944Y-20189508D02*
X13737468Y-20199031D01*
X13737468Y-20199031D02*
X13746991Y-20218079D01*
X13746991Y-20218079D02*
X13746991Y-20227603D01*
X13746991Y-20227603D02*
X13737468Y-20246650D01*
X13737468Y-20246650D02*
X13727944Y-20256174D01*
X13727944Y-20256174D02*
X13708896Y-20265698D01*
X13708896Y-20265698D02*
X13670801Y-20265698D01*
X13670801Y-20265698D02*
X13651753Y-20275222D01*
X13651753Y-20275222D02*
X13642229Y-20284746D01*
X13642229Y-20284746D02*
X13632706Y-20303793D01*
X13632706Y-20303793D02*
X13632706Y-20341889D01*
X13632706Y-20341889D02*
X13642229Y-20360936D01*
X13642229Y-20360936D02*
X13651753Y-20370460D01*
X13651753Y-20370460D02*
X13670801Y-20379984D01*
X13670801Y-20379984D02*
X13708896Y-20379984D01*
X13708896Y-20379984D02*
X13727944Y-20370460D01*
X13727944Y-20370460D02*
X13737468Y-20360936D01*
X13737468Y-20360936D02*
X13746991Y-20341889D01*
X13746991Y-20341889D02*
X13746991Y-20303793D01*
X13746991Y-20303793D02*
X13737468Y-20284746D01*
X13737468Y-20284746D02*
X13727944Y-20275222D01*
X13727944Y-20275222D02*
X13708896Y-20265698D01*
X13985087Y-20379984D02*
X13985087Y-20179984D01*
X14070801Y-20379984D02*
X14070801Y-20275222D01*
X14070801Y-20275222D02*
X14061277Y-20256174D01*
X14061277Y-20256174D02*
X14042230Y-20246650D01*
X14042230Y-20246650D02*
X14013658Y-20246650D01*
X14013658Y-20246650D02*
X13994610Y-20256174D01*
X13994610Y-20256174D02*
X13985087Y-20265698D01*
X14194610Y-20379984D02*
X14175563Y-20370460D01*
X14175563Y-20370460D02*
X14166039Y-20360936D01*
X14166039Y-20360936D02*
X14156515Y-20341889D01*
X14156515Y-20341889D02*
X14156515Y-20284746D01*
X14156515Y-20284746D02*
X14166039Y-20265698D01*
X14166039Y-20265698D02*
X14175563Y-20256174D01*
X14175563Y-20256174D02*
X14194610Y-20246650D01*
X14194610Y-20246650D02*
X14223182Y-20246650D01*
X14223182Y-20246650D02*
X14242230Y-20256174D01*
X14242230Y-20256174D02*
X14251753Y-20265698D01*
X14251753Y-20265698D02*
X14261277Y-20284746D01*
X14261277Y-20284746D02*
X14261277Y-20341889D01*
X14261277Y-20341889D02*
X14251753Y-20360936D01*
X14251753Y-20360936D02*
X14242230Y-20370460D01*
X14242230Y-20370460D02*
X14223182Y-20379984D01*
X14223182Y-20379984D02*
X14194610Y-20379984D01*
X14375563Y-20379984D02*
X14356515Y-20370460D01*
X14356515Y-20370460D02*
X14346991Y-20351412D01*
X14346991Y-20351412D02*
X14346991Y-20179984D01*
X14527944Y-20370460D02*
X14508896Y-20379984D01*
X14508896Y-20379984D02*
X14470801Y-20379984D01*
X14470801Y-20379984D02*
X14451753Y-20370460D01*
X14451753Y-20370460D02*
X14442230Y-20351412D01*
X14442230Y-20351412D02*
X14442230Y-20275222D01*
X14442230Y-20275222D02*
X14451753Y-20256174D01*
X14451753Y-20256174D02*
X14470801Y-20246650D01*
X14470801Y-20246650D02*
X14508896Y-20246650D01*
X14508896Y-20246650D02*
X14527944Y-20256174D01*
X14527944Y-20256174D02*
X14537468Y-20275222D01*
X14537468Y-20275222D02*
X14537468Y-20294270D01*
X14537468Y-20294270D02*
X14442230Y-20313317D01*
X14613658Y-20370460D02*
X14632706Y-20379984D01*
X14632706Y-20379984D02*
X14670801Y-20379984D01*
X14670801Y-20379984D02*
X14689849Y-20370460D01*
X14689849Y-20370460D02*
X14699372Y-20351412D01*
X14699372Y-20351412D02*
X14699372Y-20341889D01*
X14699372Y-20341889D02*
X14689849Y-20322841D01*
X14689849Y-20322841D02*
X14670801Y-20313317D01*
X14670801Y-20313317D02*
X14642230Y-20313317D01*
X14642230Y-20313317D02*
X14623182Y-20303793D01*
X14623182Y-20303793D02*
X14613658Y-20284746D01*
X14613658Y-20284746D02*
X14613658Y-20275222D01*
X14613658Y-20275222D02*
X14623182Y-20256174D01*
X14623182Y-20256174D02*
X14642230Y-20246650D01*
X14642230Y-20246650D02*
X14670801Y-20246650D01*
X14670801Y-20246650D02*
X14689849Y-20256174D01*
X14766039Y-20456174D02*
X14775563Y-20446650D01*
X14775563Y-20446650D02*
X14794611Y-20418079D01*
X14794611Y-20418079D02*
X14804134Y-20399031D01*
X14804134Y-20399031D02*
X14813658Y-20370460D01*
X14813658Y-20370460D02*
X14823182Y-20322841D01*
X14823182Y-20322841D02*
X14823182Y-20284746D01*
X14823182Y-20284746D02*
X14813658Y-20237127D01*
X14813658Y-20237127D02*
X14804134Y-20208555D01*
X14804134Y-20208555D02*
X14794611Y-20189508D01*
X14794611Y-20189508D02*
X14775563Y-20160936D01*
X14775563Y-20160936D02*
X14766039Y-20151412D01*
X15127944Y-20456174D02*
X15118420Y-20446650D01*
X15118420Y-20446650D02*
X15099372Y-20418079D01*
X15099372Y-20418079D02*
X15089849Y-20399031D01*
X15089849Y-20399031D02*
X15080325Y-20370460D01*
X15080325Y-20370460D02*
X15070801Y-20322841D01*
X15070801Y-20322841D02*
X15070801Y-20284746D01*
X15070801Y-20284746D02*
X15080325Y-20237127D01*
X15080325Y-20237127D02*
X15089849Y-20208555D01*
X15089849Y-20208555D02*
X15099372Y-20189508D01*
X15099372Y-20189508D02*
X15118420Y-20160936D01*
X15118420Y-20160936D02*
X15127944Y-20151412D01*
X15204134Y-20246650D02*
X15204134Y-20379984D01*
X15204134Y-20265698D02*
X15213658Y-20256174D01*
X15213658Y-20256174D02*
X15232706Y-20246650D01*
X15232706Y-20246650D02*
X15261277Y-20246650D01*
X15261277Y-20246650D02*
X15280325Y-20256174D01*
X15280325Y-20256174D02*
X15289849Y-20275222D01*
X15289849Y-20275222D02*
X15289849Y-20379984D01*
X15413658Y-20379984D02*
X15394611Y-20370460D01*
X15394611Y-20370460D02*
X15385087Y-20360936D01*
X15385087Y-20360936D02*
X15375563Y-20341889D01*
X15375563Y-20341889D02*
X15375563Y-20284746D01*
X15375563Y-20284746D02*
X15385087Y-20265698D01*
X15385087Y-20265698D02*
X15394611Y-20256174D01*
X15394611Y-20256174D02*
X15413658Y-20246650D01*
X15413658Y-20246650D02*
X15442230Y-20246650D01*
X15442230Y-20246650D02*
X15461277Y-20256174D01*
X15461277Y-20256174D02*
X15470801Y-20265698D01*
X15470801Y-20265698D02*
X15480325Y-20284746D01*
X15480325Y-20284746D02*
X15480325Y-20341889D01*
X15480325Y-20341889D02*
X15470801Y-20360936D01*
X15470801Y-20360936D02*
X15461277Y-20370460D01*
X15461277Y-20370460D02*
X15442230Y-20379984D01*
X15442230Y-20379984D02*
X15413658Y-20379984D01*
X15537468Y-20246650D02*
X15613658Y-20246650D01*
X15566039Y-20179984D02*
X15566039Y-20351412D01*
X15566039Y-20351412D02*
X15575563Y-20370460D01*
X15575563Y-20370460D02*
X15594611Y-20379984D01*
X15594611Y-20379984D02*
X15613658Y-20379984D01*
X15832706Y-20246650D02*
X15832706Y-20446650D01*
X15832706Y-20256174D02*
X15851753Y-20246650D01*
X15851753Y-20246650D02*
X15889849Y-20246650D01*
X15889849Y-20246650D02*
X15908896Y-20256174D01*
X15908896Y-20256174D02*
X15918420Y-20265698D01*
X15918420Y-20265698D02*
X15927944Y-20284746D01*
X15927944Y-20284746D02*
X15927944Y-20341889D01*
X15927944Y-20341889D02*
X15918420Y-20360936D01*
X15918420Y-20360936D02*
X15908896Y-20370460D01*
X15908896Y-20370460D02*
X15889849Y-20379984D01*
X15889849Y-20379984D02*
X15851753Y-20379984D01*
X15851753Y-20379984D02*
X15832706Y-20370460D01*
X16042230Y-20379984D02*
X16023182Y-20370460D01*
X16023182Y-20370460D02*
X16013658Y-20351412D01*
X16013658Y-20351412D02*
X16013658Y-20179984D01*
X16204134Y-20379984D02*
X16204134Y-20275222D01*
X16204134Y-20275222D02*
X16194611Y-20256174D01*
X16194611Y-20256174D02*
X16175563Y-20246650D01*
X16175563Y-20246650D02*
X16137468Y-20246650D01*
X16137468Y-20246650D02*
X16118420Y-20256174D01*
X16204134Y-20370460D02*
X16185087Y-20379984D01*
X16185087Y-20379984D02*
X16137468Y-20379984D01*
X16137468Y-20379984D02*
X16118420Y-20370460D01*
X16118420Y-20370460D02*
X16108896Y-20351412D01*
X16108896Y-20351412D02*
X16108896Y-20332365D01*
X16108896Y-20332365D02*
X16118420Y-20313317D01*
X16118420Y-20313317D02*
X16137468Y-20303793D01*
X16137468Y-20303793D02*
X16185087Y-20303793D01*
X16185087Y-20303793D02*
X16204134Y-20294270D01*
X16270801Y-20246650D02*
X16346992Y-20246650D01*
X16299373Y-20179984D02*
X16299373Y-20351412D01*
X16299373Y-20351412D02*
X16308896Y-20370460D01*
X16308896Y-20370460D02*
X16327944Y-20379984D01*
X16327944Y-20379984D02*
X16346992Y-20379984D01*
X16489849Y-20370460D02*
X16470801Y-20379984D01*
X16470801Y-20379984D02*
X16432706Y-20379984D01*
X16432706Y-20379984D02*
X16413658Y-20370460D01*
X16413658Y-20370460D02*
X16404134Y-20351412D01*
X16404134Y-20351412D02*
X16404134Y-20275222D01*
X16404134Y-20275222D02*
X16413658Y-20256174D01*
X16413658Y-20256174D02*
X16432706Y-20246650D01*
X16432706Y-20246650D02*
X16470801Y-20246650D01*
X16470801Y-20246650D02*
X16489849Y-20256174D01*
X16489849Y-20256174D02*
X16499373Y-20275222D01*
X16499373Y-20275222D02*
X16499373Y-20294270D01*
X16499373Y-20294270D02*
X16404134Y-20313317D01*
X16670801Y-20379984D02*
X16670801Y-20179984D01*
X16670801Y-20370460D02*
X16651754Y-20379984D01*
X16651754Y-20379984D02*
X16613658Y-20379984D01*
X16613658Y-20379984D02*
X16594611Y-20370460D01*
X16594611Y-20370460D02*
X16585087Y-20360936D01*
X16585087Y-20360936D02*
X16575563Y-20341889D01*
X16575563Y-20341889D02*
X16575563Y-20284746D01*
X16575563Y-20284746D02*
X16585087Y-20265698D01*
X16585087Y-20265698D02*
X16594611Y-20256174D01*
X16594611Y-20256174D02*
X16613658Y-20246650D01*
X16613658Y-20246650D02*
X16651754Y-20246650D01*
X16651754Y-20246650D02*
X16670801Y-20256174D01*
X16746992Y-20456174D02*
X16756515Y-20446650D01*
X16756515Y-20446650D02*
X16775563Y-20418079D01*
X16775563Y-20418079D02*
X16785087Y-20399031D01*
X16785087Y-20399031D02*
X16794611Y-20370460D01*
X16794611Y-20370460D02*
X16804135Y-20322841D01*
X16804135Y-20322841D02*
X16804135Y-20284746D01*
X16804135Y-20284746D02*
X16794611Y-20237127D01*
X16794611Y-20237127D02*
X16785087Y-20208555D01*
X16785087Y-20208555D02*
X16775563Y-20189508D01*
X16775563Y-20189508D02*
X16756515Y-20160936D01*
X16756515Y-20160936D02*
X16746992Y-20151412D01*
M02*
