%TF.GenerationSoftware,KiCad,Pcbnew,9.0.6*%
%TF.CreationDate,2026-02-14T22:39:22+00:00*%
%TF.ProjectId,Custom-Mixer-ESP32,43757374-6f6d-42d4-9d69-7865722d4553,rev?*%
%TF.SameCoordinates,Original*%
%TF.FileFunction,Soldermask,Top*%
%TF.FilePolarity,Negative*%
%FSLAX46Y46*%
G04 Gerber Fmt 4.6, Leading zero omitted, Abs format (unit mm)*
G04 Created by KiCad (PCBNEW 9.0.6) date 2026-02-14 22:39:22*
%MOMM*%
%LPD*%
G01*
G04 APERTURE LIST*
G04 Aperture macros list*
%AMRoundRect*
0 Rectangle with rounded corners*
0 $1 Rounding radius*
0 $2 $3 $4 $5 $6 $7 $8 $9 X,Y pos of 4 corners*
0 Add a 4 corners polygon primitive as box body*
4,1,4,$2,$3,$4,$5,$6,$7,$8,$9,$2,$3,0*
0 Add four circle primitives for the rounded corners*
1,1,$1+$1,$2,$3*
1,1,$1+$1,$4,$5*
1,1,$1+$1,$6,$7*
1,1,$1+$1,$8,$9*
0 Add four rect primitives between the rounded corners*
20,1,$1+$1,$2,$3,$4,$5,0*
20,1,$1+$1,$4,$5,$6,$7,0*
20,1,$1+$1,$6,$7,$8,$9,0*
20,1,$1+$1,$8,$9,$2,$3,0*%
G04 Aperture macros list end*
%ADD10R,1.750000X1.750000*%
%ADD11C,1.750000*%
%ADD12C,2.700000*%
%ADD13C,1.600000*%
%ADD14C,1.700000*%
%ADD15C,4.000000*%
%ADD16C,2.200000*%
%ADD17R,1.700000X1.700000*%
%ADD18RoundRect,0.250000X-0.550000X-0.550000X0.550000X-0.550000X0.550000X0.550000X-0.550000X0.550000X0*%
%ADD19R,2.000000X2.000000*%
%ADD20C,2.000000*%
%ADD21R,3.200000X2.000000*%
%ADD22R,1.200000X2.000000*%
%ADD23O,1.200000X2.000000*%
%ADD24RoundRect,0.250000X0.550000X-0.550000X0.550000X0.550000X-0.550000X0.550000X-0.550000X-0.550000X0*%
G04 APERTURE END LIST*
D10*
%TO.C,RV1*%
X105970000Y-165470000D03*
D11*
X109470000Y-165470000D03*
X105970000Y-91970000D03*
D12*
X111920000Y-161320000D03*
X103520000Y-160120000D03*
X103520000Y-97320000D03*
X111920000Y-96120000D03*
%TD*%
D13*
%TO.C,C2*%
X109290000Y-169920000D03*
X106790000Y-169920000D03*
%TD*%
%TO.C,C4*%
X139996700Y-169920000D03*
X137496700Y-169920000D03*
%TD*%
D14*
%TO.C,SW14*%
X254750000Y-165900000D03*
D15*
X259830000Y-165900000D03*
D14*
X264910000Y-165900000D03*
D16*
X262370000Y-160820000D03*
X256020000Y-163360000D03*
%TD*%
D14*
%TO.C,SW9*%
X254800000Y-70590000D03*
D15*
X259880000Y-70590000D03*
D14*
X264960000Y-70590000D03*
D16*
X262420000Y-65510000D03*
X256070000Y-68050000D03*
%TD*%
D14*
%TO.C,SW17*%
X273830000Y-70590000D03*
D15*
X278910000Y-70590000D03*
D14*
X283990000Y-70590000D03*
D16*
X281450000Y-65510000D03*
X275100000Y-68050000D03*
%TD*%
D14*
%TO.C,SW6*%
X235770000Y-127790000D03*
D15*
X240850000Y-127790000D03*
D14*
X245930000Y-127790000D03*
D16*
X243390000Y-122710000D03*
X237040000Y-125250000D03*
%TD*%
D13*
%TO.C,C5*%
X155350000Y-169920000D03*
X152850000Y-169920000D03*
%TD*%
%TO.C,C8*%
X173000000Y-75500000D03*
X175500000Y-75500000D03*
%TD*%
D14*
%TO.C,SW19*%
X273830000Y-165890000D03*
D15*
X278910000Y-165890000D03*
D14*
X283990000Y-165890000D03*
D16*
X281450000Y-160810000D03*
X275100000Y-163350000D03*
%TD*%
D14*
%TO.C,SW3*%
X235790000Y-70550000D03*
D15*
X240870000Y-70550000D03*
D14*
X245950000Y-70550000D03*
D16*
X243410000Y-65470000D03*
X237060000Y-68010000D03*
%TD*%
D17*
%TO.C,J1*%
X196430000Y-63390000D03*
D14*
X198970000Y-63390000D03*
X201510000Y-63390000D03*
X204050000Y-63390000D03*
X206590000Y-63390000D03*
X209130000Y-63390000D03*
X211670000Y-63390000D03*
X214210000Y-63390000D03*
X216750000Y-63390000D03*
%TD*%
%TO.C,SW12*%
X254790000Y-127760000D03*
D15*
X259870000Y-127760000D03*
D14*
X264950000Y-127760000D03*
D16*
X262410000Y-122680000D03*
X256060000Y-125220000D03*
%TD*%
D10*
%TO.C,RV5*%
X167383300Y-165710000D03*
D11*
X170883300Y-165710000D03*
X167383300Y-92210000D03*
D12*
X173333300Y-161560000D03*
X164933300Y-160360000D03*
X164933300Y-97560000D03*
X173333300Y-96360000D03*
%TD*%
D14*
%TO.C,SW10*%
X254800000Y-89650000D03*
D15*
X259880000Y-89650000D03*
D14*
X264960000Y-89650000D03*
D16*
X262420000Y-84570000D03*
X256070000Y-87110000D03*
%TD*%
D14*
%TO.C,SW8*%
X235790000Y-165910000D03*
D15*
X240870000Y-165910000D03*
D14*
X245950000Y-165910000D03*
D16*
X243410000Y-160830000D03*
X237060000Y-163370000D03*
%TD*%
D14*
%TO.C,SW21*%
X273840000Y-146840000D03*
D15*
X278920000Y-146840000D03*
D14*
X284000000Y-146840000D03*
D16*
X281460000Y-141760000D03*
X275110000Y-144300000D03*
%TD*%
D13*
%TO.C,R1*%
X225040000Y-164125000D03*
X225040000Y-156505000D03*
%TD*%
D14*
%TO.C,SW11*%
X254790000Y-108720000D03*
D15*
X259870000Y-108720000D03*
D14*
X264950000Y-108720000D03*
D16*
X262410000Y-103640000D03*
X256060000Y-106180000D03*
%TD*%
D18*
%TO.C,C1*%
X172317600Y-84000000D03*
D13*
X174817600Y-84000000D03*
%TD*%
D10*
%TO.C,RV3*%
X136676700Y-165640000D03*
D11*
X140176700Y-165640000D03*
X136676700Y-92140000D03*
D12*
X142626700Y-161490000D03*
X134226700Y-160290000D03*
X134226700Y-97490000D03*
X142626700Y-96290000D03*
%TD*%
D14*
%TO.C,SW18*%
X273870000Y-127780000D03*
D15*
X278950000Y-127780000D03*
D14*
X284030000Y-127780000D03*
D16*
X281490000Y-122700000D03*
X275140000Y-125240000D03*
%TD*%
D13*
%TO.C,C7*%
X207300000Y-167725000D03*
X209800000Y-167725000D03*
%TD*%
D14*
%TO.C,SW4*%
X235790000Y-89640000D03*
D15*
X240870000Y-89640000D03*
D14*
X245950000Y-89640000D03*
D16*
X243410000Y-84560000D03*
X237060000Y-87100000D03*
%TD*%
D19*
%TO.C,SW1*%
X211390000Y-139910000D03*
D20*
X211390000Y-144910000D03*
X211390000Y-142410000D03*
D21*
X218890000Y-136810000D03*
X218890000Y-148010000D03*
D20*
X225890000Y-144910000D03*
X225890000Y-139910000D03*
%TD*%
D10*
%TO.C,RV2*%
X121323300Y-165580000D03*
D11*
X124823300Y-165580000D03*
X121323300Y-92080000D03*
D12*
X127273300Y-161430000D03*
X118873300Y-160230000D03*
X118873300Y-97430000D03*
X127273300Y-96230000D03*
%TD*%
D14*
%TO.C,SW5*%
X235790000Y-108730000D03*
D15*
X240870000Y-108730000D03*
D14*
X245950000Y-108730000D03*
D16*
X243410000Y-103650000D03*
X237060000Y-106190000D03*
%TD*%
D13*
%TO.C,C3*%
X124643300Y-169920000D03*
X122143300Y-169920000D03*
%TD*%
D14*
%TO.C,SW13*%
X254750000Y-146830000D03*
D15*
X259830000Y-146830000D03*
D14*
X264910000Y-146830000D03*
D16*
X262370000Y-141750000D03*
X256020000Y-144290000D03*
%TD*%
D13*
%TO.C,R2*%
X178970000Y-61530000D03*
X178970000Y-69150000D03*
%TD*%
D14*
%TO.C,SW15*%
X273860000Y-89690000D03*
D15*
X278940000Y-89690000D03*
D14*
X284020000Y-89690000D03*
D16*
X281480000Y-84610000D03*
X275130000Y-87150000D03*
%TD*%
D13*
%TO.C,C6*%
X170703300Y-169920000D03*
X168203300Y-169920000D03*
%TD*%
%TO.C,R3*%
X173470000Y-69150000D03*
X173470000Y-61530000D03*
%TD*%
D22*
%TO.C,U7*%
X161330000Y-59710000D03*
D23*
X158790000Y-59710000D03*
X156250000Y-59710000D03*
X153710000Y-59710000D03*
X151170000Y-59710000D03*
X148630000Y-59710000D03*
X146090000Y-59710000D03*
X143550000Y-59710000D03*
X141010000Y-59710000D03*
X138470000Y-59710000D03*
X135930000Y-59710000D03*
X133390000Y-59710000D03*
X130850000Y-59710000D03*
X128310000Y-59710000D03*
X125770000Y-59710000D03*
X123230000Y-59710000D03*
X120690000Y-59710000D03*
X118150000Y-59710000D03*
X115610000Y-59710000D03*
X113072720Y-59706320D03*
X110532720Y-59706320D03*
X107992720Y-59706320D03*
X107990000Y-85110000D03*
X110530000Y-85110000D03*
X113070000Y-85110000D03*
X115610000Y-85110000D03*
X118150000Y-85110000D03*
X120690000Y-85110000D03*
X123230000Y-85110000D03*
X125770000Y-85110000D03*
X128310000Y-85110000D03*
X130850000Y-85110000D03*
X133390000Y-85110000D03*
X135930000Y-85110000D03*
X138470000Y-85110000D03*
X141010000Y-85110000D03*
X143550000Y-85110000D03*
X146090000Y-85110000D03*
X148630000Y-85110000D03*
X151170000Y-85110000D03*
X153710000Y-85110000D03*
X156250000Y-85110000D03*
X158790000Y-85110000D03*
X161330000Y-85110000D03*
%TD*%
D24*
%TO.C,U8*%
X186730000Y-164065000D03*
D13*
X189270000Y-164065000D03*
X191810000Y-164065000D03*
X194350000Y-164065000D03*
X196890000Y-164065000D03*
X199430000Y-164065000D03*
X201970000Y-164065000D03*
X204510000Y-164065000D03*
X207050000Y-164065000D03*
X209590000Y-164065000D03*
X212130000Y-164065000D03*
X214670000Y-164065000D03*
X217210000Y-164065000D03*
X219750000Y-164065000D03*
X219750000Y-156445000D03*
X217210000Y-156445000D03*
X214670000Y-156445000D03*
X212130000Y-156445000D03*
X209590000Y-156445000D03*
X207050000Y-156445000D03*
X204510000Y-156445000D03*
X201970000Y-156445000D03*
X199430000Y-156445000D03*
X196890000Y-156445000D03*
X194350000Y-156445000D03*
X191810000Y-156445000D03*
X189270000Y-156445000D03*
X186730000Y-156445000D03*
%TD*%
D14*
%TO.C,SW7*%
X235790000Y-146850000D03*
D15*
X240870000Y-146850000D03*
D14*
X245950000Y-146850000D03*
D16*
X243410000Y-141770000D03*
X237060000Y-144310000D03*
%TD*%
D14*
%TO.C,SW16*%
X273860000Y-108740000D03*
D15*
X278940000Y-108740000D03*
D14*
X284020000Y-108740000D03*
D16*
X281480000Y-103660000D03*
X275130000Y-106200000D03*
%TD*%
D10*
%TO.C,RV4*%
X152030000Y-165640000D03*
D11*
X155530000Y-165640000D03*
X152030000Y-92140000D03*
D12*
X157980000Y-161490000D03*
X149580000Y-160290000D03*
X149580000Y-97490000D03*
X157980000Y-96290000D03*
%TD*%
D19*
%TO.C,SW2*%
X186500000Y-139910000D03*
D20*
X186500000Y-144910000D03*
X186500000Y-142410000D03*
D21*
X194000000Y-136810000D03*
X194000000Y-148010000D03*
D20*
X201000000Y-144910000D03*
X201000000Y-139910000D03*
%TD*%
M02*
