ISO-10303-21;
HEADER;
/* Generated by software containing ST-Developer
 * from STEP Tools, Inc. (www.steptools.com) 
 */

FILE_DESCRIPTION(
/* description */ (''),
/* implementation_level */ '2;1');

FILE_NAME(
/* name */ 'Case.step',
/* time_stamp */ '2026-01-27T23:01:04Z',
/* author */ (''),
/* organization */ (''),
/* preprocessor_version */ 'ST-DEVELOPER v20.1',
/* originating_system */ 'Autodesk Translation Framework v14.24.0.0',
/* authorisation */ '');

FILE_SCHEMA (('AUTOMOTIVE_DESIGN { 1 0 10303 214 3 1 1 }'));
ENDSEC;

DATA;
#10=MECHANICAL_DESIGN_GEOMETRIC_PRESENTATION_REPRESENTATION('',(#21,#22),
#1942);
#11=SHAPE_REPRESENTATION_RELATIONSHIP('SRR','None',#1949,#12);
#12=ADVANCED_BREP_SHAPE_REPRESENTATION('',(#23,#24),#1941);
#13=TOROIDAL_SURFACE('',#1240,4.24264,0.75736);
#14=TOROIDAL_SURFACE('',#1245,4.24264,0.75736);
#15=TOROIDAL_SURFACE('',#1249,4.24264,0.75736);
#16=TOROIDAL_SURFACE('',#1253,4.24264,0.75736);
#17=B_SPLINE_CURVE_WITH_KNOTS('',3,(#1768,#1769,#1770,#1771,#1772,#1773,
#1774,#1775,#1776,#1777,#1778,#1779),.UNSPECIFIED.,.F.,.F.,(4,2,2,2,2,4),
(0.218196504783572,0.270310465856445,0.338980270491803,0.407650075127161,
0.5588282608021,0.71000644647704),.UNSPECIFIED.);
#18=B_SPLINE_CURVE_WITH_KNOTS('',3,(#1805,#1806,#1807,#1808,#1809,#1810,
#1811,#1812,#1813,#1814,#1815,#1816),.UNSPECIFIED.,.F.,.F.,(4,2,2,2,2,4),
(0.710006446477033,0.86118463215197,1.01236281782691,1.08103262246227,1.14970242709762,
1.20181638817049),.UNSPECIFIED.);
#19=CONICAL_SURFACE('',#1168,3.5,0.785398163397446);
#20=CONICAL_SURFACE('',#1172,3.5,0.785398163397446);
#21=STYLED_ITEM('',(#1958),#23);
#22=STYLED_ITEM('',(#1958),#24);
#23=MANIFOLD_SOLID_BREP('Body1',#1121);
#24=MANIFOLD_SOLID_BREP('Body1',#1122);
#25=FACE_BOUND('',#156,.T.);
#26=FACE_BOUND('',#158,.T.);
#27=FACE_BOUND('',#159,.T.);
#28=FACE_BOUND('',#162,.T.);
#29=FACE_BOUND('',#173,.T.);
#30=FACE_BOUND('',#178,.T.);
#31=FACE_BOUND('',#180,.T.);
#32=FACE_BOUND('',#183,.T.);
#33=FACE_BOUND('',#193,.T.);
#34=FACE_BOUND('',#200,.T.);
#35=ELLIPSE('',#1145,1.07106878359889,0.75736);
#36=ELLIPSE('',#1146,1.0710687835989,0.75736);
#37=ELLIPSE('',#1148,1.07106878359888,0.75736);
#38=ELLIPSE('',#1150,1.07106878359889,0.75736);
#39=PLANE('',#1139);
#40=PLANE('',#1143);
#41=PLANE('',#1152);
#42=PLANE('',#1153);
#43=PLANE('',#1154);
#44=PLANE('',#1158);
#45=PLANE('',#1159);
#46=PLANE('',#1163);
#47=PLANE('',#1164);
#48=PLANE('',#1165);
#49=PLANE('',#1166);
#50=PLANE('',#1167);
#51=PLANE('',#1171);
#52=PLANE('',#1175);
#53=PLANE('',#1176);
#54=PLANE('',#1177);
#55=PLANE('',#1188);
#56=PLANE('',#1189);
#57=PLANE('',#1194);
#58=PLANE('',#1195);
#59=PLANE('',#1196);
#60=PLANE('',#1197);
#61=PLANE('',#1198);
#62=PLANE('',#1199);
#63=PLANE('',#1203);
#64=PLANE('',#1204);
#65=PLANE('',#1205);
#66=PLANE('',#1206);
#67=PLANE('',#1208);
#68=PLANE('',#1214);
#69=PLANE('',#1215);
#70=PLANE('',#1219);
#71=PLANE('',#1222);
#72=PLANE('',#1225);
#73=PLANE('',#1228);
#74=PLANE('',#1231);
#75=PLANE('',#1234);
#76=PLANE('',#1237);
#77=FACE_OUTER_BOUND('',#143,.T.);
#78=FACE_OUTER_BOUND('',#144,.T.);
#79=FACE_OUTER_BOUND('',#145,.T.);
#80=FACE_OUTER_BOUND('',#146,.T.);
#81=FACE_OUTER_BOUND('',#147,.T.);
#82=FACE_OUTER_BOUND('',#148,.T.);
#83=FACE_OUTER_BOUND('',#149,.T.);
#84=FACE_OUTER_BOUND('',#150,.T.);
#85=FACE_OUTER_BOUND('',#151,.T.);
#86=FACE_OUTER_BOUND('',#152,.T.);
#87=FACE_OUTER_BOUND('',#153,.T.);
#88=FACE_OUTER_BOUND('',#154,.T.);
#89=FACE_OUTER_BOUND('',#155,.T.);
#90=FACE_OUTER_BOUND('',#157,.T.);
#91=FACE_OUTER_BOUND('',#160,.T.);
#92=FACE_OUTER_BOUND('',#161,.T.);
#93=FACE_OUTER_BOUND('',#163,.T.);
#94=FACE_OUTER_BOUND('',#164,.T.);
#95=FACE_OUTER_BOUND('',#165,.T.);
#96=FACE_OUTER_BOUND('',#166,.T.);
#97=FACE_OUTER_BOUND('',#167,.T.);
#98=FACE_OUTER_BOUND('',#168,.T.);
#99=FACE_OUTER_BOUND('',#169,.T.);
#100=FACE_OUTER_BOUND('',#170,.T.);
#101=FACE_OUTER_BOUND('',#171,.T.);
#102=FACE_OUTER_BOUND('',#172,.T.);
#103=FACE_OUTER_BOUND('',#174,.T.);
#104=FACE_OUTER_BOUND('',#175,.T.);
#105=FACE_OUTER_BOUND('',#176,.T.);
#106=FACE_OUTER_BOUND('',#177,.T.);
#107=FACE_OUTER_BOUND('',#179,.T.);
#108=FACE_OUTER_BOUND('',#181,.T.);
#109=FACE_OUTER_BOUND('',#182,.T.);
#110=FACE_OUTER_BOUND('',#184,.T.);
#111=FACE_OUTER_BOUND('',#185,.T.);
#112=FACE_OUTER_BOUND('',#186,.T.);
#113=FACE_OUTER_BOUND('',#187,.T.);
#114=FACE_OUTER_BOUND('',#188,.T.);
#115=FACE_OUTER_BOUND('',#189,.T.);
#116=FACE_OUTER_BOUND('',#190,.T.);
#117=FACE_OUTER_BOUND('',#191,.T.);
#118=FACE_OUTER_BOUND('',#192,.T.);
#119=FACE_OUTER_BOUND('',#194,.T.);
#120=FACE_OUTER_BOUND('',#195,.T.);
#121=FACE_OUTER_BOUND('',#196,.T.);
#122=FACE_OUTER_BOUND('',#197,.T.);
#123=FACE_OUTER_BOUND('',#198,.T.);
#124=FACE_OUTER_BOUND('',#199,.T.);
#125=FACE_OUTER_BOUND('',#201,.T.);
#126=FACE_OUTER_BOUND('',#202,.T.);
#127=FACE_OUTER_BOUND('',#203,.T.);
#128=FACE_OUTER_BOUND('',#204,.T.);
#129=FACE_OUTER_BOUND('',#205,.T.);
#130=FACE_OUTER_BOUND('',#206,.T.);
#131=FACE_OUTER_BOUND('',#207,.T.);
#132=FACE_OUTER_BOUND('',#208,.T.);
#133=FACE_OUTER_BOUND('',#209,.T.);
#134=FACE_OUTER_BOUND('',#210,.T.);
#135=FACE_OUTER_BOUND('',#211,.T.);
#136=FACE_OUTER_BOUND('',#212,.T.);
#137=FACE_OUTER_BOUND('',#213,.T.);
#138=FACE_OUTER_BOUND('',#214,.T.);
#139=FACE_OUTER_BOUND('',#215,.T.);
#140=FACE_OUTER_BOUND('',#216,.T.);
#141=FACE_OUTER_BOUND('',#217,.T.);
#142=FACE_OUTER_BOUND('',#218,.T.);
#143=EDGE_LOOP('',(#721,#722,#723,#724));
#144=EDGE_LOOP('',(#725));
#145=EDGE_LOOP('',(#726,#727,#728,#729));
#146=EDGE_LOOP('',(#730));
#147=EDGE_LOOP('',(#731,#732,#733,#734));
#148=EDGE_LOOP('',(#735,#736,#737,#738));
#149=EDGE_LOOP('',(#739,#740,#741,#742));
#150=EDGE_LOOP('',(#743,#744,#745,#746));
#151=EDGE_LOOP('',(#747,#748,#749,#750));
#152=EDGE_LOOP('',(#751,#752,#753,#754));
#153=EDGE_LOOP('',(#755,#756,#757,#758));
#154=EDGE_LOOP('',(#759,#760,#761,#762));
#155=EDGE_LOOP('',(#763));
#156=EDGE_LOOP('',(#764));
#157=EDGE_LOOP('',(#765,#766,#767,#768));
#158=EDGE_LOOP('',(#769));
#159=EDGE_LOOP('',(#770));
#160=EDGE_LOOP('',(#771,#772,#773,#774));
#161=EDGE_LOOP('',(#775));
#162=EDGE_LOOP('',(#776));
#163=EDGE_LOOP('',(#777,#778,#779,#780));
#164=EDGE_LOOP('',(#781,#782,#783,#784));
#165=EDGE_LOOP('',(#785,#786,#787,#788));
#166=EDGE_LOOP('',(#789,#790,#791,#792,#793));
#167=EDGE_LOOP('',(#794,#795,#796,#797));
#168=EDGE_LOOP('',(#798,#799,#800,#801));
#169=EDGE_LOOP('',(#802,#803,#804,#805));
#170=EDGE_LOOP('',(#806,#807,#808,#809));
#171=EDGE_LOOP('',(#810,#811,#812,#813,#814));
#172=EDGE_LOOP('',(#815,#816,#817,#818,#819,#820,#821,#822,#823,#824,#825,
#826,#827,#828,#829,#830));
#173=EDGE_LOOP('',(#831,#832,#833,#834));
#174=EDGE_LOOP('',(#835,#836,#837,#838));
#175=EDGE_LOOP('',(#839,#840,#841,#842,#843,#844,#845,#846,#847));
#176=EDGE_LOOP('',(#848,#849,#850,#851));
#177=EDGE_LOOP('',(#852,#853,#854,#855,#856));
#178=EDGE_LOOP('',(#857));
#179=EDGE_LOOP('',(#858,#859,#860,#861,#862));
#180=EDGE_LOOP('',(#863));
#181=EDGE_LOOP('',(#864,#865,#866,#867,#868,#869,#870,#871,#872));
#182=EDGE_LOOP('',(#873));
#183=EDGE_LOOP('',(#874));
#184=EDGE_LOOP('',(#875,#876,#877,#878));
#185=EDGE_LOOP('',(#879,#880,#881,#882));
#186=EDGE_LOOP('',(#883,#884,#885,#886));
#187=EDGE_LOOP('',(#887,#888,#889,#890));
#188=EDGE_LOOP('',(#891,#892,#893,#894));
#189=EDGE_LOOP('',(#895,#896,#897,#898));
#190=EDGE_LOOP('',(#899,#900,#901,#902));
#191=EDGE_LOOP('',(#903,#904,#905,#906));
#192=EDGE_LOOP('',(#907,#908,#909,#910,#911,#912,#913,#914,#915,#916,#917,
#918,#919,#920));
#193=EDGE_LOOP('',(#921,#922,#923,#924));
#194=EDGE_LOOP('',(#925,#926,#927,#928));
#195=EDGE_LOOP('',(#929,#930,#931,#932));
#196=EDGE_LOOP('',(#933,#934,#935,#936));
#197=EDGE_LOOP('',(#937,#938,#939,#940));
#198=EDGE_LOOP('',(#941,#942,#943,#944));
#199=EDGE_LOOP('',(#945));
#200=EDGE_LOOP('',(#946));
#201=EDGE_LOOP('',(#947,#948,#949,#950,#951));
#202=EDGE_LOOP('',(#952,#953,#954,#955,#956,#957,#958,#959,#960,#961,#962,
#963));
#203=EDGE_LOOP('',(#964,#965,#966,#967));
#204=EDGE_LOOP('',(#968,#969,#970,#971));
#205=EDGE_LOOP('',(#972,#973,#974,#975));
#206=EDGE_LOOP('',(#976,#977,#978,#979,#980));
#207=EDGE_LOOP('',(#981,#982,#983,#984));
#208=EDGE_LOOP('',(#985,#986,#987,#988));
#209=EDGE_LOOP('',(#989,#990,#991,#992));
#210=EDGE_LOOP('',(#993,#994,#995,#996));
#211=EDGE_LOOP('',(#997,#998,#999,#1000,#1001));
#212=EDGE_LOOP('',(#1002,#1003,#1004,#1005));
#213=EDGE_LOOP('',(#1006,#1007,#1008,#1009,#1010));
#214=EDGE_LOOP('',(#1011,#1012,#1013,#1014));
#215=EDGE_LOOP('',(#1015,#1016,#1017,#1018,#1019));
#216=EDGE_LOOP('',(#1020,#1021,#1022,#1023));
#217=EDGE_LOOP('',(#1024,#1025,#1026,#1027,#1028));
#218=EDGE_LOOP('',(#1029,#1030,#1031,#1032));
#219=LINE('',#1603,#319);
#220=LINE('',#1610,#320);
#221=LINE('',#1616,#321);
#222=LINE('',#1620,#322);
#223=LINE('',#1624,#323);
#224=LINE('',#1627,#324);
#225=LINE('',#1630,#325);
#226=LINE('',#1633,#326);
#227=LINE('',#1635,#327);
#228=LINE('',#1636,#328);
#229=LINE('',#1639,#329);
#230=LINE('',#1641,#330);
#231=LINE('',#1642,#331);
#232=LINE('',#1645,#332);
#233=LINE('',#1646,#333);
#234=LINE('',#1652,#334);
#235=LINE('',#1657,#335);
#236=LINE('',#1658,#336);
#237=LINE('',#1664,#337);
#238=LINE('',#1667,#338);
#239=LINE('',#1672,#339);
#240=LINE('',#1674,#340);
#241=LINE('',#1676,#341);
#242=LINE('',#1677,#342);
#243=LINE('',#1680,#343);
#244=LINE('',#1682,#344);
#245=LINE('',#1684,#345);
#246=LINE('',#1685,#346);
#247=LINE('',#1689,#347);
#248=LINE('',#1693,#348);
#249=LINE('',#1697,#349);
#250=LINE('',#1699,#350);
#251=LINE('',#1700,#351);
#252=LINE('',#1705,#352);
#253=LINE('',#1708,#353);
#254=LINE('',#1709,#354);
#255=LINE('',#1713,#355);
#256=LINE('',#1714,#356);
#257=LINE('',#1716,#357);
#258=LINE('',#1717,#358);
#259=LINE('',#1721,#359);
#260=LINE('',#1723,#360);
#261=LINE('',#1725,#361);
#262=LINE('',#1727,#362);
#263=LINE('',#1729,#363);
#264=LINE('',#1731,#364);
#265=LINE('',#1733,#365);
#266=LINE('',#1735,#366);
#267=LINE('',#1737,#367);
#268=LINE('',#1739,#368);
#269=LINE('',#1741,#369);
#270=LINE('',#1743,#370);
#271=LINE('',#1745,#371);
#272=LINE('',#1747,#372);
#273=LINE('',#1749,#373);
#274=LINE('',#1750,#374);
#275=LINE('',#1755,#375);
#276=LINE('',#1761,#376);
#277=LINE('',#1765,#377);
#278=LINE('',#1767,#378);
#279=LINE('',#1784,#379);
#280=LINE('',#1788,#380);
#281=LINE('',#1789,#381);
#282=LINE('',#1796,#382);
#283=LINE('',#1797,#383);
#284=LINE('',#1800,#384);
#285=LINE('',#1801,#385);
#286=LINE('',#1803,#386);
#287=LINE('',#1819,#387);
#288=LINE('',#1821,#388);
#289=LINE('',#1824,#389);
#290=LINE('',#1825,#390);
#291=LINE('',#1828,#391);
#292=LINE('',#1830,#392);
#293=LINE('',#1831,#393);
#294=LINE('',#1834,#394);
#295=LINE('',#1838,#395);
#296=LINE('',#1841,#396);
#297=LINE('',#1844,#397);
#298=LINE('',#1845,#398);
#299=LINE('',#1848,#399);
#300=LINE('',#1850,#400);
#301=LINE('',#1851,#401);
#302=LINE('',#1852,#402);
#303=LINE('',#1863,#403);
#304=LINE('',#1866,#404);
#305=LINE('',#1869,#405);
#306=LINE('',#1871,#406);
#307=LINE('',#1872,#407);
#308=LINE('',#1881,#408);
#309=LINE('',#1884,#409);
#310=LINE('',#1887,#410);
#311=LINE('',#1888,#411);
#312=LINE('',#1892,#412);
#313=LINE('',#1895,#413);
#314=LINE('',#1896,#414);
#315=LINE('',#1903,#415);
#316=LINE('',#1909,#416);
#317=LINE('',#1916,#417);
#318=LINE('',#1922,#418);
#319=VECTOR('',#1262,1.40000000000001);
#320=VECTOR('',#1271,1.4);
#321=VECTOR('',#1278,10.);
#322=VECTOR('',#1281,10.);
#323=VECTOR('',#1286,10.);
#324=VECTOR('',#1289,10.);
#325=VECTOR('',#1292,10.);
#326=VECTOR('',#1295,10.);
#327=VECTOR('',#1298,10.);
#328=VECTOR('',#1299,10.);
#329=VECTOR('',#1302,10.);
#330=VECTOR('',#1303,10.);
#331=VECTOR('',#1304,10.);
#332=VECTOR('',#1307,10.);
#333=VECTOR('',#1308,10.);
#334=VECTOR('',#1315,3.);
#335=VECTOR('',#1322,10.);
#336=VECTOR('',#1323,10.);
#337=VECTOR('',#1330,3.00000000000001);
#338=VECTOR('',#1335,10.);
#339=VECTOR('',#1340,10.);
#340=VECTOR('',#1341,10.);
#341=VECTOR('',#1342,10.);
#342=VECTOR('',#1343,10.);
#343=VECTOR('',#1346,10.);
#344=VECTOR('',#1347,10.);
#345=VECTOR('',#1348,10.);
#346=VECTOR('',#1349,10.);
#347=VECTOR('',#1352,10.);
#348=VECTOR('',#1355,10.);
#349=VECTOR('',#1360,10.);
#350=VECTOR('',#1361,10.);
#351=VECTOR('',#1362,10.);
#352=VECTOR('',#1367,10.);
#353=VECTOR('',#1372,10.);
#354=VECTOR('',#1373,10.);
#355=VECTOR('',#1376,10.);
#356=VECTOR('',#1377,10.);
#357=VECTOR('',#1378,10.);
#358=VECTOR('',#1379,10.);
#359=VECTOR('',#1382,10.);
#360=VECTOR('',#1383,10.);
#361=VECTOR('',#1384,10.);
#362=VECTOR('',#1385,10.);
#363=VECTOR('',#1386,10.);
#364=VECTOR('',#1387,10.);
#365=VECTOR('',#1388,10.);
#366=VECTOR('',#1389,10.);
#367=VECTOR('',#1390,10.);
#368=VECTOR('',#1391,10.);
#369=VECTOR('',#1392,10.);
#370=VECTOR('',#1393,10.);
#371=VECTOR('',#1394,10.);
#372=VECTOR('',#1395,10.);
#373=VECTOR('',#1396,10.);
#374=VECTOR('',#1397,10.);
#375=VECTOR('',#1402,1.);
#376=VECTOR('',#1409,3.);
#377=VECTOR('',#1414,10.);
#378=VECTOR('',#1415,10.);
#379=VECTOR('',#1420,1.);
#380=VECTOR('',#1425,10.);
#381=VECTOR('',#1426,10.);
#382=VECTOR('',#1433,10.);
#383=VECTOR('',#1434,10.);
#384=VECTOR('',#1437,10.);
#385=VECTOR('',#1438,10.);
#386=VECTOR('',#1439,3.);
#387=VECTOR('',#1446,10.);
#388=VECTOR('',#1449,10.);
#389=VECTOR('',#1452,10.);
#390=VECTOR('',#1453,10.);
#391=VECTOR('',#1456,10.);
#392=VECTOR('',#1457,10.);
#393=VECTOR('',#1458,10.);
#394=VECTOR('',#1461,10.);
#395=VECTOR('',#1466,10.);
#396=VECTOR('',#1471,10.);
#397=VECTOR('',#1474,10.);
#398=VECTOR('',#1475,10.);
#399=VECTOR('',#1478,10.);
#400=VECTOR('',#1479,10.);
#401=VECTOR('',#1480,10.);
#402=VECTOR('',#1481,10.);
#403=VECTOR('',#1496,10.);
#404=VECTOR('',#1499,10.);
#405=VECTOR('',#1502,10.);
#406=VECTOR('',#1503,10.);
#407=VECTOR('',#1504,10.);
#408=VECTOR('',#1517,10.);
#409=VECTOR('',#1520,10.);
#410=VECTOR('',#1523,10.);
#411=VECTOR('',#1524,10.);
#412=VECTOR('',#1529,10.);
#413=VECTOR('',#1532,10.);
#414=VECTOR('',#1533,10.);
#415=VECTOR('',#1542,10.);
#416=VECTOR('',#1549,10.);
#417=VECTOR('',#1558,10.);
#418=VECTOR('',#1565,10.);
#419=CIRCLE('',#1137,1.40000000000001);
#420=CIRCLE('',#1138,1.40000000000001);
#421=CIRCLE('',#1141,1.4);
#422=CIRCLE('',#1142,1.4);
#423=CIRCLE('',#1156,3.);
#424=CIRCLE('',#1157,3.);
#425=CIRCLE('',#1160,3.00000000000001);
#426=CIRCLE('',#1162,3.00000000000001);
#427=CIRCLE('',#1169,4.49999999999999);
#428=CIRCLE('',#1170,2.5);
#429=CIRCLE('',#1173,4.49999999999999);
#430=CIRCLE('',#1174,2.5);
#431=CIRCLE('',#1179,1.);
#432=CIRCLE('',#1180,1.);
#433=CIRCLE('',#1182,3.);
#434=CIRCLE('',#1183,3.);
#435=CIRCLE('',#1184,3.);
#436=CIRCLE('',#1186,1.);
#437=CIRCLE('',#1187,1.);
#438=CIRCLE('',#1190,3.);
#439=CIRCLE('',#1191,3.);
#440=CIRCLE('',#1193,3.);
#441=CIRCLE('',#1200,2.99999999999998);
#442=CIRCLE('',#1202,2.99999999999998);
#443=CIRCLE('',#1207,3.);
#444=CIRCLE('',#1209,3.);
#445=CIRCLE('',#1212,5.);
#446=CIRCLE('',#1213,5.);
#447=CIRCLE('',#1217,5.);
#448=CIRCLE('',#1218,5.);
#449=CIRCLE('',#1220,5.);
#450=CIRCLE('',#1221,5.);
#451=CIRCLE('',#1224,5.);
#452=CIRCLE('',#1227,5.);
#453=CIRCLE('',#1229,4.24264);
#454=CIRCLE('',#1230,4.24264);
#455=CIRCLE('',#1232,4.24264);
#456=CIRCLE('',#1233,4.24264);
#457=CIRCLE('',#1235,4.24264);
#458=CIRCLE('',#1236,4.24264);
#459=CIRCLE('',#1238,4.24264);
#460=CIRCLE('',#1239,4.24264);
#461=CIRCLE('',#1241,0.757359999999991);
#462=CIRCLE('',#1242,0.75736);
#463=CIRCLE('',#1244,0.757359999999991);
#464=CIRCLE('',#1246,0.757360000000005);
#465=CIRCLE('',#1248,0.75736);
#466=CIRCLE('',#1250,0.75736);
#467=CIRCLE('',#1252,0.757360000000009);
#468=CIRCLE('',#1254,0.757359999999991);
#469=VERTEX_POINT('',#1600);
#470=VERTEX_POINT('',#1602);
#471=VERTEX_POINT('',#1607);
#472=VERTEX_POINT('',#1609);
#473=VERTEX_POINT('',#1614);
#474=VERTEX_POINT('',#1615);
#475=VERTEX_POINT('',#1617);
#476=VERTEX_POINT('',#1619);
#477=VERTEX_POINT('',#1623);
#478=VERTEX_POINT('',#1625);
#479=VERTEX_POINT('',#1629);
#480=VERTEX_POINT('',#1631);
#481=VERTEX_POINT('',#1638);
#482=VERTEX_POINT('',#1640);
#483=VERTEX_POINT('',#1644);
#484=VERTEX_POINT('',#1649);
#485=VERTEX_POINT('',#1651);
#486=VERTEX_POINT('',#1656);
#487=VERTEX_POINT('',#1659);
#488=VERTEX_POINT('',#1662);
#489=VERTEX_POINT('',#1670);
#490=VERTEX_POINT('',#1671);
#491=VERTEX_POINT('',#1673);
#492=VERTEX_POINT('',#1675);
#493=VERTEX_POINT('',#1679);
#494=VERTEX_POINT('',#1681);
#495=VERTEX_POINT('',#1683);
#496=VERTEX_POINT('',#1687);
#497=VERTEX_POINT('',#1688);
#498=VERTEX_POINT('',#1690);
#499=VERTEX_POINT('',#1692);
#500=VERTEX_POINT('',#1696);
#501=VERTEX_POINT('',#1698);
#502=VERTEX_POINT('',#1702);
#503=VERTEX_POINT('',#1704);
#504=VERTEX_POINT('',#1711);
#505=VERTEX_POINT('',#1712);
#506=VERTEX_POINT('',#1715);
#507=VERTEX_POINT('',#1719);
#508=VERTEX_POINT('',#1720);
#509=VERTEX_POINT('',#1722);
#510=VERTEX_POINT('',#1724);
#511=VERTEX_POINT('',#1726);
#512=VERTEX_POINT('',#1728);
#513=VERTEX_POINT('',#1730);
#514=VERTEX_POINT('',#1732);
#515=VERTEX_POINT('',#1734);
#516=VERTEX_POINT('',#1736);
#517=VERTEX_POINT('',#1738);
#518=VERTEX_POINT('',#1740);
#519=VERTEX_POINT('',#1742);
#520=VERTEX_POINT('',#1744);
#521=VERTEX_POINT('',#1746);
#522=VERTEX_POINT('',#1748);
#523=VERTEX_POINT('',#1752);
#524=VERTEX_POINT('',#1754);
#525=VERTEX_POINT('',#1758);
#526=VERTEX_POINT('',#1760);
#527=VERTEX_POINT('',#1763);
#528=VERTEX_POINT('',#1766);
#529=VERTEX_POINT('',#1781);
#530=VERTEX_POINT('',#1783);
#531=VERTEX_POINT('',#1787);
#532=VERTEX_POINT('',#1791);
#533=VERTEX_POINT('',#1793);
#534=VERTEX_POINT('',#1795);
#535=VERTEX_POINT('',#1799);
#536=VERTEX_POINT('',#1802);
#537=VERTEX_POINT('',#1823);
#538=VERTEX_POINT('',#1827);
#539=VERTEX_POINT('',#1829);
#540=VERTEX_POINT('',#1833);
#541=VERTEX_POINT('',#1837);
#542=VERTEX_POINT('',#1843);
#543=VERTEX_POINT('',#1847);
#544=VERTEX_POINT('',#1849);
#545=VERTEX_POINT('',#1859);
#546=VERTEX_POINT('',#1860);
#547=VERTEX_POINT('',#1862);
#548=VERTEX_POINT('',#1864);
#549=VERTEX_POINT('',#1868);
#550=VERTEX_POINT('',#1870);
#551=VERTEX_POINT('',#1878);
#552=VERTEX_POINT('',#1879);
#553=VERTEX_POINT('',#1882);
#554=VERTEX_POINT('',#1886);
#555=VERTEX_POINT('',#1890);
#556=VERTEX_POINT('',#1894);
#557=VERTEX_POINT('',#1900);
#558=VERTEX_POINT('',#1902);
#559=VERTEX_POINT('',#1906);
#560=VERTEX_POINT('',#1908);
#561=VERTEX_POINT('',#1912);
#562=VERTEX_POINT('',#1914);
#563=VERTEX_POINT('',#1918);
#564=VERTEX_POINT('',#1920);
#565=EDGE_CURVE('',#469,#469,#419,.T.);
#566=EDGE_CURVE('',#469,#470,#219,.T.);
#567=EDGE_CURVE('',#470,#470,#420,.T.);
#568=EDGE_CURVE('',#471,#471,#421,.T.);
#569=EDGE_CURVE('',#471,#472,#220,.T.);
#570=EDGE_CURVE('',#472,#472,#422,.T.);
#571=EDGE_CURVE('',#473,#474,#221,.T.);
#572=EDGE_CURVE('',#474,#475,#35,.T.);
#573=EDGE_CURVE('',#475,#476,#222,.T.);
#574=EDGE_CURVE('',#473,#476,#36,.T.);
#575=EDGE_CURVE('',#474,#477,#223,.T.);
#576=EDGE_CURVE('',#477,#478,#37,.T.);
#577=EDGE_CURVE('',#478,#475,#224,.T.);
#578=EDGE_CURVE('',#477,#479,#225,.T.);
#579=EDGE_CURVE('',#479,#480,#38,.T.);
#580=EDGE_CURVE('',#480,#478,#226,.T.);
#581=EDGE_CURVE('',#476,#480,#227,.T.);
#582=EDGE_CURVE('',#479,#473,#228,.T.);
#583=EDGE_CURVE('',#481,#476,#229,.T.);
#584=EDGE_CURVE('',#481,#482,#230,.T.);
#585=EDGE_CURVE('',#482,#480,#231,.T.);
#586=EDGE_CURVE('',#483,#475,#232,.T.);
#587=EDGE_CURVE('',#483,#481,#233,.T.);
#588=EDGE_CURVE('',#484,#484,#423,.T.);
#589=EDGE_CURVE('',#484,#485,#234,.T.);
#590=EDGE_CURVE('',#485,#485,#424,.T.);
#591=EDGE_CURVE('',#486,#483,#235,.T.);
#592=EDGE_CURVE('',#482,#486,#236,.T.);
#593=EDGE_CURVE('',#487,#487,#425,.T.);
#594=EDGE_CURVE('',#488,#488,#426,.T.);
#595=EDGE_CURVE('',#488,#487,#237,.T.);
#596=EDGE_CURVE('',#486,#478,#238,.T.);
#597=EDGE_CURVE('',#489,#490,#239,.T.);
#598=EDGE_CURVE('',#490,#491,#240,.T.);
#599=EDGE_CURVE('',#492,#491,#241,.T.);
#600=EDGE_CURVE('',#489,#492,#242,.T.);
#601=EDGE_CURVE('',#491,#493,#243,.T.);
#602=EDGE_CURVE('',#490,#494,#244,.T.);
#603=EDGE_CURVE('',#494,#495,#245,.T.);
#604=EDGE_CURVE('',#493,#495,#246,.T.);
#605=EDGE_CURVE('',#496,#497,#247,.T.);
#606=EDGE_CURVE('',#496,#498,#427,.T.);
#607=EDGE_CURVE('',#499,#498,#248,.T.);
#608=EDGE_CURVE('',#497,#499,#428,.T.);
#609=EDGE_CURVE('',#498,#500,#249,.T.);
#610=EDGE_CURVE('',#501,#500,#250,.T.);
#611=EDGE_CURVE('',#499,#501,#251,.T.);
#612=EDGE_CURVE('',#500,#502,#429,.T.);
#613=EDGE_CURVE('',#503,#502,#252,.T.);
#614=EDGE_CURVE('',#501,#503,#430,.T.);
#615=EDGE_CURVE('',#502,#496,#253,.T.);
#616=EDGE_CURVE('',#503,#497,#254,.T.);
#617=EDGE_CURVE('',#504,#505,#255,.T.);
#618=EDGE_CURVE('',#504,#489,#256,.T.);
#619=EDGE_CURVE('',#506,#492,#257,.T.);
#620=EDGE_CURVE('',#505,#506,#258,.T.);
#621=EDGE_CURVE('',#507,#508,#259,.T.);
#622=EDGE_CURVE('',#509,#507,#260,.T.);
#623=EDGE_CURVE('',#509,#510,#261,.T.);
#624=EDGE_CURVE('',#510,#511,#262,.T.);
#625=EDGE_CURVE('',#512,#511,#263,.T.);
#626=EDGE_CURVE('',#512,#513,#264,.T.);
#627=EDGE_CURVE('',#513,#514,#265,.T.);
#628=EDGE_CURVE('',#514,#515,#266,.T.);
#629=EDGE_CURVE('',#516,#515,#267,.T.);
#630=EDGE_CURVE('',#516,#517,#268,.T.);
#631=EDGE_CURVE('',#517,#518,#269,.T.);
#632=EDGE_CURVE('',#518,#519,#270,.T.);
#633=EDGE_CURVE('',#520,#519,#271,.T.);
#634=EDGE_CURVE('',#520,#521,#272,.T.);
#635=EDGE_CURVE('',#521,#522,#273,.T.);
#636=EDGE_CURVE('',#508,#522,#274,.T.);
#637=EDGE_CURVE('',#523,#523,#431,.T.);
#638=EDGE_CURVE('',#523,#524,#275,.T.);
#639=EDGE_CURVE('',#524,#524,#432,.T.);
#640=EDGE_CURVE('',#525,#521,#433,.T.);
#641=EDGE_CURVE('',#525,#526,#276,.T.);
#642=EDGE_CURVE('',#526,#526,#434,.T.);
#643=EDGE_CURVE('',#527,#525,#435,.T.);
#644=EDGE_CURVE('',#506,#527,#277,.T.);
#645=EDGE_CURVE('',#528,#506,#278,.T.);
#646=EDGE_CURVE('',#522,#528,#17,.F.);
#647=EDGE_CURVE('',#529,#529,#436,.T.);
#648=EDGE_CURVE('',#529,#530,#279,.T.);
#649=EDGE_CURVE('',#530,#530,#437,.T.);
#650=EDGE_CURVE('',#531,#520,#280,.T.);
#651=EDGE_CURVE('',#531,#527,#281,.T.);
#652=EDGE_CURVE('',#510,#532,#438,.T.);
#653=EDGE_CURVE('',#532,#533,#439,.T.);
#654=EDGE_CURVE('',#533,#534,#282,.T.);
#655=EDGE_CURVE('',#511,#534,#283,.T.);
#656=EDGE_CURVE('',#493,#535,#284,.T.);
#657=EDGE_CURVE('',#493,#533,#285,.T.);
#658=EDGE_CURVE('',#532,#536,#286,.T.);
#659=EDGE_CURVE('',#536,#536,#440,.T.);
#660=EDGE_CURVE('',#509,#535,#18,.T.);
#661=EDGE_CURVE('',#495,#534,#287,.T.);
#662=EDGE_CURVE('',#531,#505,#288,.T.);
#663=EDGE_CURVE('',#519,#537,#289,.T.);
#664=EDGE_CURVE('',#537,#531,#290,.T.);
#665=EDGE_CURVE('',#515,#538,#291,.T.);
#666=EDGE_CURVE('',#538,#539,#292,.T.);
#667=EDGE_CURVE('',#539,#516,#293,.T.);
#668=EDGE_CURVE('',#540,#539,#294,.T.);
#669=EDGE_CURVE('',#517,#540,#441,.T.);
#670=EDGE_CURVE('',#541,#540,#295,.T.);
#671=EDGE_CURVE('',#541,#518,#442,.T.);
#672=EDGE_CURVE('',#537,#541,#296,.T.);
#673=EDGE_CURVE('',#542,#512,#297,.T.);
#674=EDGE_CURVE('',#534,#542,#298,.T.);
#675=EDGE_CURVE('',#538,#543,#299,.T.);
#676=EDGE_CURVE('',#543,#544,#300,.T.);
#677=EDGE_CURVE('',#544,#542,#301,.T.);
#678=EDGE_CURVE('',#494,#504,#302,.T.);
#679=EDGE_CURVE('',#543,#514,#443,.T.);
#680=EDGE_CURVE('',#513,#544,#444,.T.);
#681=EDGE_CURVE('',#545,#546,#445,.T.);
#682=EDGE_CURVE('',#545,#547,#303,.T.);
#683=EDGE_CURVE('',#547,#548,#446,.T.);
#684=EDGE_CURVE('',#548,#546,#304,.T.);
#685=EDGE_CURVE('',#549,#545,#305,.T.);
#686=EDGE_CURVE('',#550,#549,#306,.T.);
#687=EDGE_CURVE('',#547,#550,#307,.T.);
#688=EDGE_CURVE('',#508,#549,#447,.T.);
#689=EDGE_CURVE('',#528,#550,#448,.T.);
#690=EDGE_CURVE('',#551,#552,#449,.T.);
#691=EDGE_CURVE('',#551,#548,#308,.T.);
#692=EDGE_CURVE('',#553,#535,#450,.T.);
#693=EDGE_CURVE('',#553,#552,#309,.T.);
#694=EDGE_CURVE('',#546,#554,#310,.T.);
#695=EDGE_CURVE('',#554,#551,#311,.T.);
#696=EDGE_CURVE('',#554,#555,#451,.T.);
#697=EDGE_CURVE('',#552,#555,#312,.T.);
#698=EDGE_CURVE('',#555,#556,#313,.T.);
#699=EDGE_CURVE('',#556,#553,#314,.T.);
#700=EDGE_CURVE('',#556,#507,#452,.T.);
#701=EDGE_CURVE('',#557,#489,#453,.T.);
#702=EDGE_CURVE('',#558,#557,#315,.T.);
#703=EDGE_CURVE('',#490,#558,#454,.T.);
#704=EDGE_CURVE('',#559,#504,#455,.T.);
#705=EDGE_CURVE('',#560,#559,#316,.T.);
#706=EDGE_CURVE('',#489,#560,#456,.T.);
#707=EDGE_CURVE('',#504,#561,#457,.T.);
#708=EDGE_CURVE('',#562,#494,#458,.T.);
#709=EDGE_CURVE('',#561,#562,#317,.T.);
#710=EDGE_CURVE('',#494,#563,#459,.T.);
#711=EDGE_CURVE('',#564,#490,#460,.T.);
#712=EDGE_CURVE('',#563,#564,#318,.T.);
#713=EDGE_CURVE('',#545,#560,#461,.T.);
#714=EDGE_CURVE('',#557,#546,#462,.T.);
#715=EDGE_CURVE('',#549,#559,#463,.T.);
#716=EDGE_CURVE('',#508,#561,#464,.T.);
#717=EDGE_CURVE('',#507,#562,#465,.T.);
#718=EDGE_CURVE('',#556,#563,#466,.T.);
#719=EDGE_CURVE('',#555,#564,#467,.T.);
#720=EDGE_CURVE('',#554,#558,#468,.T.);
#721=ORIENTED_EDGE('',*,*,#565,.F.);
#722=ORIENTED_EDGE('',*,*,#566,.T.);
#723=ORIENTED_EDGE('',*,*,#567,.F.);
#724=ORIENTED_EDGE('',*,*,#566,.F.);
#725=ORIENTED_EDGE('',*,*,#565,.T.);
#726=ORIENTED_EDGE('',*,*,#568,.F.);
#727=ORIENTED_EDGE('',*,*,#569,.T.);
#728=ORIENTED_EDGE('',*,*,#570,.F.);
#729=ORIENTED_EDGE('',*,*,#569,.F.);
#730=ORIENTED_EDGE('',*,*,#568,.T.);
#731=ORIENTED_EDGE('',*,*,#571,.T.);
#732=ORIENTED_EDGE('',*,*,#572,.T.);
#733=ORIENTED_EDGE('',*,*,#573,.T.);
#734=ORIENTED_EDGE('',*,*,#574,.F.);
#735=ORIENTED_EDGE('',*,*,#575,.T.);
#736=ORIENTED_EDGE('',*,*,#576,.T.);
#737=ORIENTED_EDGE('',*,*,#577,.T.);
#738=ORIENTED_EDGE('',*,*,#572,.F.);
#739=ORIENTED_EDGE('',*,*,#578,.T.);
#740=ORIENTED_EDGE('',*,*,#579,.T.);
#741=ORIENTED_EDGE('',*,*,#580,.T.);
#742=ORIENTED_EDGE('',*,*,#576,.F.);
#743=ORIENTED_EDGE('',*,*,#581,.T.);
#744=ORIENTED_EDGE('',*,*,#579,.F.);
#745=ORIENTED_EDGE('',*,*,#582,.T.);
#746=ORIENTED_EDGE('',*,*,#574,.T.);
#747=ORIENTED_EDGE('',*,*,#581,.F.);
#748=ORIENTED_EDGE('',*,*,#583,.F.);
#749=ORIENTED_EDGE('',*,*,#584,.T.);
#750=ORIENTED_EDGE('',*,*,#585,.T.);
#751=ORIENTED_EDGE('',*,*,#573,.F.);
#752=ORIENTED_EDGE('',*,*,#586,.F.);
#753=ORIENTED_EDGE('',*,*,#587,.T.);
#754=ORIENTED_EDGE('',*,*,#583,.T.);
#755=ORIENTED_EDGE('',*,*,#571,.F.);
#756=ORIENTED_EDGE('',*,*,#582,.F.);
#757=ORIENTED_EDGE('',*,*,#578,.F.);
#758=ORIENTED_EDGE('',*,*,#575,.F.);
#759=ORIENTED_EDGE('',*,*,#588,.F.);
#760=ORIENTED_EDGE('',*,*,#589,.T.);
#761=ORIENTED_EDGE('',*,*,#590,.F.);
#762=ORIENTED_EDGE('',*,*,#589,.F.);
#763=ORIENTED_EDGE('',*,*,#588,.T.);
#764=ORIENTED_EDGE('',*,*,#570,.T.);
#765=ORIENTED_EDGE('',*,*,#584,.F.);
#766=ORIENTED_EDGE('',*,*,#587,.F.);
#767=ORIENTED_EDGE('',*,*,#591,.F.);
#768=ORIENTED_EDGE('',*,*,#592,.F.);
#769=ORIENTED_EDGE('',*,*,#593,.T.);
#770=ORIENTED_EDGE('',*,*,#590,.T.);
#771=ORIENTED_EDGE('',*,*,#594,.F.);
#772=ORIENTED_EDGE('',*,*,#595,.T.);
#773=ORIENTED_EDGE('',*,*,#593,.F.);
#774=ORIENTED_EDGE('',*,*,#595,.F.);
#775=ORIENTED_EDGE('',*,*,#594,.T.);
#776=ORIENTED_EDGE('',*,*,#567,.T.);
#777=ORIENTED_EDGE('',*,*,#577,.F.);
#778=ORIENTED_EDGE('',*,*,#596,.F.);
#779=ORIENTED_EDGE('',*,*,#591,.T.);
#780=ORIENTED_EDGE('',*,*,#586,.T.);
#781=ORIENTED_EDGE('',*,*,#580,.F.);
#782=ORIENTED_EDGE('',*,*,#585,.F.);
#783=ORIENTED_EDGE('',*,*,#592,.T.);
#784=ORIENTED_EDGE('',*,*,#596,.T.);
#785=ORIENTED_EDGE('',*,*,#597,.T.);
#786=ORIENTED_EDGE('',*,*,#598,.T.);
#787=ORIENTED_EDGE('',*,*,#599,.F.);
#788=ORIENTED_EDGE('',*,*,#600,.F.);
#789=ORIENTED_EDGE('',*,*,#601,.F.);
#790=ORIENTED_EDGE('',*,*,#598,.F.);
#791=ORIENTED_EDGE('',*,*,#602,.T.);
#792=ORIENTED_EDGE('',*,*,#603,.T.);
#793=ORIENTED_EDGE('',*,*,#604,.F.);
#794=ORIENTED_EDGE('',*,*,#605,.F.);
#795=ORIENTED_EDGE('',*,*,#606,.T.);
#796=ORIENTED_EDGE('',*,*,#607,.F.);
#797=ORIENTED_EDGE('',*,*,#608,.F.);
#798=ORIENTED_EDGE('',*,*,#607,.T.);
#799=ORIENTED_EDGE('',*,*,#609,.T.);
#800=ORIENTED_EDGE('',*,*,#610,.F.);
#801=ORIENTED_EDGE('',*,*,#611,.F.);
#802=ORIENTED_EDGE('',*,*,#610,.T.);
#803=ORIENTED_EDGE('',*,*,#612,.T.);
#804=ORIENTED_EDGE('',*,*,#613,.F.);
#805=ORIENTED_EDGE('',*,*,#614,.F.);
#806=ORIENTED_EDGE('',*,*,#613,.T.);
#807=ORIENTED_EDGE('',*,*,#615,.T.);
#808=ORIENTED_EDGE('',*,*,#605,.T.);
#809=ORIENTED_EDGE('',*,*,#616,.F.);
#810=ORIENTED_EDGE('',*,*,#617,.F.);
#811=ORIENTED_EDGE('',*,*,#618,.T.);
#812=ORIENTED_EDGE('',*,*,#600,.T.);
#813=ORIENTED_EDGE('',*,*,#619,.F.);
#814=ORIENTED_EDGE('',*,*,#620,.F.);
#815=ORIENTED_EDGE('',*,*,#621,.F.);
#816=ORIENTED_EDGE('',*,*,#622,.F.);
#817=ORIENTED_EDGE('',*,*,#623,.T.);
#818=ORIENTED_EDGE('',*,*,#624,.T.);
#819=ORIENTED_EDGE('',*,*,#625,.F.);
#820=ORIENTED_EDGE('',*,*,#626,.T.);
#821=ORIENTED_EDGE('',*,*,#627,.T.);
#822=ORIENTED_EDGE('',*,*,#628,.T.);
#823=ORIENTED_EDGE('',*,*,#629,.F.);
#824=ORIENTED_EDGE('',*,*,#630,.T.);
#825=ORIENTED_EDGE('',*,*,#631,.T.);
#826=ORIENTED_EDGE('',*,*,#632,.T.);
#827=ORIENTED_EDGE('',*,*,#633,.F.);
#828=ORIENTED_EDGE('',*,*,#634,.T.);
#829=ORIENTED_EDGE('',*,*,#635,.T.);
#830=ORIENTED_EDGE('',*,*,#636,.F.);
#831=ORIENTED_EDGE('',*,*,#615,.F.);
#832=ORIENTED_EDGE('',*,*,#612,.F.);
#833=ORIENTED_EDGE('',*,*,#609,.F.);
#834=ORIENTED_EDGE('',*,*,#606,.F.);
#835=ORIENTED_EDGE('',*,*,#637,.F.);
#836=ORIENTED_EDGE('',*,*,#638,.T.);
#837=ORIENTED_EDGE('',*,*,#639,.F.);
#838=ORIENTED_EDGE('',*,*,#638,.F.);
#839=ORIENTED_EDGE('',*,*,#635,.F.);
#840=ORIENTED_EDGE('',*,*,#640,.F.);
#841=ORIENTED_EDGE('',*,*,#641,.T.);
#842=ORIENTED_EDGE('',*,*,#642,.F.);
#843=ORIENTED_EDGE('',*,*,#641,.F.);
#844=ORIENTED_EDGE('',*,*,#643,.F.);
#845=ORIENTED_EDGE('',*,*,#644,.F.);
#846=ORIENTED_EDGE('',*,*,#645,.F.);
#847=ORIENTED_EDGE('',*,*,#646,.F.);
#848=ORIENTED_EDGE('',*,*,#647,.F.);
#849=ORIENTED_EDGE('',*,*,#648,.T.);
#850=ORIENTED_EDGE('',*,*,#649,.F.);
#851=ORIENTED_EDGE('',*,*,#648,.F.);
#852=ORIENTED_EDGE('',*,*,#650,.F.);
#853=ORIENTED_EDGE('',*,*,#651,.T.);
#854=ORIENTED_EDGE('',*,*,#643,.T.);
#855=ORIENTED_EDGE('',*,*,#640,.T.);
#856=ORIENTED_EDGE('',*,*,#634,.F.);
#857=ORIENTED_EDGE('',*,*,#647,.T.);
#858=ORIENTED_EDGE('',*,*,#652,.T.);
#859=ORIENTED_EDGE('',*,*,#653,.T.);
#860=ORIENTED_EDGE('',*,*,#654,.T.);
#861=ORIENTED_EDGE('',*,*,#655,.F.);
#862=ORIENTED_EDGE('',*,*,#624,.F.);
#863=ORIENTED_EDGE('',*,*,#637,.T.);
#864=ORIENTED_EDGE('',*,*,#656,.F.);
#865=ORIENTED_EDGE('',*,*,#657,.T.);
#866=ORIENTED_EDGE('',*,*,#653,.F.);
#867=ORIENTED_EDGE('',*,*,#658,.T.);
#868=ORIENTED_EDGE('',*,*,#659,.T.);
#869=ORIENTED_EDGE('',*,*,#658,.F.);
#870=ORIENTED_EDGE('',*,*,#652,.F.);
#871=ORIENTED_EDGE('',*,*,#623,.F.);
#872=ORIENTED_EDGE('',*,*,#660,.T.);
#873=ORIENTED_EDGE('',*,*,#659,.F.);
#874=ORIENTED_EDGE('',*,*,#639,.T.);
#875=ORIENTED_EDGE('',*,*,#604,.T.);
#876=ORIENTED_EDGE('',*,*,#661,.T.);
#877=ORIENTED_EDGE('',*,*,#654,.F.);
#878=ORIENTED_EDGE('',*,*,#657,.F.);
#879=ORIENTED_EDGE('',*,*,#620,.T.);
#880=ORIENTED_EDGE('',*,*,#644,.T.);
#881=ORIENTED_EDGE('',*,*,#651,.F.);
#882=ORIENTED_EDGE('',*,*,#662,.T.);
#883=ORIENTED_EDGE('',*,*,#663,.T.);
#884=ORIENTED_EDGE('',*,*,#664,.T.);
#885=ORIENTED_EDGE('',*,*,#650,.T.);
#886=ORIENTED_EDGE('',*,*,#633,.T.);
#887=ORIENTED_EDGE('',*,*,#665,.T.);
#888=ORIENTED_EDGE('',*,*,#666,.T.);
#889=ORIENTED_EDGE('',*,*,#667,.T.);
#890=ORIENTED_EDGE('',*,*,#629,.T.);
#891=ORIENTED_EDGE('',*,*,#630,.F.);
#892=ORIENTED_EDGE('',*,*,#667,.F.);
#893=ORIENTED_EDGE('',*,*,#668,.F.);
#894=ORIENTED_EDGE('',*,*,#669,.F.);
#895=ORIENTED_EDGE('',*,*,#631,.F.);
#896=ORIENTED_EDGE('',*,*,#669,.T.);
#897=ORIENTED_EDGE('',*,*,#670,.F.);
#898=ORIENTED_EDGE('',*,*,#671,.T.);
#899=ORIENTED_EDGE('',*,*,#632,.F.);
#900=ORIENTED_EDGE('',*,*,#671,.F.);
#901=ORIENTED_EDGE('',*,*,#672,.F.);
#902=ORIENTED_EDGE('',*,*,#663,.F.);
#903=ORIENTED_EDGE('',*,*,#673,.T.);
#904=ORIENTED_EDGE('',*,*,#625,.T.);
#905=ORIENTED_EDGE('',*,*,#655,.T.);
#906=ORIENTED_EDGE('',*,*,#674,.T.);
#907=ORIENTED_EDGE('',*,*,#675,.T.);
#908=ORIENTED_EDGE('',*,*,#676,.T.);
#909=ORIENTED_EDGE('',*,*,#677,.T.);
#910=ORIENTED_EDGE('',*,*,#674,.F.);
#911=ORIENTED_EDGE('',*,*,#661,.F.);
#912=ORIENTED_EDGE('',*,*,#603,.F.);
#913=ORIENTED_EDGE('',*,*,#678,.T.);
#914=ORIENTED_EDGE('',*,*,#617,.T.);
#915=ORIENTED_EDGE('',*,*,#662,.F.);
#916=ORIENTED_EDGE('',*,*,#664,.F.);
#917=ORIENTED_EDGE('',*,*,#672,.T.);
#918=ORIENTED_EDGE('',*,*,#670,.T.);
#919=ORIENTED_EDGE('',*,*,#668,.T.);
#920=ORIENTED_EDGE('',*,*,#666,.F.);
#921=ORIENTED_EDGE('',*,*,#616,.T.);
#922=ORIENTED_EDGE('',*,*,#608,.T.);
#923=ORIENTED_EDGE('',*,*,#611,.T.);
#924=ORIENTED_EDGE('',*,*,#614,.T.);
#925=ORIENTED_EDGE('',*,*,#675,.F.);
#926=ORIENTED_EDGE('',*,*,#665,.F.);
#927=ORIENTED_EDGE('',*,*,#628,.F.);
#928=ORIENTED_EDGE('',*,*,#679,.F.);
#929=ORIENTED_EDGE('',*,*,#677,.F.);
#930=ORIENTED_EDGE('',*,*,#680,.F.);
#931=ORIENTED_EDGE('',*,*,#626,.F.);
#932=ORIENTED_EDGE('',*,*,#673,.F.);
#933=ORIENTED_EDGE('',*,*,#676,.F.);
#934=ORIENTED_EDGE('',*,*,#679,.T.);
#935=ORIENTED_EDGE('',*,*,#627,.F.);
#936=ORIENTED_EDGE('',*,*,#680,.T.);
#937=ORIENTED_EDGE('',*,*,#681,.F.);
#938=ORIENTED_EDGE('',*,*,#682,.T.);
#939=ORIENTED_EDGE('',*,*,#683,.T.);
#940=ORIENTED_EDGE('',*,*,#684,.T.);
#941=ORIENTED_EDGE('',*,*,#685,.F.);
#942=ORIENTED_EDGE('',*,*,#686,.F.);
#943=ORIENTED_EDGE('',*,*,#687,.F.);
#944=ORIENTED_EDGE('',*,*,#682,.F.);
#945=ORIENTED_EDGE('',*,*,#642,.T.);
#946=ORIENTED_EDGE('',*,*,#649,.T.);
#947=ORIENTED_EDGE('',*,*,#688,.F.);
#948=ORIENTED_EDGE('',*,*,#636,.T.);
#949=ORIENTED_EDGE('',*,*,#646,.T.);
#950=ORIENTED_EDGE('',*,*,#689,.T.);
#951=ORIENTED_EDGE('',*,*,#686,.T.);
#952=ORIENTED_EDGE('',*,*,#690,.F.);
#953=ORIENTED_EDGE('',*,*,#691,.T.);
#954=ORIENTED_EDGE('',*,*,#683,.F.);
#955=ORIENTED_EDGE('',*,*,#687,.T.);
#956=ORIENTED_EDGE('',*,*,#689,.F.);
#957=ORIENTED_EDGE('',*,*,#645,.T.);
#958=ORIENTED_EDGE('',*,*,#619,.T.);
#959=ORIENTED_EDGE('',*,*,#599,.T.);
#960=ORIENTED_EDGE('',*,*,#601,.T.);
#961=ORIENTED_EDGE('',*,*,#656,.T.);
#962=ORIENTED_EDGE('',*,*,#692,.F.);
#963=ORIENTED_EDGE('',*,*,#693,.T.);
#964=ORIENTED_EDGE('',*,*,#694,.F.);
#965=ORIENTED_EDGE('',*,*,#684,.F.);
#966=ORIENTED_EDGE('',*,*,#691,.F.);
#967=ORIENTED_EDGE('',*,*,#695,.F.);
#968=ORIENTED_EDGE('',*,*,#696,.F.);
#969=ORIENTED_EDGE('',*,*,#695,.T.);
#970=ORIENTED_EDGE('',*,*,#690,.T.);
#971=ORIENTED_EDGE('',*,*,#697,.T.);
#972=ORIENTED_EDGE('',*,*,#698,.F.);
#973=ORIENTED_EDGE('',*,*,#697,.F.);
#974=ORIENTED_EDGE('',*,*,#693,.F.);
#975=ORIENTED_EDGE('',*,*,#699,.F.);
#976=ORIENTED_EDGE('',*,*,#700,.F.);
#977=ORIENTED_EDGE('',*,*,#699,.T.);
#978=ORIENTED_EDGE('',*,*,#692,.T.);
#979=ORIENTED_EDGE('',*,*,#660,.F.);
#980=ORIENTED_EDGE('',*,*,#622,.T.);
#981=ORIENTED_EDGE('',*,*,#701,.F.);
#982=ORIENTED_EDGE('',*,*,#702,.F.);
#983=ORIENTED_EDGE('',*,*,#703,.F.);
#984=ORIENTED_EDGE('',*,*,#597,.F.);
#985=ORIENTED_EDGE('',*,*,#704,.F.);
#986=ORIENTED_EDGE('',*,*,#705,.F.);
#987=ORIENTED_EDGE('',*,*,#706,.F.);
#988=ORIENTED_EDGE('',*,*,#618,.F.);
#989=ORIENTED_EDGE('',*,*,#707,.F.);
#990=ORIENTED_EDGE('',*,*,#678,.F.);
#991=ORIENTED_EDGE('',*,*,#708,.F.);
#992=ORIENTED_EDGE('',*,*,#709,.F.);
#993=ORIENTED_EDGE('',*,*,#710,.F.);
#994=ORIENTED_EDGE('',*,*,#602,.F.);
#995=ORIENTED_EDGE('',*,*,#711,.F.);
#996=ORIENTED_EDGE('',*,*,#712,.F.);
#997=ORIENTED_EDGE('',*,*,#713,.F.);
#998=ORIENTED_EDGE('',*,*,#681,.T.);
#999=ORIENTED_EDGE('',*,*,#714,.F.);
#1000=ORIENTED_EDGE('',*,*,#701,.T.);
#1001=ORIENTED_EDGE('',*,*,#706,.T.);
#1002=ORIENTED_EDGE('',*,*,#713,.T.);
#1003=ORIENTED_EDGE('',*,*,#705,.T.);
#1004=ORIENTED_EDGE('',*,*,#715,.F.);
#1005=ORIENTED_EDGE('',*,*,#685,.T.);
#1006=ORIENTED_EDGE('',*,*,#715,.T.);
#1007=ORIENTED_EDGE('',*,*,#704,.T.);
#1008=ORIENTED_EDGE('',*,*,#707,.T.);
#1009=ORIENTED_EDGE('',*,*,#716,.F.);
#1010=ORIENTED_EDGE('',*,*,#688,.T.);
#1011=ORIENTED_EDGE('',*,*,#716,.T.);
#1012=ORIENTED_EDGE('',*,*,#709,.T.);
#1013=ORIENTED_EDGE('',*,*,#717,.F.);
#1014=ORIENTED_EDGE('',*,*,#621,.T.);
#1015=ORIENTED_EDGE('',*,*,#717,.T.);
#1016=ORIENTED_EDGE('',*,*,#708,.T.);
#1017=ORIENTED_EDGE('',*,*,#710,.T.);
#1018=ORIENTED_EDGE('',*,*,#718,.F.);
#1019=ORIENTED_EDGE('',*,*,#700,.T.);
#1020=ORIENTED_EDGE('',*,*,#718,.T.);
#1021=ORIENTED_EDGE('',*,*,#712,.T.);
#1022=ORIENTED_EDGE('',*,*,#719,.F.);
#1023=ORIENTED_EDGE('',*,*,#698,.T.);
#1024=ORIENTED_EDGE('',*,*,#719,.T.);
#1025=ORIENTED_EDGE('',*,*,#711,.T.);
#1026=ORIENTED_EDGE('',*,*,#703,.T.);
#1027=ORIENTED_EDGE('',*,*,#720,.F.);
#1028=ORIENTED_EDGE('',*,*,#696,.T.);
#1029=ORIENTED_EDGE('',*,*,#714,.T.);
#1030=ORIENTED_EDGE('',*,*,#694,.T.);
#1031=ORIENTED_EDGE('',*,*,#720,.T.);
#1032=ORIENTED_EDGE('',*,*,#702,.T.);
#1033=CYLINDRICAL_SURFACE('',#1136,1.40000000000001);
#1034=CYLINDRICAL_SURFACE('',#1140,1.4);
#1035=CYLINDRICAL_SURFACE('',#1144,0.75736);
#1036=CYLINDRICAL_SURFACE('',#1147,0.75736);
#1037=CYLINDRICAL_SURFACE('',#1149,0.75736);
#1038=CYLINDRICAL_SURFACE('',#1151,0.75736);
#1039=CYLINDRICAL_SURFACE('',#1155,3.);
#1040=CYLINDRICAL_SURFACE('',#1161,3.00000000000001);
#1041=CYLINDRICAL_SURFACE('',#1178,1.);
#1042=CYLINDRICAL_SURFACE('',#1181,3.);
#1043=CYLINDRICAL_SURFACE('',#1185,1.);
#1044=CYLINDRICAL_SURFACE('',#1192,3.);
#1045=CYLINDRICAL_SURFACE('',#1201,2.99999999999998);
#1046=CYLINDRICAL_SURFACE('',#1210,3.);
#1047=CYLINDRICAL_SURFACE('',#1211,5.);
#1048=CYLINDRICAL_SURFACE('',#1216,5.);
#1049=CYLINDRICAL_SURFACE('',#1223,5.);
#1050=CYLINDRICAL_SURFACE('',#1226,5.);
#1051=CYLINDRICAL_SURFACE('',#1243,0.75736);
#1052=CYLINDRICAL_SURFACE('',#1247,0.75736);
#1053=CYLINDRICAL_SURFACE('',#1251,0.75736);
#1054=CYLINDRICAL_SURFACE('',#1255,0.75736);
#1055=ADVANCED_FACE('',(#77),#1033,.T.);
#1056=ADVANCED_FACE('',(#78),#39,.F.);
#1057=ADVANCED_FACE('',(#79),#1034,.T.);
#1058=ADVANCED_FACE('',(#80),#40,.F.);
#1059=ADVANCED_FACE('',(#81),#1035,.T.);
#1060=ADVANCED_FACE('',(#82),#1036,.T.);
#1061=ADVANCED_FACE('',(#83),#1037,.T.);
#1062=ADVANCED_FACE('',(#84),#1038,.T.);
#1063=ADVANCED_FACE('',(#85),#41,.T.);
#1064=ADVANCED_FACE('',(#86),#42,.T.);
#1065=ADVANCED_FACE('',(#87),#43,.T.);
#1066=ADVANCED_FACE('',(#88),#1039,.T.);
#1067=ADVANCED_FACE('',(#89,#25),#44,.F.);
#1068=ADVANCED_FACE('',(#90,#26,#27),#45,.F.);
#1069=ADVANCED_FACE('',(#91),#1040,.T.);
#1070=ADVANCED_FACE('',(#92,#28),#46,.F.);
#1071=ADVANCED_FACE('',(#93),#47,.T.);
#1072=ADVANCED_FACE('',(#94),#48,.T.);
#1073=ADVANCED_FACE('',(#95),#49,.T.);
#1074=ADVANCED_FACE('',(#96),#50,.T.);
#1075=ADVANCED_FACE('',(#97),#19,.F.);
#1076=ADVANCED_FACE('',(#98),#51,.T.);
#1077=ADVANCED_FACE('',(#99),#20,.F.);
#1078=ADVANCED_FACE('',(#100),#52,.T.);
#1079=ADVANCED_FACE('',(#101),#53,.T.);
#1080=ADVANCED_FACE('',(#102,#29),#54,.T.);
#1081=ADVANCED_FACE('',(#103),#1041,.F.);
#1082=ADVANCED_FACE('',(#104),#1042,.T.);
#1083=ADVANCED_FACE('',(#105),#1043,.F.);
#1084=ADVANCED_FACE('',(#106,#30),#55,.F.);
#1085=ADVANCED_FACE('',(#107,#31),#56,.F.);
#1086=ADVANCED_FACE('',(#108),#1044,.T.);
#1087=ADVANCED_FACE('',(#109,#32),#57,.T.);
#1088=ADVANCED_FACE('',(#110),#58,.T.);
#1089=ADVANCED_FACE('',(#111),#59,.T.);
#1090=ADVANCED_FACE('',(#112),#60,.T.);
#1091=ADVANCED_FACE('',(#113),#61,.T.);
#1092=ADVANCED_FACE('',(#114),#62,.T.);
#1093=ADVANCED_FACE('',(#115),#1045,.F.);
#1094=ADVANCED_FACE('',(#116),#63,.F.);
#1095=ADVANCED_FACE('',(#117),#64,.T.);
#1096=ADVANCED_FACE('',(#118,#33),#65,.T.);
#1097=ADVANCED_FACE('',(#119),#66,.T.);
#1098=ADVANCED_FACE('',(#120),#67,.F.);
#1099=ADVANCED_FACE('',(#121),#1046,.F.);
#1100=ADVANCED_FACE('',(#122),#1047,.T.);
#1101=ADVANCED_FACE('',(#123),#68,.T.);
#1102=ADVANCED_FACE('',(#124,#34),#69,.T.);
#1103=ADVANCED_FACE('',(#125),#1048,.T.);
#1104=ADVANCED_FACE('',(#126),#70,.T.);
#1105=ADVANCED_FACE('',(#127),#71,.T.);
#1106=ADVANCED_FACE('',(#128),#1049,.T.);
#1107=ADVANCED_FACE('',(#129),#72,.T.);
#1108=ADVANCED_FACE('',(#130),#1050,.T.);
#1109=ADVANCED_FACE('',(#131),#73,.T.);
#1110=ADVANCED_FACE('',(#132),#74,.T.);
#1111=ADVANCED_FACE('',(#133),#75,.T.);
#1112=ADVANCED_FACE('',(#134),#76,.T.);
#1113=ADVANCED_FACE('',(#135),#13,.T.);
#1114=ADVANCED_FACE('',(#136),#1051,.T.);
#1115=ADVANCED_FACE('',(#137),#14,.T.);
#1116=ADVANCED_FACE('',(#138),#1052,.T.);
#1117=ADVANCED_FACE('',(#139),#15,.T.);
#1118=ADVANCED_FACE('',(#140),#1053,.T.);
#1119=ADVANCED_FACE('',(#141),#16,.T.);
#1120=ADVANCED_FACE('',(#142),#1054,.T.);
#1121=CLOSED_SHELL('',(#1055,#1056,#1057,#1058,#1059,#1060,#1061,#1062,
#1063,#1064,#1065,#1066,#1067,#1068,#1069,#1070,#1071,#1072));
#1122=CLOSED_SHELL('',(#1073,#1074,#1075,#1076,#1077,#1078,#1079,#1080,
#1081,#1082,#1083,#1084,#1085,#1086,#1087,#1088,#1089,#1090,#1091,#1092,
#1093,#1094,#1095,#1096,#1097,#1098,#1099,#1100,#1101,#1102,#1103,#1104,
#1105,#1106,#1107,#1108,#1109,#1110,#1111,#1112,#1113,#1114,#1115,#1116,
#1117,#1118,#1119,#1120));
#1123=DERIVED_UNIT_ELEMENT(#1125,1.);
#1124=DERIVED_UNIT_ELEMENT(#1944,-3.);
#1125=(
MASS_UNIT()
NAMED_UNIT(*)
SI_UNIT(.KILO.,.GRAM.)
);
#1126=DERIVED_UNIT((#1123,#1124));
#1127=MEASURE_REPRESENTATION_ITEM('density measure',
POSITIVE_RATIO_MEASURE(7850.),#1126);
#1128=PROPERTY_DEFINITION_REPRESENTATION(#1133,#1130);
#1129=PROPERTY_DEFINITION_REPRESENTATION(#1134,#1131);
#1130=REPRESENTATION('material name',(#1132),#1941);
#1131=REPRESENTATION('density',(#1127),#1941);
#1132=DESCRIPTIVE_REPRESENTATION_ITEM('Steel','Steel');
#1133=PROPERTY_DEFINITION('material property','material name',#1951);
#1134=PROPERTY_DEFINITION('material property','density of part',#1951);
#1135=AXIS2_PLACEMENT_3D('',#1598,#1256,#1257);
#1136=AXIS2_PLACEMENT_3D('',#1599,#1258,#1259);
#1137=AXIS2_PLACEMENT_3D('',#1601,#1260,#1261);
#1138=AXIS2_PLACEMENT_3D('',#1604,#1263,#1264);
#1139=AXIS2_PLACEMENT_3D('',#1605,#1265,#1266);
#1140=AXIS2_PLACEMENT_3D('',#1606,#1267,#1268);
#1141=AXIS2_PLACEMENT_3D('',#1608,#1269,#1270);
#1142=AXIS2_PLACEMENT_3D('',#1611,#1272,#1273);
#1143=AXIS2_PLACEMENT_3D('',#1612,#1274,#1275);
#1144=AXIS2_PLACEMENT_3D('',#1613,#1276,#1277);
#1145=AXIS2_PLACEMENT_3D('',#1618,#1279,#1280);
#1146=AXIS2_PLACEMENT_3D('',#1621,#1282,#1283);
#1147=AXIS2_PLACEMENT_3D('',#1622,#1284,#1285);
#1148=AXIS2_PLACEMENT_3D('',#1626,#1287,#1288);
#1149=AXIS2_PLACEMENT_3D('',#1628,#1290,#1291);
#1150=AXIS2_PLACEMENT_3D('',#1632,#1293,#1294);
#1151=AXIS2_PLACEMENT_3D('',#1634,#1296,#1297);
#1152=AXIS2_PLACEMENT_3D('',#1637,#1300,#1301);
#1153=AXIS2_PLACEMENT_3D('',#1643,#1305,#1306);
#1154=AXIS2_PLACEMENT_3D('',#1647,#1309,#1310);
#1155=AXIS2_PLACEMENT_3D('',#1648,#1311,#1312);
#1156=AXIS2_PLACEMENT_3D('',#1650,#1313,#1314);
#1157=AXIS2_PLACEMENT_3D('',#1653,#1316,#1317);
#1158=AXIS2_PLACEMENT_3D('',#1654,#1318,#1319);
#1159=AXIS2_PLACEMENT_3D('',#1655,#1320,#1321);
#1160=AXIS2_PLACEMENT_3D('',#1660,#1324,#1325);
#1161=AXIS2_PLACEMENT_3D('',#1661,#1326,#1327);
#1162=AXIS2_PLACEMENT_3D('',#1663,#1328,#1329);
#1163=AXIS2_PLACEMENT_3D('',#1665,#1331,#1332);
#1164=AXIS2_PLACEMENT_3D('',#1666,#1333,#1334);
#1165=AXIS2_PLACEMENT_3D('',#1668,#1336,#1337);
#1166=AXIS2_PLACEMENT_3D('',#1669,#1338,#1339);
#1167=AXIS2_PLACEMENT_3D('',#1678,#1344,#1345);
#1168=AXIS2_PLACEMENT_3D('',#1686,#1350,#1351);
#1169=AXIS2_PLACEMENT_3D('',#1691,#1353,#1354);
#1170=AXIS2_PLACEMENT_3D('',#1694,#1356,#1357);
#1171=AXIS2_PLACEMENT_3D('',#1695,#1358,#1359);
#1172=AXIS2_PLACEMENT_3D('',#1701,#1363,#1364);
#1173=AXIS2_PLACEMENT_3D('',#1703,#1365,#1366);
#1174=AXIS2_PLACEMENT_3D('',#1706,#1368,#1369);
#1175=AXIS2_PLACEMENT_3D('',#1707,#1370,#1371);
#1176=AXIS2_PLACEMENT_3D('',#1710,#1374,#1375);
#1177=AXIS2_PLACEMENT_3D('',#1718,#1380,#1381);
#1178=AXIS2_PLACEMENT_3D('',#1751,#1398,#1399);
#1179=AXIS2_PLACEMENT_3D('',#1753,#1400,#1401);
#1180=AXIS2_PLACEMENT_3D('',#1756,#1403,#1404);
#1181=AXIS2_PLACEMENT_3D('',#1757,#1405,#1406);
#1182=AXIS2_PLACEMENT_3D('',#1759,#1407,#1408);
#1183=AXIS2_PLACEMENT_3D('',#1762,#1410,#1411);
#1184=AXIS2_PLACEMENT_3D('',#1764,#1412,#1413);
#1185=AXIS2_PLACEMENT_3D('',#1780,#1416,#1417);
#1186=AXIS2_PLACEMENT_3D('',#1782,#1418,#1419);
#1187=AXIS2_PLACEMENT_3D('',#1785,#1421,#1422);
#1188=AXIS2_PLACEMENT_3D('',#1786,#1423,#1424);
#1189=AXIS2_PLACEMENT_3D('',#1790,#1427,#1428);
#1190=AXIS2_PLACEMENT_3D('',#1792,#1429,#1430);
#1191=AXIS2_PLACEMENT_3D('',#1794,#1431,#1432);
#1192=AXIS2_PLACEMENT_3D('',#1798,#1435,#1436);
#1193=AXIS2_PLACEMENT_3D('',#1804,#1440,#1441);
#1194=AXIS2_PLACEMENT_3D('',#1817,#1442,#1443);
#1195=AXIS2_PLACEMENT_3D('',#1818,#1444,#1445);
#1196=AXIS2_PLACEMENT_3D('',#1820,#1447,#1448);
#1197=AXIS2_PLACEMENT_3D('',#1822,#1450,#1451);
#1198=AXIS2_PLACEMENT_3D('',#1826,#1454,#1455);
#1199=AXIS2_PLACEMENT_3D('',#1832,#1459,#1460);
#1200=AXIS2_PLACEMENT_3D('',#1835,#1462,#1463);
#1201=AXIS2_PLACEMENT_3D('',#1836,#1464,#1465);
#1202=AXIS2_PLACEMENT_3D('',#1839,#1467,#1468);
#1203=AXIS2_PLACEMENT_3D('',#1840,#1469,#1470);
#1204=AXIS2_PLACEMENT_3D('',#1842,#1472,#1473);
#1205=AXIS2_PLACEMENT_3D('',#1846,#1476,#1477);
#1206=AXIS2_PLACEMENT_3D('',#1853,#1482,#1483);
#1207=AXIS2_PLACEMENT_3D('',#1854,#1484,#1485);
#1208=AXIS2_PLACEMENT_3D('',#1855,#1486,#1487);
#1209=AXIS2_PLACEMENT_3D('',#1856,#1488,#1489);
#1210=AXIS2_PLACEMENT_3D('',#1857,#1490,#1491);
#1211=AXIS2_PLACEMENT_3D('',#1858,#1492,#1493);
#1212=AXIS2_PLACEMENT_3D('',#1861,#1494,#1495);
#1213=AXIS2_PLACEMENT_3D('',#1865,#1497,#1498);
#1214=AXIS2_PLACEMENT_3D('',#1867,#1500,#1501);
#1215=AXIS2_PLACEMENT_3D('',#1873,#1505,#1506);
#1216=AXIS2_PLACEMENT_3D('',#1874,#1507,#1508);
#1217=AXIS2_PLACEMENT_3D('',#1875,#1509,#1510);
#1218=AXIS2_PLACEMENT_3D('',#1876,#1511,#1512);
#1219=AXIS2_PLACEMENT_3D('',#1877,#1513,#1514);
#1220=AXIS2_PLACEMENT_3D('',#1880,#1515,#1516);
#1221=AXIS2_PLACEMENT_3D('',#1883,#1518,#1519);
#1222=AXIS2_PLACEMENT_3D('',#1885,#1521,#1522);
#1223=AXIS2_PLACEMENT_3D('',#1889,#1525,#1526);
#1224=AXIS2_PLACEMENT_3D('',#1891,#1527,#1528);
#1225=AXIS2_PLACEMENT_3D('',#1893,#1530,#1531);
#1226=AXIS2_PLACEMENT_3D('',#1897,#1534,#1535);
#1227=AXIS2_PLACEMENT_3D('',#1898,#1536,#1537);
#1228=AXIS2_PLACEMENT_3D('',#1899,#1538,#1539);
#1229=AXIS2_PLACEMENT_3D('',#1901,#1540,#1541);
#1230=AXIS2_PLACEMENT_3D('',#1904,#1543,#1544);
#1231=AXIS2_PLACEMENT_3D('',#1905,#1545,#1546);
#1232=AXIS2_PLACEMENT_3D('',#1907,#1547,#1548);
#1233=AXIS2_PLACEMENT_3D('',#1910,#1550,#1551);
#1234=AXIS2_PLACEMENT_3D('',#1911,#1552,#1553);
#1235=AXIS2_PLACEMENT_3D('',#1913,#1554,#1555);
#1236=AXIS2_PLACEMENT_3D('',#1915,#1556,#1557);
#1237=AXIS2_PLACEMENT_3D('',#1917,#1559,#1560);
#1238=AXIS2_PLACEMENT_3D('',#1919,#1561,#1562);
#1239=AXIS2_PLACEMENT_3D('',#1921,#1563,#1564);
#1240=AXIS2_PLACEMENT_3D('',#1923,#1566,#1567);
#1241=AXIS2_PLACEMENT_3D('',#1924,#1568,#1569);
#1242=AXIS2_PLACEMENT_3D('',#1925,#1570,#1571);
#1243=AXIS2_PLACEMENT_3D('',#1926,#1572,#1573);
#1244=AXIS2_PLACEMENT_3D('',#1927,#1574,#1575);
#1245=AXIS2_PLACEMENT_3D('',#1928,#1576,#1577);
#1246=AXIS2_PLACEMENT_3D('',#1929,#1578,#1579);
#1247=AXIS2_PLACEMENT_3D('',#1930,#1580,#1581);
#1248=AXIS2_PLACEMENT_3D('',#1931,#1582,#1583);
#1249=AXIS2_PLACEMENT_3D('',#1932,#1584,#1585);
#1250=AXIS2_PLACEMENT_3D('',#1933,#1586,#1587);
#1251=AXIS2_PLACEMENT_3D('',#1934,#1588,#1589);
#1252=AXIS2_PLACEMENT_3D('',#1935,#1590,#1591);
#1253=AXIS2_PLACEMENT_3D('',#1936,#1592,#1593);
#1254=AXIS2_PLACEMENT_3D('',#1937,#1594,#1595);
#1255=AXIS2_PLACEMENT_3D('',#1938,#1596,#1597);
#1256=DIRECTION('axis',(0.,0.,1.));
#1257=DIRECTION('refdir',(1.,0.,0.));
#1258=DIRECTION('center_axis',(0.,0.,1.));
#1259=DIRECTION('ref_axis',(1.,0.,0.));
#1260=DIRECTION('center_axis',(0.,0.,1.));
#1261=DIRECTION('ref_axis',(1.,0.,0.));
#1262=DIRECTION('',(0.,0.,-1.));
#1263=DIRECTION('center_axis',(0.,0.,-1.));
#1264=DIRECTION('ref_axis',(1.,0.,0.));
#1265=DIRECTION('center_axis',(0.,0.,-1.));
#1266=DIRECTION('ref_axis',(1.,0.,0.));
#1267=DIRECTION('center_axis',(0.,0.,1.));
#1268=DIRECTION('ref_axis',(1.,0.,0.));
#1269=DIRECTION('center_axis',(0.,0.,1.));
#1270=DIRECTION('ref_axis',(1.,0.,0.));
#1271=DIRECTION('',(0.,0.,-1.));
#1272=DIRECTION('center_axis',(0.,0.,-1.));
#1273=DIRECTION('ref_axis',(1.,0.,0.));
#1274=DIRECTION('center_axis',(0.,0.,-1.));
#1275=DIRECTION('ref_axis',(1.,0.,0.));
#1276=DIRECTION('center_axis',(1.,4.9822091193141E-17,0.));
#1277=DIRECTION('ref_axis',(0.,0.707106781186548,-0.707106781186548));
#1278=DIRECTION('',(-1.,-4.9822091193141E-17,0.));
#1279=DIRECTION('center_axis',(0.707106781186548,0.707106781186548,-8.29244987157375E-15));
#1280=DIRECTION('ref_axis',(-0.707106781186547,0.707106781186547,-8.29244987157375E-15));
#1281=DIRECTION('',(1.,4.9822091193141E-17,0.));
#1282=DIRECTION('center_axis',(0.707106781186554,-0.707106781186541,0.));
#1283=DIRECTION('ref_axis',(0.707106781186541,0.707106781186554,0.));
#1284=DIRECTION('center_axis',(3.15572364434225E-16,1.,0.));
#1285=DIRECTION('ref_axis',(-0.707106781186543,0.,-0.707106781186552));
#1286=DIRECTION('',(-3.15572364434225E-16,-1.,0.));
#1287=DIRECTION('center_axis',(-0.707106781186543,0.707106781186552,8.2924498715737E-15));
#1288=DIRECTION('ref_axis',(-0.707106781186552,-0.707106781186543,8.29244987157379E-15));
#1289=DIRECTION('',(3.15572364434225E-16,1.,0.));
#1290=DIRECTION('center_axis',(-1.,0.,0.));
#1291=DIRECTION('ref_axis',(0.,-0.707106781186543,-0.707106781186552));
#1292=DIRECTION('',(1.,0.,0.));
#1293=DIRECTION('center_axis',(-0.707106781186548,-0.707106781186548,0.));
#1294=DIRECTION('ref_axis',(0.707106781186547,-0.707106781186547,0.));
#1295=DIRECTION('',(-1.,0.,0.));
#1296=DIRECTION('center_axis',(0.,-1.,0.));
#1297=DIRECTION('ref_axis',(0.707106781186543,0.,-0.707106781186552));
#1298=DIRECTION('',(0.,-1.,0.));
#1299=DIRECTION('',(0.,1.,0.));
#1300=DIRECTION('center_axis',(1.,0.,0.));
#1301=DIRECTION('ref_axis',(0.,-1.,0.));
#1302=DIRECTION('',(0.,0.,-1.));
#1303=DIRECTION('',(0.,-1.,0.));
#1304=DIRECTION('',(0.,0.,-1.));
#1305=DIRECTION('center_axis',(-4.9822091193141E-17,1.,0.));
#1306=DIRECTION('ref_axis',(1.,4.9822091193141E-17,0.));
#1307=DIRECTION('',(0.,0.,-1.));
#1308=DIRECTION('',(1.,4.9822091193141E-17,0.));
#1309=DIRECTION('center_axis',(0.,0.,-1.));
#1310=DIRECTION('ref_axis',(-1.,0.,0.));
#1311=DIRECTION('center_axis',(0.,0.,1.));
#1312=DIRECTION('ref_axis',(1.,0.,0.));
#1313=DIRECTION('center_axis',(0.,0.,1.));
#1314=DIRECTION('ref_axis',(1.,0.,0.));
#1315=DIRECTION('',(0.,0.,-1.));
#1316=DIRECTION('center_axis',(0.,0.,-1.));
#1317=DIRECTION('ref_axis',(1.,0.,0.));
#1318=DIRECTION('center_axis',(0.,0.,-1.));
#1319=DIRECTION('ref_axis',(-1.,0.,0.));
#1320=DIRECTION('center_axis',(0.,0.,-1.));
#1321=DIRECTION('ref_axis',(1.,0.,0.));
#1322=DIRECTION('',(3.15572364434225E-16,1.,0.));
#1323=DIRECTION('',(-1.,0.,0.));
#1324=DIRECTION('center_axis',(0.,0.,-1.));
#1325=DIRECTION('ref_axis',(1.,0.,0.));
#1326=DIRECTION('center_axis',(0.,0.,1.));
#1327=DIRECTION('ref_axis',(1.,0.,0.));
#1328=DIRECTION('center_axis',(0.,0.,1.));
#1329=DIRECTION('ref_axis',(1.,0.,0.));
#1330=DIRECTION('',(0.,0.,-1.));
#1331=DIRECTION('center_axis',(0.,0.,-1.));
#1332=DIRECTION('ref_axis',(-1.,0.,0.));
#1333=DIRECTION('center_axis',(-1.,3.15572364434225E-16,0.));
#1334=DIRECTION('ref_axis',(3.15572364434225E-16,1.,0.));
#1335=DIRECTION('',(0.,0.,-1.));
#1336=DIRECTION('center_axis',(0.,-1.,0.));
#1337=DIRECTION('ref_axis',(-1.,0.,0.));
#1338=DIRECTION('center_axis',(0.,1.,0.));
#1339=DIRECTION('ref_axis',(-1.,0.,0.));
#1340=DIRECTION('',(-1.,0.,0.));
#1341=DIRECTION('',(0.,0.,1.));
#1342=DIRECTION('',(-1.,0.,0.));
#1343=DIRECTION('',(0.,0.,1.));
#1344=DIRECTION('center_axis',(1.,-3.15572364434225E-16,0.));
#1345=DIRECTION('ref_axis',(3.15572364434225E-16,1.,0.));
#1346=DIRECTION('',(3.15572364434225E-16,1.,0.));
#1347=DIRECTION('',(3.15572364434225E-16,1.,0.));
#1348=DIRECTION('',(0.,0.,1.));
#1349=DIRECTION('',(3.15572364434225E-16,1.,0.));
#1350=DIRECTION('center_axis',(0.,1.,0.));
#1351=DIRECTION('ref_axis',(0.,0.,-1.));
#1352=DIRECTION('',(0.,-0.707106781186549,0.707106781186546));
#1353=DIRECTION('center_axis',(-4.8728722208818E-17,1.,0.));
#1354=DIRECTION('ref_axis',(0.,0.,-1.));
#1355=DIRECTION('',(0.,0.707106781186548,0.707106781186547));
#1356=DIRECTION('center_axis',(-4.9822091193141E-17,1.,0.));
#1357=DIRECTION('ref_axis',(0.,0.,-1.));
#1358=DIRECTION('center_axis',(-3.44564099124107E-17,0.707106781186547,
-0.707106781186548));
#1359=DIRECTION('ref_axis',(-1.,0.,4.87287222088179E-17));
#1360=DIRECTION('',(1.,4.8728722208818E-17,0.));
#1361=DIRECTION('',(0.,0.70710678118655,0.707106781186545));
#1362=DIRECTION('',(1.,4.9822091193141E-17,0.));
#1363=DIRECTION('center_axis',(0.,1.,0.));
#1364=DIRECTION('ref_axis',(0.,0.,1.));
#1365=DIRECTION('center_axis',(-4.8728722208818E-17,1.,0.));
#1366=DIRECTION('ref_axis',(0.,0.,1.));
#1367=DIRECTION('',(0.,0.707106781186549,-0.707106781186546));
#1368=DIRECTION('center_axis',(-4.9822091193141E-17,1.,0.));
#1369=DIRECTION('ref_axis',(0.,0.,1.));
#1370=DIRECTION('center_axis',(-3.44564099124107E-17,0.707106781186546,
0.707106781186549));
#1371=DIRECTION('ref_axis',(1.,0.,4.87287222088178E-17));
#1372=DIRECTION('',(-1.,-4.8728722208818E-17,0.));
#1373=DIRECTION('',(-1.,-4.9822091193141E-17,0.));
#1374=DIRECTION('center_axis',(-1.,0.,0.));
#1375=DIRECTION('ref_axis',(0.,-1.,0.));
#1376=DIRECTION('',(-4.30824819470888E-17,-2.14645934439471E-33,1.));
#1377=DIRECTION('',(0.,-1.,0.));
#1378=DIRECTION('',(0.,-1.,0.));
#1379=DIRECTION('',(0.,-1.,0.));
#1380=DIRECTION('center_axis',(-4.8728722208818E-17,1.,0.));
#1381=DIRECTION('ref_axis',(-1.,-4.8728722208818E-17,0.));
#1382=DIRECTION('',(1.,4.8728722208818E-17,0.));
#1383=DIRECTION('',(0.,0.,-1.));
#1384=DIRECTION('',(1.,8.88178419700125E-16,0.));
#1385=DIRECTION('',(-4.30824819470888E-17,-2.0993542948661E-33,1.));
#1386=DIRECTION('',(-1.,-4.8728722208818E-17,0.));
#1387=DIRECTION('',(4.30824819470888E-17,2.0993542948661E-33,-1.));
#1388=DIRECTION('',(1.,8.88178419700125E-16,0.));
#1389=DIRECTION('',(-4.30824819470888E-17,-2.0993542948661E-33,1.));
#1390=DIRECTION('',(-1.,-4.8728722208818E-17,0.));
#1391=DIRECTION('',(4.30824819470888E-17,2.0993542948661E-33,-1.));
#1392=DIRECTION('',(1.,8.88178419700125E-16,0.));
#1393=DIRECTION('',(-4.30824819470888E-17,-2.0993542948661E-33,1.));
#1394=DIRECTION('',(-1.,-4.8728722208818E-17,0.));
#1395=DIRECTION('',(4.30824819470888E-17,2.0993542948661E-33,-1.));
#1396=DIRECTION('',(1.,8.88178419700125E-16,0.));
#1397=DIRECTION('',(0.,0.,1.));
#1398=DIRECTION('center_axis',(1.,8.88178419700125E-16,0.));
#1399=DIRECTION('ref_axis',(8.88178419700125E-16,-1.,-7.03219246172988E-17));
#1400=DIRECTION('center_axis',(-1.,-8.32667268468868E-16,-4.30824819470888E-17));
#1401=DIRECTION('ref_axis',(8.32667268468868E-16,-1.,-7.03219246172988E-17));
#1402=DIRECTION('',(-1.,-8.88178419700125E-16,0.));
#1403=DIRECTION('center_axis',(1.,8.32667268468868E-16,4.30824819470888E-17));
#1404=DIRECTION('ref_axis',(8.32667268468868E-16,-1.,-7.03219246172988E-17));
#1405=DIRECTION('center_axis',(-1.,-8.88178419700125E-16,0.));
#1406=DIRECTION('ref_axis',(-8.88178419700125E-16,1.,7.03219246172988E-17));
#1407=DIRECTION('center_axis',(-1.,-8.32667268468868E-16,-4.30824819470888E-17));
#1408=DIRECTION('ref_axis',(-8.32667268468868E-16,1.,7.03219246172988E-17));
#1409=DIRECTION('',(1.,8.88178419700125E-16,0.));
#1410=DIRECTION('center_axis',(1.,8.32667268468868E-16,4.30824819470888E-17));
#1411=DIRECTION('ref_axis',(-8.32667268468868E-16,1.,7.03219246172988E-17));
#1412=DIRECTION('center_axis',(-1.,-8.32667268468868E-16,-4.30824819470888E-17));
#1413=DIRECTION('ref_axis',(-8.32667268468868E-16,1.,7.03219246172988E-17));
#1414=DIRECTION('',(-1.,0.,-1.31006316905768E-14));
#1415=DIRECTION('',(-1.,0.,-1.31006316905769E-14));
#1416=DIRECTION('center_axis',(-1.,-8.88178419700125E-16,0.));
#1417=DIRECTION('ref_axis',(-8.88178419700125E-16,1.,7.03219246172988E-17));
#1418=DIRECTION('center_axis',(1.,8.32667268468868E-16,4.30824819470888E-17));
#1419=DIRECTION('ref_axis',(-8.32667268468868E-16,1.,7.03219246172988E-17));
#1420=DIRECTION('',(1.,8.88178419700125E-16,0.));
#1421=DIRECTION('center_axis',(-1.,-8.32667268468868E-16,-4.30824819470888E-17));
#1422=DIRECTION('ref_axis',(-8.32667268468868E-16,1.,7.03219246172988E-17));
#1423=DIRECTION('center_axis',(1.,8.32667268468868E-16,4.30824819470888E-17));
#1424=DIRECTION('ref_axis',(-8.32667268468868E-16,1.,7.03219246172988E-17));
#1425=DIRECTION('',(-1.97215226305253E-31,1.,0.));
#1426=DIRECTION('',(9.86076131526265E-32,-1.,5.86424965788784E-18));
#1427=DIRECTION('center_axis',(-1.,-8.32667268468868E-16,-4.30824819470888E-17));
#1428=DIRECTION('ref_axis',(8.32667268468868E-16,-1.,-7.03219246172988E-17));
#1429=DIRECTION('center_axis',(1.,8.32667268468868E-16,4.30824819470888E-17));
#1430=DIRECTION('ref_axis',(8.32667268468868E-16,-1.,-7.03219246172988E-17));
#1431=DIRECTION('center_axis',(1.,8.32667268468868E-16,4.30824819470888E-17));
#1432=DIRECTION('ref_axis',(8.32667268468868E-16,-1.,-7.03219246172988E-17));
#1433=DIRECTION('',(0.,1.,-5.86424965788784E-18));
#1434=DIRECTION('',(7.39105883463522E-19,-1.,0.));
#1435=DIRECTION('center_axis',(1.,8.88178419700125E-16,0.));
#1436=DIRECTION('ref_axis',(8.88178419700125E-16,-1.,-7.03219246172988E-17));
#1437=DIRECTION('',(-1.,0.,-4.44089209850063E-16));
#1438=DIRECTION('',(1.,0.,4.44089209850063E-16));
#1439=DIRECTION('',(-1.,-8.88178419700125E-16,0.));
#1440=DIRECTION('center_axis',(1.,-2.2855852282556E-16,0.));
#1441=DIRECTION('ref_axis',(8.88178419700125E-16,-1.,-7.03219246172988E-17));
#1442=DIRECTION('center_axis',(-1.,2.2855852282556E-16,0.));
#1443=DIRECTION('ref_axis',(-2.2855852282556E-16,-1.,0.));
#1444=DIRECTION('center_axis',(4.44089209850063E-16,-5.86424965788784E-18,
-1.));
#1445=DIRECTION('ref_axis',(0.,1.,-5.86424965788784E-18));
#1446=DIRECTION('',(1.,4.9822091193141E-17,0.));
#1447=DIRECTION('center_axis',(1.31006316905768E-14,-5.86424965788784E-18,
-1.));
#1448=DIRECTION('ref_axis',(9.86076131526265E-32,-1.,5.86424965788784E-18));
#1449=DIRECTION('',(1.,4.9822091193141E-17,0.));
#1450=DIRECTION('center_axis',(0.,0.,1.));
#1451=DIRECTION('ref_axis',(1.,0.,0.));
#1452=DIRECTION('',(8.32667268468868E-16,-1.,0.));
#1453=DIRECTION('',(1.,4.9822091193141E-17,0.));
#1454=DIRECTION('center_axis',(0.,0.,1.));
#1455=DIRECTION('ref_axis',(1.,0.,0.));
#1456=DIRECTION('',(8.32667268468868E-16,-1.,0.));
#1457=DIRECTION('',(1.,4.9822091193141E-17,0.));
#1458=DIRECTION('',(-8.32667268468868E-16,1.,0.));
#1459=DIRECTION('center_axis',(1.,8.32667268468868E-16,4.30824819470888E-17));
#1460=DIRECTION('ref_axis',(-8.32667268468868E-16,1.,7.03219246172988E-17));
#1461=DIRECTION('',(-4.30824819470888E-17,-2.14645934439471E-33,1.));
#1462=DIRECTION('center_axis',(-1.,-8.32667268468868E-16,-4.30824819470888E-17));
#1463=DIRECTION('ref_axis',(2.96679840490578E-16,-0.307059822895972,-0.951690214914021));
#1464=DIRECTION('center_axis',(-1.,-8.88178419700125E-16,0.));
#1465=DIRECTION('ref_axis',(2.72723908253145E-16,-0.307059822895972,-0.951690214914021));
#1466=DIRECTION('',(-1.,-8.88178419700125E-16,0.));
#1467=DIRECTION('center_axis',(1.,8.32667268468868E-16,4.30824819470888E-17));
#1468=DIRECTION('ref_axis',(2.96679840490578E-16,-0.307059822895972,-0.951690214914021));
#1469=DIRECTION('center_axis',(1.,8.32667268468868E-16,4.30824819470888E-17));
#1470=DIRECTION('ref_axis',(-8.32667268468868E-16,1.,7.03219246172988E-17));
#1471=DIRECTION('',(4.30824819470888E-17,2.14645934439471E-33,-1.));
#1472=DIRECTION('center_axis',(0.,0.,1.));
#1473=DIRECTION('ref_axis',(1.,0.,0.));
#1474=DIRECTION('',(-8.32667268468868E-16,1.,0.));
#1475=DIRECTION('',(1.,4.9822091193141E-17,0.));
#1476=DIRECTION('center_axis',(4.9822091193141E-17,-1.,0.));
#1477=DIRECTION('ref_axis',(1.,4.9822091193141E-17,0.));
#1478=DIRECTION('',(4.30824819470888E-17,2.14645934439471E-33,-1.));
#1479=DIRECTION('',(-1.,-8.88178419700125E-16,0.));
#1480=DIRECTION('',(-4.30824819470888E-17,-2.14645934439471E-33,1.));
#1481=DIRECTION('',(1.,4.9822091193141E-17,0.));
#1482=DIRECTION('center_axis',(-1.,-8.32667268468868E-16,-4.30824819470888E-17));
#1483=DIRECTION('ref_axis',(8.32667268468868E-16,-1.,-7.03219246172988E-17));
#1484=DIRECTION('center_axis',(1.,8.32667268468868E-16,4.30824819470888E-17));
#1485=DIRECTION('ref_axis',(8.32667268468868E-16,-1.,-7.03219246172988E-17));
#1486=DIRECTION('center_axis',(-1.,-8.32667268468868E-16,-4.30824819470888E-17));
#1487=DIRECTION('ref_axis',(8.32667268468868E-16,-1.,-7.03219246172988E-17));
#1488=DIRECTION('center_axis',(-1.,-8.32667268468868E-16,-4.30824819470888E-17));
#1489=DIRECTION('ref_axis',(8.32667268468868E-16,-1.,-7.03219246172988E-17));
#1490=DIRECTION('center_axis',(1.,8.88178419700125E-16,0.));
#1491=DIRECTION('ref_axis',(8.88178419700125E-16,-1.,-7.03219246172988E-17));
#1492=DIRECTION('center_axis',(0.,0.,1.));
#1493=DIRECTION('ref_axis',(0.707106781186547,-0.707106781186547,0.));
#1494=DIRECTION('center_axis',(0.,0.,-1.));
#1495=DIRECTION('ref_axis',(0.707106781186547,-0.707106781186547,0.));
#1496=DIRECTION('',(0.,0.,1.));
#1497=DIRECTION('center_axis',(0.,0.,-1.));
#1498=DIRECTION('ref_axis',(0.707106781186547,-0.707106781186547,0.));
#1499=DIRECTION('',(0.,0.,-1.));
#1500=DIRECTION('center_axis',(1.,0.,0.));
#1501=DIRECTION('ref_axis',(0.,1.,0.));
#1502=DIRECTION('',(0.,-1.,0.));
#1503=DIRECTION('',(0.,0.,-1.));
#1504=DIRECTION('',(0.,1.,0.));
#1505=DIRECTION('center_axis',(1.,0.,0.));
#1506=DIRECTION('ref_axis',(0.,1.,0.));
#1507=DIRECTION('center_axis',(0.,0.,1.));
#1508=DIRECTION('ref_axis',(0.707106781186547,0.707106781186547,0.));
#1509=DIRECTION('center_axis',(0.,0.,-1.));
#1510=DIRECTION('ref_axis',(0.707106781186547,0.707106781186548,0.));
#1511=DIRECTION('center_axis',(0.,0.,-1.));
#1512=DIRECTION('ref_axis',(0.707106781186547,0.707106781186547,0.));
#1513=DIRECTION('center_axis',(0.,0.,1.));
#1514=DIRECTION('ref_axis',(1.,0.,0.));
#1515=DIRECTION('center_axis',(0.,0.,-1.));
#1516=DIRECTION('ref_axis',(-0.707106781186549,-0.707106781186546,0.));
#1517=DIRECTION('',(1.,0.,0.));
#1518=DIRECTION('center_axis',(0.,0.,-1.));
#1519=DIRECTION('ref_axis',(-0.707106781186547,0.707106781186547,0.));
#1520=DIRECTION('',(-2.2855852282556E-16,-1.,0.));
#1521=DIRECTION('center_axis',(0.,-1.,0.));
#1522=DIRECTION('ref_axis',(1.,0.,0.));
#1523=DIRECTION('',(-1.,0.,0.));
#1524=DIRECTION('',(0.,0.,1.));
#1525=DIRECTION('center_axis',(0.,0.,1.));
#1526=DIRECTION('ref_axis',(-0.707106781186549,-0.707106781186546,0.));
#1527=DIRECTION('center_axis',(0.,0.,-1.));
#1528=DIRECTION('ref_axis',(-0.707106781186548,-0.707106781186547,0.));
#1529=DIRECTION('',(0.,0.,-1.));
#1530=DIRECTION('center_axis',(-1.,2.2855852282556E-16,0.));
#1531=DIRECTION('ref_axis',(-2.2855852282556E-16,-1.,0.));
#1532=DIRECTION('',(2.2855852282556E-16,1.,0.));
#1533=DIRECTION('',(0.,0.,1.));
#1534=DIRECTION('center_axis',(0.,0.,1.));
#1535=DIRECTION('ref_axis',(-0.707106781186547,0.707106781186547,0.));
#1536=DIRECTION('center_axis',(0.,0.,-1.));
#1537=DIRECTION('ref_axis',(-0.707106781186547,0.707106781186548,0.));
#1538=DIRECTION('center_axis',(0.,0.,-1.));
#1539=DIRECTION('ref_axis',(1.,0.,0.));
#1540=DIRECTION('center_axis',(0.,0.,1.));
#1541=DIRECTION('ref_axis',(0.707106781186548,-0.707106781186548,0.));
#1542=DIRECTION('',(1.,0.,0.));
#1543=DIRECTION('center_axis',(0.,0.,1.));
#1544=DIRECTION('ref_axis',(-0.707106781186549,-0.707106781186547,0.));
#1545=DIRECTION('center_axis',(0.,0.,-1.));
#1546=DIRECTION('ref_axis',(1.,0.,0.));
#1547=DIRECTION('center_axis',(0.,0.,1.));
#1548=DIRECTION('ref_axis',(0.707106781186547,0.707106781186549,0.));
#1549=DIRECTION('',(0.,1.,0.));
#1550=DIRECTION('center_axis',(0.,0.,1.));
#1551=DIRECTION('ref_axis',(0.707106781186548,-0.707106781186548,0.));
#1552=DIRECTION('center_axis',(0.,0.,-1.));
#1553=DIRECTION('ref_axis',(1.,0.,0.));
#1554=DIRECTION('center_axis',(0.,0.,1.));
#1555=DIRECTION('ref_axis',(0.707106781186547,0.707106781186549,0.));
#1556=DIRECTION('center_axis',(0.,0.,1.));
#1557=DIRECTION('ref_axis',(-0.707106781186547,0.707106781186548,0.));
#1558=DIRECTION('',(-1.,-4.8728722208818E-17,0.));
#1559=DIRECTION('center_axis',(0.,0.,-1.));
#1560=DIRECTION('ref_axis',(1.,0.,0.));
#1561=DIRECTION('center_axis',(0.,0.,1.));
#1562=DIRECTION('ref_axis',(-0.707106781186547,0.707106781186548,0.));
#1563=DIRECTION('center_axis',(0.,0.,1.));
#1564=DIRECTION('ref_axis',(-0.707106781186549,-0.707106781186547,0.));
#1565=DIRECTION('',(-2.2855852282556E-16,-1.,0.));
#1566=DIRECTION('center_axis',(0.,0.,1.));
#1567=DIRECTION('ref_axis',(1.,0.,0.));
#1568=DIRECTION('center_axis',(0.,1.,0.));
#1569=DIRECTION('ref_axis',(1.,0.,0.));
#1570=DIRECTION('center_axis',(-1.,0.,0.));
#1571=DIRECTION('ref_axis',(0.,0.,-1.));
#1572=DIRECTION('center_axis',(0.,-1.,0.));
#1573=DIRECTION('ref_axis',(0.707106781186543,0.,-0.707106781186552));
#1574=DIRECTION('center_axis',(0.,1.,0.));
#1575=DIRECTION('ref_axis',(1.,0.,0.));
#1576=DIRECTION('center_axis',(0.,0.,1.));
#1577=DIRECTION('ref_axis',(1.,0.,0.));
#1578=DIRECTION('center_axis',(-1.,0.,0.));
#1579=DIRECTION('ref_axis',(0.,1.,0.));
#1580=DIRECTION('center_axis',(1.,4.8728722208818E-17,0.));
#1581=DIRECTION('ref_axis',(0.,0.707106781186548,-0.707106781186548));
#1582=DIRECTION('center_axis',(-1.,0.,0.));
#1583=DIRECTION('ref_axis',(0.,1.,0.));
#1584=DIRECTION('center_axis',(0.,0.,1.));
#1585=DIRECTION('ref_axis',(1.,0.,0.));
#1586=DIRECTION('center_axis',(0.,-1.,0.));
#1587=DIRECTION('ref_axis',(-1.,0.,0.));
#1588=DIRECTION('center_axis',(2.2855852282556E-16,1.,0.));
#1589=DIRECTION('ref_axis',(-0.707106781186552,0.,-0.707106781186543));
#1590=DIRECTION('center_axis',(0.,-1.,0.));
#1591=DIRECTION('ref_axis',(-1.,0.,0.));
#1592=DIRECTION('center_axis',(0.,0.,1.));
#1593=DIRECTION('ref_axis',(1.,0.,0.));
#1594=DIRECTION('center_axis',(1.,0.,0.));
#1595=DIRECTION('ref_axis',(0.,-1.,0.));
#1596=DIRECTION('center_axis',(-1.,0.,0.));
#1597=DIRECTION('ref_axis',(0.,-0.707106781186543,-0.707106781186552));
#1598=CARTESIAN_POINT('',(0.,0.,0.));
#1599=CARTESIAN_POINT('Origin',(231.61,-134.8,4.95));
#1600=CARTESIAN_POINT('',(230.21,-134.8,19.95));
#1601=CARTESIAN_POINT('Origin',(231.61,-134.8,19.95));
#1602=CARTESIAN_POINT('',(230.21,-134.8,11.95));
#1603=CARTESIAN_POINT('',(230.21,-134.8,4.95));
#1604=CARTESIAN_POINT('Origin',(231.61,-134.8,11.95));
#1605=CARTESIAN_POINT('Origin',(153.475,-89.51,19.95));
#1606=CARTESIAN_POINT('Origin',(75.34,-44.22,4.95));
#1607=CARTESIAN_POINT('',(73.94,-44.22,19.95));
#1608=CARTESIAN_POINT('Origin',(75.34,-44.22,19.95));
#1609=CARTESIAN_POINT('',(73.94,-44.22,11.95));
#1610=CARTESIAN_POINT('',(73.94,-44.22,4.95));
#1611=CARTESIAN_POINT('Origin',(75.34,-44.22,11.95));
#1612=CARTESIAN_POINT('Origin',(153.475,-89.51,19.95));
#1613=CARTESIAN_POINT('Origin',(108.9075,-33.97736,3.70736));
#1614=CARTESIAN_POINT('',(241.85264,-33.97736,2.95));
#1615=CARTESIAN_POINT('',(65.09736,-33.97736,2.95));
#1616=CARTESIAN_POINT('',(108.9075,-33.97736,2.95));
#1617=CARTESIAN_POINT('',(64.34,-33.22,3.70736));
#1618=CARTESIAN_POINT('Origin',(65.09736,-33.97736,3.70736));
#1619=CARTESIAN_POINT('',(242.61,-33.22,3.70736));
#1620=CARTESIAN_POINT('',(108.9075,-33.22,3.70736));
#1621=CARTESIAN_POINT('Origin',(241.85264,-33.97736,3.70736));
#1622=CARTESIAN_POINT('Origin',(65.09736,-117.655,3.70736));
#1623=CARTESIAN_POINT('',(65.09736,-145.04264,2.95));
#1624=CARTESIAN_POINT('',(65.09736,-117.655,2.95));
#1625=CARTESIAN_POINT('',(64.34,-145.8,3.70736));
#1626=CARTESIAN_POINT('Origin',(65.09736,-145.04264,3.70736));
#1627=CARTESIAN_POINT('',(64.34,-117.655,3.70736));
#1628=CARTESIAN_POINT('Origin',(198.0425,-145.04264,3.70736));
#1629=CARTESIAN_POINT('',(241.85264,-145.04264,2.95));
#1630=CARTESIAN_POINT('',(198.0425,-145.04264,2.95));
#1631=CARTESIAN_POINT('',(242.61,-145.8,3.70736));
#1632=CARTESIAN_POINT('Origin',(241.85264,-145.04264,3.70736));
#1633=CARTESIAN_POINT('',(198.0425,-145.8,3.70736));
#1634=CARTESIAN_POINT('Origin',(241.85264,-61.365,3.70736));
#1635=CARTESIAN_POINT('',(242.61,-61.365,3.70736));
#1636=CARTESIAN_POINT('',(241.85264,-61.365,2.95));
#1637=CARTESIAN_POINT('Origin',(242.61,-33.22,4.95));
#1638=CARTESIAN_POINT('',(242.61,-33.22,4.95));
#1639=CARTESIAN_POINT('',(242.61,-33.22,4.95));
#1640=CARTESIAN_POINT('',(242.61,-145.8,4.95));
#1641=CARTESIAN_POINT('',(242.61,-33.22,4.95));
#1642=CARTESIAN_POINT('',(242.61,-145.8,4.95));
#1643=CARTESIAN_POINT('Origin',(64.34,-33.22,4.95));
#1644=CARTESIAN_POINT('',(64.34,-33.22,4.95));
#1645=CARTESIAN_POINT('',(64.34,-33.22,4.95));
#1646=CARTESIAN_POINT('',(64.34,-33.22,4.95));
#1647=CARTESIAN_POINT('Origin',(153.475,-89.51,2.95));
#1648=CARTESIAN_POINT('Origin',(75.34,-44.22,2.95));
#1649=CARTESIAN_POINT('',(72.34,-44.22,11.95));
#1650=CARTESIAN_POINT('Origin',(75.34,-44.22,11.95));
#1651=CARTESIAN_POINT('',(72.34,-44.22,4.95));
#1652=CARTESIAN_POINT('',(72.34,-44.22,2.95));
#1653=CARTESIAN_POINT('Origin',(75.34,-44.22,4.95));
#1654=CARTESIAN_POINT('Origin',(153.475,-89.51,11.95));
#1655=CARTESIAN_POINT('Origin',(153.475,-89.51,4.95));
#1656=CARTESIAN_POINT('',(64.34,-145.8,4.95));
#1657=CARTESIAN_POINT('',(64.34,-145.8,4.95));
#1658=CARTESIAN_POINT('',(242.61,-145.8,4.95));
#1659=CARTESIAN_POINT('',(228.61,-134.8,4.95));
#1660=CARTESIAN_POINT('Origin',(231.61,-134.8,4.95));
#1661=CARTESIAN_POINT('Origin',(231.61,-134.8,2.95));
#1662=CARTESIAN_POINT('',(228.61,-134.8,11.95));
#1663=CARTESIAN_POINT('Origin',(231.61,-134.8,11.95));
#1664=CARTESIAN_POINT('',(228.61,-134.8,2.95));
#1665=CARTESIAN_POINT('Origin',(153.475,-89.51,11.95));
#1666=CARTESIAN_POINT('Origin',(64.34,-145.8,4.95));
#1667=CARTESIAN_POINT('',(64.34,-145.8,4.95));
#1668=CARTESIAN_POINT('Origin',(242.61,-145.8,4.95));
#1669=CARTESIAN_POINT('Origin',(242.61,-145.8,4.95));
#1670=CARTESIAN_POINT('',(242.61,-145.8,4.95));
#1671=CARTESIAN_POINT('',(64.34,-145.8,4.95));
#1672=CARTESIAN_POINT('',(242.61,-145.8,4.95));
#1673=CARTESIAN_POINT('',(64.34,-145.8,27.95));
#1674=CARTESIAN_POINT('',(64.34,-145.8,4.95));
#1675=CARTESIAN_POINT('',(242.61,-145.8,27.95));
#1676=CARTESIAN_POINT('',(242.61,-145.8,27.95));
#1677=CARTESIAN_POINT('',(242.61,-145.8,4.95));
#1678=CARTESIAN_POINT('Origin',(64.34,-145.8,4.95));
#1679=CARTESIAN_POINT('',(64.34,-33.4560679774997,27.9499999999998));
#1680=CARTESIAN_POINT('',(64.34,-145.8,27.95));
#1681=CARTESIAN_POINT('',(64.34,-33.22,4.95));
#1682=CARTESIAN_POINT('',(64.34,-145.8,4.95));
#1683=CARTESIAN_POINT('',(64.3399999999999,-33.22,27.95));
#1684=CARTESIAN_POINT('',(64.34,-33.22,4.95));
#1685=CARTESIAN_POINT('',(64.34,-145.8,27.95));
#1686=CARTESIAN_POINT('Origin',(222.19999493286,-32.22,18.399999588728));
#1687=CARTESIAN_POINT('',(222.19999493286,-31.22,13.899999588728));
#1688=CARTESIAN_POINT('',(222.19999493286,-33.22,15.899999588728));
#1689=CARTESIAN_POINT('',(222.19999493286,-31.22,13.899999588728));
#1690=CARTESIAN_POINT('',(222.19999493286,-31.22,22.899999588728));
#1691=CARTESIAN_POINT('Origin',(222.19999493286,-31.22,18.399999588728));
#1692=CARTESIAN_POINT('',(222.19999493286,-33.22,20.899999588728));
#1693=CARTESIAN_POINT('',(222.19999493286,-33.22,20.899999588728));
#1694=CARTESIAN_POINT('Origin',(222.19999493286,-33.22,18.399999588728));
#1695=CARTESIAN_POINT('Origin',(237.90499746643,-32.22,21.899999588728));
#1696=CARTESIAN_POINT('',(231.19999493286,-31.22,22.8999995887279));
#1697=CARTESIAN_POINT('',(237.90499746643,-31.22,22.899999588728));
#1698=CARTESIAN_POINT('',(231.19999493286,-33.22,20.899999588728));
#1699=CARTESIAN_POINT('',(231.19999493286,-33.22,20.899999588728));
#1700=CARTESIAN_POINT('',(147.76999746643,-33.22,20.899999588728));
#1701=CARTESIAN_POINT('Origin',(231.19999493286,-32.22,18.399999588728));
#1702=CARTESIAN_POINT('',(231.19999493286,-31.22,13.899999588728));
#1703=CARTESIAN_POINT('Origin',(231.19999493286,-31.22,18.399999588728));
#1704=CARTESIAN_POINT('',(231.19999493286,-33.22,15.899999588728));
#1705=CARTESIAN_POINT('',(231.19999493286,-33.22,15.899999588728));
#1706=CARTESIAN_POINT('Origin',(231.19999493286,-33.22,18.399999588728));
#1707=CARTESIAN_POINT('Origin',(233.40499746643,-32.22,14.899999588728));
#1708=CARTESIAN_POINT('',(233.40499746643,-31.22,13.899999588728));
#1709=CARTESIAN_POINT('',(143.26999746643,-33.22,15.899999588728));
#1710=CARTESIAN_POINT('Origin',(242.61,-33.22,4.95));
#1711=CARTESIAN_POINT('',(242.61,-33.22,4.95));
#1712=CARTESIAN_POINT('',(242.61,-33.22,27.95));
#1713=CARTESIAN_POINT('',(242.61,-33.22,17.4499999999999));
#1714=CARTESIAN_POINT('',(242.61,-33.22,4.95));
#1715=CARTESIAN_POINT('',(242.61,-33.4560679775,27.95));
#1716=CARTESIAN_POINT('',(242.61,-33.22,27.95));
#1717=CARTESIAN_POINT('',(242.61,-33.22,27.95));
#1718=CARTESIAN_POINT('Origin',(244.61,-31.22,4.95));
#1719=CARTESIAN_POINT('',(67.34,-31.22,5.70736));
#1720=CARTESIAN_POINT('',(239.61,-31.22,5.70736));
#1721=CARTESIAN_POINT('',(199.0425,-31.22,5.70736));
#1722=CARTESIAN_POINT('',(67.34,-31.22,26.9499999999998));
#1723=CARTESIAN_POINT('',(67.34,-31.22,4.95));
#1724=CARTESIAN_POINT('',(82.3399999999999,-31.22,26.9499999999998));
#1725=CARTESIAN_POINT('',(62.3399999999999,-31.22,26.9499999999998));
#1726=CARTESIAN_POINT('',(82.3399999999999,-31.22,27.95));
#1727=CARTESIAN_POINT('',(82.3399999999999,-31.22,17.4499999999999));
#1728=CARTESIAN_POINT('',(82.8399999999999,-31.2199999999999,27.9499999999998));
#1729=CARTESIAN_POINT('',(62.34,-31.22,27.95));
#1730=CARTESIAN_POINT('',(82.8399999999999,-31.2199999999999,26.9499993976206));
#1731=CARTESIAN_POINT('',(82.8399999999999,-31.22,16.1999998494051));
#1732=CARTESIAN_POINT('',(102.84,-31.2199999999999,26.9499993976206));
#1733=CARTESIAN_POINT('',(82.8399999999999,-31.22,26.9499999999998));
#1734=CARTESIAN_POINT('',(102.84,-31.2199999999999,27.9499999999998));
#1735=CARTESIAN_POINT('',(102.84,-31.22,16.1999998494051));
#1736=CARTESIAN_POINT('',(204.11,-31.22,27.95));
#1737=CARTESIAN_POINT('',(62.34,-31.22,27.95));
#1738=CARTESIAN_POINT('',(204.11,-31.22,26.9499999999998));
#1739=CARTESIAN_POINT('',(204.11,-31.22,17.4499999999999));
#1740=CARTESIAN_POINT('',(224.11,-31.22,26.9499999999998));
#1741=CARTESIAN_POINT('',(224.11,-31.22,26.9499999999998));
#1742=CARTESIAN_POINT('',(224.11,-31.22,27.95));
#1743=CARTESIAN_POINT('',(224.11,-31.22,17.4499999999999));
#1744=CARTESIAN_POINT('',(224.61,-31.22,27.95));
#1745=CARTESIAN_POINT('',(62.34,-31.22,27.95));
#1746=CARTESIAN_POINT('',(224.61,-31.22,26.9499999999998));
#1747=CARTESIAN_POINT('',(224.61,-31.22,17.4499999999999));
#1748=CARTESIAN_POINT('',(239.61,-31.22,26.9499999999998));
#1749=CARTESIAN_POINT('',(244.61,-31.22,26.9499999999998));
#1750=CARTESIAN_POINT('',(239.61,-31.22,4.95));
#1751=CARTESIAN_POINT('Origin',(62.3399999999999,-31.2199999999999,29.9499999999998));
#1752=CARTESIAN_POINT('',(82.3399999999999,-30.2199999999999,29.9499999999998));
#1753=CARTESIAN_POINT('Origin',(82.3399999999999,-31.2199999999999,29.9499999999998));
#1754=CARTESIAN_POINT('',(62.3399999999999,-30.2199999999999,29.9499999999998));
#1755=CARTESIAN_POINT('',(62.3399999999999,-30.2199999999999,29.9499999999998));
#1756=CARTESIAN_POINT('Origin',(62.3399999999999,-31.2199999999999,29.9499999999998));
#1757=CARTESIAN_POINT('Origin',(244.61,-31.22,29.9499999999998));
#1758=CARTESIAN_POINT('',(224.61,-34.22,29.9499999999998));
#1759=CARTESIAN_POINT('Origin',(224.61,-31.22,29.9499999999998));
#1760=CARTESIAN_POINT('',(244.61,-34.22,29.9499999999998));
#1761=CARTESIAN_POINT('',(244.61,-34.22,29.9499999999998));
#1762=CARTESIAN_POINT('Origin',(244.61,-31.22,29.9499999999998));
#1763=CARTESIAN_POINT('',(224.61,-33.4560679774998,27.9499999999995));
#1764=CARTESIAN_POINT('Origin',(224.61,-31.22,29.9499999999998));
#1765=CARTESIAN_POINT('',(244.61,-33.4560679774998,27.9499999999998));
#1766=CARTESIAN_POINT('',(243.776614906012,-33.4560679775,27.95));
#1767=CARTESIAN_POINT('',(244.61,-33.4560679775,27.95));
#1768=CARTESIAN_POINT('Ctrl Pts',(243.77661490601,-33.4560679774972,27.9499999999969));
#1769=CARTESIAN_POINT('Ctrl Pts',(243.704559372364,-33.347444589475,27.8285553602152));
#1770=CARTESIAN_POINT('Ctrl Pts',(243.622301009068,-33.2328890439036,27.72060064037));
#1771=CARTESIAN_POINT('Ctrl Pts',(243.412010563305,-32.9670233332703,27.5033675405701));
#1772=CARTESIAN_POINT('Ctrl Pts',(243.263651730584,-32.7987177039222,27.3923347422246));
#1773=CARTESIAN_POINT('Ctrl Pts',(242.929469528088,-32.4736062492784,27.2182474236341));
#1774=CARTESIAN_POINT('Ctrl Pts',(242.743581956627,-32.3173043753773,27.1543763356275));
#1775=CARTESIAN_POINT('Ctrl Pts',(242.163705302635,-31.8930249570588,27.0102759630199));
#1776=CARTESIAN_POINT('Ctrl Pts',(241.682076831322,-31.6377040407033,26.9744281364167));
#1777=CARTESIAN_POINT('Ctrl Pts',(240.657122564437,-31.3012120669452,26.9463509513276));
#1778=CARTESIAN_POINT('Ctrl Pts',(240.113927285583,-31.22,26.9499999999998));
#1779=CARTESIAN_POINT('Ctrl Pts',(239.61,-31.22,26.9499999999998));
#1780=CARTESIAN_POINT('Origin',(244.61,-31.22,29.9499999999998));
#1781=CARTESIAN_POINT('',(224.61,-32.22,29.9499999999998));
#1782=CARTESIAN_POINT('Origin',(224.61,-31.22,29.9499999999998));
#1783=CARTESIAN_POINT('',(244.61,-32.22,29.9499999999998));
#1784=CARTESIAN_POINT('',(244.61,-32.22,29.9499999999998));
#1785=CARTESIAN_POINT('Origin',(244.61,-31.22,29.9499999999998));
#1786=CARTESIAN_POINT('Origin',(224.61,-31.22,29.9499999999998));
#1787=CARTESIAN_POINT('',(224.61,-33.22,27.9499999999995));
#1788=CARTESIAN_POINT('',(224.61,-61.115,27.95));
#1789=CARTESIAN_POINT('',(224.61,-147.8,27.9499999999995));
#1790=CARTESIAN_POINT('Origin',(82.3399999999999,-31.2199999999999,29.9499999999998));
#1791=CARTESIAN_POINT('',(82.3399999999999,-28.2199999999999,29.9499999999998));
#1792=CARTESIAN_POINT('Origin',(82.3399999999999,-31.2199999999999,29.9499999999998));
#1793=CARTESIAN_POINT('',(82.3399999999999,-33.4560679774997,27.9499999999998));
#1794=CARTESIAN_POINT('Origin',(82.3399999999999,-31.2199999999999,29.9499999999998));
#1795=CARTESIAN_POINT('',(82.3399999999999,-33.22,27.9499999999998));
#1796=CARTESIAN_POINT('',(82.3399999999999,-31.22,27.9499999999998));
#1797=CARTESIAN_POINT('',(82.3399999999999,-61.115,27.95));
#1798=CARTESIAN_POINT('Origin',(62.3399999999999,-31.2199999999999,29.9499999999998));
#1799=CARTESIAN_POINT('',(63.1733850939883,-33.4560679774999,27.95));
#1800=CARTESIAN_POINT('',(62.3399999999999,-33.4560679774999,27.95));
#1801=CARTESIAN_POINT('',(62.3399999999999,-33.4560679774997,27.9499999999998));
#1802=CARTESIAN_POINT('',(62.34,-28.2199999999999,29.9499999999998));
#1803=CARTESIAN_POINT('',(62.3399999999999,-28.2199999999999,29.9499999999998));
#1804=CARTESIAN_POINT('Origin',(62.34,-31.2199999999999,29.9499999999998));
#1805=CARTESIAN_POINT('Ctrl Pts',(67.34,-31.22,26.9499999999998));
#1806=CARTESIAN_POINT('Ctrl Pts',(66.8360727144169,-31.22,26.9499999999998));
#1807=CARTESIAN_POINT('Ctrl Pts',(66.2928774355634,-31.3012120669453,26.9463509513276));
#1808=CARTESIAN_POINT('Ctrl Pts',(65.2679231686778,-31.6377040407033,26.9744281364167));
#1809=CARTESIAN_POINT('Ctrl Pts',(64.7862946973646,-31.8930249570588,27.0102759630199));
#1810=CARTESIAN_POINT('Ctrl Pts',(64.2064180433732,-32.3173043753773,27.1543763356275));
#1811=CARTESIAN_POINT('Ctrl Pts',(64.0205304719122,-32.4736062492784,27.2182474236342));
#1812=CARTESIAN_POINT('Ctrl Pts',(63.6863482694161,-32.7987177039222,27.3923347422246));
#1813=CARTESIAN_POINT('Ctrl Pts',(63.5379894366948,-32.9670233332703,27.5033675405702));
#1814=CARTESIAN_POINT('Ctrl Pts',(63.3276989909317,-33.2328890439035,27.72060064037));
#1815=CARTESIAN_POINT('Ctrl Pts',(63.2454406276355,-33.347444589475,27.8285553602153));
#1816=CARTESIAN_POINT('Ctrl Pts',(63.1733850939902,-33.4560679774971,27.9499999999969));
#1817=CARTESIAN_POINT('Origin',(62.34,-31.22,4.95));
#1818=CARTESIAN_POINT('Origin',(62.3399999999999,-33.4560679774997,27.9499999999998));
#1819=CARTESIAN_POINT('',(64.34,-33.22,27.95));
#1820=CARTESIAN_POINT('Origin',(244.61,-31.22,27.9499999999998));
#1821=CARTESIAN_POINT('',(64.34,-33.22,27.95));
#1822=CARTESIAN_POINT('Origin',(153.475,-89.51,27.95));
#1823=CARTESIAN_POINT('',(224.11,-33.22,27.95));
#1824=CARTESIAN_POINT('',(224.11,-60.365,27.95));
#1825=CARTESIAN_POINT('',(64.34,-33.22,27.95));
#1826=CARTESIAN_POINT('Origin',(153.475,-89.51,27.95));
#1827=CARTESIAN_POINT('',(102.84,-33.22,27.9499999999998));
#1828=CARTESIAN_POINT('',(102.84,-60.9240169943749,27.95));
#1829=CARTESIAN_POINT('',(204.11,-33.22,27.95));
#1830=CARTESIAN_POINT('',(64.34,-33.22,27.95));
#1831=CARTESIAN_POINT('',(204.11,-60.365,27.95));
#1832=CARTESIAN_POINT('Origin',(204.11,-31.22,29.9499999999997));
#1833=CARTESIAN_POINT('',(204.11,-33.22,27.7139320225));
#1834=CARTESIAN_POINT('',(204.11,-33.22,17.4499999999999));
#1835=CARTESIAN_POINT('Origin',(204.11,-31.22,29.9499999999997));
#1836=CARTESIAN_POINT('Origin',(224.11,-31.22,29.9499999999997));
#1837=CARTESIAN_POINT('',(224.11,-33.22,27.7139320225));
#1838=CARTESIAN_POINT('',(224.11,-33.22,27.7139320225));
#1839=CARTESIAN_POINT('Origin',(224.11,-31.22,29.9499999999997));
#1840=CARTESIAN_POINT('Origin',(224.11,-31.22,29.9499999999997));
#1841=CARTESIAN_POINT('',(224.11,-33.22,17.4499999999999));
#1842=CARTESIAN_POINT('Origin',(153.475,-89.51,27.95));
#1843=CARTESIAN_POINT('',(82.8399999999999,-33.22,27.9499999999998));
#1844=CARTESIAN_POINT('',(82.84,-60.9240169943749,27.95));
#1845=CARTESIAN_POINT('',(64.34,-33.22,27.95));
#1846=CARTESIAN_POINT('Origin',(64.34,-33.22,4.95));
#1847=CARTESIAN_POINT('',(102.84,-33.22,27.7139320225001));
#1848=CARTESIAN_POINT('',(102.84,-33.22,16.1999998494051));
#1849=CARTESIAN_POINT('',(82.8399999999999,-33.22,27.7139320225));
#1850=CARTESIAN_POINT('',(82.8399999999999,-33.22,27.7139320225));
#1851=CARTESIAN_POINT('',(82.8399999999999,-33.22,16.1999998494051));
#1852=CARTESIAN_POINT('',(64.34,-33.22,4.95));
#1853=CARTESIAN_POINT('Origin',(102.84,-32.3380339887498,27.4499996988102));
#1854=CARTESIAN_POINT('Origin',(102.84,-31.2199999999999,29.9499999999998));
#1855=CARTESIAN_POINT('Origin',(82.8399999999999,-32.3380339887498,27.4499996988102));
#1856=CARTESIAN_POINT('Origin',(82.8399999999999,-31.2199999999999,29.9499999999998));
#1857=CARTESIAN_POINT('Origin',(82.8399999999999,-31.2199999999999,29.9499999999998));
#1858=CARTESIAN_POINT('Origin',(239.61,-142.8,4.95));
#1859=CARTESIAN_POINT('',(244.61,-142.8,5.70736));
#1860=CARTESIAN_POINT('',(239.61,-147.8,5.70736));
#1861=CARTESIAN_POINT('Origin',(239.61,-142.8,5.70736));
#1862=CARTESIAN_POINT('',(244.61,-142.8,27.95));
#1863=CARTESIAN_POINT('',(244.61,-142.8,4.95));
#1864=CARTESIAN_POINT('',(239.61,-147.8,27.95));
#1865=CARTESIAN_POINT('Origin',(239.61,-142.8,27.95));
#1866=CARTESIAN_POINT('',(239.61,-147.8,4.95));
#1867=CARTESIAN_POINT('Origin',(244.61,-147.8,4.95));
#1868=CARTESIAN_POINT('',(244.61,-36.22,5.70736));
#1869=CARTESIAN_POINT('',(244.61,-118.655,5.70736));
#1870=CARTESIAN_POINT('',(244.61,-36.22,27.95));
#1871=CARTESIAN_POINT('',(244.61,-36.22,4.95));
#1872=CARTESIAN_POINT('',(244.61,-31.22,27.95));
#1873=CARTESIAN_POINT('Origin',(244.61,-147.8,4.95));
#1874=CARTESIAN_POINT('Origin',(239.61,-36.22,4.95));
#1875=CARTESIAN_POINT('Origin',(239.61,-36.22,5.70736));
#1876=CARTESIAN_POINT('Origin',(239.61,-36.22,27.95));
#1877=CARTESIAN_POINT('Origin',(153.475,-89.51,27.95));
#1878=CARTESIAN_POINT('',(67.34,-147.8,27.95));
#1879=CARTESIAN_POINT('',(62.34,-142.8,27.95));
#1880=CARTESIAN_POINT('Origin',(67.34,-142.8,27.95));
#1881=CARTESIAN_POINT('',(244.61,-147.8,27.95));
#1882=CARTESIAN_POINT('',(62.34,-36.22,27.95));
#1883=CARTESIAN_POINT('Origin',(67.34,-36.22,27.95));
#1884=CARTESIAN_POINT('',(62.34,-147.8,27.95));
#1885=CARTESIAN_POINT('Origin',(62.34,-147.8,4.95));
#1886=CARTESIAN_POINT('',(67.34,-147.8,5.70736));
#1887=CARTESIAN_POINT('',(107.9075,-147.8,5.70736));
#1888=CARTESIAN_POINT('',(67.34,-147.8,4.95));
#1889=CARTESIAN_POINT('Origin',(67.34,-142.8,4.95));
#1890=CARTESIAN_POINT('',(62.34,-142.8,5.70736));
#1891=CARTESIAN_POINT('Origin',(67.34,-142.8,5.70736));
#1892=CARTESIAN_POINT('',(62.34,-142.8,4.95));
#1893=CARTESIAN_POINT('Origin',(62.34,-31.22,4.95));
#1894=CARTESIAN_POINT('',(62.34,-36.22,5.70736));
#1895=CARTESIAN_POINT('',(62.34,-60.365,5.70736));
#1896=CARTESIAN_POINT('',(62.34,-36.22,4.95));
#1897=CARTESIAN_POINT('Origin',(67.34,-36.22,4.95));
#1898=CARTESIAN_POINT('Origin',(67.34,-36.22,5.70736));
#1899=CARTESIAN_POINT('Origin',(153.475,-89.51,4.95));
#1900=CARTESIAN_POINT('',(239.61,-147.04264,4.95));
#1901=CARTESIAN_POINT('Origin',(239.61,-142.8,4.95));
#1902=CARTESIAN_POINT('',(67.34,-147.04264,4.95));
#1903=CARTESIAN_POINT('',(107.9075,-147.04264,4.95));
#1904=CARTESIAN_POINT('Origin',(67.34,-142.8,4.95));
#1905=CARTESIAN_POINT('Origin',(153.475,-89.51,4.95));
#1906=CARTESIAN_POINT('',(243.85264,-36.22,4.95));
#1907=CARTESIAN_POINT('Origin',(239.61,-36.22,4.95));
#1908=CARTESIAN_POINT('',(243.85264,-142.8,4.95));
#1909=CARTESIAN_POINT('',(243.85264,-118.655,4.95));
#1910=CARTESIAN_POINT('Origin',(239.61,-142.8,4.95));
#1911=CARTESIAN_POINT('Origin',(153.475,-89.51,4.95));
#1912=CARTESIAN_POINT('',(239.61,-31.97736,4.95));
#1913=CARTESIAN_POINT('Origin',(239.61,-36.22,4.95));
#1914=CARTESIAN_POINT('',(67.34,-31.97736,4.95));
#1915=CARTESIAN_POINT('Origin',(67.34,-36.22,4.95));
#1916=CARTESIAN_POINT('',(199.0425,-31.97736,4.95));
#1917=CARTESIAN_POINT('Origin',(153.475,-89.51,4.95));
#1918=CARTESIAN_POINT('',(63.09736,-36.22,4.95));
#1919=CARTESIAN_POINT('Origin',(67.34,-36.22,4.95));
#1920=CARTESIAN_POINT('',(63.09736,-142.8,4.95));
#1921=CARTESIAN_POINT('Origin',(67.34,-142.8,4.95));
#1922=CARTESIAN_POINT('',(63.09736,-60.365,4.95));
#1923=CARTESIAN_POINT('Origin',(239.61,-142.8,5.70736));
#1924=CARTESIAN_POINT('Origin',(243.85264,-142.8,5.70736));
#1925=CARTESIAN_POINT('Origin',(239.61,-147.04264,5.70736));
#1926=CARTESIAN_POINT('Origin',(243.85264,-118.655,5.70736));
#1927=CARTESIAN_POINT('Origin',(243.85264,-36.22,5.70736));
#1928=CARTESIAN_POINT('Origin',(239.61,-36.22,5.70736));
#1929=CARTESIAN_POINT('Origin',(239.61,-31.97736,5.70736));
#1930=CARTESIAN_POINT('Origin',(199.0425,-31.97736,5.70736));
#1931=CARTESIAN_POINT('Origin',(67.34,-31.97736,5.70736));
#1932=CARTESIAN_POINT('Origin',(67.34,-36.22,5.70736));
#1933=CARTESIAN_POINT('Origin',(63.09736,-36.22,5.70736));
#1934=CARTESIAN_POINT('Origin',(63.09736,-60.365,5.70736));
#1935=CARTESIAN_POINT('Origin',(63.09736,-142.8,5.70736));
#1936=CARTESIAN_POINT('Origin',(67.34,-142.8,5.70736));
#1937=CARTESIAN_POINT('Origin',(67.34,-147.04264,5.70736));
#1938=CARTESIAN_POINT('Origin',(107.9075,-147.04264,5.70736));
#1939=UNCERTAINTY_MEASURE_WITH_UNIT(LENGTH_MEASURE(0.01),#1943,
'DISTANCE_ACCURACY_VALUE',
'Maximum model space distance between geometric entities at asserted c
onnectivities');
#1940=UNCERTAINTY_MEASURE_WITH_UNIT(LENGTH_MEASURE(0.01),#1943,
'DISTANCE_ACCURACY_VALUE',
'Maximum model space distance between geometric entities at asserted c
onnectivities');
#1941=(
GEOMETRIC_REPRESENTATION_CONTEXT(3)
GLOBAL_UNCERTAINTY_ASSIGNED_CONTEXT((#1939))
GLOBAL_UNIT_ASSIGNED_CONTEXT((#1943,#1945,#1946))
REPRESENTATION_CONTEXT('','3D')
);
#1942=(
GEOMETRIC_REPRESENTATION_CONTEXT(3)
GLOBAL_UNCERTAINTY_ASSIGNED_CONTEXT((#1940))
GLOBAL_UNIT_ASSIGNED_CONTEXT((#1943,#1945,#1946))
REPRESENTATION_CONTEXT('','3D')
);
#1943=(
LENGTH_UNIT()
NAMED_UNIT(*)
SI_UNIT(.MILLI.,.METRE.)
);
#1944=(
LENGTH_UNIT()
NAMED_UNIT(*)
SI_UNIT($,.METRE.)
);
#1945=(
NAMED_UNIT(*)
PLANE_ANGLE_UNIT()
SI_UNIT($,.RADIAN.)
);
#1946=(
NAMED_UNIT(*)
SI_UNIT($,.STERADIAN.)
SOLID_ANGLE_UNIT()
);
#1947=SHAPE_DEFINITION_REPRESENTATION(#1948,#1949);
#1948=PRODUCT_DEFINITION_SHAPE('',$,#1951);
#1949=SHAPE_REPRESENTATION('',(#1135),#1941);
#1950=PRODUCT_DEFINITION_CONTEXT('part definition',#1955,'design');
#1951=PRODUCT_DEFINITION('2026-01-27-23-01-04-343','Case',#1952,#1950);
#1952=PRODUCT_DEFINITION_FORMATION('',$,#1957);
#1953=PRODUCT_RELATED_PRODUCT_CATEGORY('Case','Case',(#1957));
#1954=APPLICATION_PROTOCOL_DEFINITION('international standard',
'automotive_design',2009,#1955);
#1955=APPLICATION_CONTEXT(
'Core Data for Automotive Mechanical Design Process');
#1956=PRODUCT_CONTEXT('part definition',#1955,'mechanical');
#1957=PRODUCT('2026-01-27-23-01-04-343','Case',$,(#1956));
#1958=PRESENTATION_STYLE_ASSIGNMENT((#1959));
#1959=SURFACE_STYLE_USAGE(.BOTH.,#1960);
#1960=SURFACE_SIDE_STYLE('',(#1961));
#1961=SURFACE_STYLE_FILL_AREA(#1962);
#1962=FILL_AREA_STYLE('Steel - Satin',(#1963));
#1963=FILL_AREA_STYLE_COLOUR('Steel - Satin',#1964);
#1964=COLOUR_RGB('Steel - Satin',0.627450980392157,0.627450980392157,0.627450980392157);
ENDSEC;
END-ISO-10303-21;
