M48
; DRILL file {KiCad 9.0.6} date 2026-01-27T23:19:44+0000
; FORMAT={-:-/ absolute / metric / decimal}
; #@! TF.CreationDate,2026-01-27T23:19:44+00:00
; #@! TF.GenerationSoftware,Kicad,Pcbnew,9.0.6
; #@! TF.FileFunction,MixedPlating,1,2
FMAT,2
METRIC
; #@! TA.AperFunction,Plated,PTH,ViaDrill
T1C0.300
; #@! TA.AperFunction,Plated,PTH,ComponentDrill
T2C0.800
; #@! TA.AperFunction,Plated,PTH,ComponentDrill
T3C1.000
; #@! TA.AperFunction,Plated,PTH,ComponentDrill
T4C1.200
; #@! TA.AperFunction,Plated,PTH,ComponentDrill
T5C1.500
; #@! TA.AperFunction,Plated,PTH,ComponentDrill
T6C1.700
; #@! TA.AperFunction,Plated,PTH,ComponentDrill
T7C2.500
; #@! TA.AperFunction,NonPlated,NPTH,ComponentDrill
T8C3.200
%
G90
G05
T1
X90.664Y-74.539
X130.003Y-62.945
X130.392Y-75.382
X135.449Y-41.58
X137.555Y-41.757
X146.696Y-57.374
X154.088Y-55.963
X165.442Y-68.744
X167.535Y-41.476
X168.433Y-41.276
X194.265Y-56.574
X195.353Y-38.609
X196.185Y-37.777
X198.344Y-80.418
X210.308Y-44.598
T2
X74.39Y-59.515
X76.89Y-59.515
X101.503Y-59.515
X104.003Y-59.515
X128.637Y-59.515
X131.137Y-59.515
X155.75Y-58.76
X158.25Y-58.76
X182.864Y-59.46
X185.364Y-59.46
X187.165Y-41.03
X189.665Y-41.03
X213.99Y-40.723
X213.99Y-43.263
X213.99Y-45.803
X213.99Y-48.343
X213.99Y-50.883
X213.99Y-53.423
X213.99Y-55.963
X213.99Y-58.503
X213.99Y-61.043
X213.99Y-63.583
X213.99Y-66.123
X213.99Y-68.663
X213.99Y-71.203
X213.99Y-73.743
X213.99Y-76.283
X213.99Y-78.823
X213.99Y-81.363
X213.994Y-35.646
X213.994Y-38.186
X239.39Y-35.643
X239.39Y-38.183
X239.39Y-40.723
X239.39Y-43.263
X239.39Y-45.803
X239.39Y-48.343
X239.39Y-50.883
X239.39Y-53.423
X239.39Y-55.963
X239.39Y-58.503
X239.39Y-61.043
X239.39Y-63.583
X239.39Y-66.123
X239.39Y-68.663
X239.39Y-71.203
X239.39Y-73.743
X239.39Y-76.283
X239.39Y-78.823
X239.39Y-81.363
T3
X83.251Y-65.96
X85.791Y-65.96
X87.45Y-39.76
X87.45Y-55.0
X88.331Y-65.96
X89.99Y-39.76
X89.99Y-55.0
X90.871Y-65.96
X92.53Y-39.76
X92.53Y-55.0
X95.07Y-39.76
X95.07Y-55.0
X97.61Y-39.76
X97.61Y-55.0
X100.15Y-39.76
X100.15Y-55.0
X102.69Y-39.76
X102.69Y-55.0
X105.23Y-39.76
X105.23Y-55.0
X107.77Y-39.76
X107.77Y-55.0
X110.31Y-39.76
X110.31Y-55.0
X110.384Y-65.49
X112.85Y-39.76
X112.85Y-55.0
X112.924Y-65.49
X115.39Y-39.76
X115.39Y-55.0
X115.464Y-65.49
X118.004Y-65.49
X125.57Y-42.38
X125.57Y-44.88
X125.57Y-47.38
X137.498Y-65.82
X140.038Y-65.82
X140.07Y-42.38
X140.07Y-47.38
X142.578Y-65.82
X145.118Y-65.82
X149.7Y-42.38
X149.7Y-44.88
X149.7Y-47.38
X164.2Y-42.38
X164.2Y-47.38
X164.611Y-65.325
X167.151Y-65.325
X169.691Y-65.325
X172.231Y-65.325
X191.725Y-65.325
X194.265Y-65.325
X196.805Y-65.325
X199.345Y-65.325
T4
X71.115Y-65.8
X74.615Y-65.8
X74.615Y-139.3
X98.228Y-65.97
X101.728Y-65.97
X101.728Y-139.47
X125.362Y-65.43
X128.862Y-65.43
X128.862Y-138.93
X152.475Y-64.835
X155.975Y-64.835
X155.975Y-138.335
X179.589Y-65.47
X183.089Y-65.47
X183.089Y-138.97
T6
X68.665Y-69.95
X68.665Y-135.15
X77.065Y-71.15
X77.065Y-133.95
X95.778Y-70.12
X95.778Y-135.32
X104.178Y-71.32
X104.178Y-134.12
X122.912Y-69.58
X122.912Y-134.78
X131.312Y-70.78
X131.312Y-133.58
X150.025Y-68.985
X150.025Y-134.185
X158.425Y-70.185
X158.425Y-132.985
X177.139Y-69.62
X177.139Y-134.82
X185.539Y-70.82
X185.539Y-133.62
T7
X88.72Y-47.38
X114.12Y-47.38
T8
X75.34Y-44.22
X231.61Y-134.8
T5
G00X132.42Y-39.28
M15
G01X133.72Y-39.28
M16
G05
G00X132.42Y-50.48
M15
G01X133.72Y-50.48
M16
G05
G00X156.55Y-39.28
M15
G01X157.85Y-39.28
M16
G05
G00X156.55Y-50.48
M15
G01X157.85Y-50.48
M16
G05
M30
