%TF.GenerationSoftware,KiCad,Pcbnew,9.0.6*%
%TF.CreationDate,2026-01-27T23:19:44+00:00*%
%TF.ProjectId,Custom-Mixer-ESP32,43757374-6f6d-42d4-9d69-7865722d4553,rev?*%
%TF.SameCoordinates,Original*%
%TF.FileFunction,Drillmap*%
%TF.FilePolarity,Positive*%
%FSLAX45Y45*%
G04 Gerber Fmt 4.5, Leading zero omitted, Abs format (unit mm)*
G04 Created by KiCad (PCBNEW 9.0.6) date 2026-01-27 23:19:44*
%MOMM*%
%LPD*%
G01*
G04 APERTURE LIST*
%ADD10C,0.200000*%
%ADD11C,0.100000*%
%ADD12C,0.120000*%
%ADD13C,0.150000*%
%ADD14C,0.170000*%
%ADD15C,0.250000*%
%ADD16C,0.320000*%
G04 APERTURE END LIST*
D10*
X6534000Y-3422000D02*
X24161000Y-3422000D01*
X24161000Y-14480000D01*
X6534000Y-14480000D01*
X6534000Y-3422000D01*
D11*
X9051440Y-7438860D02*
X9081440Y-7468860D01*
X9081440Y-7438860D02*
X9051440Y-7468860D01*
X12985310Y-6279530D02*
X13015310Y-6309530D01*
X13015310Y-6279530D02*
X12985310Y-6309530D01*
X13024180Y-7523170D02*
X13054180Y-7553170D01*
X13054180Y-7523170D02*
X13024180Y-7553170D01*
X13529910Y-4143010D02*
X13559910Y-4173010D01*
X13559910Y-4143010D02*
X13529910Y-4173010D01*
X13740460Y-4160720D02*
X13770460Y-4190720D01*
X13770460Y-4160720D02*
X13740460Y-4190720D01*
X14654630Y-5722450D02*
X14684630Y-5752450D01*
X14684630Y-5722450D02*
X14654630Y-5752450D01*
X15393800Y-5581350D02*
X15423800Y-5611350D01*
X15423800Y-5581350D02*
X15393800Y-5611350D01*
X16529190Y-6859440D02*
X16559190Y-6889440D01*
X16559190Y-6859440D02*
X16529190Y-6889440D01*
X16738520Y-4132640D02*
X16768520Y-4162640D01*
X16768520Y-4132640D02*
X16738520Y-4162640D01*
X16828300Y-4112640D02*
X16858300Y-4142640D01*
X16858300Y-4112640D02*
X16828300Y-4142640D01*
X19411490Y-5642400D02*
X19441490Y-5672400D01*
X19441490Y-5642400D02*
X19411490Y-5672400D01*
X19520290Y-3845950D02*
X19550290Y-3875950D01*
X19550290Y-3845950D02*
X19520290Y-3875950D01*
X19603480Y-3762680D02*
X19633480Y-3792680D01*
X19633480Y-3762680D02*
X19603480Y-3792680D01*
X19819400Y-8026840D02*
X19849400Y-8056840D01*
X19849400Y-8026840D02*
X19819400Y-8056840D01*
X21015840Y-4444760D02*
X21045840Y-4474760D01*
X21045840Y-4444760D02*
X21015840Y-4474760D01*
X7478990Y-5951500D02*
G75*
G02*
X7398990Y-5951500I-40000J0D01*
G01*
X7398990Y-5951500D02*
G75*
G02*
X7478990Y-5951500I40000J0D01*
G01*
X7728990Y-5951500D02*
G75*
G02*
X7648990Y-5951500I-40000J0D01*
G01*
X7648990Y-5951500D02*
G75*
G02*
X7728990Y-5951500I40000J0D01*
G01*
X10190340Y-5951500D02*
G75*
G02*
X10110340Y-5951500I-40000J0D01*
G01*
X10110340Y-5951500D02*
G75*
G02*
X10190340Y-5951500I40000J0D01*
G01*
X10440340Y-5951500D02*
G75*
G02*
X10360340Y-5951500I-40000J0D01*
G01*
X10360340Y-5951500D02*
G75*
G02*
X10440340Y-5951500I40000J0D01*
G01*
X12903690Y-5951500D02*
G75*
G02*
X12823690Y-5951500I-40000J0D01*
G01*
X12823690Y-5951500D02*
G75*
G02*
X12903690Y-5951500I40000J0D01*
G01*
X13153690Y-5951500D02*
G75*
G02*
X13073690Y-5951500I-40000J0D01*
G01*
X13073690Y-5951500D02*
G75*
G02*
X13153690Y-5951500I40000J0D01*
G01*
X15615050Y-5876000D02*
G75*
G02*
X15535050Y-5876000I-40000J0D01*
G01*
X15535050Y-5876000D02*
G75*
G02*
X15615050Y-5876000I40000J0D01*
G01*
X15865050Y-5876000D02*
G75*
G02*
X15785050Y-5876000I-40000J0D01*
G01*
X15785050Y-5876000D02*
G75*
G02*
X15865050Y-5876000I40000J0D01*
G01*
X18326400Y-5946000D02*
G75*
G02*
X18246400Y-5946000I-40000J0D01*
G01*
X18246400Y-5946000D02*
G75*
G02*
X18326400Y-5946000I40000J0D01*
G01*
X18576400Y-5946000D02*
G75*
G02*
X18496400Y-5946000I-40000J0D01*
G01*
X18496400Y-5946000D02*
G75*
G02*
X18576400Y-5946000I40000J0D01*
G01*
X18756490Y-4103000D02*
G75*
G02*
X18676490Y-4103000I-40000J0D01*
G01*
X18676490Y-4103000D02*
G75*
G02*
X18756490Y-4103000I40000J0D01*
G01*
X19006490Y-4103000D02*
G75*
G02*
X18926490Y-4103000I-40000J0D01*
G01*
X18926490Y-4103000D02*
G75*
G02*
X19006490Y-4103000I40000J0D01*
G01*
X21439000Y-4072340D02*
G75*
G02*
X21359000Y-4072340I-40000J0D01*
G01*
X21359000Y-4072340D02*
G75*
G02*
X21439000Y-4072340I40000J0D01*
G01*
X21439000Y-4326340D02*
G75*
G02*
X21359000Y-4326340I-40000J0D01*
G01*
X21359000Y-4326340D02*
G75*
G02*
X21439000Y-4326340I40000J0D01*
G01*
X21439000Y-4580340D02*
G75*
G02*
X21359000Y-4580340I-40000J0D01*
G01*
X21359000Y-4580340D02*
G75*
G02*
X21439000Y-4580340I40000J0D01*
G01*
X21439000Y-4834340D02*
G75*
G02*
X21359000Y-4834340I-40000J0D01*
G01*
X21359000Y-4834340D02*
G75*
G02*
X21439000Y-4834340I40000J0D01*
G01*
X21439000Y-5088340D02*
G75*
G02*
X21359000Y-5088340I-40000J0D01*
G01*
X21359000Y-5088340D02*
G75*
G02*
X21439000Y-5088340I40000J0D01*
G01*
X21439000Y-5342340D02*
G75*
G02*
X21359000Y-5342340I-40000J0D01*
G01*
X21359000Y-5342340D02*
G75*
G02*
X21439000Y-5342340I40000J0D01*
G01*
X21439000Y-5596340D02*
G75*
G02*
X21359000Y-5596340I-40000J0D01*
G01*
X21359000Y-5596340D02*
G75*
G02*
X21439000Y-5596340I40000J0D01*
G01*
X21439000Y-5850340D02*
G75*
G02*
X21359000Y-5850340I-40000J0D01*
G01*
X21359000Y-5850340D02*
G75*
G02*
X21439000Y-5850340I40000J0D01*
G01*
X21439000Y-6104340D02*
G75*
G02*
X21359000Y-6104340I-40000J0D01*
G01*
X21359000Y-6104340D02*
G75*
G02*
X21439000Y-6104340I40000J0D01*
G01*
X21439000Y-6358340D02*
G75*
G02*
X21359000Y-6358340I-40000J0D01*
G01*
X21359000Y-6358340D02*
G75*
G02*
X21439000Y-6358340I40000J0D01*
G01*
X21439000Y-6612340D02*
G75*
G02*
X21359000Y-6612340I-40000J0D01*
G01*
X21359000Y-6612340D02*
G75*
G02*
X21439000Y-6612340I40000J0D01*
G01*
X21439000Y-6866340D02*
G75*
G02*
X21359000Y-6866340I-40000J0D01*
G01*
X21359000Y-6866340D02*
G75*
G02*
X21439000Y-6866340I40000J0D01*
G01*
X21439000Y-7120340D02*
G75*
G02*
X21359000Y-7120340I-40000J0D01*
G01*
X21359000Y-7120340D02*
G75*
G02*
X21439000Y-7120340I40000J0D01*
G01*
X21439000Y-7374340D02*
G75*
G02*
X21359000Y-7374340I-40000J0D01*
G01*
X21359000Y-7374340D02*
G75*
G02*
X21439000Y-7374340I40000J0D01*
G01*
X21439000Y-7628340D02*
G75*
G02*
X21359000Y-7628340I-40000J0D01*
G01*
X21359000Y-7628340D02*
G75*
G02*
X21439000Y-7628340I40000J0D01*
G01*
X21439000Y-7882340D02*
G75*
G02*
X21359000Y-7882340I-40000J0D01*
G01*
X21359000Y-7882340D02*
G75*
G02*
X21439000Y-7882340I40000J0D01*
G01*
X21439000Y-8136340D02*
G75*
G02*
X21359000Y-8136340I-40000J0D01*
G01*
X21359000Y-8136340D02*
G75*
G02*
X21439000Y-8136340I40000J0D01*
G01*
X21439368Y-3564612D02*
G75*
G02*
X21359368Y-3564612I-40000J0D01*
G01*
X21359368Y-3564612D02*
G75*
G02*
X21439368Y-3564612I40000J0D01*
G01*
X21439368Y-3818612D02*
G75*
G02*
X21359368Y-3818612I-40000J0D01*
G01*
X21359368Y-3818612D02*
G75*
G02*
X21439368Y-3818612I40000J0D01*
G01*
X23979000Y-3564340D02*
G75*
G02*
X23899000Y-3564340I-40000J0D01*
G01*
X23899000Y-3564340D02*
G75*
G02*
X23979000Y-3564340I40000J0D01*
G01*
X23979000Y-3818340D02*
G75*
G02*
X23899000Y-3818340I-40000J0D01*
G01*
X23899000Y-3818340D02*
G75*
G02*
X23979000Y-3818340I40000J0D01*
G01*
X23979000Y-4072340D02*
G75*
G02*
X23899000Y-4072340I-40000J0D01*
G01*
X23899000Y-4072340D02*
G75*
G02*
X23979000Y-4072340I40000J0D01*
G01*
X23979000Y-4326340D02*
G75*
G02*
X23899000Y-4326340I-40000J0D01*
G01*
X23899000Y-4326340D02*
G75*
G02*
X23979000Y-4326340I40000J0D01*
G01*
X23979000Y-4580340D02*
G75*
G02*
X23899000Y-4580340I-40000J0D01*
G01*
X23899000Y-4580340D02*
G75*
G02*
X23979000Y-4580340I40000J0D01*
G01*
X23979000Y-4834340D02*
G75*
G02*
X23899000Y-4834340I-40000J0D01*
G01*
X23899000Y-4834340D02*
G75*
G02*
X23979000Y-4834340I40000J0D01*
G01*
X23979000Y-5088340D02*
G75*
G02*
X23899000Y-5088340I-40000J0D01*
G01*
X23899000Y-5088340D02*
G75*
G02*
X23979000Y-5088340I40000J0D01*
G01*
X23979000Y-5342340D02*
G75*
G02*
X23899000Y-5342340I-40000J0D01*
G01*
X23899000Y-5342340D02*
G75*
G02*
X23979000Y-5342340I40000J0D01*
G01*
X23979000Y-5596340D02*
G75*
G02*
X23899000Y-5596340I-40000J0D01*
G01*
X23899000Y-5596340D02*
G75*
G02*
X23979000Y-5596340I40000J0D01*
G01*
X23979000Y-5850340D02*
G75*
G02*
X23899000Y-5850340I-40000J0D01*
G01*
X23899000Y-5850340D02*
G75*
G02*
X23979000Y-5850340I40000J0D01*
G01*
X23979000Y-6104340D02*
G75*
G02*
X23899000Y-6104340I-40000J0D01*
G01*
X23899000Y-6104340D02*
G75*
G02*
X23979000Y-6104340I40000J0D01*
G01*
X23979000Y-6358340D02*
G75*
G02*
X23899000Y-6358340I-40000J0D01*
G01*
X23899000Y-6358340D02*
G75*
G02*
X23979000Y-6358340I40000J0D01*
G01*
X23979000Y-6612340D02*
G75*
G02*
X23899000Y-6612340I-40000J0D01*
G01*
X23899000Y-6612340D02*
G75*
G02*
X23979000Y-6612340I40000J0D01*
G01*
X23979000Y-6866340D02*
G75*
G02*
X23899000Y-6866340I-40000J0D01*
G01*
X23899000Y-6866340D02*
G75*
G02*
X23979000Y-6866340I40000J0D01*
G01*
X23979000Y-7120340D02*
G75*
G02*
X23899000Y-7120340I-40000J0D01*
G01*
X23899000Y-7120340D02*
G75*
G02*
X23979000Y-7120340I40000J0D01*
G01*
X23979000Y-7374340D02*
G75*
G02*
X23899000Y-7374340I-40000J0D01*
G01*
X23899000Y-7374340D02*
G75*
G02*
X23979000Y-7374340I40000J0D01*
G01*
X23979000Y-7628340D02*
G75*
G02*
X23899000Y-7628340I-40000J0D01*
G01*
X23899000Y-7628340D02*
G75*
G02*
X23979000Y-7628340I40000J0D01*
G01*
X23979000Y-7882340D02*
G75*
G02*
X23899000Y-7882340I-40000J0D01*
G01*
X23899000Y-7882340D02*
G75*
G02*
X23979000Y-7882340I40000J0D01*
G01*
X23979000Y-8136340D02*
G75*
G02*
X23899000Y-8136340I-40000J0D01*
G01*
X23899000Y-8136340D02*
G75*
G02*
X23979000Y-8136340I40000J0D01*
G01*
X8325080Y-6546000D02*
X8325080Y-6646000D01*
X8275080Y-6596000D02*
X8375080Y-6596000D01*
X8579080Y-6546000D02*
X8579080Y-6646000D01*
X8529080Y-6596000D02*
X8629080Y-6596000D01*
X8745000Y-3926000D02*
X8745000Y-4026000D01*
X8695000Y-3976000D02*
X8795000Y-3976000D01*
X8745000Y-5450000D02*
X8745000Y-5550000D01*
X8695000Y-5500000D02*
X8795000Y-5500000D01*
X8833080Y-6546000D02*
X8833080Y-6646000D01*
X8783080Y-6596000D02*
X8883080Y-6596000D01*
X8999000Y-3926000D02*
X8999000Y-4026000D01*
X8949000Y-3976000D02*
X9049000Y-3976000D01*
X8999000Y-5450000D02*
X8999000Y-5550000D01*
X8949000Y-5500000D02*
X9049000Y-5500000D01*
X9087080Y-6546000D02*
X9087080Y-6646000D01*
X9037080Y-6596000D02*
X9137080Y-6596000D01*
X9253000Y-3926000D02*
X9253000Y-4026000D01*
X9203000Y-3976000D02*
X9303000Y-3976000D01*
X9253000Y-5450000D02*
X9253000Y-5550000D01*
X9203000Y-5500000D02*
X9303000Y-5500000D01*
X9507000Y-3926000D02*
X9507000Y-4026000D01*
X9457000Y-3976000D02*
X9557000Y-3976000D01*
X9507000Y-5450000D02*
X9507000Y-5550000D01*
X9457000Y-5500000D02*
X9557000Y-5500000D01*
X9761000Y-3926000D02*
X9761000Y-4026000D01*
X9711000Y-3976000D02*
X9811000Y-3976000D01*
X9761000Y-5450000D02*
X9761000Y-5550000D01*
X9711000Y-5500000D02*
X9811000Y-5500000D01*
X10015000Y-3926000D02*
X10015000Y-4026000D01*
X9965000Y-3976000D02*
X10065000Y-3976000D01*
X10015000Y-5450000D02*
X10015000Y-5550000D01*
X9965000Y-5500000D02*
X10065000Y-5500000D01*
X10269000Y-3926000D02*
X10269000Y-4026000D01*
X10219000Y-3976000D02*
X10319000Y-3976000D01*
X10269000Y-5450000D02*
X10269000Y-5550000D01*
X10219000Y-5500000D02*
X10319000Y-5500000D01*
X10523000Y-3926000D02*
X10523000Y-4026000D01*
X10473000Y-3976000D02*
X10573000Y-3976000D01*
X10523000Y-5450000D02*
X10523000Y-5550000D01*
X10473000Y-5500000D02*
X10573000Y-5500000D01*
X10777000Y-3926000D02*
X10777000Y-4026000D01*
X10727000Y-3976000D02*
X10827000Y-3976000D01*
X10777000Y-5450000D02*
X10777000Y-5550000D01*
X10727000Y-5500000D02*
X10827000Y-5500000D01*
X11031000Y-3926000D02*
X11031000Y-4026000D01*
X10981000Y-3976000D02*
X11081000Y-3976000D01*
X11031000Y-5450000D02*
X11031000Y-5550000D01*
X10981000Y-5500000D02*
X11081000Y-5500000D01*
X11038430Y-6499000D02*
X11038430Y-6599000D01*
X10988430Y-6549000D02*
X11088430Y-6549000D01*
X11285000Y-3926000D02*
X11285000Y-4026000D01*
X11235000Y-3976000D02*
X11335000Y-3976000D01*
X11285000Y-5450000D02*
X11285000Y-5550000D01*
X11235000Y-5500000D02*
X11335000Y-5500000D01*
X11292430Y-6499000D02*
X11292430Y-6599000D01*
X11242430Y-6549000D02*
X11342430Y-6549000D01*
X11539000Y-3926000D02*
X11539000Y-4026000D01*
X11489000Y-3976000D02*
X11589000Y-3976000D01*
X11539000Y-5450000D02*
X11539000Y-5550000D01*
X11489000Y-5500000D02*
X11589000Y-5500000D01*
X11546430Y-6499000D02*
X11546430Y-6599000D01*
X11496430Y-6549000D02*
X11596430Y-6549000D01*
X11800430Y-6499000D02*
X11800430Y-6599000D01*
X11750430Y-6549000D02*
X11850430Y-6549000D01*
X12556990Y-4188000D02*
X12556990Y-4288000D01*
X12506990Y-4238000D02*
X12606990Y-4238000D01*
X12556990Y-4438000D02*
X12556990Y-4538000D01*
X12506990Y-4488000D02*
X12606990Y-4488000D01*
X12556990Y-4688000D02*
X12556990Y-4788000D01*
X12506990Y-4738000D02*
X12606990Y-4738000D01*
X13749780Y-6532000D02*
X13749780Y-6632000D01*
X13699780Y-6582000D02*
X13799780Y-6582000D01*
X14003780Y-6532000D02*
X14003780Y-6632000D01*
X13953780Y-6582000D02*
X14053780Y-6582000D01*
X14006990Y-4188000D02*
X14006990Y-4288000D01*
X13956990Y-4238000D02*
X14056990Y-4238000D01*
X14006990Y-4688000D02*
X14006990Y-4788000D01*
X13956990Y-4738000D02*
X14056990Y-4738000D01*
X14257780Y-6532000D02*
X14257780Y-6632000D01*
X14207780Y-6582000D02*
X14307780Y-6582000D01*
X14511780Y-6532000D02*
X14511780Y-6632000D01*
X14461780Y-6582000D02*
X14561780Y-6582000D01*
X14969990Y-4188000D02*
X14969990Y-4288000D01*
X14919990Y-4238000D02*
X15019990Y-4238000D01*
X14969990Y-4438000D02*
X14969990Y-4538000D01*
X14919990Y-4488000D02*
X15019990Y-4488000D01*
X14969990Y-4688000D02*
X14969990Y-4788000D01*
X14919990Y-4738000D02*
X15019990Y-4738000D01*
X16419990Y-4188000D02*
X16419990Y-4288000D01*
X16369990Y-4238000D02*
X16469990Y-4238000D01*
X16419990Y-4688000D02*
X16419990Y-4788000D01*
X16369990Y-4738000D02*
X16469990Y-4738000D01*
X16461130Y-6482500D02*
X16461130Y-6582500D01*
X16411130Y-6532500D02*
X16511130Y-6532500D01*
X16715130Y-6482500D02*
X16715130Y-6582500D01*
X16665130Y-6532500D02*
X16765130Y-6532500D01*
X16969130Y-6482500D02*
X16969130Y-6582500D01*
X16919130Y-6532500D02*
X17019130Y-6532500D01*
X17223130Y-6482500D02*
X17223130Y-6582500D01*
X17173130Y-6532500D02*
X17273130Y-6532500D01*
X19172490Y-6482500D02*
X19172490Y-6582500D01*
X19122490Y-6532500D02*
X19222490Y-6532500D01*
X19426490Y-6482500D02*
X19426490Y-6582500D01*
X19376490Y-6532500D02*
X19476490Y-6532500D01*
X19680490Y-6482500D02*
X19680490Y-6582500D01*
X19630490Y-6532500D02*
X19730490Y-6532500D01*
X19934490Y-6482500D02*
X19934490Y-6582500D01*
X19884490Y-6532500D02*
X19984490Y-6532500D01*
D12*
X7153917Y-6622427D02*
X7153917Y-6537573D01*
X7069063Y-6537573D01*
X7069063Y-6622427D01*
X7153917Y-6622427D01*
X7503917Y-6622427D02*
X7503917Y-6537573D01*
X7419063Y-6537573D01*
X7419063Y-6622427D01*
X7503917Y-6622427D01*
X7503917Y-13972427D02*
X7503917Y-13887573D01*
X7419063Y-13887573D01*
X7419063Y-13972427D01*
X7503917Y-13972427D01*
X9865267Y-6639427D02*
X9865267Y-6554573D01*
X9780413Y-6554573D01*
X9780413Y-6639427D01*
X9865267Y-6639427D01*
X10215267Y-6639427D02*
X10215267Y-6554573D01*
X10130413Y-6554573D01*
X10130413Y-6639427D01*
X10215267Y-6639427D01*
X10215267Y-13989427D02*
X10215267Y-13904573D01*
X10130413Y-13904573D01*
X10130413Y-13989427D01*
X10215267Y-13989427D01*
X12578617Y-6585427D02*
X12578617Y-6500573D01*
X12493763Y-6500573D01*
X12493763Y-6585427D01*
X12578617Y-6585427D01*
X12928617Y-6585427D02*
X12928617Y-6500573D01*
X12843763Y-6500573D01*
X12843763Y-6585427D01*
X12928617Y-6585427D01*
X12928617Y-13935427D02*
X12928617Y-13850573D01*
X12843763Y-13850573D01*
X12843763Y-13935427D01*
X12928617Y-13935427D01*
X15289977Y-6525927D02*
X15289977Y-6441073D01*
X15205123Y-6441073D01*
X15205123Y-6525927D01*
X15289977Y-6525927D01*
X15639977Y-6525927D02*
X15639977Y-6441073D01*
X15555123Y-6441073D01*
X15555123Y-6525927D01*
X15639977Y-6525927D01*
X15639977Y-13875927D02*
X15639977Y-13791073D01*
X15555123Y-13791073D01*
X15555123Y-13875927D01*
X15639977Y-13875927D01*
X18001327Y-6589427D02*
X18001327Y-6504573D01*
X17916473Y-6504573D01*
X17916473Y-6589427D01*
X18001327Y-6589427D01*
X18351327Y-6589427D02*
X18351327Y-6504573D01*
X18266473Y-6504573D01*
X18266473Y-6589427D01*
X18351327Y-6589427D01*
X18351327Y-13939427D02*
X18351327Y-13854573D01*
X18266473Y-13854573D01*
X18266473Y-13939427D01*
X18351327Y-13939427D01*
D13*
X13306990Y-4003000D02*
X13381990Y-3928000D01*
X13306990Y-3853000D01*
X13231990Y-3928000D01*
X13306990Y-4003000D01*
D11*
X13241990Y-4003000D02*
X13371990Y-4003000D01*
X13371990Y-3853000D02*
G75*
G02*
X13371990Y-4003000I0J-75000D01*
G01*
X13371990Y-3853000D02*
X13241990Y-3853000D01*
X13241990Y-3853000D02*
G75*
G03*
X13241990Y-4003000I0J-75000D01*
G01*
D13*
X13306990Y-5123000D02*
X13381990Y-5048000D01*
X13306990Y-4973000D01*
X13231990Y-5048000D01*
X13306990Y-5123000D01*
D11*
X13241990Y-5123000D02*
X13371990Y-5123000D01*
X13371990Y-4973000D02*
G75*
G02*
X13371990Y-5123000I0J-75000D01*
G01*
X13371990Y-4973000D02*
X13241990Y-4973000D01*
X13241990Y-4973000D02*
G75*
G03*
X13241990Y-5123000I0J-75000D01*
G01*
D13*
X15719990Y-4003000D02*
X15794990Y-3928000D01*
X15719990Y-3853000D01*
X15644990Y-3928000D01*
X15719990Y-4003000D01*
D11*
X15654990Y-4003000D02*
X15784990Y-4003000D01*
X15784990Y-3853000D02*
G75*
G02*
X15784990Y-4003000I0J-75000D01*
G01*
X15784990Y-3853000D02*
X15654990Y-3853000D01*
X15654990Y-3853000D02*
G75*
G03*
X15654990Y-4003000I0J-75000D01*
G01*
D13*
X15719990Y-5123000D02*
X15794990Y-5048000D01*
X15719990Y-4973000D01*
X15644990Y-5048000D01*
X15719990Y-5123000D01*
D11*
X15654990Y-5123000D02*
X15784990Y-5123000D01*
X15784990Y-4973000D02*
G75*
G02*
X15784990Y-5123000I0J-75000D01*
G01*
X15784990Y-4973000D02*
X15654990Y-4973000D01*
X15654990Y-4973000D02*
G75*
G03*
X15654990Y-5123000I0J-75000D01*
G01*
D14*
X6781490Y-6910000D02*
X6951490Y-7080000D01*
X6951490Y-6910000D02*
X6781490Y-7080000D01*
X6951490Y-6995000D02*
G75*
G02*
X6781490Y-6995000I-85000J0D01*
G01*
X6781490Y-6995000D02*
G75*
G02*
X6951490Y-6995000I85000J0D01*
G01*
X6781490Y-13430000D02*
X6951490Y-13600000D01*
X6951490Y-13430000D02*
X6781490Y-13600000D01*
X6951490Y-13515000D02*
G75*
G02*
X6781490Y-13515000I-85000J0D01*
G01*
X6781490Y-13515000D02*
G75*
G02*
X6951490Y-13515000I85000J0D01*
G01*
X7621490Y-7030000D02*
X7791490Y-7200000D01*
X7791490Y-7030000D02*
X7621490Y-7200000D01*
X7791490Y-7115000D02*
G75*
G02*
X7621490Y-7115000I-85000J0D01*
G01*
X7621490Y-7115000D02*
G75*
G02*
X7791490Y-7115000I85000J0D01*
G01*
X7621490Y-13310000D02*
X7791490Y-13480000D01*
X7791490Y-13310000D02*
X7621490Y-13480000D01*
X7791490Y-13395000D02*
G75*
G02*
X7621490Y-13395000I-85000J0D01*
G01*
X7621490Y-13395000D02*
G75*
G02*
X7791490Y-13395000I85000J0D01*
G01*
X9492840Y-6927000D02*
X9662840Y-7097000D01*
X9662840Y-6927000D02*
X9492840Y-7097000D01*
X9662840Y-7012000D02*
G75*
G02*
X9492840Y-7012000I-85000J0D01*
G01*
X9492840Y-7012000D02*
G75*
G02*
X9662840Y-7012000I85000J0D01*
G01*
X9492840Y-13447000D02*
X9662840Y-13617000D01*
X9662840Y-13447000D02*
X9492840Y-13617000D01*
X9662840Y-13532000D02*
G75*
G02*
X9492840Y-13532000I-85000J0D01*
G01*
X9492840Y-13532000D02*
G75*
G02*
X9662840Y-13532000I85000J0D01*
G01*
X10332840Y-7047000D02*
X10502840Y-7217000D01*
X10502840Y-7047000D02*
X10332840Y-7217000D01*
X10502840Y-7132000D02*
G75*
G02*
X10332840Y-7132000I-85000J0D01*
G01*
X10332840Y-7132000D02*
G75*
G02*
X10502840Y-7132000I85000J0D01*
G01*
X10332840Y-13327000D02*
X10502840Y-13497000D01*
X10502840Y-13327000D02*
X10332840Y-13497000D01*
X10502840Y-13412000D02*
G75*
G02*
X10332840Y-13412000I-85000J0D01*
G01*
X10332840Y-13412000D02*
G75*
G02*
X10502840Y-13412000I85000J0D01*
G01*
X12206190Y-6873000D02*
X12376190Y-7043000D01*
X12376190Y-6873000D02*
X12206190Y-7043000D01*
X12376190Y-6958000D02*
G75*
G02*
X12206190Y-6958000I-85000J0D01*
G01*
X12206190Y-6958000D02*
G75*
G02*
X12376190Y-6958000I85000J0D01*
G01*
X12206190Y-13393000D02*
X12376190Y-13563000D01*
X12376190Y-13393000D02*
X12206190Y-13563000D01*
X12376190Y-13478000D02*
G75*
G02*
X12206190Y-13478000I-85000J0D01*
G01*
X12206190Y-13478000D02*
G75*
G02*
X12376190Y-13478000I85000J0D01*
G01*
X13046190Y-6993000D02*
X13216190Y-7163000D01*
X13216190Y-6993000D02*
X13046190Y-7163000D01*
X13216190Y-7078000D02*
G75*
G02*
X13046190Y-7078000I-85000J0D01*
G01*
X13046190Y-7078000D02*
G75*
G02*
X13216190Y-7078000I85000J0D01*
G01*
X13046190Y-13273000D02*
X13216190Y-13443000D01*
X13216190Y-13273000D02*
X13046190Y-13443000D01*
X13216190Y-13358000D02*
G75*
G02*
X13046190Y-13358000I-85000J0D01*
G01*
X13046190Y-13358000D02*
G75*
G02*
X13216190Y-13358000I85000J0D01*
G01*
X14917550Y-6813500D02*
X15087550Y-6983500D01*
X15087550Y-6813500D02*
X14917550Y-6983500D01*
X15087550Y-6898500D02*
G75*
G02*
X14917550Y-6898500I-85000J0D01*
G01*
X14917550Y-6898500D02*
G75*
G02*
X15087550Y-6898500I85000J0D01*
G01*
X14917550Y-13333500D02*
X15087550Y-13503500D01*
X15087550Y-13333500D02*
X14917550Y-13503500D01*
X15087550Y-13418500D02*
G75*
G02*
X14917550Y-13418500I-85000J0D01*
G01*
X14917550Y-13418500D02*
G75*
G02*
X15087550Y-13418500I85000J0D01*
G01*
X15757550Y-6933500D02*
X15927550Y-7103500D01*
X15927550Y-6933500D02*
X15757550Y-7103500D01*
X15927550Y-7018500D02*
G75*
G02*
X15757550Y-7018500I-85000J0D01*
G01*
X15757550Y-7018500D02*
G75*
G02*
X15927550Y-7018500I85000J0D01*
G01*
X15757550Y-13213500D02*
X15927550Y-13383500D01*
X15927550Y-13213500D02*
X15757550Y-13383500D01*
X15927550Y-13298500D02*
G75*
G02*
X15757550Y-13298500I-85000J0D01*
G01*
X15757550Y-13298500D02*
G75*
G02*
X15927550Y-13298500I85000J0D01*
G01*
X17628900Y-6877000D02*
X17798900Y-7047000D01*
X17798900Y-6877000D02*
X17628900Y-7047000D01*
X17798900Y-6962000D02*
G75*
G02*
X17628900Y-6962000I-85000J0D01*
G01*
X17628900Y-6962000D02*
G75*
G02*
X17798900Y-6962000I85000J0D01*
G01*
X17628900Y-13397000D02*
X17798900Y-13567000D01*
X17798900Y-13397000D02*
X17628900Y-13567000D01*
X17798900Y-13482000D02*
G75*
G02*
X17628900Y-13482000I-85000J0D01*
G01*
X17628900Y-13482000D02*
G75*
G02*
X17798900Y-13482000I85000J0D01*
G01*
X18468900Y-6997000D02*
X18638900Y-7167000D01*
X18638900Y-6997000D02*
X18468900Y-7167000D01*
X18638900Y-7082000D02*
G75*
G02*
X18468900Y-7082000I-85000J0D01*
G01*
X18468900Y-7082000D02*
G75*
G02*
X18638900Y-7082000I85000J0D01*
G01*
X18468900Y-13277000D02*
X18638900Y-13447000D01*
X18638900Y-13277000D02*
X18468900Y-13447000D01*
X18638900Y-13362000D02*
G75*
G02*
X18468900Y-13362000I-85000J0D01*
G01*
X18468900Y-13362000D02*
G75*
G02*
X18638900Y-13362000I85000J0D01*
G01*
D15*
X8747000Y-4613000D02*
X8997000Y-4863000D01*
X8997000Y-4613000D02*
X8747000Y-4863000D01*
X8872000Y-4613000D02*
X8872000Y-4863000D01*
X8747000Y-4738000D02*
X8997000Y-4738000D01*
X11287000Y-4613000D02*
X11537000Y-4863000D01*
X11537000Y-4613000D02*
X11287000Y-4863000D01*
X11412000Y-4613000D02*
X11412000Y-4863000D01*
X11287000Y-4738000D02*
X11537000Y-4738000D01*
D16*
X7374000Y-4262000D02*
X7694000Y-4582000D01*
X7694000Y-4262000D02*
X7374000Y-4582000D01*
X7647138Y-4535138D02*
X7647138Y-4308862D01*
X7420862Y-4308862D01*
X7420862Y-4535138D01*
X7647138Y-4535138D01*
X23001000Y-13320000D02*
X23321000Y-13640000D01*
X23321000Y-13320000D02*
X23001000Y-13640000D01*
X23274138Y-13593138D02*
X23274138Y-13366862D01*
X23047862Y-13366862D01*
X23047862Y-13593138D01*
X23274138Y-13593138D01*
D10*
X6784777Y-14801484D02*
X6784777Y-14601484D01*
X6784777Y-14601484D02*
X6832396Y-14601484D01*
X6832396Y-14601484D02*
X6860967Y-14611008D01*
X6860967Y-14611008D02*
X6880015Y-14630055D01*
X6880015Y-14630055D02*
X6889539Y-14649103D01*
X6889539Y-14649103D02*
X6899062Y-14687198D01*
X6899062Y-14687198D02*
X6899062Y-14715769D01*
X6899062Y-14715769D02*
X6889539Y-14753865D01*
X6889539Y-14753865D02*
X6880015Y-14772912D01*
X6880015Y-14772912D02*
X6860967Y-14791960D01*
X6860967Y-14791960D02*
X6832396Y-14801484D01*
X6832396Y-14801484D02*
X6784777Y-14801484D01*
X6984777Y-14801484D02*
X6984777Y-14668150D01*
X6984777Y-14706246D02*
X6994301Y-14687198D01*
X6994301Y-14687198D02*
X7003824Y-14677674D01*
X7003824Y-14677674D02*
X7022872Y-14668150D01*
X7022872Y-14668150D02*
X7041920Y-14668150D01*
X7108586Y-14801484D02*
X7108586Y-14668150D01*
X7108586Y-14601484D02*
X7099062Y-14611008D01*
X7099062Y-14611008D02*
X7108586Y-14620531D01*
X7108586Y-14620531D02*
X7118110Y-14611008D01*
X7118110Y-14611008D02*
X7108586Y-14601484D01*
X7108586Y-14601484D02*
X7108586Y-14620531D01*
X7232396Y-14801484D02*
X7213348Y-14791960D01*
X7213348Y-14791960D02*
X7203824Y-14772912D01*
X7203824Y-14772912D02*
X7203824Y-14601484D01*
X7337158Y-14801484D02*
X7318110Y-14791960D01*
X7318110Y-14791960D02*
X7308586Y-14772912D01*
X7308586Y-14772912D02*
X7308586Y-14601484D01*
X7565729Y-14801484D02*
X7565729Y-14601484D01*
X7565729Y-14601484D02*
X7632396Y-14744341D01*
X7632396Y-14744341D02*
X7699062Y-14601484D01*
X7699062Y-14601484D02*
X7699062Y-14801484D01*
X7880015Y-14801484D02*
X7880015Y-14696722D01*
X7880015Y-14696722D02*
X7870491Y-14677674D01*
X7870491Y-14677674D02*
X7851443Y-14668150D01*
X7851443Y-14668150D02*
X7813348Y-14668150D01*
X7813348Y-14668150D02*
X7794301Y-14677674D01*
X7880015Y-14791960D02*
X7860967Y-14801484D01*
X7860967Y-14801484D02*
X7813348Y-14801484D01*
X7813348Y-14801484D02*
X7794301Y-14791960D01*
X7794301Y-14791960D02*
X7784777Y-14772912D01*
X7784777Y-14772912D02*
X7784777Y-14753865D01*
X7784777Y-14753865D02*
X7794301Y-14734817D01*
X7794301Y-14734817D02*
X7813348Y-14725293D01*
X7813348Y-14725293D02*
X7860967Y-14725293D01*
X7860967Y-14725293D02*
X7880015Y-14715769D01*
X7975253Y-14668150D02*
X7975253Y-14868150D01*
X7975253Y-14677674D02*
X7994301Y-14668150D01*
X7994301Y-14668150D02*
X8032396Y-14668150D01*
X8032396Y-14668150D02*
X8051443Y-14677674D01*
X8051443Y-14677674D02*
X8060967Y-14687198D01*
X8060967Y-14687198D02*
X8070491Y-14706246D01*
X8070491Y-14706246D02*
X8070491Y-14763388D01*
X8070491Y-14763388D02*
X8060967Y-14782436D01*
X8060967Y-14782436D02*
X8051443Y-14791960D01*
X8051443Y-14791960D02*
X8032396Y-14801484D01*
X8032396Y-14801484D02*
X7994301Y-14801484D01*
X7994301Y-14801484D02*
X7975253Y-14791960D01*
X8156205Y-14782436D02*
X8165729Y-14791960D01*
X8165729Y-14791960D02*
X8156205Y-14801484D01*
X8156205Y-14801484D02*
X8146682Y-14791960D01*
X8146682Y-14791960D02*
X8156205Y-14782436D01*
X8156205Y-14782436D02*
X8156205Y-14801484D01*
X8156205Y-14677674D02*
X8165729Y-14687198D01*
X8165729Y-14687198D02*
X8156205Y-14696722D01*
X8156205Y-14696722D02*
X8146682Y-14687198D01*
X8146682Y-14687198D02*
X8156205Y-14677674D01*
X8156205Y-14677674D02*
X8156205Y-14696722D01*
D11*
X6494000Y-15115000D02*
X6524000Y-15145000D01*
X6524000Y-15115000D02*
X6494000Y-15145000D01*
D10*
X6822872Y-15021484D02*
X6841920Y-15021484D01*
X6841920Y-15021484D02*
X6860967Y-15031008D01*
X6860967Y-15031008D02*
X6870491Y-15040531D01*
X6870491Y-15040531D02*
X6880015Y-15059579D01*
X6880015Y-15059579D02*
X6889539Y-15097674D01*
X6889539Y-15097674D02*
X6889539Y-15145293D01*
X6889539Y-15145293D02*
X6880015Y-15183388D01*
X6880015Y-15183388D02*
X6870491Y-15202436D01*
X6870491Y-15202436D02*
X6860967Y-15211960D01*
X6860967Y-15211960D02*
X6841920Y-15221484D01*
X6841920Y-15221484D02*
X6822872Y-15221484D01*
X6822872Y-15221484D02*
X6803824Y-15211960D01*
X6803824Y-15211960D02*
X6794301Y-15202436D01*
X6794301Y-15202436D02*
X6784777Y-15183388D01*
X6784777Y-15183388D02*
X6775253Y-15145293D01*
X6775253Y-15145293D02*
X6775253Y-15097674D01*
X6775253Y-15097674D02*
X6784777Y-15059579D01*
X6784777Y-15059579D02*
X6794301Y-15040531D01*
X6794301Y-15040531D02*
X6803824Y-15031008D01*
X6803824Y-15031008D02*
X6822872Y-15021484D01*
X6975253Y-15202436D02*
X6984777Y-15211960D01*
X6984777Y-15211960D02*
X6975253Y-15221484D01*
X6975253Y-15221484D02*
X6965729Y-15211960D01*
X6965729Y-15211960D02*
X6975253Y-15202436D01*
X6975253Y-15202436D02*
X6975253Y-15221484D01*
X7051443Y-15021484D02*
X7175253Y-15021484D01*
X7175253Y-15021484D02*
X7108586Y-15097674D01*
X7108586Y-15097674D02*
X7137158Y-15097674D01*
X7137158Y-15097674D02*
X7156205Y-15107198D01*
X7156205Y-15107198D02*
X7165729Y-15116722D01*
X7165729Y-15116722D02*
X7175253Y-15135769D01*
X7175253Y-15135769D02*
X7175253Y-15183388D01*
X7175253Y-15183388D02*
X7165729Y-15202436D01*
X7165729Y-15202436D02*
X7156205Y-15211960D01*
X7156205Y-15211960D02*
X7137158Y-15221484D01*
X7137158Y-15221484D02*
X7080015Y-15221484D01*
X7080015Y-15221484D02*
X7060967Y-15211960D01*
X7060967Y-15211960D02*
X7051443Y-15202436D01*
X7299062Y-15021484D02*
X7318110Y-15021484D01*
X7318110Y-15021484D02*
X7337158Y-15031008D01*
X7337158Y-15031008D02*
X7346682Y-15040531D01*
X7346682Y-15040531D02*
X7356205Y-15059579D01*
X7356205Y-15059579D02*
X7365729Y-15097674D01*
X7365729Y-15097674D02*
X7365729Y-15145293D01*
X7365729Y-15145293D02*
X7356205Y-15183388D01*
X7356205Y-15183388D02*
X7346682Y-15202436D01*
X7346682Y-15202436D02*
X7337158Y-15211960D01*
X7337158Y-15211960D02*
X7318110Y-15221484D01*
X7318110Y-15221484D02*
X7299062Y-15221484D01*
X7299062Y-15221484D02*
X7280015Y-15211960D01*
X7280015Y-15211960D02*
X7270491Y-15202436D01*
X7270491Y-15202436D02*
X7260967Y-15183388D01*
X7260967Y-15183388D02*
X7251443Y-15145293D01*
X7251443Y-15145293D02*
X7251443Y-15097674D01*
X7251443Y-15097674D02*
X7260967Y-15059579D01*
X7260967Y-15059579D02*
X7270491Y-15040531D01*
X7270491Y-15040531D02*
X7280015Y-15031008D01*
X7280015Y-15031008D02*
X7299062Y-15021484D01*
X7489539Y-15021484D02*
X7508586Y-15021484D01*
X7508586Y-15021484D02*
X7527634Y-15031008D01*
X7527634Y-15031008D02*
X7537158Y-15040531D01*
X7537158Y-15040531D02*
X7546682Y-15059579D01*
X7546682Y-15059579D02*
X7556205Y-15097674D01*
X7556205Y-15097674D02*
X7556205Y-15145293D01*
X7556205Y-15145293D02*
X7546682Y-15183388D01*
X7546682Y-15183388D02*
X7537158Y-15202436D01*
X7537158Y-15202436D02*
X7527634Y-15211960D01*
X7527634Y-15211960D02*
X7508586Y-15221484D01*
X7508586Y-15221484D02*
X7489539Y-15221484D01*
X7489539Y-15221484D02*
X7470491Y-15211960D01*
X7470491Y-15211960D02*
X7460967Y-15202436D01*
X7460967Y-15202436D02*
X7451443Y-15183388D01*
X7451443Y-15183388D02*
X7441920Y-15145293D01*
X7441920Y-15145293D02*
X7441920Y-15097674D01*
X7441920Y-15097674D02*
X7451443Y-15059579D01*
X7451443Y-15059579D02*
X7460967Y-15040531D01*
X7460967Y-15040531D02*
X7470491Y-15031008D01*
X7470491Y-15031008D02*
X7489539Y-15021484D01*
X7641920Y-15221484D02*
X7641920Y-15088150D01*
X7641920Y-15107198D02*
X7651443Y-15097674D01*
X7651443Y-15097674D02*
X7670491Y-15088150D01*
X7670491Y-15088150D02*
X7699063Y-15088150D01*
X7699063Y-15088150D02*
X7718110Y-15097674D01*
X7718110Y-15097674D02*
X7727634Y-15116722D01*
X7727634Y-15116722D02*
X7727634Y-15221484D01*
X7727634Y-15116722D02*
X7737158Y-15097674D01*
X7737158Y-15097674D02*
X7756205Y-15088150D01*
X7756205Y-15088150D02*
X7784777Y-15088150D01*
X7784777Y-15088150D02*
X7803824Y-15097674D01*
X7803824Y-15097674D02*
X7813348Y-15116722D01*
X7813348Y-15116722D02*
X7813348Y-15221484D01*
X7908586Y-15221484D02*
X7908586Y-15088150D01*
X7908586Y-15107198D02*
X7918110Y-15097674D01*
X7918110Y-15097674D02*
X7937158Y-15088150D01*
X7937158Y-15088150D02*
X7965729Y-15088150D01*
X7965729Y-15088150D02*
X7984777Y-15097674D01*
X7984777Y-15097674D02*
X7994301Y-15116722D01*
X7994301Y-15116722D02*
X7994301Y-15221484D01*
X7994301Y-15116722D02*
X8003824Y-15097674D01*
X8003824Y-15097674D02*
X8022872Y-15088150D01*
X8022872Y-15088150D02*
X8051443Y-15088150D01*
X8051443Y-15088150D02*
X8070491Y-15097674D01*
X8070491Y-15097674D02*
X8080015Y-15116722D01*
X8080015Y-15116722D02*
X8080015Y-15221484D01*
X8470491Y-15011960D02*
X8299063Y-15269103D01*
X8727634Y-15021484D02*
X8746682Y-15021484D01*
X8746682Y-15021484D02*
X8765729Y-15031008D01*
X8765729Y-15031008D02*
X8775253Y-15040531D01*
X8775253Y-15040531D02*
X8784777Y-15059579D01*
X8784777Y-15059579D02*
X8794301Y-15097674D01*
X8794301Y-15097674D02*
X8794301Y-15145293D01*
X8794301Y-15145293D02*
X8784777Y-15183388D01*
X8784777Y-15183388D02*
X8775253Y-15202436D01*
X8775253Y-15202436D02*
X8765729Y-15211960D01*
X8765729Y-15211960D02*
X8746682Y-15221484D01*
X8746682Y-15221484D02*
X8727634Y-15221484D01*
X8727634Y-15221484D02*
X8708587Y-15211960D01*
X8708587Y-15211960D02*
X8699063Y-15202436D01*
X8699063Y-15202436D02*
X8689539Y-15183388D01*
X8689539Y-15183388D02*
X8680015Y-15145293D01*
X8680015Y-15145293D02*
X8680015Y-15097674D01*
X8680015Y-15097674D02*
X8689539Y-15059579D01*
X8689539Y-15059579D02*
X8699063Y-15040531D01*
X8699063Y-15040531D02*
X8708587Y-15031008D01*
X8708587Y-15031008D02*
X8727634Y-15021484D01*
X8880015Y-15202436D02*
X8889539Y-15211960D01*
X8889539Y-15211960D02*
X8880015Y-15221484D01*
X8880015Y-15221484D02*
X8870491Y-15211960D01*
X8870491Y-15211960D02*
X8880015Y-15202436D01*
X8880015Y-15202436D02*
X8880015Y-15221484D01*
X9013348Y-15021484D02*
X9032396Y-15021484D01*
X9032396Y-15021484D02*
X9051444Y-15031008D01*
X9051444Y-15031008D02*
X9060968Y-15040531D01*
X9060968Y-15040531D02*
X9070491Y-15059579D01*
X9070491Y-15059579D02*
X9080015Y-15097674D01*
X9080015Y-15097674D02*
X9080015Y-15145293D01*
X9080015Y-15145293D02*
X9070491Y-15183388D01*
X9070491Y-15183388D02*
X9060968Y-15202436D01*
X9060968Y-15202436D02*
X9051444Y-15211960D01*
X9051444Y-15211960D02*
X9032396Y-15221484D01*
X9032396Y-15221484D02*
X9013348Y-15221484D01*
X9013348Y-15221484D02*
X8994301Y-15211960D01*
X8994301Y-15211960D02*
X8984777Y-15202436D01*
X8984777Y-15202436D02*
X8975253Y-15183388D01*
X8975253Y-15183388D02*
X8965729Y-15145293D01*
X8965729Y-15145293D02*
X8965729Y-15097674D01*
X8965729Y-15097674D02*
X8975253Y-15059579D01*
X8975253Y-15059579D02*
X8984777Y-15040531D01*
X8984777Y-15040531D02*
X8994301Y-15031008D01*
X8994301Y-15031008D02*
X9013348Y-15021484D01*
X9270491Y-15221484D02*
X9156206Y-15221484D01*
X9213348Y-15221484D02*
X9213348Y-15021484D01*
X9213348Y-15021484D02*
X9194301Y-15050055D01*
X9194301Y-15050055D02*
X9175253Y-15069103D01*
X9175253Y-15069103D02*
X9156206Y-15078627D01*
X9460968Y-15221484D02*
X9346682Y-15221484D01*
X9403825Y-15221484D02*
X9403825Y-15021484D01*
X9403825Y-15021484D02*
X9384777Y-15050055D01*
X9384777Y-15050055D02*
X9365729Y-15069103D01*
X9365729Y-15069103D02*
X9346682Y-15078627D01*
X9575253Y-15107198D02*
X9556206Y-15097674D01*
X9556206Y-15097674D02*
X9546682Y-15088150D01*
X9546682Y-15088150D02*
X9537158Y-15069103D01*
X9537158Y-15069103D02*
X9537158Y-15059579D01*
X9537158Y-15059579D02*
X9546682Y-15040531D01*
X9546682Y-15040531D02*
X9556206Y-15031008D01*
X9556206Y-15031008D02*
X9575253Y-15021484D01*
X9575253Y-15021484D02*
X9613349Y-15021484D01*
X9613349Y-15021484D02*
X9632396Y-15031008D01*
X9632396Y-15031008D02*
X9641920Y-15040531D01*
X9641920Y-15040531D02*
X9651444Y-15059579D01*
X9651444Y-15059579D02*
X9651444Y-15069103D01*
X9651444Y-15069103D02*
X9641920Y-15088150D01*
X9641920Y-15088150D02*
X9632396Y-15097674D01*
X9632396Y-15097674D02*
X9613349Y-15107198D01*
X9613349Y-15107198D02*
X9575253Y-15107198D01*
X9575253Y-15107198D02*
X9556206Y-15116722D01*
X9556206Y-15116722D02*
X9546682Y-15126246D01*
X9546682Y-15126246D02*
X9537158Y-15145293D01*
X9537158Y-15145293D02*
X9537158Y-15183388D01*
X9537158Y-15183388D02*
X9546682Y-15202436D01*
X9546682Y-15202436D02*
X9556206Y-15211960D01*
X9556206Y-15211960D02*
X9575253Y-15221484D01*
X9575253Y-15221484D02*
X9613349Y-15221484D01*
X9613349Y-15221484D02*
X9632396Y-15211960D01*
X9632396Y-15211960D02*
X9641920Y-15202436D01*
X9641920Y-15202436D02*
X9651444Y-15183388D01*
X9651444Y-15183388D02*
X9651444Y-15145293D01*
X9651444Y-15145293D02*
X9641920Y-15126246D01*
X9641920Y-15126246D02*
X9632396Y-15116722D01*
X9632396Y-15116722D02*
X9613349Y-15107198D01*
X9727634Y-15021484D02*
X9727634Y-15059579D01*
X9803825Y-15021484D02*
X9803825Y-15059579D01*
X10099063Y-15297674D02*
X10089539Y-15288150D01*
X10089539Y-15288150D02*
X10070491Y-15259579D01*
X10070491Y-15259579D02*
X10060968Y-15240531D01*
X10060968Y-15240531D02*
X10051444Y-15211960D01*
X10051444Y-15211960D02*
X10041920Y-15164341D01*
X10041920Y-15164341D02*
X10041920Y-15126246D01*
X10041920Y-15126246D02*
X10051444Y-15078627D01*
X10051444Y-15078627D02*
X10060968Y-15050055D01*
X10060968Y-15050055D02*
X10070491Y-15031008D01*
X10070491Y-15031008D02*
X10089539Y-15002436D01*
X10089539Y-15002436D02*
X10099063Y-14992912D01*
X10280015Y-15221484D02*
X10165730Y-15221484D01*
X10222872Y-15221484D02*
X10222872Y-15021484D01*
X10222872Y-15021484D02*
X10203825Y-15050055D01*
X10203825Y-15050055D02*
X10184777Y-15069103D01*
X10184777Y-15069103D02*
X10165730Y-15078627D01*
X10460968Y-15021484D02*
X10365730Y-15021484D01*
X10365730Y-15021484D02*
X10356206Y-15116722D01*
X10356206Y-15116722D02*
X10365730Y-15107198D01*
X10365730Y-15107198D02*
X10384777Y-15097674D01*
X10384777Y-15097674D02*
X10432396Y-15097674D01*
X10432396Y-15097674D02*
X10451444Y-15107198D01*
X10451444Y-15107198D02*
X10460968Y-15116722D01*
X10460968Y-15116722D02*
X10470491Y-15135769D01*
X10470491Y-15135769D02*
X10470491Y-15183388D01*
X10470491Y-15183388D02*
X10460968Y-15202436D01*
X10460968Y-15202436D02*
X10451444Y-15211960D01*
X10451444Y-15211960D02*
X10432396Y-15221484D01*
X10432396Y-15221484D02*
X10384777Y-15221484D01*
X10384777Y-15221484D02*
X10365730Y-15211960D01*
X10365730Y-15211960D02*
X10356206Y-15202436D01*
X10708587Y-15221484D02*
X10708587Y-15021484D01*
X10794301Y-15221484D02*
X10794301Y-15116722D01*
X10794301Y-15116722D02*
X10784777Y-15097674D01*
X10784777Y-15097674D02*
X10765730Y-15088150D01*
X10765730Y-15088150D02*
X10737158Y-15088150D01*
X10737158Y-15088150D02*
X10718111Y-15097674D01*
X10718111Y-15097674D02*
X10708587Y-15107198D01*
X10918111Y-15221484D02*
X10899063Y-15211960D01*
X10899063Y-15211960D02*
X10889539Y-15202436D01*
X10889539Y-15202436D02*
X10880015Y-15183388D01*
X10880015Y-15183388D02*
X10880015Y-15126246D01*
X10880015Y-15126246D02*
X10889539Y-15107198D01*
X10889539Y-15107198D02*
X10899063Y-15097674D01*
X10899063Y-15097674D02*
X10918111Y-15088150D01*
X10918111Y-15088150D02*
X10946682Y-15088150D01*
X10946682Y-15088150D02*
X10965730Y-15097674D01*
X10965730Y-15097674D02*
X10975253Y-15107198D01*
X10975253Y-15107198D02*
X10984777Y-15126246D01*
X10984777Y-15126246D02*
X10984777Y-15183388D01*
X10984777Y-15183388D02*
X10975253Y-15202436D01*
X10975253Y-15202436D02*
X10965730Y-15211960D01*
X10965730Y-15211960D02*
X10946682Y-15221484D01*
X10946682Y-15221484D02*
X10918111Y-15221484D01*
X11099063Y-15221484D02*
X11080015Y-15211960D01*
X11080015Y-15211960D02*
X11070492Y-15192912D01*
X11070492Y-15192912D02*
X11070492Y-15021484D01*
X11251444Y-15211960D02*
X11232396Y-15221484D01*
X11232396Y-15221484D02*
X11194301Y-15221484D01*
X11194301Y-15221484D02*
X11175253Y-15211960D01*
X11175253Y-15211960D02*
X11165730Y-15192912D01*
X11165730Y-15192912D02*
X11165730Y-15116722D01*
X11165730Y-15116722D02*
X11175253Y-15097674D01*
X11175253Y-15097674D02*
X11194301Y-15088150D01*
X11194301Y-15088150D02*
X11232396Y-15088150D01*
X11232396Y-15088150D02*
X11251444Y-15097674D01*
X11251444Y-15097674D02*
X11260968Y-15116722D01*
X11260968Y-15116722D02*
X11260968Y-15135769D01*
X11260968Y-15135769D02*
X11165730Y-15154817D01*
X11337158Y-15211960D02*
X11356206Y-15221484D01*
X11356206Y-15221484D02*
X11394301Y-15221484D01*
X11394301Y-15221484D02*
X11413349Y-15211960D01*
X11413349Y-15211960D02*
X11422872Y-15192912D01*
X11422872Y-15192912D02*
X11422872Y-15183388D01*
X11422872Y-15183388D02*
X11413349Y-15164341D01*
X11413349Y-15164341D02*
X11394301Y-15154817D01*
X11394301Y-15154817D02*
X11365730Y-15154817D01*
X11365730Y-15154817D02*
X11346682Y-15145293D01*
X11346682Y-15145293D02*
X11337158Y-15126246D01*
X11337158Y-15126246D02*
X11337158Y-15116722D01*
X11337158Y-15116722D02*
X11346682Y-15097674D01*
X11346682Y-15097674D02*
X11365730Y-15088150D01*
X11365730Y-15088150D02*
X11394301Y-15088150D01*
X11394301Y-15088150D02*
X11413349Y-15097674D01*
X11489539Y-15297674D02*
X11499063Y-15288150D01*
X11499063Y-15288150D02*
X11518111Y-15259579D01*
X11518111Y-15259579D02*
X11527634Y-15240531D01*
X11527634Y-15240531D02*
X11537158Y-15211960D01*
X11537158Y-15211960D02*
X11546682Y-15164341D01*
X11546682Y-15164341D02*
X11546682Y-15126246D01*
X11546682Y-15126246D02*
X11537158Y-15078627D01*
X11537158Y-15078627D02*
X11527634Y-15050055D01*
X11527634Y-15050055D02*
X11518111Y-15031008D01*
X11518111Y-15031008D02*
X11499063Y-15002436D01*
X11499063Y-15002436D02*
X11489539Y-14992912D01*
D11*
X6524000Y-15394000D02*
G75*
G02*
X6444000Y-15394000I-40000J0D01*
G01*
X6444000Y-15394000D02*
G75*
G02*
X6524000Y-15394000I40000J0D01*
G01*
D10*
X6822872Y-15285484D02*
X6841920Y-15285484D01*
X6841920Y-15285484D02*
X6860967Y-15295008D01*
X6860967Y-15295008D02*
X6870491Y-15304531D01*
X6870491Y-15304531D02*
X6880015Y-15323579D01*
X6880015Y-15323579D02*
X6889539Y-15361674D01*
X6889539Y-15361674D02*
X6889539Y-15409293D01*
X6889539Y-15409293D02*
X6880015Y-15447388D01*
X6880015Y-15447388D02*
X6870491Y-15466436D01*
X6870491Y-15466436D02*
X6860967Y-15475960D01*
X6860967Y-15475960D02*
X6841920Y-15485484D01*
X6841920Y-15485484D02*
X6822872Y-15485484D01*
X6822872Y-15485484D02*
X6803824Y-15475960D01*
X6803824Y-15475960D02*
X6794301Y-15466436D01*
X6794301Y-15466436D02*
X6784777Y-15447388D01*
X6784777Y-15447388D02*
X6775253Y-15409293D01*
X6775253Y-15409293D02*
X6775253Y-15361674D01*
X6775253Y-15361674D02*
X6784777Y-15323579D01*
X6784777Y-15323579D02*
X6794301Y-15304531D01*
X6794301Y-15304531D02*
X6803824Y-15295008D01*
X6803824Y-15295008D02*
X6822872Y-15285484D01*
X6975253Y-15466436D02*
X6984777Y-15475960D01*
X6984777Y-15475960D02*
X6975253Y-15485484D01*
X6975253Y-15485484D02*
X6965729Y-15475960D01*
X6965729Y-15475960D02*
X6975253Y-15466436D01*
X6975253Y-15466436D02*
X6975253Y-15485484D01*
X7099062Y-15371198D02*
X7080015Y-15361674D01*
X7080015Y-15361674D02*
X7070491Y-15352150D01*
X7070491Y-15352150D02*
X7060967Y-15333103D01*
X7060967Y-15333103D02*
X7060967Y-15323579D01*
X7060967Y-15323579D02*
X7070491Y-15304531D01*
X7070491Y-15304531D02*
X7080015Y-15295008D01*
X7080015Y-15295008D02*
X7099062Y-15285484D01*
X7099062Y-15285484D02*
X7137158Y-15285484D01*
X7137158Y-15285484D02*
X7156205Y-15295008D01*
X7156205Y-15295008D02*
X7165729Y-15304531D01*
X7165729Y-15304531D02*
X7175253Y-15323579D01*
X7175253Y-15323579D02*
X7175253Y-15333103D01*
X7175253Y-15333103D02*
X7165729Y-15352150D01*
X7165729Y-15352150D02*
X7156205Y-15361674D01*
X7156205Y-15361674D02*
X7137158Y-15371198D01*
X7137158Y-15371198D02*
X7099062Y-15371198D01*
X7099062Y-15371198D02*
X7080015Y-15380722D01*
X7080015Y-15380722D02*
X7070491Y-15390246D01*
X7070491Y-15390246D02*
X7060967Y-15409293D01*
X7060967Y-15409293D02*
X7060967Y-15447388D01*
X7060967Y-15447388D02*
X7070491Y-15466436D01*
X7070491Y-15466436D02*
X7080015Y-15475960D01*
X7080015Y-15475960D02*
X7099062Y-15485484D01*
X7099062Y-15485484D02*
X7137158Y-15485484D01*
X7137158Y-15485484D02*
X7156205Y-15475960D01*
X7156205Y-15475960D02*
X7165729Y-15466436D01*
X7165729Y-15466436D02*
X7175253Y-15447388D01*
X7175253Y-15447388D02*
X7175253Y-15409293D01*
X7175253Y-15409293D02*
X7165729Y-15390246D01*
X7165729Y-15390246D02*
X7156205Y-15380722D01*
X7156205Y-15380722D02*
X7137158Y-15371198D01*
X7299062Y-15285484D02*
X7318110Y-15285484D01*
X7318110Y-15285484D02*
X7337158Y-15295008D01*
X7337158Y-15295008D02*
X7346682Y-15304531D01*
X7346682Y-15304531D02*
X7356205Y-15323579D01*
X7356205Y-15323579D02*
X7365729Y-15361674D01*
X7365729Y-15361674D02*
X7365729Y-15409293D01*
X7365729Y-15409293D02*
X7356205Y-15447388D01*
X7356205Y-15447388D02*
X7346682Y-15466436D01*
X7346682Y-15466436D02*
X7337158Y-15475960D01*
X7337158Y-15475960D02*
X7318110Y-15485484D01*
X7318110Y-15485484D02*
X7299062Y-15485484D01*
X7299062Y-15485484D02*
X7280015Y-15475960D01*
X7280015Y-15475960D02*
X7270491Y-15466436D01*
X7270491Y-15466436D02*
X7260967Y-15447388D01*
X7260967Y-15447388D02*
X7251443Y-15409293D01*
X7251443Y-15409293D02*
X7251443Y-15361674D01*
X7251443Y-15361674D02*
X7260967Y-15323579D01*
X7260967Y-15323579D02*
X7270491Y-15304531D01*
X7270491Y-15304531D02*
X7280015Y-15295008D01*
X7280015Y-15295008D02*
X7299062Y-15285484D01*
X7489539Y-15285484D02*
X7508586Y-15285484D01*
X7508586Y-15285484D02*
X7527634Y-15295008D01*
X7527634Y-15295008D02*
X7537158Y-15304531D01*
X7537158Y-15304531D02*
X7546682Y-15323579D01*
X7546682Y-15323579D02*
X7556205Y-15361674D01*
X7556205Y-15361674D02*
X7556205Y-15409293D01*
X7556205Y-15409293D02*
X7546682Y-15447388D01*
X7546682Y-15447388D02*
X7537158Y-15466436D01*
X7537158Y-15466436D02*
X7527634Y-15475960D01*
X7527634Y-15475960D02*
X7508586Y-15485484D01*
X7508586Y-15485484D02*
X7489539Y-15485484D01*
X7489539Y-15485484D02*
X7470491Y-15475960D01*
X7470491Y-15475960D02*
X7460967Y-15466436D01*
X7460967Y-15466436D02*
X7451443Y-15447388D01*
X7451443Y-15447388D02*
X7441920Y-15409293D01*
X7441920Y-15409293D02*
X7441920Y-15361674D01*
X7441920Y-15361674D02*
X7451443Y-15323579D01*
X7451443Y-15323579D02*
X7460967Y-15304531D01*
X7460967Y-15304531D02*
X7470491Y-15295008D01*
X7470491Y-15295008D02*
X7489539Y-15285484D01*
X7641920Y-15485484D02*
X7641920Y-15352150D01*
X7641920Y-15371198D02*
X7651443Y-15361674D01*
X7651443Y-15361674D02*
X7670491Y-15352150D01*
X7670491Y-15352150D02*
X7699063Y-15352150D01*
X7699063Y-15352150D02*
X7718110Y-15361674D01*
X7718110Y-15361674D02*
X7727634Y-15380722D01*
X7727634Y-15380722D02*
X7727634Y-15485484D01*
X7727634Y-15380722D02*
X7737158Y-15361674D01*
X7737158Y-15361674D02*
X7756205Y-15352150D01*
X7756205Y-15352150D02*
X7784777Y-15352150D01*
X7784777Y-15352150D02*
X7803824Y-15361674D01*
X7803824Y-15361674D02*
X7813348Y-15380722D01*
X7813348Y-15380722D02*
X7813348Y-15485484D01*
X7908586Y-15485484D02*
X7908586Y-15352150D01*
X7908586Y-15371198D02*
X7918110Y-15361674D01*
X7918110Y-15361674D02*
X7937158Y-15352150D01*
X7937158Y-15352150D02*
X7965729Y-15352150D01*
X7965729Y-15352150D02*
X7984777Y-15361674D01*
X7984777Y-15361674D02*
X7994301Y-15380722D01*
X7994301Y-15380722D02*
X7994301Y-15485484D01*
X7994301Y-15380722D02*
X8003824Y-15361674D01*
X8003824Y-15361674D02*
X8022872Y-15352150D01*
X8022872Y-15352150D02*
X8051443Y-15352150D01*
X8051443Y-15352150D02*
X8070491Y-15361674D01*
X8070491Y-15361674D02*
X8080015Y-15380722D01*
X8080015Y-15380722D02*
X8080015Y-15485484D01*
X8470491Y-15275960D02*
X8299063Y-15533103D01*
X8727634Y-15285484D02*
X8746682Y-15285484D01*
X8746682Y-15285484D02*
X8765729Y-15295008D01*
X8765729Y-15295008D02*
X8775253Y-15304531D01*
X8775253Y-15304531D02*
X8784777Y-15323579D01*
X8784777Y-15323579D02*
X8794301Y-15361674D01*
X8794301Y-15361674D02*
X8794301Y-15409293D01*
X8794301Y-15409293D02*
X8784777Y-15447388D01*
X8784777Y-15447388D02*
X8775253Y-15466436D01*
X8775253Y-15466436D02*
X8765729Y-15475960D01*
X8765729Y-15475960D02*
X8746682Y-15485484D01*
X8746682Y-15485484D02*
X8727634Y-15485484D01*
X8727634Y-15485484D02*
X8708587Y-15475960D01*
X8708587Y-15475960D02*
X8699063Y-15466436D01*
X8699063Y-15466436D02*
X8689539Y-15447388D01*
X8689539Y-15447388D02*
X8680015Y-15409293D01*
X8680015Y-15409293D02*
X8680015Y-15361674D01*
X8680015Y-15361674D02*
X8689539Y-15323579D01*
X8689539Y-15323579D02*
X8699063Y-15304531D01*
X8699063Y-15304531D02*
X8708587Y-15295008D01*
X8708587Y-15295008D02*
X8727634Y-15285484D01*
X8880015Y-15466436D02*
X8889539Y-15475960D01*
X8889539Y-15475960D02*
X8880015Y-15485484D01*
X8880015Y-15485484D02*
X8870491Y-15475960D01*
X8870491Y-15475960D02*
X8880015Y-15466436D01*
X8880015Y-15466436D02*
X8880015Y-15485484D01*
X9013348Y-15285484D02*
X9032396Y-15285484D01*
X9032396Y-15285484D02*
X9051444Y-15295008D01*
X9051444Y-15295008D02*
X9060968Y-15304531D01*
X9060968Y-15304531D02*
X9070491Y-15323579D01*
X9070491Y-15323579D02*
X9080015Y-15361674D01*
X9080015Y-15361674D02*
X9080015Y-15409293D01*
X9080015Y-15409293D02*
X9070491Y-15447388D01*
X9070491Y-15447388D02*
X9060968Y-15466436D01*
X9060968Y-15466436D02*
X9051444Y-15475960D01*
X9051444Y-15475960D02*
X9032396Y-15485484D01*
X9032396Y-15485484D02*
X9013348Y-15485484D01*
X9013348Y-15485484D02*
X8994301Y-15475960D01*
X8994301Y-15475960D02*
X8984777Y-15466436D01*
X8984777Y-15466436D02*
X8975253Y-15447388D01*
X8975253Y-15447388D02*
X8965729Y-15409293D01*
X8965729Y-15409293D02*
X8965729Y-15361674D01*
X8965729Y-15361674D02*
X8975253Y-15323579D01*
X8975253Y-15323579D02*
X8984777Y-15304531D01*
X8984777Y-15304531D02*
X8994301Y-15295008D01*
X8994301Y-15295008D02*
X9013348Y-15285484D01*
X9146682Y-15285484D02*
X9270491Y-15285484D01*
X9270491Y-15285484D02*
X9203825Y-15361674D01*
X9203825Y-15361674D02*
X9232396Y-15361674D01*
X9232396Y-15361674D02*
X9251444Y-15371198D01*
X9251444Y-15371198D02*
X9260968Y-15380722D01*
X9260968Y-15380722D02*
X9270491Y-15399769D01*
X9270491Y-15399769D02*
X9270491Y-15447388D01*
X9270491Y-15447388D02*
X9260968Y-15466436D01*
X9260968Y-15466436D02*
X9251444Y-15475960D01*
X9251444Y-15475960D02*
X9232396Y-15485484D01*
X9232396Y-15485484D02*
X9175253Y-15485484D01*
X9175253Y-15485484D02*
X9156206Y-15475960D01*
X9156206Y-15475960D02*
X9146682Y-15466436D01*
X9460968Y-15485484D02*
X9346682Y-15485484D01*
X9403825Y-15485484D02*
X9403825Y-15285484D01*
X9403825Y-15285484D02*
X9384777Y-15314055D01*
X9384777Y-15314055D02*
X9365729Y-15333103D01*
X9365729Y-15333103D02*
X9346682Y-15342627D01*
X9641920Y-15285484D02*
X9546682Y-15285484D01*
X9546682Y-15285484D02*
X9537158Y-15380722D01*
X9537158Y-15380722D02*
X9546682Y-15371198D01*
X9546682Y-15371198D02*
X9565729Y-15361674D01*
X9565729Y-15361674D02*
X9613349Y-15361674D01*
X9613349Y-15361674D02*
X9632396Y-15371198D01*
X9632396Y-15371198D02*
X9641920Y-15380722D01*
X9641920Y-15380722D02*
X9651444Y-15399769D01*
X9651444Y-15399769D02*
X9651444Y-15447388D01*
X9651444Y-15447388D02*
X9641920Y-15466436D01*
X9641920Y-15466436D02*
X9632396Y-15475960D01*
X9632396Y-15475960D02*
X9613349Y-15485484D01*
X9613349Y-15485484D02*
X9565729Y-15485484D01*
X9565729Y-15485484D02*
X9546682Y-15475960D01*
X9546682Y-15475960D02*
X9537158Y-15466436D01*
X9727634Y-15285484D02*
X9727634Y-15323579D01*
X9803825Y-15285484D02*
X9803825Y-15323579D01*
X10099063Y-15561674D02*
X10089539Y-15552150D01*
X10089539Y-15552150D02*
X10070491Y-15523579D01*
X10070491Y-15523579D02*
X10060968Y-15504531D01*
X10060968Y-15504531D02*
X10051444Y-15475960D01*
X10051444Y-15475960D02*
X10041920Y-15428341D01*
X10041920Y-15428341D02*
X10041920Y-15390246D01*
X10041920Y-15390246D02*
X10051444Y-15342627D01*
X10051444Y-15342627D02*
X10060968Y-15314055D01*
X10060968Y-15314055D02*
X10070491Y-15295008D01*
X10070491Y-15295008D02*
X10089539Y-15266436D01*
X10089539Y-15266436D02*
X10099063Y-15256912D01*
X10270491Y-15285484D02*
X10175253Y-15285484D01*
X10175253Y-15285484D02*
X10165730Y-15380722D01*
X10165730Y-15380722D02*
X10175253Y-15371198D01*
X10175253Y-15371198D02*
X10194301Y-15361674D01*
X10194301Y-15361674D02*
X10241920Y-15361674D01*
X10241920Y-15361674D02*
X10260968Y-15371198D01*
X10260968Y-15371198D02*
X10270491Y-15380722D01*
X10270491Y-15380722D02*
X10280015Y-15399769D01*
X10280015Y-15399769D02*
X10280015Y-15447388D01*
X10280015Y-15447388D02*
X10270491Y-15466436D01*
X10270491Y-15466436D02*
X10260968Y-15475960D01*
X10260968Y-15475960D02*
X10241920Y-15485484D01*
X10241920Y-15485484D02*
X10194301Y-15485484D01*
X10194301Y-15485484D02*
X10175253Y-15475960D01*
X10175253Y-15475960D02*
X10165730Y-15466436D01*
X10403825Y-15285484D02*
X10422872Y-15285484D01*
X10422872Y-15285484D02*
X10441920Y-15295008D01*
X10441920Y-15295008D02*
X10451444Y-15304531D01*
X10451444Y-15304531D02*
X10460968Y-15323579D01*
X10460968Y-15323579D02*
X10470491Y-15361674D01*
X10470491Y-15361674D02*
X10470491Y-15409293D01*
X10470491Y-15409293D02*
X10460968Y-15447388D01*
X10460968Y-15447388D02*
X10451444Y-15466436D01*
X10451444Y-15466436D02*
X10441920Y-15475960D01*
X10441920Y-15475960D02*
X10422872Y-15485484D01*
X10422872Y-15485484D02*
X10403825Y-15485484D01*
X10403825Y-15485484D02*
X10384777Y-15475960D01*
X10384777Y-15475960D02*
X10375253Y-15466436D01*
X10375253Y-15466436D02*
X10365730Y-15447388D01*
X10365730Y-15447388D02*
X10356206Y-15409293D01*
X10356206Y-15409293D02*
X10356206Y-15361674D01*
X10356206Y-15361674D02*
X10365730Y-15323579D01*
X10365730Y-15323579D02*
X10375253Y-15304531D01*
X10375253Y-15304531D02*
X10384777Y-15295008D01*
X10384777Y-15295008D02*
X10403825Y-15285484D01*
X10708587Y-15485484D02*
X10708587Y-15285484D01*
X10794301Y-15485484D02*
X10794301Y-15380722D01*
X10794301Y-15380722D02*
X10784777Y-15361674D01*
X10784777Y-15361674D02*
X10765730Y-15352150D01*
X10765730Y-15352150D02*
X10737158Y-15352150D01*
X10737158Y-15352150D02*
X10718111Y-15361674D01*
X10718111Y-15361674D02*
X10708587Y-15371198D01*
X10918111Y-15485484D02*
X10899063Y-15475960D01*
X10899063Y-15475960D02*
X10889539Y-15466436D01*
X10889539Y-15466436D02*
X10880015Y-15447388D01*
X10880015Y-15447388D02*
X10880015Y-15390246D01*
X10880015Y-15390246D02*
X10889539Y-15371198D01*
X10889539Y-15371198D02*
X10899063Y-15361674D01*
X10899063Y-15361674D02*
X10918111Y-15352150D01*
X10918111Y-15352150D02*
X10946682Y-15352150D01*
X10946682Y-15352150D02*
X10965730Y-15361674D01*
X10965730Y-15361674D02*
X10975253Y-15371198D01*
X10975253Y-15371198D02*
X10984777Y-15390246D01*
X10984777Y-15390246D02*
X10984777Y-15447388D01*
X10984777Y-15447388D02*
X10975253Y-15466436D01*
X10975253Y-15466436D02*
X10965730Y-15475960D01*
X10965730Y-15475960D02*
X10946682Y-15485484D01*
X10946682Y-15485484D02*
X10918111Y-15485484D01*
X11099063Y-15485484D02*
X11080015Y-15475960D01*
X11080015Y-15475960D02*
X11070492Y-15456912D01*
X11070492Y-15456912D02*
X11070492Y-15285484D01*
X11251444Y-15475960D02*
X11232396Y-15485484D01*
X11232396Y-15485484D02*
X11194301Y-15485484D01*
X11194301Y-15485484D02*
X11175253Y-15475960D01*
X11175253Y-15475960D02*
X11165730Y-15456912D01*
X11165730Y-15456912D02*
X11165730Y-15380722D01*
X11165730Y-15380722D02*
X11175253Y-15361674D01*
X11175253Y-15361674D02*
X11194301Y-15352150D01*
X11194301Y-15352150D02*
X11232396Y-15352150D01*
X11232396Y-15352150D02*
X11251444Y-15361674D01*
X11251444Y-15361674D02*
X11260968Y-15380722D01*
X11260968Y-15380722D02*
X11260968Y-15399769D01*
X11260968Y-15399769D02*
X11165730Y-15418817D01*
X11337158Y-15475960D02*
X11356206Y-15485484D01*
X11356206Y-15485484D02*
X11394301Y-15485484D01*
X11394301Y-15485484D02*
X11413349Y-15475960D01*
X11413349Y-15475960D02*
X11422872Y-15456912D01*
X11422872Y-15456912D02*
X11422872Y-15447388D01*
X11422872Y-15447388D02*
X11413349Y-15428341D01*
X11413349Y-15428341D02*
X11394301Y-15418817D01*
X11394301Y-15418817D02*
X11365730Y-15418817D01*
X11365730Y-15418817D02*
X11346682Y-15409293D01*
X11346682Y-15409293D02*
X11337158Y-15390246D01*
X11337158Y-15390246D02*
X11337158Y-15380722D01*
X11337158Y-15380722D02*
X11346682Y-15361674D01*
X11346682Y-15361674D02*
X11365730Y-15352150D01*
X11365730Y-15352150D02*
X11394301Y-15352150D01*
X11394301Y-15352150D02*
X11413349Y-15361674D01*
X11489539Y-15561674D02*
X11499063Y-15552150D01*
X11499063Y-15552150D02*
X11518111Y-15523579D01*
X11518111Y-15523579D02*
X11527634Y-15504531D01*
X11527634Y-15504531D02*
X11537158Y-15475960D01*
X11537158Y-15475960D02*
X11546682Y-15428341D01*
X11546682Y-15428341D02*
X11546682Y-15390246D01*
X11546682Y-15390246D02*
X11537158Y-15342627D01*
X11537158Y-15342627D02*
X11527634Y-15314055D01*
X11527634Y-15314055D02*
X11518111Y-15295008D01*
X11518111Y-15295008D02*
X11499063Y-15266436D01*
X11499063Y-15266436D02*
X11489539Y-15256912D01*
D11*
X6474000Y-15608000D02*
X6474000Y-15708000D01*
X6424000Y-15658000D02*
X6524000Y-15658000D01*
D10*
X6889539Y-15749484D02*
X6775253Y-15749484D01*
X6832396Y-15749484D02*
X6832396Y-15549484D01*
X6832396Y-15549484D02*
X6813348Y-15578055D01*
X6813348Y-15578055D02*
X6794301Y-15597103D01*
X6794301Y-15597103D02*
X6775253Y-15606627D01*
X6975253Y-15730436D02*
X6984777Y-15739960D01*
X6984777Y-15739960D02*
X6975253Y-15749484D01*
X6975253Y-15749484D02*
X6965729Y-15739960D01*
X6965729Y-15739960D02*
X6975253Y-15730436D01*
X6975253Y-15730436D02*
X6975253Y-15749484D01*
X7108586Y-15549484D02*
X7127634Y-15549484D01*
X7127634Y-15549484D02*
X7146682Y-15559008D01*
X7146682Y-15559008D02*
X7156205Y-15568531D01*
X7156205Y-15568531D02*
X7165729Y-15587579D01*
X7165729Y-15587579D02*
X7175253Y-15625674D01*
X7175253Y-15625674D02*
X7175253Y-15673293D01*
X7175253Y-15673293D02*
X7165729Y-15711388D01*
X7165729Y-15711388D02*
X7156205Y-15730436D01*
X7156205Y-15730436D02*
X7146682Y-15739960D01*
X7146682Y-15739960D02*
X7127634Y-15749484D01*
X7127634Y-15749484D02*
X7108586Y-15749484D01*
X7108586Y-15749484D02*
X7089539Y-15739960D01*
X7089539Y-15739960D02*
X7080015Y-15730436D01*
X7080015Y-15730436D02*
X7070491Y-15711388D01*
X7070491Y-15711388D02*
X7060967Y-15673293D01*
X7060967Y-15673293D02*
X7060967Y-15625674D01*
X7060967Y-15625674D02*
X7070491Y-15587579D01*
X7070491Y-15587579D02*
X7080015Y-15568531D01*
X7080015Y-15568531D02*
X7089539Y-15559008D01*
X7089539Y-15559008D02*
X7108586Y-15549484D01*
X7299062Y-15549484D02*
X7318110Y-15549484D01*
X7318110Y-15549484D02*
X7337158Y-15559008D01*
X7337158Y-15559008D02*
X7346682Y-15568531D01*
X7346682Y-15568531D02*
X7356205Y-15587579D01*
X7356205Y-15587579D02*
X7365729Y-15625674D01*
X7365729Y-15625674D02*
X7365729Y-15673293D01*
X7365729Y-15673293D02*
X7356205Y-15711388D01*
X7356205Y-15711388D02*
X7346682Y-15730436D01*
X7346682Y-15730436D02*
X7337158Y-15739960D01*
X7337158Y-15739960D02*
X7318110Y-15749484D01*
X7318110Y-15749484D02*
X7299062Y-15749484D01*
X7299062Y-15749484D02*
X7280015Y-15739960D01*
X7280015Y-15739960D02*
X7270491Y-15730436D01*
X7270491Y-15730436D02*
X7260967Y-15711388D01*
X7260967Y-15711388D02*
X7251443Y-15673293D01*
X7251443Y-15673293D02*
X7251443Y-15625674D01*
X7251443Y-15625674D02*
X7260967Y-15587579D01*
X7260967Y-15587579D02*
X7270491Y-15568531D01*
X7270491Y-15568531D02*
X7280015Y-15559008D01*
X7280015Y-15559008D02*
X7299062Y-15549484D01*
X7489539Y-15549484D02*
X7508586Y-15549484D01*
X7508586Y-15549484D02*
X7527634Y-15559008D01*
X7527634Y-15559008D02*
X7537158Y-15568531D01*
X7537158Y-15568531D02*
X7546682Y-15587579D01*
X7546682Y-15587579D02*
X7556205Y-15625674D01*
X7556205Y-15625674D02*
X7556205Y-15673293D01*
X7556205Y-15673293D02*
X7546682Y-15711388D01*
X7546682Y-15711388D02*
X7537158Y-15730436D01*
X7537158Y-15730436D02*
X7527634Y-15739960D01*
X7527634Y-15739960D02*
X7508586Y-15749484D01*
X7508586Y-15749484D02*
X7489539Y-15749484D01*
X7489539Y-15749484D02*
X7470491Y-15739960D01*
X7470491Y-15739960D02*
X7460967Y-15730436D01*
X7460967Y-15730436D02*
X7451443Y-15711388D01*
X7451443Y-15711388D02*
X7441920Y-15673293D01*
X7441920Y-15673293D02*
X7441920Y-15625674D01*
X7441920Y-15625674D02*
X7451443Y-15587579D01*
X7451443Y-15587579D02*
X7460967Y-15568531D01*
X7460967Y-15568531D02*
X7470491Y-15559008D01*
X7470491Y-15559008D02*
X7489539Y-15549484D01*
X7641920Y-15749484D02*
X7641920Y-15616150D01*
X7641920Y-15635198D02*
X7651443Y-15625674D01*
X7651443Y-15625674D02*
X7670491Y-15616150D01*
X7670491Y-15616150D02*
X7699063Y-15616150D01*
X7699063Y-15616150D02*
X7718110Y-15625674D01*
X7718110Y-15625674D02*
X7727634Y-15644722D01*
X7727634Y-15644722D02*
X7727634Y-15749484D01*
X7727634Y-15644722D02*
X7737158Y-15625674D01*
X7737158Y-15625674D02*
X7756205Y-15616150D01*
X7756205Y-15616150D02*
X7784777Y-15616150D01*
X7784777Y-15616150D02*
X7803824Y-15625674D01*
X7803824Y-15625674D02*
X7813348Y-15644722D01*
X7813348Y-15644722D02*
X7813348Y-15749484D01*
X7908586Y-15749484D02*
X7908586Y-15616150D01*
X7908586Y-15635198D02*
X7918110Y-15625674D01*
X7918110Y-15625674D02*
X7937158Y-15616150D01*
X7937158Y-15616150D02*
X7965729Y-15616150D01*
X7965729Y-15616150D02*
X7984777Y-15625674D01*
X7984777Y-15625674D02*
X7994301Y-15644722D01*
X7994301Y-15644722D02*
X7994301Y-15749484D01*
X7994301Y-15644722D02*
X8003824Y-15625674D01*
X8003824Y-15625674D02*
X8022872Y-15616150D01*
X8022872Y-15616150D02*
X8051443Y-15616150D01*
X8051443Y-15616150D02*
X8070491Y-15625674D01*
X8070491Y-15625674D02*
X8080015Y-15644722D01*
X8080015Y-15644722D02*
X8080015Y-15749484D01*
X8470491Y-15539960D02*
X8299063Y-15797103D01*
X8727634Y-15549484D02*
X8746682Y-15549484D01*
X8746682Y-15549484D02*
X8765729Y-15559008D01*
X8765729Y-15559008D02*
X8775253Y-15568531D01*
X8775253Y-15568531D02*
X8784777Y-15587579D01*
X8784777Y-15587579D02*
X8794301Y-15625674D01*
X8794301Y-15625674D02*
X8794301Y-15673293D01*
X8794301Y-15673293D02*
X8784777Y-15711388D01*
X8784777Y-15711388D02*
X8775253Y-15730436D01*
X8775253Y-15730436D02*
X8765729Y-15739960D01*
X8765729Y-15739960D02*
X8746682Y-15749484D01*
X8746682Y-15749484D02*
X8727634Y-15749484D01*
X8727634Y-15749484D02*
X8708587Y-15739960D01*
X8708587Y-15739960D02*
X8699063Y-15730436D01*
X8699063Y-15730436D02*
X8689539Y-15711388D01*
X8689539Y-15711388D02*
X8680015Y-15673293D01*
X8680015Y-15673293D02*
X8680015Y-15625674D01*
X8680015Y-15625674D02*
X8689539Y-15587579D01*
X8689539Y-15587579D02*
X8699063Y-15568531D01*
X8699063Y-15568531D02*
X8708587Y-15559008D01*
X8708587Y-15559008D02*
X8727634Y-15549484D01*
X8880015Y-15730436D02*
X8889539Y-15739960D01*
X8889539Y-15739960D02*
X8880015Y-15749484D01*
X8880015Y-15749484D02*
X8870491Y-15739960D01*
X8870491Y-15739960D02*
X8880015Y-15730436D01*
X8880015Y-15730436D02*
X8880015Y-15749484D01*
X9013348Y-15549484D02*
X9032396Y-15549484D01*
X9032396Y-15549484D02*
X9051444Y-15559008D01*
X9051444Y-15559008D02*
X9060968Y-15568531D01*
X9060968Y-15568531D02*
X9070491Y-15587579D01*
X9070491Y-15587579D02*
X9080015Y-15625674D01*
X9080015Y-15625674D02*
X9080015Y-15673293D01*
X9080015Y-15673293D02*
X9070491Y-15711388D01*
X9070491Y-15711388D02*
X9060968Y-15730436D01*
X9060968Y-15730436D02*
X9051444Y-15739960D01*
X9051444Y-15739960D02*
X9032396Y-15749484D01*
X9032396Y-15749484D02*
X9013348Y-15749484D01*
X9013348Y-15749484D02*
X8994301Y-15739960D01*
X8994301Y-15739960D02*
X8984777Y-15730436D01*
X8984777Y-15730436D02*
X8975253Y-15711388D01*
X8975253Y-15711388D02*
X8965729Y-15673293D01*
X8965729Y-15673293D02*
X8965729Y-15625674D01*
X8965729Y-15625674D02*
X8975253Y-15587579D01*
X8975253Y-15587579D02*
X8984777Y-15568531D01*
X8984777Y-15568531D02*
X8994301Y-15559008D01*
X8994301Y-15559008D02*
X9013348Y-15549484D01*
X9146682Y-15549484D02*
X9270491Y-15549484D01*
X9270491Y-15549484D02*
X9203825Y-15625674D01*
X9203825Y-15625674D02*
X9232396Y-15625674D01*
X9232396Y-15625674D02*
X9251444Y-15635198D01*
X9251444Y-15635198D02*
X9260968Y-15644722D01*
X9260968Y-15644722D02*
X9270491Y-15663769D01*
X9270491Y-15663769D02*
X9270491Y-15711388D01*
X9270491Y-15711388D02*
X9260968Y-15730436D01*
X9260968Y-15730436D02*
X9251444Y-15739960D01*
X9251444Y-15739960D02*
X9232396Y-15749484D01*
X9232396Y-15749484D02*
X9175253Y-15749484D01*
X9175253Y-15749484D02*
X9156206Y-15739960D01*
X9156206Y-15739960D02*
X9146682Y-15730436D01*
X9365729Y-15749484D02*
X9403825Y-15749484D01*
X9403825Y-15749484D02*
X9422872Y-15739960D01*
X9422872Y-15739960D02*
X9432396Y-15730436D01*
X9432396Y-15730436D02*
X9451444Y-15701865D01*
X9451444Y-15701865D02*
X9460968Y-15663769D01*
X9460968Y-15663769D02*
X9460968Y-15587579D01*
X9460968Y-15587579D02*
X9451444Y-15568531D01*
X9451444Y-15568531D02*
X9441920Y-15559008D01*
X9441920Y-15559008D02*
X9422872Y-15549484D01*
X9422872Y-15549484D02*
X9384777Y-15549484D01*
X9384777Y-15549484D02*
X9365729Y-15559008D01*
X9365729Y-15559008D02*
X9356206Y-15568531D01*
X9356206Y-15568531D02*
X9346682Y-15587579D01*
X9346682Y-15587579D02*
X9346682Y-15635198D01*
X9346682Y-15635198D02*
X9356206Y-15654246D01*
X9356206Y-15654246D02*
X9365729Y-15663769D01*
X9365729Y-15663769D02*
X9384777Y-15673293D01*
X9384777Y-15673293D02*
X9422872Y-15673293D01*
X9422872Y-15673293D02*
X9441920Y-15663769D01*
X9441920Y-15663769D02*
X9451444Y-15654246D01*
X9451444Y-15654246D02*
X9460968Y-15635198D01*
X9632396Y-15616150D02*
X9632396Y-15749484D01*
X9584777Y-15539960D02*
X9537158Y-15682817D01*
X9537158Y-15682817D02*
X9660968Y-15682817D01*
X9727634Y-15549484D02*
X9727634Y-15587579D01*
X9803825Y-15549484D02*
X9803825Y-15587579D01*
X10099063Y-15825674D02*
X10089539Y-15816150D01*
X10089539Y-15816150D02*
X10070491Y-15787579D01*
X10070491Y-15787579D02*
X10060968Y-15768531D01*
X10060968Y-15768531D02*
X10051444Y-15739960D01*
X10051444Y-15739960D02*
X10041920Y-15692341D01*
X10041920Y-15692341D02*
X10041920Y-15654246D01*
X10041920Y-15654246D02*
X10051444Y-15606627D01*
X10051444Y-15606627D02*
X10060968Y-15578055D01*
X10060968Y-15578055D02*
X10070491Y-15559008D01*
X10070491Y-15559008D02*
X10089539Y-15530436D01*
X10089539Y-15530436D02*
X10099063Y-15520912D01*
X10270491Y-15549484D02*
X10175253Y-15549484D01*
X10175253Y-15549484D02*
X10165730Y-15644722D01*
X10165730Y-15644722D02*
X10175253Y-15635198D01*
X10175253Y-15635198D02*
X10194301Y-15625674D01*
X10194301Y-15625674D02*
X10241920Y-15625674D01*
X10241920Y-15625674D02*
X10260968Y-15635198D01*
X10260968Y-15635198D02*
X10270491Y-15644722D01*
X10270491Y-15644722D02*
X10280015Y-15663769D01*
X10280015Y-15663769D02*
X10280015Y-15711388D01*
X10280015Y-15711388D02*
X10270491Y-15730436D01*
X10270491Y-15730436D02*
X10260968Y-15739960D01*
X10260968Y-15739960D02*
X10241920Y-15749484D01*
X10241920Y-15749484D02*
X10194301Y-15749484D01*
X10194301Y-15749484D02*
X10175253Y-15739960D01*
X10175253Y-15739960D02*
X10165730Y-15730436D01*
X10451444Y-15616150D02*
X10451444Y-15749484D01*
X10403825Y-15539960D02*
X10356206Y-15682817D01*
X10356206Y-15682817D02*
X10480015Y-15682817D01*
X10708587Y-15749484D02*
X10708587Y-15549484D01*
X10794301Y-15749484D02*
X10794301Y-15644722D01*
X10794301Y-15644722D02*
X10784777Y-15625674D01*
X10784777Y-15625674D02*
X10765730Y-15616150D01*
X10765730Y-15616150D02*
X10737158Y-15616150D01*
X10737158Y-15616150D02*
X10718111Y-15625674D01*
X10718111Y-15625674D02*
X10708587Y-15635198D01*
X10918111Y-15749484D02*
X10899063Y-15739960D01*
X10899063Y-15739960D02*
X10889539Y-15730436D01*
X10889539Y-15730436D02*
X10880015Y-15711388D01*
X10880015Y-15711388D02*
X10880015Y-15654246D01*
X10880015Y-15654246D02*
X10889539Y-15635198D01*
X10889539Y-15635198D02*
X10899063Y-15625674D01*
X10899063Y-15625674D02*
X10918111Y-15616150D01*
X10918111Y-15616150D02*
X10946682Y-15616150D01*
X10946682Y-15616150D02*
X10965730Y-15625674D01*
X10965730Y-15625674D02*
X10975253Y-15635198D01*
X10975253Y-15635198D02*
X10984777Y-15654246D01*
X10984777Y-15654246D02*
X10984777Y-15711388D01*
X10984777Y-15711388D02*
X10975253Y-15730436D01*
X10975253Y-15730436D02*
X10965730Y-15739960D01*
X10965730Y-15739960D02*
X10946682Y-15749484D01*
X10946682Y-15749484D02*
X10918111Y-15749484D01*
X11099063Y-15749484D02*
X11080015Y-15739960D01*
X11080015Y-15739960D02*
X11070492Y-15720912D01*
X11070492Y-15720912D02*
X11070492Y-15549484D01*
X11251444Y-15739960D02*
X11232396Y-15749484D01*
X11232396Y-15749484D02*
X11194301Y-15749484D01*
X11194301Y-15749484D02*
X11175253Y-15739960D01*
X11175253Y-15739960D02*
X11165730Y-15720912D01*
X11165730Y-15720912D02*
X11165730Y-15644722D01*
X11165730Y-15644722D02*
X11175253Y-15625674D01*
X11175253Y-15625674D02*
X11194301Y-15616150D01*
X11194301Y-15616150D02*
X11232396Y-15616150D01*
X11232396Y-15616150D02*
X11251444Y-15625674D01*
X11251444Y-15625674D02*
X11260968Y-15644722D01*
X11260968Y-15644722D02*
X11260968Y-15663769D01*
X11260968Y-15663769D02*
X11165730Y-15682817D01*
X11337158Y-15739960D02*
X11356206Y-15749484D01*
X11356206Y-15749484D02*
X11394301Y-15749484D01*
X11394301Y-15749484D02*
X11413349Y-15739960D01*
X11413349Y-15739960D02*
X11422872Y-15720912D01*
X11422872Y-15720912D02*
X11422872Y-15711388D01*
X11422872Y-15711388D02*
X11413349Y-15692341D01*
X11413349Y-15692341D02*
X11394301Y-15682817D01*
X11394301Y-15682817D02*
X11365730Y-15682817D01*
X11365730Y-15682817D02*
X11346682Y-15673293D01*
X11346682Y-15673293D02*
X11337158Y-15654246D01*
X11337158Y-15654246D02*
X11337158Y-15644722D01*
X11337158Y-15644722D02*
X11346682Y-15625674D01*
X11346682Y-15625674D02*
X11365730Y-15616150D01*
X11365730Y-15616150D02*
X11394301Y-15616150D01*
X11394301Y-15616150D02*
X11413349Y-15625674D01*
X11489539Y-15825674D02*
X11499063Y-15816150D01*
X11499063Y-15816150D02*
X11518111Y-15787579D01*
X11518111Y-15787579D02*
X11527634Y-15768531D01*
X11527634Y-15768531D02*
X11537158Y-15739960D01*
X11537158Y-15739960D02*
X11546682Y-15692341D01*
X11546682Y-15692341D02*
X11546682Y-15654246D01*
X11546682Y-15654246D02*
X11537158Y-15606627D01*
X11537158Y-15606627D02*
X11527634Y-15578055D01*
X11527634Y-15578055D02*
X11518111Y-15559008D01*
X11518111Y-15559008D02*
X11499063Y-15530436D01*
X11499063Y-15530436D02*
X11489539Y-15520912D01*
D12*
X6506427Y-15964427D02*
X6506427Y-15879573D01*
X6421573Y-15879573D01*
X6421573Y-15964427D01*
X6506427Y-15964427D01*
D10*
X6889539Y-16013484D02*
X6775253Y-16013484D01*
X6832396Y-16013484D02*
X6832396Y-15813484D01*
X6832396Y-15813484D02*
X6813348Y-15842055D01*
X6813348Y-15842055D02*
X6794301Y-15861103D01*
X6794301Y-15861103D02*
X6775253Y-15870627D01*
X6975253Y-15994436D02*
X6984777Y-16003960D01*
X6984777Y-16003960D02*
X6975253Y-16013484D01*
X6975253Y-16013484D02*
X6965729Y-16003960D01*
X6965729Y-16003960D02*
X6975253Y-15994436D01*
X6975253Y-15994436D02*
X6975253Y-16013484D01*
X7060967Y-15832531D02*
X7070491Y-15823008D01*
X7070491Y-15823008D02*
X7089539Y-15813484D01*
X7089539Y-15813484D02*
X7137158Y-15813484D01*
X7137158Y-15813484D02*
X7156205Y-15823008D01*
X7156205Y-15823008D02*
X7165729Y-15832531D01*
X7165729Y-15832531D02*
X7175253Y-15851579D01*
X7175253Y-15851579D02*
X7175253Y-15870627D01*
X7175253Y-15870627D02*
X7165729Y-15899198D01*
X7165729Y-15899198D02*
X7051443Y-16013484D01*
X7051443Y-16013484D02*
X7175253Y-16013484D01*
X7299062Y-15813484D02*
X7318110Y-15813484D01*
X7318110Y-15813484D02*
X7337158Y-15823008D01*
X7337158Y-15823008D02*
X7346682Y-15832531D01*
X7346682Y-15832531D02*
X7356205Y-15851579D01*
X7356205Y-15851579D02*
X7365729Y-15889674D01*
X7365729Y-15889674D02*
X7365729Y-15937293D01*
X7365729Y-15937293D02*
X7356205Y-15975388D01*
X7356205Y-15975388D02*
X7346682Y-15994436D01*
X7346682Y-15994436D02*
X7337158Y-16003960D01*
X7337158Y-16003960D02*
X7318110Y-16013484D01*
X7318110Y-16013484D02*
X7299062Y-16013484D01*
X7299062Y-16013484D02*
X7280015Y-16003960D01*
X7280015Y-16003960D02*
X7270491Y-15994436D01*
X7270491Y-15994436D02*
X7260967Y-15975388D01*
X7260967Y-15975388D02*
X7251443Y-15937293D01*
X7251443Y-15937293D02*
X7251443Y-15889674D01*
X7251443Y-15889674D02*
X7260967Y-15851579D01*
X7260967Y-15851579D02*
X7270491Y-15832531D01*
X7270491Y-15832531D02*
X7280015Y-15823008D01*
X7280015Y-15823008D02*
X7299062Y-15813484D01*
X7489539Y-15813484D02*
X7508586Y-15813484D01*
X7508586Y-15813484D02*
X7527634Y-15823008D01*
X7527634Y-15823008D02*
X7537158Y-15832531D01*
X7537158Y-15832531D02*
X7546682Y-15851579D01*
X7546682Y-15851579D02*
X7556205Y-15889674D01*
X7556205Y-15889674D02*
X7556205Y-15937293D01*
X7556205Y-15937293D02*
X7546682Y-15975388D01*
X7546682Y-15975388D02*
X7537158Y-15994436D01*
X7537158Y-15994436D02*
X7527634Y-16003960D01*
X7527634Y-16003960D02*
X7508586Y-16013484D01*
X7508586Y-16013484D02*
X7489539Y-16013484D01*
X7489539Y-16013484D02*
X7470491Y-16003960D01*
X7470491Y-16003960D02*
X7460967Y-15994436D01*
X7460967Y-15994436D02*
X7451443Y-15975388D01*
X7451443Y-15975388D02*
X7441920Y-15937293D01*
X7441920Y-15937293D02*
X7441920Y-15889674D01*
X7441920Y-15889674D02*
X7451443Y-15851579D01*
X7451443Y-15851579D02*
X7460967Y-15832531D01*
X7460967Y-15832531D02*
X7470491Y-15823008D01*
X7470491Y-15823008D02*
X7489539Y-15813484D01*
X7641920Y-16013484D02*
X7641920Y-15880150D01*
X7641920Y-15899198D02*
X7651443Y-15889674D01*
X7651443Y-15889674D02*
X7670491Y-15880150D01*
X7670491Y-15880150D02*
X7699063Y-15880150D01*
X7699063Y-15880150D02*
X7718110Y-15889674D01*
X7718110Y-15889674D02*
X7727634Y-15908722D01*
X7727634Y-15908722D02*
X7727634Y-16013484D01*
X7727634Y-15908722D02*
X7737158Y-15889674D01*
X7737158Y-15889674D02*
X7756205Y-15880150D01*
X7756205Y-15880150D02*
X7784777Y-15880150D01*
X7784777Y-15880150D02*
X7803824Y-15889674D01*
X7803824Y-15889674D02*
X7813348Y-15908722D01*
X7813348Y-15908722D02*
X7813348Y-16013484D01*
X7908586Y-16013484D02*
X7908586Y-15880150D01*
X7908586Y-15899198D02*
X7918110Y-15889674D01*
X7918110Y-15889674D02*
X7937158Y-15880150D01*
X7937158Y-15880150D02*
X7965729Y-15880150D01*
X7965729Y-15880150D02*
X7984777Y-15889674D01*
X7984777Y-15889674D02*
X7994301Y-15908722D01*
X7994301Y-15908722D02*
X7994301Y-16013484D01*
X7994301Y-15908722D02*
X8003824Y-15889674D01*
X8003824Y-15889674D02*
X8022872Y-15880150D01*
X8022872Y-15880150D02*
X8051443Y-15880150D01*
X8051443Y-15880150D02*
X8070491Y-15889674D01*
X8070491Y-15889674D02*
X8080015Y-15908722D01*
X8080015Y-15908722D02*
X8080015Y-16013484D01*
X8470491Y-15803960D02*
X8299063Y-16061103D01*
X8727634Y-15813484D02*
X8746682Y-15813484D01*
X8746682Y-15813484D02*
X8765729Y-15823008D01*
X8765729Y-15823008D02*
X8775253Y-15832531D01*
X8775253Y-15832531D02*
X8784777Y-15851579D01*
X8784777Y-15851579D02*
X8794301Y-15889674D01*
X8794301Y-15889674D02*
X8794301Y-15937293D01*
X8794301Y-15937293D02*
X8784777Y-15975388D01*
X8784777Y-15975388D02*
X8775253Y-15994436D01*
X8775253Y-15994436D02*
X8765729Y-16003960D01*
X8765729Y-16003960D02*
X8746682Y-16013484D01*
X8746682Y-16013484D02*
X8727634Y-16013484D01*
X8727634Y-16013484D02*
X8708587Y-16003960D01*
X8708587Y-16003960D02*
X8699063Y-15994436D01*
X8699063Y-15994436D02*
X8689539Y-15975388D01*
X8689539Y-15975388D02*
X8680015Y-15937293D01*
X8680015Y-15937293D02*
X8680015Y-15889674D01*
X8680015Y-15889674D02*
X8689539Y-15851579D01*
X8689539Y-15851579D02*
X8699063Y-15832531D01*
X8699063Y-15832531D02*
X8708587Y-15823008D01*
X8708587Y-15823008D02*
X8727634Y-15813484D01*
X8880015Y-15994436D02*
X8889539Y-16003960D01*
X8889539Y-16003960D02*
X8880015Y-16013484D01*
X8880015Y-16013484D02*
X8870491Y-16003960D01*
X8870491Y-16003960D02*
X8880015Y-15994436D01*
X8880015Y-15994436D02*
X8880015Y-16013484D01*
X9013348Y-15813484D02*
X9032396Y-15813484D01*
X9032396Y-15813484D02*
X9051444Y-15823008D01*
X9051444Y-15823008D02*
X9060968Y-15832531D01*
X9060968Y-15832531D02*
X9070491Y-15851579D01*
X9070491Y-15851579D02*
X9080015Y-15889674D01*
X9080015Y-15889674D02*
X9080015Y-15937293D01*
X9080015Y-15937293D02*
X9070491Y-15975388D01*
X9070491Y-15975388D02*
X9060968Y-15994436D01*
X9060968Y-15994436D02*
X9051444Y-16003960D01*
X9051444Y-16003960D02*
X9032396Y-16013484D01*
X9032396Y-16013484D02*
X9013348Y-16013484D01*
X9013348Y-16013484D02*
X8994301Y-16003960D01*
X8994301Y-16003960D02*
X8984777Y-15994436D01*
X8984777Y-15994436D02*
X8975253Y-15975388D01*
X8975253Y-15975388D02*
X8965729Y-15937293D01*
X8965729Y-15937293D02*
X8965729Y-15889674D01*
X8965729Y-15889674D02*
X8975253Y-15851579D01*
X8975253Y-15851579D02*
X8984777Y-15832531D01*
X8984777Y-15832531D02*
X8994301Y-15823008D01*
X8994301Y-15823008D02*
X9013348Y-15813484D01*
X9251444Y-15880150D02*
X9251444Y-16013484D01*
X9203825Y-15803960D02*
X9156206Y-15946817D01*
X9156206Y-15946817D02*
X9280015Y-15946817D01*
X9337158Y-15813484D02*
X9470491Y-15813484D01*
X9470491Y-15813484D02*
X9384777Y-16013484D01*
X9537158Y-15832531D02*
X9546682Y-15823008D01*
X9546682Y-15823008D02*
X9565729Y-15813484D01*
X9565729Y-15813484D02*
X9613349Y-15813484D01*
X9613349Y-15813484D02*
X9632396Y-15823008D01*
X9632396Y-15823008D02*
X9641920Y-15832531D01*
X9641920Y-15832531D02*
X9651444Y-15851579D01*
X9651444Y-15851579D02*
X9651444Y-15870627D01*
X9651444Y-15870627D02*
X9641920Y-15899198D01*
X9641920Y-15899198D02*
X9527634Y-16013484D01*
X9527634Y-16013484D02*
X9651444Y-16013484D01*
X9727634Y-15813484D02*
X9727634Y-15851579D01*
X9803825Y-15813484D02*
X9803825Y-15851579D01*
X10099063Y-16089674D02*
X10089539Y-16080150D01*
X10089539Y-16080150D02*
X10070491Y-16051579D01*
X10070491Y-16051579D02*
X10060968Y-16032531D01*
X10060968Y-16032531D02*
X10051444Y-16003960D01*
X10051444Y-16003960D02*
X10041920Y-15956341D01*
X10041920Y-15956341D02*
X10041920Y-15918246D01*
X10041920Y-15918246D02*
X10051444Y-15870627D01*
X10051444Y-15870627D02*
X10060968Y-15842055D01*
X10060968Y-15842055D02*
X10070491Y-15823008D01*
X10070491Y-15823008D02*
X10089539Y-15794436D01*
X10089539Y-15794436D02*
X10099063Y-15784912D01*
X10280015Y-16013484D02*
X10165730Y-16013484D01*
X10222872Y-16013484D02*
X10222872Y-15813484D01*
X10222872Y-15813484D02*
X10203825Y-15842055D01*
X10203825Y-15842055D02*
X10184777Y-15861103D01*
X10184777Y-15861103D02*
X10165730Y-15870627D01*
X10460968Y-15813484D02*
X10365730Y-15813484D01*
X10365730Y-15813484D02*
X10356206Y-15908722D01*
X10356206Y-15908722D02*
X10365730Y-15899198D01*
X10365730Y-15899198D02*
X10384777Y-15889674D01*
X10384777Y-15889674D02*
X10432396Y-15889674D01*
X10432396Y-15889674D02*
X10451444Y-15899198D01*
X10451444Y-15899198D02*
X10460968Y-15908722D01*
X10460968Y-15908722D02*
X10470491Y-15927769D01*
X10470491Y-15927769D02*
X10470491Y-15975388D01*
X10470491Y-15975388D02*
X10460968Y-15994436D01*
X10460968Y-15994436D02*
X10451444Y-16003960D01*
X10451444Y-16003960D02*
X10432396Y-16013484D01*
X10432396Y-16013484D02*
X10384777Y-16013484D01*
X10384777Y-16013484D02*
X10365730Y-16003960D01*
X10365730Y-16003960D02*
X10356206Y-15994436D01*
X10708587Y-16013484D02*
X10708587Y-15813484D01*
X10794301Y-16013484D02*
X10794301Y-15908722D01*
X10794301Y-15908722D02*
X10784777Y-15889674D01*
X10784777Y-15889674D02*
X10765730Y-15880150D01*
X10765730Y-15880150D02*
X10737158Y-15880150D01*
X10737158Y-15880150D02*
X10718111Y-15889674D01*
X10718111Y-15889674D02*
X10708587Y-15899198D01*
X10918111Y-16013484D02*
X10899063Y-16003960D01*
X10899063Y-16003960D02*
X10889539Y-15994436D01*
X10889539Y-15994436D02*
X10880015Y-15975388D01*
X10880015Y-15975388D02*
X10880015Y-15918246D01*
X10880015Y-15918246D02*
X10889539Y-15899198D01*
X10889539Y-15899198D02*
X10899063Y-15889674D01*
X10899063Y-15889674D02*
X10918111Y-15880150D01*
X10918111Y-15880150D02*
X10946682Y-15880150D01*
X10946682Y-15880150D02*
X10965730Y-15889674D01*
X10965730Y-15889674D02*
X10975253Y-15899198D01*
X10975253Y-15899198D02*
X10984777Y-15918246D01*
X10984777Y-15918246D02*
X10984777Y-15975388D01*
X10984777Y-15975388D02*
X10975253Y-15994436D01*
X10975253Y-15994436D02*
X10965730Y-16003960D01*
X10965730Y-16003960D02*
X10946682Y-16013484D01*
X10946682Y-16013484D02*
X10918111Y-16013484D01*
X11099063Y-16013484D02*
X11080015Y-16003960D01*
X11080015Y-16003960D02*
X11070492Y-15984912D01*
X11070492Y-15984912D02*
X11070492Y-15813484D01*
X11251444Y-16003960D02*
X11232396Y-16013484D01*
X11232396Y-16013484D02*
X11194301Y-16013484D01*
X11194301Y-16013484D02*
X11175253Y-16003960D01*
X11175253Y-16003960D02*
X11165730Y-15984912D01*
X11165730Y-15984912D02*
X11165730Y-15908722D01*
X11165730Y-15908722D02*
X11175253Y-15889674D01*
X11175253Y-15889674D02*
X11194301Y-15880150D01*
X11194301Y-15880150D02*
X11232396Y-15880150D01*
X11232396Y-15880150D02*
X11251444Y-15889674D01*
X11251444Y-15889674D02*
X11260968Y-15908722D01*
X11260968Y-15908722D02*
X11260968Y-15927769D01*
X11260968Y-15927769D02*
X11165730Y-15946817D01*
X11337158Y-16003960D02*
X11356206Y-16013484D01*
X11356206Y-16013484D02*
X11394301Y-16013484D01*
X11394301Y-16013484D02*
X11413349Y-16003960D01*
X11413349Y-16003960D02*
X11422872Y-15984912D01*
X11422872Y-15984912D02*
X11422872Y-15975388D01*
X11422872Y-15975388D02*
X11413349Y-15956341D01*
X11413349Y-15956341D02*
X11394301Y-15946817D01*
X11394301Y-15946817D02*
X11365730Y-15946817D01*
X11365730Y-15946817D02*
X11346682Y-15937293D01*
X11346682Y-15937293D02*
X11337158Y-15918246D01*
X11337158Y-15918246D02*
X11337158Y-15908722D01*
X11337158Y-15908722D02*
X11346682Y-15889674D01*
X11346682Y-15889674D02*
X11365730Y-15880150D01*
X11365730Y-15880150D02*
X11394301Y-15880150D01*
X11394301Y-15880150D02*
X11413349Y-15889674D01*
X11489539Y-16089674D02*
X11499063Y-16080150D01*
X11499063Y-16080150D02*
X11518111Y-16051579D01*
X11518111Y-16051579D02*
X11527634Y-16032531D01*
X11527634Y-16032531D02*
X11537158Y-16003960D01*
X11537158Y-16003960D02*
X11546682Y-15956341D01*
X11546682Y-15956341D02*
X11546682Y-15918246D01*
X11546682Y-15918246D02*
X11537158Y-15870627D01*
X11537158Y-15870627D02*
X11527634Y-15842055D01*
X11527634Y-15842055D02*
X11518111Y-15823008D01*
X11518111Y-15823008D02*
X11499063Y-15794436D01*
X11499063Y-15794436D02*
X11489539Y-15784912D01*
D13*
X6449000Y-16261000D02*
X6524000Y-16186000D01*
X6449000Y-16111000D01*
X6374000Y-16186000D01*
X6449000Y-16261000D01*
D10*
X6889539Y-16277484D02*
X6775253Y-16277484D01*
X6832396Y-16277484D02*
X6832396Y-16077484D01*
X6832396Y-16077484D02*
X6813348Y-16106055D01*
X6813348Y-16106055D02*
X6794301Y-16125103D01*
X6794301Y-16125103D02*
X6775253Y-16134627D01*
X6975253Y-16258436D02*
X6984777Y-16267960D01*
X6984777Y-16267960D02*
X6975253Y-16277484D01*
X6975253Y-16277484D02*
X6965729Y-16267960D01*
X6965729Y-16267960D02*
X6975253Y-16258436D01*
X6975253Y-16258436D02*
X6975253Y-16277484D01*
X7165729Y-16077484D02*
X7070491Y-16077484D01*
X7070491Y-16077484D02*
X7060967Y-16172722D01*
X7060967Y-16172722D02*
X7070491Y-16163198D01*
X7070491Y-16163198D02*
X7089539Y-16153674D01*
X7089539Y-16153674D02*
X7137158Y-16153674D01*
X7137158Y-16153674D02*
X7156205Y-16163198D01*
X7156205Y-16163198D02*
X7165729Y-16172722D01*
X7165729Y-16172722D02*
X7175253Y-16191769D01*
X7175253Y-16191769D02*
X7175253Y-16239388D01*
X7175253Y-16239388D02*
X7165729Y-16258436D01*
X7165729Y-16258436D02*
X7156205Y-16267960D01*
X7156205Y-16267960D02*
X7137158Y-16277484D01*
X7137158Y-16277484D02*
X7089539Y-16277484D01*
X7089539Y-16277484D02*
X7070491Y-16267960D01*
X7070491Y-16267960D02*
X7060967Y-16258436D01*
X7299062Y-16077484D02*
X7318110Y-16077484D01*
X7318110Y-16077484D02*
X7337158Y-16087008D01*
X7337158Y-16087008D02*
X7346682Y-16096531D01*
X7346682Y-16096531D02*
X7356205Y-16115579D01*
X7356205Y-16115579D02*
X7365729Y-16153674D01*
X7365729Y-16153674D02*
X7365729Y-16201293D01*
X7365729Y-16201293D02*
X7356205Y-16239388D01*
X7356205Y-16239388D02*
X7346682Y-16258436D01*
X7346682Y-16258436D02*
X7337158Y-16267960D01*
X7337158Y-16267960D02*
X7318110Y-16277484D01*
X7318110Y-16277484D02*
X7299062Y-16277484D01*
X7299062Y-16277484D02*
X7280015Y-16267960D01*
X7280015Y-16267960D02*
X7270491Y-16258436D01*
X7270491Y-16258436D02*
X7260967Y-16239388D01*
X7260967Y-16239388D02*
X7251443Y-16201293D01*
X7251443Y-16201293D02*
X7251443Y-16153674D01*
X7251443Y-16153674D02*
X7260967Y-16115579D01*
X7260967Y-16115579D02*
X7270491Y-16096531D01*
X7270491Y-16096531D02*
X7280015Y-16087008D01*
X7280015Y-16087008D02*
X7299062Y-16077484D01*
X7489539Y-16077484D02*
X7508586Y-16077484D01*
X7508586Y-16077484D02*
X7527634Y-16087008D01*
X7527634Y-16087008D02*
X7537158Y-16096531D01*
X7537158Y-16096531D02*
X7546682Y-16115579D01*
X7546682Y-16115579D02*
X7556205Y-16153674D01*
X7556205Y-16153674D02*
X7556205Y-16201293D01*
X7556205Y-16201293D02*
X7546682Y-16239388D01*
X7546682Y-16239388D02*
X7537158Y-16258436D01*
X7537158Y-16258436D02*
X7527634Y-16267960D01*
X7527634Y-16267960D02*
X7508586Y-16277484D01*
X7508586Y-16277484D02*
X7489539Y-16277484D01*
X7489539Y-16277484D02*
X7470491Y-16267960D01*
X7470491Y-16267960D02*
X7460967Y-16258436D01*
X7460967Y-16258436D02*
X7451443Y-16239388D01*
X7451443Y-16239388D02*
X7441920Y-16201293D01*
X7441920Y-16201293D02*
X7441920Y-16153674D01*
X7441920Y-16153674D02*
X7451443Y-16115579D01*
X7451443Y-16115579D02*
X7460967Y-16096531D01*
X7460967Y-16096531D02*
X7470491Y-16087008D01*
X7470491Y-16087008D02*
X7489539Y-16077484D01*
X7641920Y-16277484D02*
X7641920Y-16144150D01*
X7641920Y-16163198D02*
X7651443Y-16153674D01*
X7651443Y-16153674D02*
X7670491Y-16144150D01*
X7670491Y-16144150D02*
X7699063Y-16144150D01*
X7699063Y-16144150D02*
X7718110Y-16153674D01*
X7718110Y-16153674D02*
X7727634Y-16172722D01*
X7727634Y-16172722D02*
X7727634Y-16277484D01*
X7727634Y-16172722D02*
X7737158Y-16153674D01*
X7737158Y-16153674D02*
X7756205Y-16144150D01*
X7756205Y-16144150D02*
X7784777Y-16144150D01*
X7784777Y-16144150D02*
X7803824Y-16153674D01*
X7803824Y-16153674D02*
X7813348Y-16172722D01*
X7813348Y-16172722D02*
X7813348Y-16277484D01*
X7908586Y-16277484D02*
X7908586Y-16144150D01*
X7908586Y-16163198D02*
X7918110Y-16153674D01*
X7918110Y-16153674D02*
X7937158Y-16144150D01*
X7937158Y-16144150D02*
X7965729Y-16144150D01*
X7965729Y-16144150D02*
X7984777Y-16153674D01*
X7984777Y-16153674D02*
X7994301Y-16172722D01*
X7994301Y-16172722D02*
X7994301Y-16277484D01*
X7994301Y-16172722D02*
X8003824Y-16153674D01*
X8003824Y-16153674D02*
X8022872Y-16144150D01*
X8022872Y-16144150D02*
X8051443Y-16144150D01*
X8051443Y-16144150D02*
X8070491Y-16153674D01*
X8070491Y-16153674D02*
X8080015Y-16172722D01*
X8080015Y-16172722D02*
X8080015Y-16277484D01*
X8470491Y-16067960D02*
X8299063Y-16325103D01*
X8727634Y-16077484D02*
X8746682Y-16077484D01*
X8746682Y-16077484D02*
X8765729Y-16087008D01*
X8765729Y-16087008D02*
X8775253Y-16096531D01*
X8775253Y-16096531D02*
X8784777Y-16115579D01*
X8784777Y-16115579D02*
X8794301Y-16153674D01*
X8794301Y-16153674D02*
X8794301Y-16201293D01*
X8794301Y-16201293D02*
X8784777Y-16239388D01*
X8784777Y-16239388D02*
X8775253Y-16258436D01*
X8775253Y-16258436D02*
X8765729Y-16267960D01*
X8765729Y-16267960D02*
X8746682Y-16277484D01*
X8746682Y-16277484D02*
X8727634Y-16277484D01*
X8727634Y-16277484D02*
X8708587Y-16267960D01*
X8708587Y-16267960D02*
X8699063Y-16258436D01*
X8699063Y-16258436D02*
X8689539Y-16239388D01*
X8689539Y-16239388D02*
X8680015Y-16201293D01*
X8680015Y-16201293D02*
X8680015Y-16153674D01*
X8680015Y-16153674D02*
X8689539Y-16115579D01*
X8689539Y-16115579D02*
X8699063Y-16096531D01*
X8699063Y-16096531D02*
X8708587Y-16087008D01*
X8708587Y-16087008D02*
X8727634Y-16077484D01*
X8880015Y-16258436D02*
X8889539Y-16267960D01*
X8889539Y-16267960D02*
X8880015Y-16277484D01*
X8880015Y-16277484D02*
X8870491Y-16267960D01*
X8870491Y-16267960D02*
X8880015Y-16258436D01*
X8880015Y-16258436D02*
X8880015Y-16277484D01*
X9013348Y-16077484D02*
X9032396Y-16077484D01*
X9032396Y-16077484D02*
X9051444Y-16087008D01*
X9051444Y-16087008D02*
X9060968Y-16096531D01*
X9060968Y-16096531D02*
X9070491Y-16115579D01*
X9070491Y-16115579D02*
X9080015Y-16153674D01*
X9080015Y-16153674D02*
X9080015Y-16201293D01*
X9080015Y-16201293D02*
X9070491Y-16239388D01*
X9070491Y-16239388D02*
X9060968Y-16258436D01*
X9060968Y-16258436D02*
X9051444Y-16267960D01*
X9051444Y-16267960D02*
X9032396Y-16277484D01*
X9032396Y-16277484D02*
X9013348Y-16277484D01*
X9013348Y-16277484D02*
X8994301Y-16267960D01*
X8994301Y-16267960D02*
X8984777Y-16258436D01*
X8984777Y-16258436D02*
X8975253Y-16239388D01*
X8975253Y-16239388D02*
X8965729Y-16201293D01*
X8965729Y-16201293D02*
X8965729Y-16153674D01*
X8965729Y-16153674D02*
X8975253Y-16115579D01*
X8975253Y-16115579D02*
X8984777Y-16096531D01*
X8984777Y-16096531D02*
X8994301Y-16087008D01*
X8994301Y-16087008D02*
X9013348Y-16077484D01*
X9260968Y-16077484D02*
X9165729Y-16077484D01*
X9165729Y-16077484D02*
X9156206Y-16172722D01*
X9156206Y-16172722D02*
X9165729Y-16163198D01*
X9165729Y-16163198D02*
X9184777Y-16153674D01*
X9184777Y-16153674D02*
X9232396Y-16153674D01*
X9232396Y-16153674D02*
X9251444Y-16163198D01*
X9251444Y-16163198D02*
X9260968Y-16172722D01*
X9260968Y-16172722D02*
X9270491Y-16191769D01*
X9270491Y-16191769D02*
X9270491Y-16239388D01*
X9270491Y-16239388D02*
X9260968Y-16258436D01*
X9260968Y-16258436D02*
X9251444Y-16267960D01*
X9251444Y-16267960D02*
X9232396Y-16277484D01*
X9232396Y-16277484D02*
X9184777Y-16277484D01*
X9184777Y-16277484D02*
X9165729Y-16267960D01*
X9165729Y-16267960D02*
X9156206Y-16258436D01*
X9365729Y-16277484D02*
X9403825Y-16277484D01*
X9403825Y-16277484D02*
X9422872Y-16267960D01*
X9422872Y-16267960D02*
X9432396Y-16258436D01*
X9432396Y-16258436D02*
X9451444Y-16229865D01*
X9451444Y-16229865D02*
X9460968Y-16191769D01*
X9460968Y-16191769D02*
X9460968Y-16115579D01*
X9460968Y-16115579D02*
X9451444Y-16096531D01*
X9451444Y-16096531D02*
X9441920Y-16087008D01*
X9441920Y-16087008D02*
X9422872Y-16077484D01*
X9422872Y-16077484D02*
X9384777Y-16077484D01*
X9384777Y-16077484D02*
X9365729Y-16087008D01*
X9365729Y-16087008D02*
X9356206Y-16096531D01*
X9356206Y-16096531D02*
X9346682Y-16115579D01*
X9346682Y-16115579D02*
X9346682Y-16163198D01*
X9346682Y-16163198D02*
X9356206Y-16182246D01*
X9356206Y-16182246D02*
X9365729Y-16191769D01*
X9365729Y-16191769D02*
X9384777Y-16201293D01*
X9384777Y-16201293D02*
X9422872Y-16201293D01*
X9422872Y-16201293D02*
X9441920Y-16191769D01*
X9441920Y-16191769D02*
X9451444Y-16182246D01*
X9451444Y-16182246D02*
X9460968Y-16163198D01*
X9651444Y-16277484D02*
X9537158Y-16277484D01*
X9594301Y-16277484D02*
X9594301Y-16077484D01*
X9594301Y-16077484D02*
X9575253Y-16106055D01*
X9575253Y-16106055D02*
X9556206Y-16125103D01*
X9556206Y-16125103D02*
X9537158Y-16134627D01*
X9727634Y-16077484D02*
X9727634Y-16115579D01*
X9803825Y-16077484D02*
X9803825Y-16115579D01*
X10099063Y-16353674D02*
X10089539Y-16344150D01*
X10089539Y-16344150D02*
X10070491Y-16315579D01*
X10070491Y-16315579D02*
X10060968Y-16296531D01*
X10060968Y-16296531D02*
X10051444Y-16267960D01*
X10051444Y-16267960D02*
X10041920Y-16220341D01*
X10041920Y-16220341D02*
X10041920Y-16182246D01*
X10041920Y-16182246D02*
X10051444Y-16134627D01*
X10051444Y-16134627D02*
X10060968Y-16106055D01*
X10060968Y-16106055D02*
X10070491Y-16087008D01*
X10070491Y-16087008D02*
X10089539Y-16058436D01*
X10089539Y-16058436D02*
X10099063Y-16048912D01*
X10213349Y-16077484D02*
X10232396Y-16077484D01*
X10232396Y-16077484D02*
X10251444Y-16087008D01*
X10251444Y-16087008D02*
X10260968Y-16096531D01*
X10260968Y-16096531D02*
X10270491Y-16115579D01*
X10270491Y-16115579D02*
X10280015Y-16153674D01*
X10280015Y-16153674D02*
X10280015Y-16201293D01*
X10280015Y-16201293D02*
X10270491Y-16239388D01*
X10270491Y-16239388D02*
X10260968Y-16258436D01*
X10260968Y-16258436D02*
X10251444Y-16267960D01*
X10251444Y-16267960D02*
X10232396Y-16277484D01*
X10232396Y-16277484D02*
X10213349Y-16277484D01*
X10213349Y-16277484D02*
X10194301Y-16267960D01*
X10194301Y-16267960D02*
X10184777Y-16258436D01*
X10184777Y-16258436D02*
X10175253Y-16239388D01*
X10175253Y-16239388D02*
X10165730Y-16201293D01*
X10165730Y-16201293D02*
X10165730Y-16153674D01*
X10165730Y-16153674D02*
X10175253Y-16115579D01*
X10175253Y-16115579D02*
X10184777Y-16096531D01*
X10184777Y-16096531D02*
X10194301Y-16087008D01*
X10194301Y-16087008D02*
X10213349Y-16077484D01*
X10518111Y-16277484D02*
X10518111Y-16077484D01*
X10603825Y-16277484D02*
X10603825Y-16172722D01*
X10603825Y-16172722D02*
X10594301Y-16153674D01*
X10594301Y-16153674D02*
X10575253Y-16144150D01*
X10575253Y-16144150D02*
X10546682Y-16144150D01*
X10546682Y-16144150D02*
X10527634Y-16153674D01*
X10527634Y-16153674D02*
X10518111Y-16163198D01*
X10727634Y-16277484D02*
X10708587Y-16267960D01*
X10708587Y-16267960D02*
X10699063Y-16258436D01*
X10699063Y-16258436D02*
X10689539Y-16239388D01*
X10689539Y-16239388D02*
X10689539Y-16182246D01*
X10689539Y-16182246D02*
X10699063Y-16163198D01*
X10699063Y-16163198D02*
X10708587Y-16153674D01*
X10708587Y-16153674D02*
X10727634Y-16144150D01*
X10727634Y-16144150D02*
X10756206Y-16144150D01*
X10756206Y-16144150D02*
X10775253Y-16153674D01*
X10775253Y-16153674D02*
X10784777Y-16163198D01*
X10784777Y-16163198D02*
X10794301Y-16182246D01*
X10794301Y-16182246D02*
X10794301Y-16239388D01*
X10794301Y-16239388D02*
X10784777Y-16258436D01*
X10784777Y-16258436D02*
X10775253Y-16267960D01*
X10775253Y-16267960D02*
X10756206Y-16277484D01*
X10756206Y-16277484D02*
X10727634Y-16277484D01*
X10908587Y-16277484D02*
X10889539Y-16267960D01*
X10889539Y-16267960D02*
X10880015Y-16248912D01*
X10880015Y-16248912D02*
X10880015Y-16077484D01*
X11060968Y-16267960D02*
X11041920Y-16277484D01*
X11041920Y-16277484D02*
X11003825Y-16277484D01*
X11003825Y-16277484D02*
X10984777Y-16267960D01*
X10984777Y-16267960D02*
X10975253Y-16248912D01*
X10975253Y-16248912D02*
X10975253Y-16172722D01*
X10975253Y-16172722D02*
X10984777Y-16153674D01*
X10984777Y-16153674D02*
X11003825Y-16144150D01*
X11003825Y-16144150D02*
X11041920Y-16144150D01*
X11041920Y-16144150D02*
X11060968Y-16153674D01*
X11060968Y-16153674D02*
X11070492Y-16172722D01*
X11070492Y-16172722D02*
X11070492Y-16191769D01*
X11070492Y-16191769D02*
X10975253Y-16210817D01*
X11146682Y-16267960D02*
X11165730Y-16277484D01*
X11165730Y-16277484D02*
X11203825Y-16277484D01*
X11203825Y-16277484D02*
X11222872Y-16267960D01*
X11222872Y-16267960D02*
X11232396Y-16248912D01*
X11232396Y-16248912D02*
X11232396Y-16239388D01*
X11232396Y-16239388D02*
X11222872Y-16220341D01*
X11222872Y-16220341D02*
X11203825Y-16210817D01*
X11203825Y-16210817D02*
X11175253Y-16210817D01*
X11175253Y-16210817D02*
X11156206Y-16201293D01*
X11156206Y-16201293D02*
X11146682Y-16182246D01*
X11146682Y-16182246D02*
X11146682Y-16172722D01*
X11146682Y-16172722D02*
X11156206Y-16153674D01*
X11156206Y-16153674D02*
X11175253Y-16144150D01*
X11175253Y-16144150D02*
X11203825Y-16144150D01*
X11203825Y-16144150D02*
X11222872Y-16153674D01*
X11470492Y-16201293D02*
X11622873Y-16201293D01*
X11546682Y-16277484D02*
X11546682Y-16125103D01*
X11956206Y-16144150D02*
X11956206Y-16277484D01*
X11908587Y-16067960D02*
X11860968Y-16210817D01*
X11860968Y-16210817D02*
X11984777Y-16210817D01*
X12203825Y-16267960D02*
X12222873Y-16277484D01*
X12222873Y-16277484D02*
X12260968Y-16277484D01*
X12260968Y-16277484D02*
X12280015Y-16267960D01*
X12280015Y-16267960D02*
X12289539Y-16248912D01*
X12289539Y-16248912D02*
X12289539Y-16239388D01*
X12289539Y-16239388D02*
X12280015Y-16220341D01*
X12280015Y-16220341D02*
X12260968Y-16210817D01*
X12260968Y-16210817D02*
X12232396Y-16210817D01*
X12232396Y-16210817D02*
X12213349Y-16201293D01*
X12213349Y-16201293D02*
X12203825Y-16182246D01*
X12203825Y-16182246D02*
X12203825Y-16172722D01*
X12203825Y-16172722D02*
X12213349Y-16153674D01*
X12213349Y-16153674D02*
X12232396Y-16144150D01*
X12232396Y-16144150D02*
X12260968Y-16144150D01*
X12260968Y-16144150D02*
X12280015Y-16153674D01*
X12403825Y-16277484D02*
X12384777Y-16267960D01*
X12384777Y-16267960D02*
X12375254Y-16248912D01*
X12375254Y-16248912D02*
X12375254Y-16077484D01*
X12508587Y-16277484D02*
X12489539Y-16267960D01*
X12489539Y-16267960D02*
X12480015Y-16258436D01*
X12480015Y-16258436D02*
X12470492Y-16239388D01*
X12470492Y-16239388D02*
X12470492Y-16182246D01*
X12470492Y-16182246D02*
X12480015Y-16163198D01*
X12480015Y-16163198D02*
X12489539Y-16153674D01*
X12489539Y-16153674D02*
X12508587Y-16144150D01*
X12508587Y-16144150D02*
X12537158Y-16144150D01*
X12537158Y-16144150D02*
X12556206Y-16153674D01*
X12556206Y-16153674D02*
X12565730Y-16163198D01*
X12565730Y-16163198D02*
X12575254Y-16182246D01*
X12575254Y-16182246D02*
X12575254Y-16239388D01*
X12575254Y-16239388D02*
X12565730Y-16258436D01*
X12565730Y-16258436D02*
X12556206Y-16267960D01*
X12556206Y-16267960D02*
X12537158Y-16277484D01*
X12537158Y-16277484D02*
X12508587Y-16277484D01*
X12632396Y-16144150D02*
X12708587Y-16144150D01*
X12660968Y-16077484D02*
X12660968Y-16248912D01*
X12660968Y-16248912D02*
X12670492Y-16267960D01*
X12670492Y-16267960D02*
X12689539Y-16277484D01*
X12689539Y-16277484D02*
X12708587Y-16277484D01*
X12765730Y-16267960D02*
X12784777Y-16277484D01*
X12784777Y-16277484D02*
X12822873Y-16277484D01*
X12822873Y-16277484D02*
X12841920Y-16267960D01*
X12841920Y-16267960D02*
X12851444Y-16248912D01*
X12851444Y-16248912D02*
X12851444Y-16239388D01*
X12851444Y-16239388D02*
X12841920Y-16220341D01*
X12841920Y-16220341D02*
X12822873Y-16210817D01*
X12822873Y-16210817D02*
X12794301Y-16210817D01*
X12794301Y-16210817D02*
X12775254Y-16201293D01*
X12775254Y-16201293D02*
X12765730Y-16182246D01*
X12765730Y-16182246D02*
X12765730Y-16172722D01*
X12765730Y-16172722D02*
X12775254Y-16153674D01*
X12775254Y-16153674D02*
X12794301Y-16144150D01*
X12794301Y-16144150D02*
X12822873Y-16144150D01*
X12822873Y-16144150D02*
X12841920Y-16153674D01*
X12918111Y-16353674D02*
X12927635Y-16344150D01*
X12927635Y-16344150D02*
X12946682Y-16315579D01*
X12946682Y-16315579D02*
X12956206Y-16296531D01*
X12956206Y-16296531D02*
X12965730Y-16267960D01*
X12965730Y-16267960D02*
X12975254Y-16220341D01*
X12975254Y-16220341D02*
X12975254Y-16182246D01*
X12975254Y-16182246D02*
X12965730Y-16134627D01*
X12965730Y-16134627D02*
X12956206Y-16106055D01*
X12956206Y-16106055D02*
X12946682Y-16087008D01*
X12946682Y-16087008D02*
X12927635Y-16058436D01*
X12927635Y-16058436D02*
X12918111Y-16048912D01*
D14*
X6354000Y-16371000D02*
X6524000Y-16541000D01*
X6524000Y-16371000D02*
X6354000Y-16541000D01*
X6524000Y-16456000D02*
G75*
G02*
X6354000Y-16456000I-85000J0D01*
G01*
X6354000Y-16456000D02*
G75*
G02*
X6524000Y-16456000I85000J0D01*
G01*
D10*
X6889539Y-16547484D02*
X6775253Y-16547484D01*
X6832396Y-16547484D02*
X6832396Y-16347484D01*
X6832396Y-16347484D02*
X6813348Y-16376055D01*
X6813348Y-16376055D02*
X6794301Y-16395103D01*
X6794301Y-16395103D02*
X6775253Y-16404627D01*
X6975253Y-16528436D02*
X6984777Y-16537960D01*
X6984777Y-16537960D02*
X6975253Y-16547484D01*
X6975253Y-16547484D02*
X6965729Y-16537960D01*
X6965729Y-16537960D02*
X6975253Y-16528436D01*
X6975253Y-16528436D02*
X6975253Y-16547484D01*
X7051443Y-16347484D02*
X7184777Y-16347484D01*
X7184777Y-16347484D02*
X7099062Y-16547484D01*
X7299062Y-16347484D02*
X7318110Y-16347484D01*
X7318110Y-16347484D02*
X7337158Y-16357008D01*
X7337158Y-16357008D02*
X7346682Y-16366531D01*
X7346682Y-16366531D02*
X7356205Y-16385579D01*
X7356205Y-16385579D02*
X7365729Y-16423674D01*
X7365729Y-16423674D02*
X7365729Y-16471293D01*
X7365729Y-16471293D02*
X7356205Y-16509388D01*
X7356205Y-16509388D02*
X7346682Y-16528436D01*
X7346682Y-16528436D02*
X7337158Y-16537960D01*
X7337158Y-16537960D02*
X7318110Y-16547484D01*
X7318110Y-16547484D02*
X7299062Y-16547484D01*
X7299062Y-16547484D02*
X7280015Y-16537960D01*
X7280015Y-16537960D02*
X7270491Y-16528436D01*
X7270491Y-16528436D02*
X7260967Y-16509388D01*
X7260967Y-16509388D02*
X7251443Y-16471293D01*
X7251443Y-16471293D02*
X7251443Y-16423674D01*
X7251443Y-16423674D02*
X7260967Y-16385579D01*
X7260967Y-16385579D02*
X7270491Y-16366531D01*
X7270491Y-16366531D02*
X7280015Y-16357008D01*
X7280015Y-16357008D02*
X7299062Y-16347484D01*
X7489539Y-16347484D02*
X7508586Y-16347484D01*
X7508586Y-16347484D02*
X7527634Y-16357008D01*
X7527634Y-16357008D02*
X7537158Y-16366531D01*
X7537158Y-16366531D02*
X7546682Y-16385579D01*
X7546682Y-16385579D02*
X7556205Y-16423674D01*
X7556205Y-16423674D02*
X7556205Y-16471293D01*
X7556205Y-16471293D02*
X7546682Y-16509388D01*
X7546682Y-16509388D02*
X7537158Y-16528436D01*
X7537158Y-16528436D02*
X7527634Y-16537960D01*
X7527634Y-16537960D02*
X7508586Y-16547484D01*
X7508586Y-16547484D02*
X7489539Y-16547484D01*
X7489539Y-16547484D02*
X7470491Y-16537960D01*
X7470491Y-16537960D02*
X7460967Y-16528436D01*
X7460967Y-16528436D02*
X7451443Y-16509388D01*
X7451443Y-16509388D02*
X7441920Y-16471293D01*
X7441920Y-16471293D02*
X7441920Y-16423674D01*
X7441920Y-16423674D02*
X7451443Y-16385579D01*
X7451443Y-16385579D02*
X7460967Y-16366531D01*
X7460967Y-16366531D02*
X7470491Y-16357008D01*
X7470491Y-16357008D02*
X7489539Y-16347484D01*
X7641920Y-16547484D02*
X7641920Y-16414150D01*
X7641920Y-16433198D02*
X7651443Y-16423674D01*
X7651443Y-16423674D02*
X7670491Y-16414150D01*
X7670491Y-16414150D02*
X7699063Y-16414150D01*
X7699063Y-16414150D02*
X7718110Y-16423674D01*
X7718110Y-16423674D02*
X7727634Y-16442722D01*
X7727634Y-16442722D02*
X7727634Y-16547484D01*
X7727634Y-16442722D02*
X7737158Y-16423674D01*
X7737158Y-16423674D02*
X7756205Y-16414150D01*
X7756205Y-16414150D02*
X7784777Y-16414150D01*
X7784777Y-16414150D02*
X7803824Y-16423674D01*
X7803824Y-16423674D02*
X7813348Y-16442722D01*
X7813348Y-16442722D02*
X7813348Y-16547484D01*
X7908586Y-16547484D02*
X7908586Y-16414150D01*
X7908586Y-16433198D02*
X7918110Y-16423674D01*
X7918110Y-16423674D02*
X7937158Y-16414150D01*
X7937158Y-16414150D02*
X7965729Y-16414150D01*
X7965729Y-16414150D02*
X7984777Y-16423674D01*
X7984777Y-16423674D02*
X7994301Y-16442722D01*
X7994301Y-16442722D02*
X7994301Y-16547484D01*
X7994301Y-16442722D02*
X8003824Y-16423674D01*
X8003824Y-16423674D02*
X8022872Y-16414150D01*
X8022872Y-16414150D02*
X8051443Y-16414150D01*
X8051443Y-16414150D02*
X8070491Y-16423674D01*
X8070491Y-16423674D02*
X8080015Y-16442722D01*
X8080015Y-16442722D02*
X8080015Y-16547484D01*
X8470491Y-16337960D02*
X8299063Y-16595103D01*
X8727634Y-16347484D02*
X8746682Y-16347484D01*
X8746682Y-16347484D02*
X8765729Y-16357008D01*
X8765729Y-16357008D02*
X8775253Y-16366531D01*
X8775253Y-16366531D02*
X8784777Y-16385579D01*
X8784777Y-16385579D02*
X8794301Y-16423674D01*
X8794301Y-16423674D02*
X8794301Y-16471293D01*
X8794301Y-16471293D02*
X8784777Y-16509388D01*
X8784777Y-16509388D02*
X8775253Y-16528436D01*
X8775253Y-16528436D02*
X8765729Y-16537960D01*
X8765729Y-16537960D02*
X8746682Y-16547484D01*
X8746682Y-16547484D02*
X8727634Y-16547484D01*
X8727634Y-16547484D02*
X8708587Y-16537960D01*
X8708587Y-16537960D02*
X8699063Y-16528436D01*
X8699063Y-16528436D02*
X8689539Y-16509388D01*
X8689539Y-16509388D02*
X8680015Y-16471293D01*
X8680015Y-16471293D02*
X8680015Y-16423674D01*
X8680015Y-16423674D02*
X8689539Y-16385579D01*
X8689539Y-16385579D02*
X8699063Y-16366531D01*
X8699063Y-16366531D02*
X8708587Y-16357008D01*
X8708587Y-16357008D02*
X8727634Y-16347484D01*
X8880015Y-16528436D02*
X8889539Y-16537960D01*
X8889539Y-16537960D02*
X8880015Y-16547484D01*
X8880015Y-16547484D02*
X8870491Y-16537960D01*
X8870491Y-16537960D02*
X8880015Y-16528436D01*
X8880015Y-16528436D02*
X8880015Y-16547484D01*
X9013348Y-16347484D02*
X9032396Y-16347484D01*
X9032396Y-16347484D02*
X9051444Y-16357008D01*
X9051444Y-16357008D02*
X9060968Y-16366531D01*
X9060968Y-16366531D02*
X9070491Y-16385579D01*
X9070491Y-16385579D02*
X9080015Y-16423674D01*
X9080015Y-16423674D02*
X9080015Y-16471293D01*
X9080015Y-16471293D02*
X9070491Y-16509388D01*
X9070491Y-16509388D02*
X9060968Y-16528436D01*
X9060968Y-16528436D02*
X9051444Y-16537960D01*
X9051444Y-16537960D02*
X9032396Y-16547484D01*
X9032396Y-16547484D02*
X9013348Y-16547484D01*
X9013348Y-16547484D02*
X8994301Y-16537960D01*
X8994301Y-16537960D02*
X8984777Y-16528436D01*
X8984777Y-16528436D02*
X8975253Y-16509388D01*
X8975253Y-16509388D02*
X8965729Y-16471293D01*
X8965729Y-16471293D02*
X8965729Y-16423674D01*
X8965729Y-16423674D02*
X8975253Y-16385579D01*
X8975253Y-16385579D02*
X8984777Y-16366531D01*
X8984777Y-16366531D02*
X8994301Y-16357008D01*
X8994301Y-16357008D02*
X9013348Y-16347484D01*
X9251444Y-16347484D02*
X9213348Y-16347484D01*
X9213348Y-16347484D02*
X9194301Y-16357008D01*
X9194301Y-16357008D02*
X9184777Y-16366531D01*
X9184777Y-16366531D02*
X9165729Y-16395103D01*
X9165729Y-16395103D02*
X9156206Y-16433198D01*
X9156206Y-16433198D02*
X9156206Y-16509388D01*
X9156206Y-16509388D02*
X9165729Y-16528436D01*
X9165729Y-16528436D02*
X9175253Y-16537960D01*
X9175253Y-16537960D02*
X9194301Y-16547484D01*
X9194301Y-16547484D02*
X9232396Y-16547484D01*
X9232396Y-16547484D02*
X9251444Y-16537960D01*
X9251444Y-16537960D02*
X9260968Y-16528436D01*
X9260968Y-16528436D02*
X9270491Y-16509388D01*
X9270491Y-16509388D02*
X9270491Y-16461769D01*
X9270491Y-16461769D02*
X9260968Y-16442722D01*
X9260968Y-16442722D02*
X9251444Y-16433198D01*
X9251444Y-16433198D02*
X9232396Y-16423674D01*
X9232396Y-16423674D02*
X9194301Y-16423674D01*
X9194301Y-16423674D02*
X9175253Y-16433198D01*
X9175253Y-16433198D02*
X9165729Y-16442722D01*
X9165729Y-16442722D02*
X9156206Y-16461769D01*
X9441920Y-16347484D02*
X9403825Y-16347484D01*
X9403825Y-16347484D02*
X9384777Y-16357008D01*
X9384777Y-16357008D02*
X9375253Y-16366531D01*
X9375253Y-16366531D02*
X9356206Y-16395103D01*
X9356206Y-16395103D02*
X9346682Y-16433198D01*
X9346682Y-16433198D02*
X9346682Y-16509388D01*
X9346682Y-16509388D02*
X9356206Y-16528436D01*
X9356206Y-16528436D02*
X9365729Y-16537960D01*
X9365729Y-16537960D02*
X9384777Y-16547484D01*
X9384777Y-16547484D02*
X9422872Y-16547484D01*
X9422872Y-16547484D02*
X9441920Y-16537960D01*
X9441920Y-16537960D02*
X9451444Y-16528436D01*
X9451444Y-16528436D02*
X9460968Y-16509388D01*
X9460968Y-16509388D02*
X9460968Y-16461769D01*
X9460968Y-16461769D02*
X9451444Y-16442722D01*
X9451444Y-16442722D02*
X9441920Y-16433198D01*
X9441920Y-16433198D02*
X9422872Y-16423674D01*
X9422872Y-16423674D02*
X9384777Y-16423674D01*
X9384777Y-16423674D02*
X9365729Y-16433198D01*
X9365729Y-16433198D02*
X9356206Y-16442722D01*
X9356206Y-16442722D02*
X9346682Y-16461769D01*
X9556206Y-16547484D02*
X9594301Y-16547484D01*
X9594301Y-16547484D02*
X9613349Y-16537960D01*
X9613349Y-16537960D02*
X9622872Y-16528436D01*
X9622872Y-16528436D02*
X9641920Y-16499865D01*
X9641920Y-16499865D02*
X9651444Y-16461769D01*
X9651444Y-16461769D02*
X9651444Y-16385579D01*
X9651444Y-16385579D02*
X9641920Y-16366531D01*
X9641920Y-16366531D02*
X9632396Y-16357008D01*
X9632396Y-16357008D02*
X9613349Y-16347484D01*
X9613349Y-16347484D02*
X9575253Y-16347484D01*
X9575253Y-16347484D02*
X9556206Y-16357008D01*
X9556206Y-16357008D02*
X9546682Y-16366531D01*
X9546682Y-16366531D02*
X9537158Y-16385579D01*
X9537158Y-16385579D02*
X9537158Y-16433198D01*
X9537158Y-16433198D02*
X9546682Y-16452246D01*
X9546682Y-16452246D02*
X9556206Y-16461769D01*
X9556206Y-16461769D02*
X9575253Y-16471293D01*
X9575253Y-16471293D02*
X9613349Y-16471293D01*
X9613349Y-16471293D02*
X9632396Y-16461769D01*
X9632396Y-16461769D02*
X9641920Y-16452246D01*
X9641920Y-16452246D02*
X9651444Y-16433198D01*
X9727634Y-16347484D02*
X9727634Y-16385579D01*
X9803825Y-16347484D02*
X9803825Y-16385579D01*
X10099063Y-16623674D02*
X10089539Y-16614150D01*
X10089539Y-16614150D02*
X10070491Y-16585579D01*
X10070491Y-16585579D02*
X10060968Y-16566531D01*
X10060968Y-16566531D02*
X10051444Y-16537960D01*
X10051444Y-16537960D02*
X10041920Y-16490341D01*
X10041920Y-16490341D02*
X10041920Y-16452246D01*
X10041920Y-16452246D02*
X10051444Y-16404627D01*
X10051444Y-16404627D02*
X10060968Y-16376055D01*
X10060968Y-16376055D02*
X10070491Y-16357008D01*
X10070491Y-16357008D02*
X10089539Y-16328436D01*
X10089539Y-16328436D02*
X10099063Y-16318912D01*
X10165730Y-16366531D02*
X10175253Y-16357008D01*
X10175253Y-16357008D02*
X10194301Y-16347484D01*
X10194301Y-16347484D02*
X10241920Y-16347484D01*
X10241920Y-16347484D02*
X10260968Y-16357008D01*
X10260968Y-16357008D02*
X10270491Y-16366531D01*
X10270491Y-16366531D02*
X10280015Y-16385579D01*
X10280015Y-16385579D02*
X10280015Y-16404627D01*
X10280015Y-16404627D02*
X10270491Y-16433198D01*
X10270491Y-16433198D02*
X10156206Y-16547484D01*
X10156206Y-16547484D02*
X10280015Y-16547484D01*
X10403825Y-16347484D02*
X10422872Y-16347484D01*
X10422872Y-16347484D02*
X10441920Y-16357008D01*
X10441920Y-16357008D02*
X10451444Y-16366531D01*
X10451444Y-16366531D02*
X10460968Y-16385579D01*
X10460968Y-16385579D02*
X10470491Y-16423674D01*
X10470491Y-16423674D02*
X10470491Y-16471293D01*
X10470491Y-16471293D02*
X10460968Y-16509388D01*
X10460968Y-16509388D02*
X10451444Y-16528436D01*
X10451444Y-16528436D02*
X10441920Y-16537960D01*
X10441920Y-16537960D02*
X10422872Y-16547484D01*
X10422872Y-16547484D02*
X10403825Y-16547484D01*
X10403825Y-16547484D02*
X10384777Y-16537960D01*
X10384777Y-16537960D02*
X10375253Y-16528436D01*
X10375253Y-16528436D02*
X10365730Y-16509388D01*
X10365730Y-16509388D02*
X10356206Y-16471293D01*
X10356206Y-16471293D02*
X10356206Y-16423674D01*
X10356206Y-16423674D02*
X10365730Y-16385579D01*
X10365730Y-16385579D02*
X10375253Y-16366531D01*
X10375253Y-16366531D02*
X10384777Y-16357008D01*
X10384777Y-16357008D02*
X10403825Y-16347484D01*
X10708587Y-16547484D02*
X10708587Y-16347484D01*
X10794301Y-16547484D02*
X10794301Y-16442722D01*
X10794301Y-16442722D02*
X10784777Y-16423674D01*
X10784777Y-16423674D02*
X10765730Y-16414150D01*
X10765730Y-16414150D02*
X10737158Y-16414150D01*
X10737158Y-16414150D02*
X10718111Y-16423674D01*
X10718111Y-16423674D02*
X10708587Y-16433198D01*
X10918111Y-16547484D02*
X10899063Y-16537960D01*
X10899063Y-16537960D02*
X10889539Y-16528436D01*
X10889539Y-16528436D02*
X10880015Y-16509388D01*
X10880015Y-16509388D02*
X10880015Y-16452246D01*
X10880015Y-16452246D02*
X10889539Y-16433198D01*
X10889539Y-16433198D02*
X10899063Y-16423674D01*
X10899063Y-16423674D02*
X10918111Y-16414150D01*
X10918111Y-16414150D02*
X10946682Y-16414150D01*
X10946682Y-16414150D02*
X10965730Y-16423674D01*
X10965730Y-16423674D02*
X10975253Y-16433198D01*
X10975253Y-16433198D02*
X10984777Y-16452246D01*
X10984777Y-16452246D02*
X10984777Y-16509388D01*
X10984777Y-16509388D02*
X10975253Y-16528436D01*
X10975253Y-16528436D02*
X10965730Y-16537960D01*
X10965730Y-16537960D02*
X10946682Y-16547484D01*
X10946682Y-16547484D02*
X10918111Y-16547484D01*
X11099063Y-16547484D02*
X11080015Y-16537960D01*
X11080015Y-16537960D02*
X11070492Y-16518912D01*
X11070492Y-16518912D02*
X11070492Y-16347484D01*
X11251444Y-16537960D02*
X11232396Y-16547484D01*
X11232396Y-16547484D02*
X11194301Y-16547484D01*
X11194301Y-16547484D02*
X11175253Y-16537960D01*
X11175253Y-16537960D02*
X11165730Y-16518912D01*
X11165730Y-16518912D02*
X11165730Y-16442722D01*
X11165730Y-16442722D02*
X11175253Y-16423674D01*
X11175253Y-16423674D02*
X11194301Y-16414150D01*
X11194301Y-16414150D02*
X11232396Y-16414150D01*
X11232396Y-16414150D02*
X11251444Y-16423674D01*
X11251444Y-16423674D02*
X11260968Y-16442722D01*
X11260968Y-16442722D02*
X11260968Y-16461769D01*
X11260968Y-16461769D02*
X11165730Y-16480817D01*
X11337158Y-16537960D02*
X11356206Y-16547484D01*
X11356206Y-16547484D02*
X11394301Y-16547484D01*
X11394301Y-16547484D02*
X11413349Y-16537960D01*
X11413349Y-16537960D02*
X11422872Y-16518912D01*
X11422872Y-16518912D02*
X11422872Y-16509388D01*
X11422872Y-16509388D02*
X11413349Y-16490341D01*
X11413349Y-16490341D02*
X11394301Y-16480817D01*
X11394301Y-16480817D02*
X11365730Y-16480817D01*
X11365730Y-16480817D02*
X11346682Y-16471293D01*
X11346682Y-16471293D02*
X11337158Y-16452246D01*
X11337158Y-16452246D02*
X11337158Y-16442722D01*
X11337158Y-16442722D02*
X11346682Y-16423674D01*
X11346682Y-16423674D02*
X11365730Y-16414150D01*
X11365730Y-16414150D02*
X11394301Y-16414150D01*
X11394301Y-16414150D02*
X11413349Y-16423674D01*
X11489539Y-16623674D02*
X11499063Y-16614150D01*
X11499063Y-16614150D02*
X11518111Y-16585579D01*
X11518111Y-16585579D02*
X11527634Y-16566531D01*
X11527634Y-16566531D02*
X11537158Y-16537960D01*
X11537158Y-16537960D02*
X11546682Y-16490341D01*
X11546682Y-16490341D02*
X11546682Y-16452246D01*
X11546682Y-16452246D02*
X11537158Y-16404627D01*
X11537158Y-16404627D02*
X11527634Y-16376055D01*
X11527634Y-16376055D02*
X11518111Y-16357008D01*
X11518111Y-16357008D02*
X11499063Y-16328436D01*
X11499063Y-16328436D02*
X11489539Y-16318912D01*
X6324000Y-16646000D02*
X6524000Y-16846000D01*
X6524000Y-16646000D02*
X6324000Y-16846000D01*
X6424000Y-16646000D02*
X6424000Y-16846000D01*
X6324000Y-16746000D02*
X6524000Y-16746000D01*
X6775253Y-16656531D02*
X6784777Y-16647008D01*
X6784777Y-16647008D02*
X6803824Y-16637484D01*
X6803824Y-16637484D02*
X6851443Y-16637484D01*
X6851443Y-16637484D02*
X6870491Y-16647008D01*
X6870491Y-16647008D02*
X6880015Y-16656531D01*
X6880015Y-16656531D02*
X6889539Y-16675579D01*
X6889539Y-16675579D02*
X6889539Y-16694627D01*
X6889539Y-16694627D02*
X6880015Y-16723198D01*
X6880015Y-16723198D02*
X6765729Y-16837484D01*
X6765729Y-16837484D02*
X6889539Y-16837484D01*
X6975253Y-16818436D02*
X6984777Y-16827960D01*
X6984777Y-16827960D02*
X6975253Y-16837484D01*
X6975253Y-16837484D02*
X6965729Y-16827960D01*
X6965729Y-16827960D02*
X6975253Y-16818436D01*
X6975253Y-16818436D02*
X6975253Y-16837484D01*
X7165729Y-16637484D02*
X7070491Y-16637484D01*
X7070491Y-16637484D02*
X7060967Y-16732722D01*
X7060967Y-16732722D02*
X7070491Y-16723198D01*
X7070491Y-16723198D02*
X7089539Y-16713674D01*
X7089539Y-16713674D02*
X7137158Y-16713674D01*
X7137158Y-16713674D02*
X7156205Y-16723198D01*
X7156205Y-16723198D02*
X7165729Y-16732722D01*
X7165729Y-16732722D02*
X7175253Y-16751769D01*
X7175253Y-16751769D02*
X7175253Y-16799389D01*
X7175253Y-16799389D02*
X7165729Y-16818436D01*
X7165729Y-16818436D02*
X7156205Y-16827960D01*
X7156205Y-16827960D02*
X7137158Y-16837484D01*
X7137158Y-16837484D02*
X7089539Y-16837484D01*
X7089539Y-16837484D02*
X7070491Y-16827960D01*
X7070491Y-16827960D02*
X7060967Y-16818436D01*
X7299062Y-16637484D02*
X7318110Y-16637484D01*
X7318110Y-16637484D02*
X7337158Y-16647008D01*
X7337158Y-16647008D02*
X7346682Y-16656531D01*
X7346682Y-16656531D02*
X7356205Y-16675579D01*
X7356205Y-16675579D02*
X7365729Y-16713674D01*
X7365729Y-16713674D02*
X7365729Y-16761293D01*
X7365729Y-16761293D02*
X7356205Y-16799389D01*
X7356205Y-16799389D02*
X7346682Y-16818436D01*
X7346682Y-16818436D02*
X7337158Y-16827960D01*
X7337158Y-16827960D02*
X7318110Y-16837484D01*
X7318110Y-16837484D02*
X7299062Y-16837484D01*
X7299062Y-16837484D02*
X7280015Y-16827960D01*
X7280015Y-16827960D02*
X7270491Y-16818436D01*
X7270491Y-16818436D02*
X7260967Y-16799389D01*
X7260967Y-16799389D02*
X7251443Y-16761293D01*
X7251443Y-16761293D02*
X7251443Y-16713674D01*
X7251443Y-16713674D02*
X7260967Y-16675579D01*
X7260967Y-16675579D02*
X7270491Y-16656531D01*
X7270491Y-16656531D02*
X7280015Y-16647008D01*
X7280015Y-16647008D02*
X7299062Y-16637484D01*
X7489539Y-16637484D02*
X7508586Y-16637484D01*
X7508586Y-16637484D02*
X7527634Y-16647008D01*
X7527634Y-16647008D02*
X7537158Y-16656531D01*
X7537158Y-16656531D02*
X7546682Y-16675579D01*
X7546682Y-16675579D02*
X7556205Y-16713674D01*
X7556205Y-16713674D02*
X7556205Y-16761293D01*
X7556205Y-16761293D02*
X7546682Y-16799389D01*
X7546682Y-16799389D02*
X7537158Y-16818436D01*
X7537158Y-16818436D02*
X7527634Y-16827960D01*
X7527634Y-16827960D02*
X7508586Y-16837484D01*
X7508586Y-16837484D02*
X7489539Y-16837484D01*
X7489539Y-16837484D02*
X7470491Y-16827960D01*
X7470491Y-16827960D02*
X7460967Y-16818436D01*
X7460967Y-16818436D02*
X7451443Y-16799389D01*
X7451443Y-16799389D02*
X7441920Y-16761293D01*
X7441920Y-16761293D02*
X7441920Y-16713674D01*
X7441920Y-16713674D02*
X7451443Y-16675579D01*
X7451443Y-16675579D02*
X7460967Y-16656531D01*
X7460967Y-16656531D02*
X7470491Y-16647008D01*
X7470491Y-16647008D02*
X7489539Y-16637484D01*
X7641920Y-16837484D02*
X7641920Y-16704150D01*
X7641920Y-16723198D02*
X7651443Y-16713674D01*
X7651443Y-16713674D02*
X7670491Y-16704150D01*
X7670491Y-16704150D02*
X7699063Y-16704150D01*
X7699063Y-16704150D02*
X7718110Y-16713674D01*
X7718110Y-16713674D02*
X7727634Y-16732722D01*
X7727634Y-16732722D02*
X7727634Y-16837484D01*
X7727634Y-16732722D02*
X7737158Y-16713674D01*
X7737158Y-16713674D02*
X7756205Y-16704150D01*
X7756205Y-16704150D02*
X7784777Y-16704150D01*
X7784777Y-16704150D02*
X7803824Y-16713674D01*
X7803824Y-16713674D02*
X7813348Y-16732722D01*
X7813348Y-16732722D02*
X7813348Y-16837484D01*
X7908586Y-16837484D02*
X7908586Y-16704150D01*
X7908586Y-16723198D02*
X7918110Y-16713674D01*
X7918110Y-16713674D02*
X7937158Y-16704150D01*
X7937158Y-16704150D02*
X7965729Y-16704150D01*
X7965729Y-16704150D02*
X7984777Y-16713674D01*
X7984777Y-16713674D02*
X7994301Y-16732722D01*
X7994301Y-16732722D02*
X7994301Y-16837484D01*
X7994301Y-16732722D02*
X8003824Y-16713674D01*
X8003824Y-16713674D02*
X8022872Y-16704150D01*
X8022872Y-16704150D02*
X8051443Y-16704150D01*
X8051443Y-16704150D02*
X8070491Y-16713674D01*
X8070491Y-16713674D02*
X8080015Y-16732722D01*
X8080015Y-16732722D02*
X8080015Y-16837484D01*
X8470491Y-16627960D02*
X8299063Y-16885103D01*
X8727634Y-16637484D02*
X8746682Y-16637484D01*
X8746682Y-16637484D02*
X8765729Y-16647008D01*
X8765729Y-16647008D02*
X8775253Y-16656531D01*
X8775253Y-16656531D02*
X8784777Y-16675579D01*
X8784777Y-16675579D02*
X8794301Y-16713674D01*
X8794301Y-16713674D02*
X8794301Y-16761293D01*
X8794301Y-16761293D02*
X8784777Y-16799389D01*
X8784777Y-16799389D02*
X8775253Y-16818436D01*
X8775253Y-16818436D02*
X8765729Y-16827960D01*
X8765729Y-16827960D02*
X8746682Y-16837484D01*
X8746682Y-16837484D02*
X8727634Y-16837484D01*
X8727634Y-16837484D02*
X8708587Y-16827960D01*
X8708587Y-16827960D02*
X8699063Y-16818436D01*
X8699063Y-16818436D02*
X8689539Y-16799389D01*
X8689539Y-16799389D02*
X8680015Y-16761293D01*
X8680015Y-16761293D02*
X8680015Y-16713674D01*
X8680015Y-16713674D02*
X8689539Y-16675579D01*
X8689539Y-16675579D02*
X8699063Y-16656531D01*
X8699063Y-16656531D02*
X8708587Y-16647008D01*
X8708587Y-16647008D02*
X8727634Y-16637484D01*
X8880015Y-16818436D02*
X8889539Y-16827960D01*
X8889539Y-16827960D02*
X8880015Y-16837484D01*
X8880015Y-16837484D02*
X8870491Y-16827960D01*
X8870491Y-16827960D02*
X8880015Y-16818436D01*
X8880015Y-16818436D02*
X8880015Y-16837484D01*
X9013348Y-16637484D02*
X9032396Y-16637484D01*
X9032396Y-16637484D02*
X9051444Y-16647008D01*
X9051444Y-16647008D02*
X9060968Y-16656531D01*
X9060968Y-16656531D02*
X9070491Y-16675579D01*
X9070491Y-16675579D02*
X9080015Y-16713674D01*
X9080015Y-16713674D02*
X9080015Y-16761293D01*
X9080015Y-16761293D02*
X9070491Y-16799389D01*
X9070491Y-16799389D02*
X9060968Y-16818436D01*
X9060968Y-16818436D02*
X9051444Y-16827960D01*
X9051444Y-16827960D02*
X9032396Y-16837484D01*
X9032396Y-16837484D02*
X9013348Y-16837484D01*
X9013348Y-16837484D02*
X8994301Y-16827960D01*
X8994301Y-16827960D02*
X8984777Y-16818436D01*
X8984777Y-16818436D02*
X8975253Y-16799389D01*
X8975253Y-16799389D02*
X8965729Y-16761293D01*
X8965729Y-16761293D02*
X8965729Y-16713674D01*
X8965729Y-16713674D02*
X8975253Y-16675579D01*
X8975253Y-16675579D02*
X8984777Y-16656531D01*
X8984777Y-16656531D02*
X8994301Y-16647008D01*
X8994301Y-16647008D02*
X9013348Y-16637484D01*
X9175253Y-16837484D02*
X9213348Y-16837484D01*
X9213348Y-16837484D02*
X9232396Y-16827960D01*
X9232396Y-16827960D02*
X9241920Y-16818436D01*
X9241920Y-16818436D02*
X9260968Y-16789865D01*
X9260968Y-16789865D02*
X9270491Y-16751769D01*
X9270491Y-16751769D02*
X9270491Y-16675579D01*
X9270491Y-16675579D02*
X9260968Y-16656531D01*
X9260968Y-16656531D02*
X9251444Y-16647008D01*
X9251444Y-16647008D02*
X9232396Y-16637484D01*
X9232396Y-16637484D02*
X9194301Y-16637484D01*
X9194301Y-16637484D02*
X9175253Y-16647008D01*
X9175253Y-16647008D02*
X9165729Y-16656531D01*
X9165729Y-16656531D02*
X9156206Y-16675579D01*
X9156206Y-16675579D02*
X9156206Y-16723198D01*
X9156206Y-16723198D02*
X9165729Y-16742246D01*
X9165729Y-16742246D02*
X9175253Y-16751769D01*
X9175253Y-16751769D02*
X9194301Y-16761293D01*
X9194301Y-16761293D02*
X9232396Y-16761293D01*
X9232396Y-16761293D02*
X9251444Y-16751769D01*
X9251444Y-16751769D02*
X9260968Y-16742246D01*
X9260968Y-16742246D02*
X9270491Y-16723198D01*
X9384777Y-16723198D02*
X9365729Y-16713674D01*
X9365729Y-16713674D02*
X9356206Y-16704150D01*
X9356206Y-16704150D02*
X9346682Y-16685103D01*
X9346682Y-16685103D02*
X9346682Y-16675579D01*
X9346682Y-16675579D02*
X9356206Y-16656531D01*
X9356206Y-16656531D02*
X9365729Y-16647008D01*
X9365729Y-16647008D02*
X9384777Y-16637484D01*
X9384777Y-16637484D02*
X9422872Y-16637484D01*
X9422872Y-16637484D02*
X9441920Y-16647008D01*
X9441920Y-16647008D02*
X9451444Y-16656531D01*
X9451444Y-16656531D02*
X9460968Y-16675579D01*
X9460968Y-16675579D02*
X9460968Y-16685103D01*
X9460968Y-16685103D02*
X9451444Y-16704150D01*
X9451444Y-16704150D02*
X9441920Y-16713674D01*
X9441920Y-16713674D02*
X9422872Y-16723198D01*
X9422872Y-16723198D02*
X9384777Y-16723198D01*
X9384777Y-16723198D02*
X9365729Y-16732722D01*
X9365729Y-16732722D02*
X9356206Y-16742246D01*
X9356206Y-16742246D02*
X9346682Y-16761293D01*
X9346682Y-16761293D02*
X9346682Y-16799389D01*
X9346682Y-16799389D02*
X9356206Y-16818436D01*
X9356206Y-16818436D02*
X9365729Y-16827960D01*
X9365729Y-16827960D02*
X9384777Y-16837484D01*
X9384777Y-16837484D02*
X9422872Y-16837484D01*
X9422872Y-16837484D02*
X9441920Y-16827960D01*
X9441920Y-16827960D02*
X9451444Y-16818436D01*
X9451444Y-16818436D02*
X9460968Y-16799389D01*
X9460968Y-16799389D02*
X9460968Y-16761293D01*
X9460968Y-16761293D02*
X9451444Y-16742246D01*
X9451444Y-16742246D02*
X9441920Y-16732722D01*
X9441920Y-16732722D02*
X9422872Y-16723198D01*
X9632396Y-16704150D02*
X9632396Y-16837484D01*
X9584777Y-16627960D02*
X9537158Y-16770817D01*
X9537158Y-16770817D02*
X9660968Y-16770817D01*
X9727634Y-16637484D02*
X9727634Y-16675579D01*
X9803825Y-16637484D02*
X9803825Y-16675579D01*
X10099063Y-16913674D02*
X10089539Y-16904150D01*
X10089539Y-16904150D02*
X10070491Y-16875579D01*
X10070491Y-16875579D02*
X10060968Y-16856531D01*
X10060968Y-16856531D02*
X10051444Y-16827960D01*
X10051444Y-16827960D02*
X10041920Y-16780341D01*
X10041920Y-16780341D02*
X10041920Y-16742246D01*
X10041920Y-16742246D02*
X10051444Y-16694627D01*
X10051444Y-16694627D02*
X10060968Y-16666055D01*
X10060968Y-16666055D02*
X10070491Y-16647008D01*
X10070491Y-16647008D02*
X10089539Y-16618436D01*
X10089539Y-16618436D02*
X10099063Y-16608912D01*
X10165730Y-16656531D02*
X10175253Y-16647008D01*
X10175253Y-16647008D02*
X10194301Y-16637484D01*
X10194301Y-16637484D02*
X10241920Y-16637484D01*
X10241920Y-16637484D02*
X10260968Y-16647008D01*
X10260968Y-16647008D02*
X10270491Y-16656531D01*
X10270491Y-16656531D02*
X10280015Y-16675579D01*
X10280015Y-16675579D02*
X10280015Y-16694627D01*
X10280015Y-16694627D02*
X10270491Y-16723198D01*
X10270491Y-16723198D02*
X10156206Y-16837484D01*
X10156206Y-16837484D02*
X10280015Y-16837484D01*
X10518111Y-16837484D02*
X10518111Y-16637484D01*
X10603825Y-16837484D02*
X10603825Y-16732722D01*
X10603825Y-16732722D02*
X10594301Y-16713674D01*
X10594301Y-16713674D02*
X10575253Y-16704150D01*
X10575253Y-16704150D02*
X10546682Y-16704150D01*
X10546682Y-16704150D02*
X10527634Y-16713674D01*
X10527634Y-16713674D02*
X10518111Y-16723198D01*
X10727634Y-16837484D02*
X10708587Y-16827960D01*
X10708587Y-16827960D02*
X10699063Y-16818436D01*
X10699063Y-16818436D02*
X10689539Y-16799389D01*
X10689539Y-16799389D02*
X10689539Y-16742246D01*
X10689539Y-16742246D02*
X10699063Y-16723198D01*
X10699063Y-16723198D02*
X10708587Y-16713674D01*
X10708587Y-16713674D02*
X10727634Y-16704150D01*
X10727634Y-16704150D02*
X10756206Y-16704150D01*
X10756206Y-16704150D02*
X10775253Y-16713674D01*
X10775253Y-16713674D02*
X10784777Y-16723198D01*
X10784777Y-16723198D02*
X10794301Y-16742246D01*
X10794301Y-16742246D02*
X10794301Y-16799389D01*
X10794301Y-16799389D02*
X10784777Y-16818436D01*
X10784777Y-16818436D02*
X10775253Y-16827960D01*
X10775253Y-16827960D02*
X10756206Y-16837484D01*
X10756206Y-16837484D02*
X10727634Y-16837484D01*
X10908587Y-16837484D02*
X10889539Y-16827960D01*
X10889539Y-16827960D02*
X10880015Y-16808912D01*
X10880015Y-16808912D02*
X10880015Y-16637484D01*
X11060968Y-16827960D02*
X11041920Y-16837484D01*
X11041920Y-16837484D02*
X11003825Y-16837484D01*
X11003825Y-16837484D02*
X10984777Y-16827960D01*
X10984777Y-16827960D02*
X10975253Y-16808912D01*
X10975253Y-16808912D02*
X10975253Y-16732722D01*
X10975253Y-16732722D02*
X10984777Y-16713674D01*
X10984777Y-16713674D02*
X11003825Y-16704150D01*
X11003825Y-16704150D02*
X11041920Y-16704150D01*
X11041920Y-16704150D02*
X11060968Y-16713674D01*
X11060968Y-16713674D02*
X11070492Y-16732722D01*
X11070492Y-16732722D02*
X11070492Y-16751769D01*
X11070492Y-16751769D02*
X10975253Y-16770817D01*
X11146682Y-16827960D02*
X11165730Y-16837484D01*
X11165730Y-16837484D02*
X11203825Y-16837484D01*
X11203825Y-16837484D02*
X11222872Y-16827960D01*
X11222872Y-16827960D02*
X11232396Y-16808912D01*
X11232396Y-16808912D02*
X11232396Y-16799389D01*
X11232396Y-16799389D02*
X11222872Y-16780341D01*
X11222872Y-16780341D02*
X11203825Y-16770817D01*
X11203825Y-16770817D02*
X11175253Y-16770817D01*
X11175253Y-16770817D02*
X11156206Y-16761293D01*
X11156206Y-16761293D02*
X11146682Y-16742246D01*
X11146682Y-16742246D02*
X11146682Y-16732722D01*
X11146682Y-16732722D02*
X11156206Y-16713674D01*
X11156206Y-16713674D02*
X11175253Y-16704150D01*
X11175253Y-16704150D02*
X11203825Y-16704150D01*
X11203825Y-16704150D02*
X11222872Y-16713674D01*
X11299063Y-16913674D02*
X11308587Y-16904150D01*
X11308587Y-16904150D02*
X11327634Y-16875579D01*
X11327634Y-16875579D02*
X11337158Y-16856531D01*
X11337158Y-16856531D02*
X11346682Y-16827960D01*
X11346682Y-16827960D02*
X11356206Y-16780341D01*
X11356206Y-16780341D02*
X11356206Y-16742246D01*
X11356206Y-16742246D02*
X11346682Y-16694627D01*
X11346682Y-16694627D02*
X11337158Y-16666055D01*
X11337158Y-16666055D02*
X11327634Y-16647008D01*
X11327634Y-16647008D02*
X11308587Y-16618436D01*
X11308587Y-16618436D02*
X11299063Y-16608912D01*
X6324000Y-16966000D02*
X6524000Y-17166000D01*
X6524000Y-16966000D02*
X6324000Y-17166000D01*
X6494711Y-17136711D02*
X6494711Y-16995289D01*
X6353289Y-16995289D01*
X6353289Y-17136711D01*
X6494711Y-17136711D01*
X6765729Y-16957484D02*
X6889539Y-16957484D01*
X6889539Y-16957484D02*
X6822872Y-17033674D01*
X6822872Y-17033674D02*
X6851443Y-17033674D01*
X6851443Y-17033674D02*
X6870491Y-17043198D01*
X6870491Y-17043198D02*
X6880015Y-17052722D01*
X6880015Y-17052722D02*
X6889539Y-17071770D01*
X6889539Y-17071770D02*
X6889539Y-17119389D01*
X6889539Y-17119389D02*
X6880015Y-17138436D01*
X6880015Y-17138436D02*
X6870491Y-17147960D01*
X6870491Y-17147960D02*
X6851443Y-17157484D01*
X6851443Y-17157484D02*
X6794301Y-17157484D01*
X6794301Y-17157484D02*
X6775253Y-17147960D01*
X6775253Y-17147960D02*
X6765729Y-17138436D01*
X6975253Y-17138436D02*
X6984777Y-17147960D01*
X6984777Y-17147960D02*
X6975253Y-17157484D01*
X6975253Y-17157484D02*
X6965729Y-17147960D01*
X6965729Y-17147960D02*
X6975253Y-17138436D01*
X6975253Y-17138436D02*
X6975253Y-17157484D01*
X7060967Y-16976531D02*
X7070491Y-16967008D01*
X7070491Y-16967008D02*
X7089539Y-16957484D01*
X7089539Y-16957484D02*
X7137158Y-16957484D01*
X7137158Y-16957484D02*
X7156205Y-16967008D01*
X7156205Y-16967008D02*
X7165729Y-16976531D01*
X7165729Y-16976531D02*
X7175253Y-16995579D01*
X7175253Y-16995579D02*
X7175253Y-17014627D01*
X7175253Y-17014627D02*
X7165729Y-17043198D01*
X7165729Y-17043198D02*
X7051443Y-17157484D01*
X7051443Y-17157484D02*
X7175253Y-17157484D01*
X7299062Y-16957484D02*
X7318110Y-16957484D01*
X7318110Y-16957484D02*
X7337158Y-16967008D01*
X7337158Y-16967008D02*
X7346682Y-16976531D01*
X7346682Y-16976531D02*
X7356205Y-16995579D01*
X7356205Y-16995579D02*
X7365729Y-17033674D01*
X7365729Y-17033674D02*
X7365729Y-17081293D01*
X7365729Y-17081293D02*
X7356205Y-17119389D01*
X7356205Y-17119389D02*
X7346682Y-17138436D01*
X7346682Y-17138436D02*
X7337158Y-17147960D01*
X7337158Y-17147960D02*
X7318110Y-17157484D01*
X7318110Y-17157484D02*
X7299062Y-17157484D01*
X7299062Y-17157484D02*
X7280015Y-17147960D01*
X7280015Y-17147960D02*
X7270491Y-17138436D01*
X7270491Y-17138436D02*
X7260967Y-17119389D01*
X7260967Y-17119389D02*
X7251443Y-17081293D01*
X7251443Y-17081293D02*
X7251443Y-17033674D01*
X7251443Y-17033674D02*
X7260967Y-16995579D01*
X7260967Y-16995579D02*
X7270491Y-16976531D01*
X7270491Y-16976531D02*
X7280015Y-16967008D01*
X7280015Y-16967008D02*
X7299062Y-16957484D01*
X7489539Y-16957484D02*
X7508586Y-16957484D01*
X7508586Y-16957484D02*
X7527634Y-16967008D01*
X7527634Y-16967008D02*
X7537158Y-16976531D01*
X7537158Y-16976531D02*
X7546682Y-16995579D01*
X7546682Y-16995579D02*
X7556205Y-17033674D01*
X7556205Y-17033674D02*
X7556205Y-17081293D01*
X7556205Y-17081293D02*
X7546682Y-17119389D01*
X7546682Y-17119389D02*
X7537158Y-17138436D01*
X7537158Y-17138436D02*
X7527634Y-17147960D01*
X7527634Y-17147960D02*
X7508586Y-17157484D01*
X7508586Y-17157484D02*
X7489539Y-17157484D01*
X7489539Y-17157484D02*
X7470491Y-17147960D01*
X7470491Y-17147960D02*
X7460967Y-17138436D01*
X7460967Y-17138436D02*
X7451443Y-17119389D01*
X7451443Y-17119389D02*
X7441920Y-17081293D01*
X7441920Y-17081293D02*
X7441920Y-17033674D01*
X7441920Y-17033674D02*
X7451443Y-16995579D01*
X7451443Y-16995579D02*
X7460967Y-16976531D01*
X7460967Y-16976531D02*
X7470491Y-16967008D01*
X7470491Y-16967008D02*
X7489539Y-16957484D01*
X7641920Y-17157484D02*
X7641920Y-17024150D01*
X7641920Y-17043198D02*
X7651443Y-17033674D01*
X7651443Y-17033674D02*
X7670491Y-17024150D01*
X7670491Y-17024150D02*
X7699063Y-17024150D01*
X7699063Y-17024150D02*
X7718110Y-17033674D01*
X7718110Y-17033674D02*
X7727634Y-17052722D01*
X7727634Y-17052722D02*
X7727634Y-17157484D01*
X7727634Y-17052722D02*
X7737158Y-17033674D01*
X7737158Y-17033674D02*
X7756205Y-17024150D01*
X7756205Y-17024150D02*
X7784777Y-17024150D01*
X7784777Y-17024150D02*
X7803824Y-17033674D01*
X7803824Y-17033674D02*
X7813348Y-17052722D01*
X7813348Y-17052722D02*
X7813348Y-17157484D01*
X7908586Y-17157484D02*
X7908586Y-17024150D01*
X7908586Y-17043198D02*
X7918110Y-17033674D01*
X7918110Y-17033674D02*
X7937158Y-17024150D01*
X7937158Y-17024150D02*
X7965729Y-17024150D01*
X7965729Y-17024150D02*
X7984777Y-17033674D01*
X7984777Y-17033674D02*
X7994301Y-17052722D01*
X7994301Y-17052722D02*
X7994301Y-17157484D01*
X7994301Y-17052722D02*
X8003824Y-17033674D01*
X8003824Y-17033674D02*
X8022872Y-17024150D01*
X8022872Y-17024150D02*
X8051443Y-17024150D01*
X8051443Y-17024150D02*
X8070491Y-17033674D01*
X8070491Y-17033674D02*
X8080015Y-17052722D01*
X8080015Y-17052722D02*
X8080015Y-17157484D01*
X8470491Y-16947960D02*
X8299063Y-17205103D01*
X8727634Y-16957484D02*
X8746682Y-16957484D01*
X8746682Y-16957484D02*
X8765729Y-16967008D01*
X8765729Y-16967008D02*
X8775253Y-16976531D01*
X8775253Y-16976531D02*
X8784777Y-16995579D01*
X8784777Y-16995579D02*
X8794301Y-17033674D01*
X8794301Y-17033674D02*
X8794301Y-17081293D01*
X8794301Y-17081293D02*
X8784777Y-17119389D01*
X8784777Y-17119389D02*
X8775253Y-17138436D01*
X8775253Y-17138436D02*
X8765729Y-17147960D01*
X8765729Y-17147960D02*
X8746682Y-17157484D01*
X8746682Y-17157484D02*
X8727634Y-17157484D01*
X8727634Y-17157484D02*
X8708587Y-17147960D01*
X8708587Y-17147960D02*
X8699063Y-17138436D01*
X8699063Y-17138436D02*
X8689539Y-17119389D01*
X8689539Y-17119389D02*
X8680015Y-17081293D01*
X8680015Y-17081293D02*
X8680015Y-17033674D01*
X8680015Y-17033674D02*
X8689539Y-16995579D01*
X8689539Y-16995579D02*
X8699063Y-16976531D01*
X8699063Y-16976531D02*
X8708587Y-16967008D01*
X8708587Y-16967008D02*
X8727634Y-16957484D01*
X8880015Y-17138436D02*
X8889539Y-17147960D01*
X8889539Y-17147960D02*
X8880015Y-17157484D01*
X8880015Y-17157484D02*
X8870491Y-17147960D01*
X8870491Y-17147960D02*
X8880015Y-17138436D01*
X8880015Y-17138436D02*
X8880015Y-17157484D01*
X9080015Y-17157484D02*
X8965729Y-17157484D01*
X9022872Y-17157484D02*
X9022872Y-16957484D01*
X9022872Y-16957484D02*
X9003825Y-16986055D01*
X9003825Y-16986055D02*
X8984777Y-17005103D01*
X8984777Y-17005103D02*
X8965729Y-17014627D01*
X9156206Y-16976531D02*
X9165729Y-16967008D01*
X9165729Y-16967008D02*
X9184777Y-16957484D01*
X9184777Y-16957484D02*
X9232396Y-16957484D01*
X9232396Y-16957484D02*
X9251444Y-16967008D01*
X9251444Y-16967008D02*
X9260968Y-16976531D01*
X9260968Y-16976531D02*
X9270491Y-16995579D01*
X9270491Y-16995579D02*
X9270491Y-17014627D01*
X9270491Y-17014627D02*
X9260968Y-17043198D01*
X9260968Y-17043198D02*
X9146682Y-17157484D01*
X9146682Y-17157484D02*
X9270491Y-17157484D01*
X9441920Y-16957484D02*
X9403825Y-16957484D01*
X9403825Y-16957484D02*
X9384777Y-16967008D01*
X9384777Y-16967008D02*
X9375253Y-16976531D01*
X9375253Y-16976531D02*
X9356206Y-17005103D01*
X9356206Y-17005103D02*
X9346682Y-17043198D01*
X9346682Y-17043198D02*
X9346682Y-17119389D01*
X9346682Y-17119389D02*
X9356206Y-17138436D01*
X9356206Y-17138436D02*
X9365729Y-17147960D01*
X9365729Y-17147960D02*
X9384777Y-17157484D01*
X9384777Y-17157484D02*
X9422872Y-17157484D01*
X9422872Y-17157484D02*
X9441920Y-17147960D01*
X9441920Y-17147960D02*
X9451444Y-17138436D01*
X9451444Y-17138436D02*
X9460968Y-17119389D01*
X9460968Y-17119389D02*
X9460968Y-17071770D01*
X9460968Y-17071770D02*
X9451444Y-17052722D01*
X9451444Y-17052722D02*
X9441920Y-17043198D01*
X9441920Y-17043198D02*
X9422872Y-17033674D01*
X9422872Y-17033674D02*
X9384777Y-17033674D01*
X9384777Y-17033674D02*
X9365729Y-17043198D01*
X9365729Y-17043198D02*
X9356206Y-17052722D01*
X9356206Y-17052722D02*
X9346682Y-17071770D01*
X9584777Y-16957484D02*
X9603825Y-16957484D01*
X9603825Y-16957484D02*
X9622872Y-16967008D01*
X9622872Y-16967008D02*
X9632396Y-16976531D01*
X9632396Y-16976531D02*
X9641920Y-16995579D01*
X9641920Y-16995579D02*
X9651444Y-17033674D01*
X9651444Y-17033674D02*
X9651444Y-17081293D01*
X9651444Y-17081293D02*
X9641920Y-17119389D01*
X9641920Y-17119389D02*
X9632396Y-17138436D01*
X9632396Y-17138436D02*
X9622872Y-17147960D01*
X9622872Y-17147960D02*
X9603825Y-17157484D01*
X9603825Y-17157484D02*
X9584777Y-17157484D01*
X9584777Y-17157484D02*
X9565729Y-17147960D01*
X9565729Y-17147960D02*
X9556206Y-17138436D01*
X9556206Y-17138436D02*
X9546682Y-17119389D01*
X9546682Y-17119389D02*
X9537158Y-17081293D01*
X9537158Y-17081293D02*
X9537158Y-17033674D01*
X9537158Y-17033674D02*
X9546682Y-16995579D01*
X9546682Y-16995579D02*
X9556206Y-16976531D01*
X9556206Y-16976531D02*
X9565729Y-16967008D01*
X9565729Y-16967008D02*
X9584777Y-16957484D01*
X9727634Y-16957484D02*
X9727634Y-16995579D01*
X9803825Y-16957484D02*
X9803825Y-16995579D01*
X10099063Y-17233674D02*
X10089539Y-17224150D01*
X10089539Y-17224150D02*
X10070491Y-17195579D01*
X10070491Y-17195579D02*
X10060968Y-17176531D01*
X10060968Y-17176531D02*
X10051444Y-17147960D01*
X10051444Y-17147960D02*
X10041920Y-17100341D01*
X10041920Y-17100341D02*
X10041920Y-17062246D01*
X10041920Y-17062246D02*
X10051444Y-17014627D01*
X10051444Y-17014627D02*
X10060968Y-16986055D01*
X10060968Y-16986055D02*
X10070491Y-16967008D01*
X10070491Y-16967008D02*
X10089539Y-16938436D01*
X10089539Y-16938436D02*
X10099063Y-16928912D01*
X10165730Y-16976531D02*
X10175253Y-16967008D01*
X10175253Y-16967008D02*
X10194301Y-16957484D01*
X10194301Y-16957484D02*
X10241920Y-16957484D01*
X10241920Y-16957484D02*
X10260968Y-16967008D01*
X10260968Y-16967008D02*
X10270491Y-16976531D01*
X10270491Y-16976531D02*
X10280015Y-16995579D01*
X10280015Y-16995579D02*
X10280015Y-17014627D01*
X10280015Y-17014627D02*
X10270491Y-17043198D01*
X10270491Y-17043198D02*
X10156206Y-17157484D01*
X10156206Y-17157484D02*
X10280015Y-17157484D01*
X10518111Y-17157484D02*
X10518111Y-16957484D01*
X10603825Y-17157484D02*
X10603825Y-17052722D01*
X10603825Y-17052722D02*
X10594301Y-17033674D01*
X10594301Y-17033674D02*
X10575253Y-17024150D01*
X10575253Y-17024150D02*
X10546682Y-17024150D01*
X10546682Y-17024150D02*
X10527634Y-17033674D01*
X10527634Y-17033674D02*
X10518111Y-17043198D01*
X10727634Y-17157484D02*
X10708587Y-17147960D01*
X10708587Y-17147960D02*
X10699063Y-17138436D01*
X10699063Y-17138436D02*
X10689539Y-17119389D01*
X10689539Y-17119389D02*
X10689539Y-17062246D01*
X10689539Y-17062246D02*
X10699063Y-17043198D01*
X10699063Y-17043198D02*
X10708587Y-17033674D01*
X10708587Y-17033674D02*
X10727634Y-17024150D01*
X10727634Y-17024150D02*
X10756206Y-17024150D01*
X10756206Y-17024150D02*
X10775253Y-17033674D01*
X10775253Y-17033674D02*
X10784777Y-17043198D01*
X10784777Y-17043198D02*
X10794301Y-17062246D01*
X10794301Y-17062246D02*
X10794301Y-17119389D01*
X10794301Y-17119389D02*
X10784777Y-17138436D01*
X10784777Y-17138436D02*
X10775253Y-17147960D01*
X10775253Y-17147960D02*
X10756206Y-17157484D01*
X10756206Y-17157484D02*
X10727634Y-17157484D01*
X10908587Y-17157484D02*
X10889539Y-17147960D01*
X10889539Y-17147960D02*
X10880015Y-17128912D01*
X10880015Y-17128912D02*
X10880015Y-16957484D01*
X11060968Y-17147960D02*
X11041920Y-17157484D01*
X11041920Y-17157484D02*
X11003825Y-17157484D01*
X11003825Y-17157484D02*
X10984777Y-17147960D01*
X10984777Y-17147960D02*
X10975253Y-17128912D01*
X10975253Y-17128912D02*
X10975253Y-17052722D01*
X10975253Y-17052722D02*
X10984777Y-17033674D01*
X10984777Y-17033674D02*
X11003825Y-17024150D01*
X11003825Y-17024150D02*
X11041920Y-17024150D01*
X11041920Y-17024150D02*
X11060968Y-17033674D01*
X11060968Y-17033674D02*
X11070492Y-17052722D01*
X11070492Y-17052722D02*
X11070492Y-17071770D01*
X11070492Y-17071770D02*
X10975253Y-17090817D01*
X11146682Y-17147960D02*
X11165730Y-17157484D01*
X11165730Y-17157484D02*
X11203825Y-17157484D01*
X11203825Y-17157484D02*
X11222872Y-17147960D01*
X11222872Y-17147960D02*
X11232396Y-17128912D01*
X11232396Y-17128912D02*
X11232396Y-17119389D01*
X11232396Y-17119389D02*
X11222872Y-17100341D01*
X11222872Y-17100341D02*
X11203825Y-17090817D01*
X11203825Y-17090817D02*
X11175253Y-17090817D01*
X11175253Y-17090817D02*
X11156206Y-17081293D01*
X11156206Y-17081293D02*
X11146682Y-17062246D01*
X11146682Y-17062246D02*
X11146682Y-17052722D01*
X11146682Y-17052722D02*
X11156206Y-17033674D01*
X11156206Y-17033674D02*
X11175253Y-17024150D01*
X11175253Y-17024150D02*
X11203825Y-17024150D01*
X11203825Y-17024150D02*
X11222872Y-17033674D01*
X11299063Y-17233674D02*
X11308587Y-17224150D01*
X11308587Y-17224150D02*
X11327634Y-17195579D01*
X11327634Y-17195579D02*
X11337158Y-17176531D01*
X11337158Y-17176531D02*
X11346682Y-17147960D01*
X11346682Y-17147960D02*
X11356206Y-17100341D01*
X11356206Y-17100341D02*
X11356206Y-17062246D01*
X11356206Y-17062246D02*
X11346682Y-17014627D01*
X11346682Y-17014627D02*
X11337158Y-16986055D01*
X11337158Y-16986055D02*
X11327634Y-16967008D01*
X11327634Y-16967008D02*
X11308587Y-16938436D01*
X11308587Y-16938436D02*
X11299063Y-16928912D01*
X11660968Y-17233674D02*
X11651444Y-17224150D01*
X11651444Y-17224150D02*
X11632396Y-17195579D01*
X11632396Y-17195579D02*
X11622872Y-17176531D01*
X11622872Y-17176531D02*
X11613349Y-17147960D01*
X11613349Y-17147960D02*
X11603825Y-17100341D01*
X11603825Y-17100341D02*
X11603825Y-17062246D01*
X11603825Y-17062246D02*
X11613349Y-17014627D01*
X11613349Y-17014627D02*
X11622872Y-16986055D01*
X11622872Y-16986055D02*
X11632396Y-16967008D01*
X11632396Y-16967008D02*
X11651444Y-16938436D01*
X11651444Y-16938436D02*
X11660968Y-16928912D01*
X11737158Y-17024150D02*
X11737158Y-17157484D01*
X11737158Y-17043198D02*
X11746682Y-17033674D01*
X11746682Y-17033674D02*
X11765730Y-17024150D01*
X11765730Y-17024150D02*
X11794301Y-17024150D01*
X11794301Y-17024150D02*
X11813349Y-17033674D01*
X11813349Y-17033674D02*
X11822872Y-17052722D01*
X11822872Y-17052722D02*
X11822872Y-17157484D01*
X11946682Y-17157484D02*
X11927634Y-17147960D01*
X11927634Y-17147960D02*
X11918111Y-17138436D01*
X11918111Y-17138436D02*
X11908587Y-17119389D01*
X11908587Y-17119389D02*
X11908587Y-17062246D01*
X11908587Y-17062246D02*
X11918111Y-17043198D01*
X11918111Y-17043198D02*
X11927634Y-17033674D01*
X11927634Y-17033674D02*
X11946682Y-17024150D01*
X11946682Y-17024150D02*
X11975253Y-17024150D01*
X11975253Y-17024150D02*
X11994301Y-17033674D01*
X11994301Y-17033674D02*
X12003825Y-17043198D01*
X12003825Y-17043198D02*
X12013349Y-17062246D01*
X12013349Y-17062246D02*
X12013349Y-17119389D01*
X12013349Y-17119389D02*
X12003825Y-17138436D01*
X12003825Y-17138436D02*
X11994301Y-17147960D01*
X11994301Y-17147960D02*
X11975253Y-17157484D01*
X11975253Y-17157484D02*
X11946682Y-17157484D01*
X12070492Y-17024150D02*
X12146682Y-17024150D01*
X12099063Y-16957484D02*
X12099063Y-17128912D01*
X12099063Y-17128912D02*
X12108587Y-17147960D01*
X12108587Y-17147960D02*
X12127634Y-17157484D01*
X12127634Y-17157484D02*
X12146682Y-17157484D01*
X12365730Y-17024150D02*
X12365730Y-17224150D01*
X12365730Y-17033674D02*
X12384777Y-17024150D01*
X12384777Y-17024150D02*
X12422873Y-17024150D01*
X12422873Y-17024150D02*
X12441920Y-17033674D01*
X12441920Y-17033674D02*
X12451444Y-17043198D01*
X12451444Y-17043198D02*
X12460968Y-17062246D01*
X12460968Y-17062246D02*
X12460968Y-17119389D01*
X12460968Y-17119389D02*
X12451444Y-17138436D01*
X12451444Y-17138436D02*
X12441920Y-17147960D01*
X12441920Y-17147960D02*
X12422873Y-17157484D01*
X12422873Y-17157484D02*
X12384777Y-17157484D01*
X12384777Y-17157484D02*
X12365730Y-17147960D01*
X12575253Y-17157484D02*
X12556206Y-17147960D01*
X12556206Y-17147960D02*
X12546682Y-17128912D01*
X12546682Y-17128912D02*
X12546682Y-16957484D01*
X12737158Y-17157484D02*
X12737158Y-17052722D01*
X12737158Y-17052722D02*
X12727634Y-17033674D01*
X12727634Y-17033674D02*
X12708587Y-17024150D01*
X12708587Y-17024150D02*
X12670492Y-17024150D01*
X12670492Y-17024150D02*
X12651444Y-17033674D01*
X12737158Y-17147960D02*
X12718111Y-17157484D01*
X12718111Y-17157484D02*
X12670492Y-17157484D01*
X12670492Y-17157484D02*
X12651444Y-17147960D01*
X12651444Y-17147960D02*
X12641920Y-17128912D01*
X12641920Y-17128912D02*
X12641920Y-17109865D01*
X12641920Y-17109865D02*
X12651444Y-17090817D01*
X12651444Y-17090817D02*
X12670492Y-17081293D01*
X12670492Y-17081293D02*
X12718111Y-17081293D01*
X12718111Y-17081293D02*
X12737158Y-17071770D01*
X12803825Y-17024150D02*
X12880015Y-17024150D01*
X12832396Y-16957484D02*
X12832396Y-17128912D01*
X12832396Y-17128912D02*
X12841920Y-17147960D01*
X12841920Y-17147960D02*
X12860968Y-17157484D01*
X12860968Y-17157484D02*
X12880015Y-17157484D01*
X13022873Y-17147960D02*
X13003825Y-17157484D01*
X13003825Y-17157484D02*
X12965730Y-17157484D01*
X12965730Y-17157484D02*
X12946682Y-17147960D01*
X12946682Y-17147960D02*
X12937158Y-17128912D01*
X12937158Y-17128912D02*
X12937158Y-17052722D01*
X12937158Y-17052722D02*
X12946682Y-17033674D01*
X12946682Y-17033674D02*
X12965730Y-17024150D01*
X12965730Y-17024150D02*
X13003825Y-17024150D01*
X13003825Y-17024150D02*
X13022873Y-17033674D01*
X13022873Y-17033674D02*
X13032396Y-17052722D01*
X13032396Y-17052722D02*
X13032396Y-17071770D01*
X13032396Y-17071770D02*
X12937158Y-17090817D01*
X13203825Y-17157484D02*
X13203825Y-16957484D01*
X13203825Y-17147960D02*
X13184777Y-17157484D01*
X13184777Y-17157484D02*
X13146682Y-17157484D01*
X13146682Y-17157484D02*
X13127634Y-17147960D01*
X13127634Y-17147960D02*
X13118111Y-17138436D01*
X13118111Y-17138436D02*
X13108587Y-17119389D01*
X13108587Y-17119389D02*
X13108587Y-17062246D01*
X13108587Y-17062246D02*
X13118111Y-17043198D01*
X13118111Y-17043198D02*
X13127634Y-17033674D01*
X13127634Y-17033674D02*
X13146682Y-17024150D01*
X13146682Y-17024150D02*
X13184777Y-17024150D01*
X13184777Y-17024150D02*
X13203825Y-17033674D01*
X13280015Y-17233674D02*
X13289539Y-17224150D01*
X13289539Y-17224150D02*
X13308587Y-17195579D01*
X13308587Y-17195579D02*
X13318111Y-17176531D01*
X13318111Y-17176531D02*
X13327634Y-17147960D01*
X13327634Y-17147960D02*
X13337158Y-17100341D01*
X13337158Y-17100341D02*
X13337158Y-17062246D01*
X13337158Y-17062246D02*
X13327634Y-17014627D01*
X13327634Y-17014627D02*
X13318111Y-16986055D01*
X13318111Y-16986055D02*
X13308587Y-16967008D01*
X13308587Y-16967008D02*
X13289539Y-16938436D01*
X13289539Y-16938436D02*
X13280015Y-16928912D01*
M02*
