%TF.GenerationSoftware,KiCad,Pcbnew,9.0.6*%
%TF.CreationDate,2026-01-27T23:19:47+00:00*%
%TF.ProjectId,Custom-Mixer-ESP32,43757374-6f6d-42d4-9d69-7865722d4553,rev?*%
%TF.SameCoordinates,Original*%
%TF.FileFunction,Soldermask,Top*%
%TF.FilePolarity,Negative*%
%FSLAX46Y46*%
G04 Gerber Fmt 4.6, Leading zero omitted, Abs format (unit mm)*
G04 Created by KiCad (PCBNEW 9.0.6) date 2026-01-27 23:19:47*
%MOMM*%
%LPD*%
G01*
G04 APERTURE LIST*
G04 Aperture macros list*
%AMRoundRect*
0 Rectangle with rounded corners*
0 $1 Rounding radius*
0 $2 $3 $4 $5 $6 $7 $8 $9 X,Y pos of 4 corners*
0 Add a 4 corners polygon primitive as box body*
4,1,4,$2,$3,$4,$5,$6,$7,$8,$9,$2,$3,0*
0 Add four circle primitives for the rounded corners*
1,1,$1+$1,$2,$3*
1,1,$1+$1,$4,$5*
1,1,$1+$1,$6,$7*
1,1,$1+$1,$8,$9*
0 Add four rect primitives between the rounded corners*
20,1,$1+$1,$2,$3,$4,$5,0*
20,1,$1+$1,$4,$5,$6,$7,0*
20,1,$1+$1,$6,$7,$8,$9,0*
20,1,$1+$1,$8,$9,$2,$3,0*%
G04 Aperture macros list end*
%ADD10C,0.000000*%
%ADD11RoundRect,0.102000X0.754000X-0.754000X0.754000X0.754000X-0.754000X0.754000X-0.754000X-0.754000X0*%
%ADD12C,1.712000*%
%ADD13C,3.720000*%
%ADD14C,1.600000*%
%ADD15R,1.750000X1.750000*%
%ADD16C,1.750000*%
%ADD17C,2.700000*%
%ADD18R,1.700000X1.700000*%
%ADD19O,1.700000X1.700000*%
%ADD20R,2.000000X1.200000*%
%ADD21O,2.000000X1.200000*%
%ADD22C,3.200000*%
%ADD23R,2.000000X2.000000*%
%ADD24C,2.000000*%
%ADD25R,3.200000X2.000000*%
%ADD26RoundRect,0.250000X-0.550000X-0.550000X0.550000X-0.550000X0.550000X0.550000X-0.550000X0.550000X0*%
G04 APERTURE END LIST*
D10*
%TO.C,G\u002A\u002A\u002A*%
G36*
X233198462Y-117289523D02*
G01*
X233275696Y-117433342D01*
X233283298Y-117539559D01*
X233212515Y-117723430D01*
X233041985Y-117921657D01*
X232834432Y-118073779D01*
X232679361Y-118121709D01*
X232597496Y-118046318D01*
X232493642Y-117857384D01*
X232457812Y-117772619D01*
X232320685Y-117423530D01*
X232705489Y-117315791D01*
X233016969Y-117253660D01*
X233198462Y-117289523D01*
G37*
G36*
X214604176Y-116668081D02*
G01*
X214636007Y-116791297D01*
X214644281Y-117040141D01*
X214627504Y-117362732D01*
X214625012Y-117390421D01*
X214588587Y-117736234D01*
X214533202Y-117934527D01*
X214419897Y-118015531D01*
X214209711Y-118009478D01*
X213899447Y-117953421D01*
X213610315Y-117898118D01*
X214067001Y-117242854D01*
X214293814Y-116937889D01*
X214473083Y-116737344D01*
X214585334Y-116662060D01*
X214604176Y-116668081D01*
G37*
G36*
X233731325Y-118609517D02*
G01*
X233805811Y-118778154D01*
X233774089Y-118985457D01*
X233639952Y-119199387D01*
X233407194Y-119387903D01*
X233131455Y-119505150D01*
X233000895Y-119518183D01*
X232916874Y-119435755D01*
X232842691Y-119219116D01*
X232835500Y-119192666D01*
X232787153Y-118878188D01*
X232861437Y-118677303D01*
X233078527Y-118556980D01*
X233248547Y-118516403D01*
X233546835Y-118511586D01*
X233731325Y-118609517D01*
G37*
G36*
X210432981Y-112517850D02*
G01*
X211214777Y-112573320D01*
X211977518Y-112659952D01*
X212672936Y-112775183D01*
X212757594Y-112792489D01*
X213728111Y-113015600D01*
X214672618Y-113275636D01*
X215626596Y-113584915D01*
X216625530Y-113955754D01*
X217704902Y-114400470D01*
X218839284Y-114903577D01*
X219949660Y-115386657D01*
X220960726Y-115773050D01*
X221915456Y-116074464D01*
X222856829Y-116302608D01*
X223827821Y-116469190D01*
X224871409Y-116585919D01*
X225077488Y-116603114D01*
X226636748Y-116647693D01*
X228263205Y-116543169D01*
X229932731Y-116294243D01*
X231621199Y-115905617D01*
X233304483Y-115381992D01*
X234958455Y-114728069D01*
X235159205Y-114638634D01*
X235621105Y-114423287D01*
X236100762Y-114188169D01*
X236529382Y-113967508D01*
X236746844Y-113848717D01*
X237046278Y-113688139D01*
X237283868Y-113577720D01*
X237419947Y-113535305D01*
X237435468Y-113538902D01*
X237412426Y-113630552D01*
X237317320Y-113854304D01*
X237162234Y-114184413D01*
X236959252Y-114595138D01*
X236726593Y-115048971D01*
X236484952Y-115517424D01*
X236275003Y-115933545D01*
X236109863Y-116270585D01*
X236002649Y-116501793D01*
X235966396Y-116599221D01*
X236054626Y-116634642D01*
X236314845Y-116661742D01*
X236740345Y-116680160D01*
X237324418Y-116689537D01*
X237673145Y-116690723D01*
X238303113Y-116695155D01*
X238795476Y-116708055D01*
X239138915Y-116728834D01*
X239322111Y-116756899D01*
X239350082Y-116778278D01*
X239268729Y-116875050D01*
X239069544Y-117064512D01*
X238774681Y-117328001D01*
X238406295Y-117646855D01*
X237986538Y-118002410D01*
X237537566Y-118376005D01*
X237081533Y-118748975D01*
X236640593Y-119102658D01*
X236236899Y-119418392D01*
X236024023Y-119580171D01*
X234444539Y-120711277D01*
X232921813Y-121695818D01*
X231460368Y-122531475D01*
X230064728Y-123215927D01*
X228739416Y-123746854D01*
X227488953Y-124121936D01*
X226935398Y-124242399D01*
X226453991Y-124308010D01*
X225835766Y-124353019D01*
X225121642Y-124376963D01*
X224352538Y-124379377D01*
X223569371Y-124359796D01*
X222813060Y-124317757D01*
X222506185Y-124292649D01*
X221492403Y-124187828D01*
X220519500Y-124059012D01*
X219556702Y-123899695D01*
X218573236Y-123703373D01*
X217538327Y-123463539D01*
X216421201Y-123173688D01*
X215191085Y-122827316D01*
X214233298Y-122543832D01*
X212863221Y-122137017D01*
X211644665Y-121787460D01*
X210602769Y-121503035D01*
X218360657Y-121503035D01*
X218404282Y-121621635D01*
X218475113Y-121693842D01*
X218660255Y-121743021D01*
X218893773Y-121656151D01*
X219147120Y-121458674D01*
X219391751Y-121176029D01*
X219599117Y-120833656D01*
X219695001Y-120606680D01*
X219818792Y-120357912D01*
X219960715Y-120220500D01*
X220089961Y-120218236D01*
X220135219Y-120266738D01*
X220176040Y-120390993D01*
X220238035Y-120647679D01*
X220311108Y-120993109D01*
X220353788Y-121212650D01*
X220436314Y-121594929D01*
X220525479Y-121918320D01*
X220607594Y-122136588D01*
X220644590Y-122194873D01*
X220861050Y-122307787D01*
X221109851Y-122303703D01*
X221300117Y-122189478D01*
X221368779Y-121991646D01*
X221375396Y-121671641D01*
X221325233Y-121273015D01*
X221223555Y-120839322D01*
X221089592Y-120448155D01*
X221011128Y-120253897D01*
X223899122Y-120253897D01*
X223919885Y-120805288D01*
X224016895Y-121334481D01*
X224191056Y-121804264D01*
X224443275Y-122177426D01*
X224472035Y-122207207D01*
X224666881Y-122381492D01*
X224849020Y-122470215D01*
X225094041Y-122501366D01*
X225273842Y-122504103D01*
X225593664Y-122489377D01*
X225804198Y-122431165D01*
X225973614Y-122308423D01*
X226004249Y-122278606D01*
X226168155Y-122044114D01*
X226201416Y-121853783D01*
X226169593Y-121741244D01*
X226085361Y-121685936D01*
X225903328Y-121673360D01*
X225668665Y-121683636D01*
X225360871Y-121690015D01*
X225167018Y-121653852D01*
X225024155Y-121559141D01*
X224972036Y-121506506D01*
X224750279Y-121159368D01*
X224610416Y-120716854D01*
X224558492Y-120237858D01*
X224600549Y-119781274D01*
X224742632Y-119405995D01*
X224754569Y-119387196D01*
X224888659Y-119242360D01*
X225066052Y-119216183D01*
X225174873Y-119233482D01*
X225505250Y-119293180D01*
X225700483Y-119304002D01*
X225799116Y-119259828D01*
X225839692Y-119154543D01*
X225843996Y-119127288D01*
X225796098Y-118910484D01*
X225730150Y-118819384D01*
X226586412Y-118819384D01*
X226606862Y-119144284D01*
X226652288Y-119536762D01*
X226714517Y-120029099D01*
X226780591Y-120565234D01*
X226838496Y-121047396D01*
X226850814Y-121152567D01*
X226896114Y-121504998D01*
X226940639Y-121788861D01*
X226976757Y-121957341D01*
X226985662Y-121979856D01*
X227122398Y-122042107D01*
X227403449Y-122047540D01*
X227803941Y-121997395D01*
X228185410Y-121919997D01*
X228716266Y-121781398D01*
X229075588Y-121648411D01*
X229270416Y-121516340D01*
X229307793Y-121380489D01*
X229201917Y-121242019D01*
X229080504Y-121183001D01*
X228891830Y-121178746D01*
X228586321Y-121228755D01*
X228553434Y-121235480D01*
X228227418Y-121294523D01*
X227937994Y-121332984D01*
X227805401Y-121341427D01*
X227702507Y-121332572D01*
X227626324Y-121288992D01*
X227570245Y-121185164D01*
X227527665Y-120995568D01*
X227491975Y-120694681D01*
X227456569Y-120256980D01*
X227431184Y-119895846D01*
X227372792Y-119368889D01*
X227280781Y-118922315D01*
X227164096Y-118572824D01*
X227031681Y-118337119D01*
X226892483Y-118231902D01*
X226755446Y-118273875D01*
X226648688Y-118434795D01*
X226600397Y-118596104D01*
X226586412Y-118819384D01*
X225730150Y-118819384D01*
X225631180Y-118682667D01*
X225400286Y-118494074D01*
X225154454Y-118394941D01*
X225094924Y-118390019D01*
X224854989Y-118437438D01*
X224589513Y-118553332D01*
X224560449Y-118570610D01*
X224285270Y-118838666D01*
X224082719Y-119233375D01*
X223953702Y-119717522D01*
X223899122Y-120253897D01*
X221011128Y-120253897D01*
X220860580Y-119881177D01*
X221312795Y-119339978D01*
X221623291Y-118945130D01*
X221810586Y-118645417D01*
X221886218Y-118418325D01*
X221868051Y-118256641D01*
X221777814Y-118146030D01*
X221622804Y-118145133D01*
X221388566Y-118260395D01*
X221060641Y-118498267D01*
X220752532Y-118754119D01*
X220250992Y-119185105D01*
X220291947Y-118362738D01*
X220300841Y-118140651D01*
X228927095Y-118140651D01*
X228937099Y-118449967D01*
X228947190Y-118503824D01*
X229035136Y-118879405D01*
X229150204Y-119301775D01*
X229277853Y-119724483D01*
X229403540Y-120101080D01*
X229512724Y-120385115D01*
X229575085Y-120509530D01*
X229836628Y-120786918D01*
X230173273Y-120976132D01*
X230538128Y-121066749D01*
X230884300Y-121048346D01*
X231164895Y-120910496D01*
X231205109Y-120871885D01*
X231419169Y-120553173D01*
X231532468Y-120147819D01*
X231548038Y-119633685D01*
X231468907Y-118988635D01*
X231465509Y-118969326D01*
X231331452Y-118340788D01*
X231183196Y-117886526D01*
X231021367Y-117607551D01*
X230846588Y-117504874D01*
X230659487Y-117579506D01*
X230625234Y-117611161D01*
X230559898Y-117695731D01*
X230532880Y-117808528D01*
X230544833Y-117991012D01*
X230596412Y-118284642D01*
X230639189Y-118495398D01*
X230712641Y-118946876D01*
X230757258Y-119417202D01*
X230764169Y-119811957D01*
X230763733Y-119821005D01*
X230744709Y-120133123D01*
X230713783Y-120307014D01*
X230650335Y-120383112D01*
X230533742Y-120401851D01*
X230467249Y-120402343D01*
X230320296Y-120384969D01*
X230201388Y-120316515D01*
X230097848Y-120172479D01*
X229996998Y-119928362D01*
X229886161Y-119559663D01*
X229752661Y-119041881D01*
X229742876Y-119002398D01*
X229620043Y-118528271D01*
X229518475Y-118203061D01*
X229424793Y-118000199D01*
X229325618Y-117893116D01*
X229207571Y-117855242D01*
X229164289Y-117853399D01*
X229006515Y-117930740D01*
X228927095Y-118140651D01*
X220300841Y-118140651D01*
X220307796Y-117966984D01*
X220303531Y-117706357D01*
X220272803Y-117537640D01*
X220209264Y-117417616D01*
X220141588Y-117339139D01*
X220001610Y-117239521D01*
X231800067Y-117239521D01*
X231802623Y-117355497D01*
X231849534Y-117611342D01*
X231933745Y-117975601D01*
X232048196Y-118416818D01*
X232130832Y-118713770D01*
X232523087Y-120088526D01*
X232814730Y-120088920D01*
X233074718Y-120050134D01*
X233387401Y-119951964D01*
X233508422Y-119900330D01*
X233880669Y-119673305D01*
X234165501Y-119397540D01*
X234329680Y-119110056D01*
X234356537Y-118955652D01*
X234302965Y-118656425D01*
X234166819Y-118350000D01*
X233984956Y-118105965D01*
X233857012Y-118012526D01*
X233715928Y-117914527D01*
X233713706Y-117769801D01*
X233737020Y-117702045D01*
X233816535Y-117317686D01*
X233762560Y-116976066D01*
X233630353Y-116769469D01*
X233476252Y-116651652D01*
X233291524Y-116614076D01*
X233033897Y-116635675D01*
X232734113Y-116710247D01*
X232399975Y-116842627D01*
X232090514Y-117003926D01*
X231864757Y-117165254D01*
X231800067Y-117239521D01*
X220001610Y-117239521D01*
X219909396Y-117173895D01*
X219691478Y-117155897D01*
X219526521Y-117287223D01*
X219516083Y-117305523D01*
X219470203Y-117462270D01*
X219418208Y-117750904D01*
X219367640Y-118124961D01*
X219338230Y-118401122D01*
X219276523Y-118947162D01*
X219196710Y-119386566D01*
X219079727Y-119784849D01*
X218906512Y-120207528D01*
X218671031Y-120694282D01*
X218487346Y-121073468D01*
X218386117Y-121331682D01*
X218360657Y-121503035D01*
X210602769Y-121503035D01*
X210560928Y-121491613D01*
X209595309Y-121245930D01*
X208731107Y-121046864D01*
X207951622Y-120890867D01*
X207240152Y-120774393D01*
X206579996Y-120693895D01*
X205954453Y-120645825D01*
X205346823Y-120626636D01*
X205202984Y-120625934D01*
X203976073Y-120625934D01*
X203693770Y-121347147D01*
X203566082Y-121681599D01*
X203468475Y-121952954D01*
X203416239Y-122118043D01*
X203411467Y-122144098D01*
X203485077Y-122222978D01*
X203673246Y-122341488D01*
X203819833Y-122417524D01*
X204256676Y-122719884D01*
X204555961Y-123135618D01*
X204715156Y-123660782D01*
X204735599Y-123844263D01*
X204738574Y-124194183D01*
X204705276Y-124524398D01*
X204669996Y-124675859D01*
X204498359Y-125010215D01*
X204234106Y-125323473D01*
X203928354Y-125565278D01*
X203648038Y-125682569D01*
X203348892Y-125738689D01*
X203520029Y-126066643D01*
X203651787Y-126484230D01*
X203674849Y-126971968D01*
X203594314Y-127461996D01*
X203415275Y-127886451D01*
X203379229Y-127941728D01*
X203161906Y-128193805D01*
X202913445Y-128397707D01*
X202826319Y-128447452D01*
X202524682Y-128590588D01*
X202751547Y-129013015D01*
X202924969Y-129494528D01*
X202964067Y-130004214D01*
X202879151Y-130502914D01*
X202680530Y-130951466D01*
X202378513Y-131310710D01*
X202098340Y-131494222D01*
X201689606Y-131596975D01*
X201281605Y-131525166D01*
X200893061Y-131282201D01*
X200882960Y-131273250D01*
X200687900Y-131059948D01*
X200608435Y-130834798D01*
X200598279Y-130651988D01*
X200595566Y-130424473D01*
X200588771Y-130295822D01*
X200585772Y-130285089D01*
X200533843Y-130351984D01*
X200416945Y-130521156D01*
X200350376Y-130620477D01*
X199865312Y-131245075D01*
X199299484Y-131799475D01*
X198705934Y-132232154D01*
X198668098Y-132254580D01*
X198372496Y-132415712D01*
X198107041Y-132523672D01*
X197829314Y-132584415D01*
X197496897Y-132603895D01*
X197067369Y-132588067D01*
X196569565Y-132549153D01*
X195379671Y-132409495D01*
X194204356Y-132203275D01*
X193072111Y-131938692D01*
X192011430Y-131623941D01*
X191050802Y-131267220D01*
X190218721Y-130876725D01*
X189709760Y-130575653D01*
X189493406Y-130410937D01*
X189394602Y-130251523D01*
X189369983Y-130024600D01*
X189369918Y-130005043D01*
X189369918Y-129659330D01*
X189807077Y-129973398D01*
X190405512Y-130340664D01*
X191149018Y-130695961D01*
X192003797Y-131028719D01*
X192936053Y-131328367D01*
X193911988Y-131584337D01*
X194897804Y-131786059D01*
X195859705Y-131922963D01*
X196122382Y-131948433D01*
X196474397Y-131976977D01*
X196676621Y-131983810D01*
X196757405Y-131963384D01*
X196745100Y-131910154D01*
X196685539Y-131838255D01*
X196481403Y-131532440D01*
X196283919Y-131103543D01*
X196114437Y-130606748D01*
X195994308Y-130097242D01*
X195980867Y-130016779D01*
X195917668Y-129261556D01*
X195924928Y-128943540D01*
X196438504Y-128943540D01*
X196481967Y-129702984D01*
X196607635Y-130389972D01*
X196807025Y-130980422D01*
X197071659Y-131450250D01*
X197393053Y-131775372D01*
X197448627Y-131812017D01*
X197775045Y-131932780D01*
X198130612Y-131899697D01*
X198541355Y-131710204D01*
X198552798Y-131703294D01*
X198756176Y-131547972D01*
X199026634Y-131300219D01*
X199322075Y-131003618D01*
X199600402Y-130701751D01*
X199819519Y-130438202D01*
X199924417Y-130283261D01*
X199965335Y-130154209D01*
X199878195Y-130086475D01*
X199768895Y-130059207D01*
X199383112Y-129972592D01*
X199141305Y-129897931D01*
X199010441Y-129821401D01*
X198957490Y-129729178D01*
X198955233Y-129718692D01*
X198995959Y-129522524D01*
X199064198Y-129413613D01*
X199706551Y-129413613D01*
X199733738Y-129477524D01*
X199870752Y-129529501D01*
X200144567Y-129582993D01*
X200345630Y-129615198D01*
X200648731Y-129698465D01*
X200917156Y-129829500D01*
X200959192Y-129859574D01*
X201115034Y-130014018D01*
X201164272Y-130189147D01*
X201149183Y-130388960D01*
X201137916Y-130637733D01*
X201209571Y-130799939D01*
X201332245Y-130912896D01*
X201608050Y-131038310D01*
X201893853Y-130986006D01*
X202061412Y-130877840D01*
X202225319Y-130661618D01*
X202354215Y-130337823D01*
X202422476Y-129977509D01*
X202427330Y-129863138D01*
X202345318Y-129432424D01*
X202121576Y-129070569D01*
X201788197Y-128809871D01*
X201377271Y-128682627D01*
X201247070Y-128675301D01*
X200999797Y-128717597D01*
X200670397Y-128826840D01*
X200319126Y-128976692D01*
X200006240Y-129140814D01*
X199791997Y-129292869D01*
X199762216Y-129324320D01*
X199706551Y-129413613D01*
X199064198Y-129413613D01*
X199158541Y-129263040D01*
X199415229Y-128974975D01*
X199738273Y-128693062D01*
X199827949Y-128626322D01*
X200083241Y-128417032D01*
X200266891Y-128186853D01*
X200349636Y-128022754D01*
X201032374Y-128022754D01*
X201049865Y-128131233D01*
X201070519Y-128138610D01*
X201172624Y-128066989D01*
X201210701Y-127997141D01*
X201255006Y-127789701D01*
X201262268Y-127661753D01*
X201247219Y-127537874D01*
X201196947Y-127579310D01*
X201183650Y-127601991D01*
X201080877Y-127827806D01*
X201032374Y-128022754D01*
X200349636Y-128022754D01*
X200426209Y-127870897D01*
X200487440Y-127721843D01*
X200614096Y-127370609D01*
X200620353Y-127333681D01*
X201264988Y-127333681D01*
X201297711Y-127407297D01*
X201324612Y-127393305D01*
X201335316Y-127287165D01*
X201324612Y-127274056D01*
X201271442Y-127286333D01*
X201264988Y-127333681D01*
X200620353Y-127333681D01*
X200651567Y-127149466D01*
X200592986Y-127029698D01*
X200431484Y-126982589D01*
X200309367Y-126977304D01*
X199994843Y-126930470D01*
X199762752Y-126811085D01*
X199657297Y-126643657D01*
X199655129Y-126614569D01*
X199726321Y-126421116D01*
X199763003Y-126372768D01*
X200422044Y-126372768D01*
X200449231Y-126436679D01*
X200586245Y-126488655D01*
X200860060Y-126542147D01*
X201061123Y-126574353D01*
X201364224Y-126657620D01*
X201632649Y-126788654D01*
X201674685Y-126818728D01*
X201830527Y-126973173D01*
X201879765Y-127148302D01*
X201864676Y-127348115D01*
X201853409Y-127596888D01*
X201925064Y-127759094D01*
X202047738Y-127872051D01*
X202323543Y-127997465D01*
X202609346Y-127945161D01*
X202776905Y-127836995D01*
X202940812Y-127620773D01*
X203069708Y-127296978D01*
X203137969Y-126936664D01*
X203142823Y-126822293D01*
X203060811Y-126391579D01*
X202837069Y-126029724D01*
X202503690Y-125769026D01*
X202092764Y-125641782D01*
X201962563Y-125634456D01*
X201715290Y-125676752D01*
X201385890Y-125785995D01*
X201034619Y-125935847D01*
X200721733Y-126099969D01*
X200507490Y-126252024D01*
X200477709Y-126283475D01*
X200422044Y-126372768D01*
X199763003Y-126372768D01*
X199915161Y-126172220D01*
X200184546Y-125902147D01*
X200497372Y-125645161D01*
X200816536Y-125435527D01*
X201051627Y-125324894D01*
X201331317Y-125208866D01*
X201503298Y-125074946D01*
X201509406Y-125064854D01*
X202227175Y-125064854D01*
X202273281Y-125112901D01*
X202397686Y-125146840D01*
X202417845Y-125041493D01*
X202389183Y-124947615D01*
X202327873Y-124843616D01*
X202257825Y-124904556D01*
X202248701Y-124919038D01*
X202227175Y-125064854D01*
X201509406Y-125064854D01*
X201632370Y-124861674D01*
X201699061Y-124710825D01*
X201799094Y-124458223D01*
X201855996Y-124282757D01*
X201860882Y-124232861D01*
X201764585Y-124201841D01*
X201547404Y-124152359D01*
X201363045Y-124115597D01*
X201031845Y-124046177D01*
X200840527Y-123981000D01*
X200751841Y-123899403D01*
X200728540Y-123780724D01*
X200728368Y-123763530D01*
X200803202Y-123550410D01*
X200833689Y-123510796D01*
X201495284Y-123510796D01*
X201522471Y-123574707D01*
X201659484Y-123626684D01*
X201933299Y-123680176D01*
X202134362Y-123712381D01*
X202437463Y-123795648D01*
X202705889Y-123926683D01*
X202747924Y-123956757D01*
X202903766Y-124111202D01*
X202953005Y-124286330D01*
X202937916Y-124486144D01*
X202926648Y-124734916D01*
X202998304Y-124897122D01*
X203120977Y-125010079D01*
X203396782Y-125135493D01*
X203682586Y-125083189D01*
X203850145Y-124975024D01*
X204014052Y-124758801D01*
X204142948Y-124435006D01*
X204211209Y-124074692D01*
X204216062Y-123960321D01*
X204134051Y-123529607D01*
X203910309Y-123167752D01*
X203576929Y-122907054D01*
X203166004Y-122779810D01*
X203035803Y-122772484D01*
X202788530Y-122814781D01*
X202459129Y-122924023D01*
X202107858Y-123073875D01*
X201794973Y-123237997D01*
X201580729Y-123390052D01*
X201550948Y-123421503D01*
X201495284Y-123510796D01*
X200833689Y-123510796D01*
X201002872Y-123290964D01*
X201290133Y-123014524D01*
X201627737Y-122750427D01*
X201978439Y-122528007D01*
X202304993Y-122376598D01*
X202554577Y-122325230D01*
X202680191Y-122246563D01*
X202756562Y-122047002D01*
X202768748Y-121781204D01*
X202744056Y-121632096D01*
X202601313Y-121280096D01*
X202360869Y-120896665D01*
X202072480Y-120551622D01*
X201821018Y-120336812D01*
X201235469Y-120041878D01*
X200651033Y-119922289D01*
X200083630Y-119975130D01*
X199549179Y-120197486D01*
X199063602Y-120586443D01*
X198810005Y-120888081D01*
X198418637Y-121507000D01*
X198036487Y-122271673D01*
X197673306Y-123148984D01*
X197338843Y-124105813D01*
X197042848Y-125109044D01*
X196795071Y-126125558D01*
X196605261Y-127122238D01*
X196483168Y-128065967D01*
X196438543Y-128923625D01*
X196438504Y-128943540D01*
X195924928Y-128943540D01*
X195937779Y-128380657D01*
X196035845Y-127403761D01*
X196206513Y-126360544D01*
X196444429Y-125280684D01*
X196744237Y-124193857D01*
X197100585Y-123129742D01*
X197330447Y-122536167D01*
X197640761Y-121824610D01*
X197941095Y-121247258D01*
X198256486Y-120762907D01*
X198611972Y-120330348D01*
X198775438Y-120158085D01*
X199002382Y-119916736D01*
X199161112Y-119726993D01*
X199225763Y-119620589D01*
X199222621Y-119609467D01*
X199117635Y-119571017D01*
X198879023Y-119492856D01*
X198544364Y-119387079D01*
X198224143Y-119288070D01*
X197032801Y-118888279D01*
X195765254Y-118400233D01*
X194470931Y-117846244D01*
X193199263Y-117248622D01*
X191999680Y-116629677D01*
X190921612Y-116011722D01*
X190800903Y-115937544D01*
X190293209Y-115619849D01*
X189919966Y-115375554D01*
X189661655Y-115187018D01*
X189498755Y-115036602D01*
X189411747Y-114906663D01*
X189381111Y-114779562D01*
X189385076Y-114658012D01*
X189414636Y-114372903D01*
X190559249Y-115121502D01*
X191340620Y-115605722D01*
X192238469Y-116117202D01*
X193199161Y-116627917D01*
X194169059Y-117109841D01*
X195094526Y-117534950D01*
X195541044Y-117724512D01*
X196355310Y-118045955D01*
X197197366Y-118355370D01*
X198035733Y-118642777D01*
X198838930Y-118898196D01*
X199575478Y-119111646D01*
X200213896Y-119273149D01*
X200722705Y-119372723D01*
X200754786Y-119377420D01*
X201484612Y-119557196D01*
X202102227Y-119875030D01*
X202613320Y-120334464D01*
X202887104Y-120704383D01*
X203034347Y-120929646D01*
X203119027Y-121020328D01*
X203173118Y-120993696D01*
X203221556Y-120885014D01*
X203550059Y-120052353D01*
X203891146Y-119198943D01*
X204175013Y-118496779D01*
X207627607Y-118496779D01*
X207713715Y-118663412D01*
X207887545Y-118738894D01*
X208010289Y-118747765D01*
X208324239Y-118658508D01*
X208627090Y-118390772D01*
X208918783Y-117944609D01*
X208943238Y-117898118D01*
X209102901Y-117594623D01*
X209222507Y-117425219D01*
X209349862Y-117368185D01*
X209532773Y-117401806D01*
X209814041Y-117502527D01*
X210100500Y-117612726D01*
X210316723Y-117705241D01*
X210406710Y-117753948D01*
X210421096Y-117864467D01*
X210394320Y-118094345D01*
X210342819Y-118346601D01*
X210239216Y-118880751D01*
X210220506Y-119262922D01*
X210286565Y-119498515D01*
X210315974Y-119534808D01*
X210443306Y-119625275D01*
X210588990Y-119617648D01*
X210812139Y-119506965D01*
X210827598Y-119497898D01*
X212115470Y-119497898D01*
X212145789Y-119693528D01*
X212298917Y-119791784D01*
X212364138Y-119803298D01*
X212560766Y-119777179D01*
X212763394Y-119631542D01*
X212878399Y-119509517D01*
X213044700Y-119303346D01*
X213145825Y-119145648D01*
X213160058Y-119102400D01*
X213238004Y-119049750D01*
X213429539Y-119023004D01*
X213671208Y-119022545D01*
X213899557Y-119048755D01*
X214043818Y-119097064D01*
X214109534Y-119170948D01*
X214110128Y-119301652D01*
X214043440Y-119538121D01*
X214021459Y-119603528D01*
X213907387Y-120014802D01*
X213879717Y-120315006D01*
X213935176Y-120476873D01*
X214110899Y-120539109D01*
X214348145Y-120487773D01*
X214584471Y-120338242D01*
X214614764Y-120309513D01*
X214782375Y-120052160D01*
X214934301Y-119652093D01*
X214953420Y-119578704D01*
X215845057Y-119578704D01*
X215900543Y-120140990D01*
X216056562Y-120613174D01*
X216308803Y-120972298D01*
X216596583Y-121171936D01*
X216923565Y-121299228D01*
X217172531Y-121330861D01*
X217413311Y-121271863D01*
X217495671Y-121236658D01*
X217684611Y-121082653D01*
X217792275Y-120867559D01*
X217785942Y-120662859D01*
X217771327Y-120634482D01*
X217652005Y-120557491D01*
X217436220Y-120491389D01*
X217411007Y-120486387D01*
X217071437Y-120353341D01*
X216857390Y-120097917D01*
X216769069Y-119801874D01*
X216761203Y-119425543D01*
X216832671Y-118982373D01*
X216966584Y-118518280D01*
X217146053Y-118079181D01*
X217354188Y-117710992D01*
X217574101Y-117459629D01*
X217649429Y-117408457D01*
X217829762Y-117329148D01*
X217961410Y-117357517D01*
X218102376Y-117475535D01*
X218351072Y-117643283D01*
X218549777Y-117658073D01*
X218681617Y-117542725D01*
X218729719Y-117320061D01*
X218677209Y-117012903D01*
X218595626Y-116808417D01*
X218404805Y-116599956D01*
X218102707Y-116475039D01*
X217738930Y-116439016D01*
X217363074Y-116497239D01*
X217045369Y-116641176D01*
X216721726Y-116941745D01*
X216420429Y-117393693D01*
X216158115Y-117969615D01*
X216052923Y-118275667D01*
X215894414Y-118949277D01*
X215845057Y-119578704D01*
X214953420Y-119578704D01*
X215066381Y-119145100D01*
X215174455Y-118566968D01*
X215254361Y-117953485D01*
X215301939Y-117340439D01*
X215313027Y-116763616D01*
X215283465Y-116258805D01*
X215209093Y-115861793D01*
X215149884Y-115706920D01*
X214950592Y-115448627D01*
X214702340Y-115359837D01*
X214417288Y-115444230D01*
X214372629Y-115471713D01*
X214260170Y-115594853D01*
X214084697Y-115846398D01*
X213865570Y-116195975D01*
X213622147Y-116613210D01*
X213470398Y-116887238D01*
X213202513Y-117378365D01*
X212932865Y-117868312D01*
X212686699Y-118311499D01*
X212489262Y-118662345D01*
X212425726Y-118773307D01*
X212208578Y-119194592D01*
X212115470Y-119497898D01*
X210827598Y-119497898D01*
X210839622Y-119490846D01*
X210975023Y-119387709D01*
X211100827Y-119233421D01*
X211226047Y-119006885D01*
X211359693Y-118687007D01*
X211510778Y-118252691D01*
X211688314Y-117682844D01*
X211857429Y-117108351D01*
X212047016Y-116429688D01*
X212175414Y-115901626D01*
X212242281Y-115506561D01*
X212247272Y-115226887D01*
X212190047Y-115045001D01*
X212070262Y-114943297D01*
X211887574Y-114904171D01*
X211814483Y-114901991D01*
X211642258Y-114927538D01*
X211490009Y-115021154D01*
X211336246Y-115208301D01*
X211159479Y-115514441D01*
X210964961Y-115908532D01*
X210808972Y-116221547D01*
X210675693Y-116460959D01*
X210586530Y-116589369D01*
X210568393Y-116601287D01*
X210454354Y-116569367D01*
X210231928Y-116487131D01*
X210039722Y-116409666D01*
X209776348Y-116290020D01*
X209649420Y-116194718D01*
X209625564Y-116091920D01*
X209641257Y-116029560D01*
X209701335Y-115682623D01*
X209680695Y-115302223D01*
X209593361Y-114929907D01*
X209453362Y-114607220D01*
X209274723Y-114375709D01*
X209071471Y-114276917D01*
X209049206Y-114275934D01*
X208876407Y-114306573D01*
X208736800Y-114414801D01*
X208616786Y-114625087D01*
X208502765Y-114961901D01*
X208381136Y-115449710D01*
X208370387Y-115497249D01*
X208247231Y-116005879D01*
X208100889Y-116551723D01*
X207954191Y-117051688D01*
X207880595Y-117280057D01*
X207712548Y-117822093D01*
X207627718Y-118222003D01*
X207627607Y-118496779D01*
X204175013Y-118496779D01*
X204237806Y-118341455D01*
X204583027Y-117496563D01*
X204919800Y-116680937D01*
X205241114Y-115911251D01*
X205539957Y-115204176D01*
X205809320Y-114576383D01*
X206042191Y-114044546D01*
X206231561Y-113625335D01*
X206370417Y-113335424D01*
X206451750Y-113191484D01*
X206461062Y-113181198D01*
X206690570Y-113049136D01*
X207054535Y-112907083D01*
X207510058Y-112768310D01*
X208014241Y-112646090D01*
X208455930Y-112564042D01*
X209005291Y-112510648D01*
X209680397Y-112496105D01*
X210432981Y-112517850D01*
G37*
%TD*%
D11*
%TO.C,U2*%
X87450000Y-55000000D03*
D12*
X89990000Y-55000000D03*
X92530000Y-55000000D03*
X95070000Y-55000000D03*
X97610000Y-55000000D03*
X100150000Y-55000000D03*
X102690000Y-55000000D03*
X105230000Y-55000000D03*
X107770000Y-55000000D03*
X110310000Y-55000000D03*
X112850000Y-55000000D03*
X115390000Y-55000000D03*
X115390000Y-39760000D03*
X112850000Y-39760000D03*
X110310000Y-39760000D03*
X107770000Y-39760000D03*
X105230000Y-39760000D03*
X102690000Y-39760000D03*
X100150000Y-39760000D03*
X97610000Y-39760000D03*
X95070000Y-39760000D03*
X92530000Y-39760000D03*
X89990000Y-39760000D03*
X87450000Y-39760000D03*
D13*
X88720000Y-47380000D03*
X114120000Y-47380000D03*
%TD*%
D14*
%TO.C,C4*%
X128636900Y-59515000D03*
X131136900Y-59515000D03*
%TD*%
D15*
%TO.C,RV2*%
X101728400Y-65970000D03*
D16*
X98228400Y-65970000D03*
X101728400Y-139470000D03*
D17*
X95778400Y-70120000D03*
X104178400Y-71320000D03*
X104178400Y-134120000D03*
X95778400Y-135320000D03*
%TD*%
D15*
%TO.C,RV3*%
X128861900Y-65430000D03*
D16*
X125361900Y-65430000D03*
X128861900Y-138930000D03*
D17*
X122911900Y-69580000D03*
X131311900Y-70780000D03*
X131311900Y-133580000D03*
X122911900Y-134780000D03*
%TD*%
D18*
%TO.C,J5*%
X191724900Y-65325000D03*
D19*
X194264900Y-65325000D03*
X196804900Y-65325000D03*
X199344900Y-65325000D03*
%TD*%
D18*
%TO.C,J4*%
X164611300Y-65325000D03*
D19*
X167151300Y-65325000D03*
X169691300Y-65325000D03*
X172231300Y-65325000D03*
%TD*%
D15*
%TO.C,RV4*%
X155975500Y-64835000D03*
D16*
X152475500Y-64835000D03*
X155975500Y-138335000D03*
D17*
X150025500Y-68985000D03*
X158425500Y-70185000D03*
X158425500Y-132985000D03*
X150025500Y-134185000D03*
%TD*%
D20*
%TO.C,U1*%
X239390000Y-81363400D03*
D21*
X239390000Y-78823400D03*
X239390000Y-76283400D03*
X239390000Y-73743400D03*
X239390000Y-71203400D03*
X239390000Y-68663400D03*
X239390000Y-66123400D03*
X239390000Y-63583400D03*
X239390000Y-61043400D03*
X239390000Y-58503400D03*
X239390000Y-55963400D03*
X239390000Y-53423400D03*
X239390000Y-50883400D03*
X239390000Y-48343400D03*
X239390000Y-45803400D03*
X239390000Y-43263400D03*
X239390000Y-40723400D03*
X239390000Y-38183400D03*
X239390000Y-35643400D03*
X213993680Y-35646120D03*
X213993680Y-38186120D03*
X213990000Y-40723400D03*
X213990000Y-43263400D03*
X213990000Y-45803400D03*
X213990000Y-48343400D03*
X213990000Y-50883400D03*
X213990000Y-53423400D03*
X213990000Y-55963400D03*
X213990000Y-58503400D03*
X213990000Y-61043400D03*
X213990000Y-63583400D03*
X213990000Y-66123400D03*
X213990000Y-68663400D03*
X213990000Y-71203400D03*
X213990000Y-73743400D03*
X213990000Y-76283400D03*
X213990000Y-78823400D03*
X213990000Y-81363400D03*
%TD*%
D15*
%TO.C,RV1*%
X74614900Y-65800000D03*
D16*
X71114900Y-65800000D03*
X74614900Y-139300000D03*
D17*
X68664900Y-69950000D03*
X77064900Y-71150000D03*
X77064900Y-133950000D03*
X68664900Y-135150000D03*
%TD*%
D14*
%TO.C,C2*%
X74389900Y-59515000D03*
X76889900Y-59515000D03*
%TD*%
%TO.C,C5*%
X155750500Y-58760000D03*
X158250500Y-58760000D03*
%TD*%
%TO.C,C3*%
X101503400Y-59515000D03*
X104003400Y-59515000D03*
%TD*%
D22*
%TO.C,REF\u002A\u002A*%
X75340000Y-44220000D03*
%TD*%
D15*
%TO.C,RV5*%
X183089000Y-65470000D03*
D16*
X179589000Y-65470000D03*
X183089000Y-138970000D03*
D17*
X177139000Y-69620000D03*
X185539000Y-70820000D03*
X185539000Y-133620000D03*
X177139000Y-134820000D03*
%TD*%
D23*
%TO.C,SW2*%
X125569900Y-42380000D03*
D24*
X125569900Y-47380000D03*
X125569900Y-44880000D03*
D25*
X133069900Y-39280000D03*
X133069900Y-50480000D03*
D24*
X140069900Y-47380000D03*
X140069900Y-42380000D03*
%TD*%
D26*
%TO.C,C1*%
X187164900Y-41030000D03*
D14*
X189664900Y-41030000D03*
%TD*%
D23*
%TO.C,SW1*%
X149699900Y-42380000D03*
D24*
X149699900Y-47380000D03*
X149699900Y-44880000D03*
D25*
X157199900Y-39280000D03*
X157199900Y-50480000D03*
D24*
X164199900Y-47380000D03*
X164199900Y-42380000D03*
%TD*%
D22*
%TO.C,REF\u002A\u002A*%
X231610000Y-134800000D03*
%TD*%
D18*
%TO.C,J1*%
X83250800Y-65960000D03*
D19*
X85790800Y-65960000D03*
X88330800Y-65960000D03*
X90870800Y-65960000D03*
%TD*%
D14*
%TO.C,C6*%
X182864000Y-59460000D03*
X185364000Y-59460000D03*
%TD*%
D18*
%TO.C,J2*%
X110384300Y-65490000D03*
D19*
X112924300Y-65490000D03*
X115464300Y-65490000D03*
X118004300Y-65490000D03*
%TD*%
D18*
%TO.C,J3*%
X137497800Y-65820000D03*
D19*
X140037800Y-65820000D03*
X142577800Y-65820000D03*
X145117800Y-65820000D03*
%TD*%
M02*
