%TF.GenerationSoftware,KiCad,Pcbnew,9.0.6*%
%TF.CreationDate,2026-01-27T23:19:47+00:00*%
%TF.ProjectId,Custom-Mixer-ESP32,43757374-6f6d-42d4-9d69-7865722d4553,rev?*%
%TF.SameCoordinates,Original*%
%TF.FileFunction,Soldermask,Bot*%
%TF.FilePolarity,Negative*%
%FSLAX46Y46*%
G04 Gerber Fmt 4.6, Leading zero omitted, Abs format (unit mm)*
G04 Created by KiCad (PCBNEW 9.0.6) date 2026-01-27 23:19:47*
%MOMM*%
%LPD*%
G01*
G04 APERTURE LIST*
G04 Aperture macros list*
%AMRoundRect*
0 Rectangle with rounded corners*
0 $1 Rounding radius*
0 $2 $3 $4 $5 $6 $7 $8 $9 X,Y pos of 4 corners*
0 Add a 4 corners polygon primitive as box body*
4,1,4,$2,$3,$4,$5,$6,$7,$8,$9,$2,$3,0*
0 Add four circle primitives for the rounded corners*
1,1,$1+$1,$2,$3*
1,1,$1+$1,$4,$5*
1,1,$1+$1,$6,$7*
1,1,$1+$1,$8,$9*
0 Add four rect primitives between the rounded corners*
20,1,$1+$1,$2,$3,$4,$5,0*
20,1,$1+$1,$4,$5,$6,$7,0*
20,1,$1+$1,$6,$7,$8,$9,0*
20,1,$1+$1,$8,$9,$2,$3,0*%
G04 Aperture macros list end*
%ADD10C,0.000000*%
%ADD11RoundRect,0.102000X0.754000X-0.754000X0.754000X0.754000X-0.754000X0.754000X-0.754000X-0.754000X0*%
%ADD12C,1.712000*%
%ADD13C,3.720000*%
%ADD14C,1.600000*%
%ADD15R,1.750000X1.750000*%
%ADD16C,1.750000*%
%ADD17C,2.700000*%
%ADD18R,1.700000X1.700000*%
%ADD19O,1.700000X1.700000*%
%ADD20R,2.000000X1.200000*%
%ADD21O,2.000000X1.200000*%
%ADD22C,3.200000*%
%ADD23R,2.000000X2.000000*%
%ADD24C,2.000000*%
%ADD25R,3.200000X2.000000*%
%ADD26RoundRect,0.250000X-0.550000X-0.550000X0.550000X-0.550000X0.550000X0.550000X-0.550000X0.550000X0*%
G04 APERTURE END LIST*
D10*
%TO.C,kibuzzard-69777CED*%
G36*
X122486323Y-118749299D02*
G01*
X122655851Y-118841574D01*
X122748126Y-119012532D01*
X122778884Y-119279342D01*
X122655851Y-119697082D01*
X122229528Y-119817253D01*
X121803205Y-119697082D01*
X121680172Y-119273619D01*
X121710215Y-119011102D01*
X121800343Y-118841574D01*
X122223805Y-118718541D01*
X122486323Y-118749299D01*
G37*
G36*
X128707353Y-115868755D02*
G01*
X129027811Y-116140572D01*
X128970587Y-116538283D01*
X127614363Y-119519685D01*
X127419800Y-119734278D01*
X127099342Y-119805808D01*
X126804635Y-119728555D01*
X126607210Y-119519685D01*
X125250987Y-116538283D01*
X125185179Y-116143433D01*
X125514220Y-115868755D01*
X125937682Y-115785780D01*
X126206638Y-116109099D01*
X127110787Y-118335136D01*
X128014936Y-116109099D01*
X128278169Y-115782918D01*
X128707353Y-115868755D01*
G37*
G36*
X157937682Y-115634134D02*
G01*
X158097911Y-115762890D01*
X158152275Y-115917396D01*
X158160858Y-116109099D01*
X158152275Y-116300801D01*
X158097911Y-116458169D01*
X157940544Y-116589785D01*
X157645837Y-116629843D01*
X157345408Y-116589785D01*
X157188040Y-116461030D01*
X157133677Y-116309385D01*
X157125093Y-116114821D01*
X157133677Y-115923119D01*
X157188040Y-115765751D01*
X157345408Y-115634134D01*
X157640114Y-115594077D01*
X157937682Y-115634134D01*
G37*
G36*
X123929099Y-115903090D02*
G01*
X124020658Y-115977482D01*
X124747411Y-116629843D01*
X124921946Y-116824406D01*
X124987754Y-117007525D01*
X124810358Y-117385207D01*
X124469871Y-117585494D01*
X124117940Y-117419542D01*
X124060715Y-117368040D01*
X124060715Y-119302232D01*
X123946266Y-119708526D01*
X123545694Y-119822976D01*
X123139399Y-119708526D01*
X123024950Y-119307954D01*
X123024950Y-116332275D01*
X123139399Y-115923119D01*
X123539971Y-115805808D01*
X123929099Y-115903090D01*
G37*
G36*
X157937682Y-116950300D02*
G01*
X158097911Y-117079056D01*
X158152275Y-117233562D01*
X158160858Y-117425265D01*
X158160858Y-119290787D01*
X158152275Y-119488212D01*
X158097911Y-119642718D01*
X157940544Y-119771474D01*
X157645837Y-119811531D01*
X157345408Y-119771474D01*
X157188040Y-119642718D01*
X157133677Y-119491073D01*
X157125093Y-119296509D01*
X157125093Y-117436710D01*
X157133677Y-117239285D01*
X157188040Y-117081917D01*
X157345408Y-116950300D01*
X157640114Y-116910243D01*
X157937682Y-116950300D01*
G37*
G36*
X156661574Y-117064750D02*
G01*
X156870443Y-117445293D01*
X156661574Y-117797225D01*
X156112217Y-118352303D01*
X156661574Y-118913104D01*
X156867582Y-119262175D01*
X156661574Y-119639857D01*
X156292475Y-119845866D01*
X155940544Y-119639857D01*
X155385465Y-119084778D01*
X154836109Y-119639857D01*
X154481316Y-119848727D01*
X154115079Y-119639857D01*
X153903348Y-119265036D01*
X154115079Y-118913104D01*
X154664435Y-118352303D01*
X154115079Y-117797225D01*
X153903348Y-117442432D01*
X154115079Y-117064750D01*
X154475594Y-116858741D01*
X154836109Y-117064750D01*
X155385465Y-117625551D01*
X155940544Y-117064750D01*
X156295336Y-116855880D01*
X156661574Y-117064750D01*
G37*
G36*
X149311073Y-116941717D02*
G01*
X149600057Y-117139142D01*
X149760286Y-116963176D01*
X150092189Y-116904521D01*
X150392618Y-116944578D01*
X150549986Y-117073333D01*
X150604349Y-117224979D01*
X150612933Y-117419542D01*
X150612933Y-119285064D01*
X150604349Y-119482489D01*
X150549986Y-119639857D01*
X150392618Y-119771474D01*
X150097911Y-119811531D01*
X149794621Y-119771474D01*
X149634392Y-119642718D01*
X149580029Y-119491073D01*
X149571445Y-119296509D01*
X149571445Y-118180629D01*
X149459857Y-117971760D01*
X149176595Y-117888784D01*
X149036395Y-117931702D01*
X148816080Y-117974621D01*
X148495622Y-117777196D01*
X148401202Y-117556166D01*
X148369728Y-117287926D01*
X148441259Y-117070472D01*
X148627239Y-116941717D01*
X148833247Y-116890215D01*
X149004921Y-116875908D01*
X149311073Y-116941717D01*
G37*
G36*
X170857091Y-116885764D02*
G01*
X171211884Y-117035502D01*
X171528526Y-117285064D01*
X171776500Y-117603933D01*
X171925284Y-117961586D01*
X171974878Y-118358026D01*
X171922105Y-118767818D01*
X171763783Y-119127379D01*
X171499914Y-119436710D01*
X171172462Y-119673556D01*
X170823392Y-119815664D01*
X170464149Y-119861570D01*
X170452704Y-119863033D01*
X170085513Y-119816617D01*
X169739304Y-119677371D01*
X169414077Y-119445293D01*
X169151798Y-119138188D01*
X168994430Y-118773858D01*
X168941974Y-118352303D01*
X168942676Y-118346581D01*
X169989185Y-118346581D01*
X170143691Y-118701373D01*
X170464149Y-118815823D01*
X170778884Y-118701373D01*
X170927668Y-118352303D01*
X170793190Y-118017539D01*
X170469871Y-117883062D01*
X170120801Y-118008956D01*
X169989185Y-118346581D01*
X168942676Y-118346581D01*
X168991251Y-117950459D01*
X169139081Y-117591852D01*
X169385465Y-117276481D01*
X169702426Y-117031687D01*
X170061987Y-116884810D01*
X170464149Y-116835851D01*
X170857091Y-116885764D01*
G37*
G36*
X146632961Y-115917396D02*
G01*
X146750272Y-116326552D01*
X146750272Y-119285064D01*
X146741688Y-119482489D01*
X146687325Y-119639857D01*
X146527096Y-119771474D01*
X146229528Y-119811531D01*
X144123662Y-119811531D01*
X143926237Y-119802947D01*
X143768870Y-119748584D01*
X143637253Y-119588355D01*
X143597196Y-119290787D01*
X143637253Y-118987496D01*
X143766009Y-118827268D01*
X143920515Y-118772904D01*
X144117940Y-118764320D01*
X145703062Y-118764320D01*
X145703062Y-118255021D01*
X144655851Y-118255021D01*
X144467010Y-118246438D01*
X144323948Y-118200658D01*
X144212361Y-118069041D01*
X144180887Y-117814392D01*
X144212361Y-117554020D01*
X144321087Y-117416681D01*
X144458426Y-117370901D01*
X144644406Y-117362318D01*
X145703062Y-117362318D01*
X145703062Y-116853019D01*
X144123662Y-116853019D01*
X143926237Y-116844435D01*
X143768870Y-116790072D01*
X143637253Y-116629843D01*
X143597196Y-116332275D01*
X143637253Y-116028984D01*
X143766009Y-115868755D01*
X143920515Y-115814392D01*
X144117940Y-115805808D01*
X146212361Y-115805808D01*
X146632961Y-115917396D01*
G37*
G36*
X179980601Y-116938856D02*
G01*
X180140830Y-117067611D01*
X180195193Y-117222117D01*
X180203777Y-117419542D01*
X180203777Y-118352303D01*
X180162448Y-118738887D01*
X180038461Y-119082235D01*
X179831817Y-119382346D01*
X179563497Y-119614424D01*
X179254484Y-119753670D01*
X178904778Y-119800086D01*
X178594335Y-119734278D01*
X178315365Y-119536853D01*
X178159428Y-119738569D01*
X177817511Y-119805808D01*
X177565722Y-119774335D01*
X177411216Y-119702804D01*
X177331102Y-119585494D01*
X177299628Y-119453877D01*
X177296767Y-119302232D01*
X177296767Y-117419542D01*
X177305351Y-117227840D01*
X177359714Y-117070472D01*
X177519943Y-116938856D01*
X177817511Y-116898798D01*
X178117940Y-116938856D01*
X178275308Y-117067611D01*
X178329671Y-117222117D01*
X178338255Y-117413820D01*
X178338255Y-118352303D01*
X178449843Y-118652732D01*
X178750272Y-118764320D01*
X179053562Y-118655594D01*
X179162289Y-118352303D01*
X179162289Y-117425265D01*
X179170873Y-117227840D01*
X179225236Y-117070472D01*
X179385465Y-116938856D01*
X179683033Y-116898798D01*
X179980601Y-116938856D01*
G37*
G36*
X139992046Y-115845866D02*
G01*
X140152275Y-115977482D01*
X140206638Y-116134850D01*
X140215222Y-116326552D01*
X140215222Y-119279342D01*
X140206638Y-119476767D01*
X140152275Y-119634134D01*
X139992046Y-119765751D01*
X139694478Y-119805808D01*
X139391187Y-119765751D01*
X139230959Y-119636996D01*
X139176595Y-119482489D01*
X139168011Y-119285064D01*
X139168011Y-118735708D01*
X138555708Y-118735708D01*
X138321803Y-118712818D01*
X138077883Y-118644149D01*
X137834678Y-118532561D01*
X137602918Y-118380916D01*
X137397625Y-118179914D01*
X137233820Y-117920258D01*
X137126524Y-117614821D01*
X137090758Y-117276481D01*
X137091372Y-117270758D01*
X138132246Y-117270758D01*
X138266724Y-117585494D01*
X138549986Y-117688498D01*
X139168011Y-117688498D01*
X139168011Y-116853019D01*
X138555708Y-116853019D01*
X138255279Y-116973190D01*
X138132246Y-117270758D01*
X137091372Y-117270758D01*
X137127239Y-116936710D01*
X137236681Y-116626981D01*
X137401917Y-116363033D01*
X137605780Y-116160601D01*
X137834678Y-116008956D01*
X138075021Y-115897368D01*
X138316795Y-115828698D01*
X138549986Y-115805808D01*
X139688755Y-115805808D01*
X139992046Y-115845866D01*
G37*
G36*
X152625649Y-116888943D02*
G01*
X153002378Y-117031051D01*
X153322518Y-117267897D01*
X153565722Y-117579771D01*
X153711645Y-117946962D01*
X153760286Y-118369471D01*
X153738112Y-118629843D01*
X153671588Y-118884492D01*
X153561431Y-119130558D01*
X153408355Y-119365179D01*
X153198770Y-119571903D01*
X152919084Y-119734278D01*
X152581459Y-119839428D01*
X152198054Y-119874478D01*
X151677310Y-119841931D01*
X151305351Y-119744292D01*
X151082175Y-119581559D01*
X151007783Y-119353734D01*
X151082175Y-119090501D01*
X151236681Y-118884492D01*
X151425522Y-118815823D01*
X151688755Y-118890215D01*
X152152275Y-118964607D01*
X152489900Y-118884492D01*
X152661574Y-118667039D01*
X151442690Y-118667039D01*
X151210215Y-118623405D01*
X151027811Y-118492504D01*
X150909785Y-118281488D01*
X150870443Y-117997511D01*
X150871655Y-117991788D01*
X151866152Y-117991788D01*
X152020658Y-118129127D01*
X152661574Y-118129127D01*
X152527096Y-117874478D01*
X152203777Y-117762890D01*
X151957711Y-117822976D01*
X151866152Y-117991788D01*
X150871655Y-117991788D01*
X150955565Y-117595508D01*
X151210930Y-117213534D01*
X151471302Y-117006889D01*
X151798436Y-116882903D01*
X152192332Y-116841574D01*
X152625649Y-116888943D01*
G37*
G36*
X173745980Y-115980343D02*
G01*
X173903348Y-116100515D01*
X173957711Y-116249299D01*
X173966295Y-116441001D01*
X173966295Y-116938856D01*
X174086466Y-116938856D01*
X174361144Y-117061888D01*
X174452704Y-117430987D01*
X174375451Y-117808670D01*
X174109356Y-117934564D01*
X173966295Y-117934564D01*
X173966295Y-118661316D01*
X173934185Y-119019924D01*
X173837857Y-119309862D01*
X173677310Y-119531130D01*
X173449366Y-119686908D01*
X173150844Y-119780375D01*
X172781745Y-119811531D01*
X172595765Y-119802947D01*
X172438398Y-119748584D01*
X172303920Y-119591216D01*
X172261001Y-119296509D01*
X172295336Y-119033276D01*
X172409785Y-118893076D01*
X172564292Y-118838712D01*
X172776023Y-118827268D01*
X172899056Y-118781488D01*
X172930529Y-118609814D01*
X172930529Y-117946009D01*
X172632961Y-117951731D01*
X172438398Y-117937425D01*
X172281030Y-117877339D01*
X172155136Y-117719971D01*
X172112217Y-117436710D01*
X172143691Y-117182060D01*
X172218083Y-117024692D01*
X172341116Y-116944578D01*
X172475594Y-116913104D01*
X172627239Y-116910243D01*
X172930529Y-116921688D01*
X172930529Y-116463891D01*
X172941974Y-116272189D01*
X172999199Y-116111960D01*
X173156567Y-115983205D01*
X173445551Y-115943147D01*
X173745980Y-115980343D01*
G37*
G36*
X162607210Y-115851588D02*
G01*
X162767439Y-115980343D01*
X162821803Y-116134850D01*
X162830386Y-116326552D01*
X162830386Y-119279342D01*
X162818941Y-119479628D01*
X162764578Y-119636996D01*
X162610072Y-119765751D01*
X162315365Y-119805808D01*
X162012074Y-119765751D01*
X161851845Y-119636996D01*
X161797482Y-119482489D01*
X161788898Y-119290787D01*
X161788898Y-117659886D01*
X161125093Y-118564034D01*
X160936252Y-118740000D01*
X160678741Y-118798655D01*
X160521373Y-118781488D01*
X160401202Y-118729986D01*
X160326810Y-118672761D01*
X160272446Y-118609814D01*
X160238112Y-118564034D01*
X159568584Y-117654163D01*
X159568584Y-119279342D01*
X159560000Y-119476767D01*
X159505637Y-119634134D01*
X159345408Y-119765751D01*
X159047840Y-119805808D01*
X158747411Y-119765751D01*
X158590043Y-119639857D01*
X158532818Y-119485351D01*
X158521373Y-119290787D01*
X158521373Y-116337997D01*
X158532818Y-116137711D01*
X158587182Y-115980343D01*
X158744549Y-115851588D01*
X159042117Y-115811531D01*
X159345408Y-115845866D01*
X159517082Y-115977482D01*
X160678741Y-117471044D01*
X161846123Y-115971760D01*
X161883319Y-115931702D01*
X161926237Y-115888784D01*
X161974878Y-115860172D01*
X162049270Y-115834421D01*
X162152275Y-115820114D01*
X162303920Y-115811531D01*
X162607210Y-115851588D01*
G37*
G36*
X176099183Y-116873047D02*
G01*
X176399612Y-116950300D01*
X176635823Y-117079056D01*
X176865436Y-117363033D01*
X176941974Y-117751445D01*
X176897983Y-118072976D01*
X176766009Y-118333705D01*
X176546052Y-118533634D01*
X176238112Y-118672761D01*
X175929099Y-118750014D01*
X175645837Y-118830129D01*
X175562861Y-118930272D01*
X175780315Y-119021831D01*
X176206638Y-118881631D01*
X176604349Y-118741431D01*
X176827525Y-118855880D01*
X176986323Y-119121974D01*
X177039256Y-119325122D01*
X176939828Y-119535422D01*
X176641545Y-119708526D01*
X176250272Y-119824406D01*
X175871874Y-119863033D01*
X175412475Y-119823433D01*
X175055165Y-119704635D01*
X174799943Y-119506638D01*
X174646810Y-119229442D01*
X174595765Y-118873047D01*
X174673019Y-118461030D01*
X174896195Y-118197797D01*
X175170873Y-118066180D01*
X175482747Y-117991788D01*
X175574306Y-117977482D01*
X175665866Y-117963176D01*
X175745980Y-117946009D01*
X175820372Y-117925980D01*
X175883319Y-117905951D01*
X175937682Y-117880200D01*
X175974878Y-117848727D01*
X176000629Y-117808670D01*
X176009213Y-117757167D01*
X175797482Y-117642718D01*
X175442690Y-117745722D01*
X175127954Y-117848727D01*
X174841831Y-117631273D01*
X174717368Y-117273619D01*
X174939113Y-117036137D01*
X175338255Y-116894506D01*
X175734535Y-116847296D01*
X176099183Y-116873047D01*
G37*
G36*
X132624060Y-115799450D02*
G01*
X132982667Y-115952049D01*
X133285322Y-116206381D01*
X133514220Y-116523659D01*
X133651559Y-116865099D01*
X133697339Y-117230701D01*
X133688755Y-117428126D01*
X133634392Y-117585494D01*
X133474163Y-117717110D01*
X133176595Y-117757167D01*
X132873305Y-117719971D01*
X132713076Y-117599800D01*
X132658712Y-117453877D01*
X132650129Y-117270758D01*
X132538541Y-116914535D01*
X132203777Y-116795794D01*
X131914793Y-116873047D01*
X131788898Y-117021831D01*
X131768870Y-117173476D01*
X131819657Y-117393791D01*
X131972017Y-117608383D01*
X132190186Y-117802947D01*
X132438398Y-117963176D01*
X132714506Y-118124120D01*
X133016366Y-118320830D01*
X133292475Y-118531845D01*
X133491330Y-118735708D01*
X133645837Y-119000372D01*
X133697339Y-119290787D01*
X133542833Y-119665608D01*
X133176595Y-119822976D01*
X131110787Y-119822976D01*
X130913362Y-119811531D01*
X130750272Y-119754306D01*
X130618655Y-119596938D01*
X130578598Y-119302232D01*
X130618655Y-118998941D01*
X130747411Y-118838712D01*
X130901917Y-118781488D01*
X131099342Y-118770043D01*
X131814649Y-118770043D01*
X131471302Y-118566896D01*
X131122232Y-118266466D01*
X130956996Y-118063319D01*
X130827525Y-117820114D01*
X130743834Y-117548298D01*
X130715937Y-117259313D01*
X130764260Y-116860649D01*
X130909229Y-116503948D01*
X131150844Y-116189213D01*
X131461764Y-115944419D01*
X131814649Y-115797543D01*
X132209499Y-115748584D01*
X132624060Y-115799450D01*
G37*
G36*
X142384670Y-115781329D02*
G01*
X142707035Y-115896732D01*
X142984893Y-116089070D01*
X143197895Y-116339905D01*
X143325697Y-116630796D01*
X143368298Y-116961745D01*
X143322518Y-117333705D01*
X143185179Y-117642718D01*
X142956280Y-117888784D01*
X142635823Y-118071903D01*
X142419084Y-118149871D01*
X142146552Y-118223548D01*
X141697339Y-118358026D01*
X141548555Y-118535422D01*
X141651559Y-118801516D01*
X141989185Y-118884492D01*
X142215222Y-118830129D01*
X142446981Y-118621259D01*
X142705128Y-118412707D01*
X142953101Y-118374557D01*
X143190901Y-118506810D01*
X143431245Y-118873047D01*
X143288183Y-119245007D01*
X143253848Y-119285064D01*
X143190901Y-119365179D01*
X143090758Y-119465322D01*
X142953419Y-119576910D01*
X142776023Y-119685637D01*
X142555708Y-119780057D01*
X142286753Y-119843004D01*
X141966295Y-119868755D01*
X141585751Y-119825837D01*
X141193763Y-119679914D01*
X140841831Y-119425265D01*
X140592904Y-119038999D01*
X140519943Y-118791502D01*
X140495622Y-118518255D01*
X140549270Y-118090501D01*
X140710215Y-117780057D01*
X140961288Y-117562604D01*
X141285322Y-117413820D01*
X141651559Y-117325122D01*
X142000629Y-117253591D01*
X142226667Y-117153448D01*
X142326810Y-116967468D01*
X142235250Y-116792933D01*
X142023519Y-116721402D01*
X141834678Y-116741431D01*
X141723090Y-116784349D01*
X141642976Y-116850157D01*
X141577167Y-116904521D01*
X141193763Y-117010386D01*
X140856137Y-116732847D01*
X140718798Y-116380916D01*
X140924807Y-116086209D01*
X141221739Y-115895460D01*
X141586069Y-115781011D01*
X142017797Y-115742861D01*
X142384670Y-115781329D01*
G37*
G36*
X167434106Y-116970329D02*
G01*
X167694478Y-117184921D01*
X167848984Y-116974621D01*
X168175165Y-116904521D01*
X168478455Y-116944578D01*
X168638684Y-117073333D01*
X168693047Y-117224979D01*
X168701631Y-117419542D01*
X168701631Y-119290787D01*
X168693047Y-119488212D01*
X168638684Y-119642718D01*
X168481316Y-119771474D01*
X168186609Y-119811531D01*
X167883319Y-119771474D01*
X167723090Y-119642718D01*
X167668727Y-119491073D01*
X167660143Y-119296509D01*
X167660143Y-118352303D01*
X167592904Y-118047582D01*
X167391187Y-117946009D01*
X167185179Y-118047582D01*
X167116509Y-118352303D01*
X167116509Y-119285064D01*
X167107926Y-119479628D01*
X167053562Y-119639857D01*
X166896195Y-119771474D01*
X166601488Y-119811531D01*
X166298197Y-119771474D01*
X166137969Y-119642718D01*
X166083605Y-119488212D01*
X166075021Y-119290787D01*
X166075021Y-118358026D01*
X166014936Y-118037568D01*
X165806066Y-117946009D01*
X165600057Y-118047582D01*
X165531388Y-118352303D01*
X165531388Y-119285064D01*
X165522804Y-119479628D01*
X165468441Y-119639857D01*
X165311073Y-119771474D01*
X165016366Y-119811531D01*
X164713076Y-119771474D01*
X164552847Y-119642718D01*
X164498484Y-119488212D01*
X164489900Y-119290787D01*
X164489900Y-118358026D01*
X164520738Y-117927887D01*
X164613251Y-117568326D01*
X164767439Y-117279342D01*
X164977581Y-117067929D01*
X165237953Y-116941081D01*
X165548555Y-116898798D01*
X165822597Y-116945214D01*
X166080108Y-117084460D01*
X166321087Y-117316538D01*
X166535997Y-117084460D01*
X166806861Y-116945214D01*
X167133677Y-116898798D01*
X167434106Y-116970329D01*
G37*
G36*
X182070014Y-115782918D02*
G01*
X182335393Y-115834421D01*
X182610072Y-115925265D01*
X182890472Y-116060458D01*
X183158712Y-116234993D01*
X183396910Y-116443863D01*
X183600057Y-116700658D01*
X183763147Y-117018970D01*
X183870443Y-117385207D01*
X183906209Y-117785780D01*
X183869728Y-118202089D01*
X183760286Y-118581202D01*
X183595050Y-118909528D01*
X183391187Y-119173476D01*
X183152990Y-119388069D01*
X182884750Y-119568326D01*
X182605780Y-119707811D01*
X182335393Y-119800086D01*
X182077167Y-119851588D01*
X181834678Y-119868755D01*
X181464626Y-119833149D01*
X181109833Y-119726330D01*
X180770300Y-119548298D01*
X180535680Y-119373763D01*
X180455565Y-119164893D01*
X180581459Y-118832990D01*
X180787468Y-118588355D01*
X180982031Y-118506810D01*
X181268155Y-118621259D01*
X181555708Y-118762890D01*
X181857568Y-118810100D01*
X182292475Y-118718541D01*
X182499199Y-118590501D01*
X182684464Y-118389499D01*
X182815365Y-118126981D01*
X182858999Y-117814392D01*
X182834678Y-117571187D01*
X182761717Y-117356595D01*
X182507067Y-117044721D01*
X182183748Y-116875908D01*
X181857568Y-116818684D01*
X181720229Y-116824406D01*
X181605780Y-116844435D01*
X181514220Y-116867325D01*
X181436967Y-116895937D01*
X181382604Y-116927411D01*
X181333963Y-116958884D01*
X181296767Y-116984635D01*
X180987754Y-117116252D01*
X180790329Y-117038999D01*
X180575737Y-116807239D01*
X180449843Y-116486781D01*
X180504206Y-116315107D01*
X180610072Y-116194936D01*
X180764578Y-116086209D01*
X181125729Y-115908177D01*
X181476706Y-115801357D01*
X181817511Y-115765751D01*
X182070014Y-115782918D01*
G37*
G36*
X117102203Y-115786495D02*
G01*
X117416938Y-115900229D01*
X117675880Y-116069757D01*
X117869013Y-116275050D01*
X118014220Y-116516824D01*
X118129385Y-116795794D01*
X118211645Y-117079056D01*
X118258140Y-117333705D01*
X118279599Y-117574049D01*
X118286753Y-117814392D01*
X118263863Y-118232132D01*
X118183748Y-118687067D01*
X118111502Y-118924549D01*
X118009213Y-119139142D01*
X117728813Y-119516824D01*
X117542117Y-119672046D01*
X117308212Y-119788641D01*
X117034964Y-119861602D01*
X116753133Y-119884096D01*
X116730243Y-119885923D01*
X116385465Y-119850157D01*
X116083605Y-119742861D01*
X115833247Y-119581202D01*
X115642976Y-119382346D01*
X115497768Y-119147010D01*
X115382604Y-118875908D01*
X115298913Y-118595508D01*
X115248126Y-118332275D01*
X115222375Y-118076910D01*
X115213791Y-117820114D01*
X115213971Y-117814392D01*
X116261001Y-117814392D01*
X116261001Y-117843004D01*
X116263863Y-118071903D01*
X116295336Y-118323691D01*
X116369728Y-118581202D01*
X116515651Y-118755737D01*
X116753133Y-118832990D01*
X116965937Y-118769685D01*
X117117940Y-118579771D01*
X117209142Y-118263247D01*
X117239542Y-117820114D01*
X117208784Y-117371974D01*
X117116509Y-117051874D01*
X116962718Y-116859814D01*
X116747411Y-116795794D01*
X116534607Y-116859456D01*
X116382604Y-117050443D01*
X116291402Y-117368755D01*
X116261001Y-117814392D01*
X115213971Y-117814392D01*
X115221660Y-117569757D01*
X115245265Y-117322260D01*
X115293906Y-117064034D01*
X115376881Y-116781488D01*
X115492046Y-116505379D01*
X115637253Y-116266466D01*
X115828956Y-116064034D01*
X116083605Y-115897368D01*
X116391187Y-115785780D01*
X116741688Y-115748584D01*
X117102203Y-115786495D01*
G37*
G36*
X120335393Y-115786495D02*
G01*
X120650129Y-115900229D01*
X120909070Y-116069757D01*
X121102203Y-116275050D01*
X121247411Y-116516824D01*
X121362575Y-116795794D01*
X121444835Y-117079056D01*
X121491330Y-117333705D01*
X121512790Y-117574049D01*
X121519943Y-117814392D01*
X121497053Y-118232132D01*
X121416938Y-118687067D01*
X121344692Y-118924549D01*
X121242403Y-119139142D01*
X120962003Y-119516824D01*
X120775308Y-119672046D01*
X120541402Y-119788641D01*
X120268155Y-119861602D01*
X119986323Y-119884096D01*
X119963433Y-119885923D01*
X119618655Y-119850157D01*
X119316795Y-119742861D01*
X119066438Y-119581202D01*
X118876166Y-119382346D01*
X118730959Y-119147010D01*
X118615794Y-118875908D01*
X118532103Y-118595508D01*
X118481316Y-118332275D01*
X118455565Y-118076910D01*
X118446981Y-117820114D01*
X118447161Y-117814392D01*
X119494192Y-117814392D01*
X119494192Y-117843004D01*
X119497053Y-118071903D01*
X119528526Y-118323691D01*
X119602918Y-118581202D01*
X119748841Y-118755737D01*
X119986323Y-118832990D01*
X120199127Y-118769685D01*
X120351130Y-118579771D01*
X120442332Y-118263247D01*
X120472732Y-117820114D01*
X120441974Y-117371974D01*
X120349700Y-117051874D01*
X120195908Y-116859814D01*
X119980601Y-116795794D01*
X119767797Y-116859456D01*
X119615794Y-117050443D01*
X119524592Y-117368755D01*
X119494192Y-117814392D01*
X118447161Y-117814392D01*
X118454850Y-117569757D01*
X118478455Y-117322260D01*
X118527096Y-117064034D01*
X118610072Y-116781488D01*
X118725236Y-116505379D01*
X118870443Y-116266466D01*
X119062146Y-116064034D01*
X119316795Y-115897368D01*
X119624378Y-115785780D01*
X119974878Y-115748584D01*
X120335393Y-115786495D01*
G37*
G36*
X135720229Y-115774335D02*
G01*
X135983462Y-115843004D01*
X136195193Y-115943147D01*
X136364006Y-116060458D01*
X136489900Y-116183491D01*
X136581459Y-116297940D01*
X136638684Y-116392361D01*
X136670157Y-116455308D01*
X136678741Y-116475336D01*
X136761717Y-116870186D01*
X136478455Y-117184921D01*
X136171985Y-117287290D01*
X135931642Y-117220528D01*
X135757425Y-116984635D01*
X135591474Y-116812961D01*
X135345408Y-116755737D01*
X135085036Y-116827268D01*
X134990615Y-117024692D01*
X135073591Y-117170615D01*
X135339685Y-117207811D01*
X135379742Y-117207811D01*
X135562861Y-117216395D01*
X135708784Y-117265036D01*
X135828956Y-117413820D01*
X135866152Y-117699943D01*
X135831817Y-117951731D01*
X135763147Y-118100515D01*
X135634392Y-118172046D01*
X135502775Y-118197797D01*
X135345408Y-118197797D01*
X135014936Y-118280773D01*
X134904778Y-118529700D01*
X135039256Y-118767182D01*
X135396910Y-118855880D01*
X135600057Y-118824406D01*
X135737396Y-118755737D01*
X135823233Y-118669900D01*
X135866152Y-118601230D01*
X135877597Y-118569757D01*
X136043548Y-118300801D01*
X136358283Y-118237854D01*
X136787468Y-118327983D01*
X136930529Y-118598369D01*
X136879663Y-118924231D01*
X136727064Y-119222753D01*
X136472732Y-119493934D01*
X136150367Y-119708526D01*
X135793667Y-119837282D01*
X135402632Y-119880200D01*
X134982031Y-119837282D01*
X134612933Y-119708526D01*
X134295336Y-119493934D01*
X134052132Y-119213852D01*
X133906209Y-118888625D01*
X133857568Y-118518255D01*
X133896195Y-118243577D01*
X134012074Y-118014678D01*
X134332532Y-117705665D01*
X134036395Y-117420973D01*
X133937682Y-117001803D01*
X133981873Y-116694697D01*
X134114443Y-116406667D01*
X134335393Y-116137711D01*
X134630736Y-115921529D01*
X134986482Y-115791820D01*
X135402632Y-115748584D01*
X135720229Y-115774335D01*
G37*
%TO.C,kibuzzard-69777D46*%
G36*
X148290186Y-109130544D02*
G01*
X148398913Y-109528255D01*
X148293047Y-109934550D01*
X147895336Y-110043276D01*
X147489041Y-109934550D01*
X147380315Y-109528255D01*
X147486180Y-109130544D01*
X147883891Y-109024678D01*
X148290186Y-109130544D01*
G37*
G36*
X159403205Y-110403791D02*
G01*
X159677883Y-110712804D01*
X159557711Y-111090487D01*
X158464721Y-112738555D01*
X158911073Y-113734264D01*
X158985465Y-114131975D01*
X158659285Y-114409514D01*
X158232961Y-114481045D01*
X157978312Y-114157726D01*
X156576309Y-111016095D01*
X156516223Y-110632690D01*
X156839542Y-110363734D01*
X157263004Y-110300787D01*
X157520515Y-110621245D01*
X157972589Y-111628398D01*
X158687897Y-110546853D01*
X158991187Y-110275036D01*
X159403205Y-110403791D01*
G37*
G36*
X153343119Y-109313663D02*
G01*
X153543405Y-109533977D01*
X154979742Y-112509657D01*
X155054134Y-112913090D01*
X154733677Y-113190630D01*
X154315937Y-113273605D01*
X154029814Y-112956009D01*
X153766581Y-112406653D01*
X153337396Y-112406653D01*
X152358856Y-112406653D01*
X152095622Y-112950286D01*
X151815222Y-113279328D01*
X151391760Y-113196352D01*
X151074163Y-112915952D01*
X151151416Y-112509657D01*
X151632963Y-111513949D01*
X152799485Y-111513949D01*
X153337396Y-111513949D01*
X153068441Y-110958870D01*
X152799485Y-111513949D01*
X151632963Y-111513949D01*
X152587754Y-109539700D01*
X152783748Y-109307940D01*
X153062718Y-109230687D01*
X153343119Y-109313663D01*
G37*
G36*
X128401774Y-110366595D02*
G01*
X128690758Y-110564020D01*
X128850987Y-110388055D01*
X129182890Y-110329399D01*
X129483319Y-110369457D01*
X129640687Y-110498212D01*
X129695050Y-110649857D01*
X129703634Y-110844421D01*
X129703634Y-112709943D01*
X129695050Y-112907368D01*
X129640687Y-113064736D01*
X129483319Y-113196352D01*
X129188612Y-113236409D01*
X128885322Y-113196352D01*
X128725093Y-113067597D01*
X128670730Y-112915952D01*
X128662146Y-112721388D01*
X128662146Y-111605508D01*
X128550558Y-111396638D01*
X128267296Y-111313663D01*
X128127096Y-111356581D01*
X127906781Y-111399500D01*
X127586323Y-111202075D01*
X127491903Y-110981045D01*
X127460429Y-110712804D01*
X127531960Y-110495351D01*
X127717940Y-110366595D01*
X127923948Y-110315093D01*
X128095622Y-110300787D01*
X128401774Y-110366595D01*
G37*
G36*
X149557711Y-110366595D02*
G01*
X149846695Y-110564020D01*
X150006924Y-110388055D01*
X150338827Y-110329399D01*
X150639256Y-110369457D01*
X150796624Y-110498212D01*
X150850987Y-110649857D01*
X150859571Y-110844421D01*
X150859571Y-112709943D01*
X150850987Y-112907368D01*
X150796624Y-113064736D01*
X150639256Y-113196352D01*
X150344549Y-113236409D01*
X150041259Y-113196352D01*
X149881030Y-113067597D01*
X149826667Y-112915952D01*
X149818083Y-112721388D01*
X149818083Y-111605508D01*
X149706495Y-111396638D01*
X149423233Y-111313663D01*
X149283033Y-111356581D01*
X149062718Y-111399500D01*
X148742260Y-111202075D01*
X148647840Y-110981045D01*
X148616366Y-110712804D01*
X148687897Y-110495351D01*
X148873877Y-110366595D01*
X149079886Y-110315093D01*
X149251559Y-110300787D01*
X149557711Y-110366595D01*
G37*
G36*
X148172876Y-110349428D02*
G01*
X148330243Y-110466739D01*
X148387468Y-110612661D01*
X148398913Y-110787196D01*
X148398913Y-112984621D01*
X148441831Y-113210658D01*
X148553419Y-113345136D01*
X148682175Y-113402361D01*
X148799485Y-113419528D01*
X148988326Y-113433834D01*
X149148555Y-113493920D01*
X149274449Y-113645565D01*
X149314506Y-113923105D01*
X149274449Y-114217811D01*
X149148555Y-114375179D01*
X148996910Y-114429543D01*
X148810930Y-114438126D01*
X148564149Y-114414521D01*
X148315937Y-114343706D01*
X148076309Y-114229972D01*
X147855279Y-114077611D01*
X147663577Y-113879471D01*
X147511931Y-113628398D01*
X147413219Y-113337268D01*
X147380315Y-113018956D01*
X147380315Y-110827254D01*
X147388898Y-110635551D01*
X147440401Y-110481045D01*
X147594907Y-110352289D01*
X147883891Y-110312232D01*
X148172876Y-110349428D01*
G37*
G36*
X146825236Y-110363734D02*
G01*
X146985465Y-110492490D01*
X147039828Y-110646996D01*
X147048412Y-110844421D01*
X147048412Y-111777182D01*
X147007083Y-112163766D01*
X146883096Y-112507114D01*
X146676452Y-112807225D01*
X146408132Y-113039302D01*
X146099119Y-113178549D01*
X145749413Y-113224965D01*
X145438970Y-113159156D01*
X145160000Y-112961731D01*
X145004063Y-113163448D01*
X144662146Y-113230687D01*
X144410358Y-113199213D01*
X144255851Y-113127683D01*
X144175737Y-113010372D01*
X144144263Y-112878756D01*
X144141402Y-112727110D01*
X144141402Y-110844421D01*
X144149986Y-110652718D01*
X144204349Y-110495351D01*
X144364578Y-110363734D01*
X144662146Y-110323677D01*
X144962575Y-110363734D01*
X145119943Y-110492490D01*
X145174306Y-110646996D01*
X145182890Y-110838698D01*
X145182890Y-111777182D01*
X145294478Y-112077611D01*
X145594907Y-112189199D01*
X145898197Y-112080472D01*
X146006924Y-111777182D01*
X146006924Y-110850143D01*
X146015508Y-110652718D01*
X146069871Y-110495351D01*
X146230100Y-110363734D01*
X146527668Y-110323677D01*
X146825236Y-110363734D01*
G37*
G36*
X120722232Y-110388055D02*
G01*
X120868155Y-110564020D01*
X121132818Y-110392347D01*
X121469013Y-110335122D01*
X121797101Y-110384081D01*
X122102299Y-110530957D01*
X122384607Y-110775751D01*
X122610326Y-111082221D01*
X122745757Y-111414124D01*
X122790901Y-111771460D01*
X122746075Y-112138333D01*
X122611598Y-112475958D01*
X122387468Y-112784335D01*
X122106113Y-113029129D01*
X121799962Y-113176006D01*
X121469013Y-113224965D01*
X121325951Y-113202475D01*
X121141402Y-113173462D01*
X120868155Y-113018956D01*
X120706495Y-113173462D01*
X120381745Y-113224965D01*
X120084177Y-113184907D01*
X119923948Y-113056152D01*
X119869585Y-112904507D01*
X119861001Y-112709943D01*
X119861001Y-111777182D01*
X120931102Y-111777182D01*
X121048412Y-112066166D01*
X121325951Y-112189199D01*
X121626381Y-112066166D01*
X121755136Y-111782904D01*
X121632103Y-111491059D01*
X121337396Y-111365165D01*
X121048412Y-111485337D01*
X120931102Y-111777182D01*
X119861001Y-111777182D01*
X119861001Y-110850143D01*
X119869585Y-110658441D01*
X119923948Y-110501073D01*
X120081316Y-110369457D01*
X120376023Y-110329399D01*
X120722232Y-110388055D01*
G37*
G36*
X130908212Y-110388055D02*
G01*
X131054134Y-110564020D01*
X131318798Y-110392347D01*
X131654993Y-110335122D01*
X131983081Y-110384081D01*
X132288278Y-110530957D01*
X132570587Y-110775751D01*
X132796306Y-111082221D01*
X132931737Y-111414124D01*
X132976881Y-111771460D01*
X132932055Y-112138333D01*
X132797577Y-112475958D01*
X132573448Y-112784335D01*
X132292093Y-113029129D01*
X131985942Y-113176006D01*
X131654993Y-113224965D01*
X131511931Y-113202475D01*
X131327382Y-113173462D01*
X131054134Y-113018956D01*
X130892475Y-113173462D01*
X130567725Y-113224965D01*
X130270157Y-113184907D01*
X130109928Y-113056152D01*
X130055565Y-112904507D01*
X130046981Y-112709943D01*
X130046981Y-111777182D01*
X131117082Y-111777182D01*
X131234392Y-112066166D01*
X131511931Y-112189199D01*
X131812361Y-112066166D01*
X131941116Y-111782904D01*
X131818083Y-111491059D01*
X131523376Y-111365165D01*
X131234392Y-111485337D01*
X131117082Y-111777182D01*
X130046981Y-111777182D01*
X130046981Y-110850143D01*
X130055565Y-110658441D01*
X130109928Y-110501073D01*
X130267296Y-110369457D01*
X130562003Y-110329399D01*
X130908212Y-110388055D01*
G37*
G36*
X143574878Y-110366595D02*
G01*
X143732246Y-110489628D01*
X143786609Y-110638412D01*
X143798054Y-110827254D01*
X143798054Y-112709943D01*
X143789471Y-112907368D01*
X143735107Y-113061874D01*
X143577740Y-113190630D01*
X143283033Y-113230687D01*
X142985465Y-113190630D01*
X142825236Y-113061874D01*
X142770873Y-112907368D01*
X142762289Y-112715666D01*
X142762289Y-111777182D01*
X142647840Y-111476753D01*
X142344549Y-111365165D01*
X142044120Y-111473892D01*
X141938255Y-111777182D01*
X141938255Y-112709943D01*
X141929671Y-112901646D01*
X141875308Y-113059013D01*
X141715079Y-113190630D01*
X141411788Y-113230687D01*
X141111359Y-113190630D01*
X140953991Y-113061874D01*
X140899628Y-112907368D01*
X140891044Y-112715666D01*
X140891044Y-111777182D01*
X140924743Y-111379153D01*
X141025840Y-111031990D01*
X141194335Y-110735694D01*
X141424505Y-110509975D01*
X141710628Y-110374543D01*
X142052704Y-110329399D01*
X142467582Y-110438126D01*
X142773734Y-110684192D01*
X142790901Y-110566882D01*
X142853848Y-110458155D01*
X143008355Y-110363734D01*
X143277310Y-110329399D01*
X143574878Y-110366595D01*
G37*
G36*
X171835250Y-110388055D02*
G01*
X171981173Y-110564020D01*
X172245837Y-110392347D01*
X172582031Y-110335122D01*
X172910119Y-110384081D01*
X173215317Y-110530957D01*
X173497625Y-110775751D01*
X173723344Y-111082221D01*
X173858776Y-111414124D01*
X173903920Y-111771460D01*
X173859094Y-112138333D01*
X173724616Y-112475958D01*
X173500486Y-112784335D01*
X173219132Y-113029129D01*
X172912980Y-113176006D01*
X172582031Y-113224965D01*
X172438970Y-113202475D01*
X172254421Y-113173462D01*
X171981173Y-113018956D01*
X171819514Y-113173462D01*
X171494764Y-113224965D01*
X171197196Y-113184907D01*
X171036967Y-113056152D01*
X170982604Y-112904507D01*
X170974020Y-112709943D01*
X170974020Y-111777182D01*
X172044120Y-111777182D01*
X172161431Y-112066166D01*
X172438970Y-112189199D01*
X172739399Y-112066166D01*
X172868155Y-111782904D01*
X172745122Y-111491059D01*
X172450415Y-111365165D01*
X172161431Y-111485337D01*
X172044120Y-111777182D01*
X170974020Y-111777182D01*
X170974020Y-110850143D01*
X170982604Y-110658441D01*
X171036967Y-110501073D01*
X171194335Y-110369457D01*
X171489041Y-110329399D01*
X171835250Y-110388055D01*
G37*
G36*
X135903920Y-109059013D02*
G01*
X136061288Y-109187769D01*
X136115651Y-109342275D01*
X136124235Y-109533977D01*
X136124235Y-112715666D01*
X136115651Y-112913090D01*
X136061288Y-113067597D01*
X135903920Y-113196352D01*
X135609213Y-113236409D01*
X135311645Y-113196352D01*
X135151416Y-113067597D01*
X135097053Y-112915952D01*
X135088469Y-112721388D01*
X135088469Y-111691345D01*
X134933963Y-111468169D01*
X134647840Y-111370887D01*
X134367439Y-111482475D01*
X134264435Y-111777182D01*
X134264435Y-112709943D01*
X134252990Y-112913090D01*
X134195765Y-113070458D01*
X134038398Y-113196352D01*
X133743691Y-113236409D01*
X133446123Y-113196352D01*
X133285894Y-113067597D01*
X133231531Y-112913090D01*
X133222947Y-112721388D01*
X133222947Y-111782904D01*
X133264276Y-111396320D01*
X133388263Y-111052973D01*
X133594907Y-110752862D01*
X133862591Y-110520784D01*
X134169696Y-110381537D01*
X134516223Y-110335122D01*
X134816652Y-110396638D01*
X135088469Y-110581188D01*
X135088469Y-109539700D01*
X135097053Y-109342275D01*
X135151416Y-109187769D01*
X135308784Y-109059013D01*
X135603491Y-109018956D01*
X135903920Y-109059013D01*
G37*
G36*
X166411629Y-110313822D02*
G01*
X166788358Y-110455929D01*
X167108498Y-110692776D01*
X167351702Y-111004650D01*
X167497625Y-111371841D01*
X167546266Y-111794349D01*
X167524092Y-112054721D01*
X167457568Y-112309371D01*
X167347411Y-112555437D01*
X167194335Y-112790058D01*
X166984750Y-112996781D01*
X166705064Y-113159156D01*
X166367439Y-113264306D01*
X165984034Y-113299357D01*
X165463290Y-113266810D01*
X165091330Y-113169171D01*
X164868155Y-113006438D01*
X164793763Y-112778613D01*
X164868155Y-112515379D01*
X165022661Y-112309371D01*
X165211502Y-112240701D01*
X165474735Y-112315093D01*
X165938255Y-112389485D01*
X166275880Y-112309371D01*
X166447554Y-112091917D01*
X165228670Y-112091917D01*
X164996195Y-112048284D01*
X164813791Y-111917382D01*
X164695765Y-111706367D01*
X164656423Y-111422389D01*
X164657635Y-111416667D01*
X165652132Y-111416667D01*
X165806638Y-111554006D01*
X166447554Y-111554006D01*
X166313076Y-111299357D01*
X165989757Y-111187769D01*
X165743691Y-111247854D01*
X165652132Y-111416667D01*
X164657635Y-111416667D01*
X164741545Y-111020387D01*
X164996910Y-110638412D01*
X165257282Y-110431768D01*
X165584416Y-110307781D01*
X165978312Y-110266452D01*
X166411629Y-110313822D01*
G37*
G36*
X168573448Y-109047568D02*
G01*
X168722232Y-109127683D01*
X168796624Y-109247854D01*
X168819514Y-109390916D01*
X168816652Y-109539700D01*
X168816652Y-110523963D01*
X169081316Y-110382332D01*
X169394621Y-110335122D01*
X169722709Y-110384081D01*
X170027907Y-110530957D01*
X170310215Y-110775751D01*
X170535934Y-111082221D01*
X170671365Y-111414124D01*
X170716509Y-111771460D01*
X170671683Y-112138333D01*
X170537206Y-112475958D01*
X170313076Y-112784335D01*
X170031722Y-113029129D01*
X169725570Y-113176006D01*
X169394621Y-113224965D01*
X169257282Y-113203468D01*
X169065579Y-113173462D01*
X168788040Y-113018956D01*
X168624950Y-113177754D01*
X168318798Y-113230687D01*
X168024092Y-113190630D01*
X167866724Y-113059013D01*
X167812361Y-112901646D01*
X167803777Y-112709943D01*
X167803777Y-111782904D01*
X168850987Y-111782904D01*
X168971159Y-112071889D01*
X169257282Y-112194922D01*
X169549127Y-112071889D01*
X169675021Y-111782904D01*
X169554850Y-111491059D01*
X169263004Y-111370887D01*
X168971159Y-111491059D01*
X168850987Y-111782904D01*
X167803777Y-111782904D01*
X167803777Y-109533977D01*
X167812361Y-109342275D01*
X167866724Y-109187769D01*
X168024092Y-109059013D01*
X168324521Y-109018956D01*
X168573448Y-109047568D01*
G37*
G36*
X178235823Y-109276467D02*
G01*
X178396052Y-109405222D01*
X178450415Y-109559728D01*
X178458999Y-109751431D01*
X178458999Y-112704221D01*
X178447554Y-112904507D01*
X178393190Y-113061874D01*
X178238684Y-113190630D01*
X177943977Y-113230687D01*
X177640687Y-113190630D01*
X177480458Y-113061874D01*
X177426094Y-112907368D01*
X177417511Y-112715666D01*
X177417511Y-111084764D01*
X176753705Y-111988913D01*
X176564864Y-112164879D01*
X176307353Y-112223534D01*
X176149986Y-112206367D01*
X176029814Y-112154864D01*
X175955422Y-112097640D01*
X175901059Y-112034693D01*
X175866724Y-111988913D01*
X175197196Y-111079042D01*
X175197196Y-112704221D01*
X175188612Y-112901646D01*
X175134249Y-113059013D01*
X174974020Y-113190630D01*
X174676452Y-113230687D01*
X174376023Y-113190630D01*
X174218655Y-113064736D01*
X174161431Y-112910229D01*
X174149986Y-112715666D01*
X174149986Y-109762876D01*
X174161431Y-109562590D01*
X174215794Y-109405222D01*
X174373162Y-109276467D01*
X174670730Y-109236409D01*
X174974020Y-109270744D01*
X175145694Y-109402361D01*
X176307353Y-110895923D01*
X177474735Y-109396638D01*
X177511931Y-109356581D01*
X177554850Y-109313663D01*
X177603491Y-109285050D01*
X177677883Y-109259299D01*
X177780887Y-109244993D01*
X177932532Y-109236409D01*
X178235823Y-109276467D01*
G37*
G36*
X162830959Y-109265022D02*
G01*
X162991187Y-109396638D01*
X163045551Y-109554006D01*
X163054134Y-109745708D01*
X163054134Y-112698498D01*
X163045551Y-112898784D01*
X162991187Y-113059013D01*
X162830959Y-113190630D01*
X162533391Y-113230687D01*
X162006924Y-113230687D01*
X161131388Y-113230687D01*
X160800439Y-113188722D01*
X160501917Y-113062828D01*
X160235823Y-112853005D01*
X160026953Y-112582777D01*
X159900105Y-112275672D01*
X159855279Y-111931688D01*
X159866146Y-111868741D01*
X160902489Y-111868741D01*
X160933963Y-112048999D01*
X161019800Y-112146281D01*
X161108498Y-112177754D01*
X161188612Y-112183477D01*
X162006924Y-112183477D01*
X162006924Y-110272175D01*
X161314506Y-110272175D01*
X161077024Y-110317955D01*
X161016938Y-110495351D01*
X161056996Y-110672747D01*
X161194335Y-110712804D01*
X161263004Y-110712804D01*
X161612074Y-110807225D01*
X161715079Y-111136266D01*
X161617797Y-111476753D01*
X161291617Y-111576896D01*
X161217225Y-111576896D01*
X160976881Y-111631259D01*
X160902489Y-111868741D01*
X159866146Y-111868741D01*
X159931102Y-111492490D01*
X160158569Y-111090487D01*
X160016938Y-110784335D01*
X159969728Y-110449571D01*
X160009150Y-110132610D01*
X160127414Y-109845534D01*
X160324521Y-109588341D01*
X160578216Y-109386465D01*
X160866247Y-109265340D01*
X161188612Y-109224965D01*
X162527668Y-109224965D01*
X162830959Y-109265022D01*
G37*
G36*
X125975451Y-110395208D02*
G01*
X126235823Y-110609800D01*
X126390329Y-110399500D01*
X126716509Y-110329399D01*
X127019800Y-110369457D01*
X127180029Y-110498212D01*
X127234392Y-110649857D01*
X127242976Y-110844421D01*
X127242976Y-112715666D01*
X127234392Y-112913090D01*
X127180029Y-113067597D01*
X127022661Y-113196352D01*
X126727954Y-113236409D01*
X126424664Y-113196352D01*
X126264435Y-113067597D01*
X126210072Y-112915952D01*
X126201488Y-112721388D01*
X126201488Y-111777182D01*
X126134249Y-111472461D01*
X125932532Y-111370887D01*
X125726524Y-111472461D01*
X125657854Y-111777182D01*
X125657854Y-112709943D01*
X125649270Y-112904507D01*
X125594907Y-113064736D01*
X125437539Y-113196352D01*
X125142833Y-113236409D01*
X124839542Y-113196352D01*
X124679313Y-113067597D01*
X124624950Y-112913090D01*
X124616366Y-112715666D01*
X124616366Y-111782904D01*
X124556280Y-111462447D01*
X124347411Y-111370887D01*
X124141402Y-111472461D01*
X124072732Y-111777182D01*
X124072732Y-112709943D01*
X124064149Y-112904507D01*
X124009785Y-113064736D01*
X123852418Y-113196352D01*
X123557711Y-113236409D01*
X123254421Y-113196352D01*
X123094192Y-113067597D01*
X123039828Y-112913090D01*
X123031245Y-112715666D01*
X123031245Y-111782904D01*
X123062082Y-111352766D01*
X123154595Y-110993205D01*
X123308784Y-110704221D01*
X123518925Y-110492807D01*
X123779297Y-110365960D01*
X124089900Y-110323677D01*
X124363942Y-110370093D01*
X124621453Y-110509339D01*
X124862432Y-110741417D01*
X125077342Y-110509339D01*
X125348205Y-110370093D01*
X125675021Y-110323677D01*
X125975451Y-110395208D01*
G37*
G36*
X138253626Y-109206208D02*
G01*
X138575991Y-109321611D01*
X138853848Y-109513949D01*
X139066851Y-109764783D01*
X139194653Y-110055675D01*
X139237253Y-110386624D01*
X139191474Y-110758584D01*
X139054134Y-111067597D01*
X138825236Y-111313663D01*
X138504778Y-111496781D01*
X138288040Y-111574750D01*
X138015508Y-111648427D01*
X137566295Y-111782904D01*
X137417511Y-111960301D01*
X137520515Y-112226395D01*
X137858140Y-112309371D01*
X138084177Y-112255007D01*
X138315937Y-112046138D01*
X138574084Y-111837586D01*
X138822057Y-111799436D01*
X139059857Y-111931688D01*
X139300200Y-112297926D01*
X139157139Y-112669886D01*
X139122804Y-112709943D01*
X139059857Y-112790058D01*
X138959714Y-112890201D01*
X138822375Y-113001789D01*
X138644979Y-113110515D01*
X138424664Y-113204936D01*
X138155708Y-113267883D01*
X137835250Y-113293634D01*
X137454707Y-113250716D01*
X137062718Y-113104793D01*
X136710787Y-112850143D01*
X136461860Y-112463877D01*
X136388898Y-112216381D01*
X136364578Y-111943133D01*
X136418226Y-111515379D01*
X136579170Y-111204936D01*
X136830243Y-110987482D01*
X137154278Y-110838698D01*
X137520515Y-110750000D01*
X137869585Y-110678470D01*
X138095622Y-110578326D01*
X138195765Y-110392347D01*
X138104206Y-110217811D01*
X137892475Y-110146281D01*
X137703634Y-110166309D01*
X137592046Y-110209228D01*
X137511931Y-110275036D01*
X137446123Y-110329399D01*
X137062718Y-110435265D01*
X136725093Y-110157726D01*
X136587754Y-109805794D01*
X136793763Y-109511088D01*
X137090695Y-109320339D01*
X137455025Y-109205890D01*
X137886753Y-109167740D01*
X138253626Y-109206208D01*
G37*
%TD*%
D11*
%TO.C,U2*%
X87450000Y-55000000D03*
D12*
X89990000Y-55000000D03*
X92530000Y-55000000D03*
X95070000Y-55000000D03*
X97610000Y-55000000D03*
X100150000Y-55000000D03*
X102690000Y-55000000D03*
X105230000Y-55000000D03*
X107770000Y-55000000D03*
X110310000Y-55000000D03*
X112850000Y-55000000D03*
X115390000Y-55000000D03*
X115390000Y-39760000D03*
X112850000Y-39760000D03*
X110310000Y-39760000D03*
X107770000Y-39760000D03*
X105230000Y-39760000D03*
X102690000Y-39760000D03*
X100150000Y-39760000D03*
X97610000Y-39760000D03*
X95070000Y-39760000D03*
X92530000Y-39760000D03*
X89990000Y-39760000D03*
X87450000Y-39760000D03*
D13*
X88720000Y-47380000D03*
X114120000Y-47380000D03*
%TD*%
D14*
%TO.C,C4*%
X128636900Y-59515000D03*
X131136900Y-59515000D03*
%TD*%
D15*
%TO.C,RV2*%
X101728400Y-65970000D03*
D16*
X98228400Y-65970000D03*
X101728400Y-139470000D03*
D17*
X95778400Y-70120000D03*
X104178400Y-71320000D03*
X104178400Y-134120000D03*
X95778400Y-135320000D03*
%TD*%
D15*
%TO.C,RV3*%
X128861900Y-65430000D03*
D16*
X125361900Y-65430000D03*
X128861900Y-138930000D03*
D17*
X122911900Y-69580000D03*
X131311900Y-70780000D03*
X131311900Y-133580000D03*
X122911900Y-134780000D03*
%TD*%
D18*
%TO.C,J5*%
X191724900Y-65325000D03*
D19*
X194264900Y-65325000D03*
X196804900Y-65325000D03*
X199344900Y-65325000D03*
%TD*%
D18*
%TO.C,J4*%
X164611300Y-65325000D03*
D19*
X167151300Y-65325000D03*
X169691300Y-65325000D03*
X172231300Y-65325000D03*
%TD*%
D15*
%TO.C,RV4*%
X155975500Y-64835000D03*
D16*
X152475500Y-64835000D03*
X155975500Y-138335000D03*
D17*
X150025500Y-68985000D03*
X158425500Y-70185000D03*
X158425500Y-132985000D03*
X150025500Y-134185000D03*
%TD*%
D20*
%TO.C,U1*%
X239390000Y-81363400D03*
D21*
X239390000Y-78823400D03*
X239390000Y-76283400D03*
X239390000Y-73743400D03*
X239390000Y-71203400D03*
X239390000Y-68663400D03*
X239390000Y-66123400D03*
X239390000Y-63583400D03*
X239390000Y-61043400D03*
X239390000Y-58503400D03*
X239390000Y-55963400D03*
X239390000Y-53423400D03*
X239390000Y-50883400D03*
X239390000Y-48343400D03*
X239390000Y-45803400D03*
X239390000Y-43263400D03*
X239390000Y-40723400D03*
X239390000Y-38183400D03*
X239390000Y-35643400D03*
X213993680Y-35646120D03*
X213993680Y-38186120D03*
X213990000Y-40723400D03*
X213990000Y-43263400D03*
X213990000Y-45803400D03*
X213990000Y-48343400D03*
X213990000Y-50883400D03*
X213990000Y-53423400D03*
X213990000Y-55963400D03*
X213990000Y-58503400D03*
X213990000Y-61043400D03*
X213990000Y-63583400D03*
X213990000Y-66123400D03*
X213990000Y-68663400D03*
X213990000Y-71203400D03*
X213990000Y-73743400D03*
X213990000Y-76283400D03*
X213990000Y-78823400D03*
X213990000Y-81363400D03*
%TD*%
D15*
%TO.C,RV1*%
X74614900Y-65800000D03*
D16*
X71114900Y-65800000D03*
X74614900Y-139300000D03*
D17*
X68664900Y-69950000D03*
X77064900Y-71150000D03*
X77064900Y-133950000D03*
X68664900Y-135150000D03*
%TD*%
D14*
%TO.C,C2*%
X74389900Y-59515000D03*
X76889900Y-59515000D03*
%TD*%
%TO.C,C5*%
X155750500Y-58760000D03*
X158250500Y-58760000D03*
%TD*%
%TO.C,C3*%
X101503400Y-59515000D03*
X104003400Y-59515000D03*
%TD*%
D22*
%TO.C,REF\u002A\u002A*%
X75340000Y-44220000D03*
%TD*%
D15*
%TO.C,RV5*%
X183089000Y-65470000D03*
D16*
X179589000Y-65470000D03*
X183089000Y-138970000D03*
D17*
X177139000Y-69620000D03*
X185539000Y-70820000D03*
X185539000Y-133620000D03*
X177139000Y-134820000D03*
%TD*%
D23*
%TO.C,SW2*%
X125569900Y-42380000D03*
D24*
X125569900Y-47380000D03*
X125569900Y-44880000D03*
D25*
X133069900Y-39280000D03*
X133069900Y-50480000D03*
D24*
X140069900Y-47380000D03*
X140069900Y-42380000D03*
%TD*%
D26*
%TO.C,C1*%
X187164900Y-41030000D03*
D14*
X189664900Y-41030000D03*
%TD*%
D23*
%TO.C,SW1*%
X149699900Y-42380000D03*
D24*
X149699900Y-47380000D03*
X149699900Y-44880000D03*
D25*
X157199900Y-39280000D03*
X157199900Y-50480000D03*
D24*
X164199900Y-47380000D03*
X164199900Y-42380000D03*
%TD*%
D22*
%TO.C,REF\u002A\u002A*%
X231610000Y-134800000D03*
%TD*%
D18*
%TO.C,J1*%
X83250800Y-65960000D03*
D19*
X85790800Y-65960000D03*
X88330800Y-65960000D03*
X90870800Y-65960000D03*
%TD*%
D14*
%TO.C,C6*%
X182864000Y-59460000D03*
X185364000Y-59460000D03*
%TD*%
D18*
%TO.C,J2*%
X110384300Y-65490000D03*
D19*
X112924300Y-65490000D03*
X115464300Y-65490000D03*
X118004300Y-65490000D03*
%TD*%
D18*
%TO.C,J3*%
X137497800Y-65820000D03*
D19*
X140037800Y-65820000D03*
X142577800Y-65820000D03*
X145117800Y-65820000D03*
%TD*%
M02*
